<svg width="43" height="45" viewBox="0 0 43 45" fill="none" xmlns="http://www.w3.org/2000/svg">
<path d="M42.7762 20.486C42.7762 20.5129 42.7746 20.5403 42.774 20.5673C42.7705 20.7348 42.7649 20.9029 42.757 21.0711C42.7542 21.1344 42.7508 21.1977 42.7475 21.2611C42.7408 21.3967 42.7324 21.5329 42.7229 21.6696C42.7184 21.7363 42.7134 21.803 42.7083 21.8697C42.6971 22.0165 42.6835 22.1633 42.6695 22.3107C42.6644 22.3611 42.6599 22.4121 42.6549 22.4631C42.6347 22.6598 42.6118 22.8565 42.5865 23.0538C42.5814 23.0952 42.5746 23.1367 42.569 23.1787C42.5482 23.335 42.5258 23.4919 42.5017 23.6488C42.4916 23.7149 42.4809 23.7811 42.4703 23.8472C42.4479 23.9845 42.4243 24.1218 42.4002 24.2591C42.3929 24.2994 42.3867 24.3392 42.3794 24.3796C42.3738 24.4082 42.3676 24.4373 42.3626 24.4659C42.3413 24.5797 42.3183 24.6934 42.2953 24.8066C42.2807 24.8778 42.2668 24.9489 42.2521 25.0195C42.2257 25.1445 42.1972 25.2694 42.1691 25.3944C42.1556 25.4544 42.1427 25.5138 42.1287 25.5732C42.0855 25.7576 42.0401 25.9413 41.9924 26.1257C41.9901 26.1347 41.9873 26.1436 41.9851 26.1526C41.9397 26.3274 41.892 26.5028 41.8421 26.6782C41.8393 26.6888 41.8365 26.6995 41.8337 26.7101C41.7956 26.8446 41.7558 26.9791 41.7149 27.1135C41.7098 27.1298 41.7054 27.146 41.7003 27.1623C41.651 27.3248 41.5995 27.4879 41.5468 27.6504C41.53 27.7014 41.5126 27.7518 41.4958 27.8023C41.4588 27.9144 41.4211 28.0264 41.3819 28.1385C41.36 28.2007 41.3376 28.2629 41.3157 28.3251C41.291 28.3935 41.2675 28.4624 41.2423 28.5313C41.235 28.552 41.2261 28.5722 41.2188 28.5935C41.1341 28.8227 41.0466 29.0518 40.9547 29.2805C40.9384 29.3214 40.9211 29.3623 40.9042 29.4038C40.8223 29.6049 40.7384 29.8056 40.6509 30.0056C40.6375 30.037 40.625 30.0689 40.611 30.1003C40.6032 30.1188 40.5942 30.1373 40.5858 30.1558C40.4928 30.3665 40.397 30.5766 40.2978 30.7862C40.2804 30.8226 40.2625 30.8585 40.2457 30.8944C40.1605 31.0714 40.0729 31.2485 39.9838 31.425C39.9681 31.4558 39.9542 31.4872 39.9385 31.518C39.9217 31.5505 39.9037 31.583 39.8864 31.6155C39.8416 31.7029 39.7955 31.7904 39.749 31.8777C39.7249 31.9236 39.7008 31.969 39.6761 32.015C39.6442 32.0744 39.6127 32.1343 39.5803 32.1937C39.4766 32.3837 39.3706 32.5731 39.2619 32.7619C39.2473 32.7865 39.2333 32.8106 39.2193 32.8353C39.1974 32.8723 39.175 32.9087 39.1532 32.9457C39.0691 33.0892 38.9839 33.2315 38.897 33.3727C38.8583 33.436 38.8191 33.4987 38.7798 33.5615C38.6996 33.6904 38.6184 33.8176 38.5365 33.9442C38.5124 33.9823 38.4888 34.0209 38.4642 34.0585C38.4496 34.0803 38.435 34.1016 38.4205 34.1235C38.3235 34.2703 38.2254 34.416 38.1262 34.5606C38.1044 34.5931 38.0825 34.6262 38.0601 34.6587C37.9385 34.8341 37.8152 35.0072 37.6902 35.1787C37.6824 35.1899 37.6745 35.2011 37.6661 35.2123C37.6403 35.2481 37.6128 35.2829 37.5865 35.3188C37.4935 35.4443 37.4 35.5692 37.3053 35.6931C37.261 35.7514 37.2161 35.8085 37.1712 35.8662C37.0815 35.9816 36.9914 36.0954 36.9 36.2085C36.872 36.2432 36.8451 36.2791 36.8165 36.3138C36.8014 36.3323 36.7856 36.3502 36.7704 36.3693C36.6488 36.5178 36.526 36.6646 36.4016 36.8097C36.3881 36.8254 36.3747 36.8422 36.3607 36.8579C36.2228 37.0187 36.0834 37.1762 35.9427 37.3319C35.9304 37.3459 35.9179 37.3599 35.9056 37.3739C35.8781 37.4042 35.8495 37.4333 35.8221 37.4635C35.7128 37.5823 35.6035 37.7 35.4931 37.8165C35.4466 37.8653 35.4001 37.914 35.3535 37.9622C35.2313 38.0889 35.108 38.2143 34.9836 38.3376C34.9612 38.36 34.94 38.383 34.9176 38.4049C34.912 38.4105 34.9063 38.4155 34.9012 38.4206C34.7409 38.578 34.5796 38.7327 34.4165 38.8845C34.3744 38.9243 34.3318 38.963 34.2897 39.0016C34.158 39.1232 34.0257 39.2425 33.8923 39.3601C33.8654 39.3837 33.8391 39.4089 33.8122 39.4324C33.7993 39.4436 33.7864 39.4543 33.7735 39.4655C33.5936 39.6218 33.412 39.7759 33.2293 39.926C33.1907 39.958 33.152 39.9888 33.1134 40.0207C32.9464 40.1557 32.7787 40.2891 32.6095 40.4191C32.5893 40.4342 32.5697 40.451 32.5501 40.4661C32.5395 40.4745 32.5283 40.4824 32.5177 40.4902C32.4712 40.5255 32.4247 40.5602 32.3781 40.5949C32.2935 40.6588 32.2087 40.7221 32.1235 40.7843C32.0708 40.823 32.0176 40.8605 31.9649 40.8986C31.8847 40.9558 31.8047 41.0129 31.724 41.0695C31.6691 41.1082 31.6135 41.1463 31.558 41.1844C31.4789 41.2387 31.3994 41.2925 31.3198 41.3457C31.2638 41.3832 31.2077 41.4208 31.1511 41.4578C31.118 41.4791 31.0862 41.5015 31.0531 41.5228C31.0184 41.5458 30.983 41.5671 30.9482 41.5895C30.8518 41.6511 30.7548 41.7122 30.6584 41.7722C30.5968 41.8108 30.5351 41.849 30.4735 41.8865C30.3732 41.9476 30.2728 42.007 30.172 42.0663C30.1143 42.1005 30.056 42.1346 29.9983 42.1683C29.8817 42.2355 29.7646 42.3005 29.6475 42.3655C29.6055 42.389 29.5634 42.4131 29.5208 42.4361C29.3612 42.5229 29.2014 42.6075 29.0406 42.6899C29.0361 42.6927 29.0316 42.695 29.0271 42.6972C28.9951 42.714 28.9626 42.7291 28.9302 42.7454C28.8063 42.8081 28.6824 42.8698 28.558 42.9297C28.5003 42.9583 28.442 42.9852 28.3837 43.0126C28.28 43.0614 28.1758 43.1101 28.071 43.1572C28.0077 43.1863 27.9432 43.2149 27.8793 43.2429C27.779 43.2871 27.6793 43.3303 27.579 43.3729C27.5134 43.4003 27.4483 43.4278 27.3828 43.4547C27.2814 43.4967 27.1795 43.537 27.078 43.5774C27.0147 43.602 26.9512 43.6273 26.8879 43.6513C26.7775 43.6933 26.6672 43.7342 26.5562 43.774C26.5018 43.7936 26.4474 43.8143 26.393 43.8334C26.2361 43.8888 26.0793 43.9426 25.9218 43.9936C25.9134 43.9964 25.9049 43.9992 25.897 44.002C25.7311 44.0558 25.5652 44.1067 25.3993 44.1554C25.3461 44.1717 25.2928 44.1862 25.2396 44.2013C25.1258 44.2338 25.0126 44.2657 24.8994 44.296C24.8355 44.3134 24.7717 44.329 24.7084 44.3459C24.6041 44.3722 24.5004 44.3985 24.3961 44.4231C24.3294 44.4394 24.2627 44.4545 24.1955 44.4701C24.0929 44.493 23.9904 44.5155 23.8878 44.5373C23.8217 44.5513 23.7556 44.5653 23.6895 44.5782C23.5825 44.5994 23.4759 44.6191 23.3694 44.6386C23.3078 44.6498 23.2467 44.6615 23.185 44.6716C23.0606 44.6929 22.9367 44.7124 22.8129 44.7309C22.7692 44.7371 22.7255 44.7449 22.6823 44.751C22.5153 44.7745 22.3478 44.7963 22.1808 44.8154C22.141 44.8199 22.1007 44.8232 22.0609 44.8277C21.9331 44.8411 21.8059 44.854 21.6787 44.8646C21.6182 44.8702 21.5577 44.8741 21.4965 44.8786C21.3895 44.8865 21.2826 44.8943 21.1749 44.9004C21.1093 44.9037 21.0437 44.9065 20.9775 44.9099C20.9618 44.9105 20.9468 44.911 20.9311 44.9115C20.8443 44.9155 20.7567 44.9188 20.6699 44.921C20.6032 44.9227 20.5365 44.9244 20.4698 44.9249C20.3667 44.9266 20.263 44.9271 20.1599 44.9265C20.0954 44.9265 20.0316 44.9265 19.9677 44.9254C19.8556 44.9237 19.7441 44.9203 19.6326 44.9163C19.5782 44.9146 19.5233 44.9135 19.469 44.9112C19.3082 44.9039 19.1474 44.8949 18.9871 44.8826C18.9826 44.8826 18.9776 44.882 18.9731 44.882C18.8084 44.8696 18.6436 44.8539 18.4794 44.8365C18.4267 44.8309 18.3746 44.8241 18.322 44.818C18.2099 44.8051 18.0984 44.7916 17.9875 44.7765C17.9247 44.7675 17.8625 44.758 17.8003 44.749C17.6989 44.7333 17.5969 44.7176 17.4954 44.7002C17.4304 44.6895 17.3661 44.6777 17.301 44.6659C17.2013 44.6474 17.102 44.6283 17.0028 44.6081C16.9389 44.5952 16.875 44.5823 16.8111 44.5683C16.708 44.5458 16.6056 44.5223 16.503 44.4976C16.4447 44.4836 16.3858 44.4707 16.3275 44.4561C16.2076 44.4258 16.0882 44.3939 15.9689 44.3608C15.9291 44.3496 15.8888 44.3395 15.8485 44.3283C15.6899 44.2829 15.5319 44.2352 15.3744 44.1848C15.3363 44.1725 15.2988 44.159 15.2607 44.1467C15.1414 44.1075 15.022 44.0671 14.9038 44.025C14.8472 44.0048 14.7917 43.9835 14.7357 43.9622C14.6354 43.9252 14.5357 43.8876 14.4359 43.8484C14.3748 43.8243 14.3143 43.7996 14.2538 43.7744C14.1591 43.7357 14.0644 43.6959 13.9703 43.655C13.9092 43.6281 13.8481 43.6012 13.787 43.5737C13.6918 43.5311 13.5976 43.4874 13.5035 43.4425C13.4452 43.4145 13.3869 43.3876 13.3292 43.359C13.2272 43.3086 13.1258 43.257 13.0244 43.2043C12.9757 43.1785 12.9269 43.1544 12.8782 43.1286C12.7292 43.049 12.5807 42.9671 12.4338 42.882L9.04443 40.9246C9.19123 41.0092 9.33975 41.0911 9.48875 41.1707C9.53695 41.1965 9.58624 41.2212 9.63494 41.2464C9.73634 41.2991 9.83775 41.3513 9.93975 41.4011C9.99745 41.4297 10.0558 41.4572 10.1135 41.4846C10.2076 41.5294 10.3022 41.5737 10.3969 41.6163C10.458 41.6438 10.519 41.6707 10.5807 41.697C10.6748 41.7379 10.7695 41.7777 10.8642 41.817C10.9247 41.8417 10.9852 41.8663 11.0463 41.8905C11.1455 41.9303 11.2458 41.9678 11.3455 42.0049C11.4015 42.0256 11.4576 42.0469 11.5142 42.0671C11.6324 42.1097 11.7518 42.1495 11.8711 42.1888C11.9092 42.2017 11.9468 42.2151 11.9848 42.2269C12.1423 42.2773 12.3003 42.3256 12.4589 42.3704C12.4987 42.3822 12.539 42.3923 12.5794 42.4035C12.6988 42.436 12.8181 42.4685 12.9375 42.4983C12.9963 42.5129 13.0546 42.5264 13.1135 42.5404C13.2155 42.5645 13.3181 42.5886 13.4207 42.6105C13.4212 42.6111 13.4212 42.6111 13.4218 42.6111C13.4857 42.6246 13.5489 42.6375 13.6128 42.6504C13.7125 42.6706 13.8117 42.6902 13.9115 42.7082C13.9765 42.72 14.0409 42.7318 14.1059 42.743C14.2073 42.7598 14.3088 42.7761 14.4107 42.7912C14.4729 42.8007 14.5351 42.8103 14.5973 42.8187C14.7088 42.8339 14.8203 42.8473 14.9318 42.8608C14.9845 42.8664 15.0371 42.8737 15.0898 42.8794C15.254 42.8968 15.4187 42.9119 15.5835 42.9243C15.588 42.9248 15.593 42.9249 15.5975 42.9254C15.7578 42.9372 15.9186 42.9462 16.0794 42.9535C16.1337 42.9563 16.1887 42.9575 16.243 42.9591C16.3545 42.9631 16.466 42.9664 16.5781 42.9681C16.642 42.9686 16.7059 42.9686 16.7703 42.9692C16.8734 42.9692 16.9765 42.9692 17.0802 42.9676C17.1469 42.9665 17.2135 42.9648 17.2802 42.9632C17.3828 42.9604 17.4853 42.9565 17.5879 42.952C17.6535 42.9492 17.7197 42.9464 17.7853 42.9425C17.8923 42.9363 17.9998 42.9291 18.1068 42.9207C18.1673 42.9162 18.2284 42.9124 18.2889 42.9073C18.4161 42.8961 18.5433 42.8833 18.6705 42.8698C18.7108 42.8653 18.7507 42.862 18.791 42.8575C18.958 42.8385 19.125 42.8172 19.292 42.7931C19.3357 42.7869 19.3794 42.7797 19.4226 42.773C19.547 42.7545 19.6708 42.7355 19.7953 42.7142C19.8564 42.7035 19.918 42.6918 19.9797 42.6806C20.0862 42.6616 20.1926 42.6414 20.2991 42.6207C20.3658 42.6072 20.4319 42.5933 20.4981 42.5792C20.6006 42.5579 20.7032 42.5355 20.8057 42.512C20.8724 42.4969 20.9391 42.4812 21.0058 42.4655C21.11 42.4403 21.2143 42.4145 21.318 42.3876C21.3819 42.3714 21.4459 42.3551 21.5092 42.3383C21.623 42.3081 21.7361 42.2756 21.8493 42.2431C21.9031 42.228 21.9563 42.2135 22.0096 42.1978C22.1754 42.1485 22.3413 42.0976 22.5067 42.0438C22.5151 42.0416 22.5235 42.0382 22.5319 42.0354C22.6888 41.9844 22.8463 41.9312 23.0026 41.8758C23.0575 41.8562 23.1119 41.836 23.1663 41.8164C23.2767 41.7761 23.3877 41.7357 23.498 41.6932C23.5614 41.6691 23.6241 41.6439 23.6875 41.6192C23.7895 41.5795 23.8909 41.5385 23.9929 41.4971C24.0579 41.4702 24.1236 41.4428 24.1885 41.4153C24.2888 41.3727 24.3892 41.329 24.4896 41.2848C24.5535 41.2568 24.6174 41.2288 24.6813 41.1997C24.786 41.1526 24.8897 41.1039 24.9939 41.0546C25.0522 41.0272 25.1105 41.0003 25.1682 40.9723C25.2926 40.9124 25.4165 40.8502 25.5403 40.7874C25.5773 40.7689 25.6137 40.7515 25.6507 40.7325C25.8115 40.6502 25.9714 40.565 26.1311 40.4782C26.1737 40.4553 26.2156 40.4312 26.2577 40.4076C26.3748 40.3432 26.492 40.2776 26.608 40.211C26.6663 40.1774 26.7246 40.1426 26.7829 40.1084C26.8832 40.049 26.9835 39.9896 27.0833 39.9286C27.1455 39.8911 27.2066 39.853 27.2682 39.8149C27.3652 39.7544 27.4616 39.6933 27.558 39.6317C27.6258 39.588 27.6937 39.5449 27.7614 39.5001C27.8176 39.4631 27.8735 39.4261 27.9295 39.3886C28.0096 39.3354 28.0892 39.2811 28.1682 39.2267C28.2237 39.1886 28.2793 39.1505 28.3342 39.1118C28.4149 39.0558 28.4949 38.9986 28.5751 38.9409C28.6278 38.9028 28.6806 38.8653 28.7332 38.8272C28.8189 38.7644 28.9035 38.7012 28.9887 38.6373C29.0347 38.6026 29.0812 38.5684 29.1277 38.5331C29.1585 38.5096 29.1889 38.4849 29.2197 38.4614C29.389 38.3314 29.5564 38.1986 29.7229 38.063C29.7615 38.0317 29.8009 38.0003 29.8396 37.9689C30.0223 37.8182 30.2039 37.6647 30.3833 37.5078C30.4237 37.4731 30.4634 37.4372 30.5031 37.4025C30.636 37.2848 30.7682 37.1655 30.8994 37.0445C30.942 37.0059 30.9846 36.9666 31.0266 36.9274C31.1897 36.775 31.3511 36.6209 31.5108 36.4635C31.5389 36.436 31.5663 36.4075 31.5943 36.3795C31.7182 36.2562 31.8415 36.1318 31.9631 36.0052C32.0102 35.957 32.0567 35.9077 32.1032 35.859C32.2136 35.743 32.3229 35.6254 32.4316 35.5066C32.472 35.4623 32.5123 35.4192 32.5527 35.3749C32.6934 35.2186 32.833 35.0611 32.9708 34.9009C32.9848 34.8847 32.9982 34.8684 33.0117 34.8521C33.1361 34.707 33.2583 34.5602 33.3799 34.4117C33.4236 34.3585 33.4668 34.3047 33.5099 34.2515C33.6007 34.1383 33.6916 34.024 33.7812 33.9092C33.826 33.8515 33.8709 33.7938 33.9152 33.7355C34.0099 33.6122 34.1035 33.4873 34.1965 33.3612C34.2307 33.3147 34.266 33.2682 34.3002 33.2211C34.4252 33.0496 34.5485 32.8765 34.6701 32.7011C34.6925 32.6686 34.7139 32.6356 34.7364 32.6031C34.8356 32.4591 34.9336 32.3134 35.0306 32.1666C35.0693 32.1066 35.108 32.0467 35.1472 31.9867C35.2285 31.86 35.3098 31.7328 35.3899 31.6045C35.4292 31.5417 35.4685 31.4784 35.5072 31.4151C35.5935 31.2745 35.6786 31.1322 35.7627 30.9893C35.7986 30.9277 35.8356 30.8666 35.8714 30.805C35.9807 30.6162 36.0862 30.4262 36.1905 30.2362C36.223 30.1768 36.2544 30.1174 36.2863 30.0574C36.3575 29.9246 36.4275 29.7918 36.4964 29.6584C36.525 29.6035 36.5531 29.5486 36.5811 29.4931C36.585 29.4847 36.5894 29.4757 36.5939 29.4673C36.683 29.2908 36.7705 29.1143 36.8552 28.9366C36.8725 28.9008 36.8905 28.8649 36.9079 28.829C37.0071 28.6195 37.1025 28.4087 37.1961 28.1981C37.218 28.1482 37.2393 28.0978 37.2611 28.048C37.348 27.8479 37.4327 27.6473 37.5146 27.4467C37.5314 27.4052 37.5487 27.3644 37.5649 27.3229C37.6563 27.0943 37.7443 26.8651 37.8284 26.6359C37.8615 26.5468 37.894 26.4571 37.9254 26.3681C37.9478 26.3059 37.9703 26.2437 37.9921 26.181C38.0308 26.0689 38.0683 25.9569 38.1059 25.8448C38.1227 25.7944 38.1401 25.7439 38.1564 25.6935C38.2097 25.531 38.2612 25.3679 38.3106 25.2049C38.3157 25.1886 38.3201 25.173 38.3252 25.1567C38.369 25.011 38.4115 24.8659 38.4525 24.7208C38.5024 24.5454 38.5501 24.3694 38.5955 24.194C38.5977 24.1856 38.6005 24.1772 38.6028 24.1682C38.6505 23.9844 38.6953 23.8001 38.7391 23.6157C38.7531 23.5563 38.7656 23.4969 38.779 23.4369C38.8076 23.3125 38.8356 23.1876 38.8619 23.0631C38.877 22.9914 38.8911 22.9197 38.9056 22.8485C38.9286 22.7353 38.951 22.6221 38.9723 22.5095C38.9852 22.44 38.9975 22.3705 39.0098 22.3016C39.0345 22.1643 39.0581 22.0276 39.0799 21.8909C39.0911 21.8242 39.1018 21.7581 39.1119 21.6914C39.136 21.535 39.1585 21.3792 39.1792 21.2229C39.1848 21.1809 39.1911 21.1383 39.1967 21.0957C39.2219 20.899 39.2443 20.7023 39.2651 20.5062C39.2701 20.4552 39.2747 20.4042 39.2792 20.3532C39.2938 20.2064 39.3066 20.059 39.3184 19.9127C39.3235 19.8455 39.3279 19.7788 39.333 19.7115C39.3425 19.5759 39.3504 19.4403 39.3577 19.3047C39.3611 19.2408 39.3644 19.1769 39.3673 19.1136C39.3746 18.946 39.3803 18.7791 39.3843 18.6121C39.3849 18.5841 39.3859 18.5566 39.3865 18.5286C39.3905 18.3353 39.391 18.1419 39.3899 17.9492C39.3893 17.8937 39.3883 17.8377 39.3871 17.7822C39.3854 17.6432 39.3827 17.5048 39.3782 17.3664C39.376 17.3003 39.3738 17.2347 39.371 17.1686C39.3654 17.0341 39.3581 16.9002 39.3503 16.7662C39.3469 16.7068 39.3436 16.6469 39.3397 16.588C39.3274 16.4014 39.3129 16.2159 39.2955 16.031C39.2955 16.0276 39.2955 16.0237 39.295 16.0198C39.2771 15.8315 39.2564 15.6438 39.234 15.4572C39.2273 15.3995 39.2194 15.3417 39.2121 15.2846C39.1948 15.1529 39.1768 15.0218 39.1578 14.8912C39.1483 14.8273 39.1388 14.7634 39.1287 14.7001C39.108 14.5673 39.0856 14.4356 39.0621 14.3039C39.0526 14.2501 39.0438 14.1963 39.0342 14.1425C39 13.9603 38.9641 13.7782 38.9261 13.5977C38.9211 13.5753 38.9154 13.5534 38.9109 13.531C38.8762 13.3724 38.8404 13.2149 38.8023 13.058C38.7877 13.0003 38.7732 12.9426 38.7586 12.8848C38.7272 12.761 38.6953 12.6377 38.6617 12.515C38.6443 12.4528 38.6276 12.3912 38.6103 12.3295C38.5789 12.2191 38.5465 12.1098 38.5134 12.0005C38.4961 11.9417 38.4786 11.8834 38.4601 11.8251C38.4187 11.6934 38.3761 11.5628 38.3319 11.4328C38.3207 11.3986 38.3101 11.3639 38.2983 11.3303C38.2417 11.1666 38.1835 11.0041 38.123 10.8433C38.1067 10.7996 38.0894 10.7564 38.0726 10.7133C38.0272 10.5956 37.982 10.4785 37.9343 10.3619C37.9024 10.2835 37.8693 10.2056 37.8363 10.1276C37.8128 10.0721 37.7891 10.0161 37.7651 9.96057C37.727 9.87377 37.6878 9.78747 37.6486 9.70117C37.6262 9.65187 37.6049 9.60247 37.5819 9.55437C37.5315 9.44567 37.4788 9.33807 37.4262 9.23037C37.4139 9.20517 37.4021 9.17936 37.3892 9.15356C37.3242 9.02296 37.257 8.89298 37.1886 8.76348C37.0889 8.57518 36.9847 8.38966 36.8782 8.20586C36.8535 8.16326 36.8289 8.12127 36.8042 8.07917C36.6966 7.89647 36.5863 7.71547 36.4714 7.53777C36.4591 7.51867 36.4462 7.49967 36.4339 7.48057C36.3403 7.33657 36.244 7.19417 36.1465 7.05347C36.1157 7.00917 36.0849 6.96548 36.0535 6.92178C35.9554 6.78278 35.8546 6.64546 35.7521 6.50986C35.737 6.49026 35.7224 6.47006 35.7073 6.45046C35.5969 6.30586 35.4832 6.16406 35.3678 6.02336C35.3364 5.98526 35.304 5.94716 35.2715 5.90906C35.1841 5.80426 35.095 5.70056 35.0042 5.59856C34.9661 5.55536 34.9286 5.51286 34.8899 5.47026C34.798 5.36826 34.7039 5.26738 34.6086 5.16768C34.5806 5.13848 34.5531 5.10828 34.5246 5.07908C34.4013 4.95188 34.2758 4.82746 34.1486 4.70466C34.1161 4.67386 34.083 4.64357 34.0506 4.61277C33.9845 4.54997 33.9178 4.48837 33.8506 4.42727C33.8209 4.39917 33.7912 4.37226 33.761 4.34546C33.7162 4.30566 33.6714 4.26586 33.6265 4.22666C33.5352 4.14706 33.4433 4.06806 33.3497 3.99016C33.3049 3.95316 33.2606 3.91566 33.2152 3.87866C33.1059 3.78956 32.9944 3.70207 32.8824 3.61577C32.855 3.59447 32.8281 3.57256 32.8006 3.55186C32.661 3.44596 32.5187 3.34227 32.3747 3.24077C32.3366 3.21447 32.298 3.18807 32.2594 3.16167C32.1501 3.08657 32.0396 3.01206 31.9282 2.93916C31.8771 2.90606 31.8256 2.87298 31.774 2.84048C31.6686 2.77378 31.5623 2.70756 31.4552 2.64316C31.3807 2.59886 31.3067 2.55297 31.2316 2.50977L33.8517 4.02266L34.621 4.46716C34.6636 4.49186 34.7062 4.51647 34.7482 4.54177C34.7807 4.56077 34.8121 4.58157 34.8451 4.60117C34.9521 4.66567 35.0587 4.73118 35.1635 4.79788C35.215 4.83098 35.2665 4.86347 35.3181 4.89707C35.4296 4.96937 35.5395 5.04396 35.6488 5.11956C35.6785 5.13976 35.7087 5.15878 35.7378 5.17898C35.7467 5.18568 35.7557 5.19246 35.7641 5.19856C35.9081 5.29996 36.0504 5.40316 36.19 5.50906C36.218 5.53036 36.2449 5.55216 36.2729 5.57356C36.3844 5.65986 36.4954 5.74676 36.6046 5.83586C36.6214 5.84936 36.6388 5.86227 36.6556 5.87627C36.6842 5.89977 36.7111 5.92447 36.7397 5.94797C36.8327 6.02587 36.9246 6.10436 37.0159 6.18396C37.0607 6.22376 37.1061 6.26297 37.1504 6.30337C37.2484 6.39087 37.3448 6.47997 37.4401 6.57017C37.4653 6.59427 37.4922 6.61726 37.5174 6.64136C37.5241 6.64806 37.5308 6.65536 37.5381 6.66206C37.6658 6.78486 37.7913 6.90977 37.914 7.03647C37.9426 7.06617 37.9701 7.09588 37.9981 7.12498C38.0933 7.22478 38.1875 7.32567 38.2799 7.42817C38.2967 7.44667 38.3147 7.46517 38.3315 7.48367C38.3528 7.50777 38.3731 7.53246 38.3938 7.55596C38.4846 7.65856 38.5736 7.76227 38.6615 7.86707C38.6935 7.90517 38.7259 7.94267 38.7579 7.98137C38.8733 8.12147 38.9865 8.26387 39.0974 8.40847C39.1008 8.41237 39.1036 8.41626 39.1069 8.42026C39.1186 8.43596 39.1293 8.45166 39.1411 8.46736C39.2442 8.60296 39.3451 8.74026 39.4438 8.87986C39.4746 8.92306 39.5053 8.96676 39.5361 9.01106C39.6336 9.15176 39.7295 9.29347 39.823 9.43757C39.833 9.45327 39.8442 9.46836 39.8542 9.48406C39.857 9.48796 39.8593 9.49187 39.8615 9.49587C39.9758 9.67357 40.0863 9.85457 40.1938 10.0367C40.219 10.0793 40.2437 10.1213 40.2677 10.1639C40.3741 10.3477 40.4783 10.5332 40.5781 10.7215C40.5798 10.7243 40.582 10.7277 40.5837 10.731C40.6504 10.8571 40.7154 10.9838 40.7792 11.1115C40.7909 11.1361 40.8027 11.1614 40.815 11.186C40.8682 11.2942 40.9203 11.4029 40.9719 11.5122C40.9943 11.5604 41.0157 11.6086 41.0375 11.6568C41.0773 11.7442 41.1165 11.8311 41.1552 11.9185C41.1787 11.9734 41.2022 12.0295 41.2257 12.0844C41.2509 12.1438 41.2767 12.2026 41.3013 12.2626C41.3091 12.2816 41.3165 12.3007 41.3238 12.3197C41.3714 12.4363 41.4172 12.5534 41.4621 12.6706C41.4789 12.7143 41.4963 12.7569 41.5126 12.8006C41.573 12.962 41.6318 13.124 41.6878 13.2876C41.6995 13.3218 41.7102 13.356 41.7214 13.3901C41.7656 13.5201 41.8088 13.6513 41.8496 13.7829C41.8681 13.8406 41.8854 13.8995 41.9028 13.9578C41.9358 14.0671 41.9689 14.1769 41.9997 14.2867C42.0081 14.3153 42.0172 14.3428 42.025 14.3713C42.034 14.4049 42.0423 14.4385 42.0512 14.4722C42.0848 14.5949 42.1173 14.7188 42.1481 14.8426C42.1627 14.9003 42.1778 14.9575 42.1918 15.0152C42.2299 15.1721 42.2663 15.3302 42.3004 15.4888C42.3055 15.5106 42.3106 15.5331 42.3156 15.5555C42.3542 15.7359 42.3899 15.9175 42.4235 16.1002C42.4336 16.1534 42.4425 16.2078 42.4515 16.261C42.475 16.3927 42.4974 16.525 42.5181 16.6572C42.5282 16.7211 42.5377 16.785 42.5472 16.8489C42.5668 16.9789 42.5842 17.11 42.601 17.2412C42.6088 17.2989 42.6166 17.3566 42.6233 17.4149C42.6462 17.6015 42.667 17.7892 42.6844 17.9775C42.685 17.9809 42.6849 17.9848 42.6855 17.9887C42.7023 18.1731 42.7168 18.3591 42.7291 18.5452C42.7336 18.6046 42.7363 18.6646 42.7397 18.724C42.7479 18.8579 42.7548 18.9918 42.7603 19.1263C42.7631 19.1919 42.7654 19.258 42.7676 19.3236C42.772 19.462 42.7748 19.601 42.777 19.7394C42.7776 19.7955 42.7785 19.8509 42.7792 19.907C42.7808 20.0993 42.7801 20.2927 42.7762 20.486Z" fill="#fb9c2a"/>
<path d="M35.8717 30.8038C29.7457 41.4112 17.7329 45.9425 9.04401 40.9242C0.355212 35.9059 -1.72269 23.2365 4.40341 12.6291C10.5312 2.02166 22.5422 -2.50955 31.2328 2.50875C39.9216 7.52695 41.9995 20.1964 35.8717 30.8038Z" fill="#FD8166"/>
<path d="M28.3767 7.13306L26.9563 17.2443L33.6075 22.8389L24.5603 26.122L20.6221 35.8629L16.451 27.7811L7.36621 28.2066L13.8358 19.9278L12.1592 10.451L20.3283 13.4162L28.3767 7.13306Z" fill="white"/>
</svg>
