<svg width="14" height="17" viewBox="0 0 14 17" fill="none" xmlns="http://www.w3.org/2000/svg">
<path d="M10.1151 0.827101L10.1111 0.841108C9.58905 0.620108 8.94607 0.669109 8.24307 1.07611C7.32107 1.60811 6.49607 2.62011 5.92307 3.79611C5.35107 3.28111 4.52506 3.2231 3.60306 3.7541C1.87606 4.7511 0.476074 7.42611 0.476074 9.72911C0.476074 10.9241 0.855052 11.7801 1.46005 12.1911L1.45807 12.1931L5.91306 15.3211L8.29507 16.6311L12.4441 2.1161L10.1151 0.827101Z" fill="#ED4222"/>
<path d="M13.7512 4.74914C13.7512 2.44614 12.3511 1.38815 10.6241 2.38515C9.70315 2.91715 8.87714 3.92915 8.30414 5.10515C7.73214 4.59015 6.90614 4.53215 5.98514 5.06415C4.25814 6.06115 2.85815 8.73615 2.85815 11.0392C2.85815 12.2342 3.23716 13.0902 3.84216 13.5012L3.84015 13.5041L8.29517 16.6321L12.6591 8.54515C13.3271 7.39315 13.7512 6.01514 13.7512 4.74914Z" fill="#F07862"/>
</svg>
