<svg width="83" height="60" viewBox="0 0 83 60" fill="none" xmlns="http://www.w3.org/2000/svg">
<path d="M52.6581 12.6261L3.57104 40.9671L33.06 57.9921L82.147 29.6521L52.6581 12.6261Z" fill="#F07862"/>
<path d="M3.57104 40.9671L47.973 36.0481L52.6581 12.6261L3.57104 40.9671Z" fill="#ED4222"/>
<path d="M45.3652 29.0041L81.0232 30.3001L82.1472 29.6521L80.9752 28.9751L46.1782 27.7101L45.3652 29.0041Z" fill="#ED4222"/>
<path d="M37.3651 35.2671L32.2881 57.5471L33.0601 57.9921L33.7761 57.5861L38.8381 35.3091L37.3651 35.2671Z" fill="#ED4222"/>
<path d="M33.0671 57.996L33.0361 59.789L3.54712 42.763L3.57112 40.967L33.0671 57.996Z" fill="#ED4222"/>
<path d="M82.1541 29.6561L82.1231 31.4491L33.0361 59.7891L33.0671 57.9961L82.1541 29.6561Z" fill="#ED4222"/>
<path d="M49.8119 0.102051L0.724854 28.4431L30.2139 45.468L79.3008 17.1281L49.8119 0.102051Z" fill="#C5D2EF"/>
<path d="M0.724854 28.4431L45.1269 23.524L49.8119 0.102051L0.724854 28.4431Z" fill="#A8BDE2"/>
<path d="M42.52 16.48L78.177 17.776L79.301 17.128L78.129 16.451L43.332 15.186L42.52 16.48Z" fill="#A8BDE2"/>
<path d="M34.5189 22.7421L29.4419 45.0221L30.2139 45.468L30.9299 45.0621L35.9919 22.7851L34.5189 22.7421Z" fill="#A8BDE2"/>
<path d="M30.2209 45.4721L30.1899 47.2651L0.700928 30.2391L0.72493 28.4431L30.2209 45.4721Z" fill="#96B0D6"/>
<path d="M79.3079 17.1321L79.2769 18.9241L30.1899 47.2651L30.2209 45.4721L79.3079 17.1321Z" fill="#A8BDE2"/>
</svg>
