<svg width="30" height="44" viewBox="0 0 30 44" fill="none" xmlns="http://www.w3.org/2000/svg">
<path d="M22.483 13.2191L17.382 16.1641V5.20614L19.621 3.75214L20.164 2.94114L16.633 0.839149C16.614 0.824149 16.592 0.816138 16.572 0.803138L16.478 0.747138C16.026 0.490138 15.442 0.503138 14.802 0.872138C13.383 1.69214 12.222 3.91015 12.222 5.80215V14.5362L2.69803 20.0351C1.52303 20.7141 0.561035 22.5511 0.561035 24.1191C0.561035 24.8681 0.797034 25.3882 1.16003 25.6782L1.13904 25.7011L1.61404 25.9851C0.996044 26.8411 0.561035 27.9571 0.561035 28.9851C0.561035 29.8141 0.853034 30.3491 1.28503 30.6081L1.25702 30.6371L1.92102 31.0341C1.13802 31.9041 0.561035 33.1951 0.561035 34.3841C0.561035 35.1311 0.794022 35.6471 1.15402 35.9341L1.13904 35.9502L1.99203 36.4601C1.17203 37.3251 0.561035 38.6491 0.561035 39.8731C0.561035 40.6231 0.791024 41.1651 1.15002 41.4681L1.17102 41.4972C1.19402 41.5152 1.22103 41.5241 1.24503 41.5411L5.29602 43.9311L7.27402 41.6581L5.25204 40.0142L22.484 30.0651V13.2191H22.483Z" fill="#96B0D6"/>
<path d="M25.5431 28.2982L20.6831 31.1042V11.0232L25.5431 8.21716V28.2982Z" fill="#3C4C99"/>
<path d="M29.3061 10.4521L25.5431 8.21716L20.6831 11.0232L24.4461 13.2581L29.3061 10.4521Z" fill="#5768BC"/>
<path d="M24.446 16.4882L20.683 14.2542L15.822 17.0602L19.586 19.2942L24.446 16.4882Z" fill="#96B0D6"/>
<path d="M21.145 18.3981V5.05714C21.145 3.16514 19.984 2.28714 18.565 3.10614C17.146 3.92514 15.985 6.14414 15.985 8.03614V16.7701L6.46097 22.2691C5.28497 22.9471 4.32397 24.7851 4.32397 26.3531C4.32397 27.4051 4.77697 28.0301 5.41797 28.1541C4.77697 29.0171 4.32397 30.1661 4.32397 31.2181C4.32397 32.5241 5.00496 33.1911 5.90796 33.0031C5.00496 33.8571 4.32397 35.3111 4.32397 36.6171C4.32397 38.0011 5.08797 38.6671 6.07297 38.3521C5.08897 39.1731 4.32397 40.7221 4.32397 42.1061C4.32397 43.6731 5.28597 44.4011 6.46097 43.7221L26.246 32.2991V15.4531L21.145 18.3981Z" fill="#C5D2EF"/>
<path d="M29.306 30.5322L24.446 33.3382V13.2581L29.306 10.4521V30.5322Z" fill="#4B57AA"/>
<path d="M7.93703 27.0052C7.72603 27.0052 7.51802 26.8952 7.40602 26.6982C7.23502 26.4042 7.33602 26.0291 7.63002 25.8601L14.799 21.7212C15.092 21.5472 15.467 21.6502 15.637 21.9452C15.807 22.2392 15.706 22.6142 15.413 22.7842L8.244 26.9232C8.147 26.9792 8.04103 27.0052 7.93703 27.0052Z" fill="#96B0D6"/>
<path d="M7.93703 32.5121C7.72603 32.5121 7.51802 32.4011 7.40602 32.2051C7.23502 31.9111 7.33602 31.5361 7.63002 31.3661L14.799 27.2261C15.092 27.0541 15.467 27.1551 15.637 27.4501C15.807 27.7441 15.706 28.1191 15.413 28.2891L8.244 32.4291C8.147 32.4861 8.04103 32.5121 7.93703 32.5121Z" fill="#96B0D6"/>
<path d="M7.93703 38.0172C7.72603 38.0172 7.51802 37.9072 7.40602 37.7102C7.23502 37.4162 7.33602 37.0412 7.63002 36.8722L14.799 32.7332C15.092 32.5632 15.467 32.6622 15.637 32.9572C15.807 33.2512 15.706 33.6262 15.413 33.7952L8.244 37.9342C8.147 37.9912 8.04103 38.0172 7.93703 38.0172Z" fill="#96B0D6"/>
</svg>
