<svg width="67" height="64" viewBox="0 0 67 64" fill="none" xmlns="http://www.w3.org/2000/svg">
<path d="M33.0201 0.985118C14.8401 1.04712 0.141082 12.4231 0.189082 26.3931C0.222082 35.9371 7.13007 44.2201 17.3001 48.4931L12.2301 63.9241L28.0701 51.2871C29.7401 51.4821 31.4511 51.5821 33.1941 51.5761C51.3741 51.5141 66.0731 40.1381 66.0251 26.1681C65.9761 12.1981 51.2001 0.923118 33.0201 0.985118Z" fill="#B4E7E9"/>
<path d="M23.8693 28.5072C23.8753 30.2232 22.4883 31.6192 20.7723 31.6252C19.0563 31.6312 17.6603 30.2452 17.6543 28.5292C17.6483 26.8132 19.0343 25.4172 20.7503 25.4112C22.4663 25.4052 23.8633 26.7912 23.8693 28.5072Z" fill="white"/>
<path d="M36.2214 28.4652C36.2274 30.1812 34.8404 31.5771 33.1254 31.5831C31.4094 31.5891 30.0133 30.2032 30.0073 28.4872C30.0013 26.7712 31.3874 25.3752 33.1034 25.3692C34.8194 25.3632 36.2154 26.7492 36.2214 28.4652Z" fill="white"/>
<path d="M48.5724 28.4232C48.5784 30.1392 47.1914 31.5352 45.4764 31.5412C43.7604 31.5472 42.3644 30.1602 42.3584 28.4452C42.3524 26.7292 43.7384 25.3332 45.4544 25.3272C47.1714 25.3212 48.5664 26.7072 48.5724 28.4232Z" fill="white"/>
</svg>
