<svg width="14" height="17" viewBox="0 0 14 17" fill="none" xmlns="http://www.w3.org/2000/svg">
<path d="M10.129 0.677078L10.125 0.690078C9.603 0.469078 8.96099 0.519079 8.25699 0.925079C7.33499 1.45708 6.51001 2.46908 5.93701 3.64508C5.36501 3.13008 4.539 3.07208 3.617 3.60408C1.89 4.60108 0.48999 7.27607 0.48999 9.57907C0.48999 10.7741 0.868999 11.6301 1.474 12.0411L1.47198 12.0431L5.927 15.1711L8.30899 16.4811L12.458 1.96608L10.129 0.677078Z" fill="#96B0D6"/>
<path d="M13.7661 4.5991C13.7661 2.2971 12.3661 1.2381 10.6391 2.2351C9.71707 2.7671 8.89206 3.7781 8.31906 4.9551C7.74706 4.4401 6.92106 4.3811 6.00006 4.9141C4.27306 5.9111 2.87305 8.5861 2.87305 10.8881C2.87305 12.0831 3.25206 12.9391 3.85706 13.3501L3.85507 13.3531L8.31006 16.4811L12.6741 8.39409C13.3421 7.24309 13.7661 5.8651 13.7661 4.5991Z" fill="#C5D2EF"/>
</svg>
