<svg width="2000" height="1250" viewBox="0 0 2000 1250" fill="none" xmlns="http://www.w3.org/2000/svg">
<path d="M0 710.205L83.25 662.623C166.75 615.035 333.25 519.863 500 487.745C630.533 462.37 764.798 471.728 895.598 448.585C1027.43 425.26 1136.02 355.847 1244.65 281.377C1352.58 207.385 1461.79 131.727 1590.43 99.0975C1697.72 71.8825 1807.56 73.98 1916.75 85.65L2000 94.57V1049.25C1580.71 1049.25 1161.42 1049.25 742.138 1049.25C532.495 1049.25 322.85 1049.25 113.208 1049.25C102.208 1049.25 0 1050.43 0 1047.89C0 1036.86 0 1025.82 0 1014.79C0 968.72 0 922.653 0 876.588C0 821.128 0 765.668 0 710.205Z" fill="#2954C8" fill-opacity="0.09"/>
<path d="M0 786.82L83.25 750.317C166.75 713.815 333.25 640.807 500 619.5C667.138 597.94 834.583 628.552 1000 650.282C1165.52 672.217 1333.18 686.195 1500 671.787C1666.75 657.185 1833.25 614.567 1916.75 593.06L2000 571.752V1049.25C1333.33 1049.25 666.667 1049.25 0 1049.25V786.82Z" fill="#77A2EB" fill-opacity="0.1"/>
<path d="M0 743.413L83.25 756.635C166.75 769.655 333.25 796.098 500 794.123C667.197 792.145 832.717 761.763 1000 761.763C1167.08 761.763 1332.79 792.163 1500 787.415C1666.75 782.878 1833.25 743.413 1916.75 723.683L2000 703.95V1043.33C1333.33 1043.33 666.667 1043.33 0 1043.33V743.413Z" fill="#BCD4F7" fill-opacity="0.05"/>
</svg>
