<svg width="2000" height="1250" viewBox="0 0 2000 1250" fill="none" xmlns="http://www.w3.org/2000/svg">
<path d="M0 771.732L83.25 724.149C166.75 676.562 333.25 581.389 500 549.272C630.533 523.897 764.798 533.254 895.598 510.112C1027.43 486.787 1136.02 417.374 1244.65 342.904C1352.58 268.912 1461.79 193.254 1590.43 160.624C1697.72 133.409 1807.56 135.507 1916.75 147.177L2000 156.097V1110.77C1580.71 1110.77 1161.42 1110.77 742.138 1110.77C532.495 1110.77 322.85 1110.77 113.208 1110.77C102.208 1110.77 0 1111.96 0 1109.41C0 1098.38 0 1087.35 0 1076.31C0 1030.25 0 984.179 0 938.114C0 882.654 0 827.194 0 771.732Z" fill="#2954C8" fill-opacity="0.09"/>
<path d="M0 848.347L83.25 811.844C166.75 775.342 333.25 702.334 500 681.027C667.138 659.467 834.583 690.079 1000 711.809C1165.52 733.744 1333.18 747.722 1500 733.314C1666.75 718.712 1833.25 676.094 1916.75 654.587L2000 633.279V1110.77C1333.33 1110.77 666.667 1110.77 0 1110.77V848.347Z" fill="#194184" fill-opacity="0.02"/>
</svg>
