<?xml version="1.0" standalone="no"?>
<svg xmlns:xlink="http://www.w3.org/1999/xlink" id="wave" style="transform:rotate(0deg); transition: 0.3s" viewBox="0 0 1440 490" version="1.1" xmlns="http://www.w3.org/2000/svg"><defs><linearGradient id="sw-gradient-0" x1="0" x2="0" y1="1" y2="0"><stop stop-color="rgba(243, 106, 62, 0.1)" offset="0%"/><stop stop-color="rgba(255, 179, 11, 0.1)" offset="100%"/></linearGradient></defs><path style="transform:translate(0, 0px); opacity:1" fill="url(#sw-gradient-0)" d="M0,441L80,375.7C160,310,320,180,480,171.5C640,163,800,278,960,277.7C1120,278,1280,163,1440,114.3C1600,65,1760,82,1920,73.5C2080,65,2240,33,2400,16.3C2560,0,2720,0,2880,24.5C3040,49,3200,98,3360,171.5C3520,245,3680,343,3840,359.3C4000,376,4160,310,4320,277.7C4480,245,4640,245,4800,261.3C4960,278,5120,310,5280,277.7C5440,245,5600,147,5760,138.8C5920,131,6080,212,6240,253.2C6400,294,6560,294,6720,302.2C6880,310,7040,327,7200,318.5C7360,310,7520,278,7680,285.8C7840,294,8000,343,8160,359.3C8320,376,8480,359,8640,318.5C8800,278,8960,212,9120,179.7C9280,147,9440,147,9600,179.7C9760,212,9920,278,10080,302.2C10240,327,10400,310,10560,269.5C10720,229,10880,163,11040,114.3C11200,65,11360,33,11440,16.3L11520,0L11520,490L11440,490C11360,490,11200,490,11040,490C10880,490,10720,490,10560,490C10400,490,10240,490,10080,490C9920,490,9760,490,9600,490C9440,490,9280,490,9120,490C8960,490,8800,490,8640,490C8480,490,8320,490,8160,490C8000,490,7840,490,7680,490C7520,490,7360,490,7200,490C7040,490,6880,490,6720,490C6560,490,6400,490,6240,490C6080,490,5920,490,5760,490C5600,490,5440,490,5280,490C5120,490,4960,490,4800,490C4640,490,4480,490,4320,490C4160,490,4000,490,3840,490C3680,490,3520,490,3360,490C3200,490,3040,490,2880,490C2720,490,2560,490,2400,490C2240,490,2080,490,1920,490C1760,490,1600,490,1440,490C1280,490,1120,490,960,490C800,490,640,490,480,490C320,490,160,490,80,490L0,490Z"/></svg>