<svg id="Layer_1" height="300" viewBox="0 0 512 512" width="300" xmlns="http://www.w3.org/2000/svg" version="1.1" xmlns:xlink="http://www.w3.org/1999/xlink" xmlns:svgjs="http://svgjs.dev/svgjs"><g transform="matrix(1,0,0,1,0,0)"><g><g id="_x32_38_x2C__Business_x2C__Finance_x2C__Money_x2C__People"><g><g><g><circle cx="443.5" cy="153.5" r="7.5" fill="#fb9c2a" fill-opacity="1" data-original-color="#000000ff" stroke="none" stroke-opacity="1"/><circle cx="443.5" cy="468.5" r="7.5" fill="#fb9c2a" fill-opacity="1" data-original-color="#000000ff" stroke="none" stroke-opacity="1"/><circle cx="343.5" cy="48.5" r="7.5" fill="#fb9c2a" fill-opacity="1" data-original-color="#000000ff" stroke="none" stroke-opacity="1"/><circle cx="148.5" cy="68.5" r="7.5" fill="#fb9c2a" fill-opacity="1" data-original-color="#000000ff" stroke="none" stroke-opacity="1"/><circle cx="58.5" cy="453.5" r="7.5" fill="#fb9c2a" fill-opacity="1" data-original-color="#000000ff" stroke="none" stroke-opacity="1"/><circle cx="38.5" cy="263.5" r="7.5" fill="#fb9c2a" fill-opacity="1" data-original-color="#000000ff" stroke="none" stroke-opacity="1"/><path d="m417.853 348.609c22.832-56.252 16.277-122.625-21.947-174.398-21.687-29.369-51.119-51.114-85.315-63.09 2.901-35.262-25.096-64.731-59.609-64.731-34.762 0-62.465 29.74-59.58 64.732-70.795 24.805-120.402 91.995-120.402 169.878 0 23.492 4.457 46.291 13.241 67.837-14.378 11.327-22.851 28.584-22.851 46.942 0 32.99 26.817 59.831 59.78 59.831 15.822 0 30.95-6.317 42.128-17.435 54.535 30.486 121.192 30.411 175.647-.131 11.198 11.2 26.359 17.565 42.225 17.565 32.99 0 59.83-26.841 59.83-59.831 0-18.501-8.583-35.842-23.147-47.169zm-166.873-292.219c30.374 0 53.888 27.097 49.238 57.408-3.711 24.059-24.879 42.202-49.238 42.202-26.791 0-49.791-21.98-49.791-49.83 0-27.449 22.336-49.78 49.791-49.78zm-129.81 389.22c-27.449 0-49.78-22.354-49.78-49.831 0-16.422 8.15-31.795 21.801-41.121.001 0 .003-.002.004-.002 8.271-5.663 17.945-8.656 27.976-8.656 27.477 0 49.83 22.331 49.83 49.779-.001 27.443-22.413 49.831-49.831 49.831zm48.723-15.192c7.191-10.088 11.107-22.176 11.107-34.639 0-32.963-26.84-59.779-59.83-59.779-10.003 0-19.707 2.484-28.402 7.217-7.805-19.798-11.768-40.697-11.768-62.217 0-71.997 44.816-135.542 112.099-159.864 6.744 25.949 30.648 44.864 57.881 44.864 27.249 0 51.163-18.914 57.91-44.866 67.288 24.313 112.11 87.859 112.11 159.866 0 21.449-3.941 42.294-11.7 62.051-8.634-4.623-18.245-7.051-28.13-7.051-32.963 0-59.78 26.816-59.78 59.779 0 12.394 3.874 24.432 10.993 34.493-50.059 27.331-111.464 27.892-162.49.146zm211.277 15.192c-27.446 0-49.78-22.442-49.78-49.831 0-27.448 22.331-49.779 49.78-49.779 27.511 0 49.83 22.447 49.83 49.779 0 27.478-22.353 49.831-49.83 49.831z" fill="#fb9c2a" fill-opacity="1" data-original-color="#000000ff" stroke="none" stroke-opacity="1"/><path d="m251 186c-52.384 0-95 42.617-95 95s42.616 95 95 95c52.383 0 95-42.617 95-95s-42.617-95-95-95zm0 180c-46.869 0-85-38.131-85-85s38.131-85 85-85 85 38.131 85 85-38.131 85-85 85z" fill="#fb9c2a" fill-opacity="1" data-original-color="#000000ff" stroke="none" stroke-opacity="1"/><path d="m271.169 264.173c5.858-5.047 9.581-12.511 9.581-20.833 0-15.163-12.337-27.5-27.5-27.5-15.164 0-27.5 12.337-27.5 27.5 0 8.322 3.721 15.786 9.58 20.833-26.17 10.084-38.864 39.619-28.437 65.421.764 1.889 2.598 3.127 4.636 3.127h83.44c2.038 0 3.872-1.236 4.637-3.127 2.418-5.982 3.645-12.292 3.645-18.754-.001-21.256-13.34-39.445-32.082-46.667zm-17.919 15.138 5.383 13.455-5.383 5.383-5.383-5.383zm-17.5-35.971c0-9.649 7.851-17.5 17.5-17.5 9.648 0 17.5 7.851 17.5 17.5 0 9.65-7.852 17.5-17.5 17.5-9.649 0-17.5-7.851-17.5-17.5zm55.701 79.381h-10.701v-11.881c0-2.762-2.238-5-5-5s-5 2.238-5 5v11.881h-35v-11.881c0-2.762-2.239-5-5-5-2.762 0-5 2.238-5 5v11.881h-10.701c-7.119-22.879 7.411-46.619 30.52-51.133l-8.211 20.523c-.743 1.857-.308 3.979 1.107 5.394l11.251 11.25c1.951 1.953 5.119 1.953 7.07 0l11.25-11.25c1.415-1.414 1.851-3.534 1.106-5.394l-8.211-20.523c18.393 3.594 32.318 19.823 32.318 39.252.001 4.058-.603 8.041-1.798 11.881z" fill="#fb9c2a" fill-opacity="1" data-original-color="#000000ff" stroke="none" stroke-opacity="1"/><path d="m441 36c-22.056 0-40 17.944-40 40s17.944 40 40 40 40-17.944 40-40-17.944-40-40-40zm0 70c-16.542 0-30-13.458-30-30s13.458-30 30-30 30 13.458 30 30-13.458 30-30 30z" fill="#fb9c2a" fill-opacity="1" data-original-color="#000000ff" stroke="none" stroke-opacity="1"/><path d="m101 121c0-16.542-13.458-30-30-30s-30 13.458-30 30 13.458 30 30 30 30-13.458 30-30zm-50 0c0-11.028 8.972-20 20-20 11.027 0 20 8.972 20 20s-8.973 20-20 20c-11.028 0-20-8.972-20-20z" fill="#fb9c2a" fill-opacity="1" data-original-color="#000000ff" stroke="none" stroke-opacity="1"/></g></g></g></g><path d="m394.619 395.68c-2.258-1.947-5.614-3.46-10.068-4.537-4.453-1.076-7.365-2.082-8.731-3.015s-2.051-2.278-2.051-4.039c0-1.762.685-3.077 2.051-3.946 1.366-.871 3.118-1.306 5.252-1.306s4.299.373 6.495 1.118c2.195.745 3.936 1.699 5.221 2.857l3.916-5.529c-1.989-1.657-4.353-2.941-7.085-3.854-1.533-.512-3.072-.863-4.619-1.088v-8.279h-7.048v8.256c-2.844.435-5.329 1.432-7.445 3.007-2.921 2.175-4.381 5.272-4.381 9.291 0 4.021 1.283 7.003 3.853 8.948 1.284 1.037 2.756 1.877 4.413 2.519 1.656.644 4.081 1.347 7.271 2.113 3.189.768 5.438 1.616 6.743 2.549 1.305.932 1.958 2.236 1.958 3.916 0 1.677-.694 3.022-2.083 4.039-1.389 1.015-3.264 1.521-5.624 1.521-4.725 0-9.281-1.904-13.672-5.717l-4.601 5.531c4.063 3.615 8.588 5.818 13.566 6.642v8.073h7.048v-7.834c3.488-.362 6.401-1.486 8.721-3.401 2.858-2.359 4.288-5.438 4.288-9.229 0-3.79-1.13-6.659-3.388-8.606z" fill="#fb9c2a" fill-opacity="1" data-original-color="#000000ff" stroke="none" stroke-opacity="1"/><path d="m131.235 395.68c-2.258-1.947-5.614-3.46-10.068-4.537-4.453-1.076-7.365-2.082-8.732-3.015-1.366-.933-2.05-2.278-2.05-4.039 0-1.762.684-3.077 2.05-3.946 1.367-.871 3.118-1.306 5.252-1.306s4.299.373 6.495 1.118 3.936 1.699 5.221 2.857l3.916-5.529c-1.989-1.657-4.352-2.941-7.085-3.854-1.533-.512-3.072-.863-4.619-1.088v-8.279h-7.048v8.256c-2.844.435-5.329 1.432-7.445 3.007-2.921 2.175-4.381 5.272-4.381 9.291 0 4.021 1.283 7.003 3.853 8.948 1.284 1.037 2.755 1.877 4.413 2.519 1.656.644 4.081 1.347 7.271 2.113 3.19.768 5.438 1.616 6.743 2.549 1.305.932 1.958 2.236 1.958 3.916 0 1.677-.694 3.022-2.083 4.039-1.388 1.015-3.263 1.521-5.624 1.521-4.724 0-9.281-1.904-13.672-5.717l-4.6 5.531c4.063 3.615 8.588 5.818 13.566 6.642v8.073h7.048v-7.834c3.488-.362 6.401-1.486 8.721-3.401 2.858-2.359 4.288-5.438 4.288-9.229 0-3.79-1.13-6.659-3.388-8.606z" fill="#fb9c2a" fill-opacity="1" data-original-color="#000000ff" stroke="none" stroke-opacity="1"/><path d="m264.684 106.434c-2.258-1.947-5.613-3.459-10.067-4.537-4.453-1.076-7.365-2.081-8.732-3.014-1.366-.933-2.05-2.278-2.05-4.039 0-1.762.684-3.077 2.05-3.947 1.367-.87 3.118-1.305 5.252-1.305s4.299.373 6.495 1.118 3.936 1.699 5.221 2.858l3.916-5.53c-1.988-1.657-4.352-2.941-7.084-3.854-1.533-.511-3.072-.862-4.62-1.087v-8.279h-7.048v8.255c-2.844.435-5.329 1.432-7.445 3.007-2.921 2.175-4.381 5.272-4.381 9.291 0 4.02 1.283 7.003 3.853 8.949 1.284 1.037 2.755 1.876 4.413 2.518 1.656.644 4.081 1.347 7.271 2.113 3.19.768 5.438 1.616 6.744 2.549 1.305.932 1.957 2.236 1.957 3.916 0 1.677-.693 3.023-2.082 4.039-1.389 1.015-3.264 1.521-5.625 1.521-4.724 0-9.281-1.905-13.672-5.717l-4.6 5.531c4.063 3.615 8.588 5.818 13.566 6.642v8.073h7.048v-7.834c3.488-.362 6.401-1.486 8.721-3.401 2.858-2.36 4.288-5.438 4.288-9.229-.003-3.79-1.132-6.659-3.389-8.607z" fill="#fb9c2a" fill-opacity="1" data-original-color="#000000ff" stroke="none" stroke-opacity="1"/></g></g></svg>