<svg id="Layer_1" viewBox="0 0 512 512" xmlns="http://www.w3.org/2000/svg" data-name="Layer 1" width="300" height="300" version="1.1" xmlns:xlink="http://www.w3.org/1999/xlink" xmlns:svgjs="http://svgjs.dev/svgjs"><g transform="matrix(1,0,0,1,0,0)"><path d="m405.88 337.17a42.58 42.58 0 0 0 28.05-40v-10.57a42.51 42.51 0 0 0 -85 0v10.6a42.22 42.22 0 0 0 5.91 21.58c-49.81-23-66.46-68.76-72-97.67a26.29 26.29 0 0 0 -6.68-17.26 26.82 26.82 0 0 0 -20-9h-.24a26.8 26.8 0 0 0 -20 9 26.29 26.29 0 0 0 -6.68 17.26c-5.54 28.91-22.2 74.66-72 97.66a42.18 42.18 0 0 0 5.91-21.57v-10.6a42.52 42.52 0 0 0 -85 0v10.6a42.58 42.58 0 0 0 28.05 40c-47.98 16.72-59.92 23.8-59.92 58.19v61.8a5.43 5.43 0 0 0 10.86 0v-61.8c0-29.9 7.66-32.54 67.24-53.06 7.39-2.54 15.54-5.34 24.47-8.49 67.22-23.62 86.37-82.33 91.81-115.22a15.54 15.54 0 0 1 15.45-12.94 16 16 0 0 1 11.89 5.39 15.14 15.14 0 0 1 3.84 12c-11.21 95.19-91.27 139.74-92.08 140.18a5.46 5.46 0 0 0 -2.76 4.75v89.17a5.43 5.43 0 0 0 10.86 0v-86c10-6 43.52-28.2 68.19-69 24.67 40.8 58.16 63 68.19 69v86a5.43 5.43 0 0 0 10.86 0v-89.17a5.46 5.46 0 0 0 -2.84-4.78c-.59-.32-42.44-23.61-69.91-72.31a191.35 191.35 0 0 0 16.26-43.66c10.85 31.48 34.22 68.87 84.57 86.57 8.94 3.15 17.08 6 24.47 8.49 59.6 20.52 67.26 23.16 67.26 53.06v61.8a5.43 5.43 0 0 0 10.86 0v-61.8c-.05-34.37-11.99-41.45-59.89-58.2zm-253.65-40a31.66 31.66 0 0 1 -63.31 0v-10.57a31.66 31.66 0 0 1 63.31 0zm207.54 0v-10.57a31.65 31.65 0 1 1 63.3 0v10.6a31.65 31.65 0 1 1 -63.3 0z" fill="#fb9c2a" fill-opacity="1" data-original-color="#000000ff" stroke="none" stroke-opacity="1"/><path d="m254.15 177.27a64 64 0 0 0 63.93-63.94 5.43 5.43 0 0 0 -10.85 0 53.09 53.09 0 1 1 -53.08-53.09 5.43 5.43 0 0 0 0-10.86 63.95 63.95 0 1 0 0 127.89z" fill="#fb9c2a" fill-opacity="1" data-original-color="#000000ff" stroke="none" stroke-opacity="1"/><path d="m234.08 101.26a5.44 5.44 0 0 0 -7.69 7.69l19.35 19.35a5.44 5.44 0 0 0 7.69 0l65.12-65.13a5.44 5.44 0 1 0 -7.69-7.69l-61.28 61.3z" fill="#fb9c2a" fill-opacity="1" data-original-color="#000000ff" stroke="none" stroke-opacity="1"/><path d="m422.7 381.12a5.44 5.44 0 0 0 -5.43 5.43v70.64a5.43 5.43 0 0 0 10.86 0v-70.64a5.43 5.43 0 0 0 -5.43-5.43z" fill="#fb9c2a" fill-opacity="1" data-original-color="#000000ff" stroke="none" stroke-opacity="1"/><path d="m89.3 381.12a5.43 5.43 0 0 0 -5.43 5.43v70.64a5.43 5.43 0 0 0 10.86 0v-70.64a5.44 5.44 0 0 0 -5.43-5.43z" fill="#fb9c2a" fill-opacity="1" data-original-color="#000000ff" stroke="none" stroke-opacity="1"/></g></svg>