<svg id="Layer_1" viewBox="0 0 512 512" xmlns="http://www.w3.org/2000/svg" data-name="Layer 1" width="300" height="300" version="1.1" xmlns:xlink="http://www.w3.org/1999/xlink" xmlns:svgjs="http://svgjs.dev/svgjs"><g transform="matrix(1,0,0,1,0,0)"><path d="m46.195 195.256c3.059.818 6.292-.517 7.876-3.262l12.021-20.821 12.021 20.821c1.272 2.205 3.607 3.501 6.062 3.501.602 0 1.211-.078 1.813-.239 3.061-.82 5.189-3.594 5.189-6.763v-97.313h114.434v25.03c0 2.501 1.335 4.813 3.502 6.064 2.166 1.25 4.836 1.25 7.002 0l86.769-50.117c2.166-1.251 3.5-3.562 3.5-6.064 0-2.501-1.335-4.812-3.502-6.063l-86.767-50.089c-2.166-1.25-4.835-1.25-7.001 0s-3.501 3.562-3.501 6.063v25.002h-157.605c-3.867 0-7.002 3.135-7.002 7.001v140.485c0 3.169 2.129 5.943 5.189 6.763zm8.814-140.247h157.605c3.867 0 7.002-3.135 7.002-7.001v-19.877l65.765 37.964-65.765 37.985v-19.902c0-3.867-3.135-7.001-7.002-7.001h-128.436c-3.867 0-7.002 3.135-7.002 7.001v78.186l-5.02-8.694c-1.251-2.166-3.562-3.5-6.063-3.5s-4.812 1.334-6.063 3.5l-5.02 8.694v-107.354zm140.246 371c-.82-3.061-3.594-5.189-6.763-5.189h-97.313v-114.435h25.029c2.502 0 4.813-1.334 6.063-3.501 1.251-2.167 1.251-4.835 0-7.002l-50.116-86.769c-1.251-2.166-3.562-3.5-6.063-3.5s-4.812 1.335-6.062 3.501l-50.088 86.769c-1.251 2.167-1.251 4.835 0 7.001s3.562 3.5 6.063 3.5h25.001v157.606c0 3.867 3.135 7.001 7.002 7.001h140.485c3.169 0 5.942-2.128 6.763-5.189.82-3.061-.518-6.291-3.262-7.875l-20.821-12.022 20.821-12.021c2.744-1.584 4.082-4.814 3.262-7.875zm-140.246 30.981v-157.606c0-3.867-3.135-7.001-7.002-7.001h-19.877l37.964-65.765 37.984 65.765h-19.901c-3.867 0-7.002 3.135-7.002 7.001v128.438c0 3.867 3.135 7.001 7.002 7.001h78.186l-8.694 5.02c-2.166 1.25-3.501 3.562-3.501 6.063s1.335 4.812 3.501 6.063l8.695 5.021h-107.354zm447.049-247.876c-1.251-2.166-3.562-3.5-6.063-3.5h-25.001v-157.606c0-3.864-3.13-6.997-6.993-7.001l-140.769-.17h-.009c-3.167 0-5.94 2.126-6.762 5.186-.822 3.062.516 6.295 3.263 7.88l21.076 12.163-21.052 12.035c-2.756 1.576-4.107 4.808-3.292 7.876.814 3.068 3.592 5.204 6.767 5.204h97.597v114.435h-25.002c-2.501 0-4.812 1.334-6.063 3.5s-1.251 4.835 0 7.001l50.089 86.769c1.25 2.167 3.562 3.501 6.063 3.501s4.813-1.334 6.063-3.501l50.088-86.769c1.251-2.167 1.251-4.835 0-7.001zm-56.151 76.265-37.963-65.762h19.878c3.867 0 7.002-3.135 7.002-7.001v-128.438c0-3.867-3.135-7.001-7.002-7.001h-78.244l8.755-5.005c2.177-1.245 3.521-3.558 3.527-6.064.005-2.507-1.331-4.825-3.502-6.079l-8.938-5.158 107.57.13v157.615c0 3.867 3.135 7.001 7.002 7.001h19.877zm19.897 31.393c-3.062-.819-6.292.518-7.876 3.262l-12.021 20.821-12.021-20.821c-1.584-2.745-4.814-4.082-7.876-3.262-3.061.82-5.189 3.594-5.189 6.763v97.285h-114.435v-25.001c0-2.501-1.335-4.812-3.501-6.063s-4.835-1.25-7.001 0l-86.769 50.088c-2.167 1.251-3.502 3.562-3.502 6.064s1.335 4.813 3.502 6.064l86.769 50.088c1.083.625 2.291.938 3.5.938s2.418-.312 3.501-.938c2.166-1.251 3.501-3.562 3.501-6.063v-25.001h157.606c3.867 0 7.002-3.135 7.002-7.001v-140.457c0-3.169-2.129-5.943-5.189-6.763zm-8.814 140.219h-157.606c-3.867 0-7.002 3.135-7.002 7.001v19.877l-65.762-37.962 65.762-37.962v19.877c0 3.867 3.135 7.001 7.002 7.001h128.438c3.867 0 7.002-3.135 7.002-7.001v-78.157l5.02 8.694c1.251 2.166 3.562 3.5 6.063 3.5s4.812-1.334 6.063-3.5l5.02-8.694zm-146.606-304.16c-.105-.12-.208-.242-.322-.357-.114-.114-.235-.216-.355-.321-15.161-14.99-35.983-24.265-58.937-24.265s-43.567 9.187-58.708 24.047c-.212.168-.419.346-.615.543-.196.196-.374.403-.541.615-14.839 15.138-24.013 35.85-24.013 58.672 0 8.926 1.371 17.601 4.071 25.909h-11.413c-.288 0-.569.023-.848.056-.074.009-.147.022-.221.034-.216.033-.428.076-.637.128-.067.017-.135.033-.201.052-.266.075-.527.161-.778.266 0 0-.002 0-.003.001-.262.109-.514.236-.758.374-.054.03-.105.064-.158.096-.187.112-.367.233-.542.361-.06.044-.121.088-.179.134-.208.163-.408.335-.595.52-.007.007-.016.014-.023.021-.196.195-.376.405-.548.623-.043.055-.083.111-.125.167-.138.185-.266.376-.384.574-.02.032-.043.061-.062.093l-21.062 36.482c-1.243 2.152-1.251 4.802-.022 6.962s3.511 3.507 5.996 3.539l14.149.182v88.77c0 3.867 3.135 7.001 7.002 7.001h192.926c3.867 0 7.002-3.135 7.002-7.001v-88.838l14.116-.114c2.491-.02 4.784-1.363 6.021-3.525 1.237-2.163 1.232-4.82-.014-6.977l-21.062-36.482c-.019-.033-.043-.061-.062-.093-.119-.198-.247-.389-.384-.574-.042-.056-.082-.113-.125-.167-.172-.217-.353-.427-.548-.623-.007-.007-.016-.014-.023-.021-.188-.185-.388-.357-.595-.52-.059-.046-.119-.09-.179-.134-.174-.129-.355-.249-.542-.361-.053-.032-.104-.065-.158-.096-.244-.139-.496-.266-.758-.374 0 0-.002 0-.003-.001-.251-.105-.512-.191-.778-.266-.066-.019-.134-.035-.201-.052-.209-.052-.421-.095-.637-.128-.074-.011-.147-.025-.221-.034-.279-.034-.561-.056-.848-.056h-21.9c2.702-8.311 4.071-16.99 4.071-25.909 0-22.952-9.274-43.774-24.264-58.934zm-146.79 98.846h17.648c.009 0 .019.002.028.002.012 0 .024-.002.036-.002h40.949l-9.177 23.438-62.55-.804 13.066-22.633zm2.959 36.844 51.188.658h.091c2.878 0 5.467-1.763 6.519-4.449l1.162-2.968v88.346h-58.96v-81.589zm178.922 81.589h-105.958v-88.414l1.192 3.04c1.052 2.683 3.64 4.444 6.518 4.444h.057l98.191-.793zm15.993-95.856-109.482.885-9.203-23.461h105.652zm-128.953-36.579h-46.66c-2.425-6.06-3.96-12.386-4.601-18.907h15.147c3.867 0 7.002-3.135 7.002-7.001s-3.135-7.001-7.002-7.001h-15.154c1.401-14.017 6.964-26.824 15.429-37.171l10.709 10.69c1.366 1.365 3.156 2.046 4.946 2.046s3.588-.685 4.955-2.055c2.732-2.736 2.729-7.17-.009-9.901l-10.703-10.683c10.351-8.475 23.165-14.044 37.192-15.446v15.182c0 3.867 3.135 7.001 7.002 7.001s7.002-3.135 7.002-7.001v-15.182c14.022 1.402 26.833 6.968 37.182 15.438l-10.696 10.696c-2.734 2.734-2.734 7.167 0 9.901 1.367 1.367 3.159 2.051 4.951 2.051s3.584-.684 4.951-2.051l10.696-10.696c8.47 10.349 14.036 23.16 15.438 37.182h-15.182c-3.867 0-7.002 3.135-7.002 7.001s3.135 7.001 7.002 7.001h15.182c-.642 6.52-2.188 12.847-4.616 18.907h-83.162zm45.185-25.909c0 3.867-3.135 7.001-7.002 7.001h-19.928c-3.867 0-7.002-3.135-7.002-7.001v-30.586c0-3.867 3.135-7.001 7.002-7.001s7.002 3.135 7.002 7.001v23.584h12.926c3.867 0 7.002 3.135 7.002 7.001z" fill="#fb9c2a" fill-opacity="1" data-original-color="#000000ff" stroke="none" stroke-opacity="1"/></g></svg>