<svg id="Layer_1" enable-background="new 0 0 512 512" viewBox="0 0 512 512" xmlns="http://www.w3.org/2000/svg" width="300" height="300" version="1.1" xmlns:xlink="http://www.w3.org/1999/xlink" xmlns:svgjs="http://svgjs.dev/svgjs"><g transform="matrix(1,0,0,1,0,0)"><path d="m227.04 156.17c-17.57 17.57-27.25 40.94-27.25 65.79s9.68 48.22 27.25 65.79c18.14 18.14 41.96 27.21 65.79 27.21 23.82 0 47.65-9.07 65.79-27.21 17.57-17.57 27.25-40.94 27.25-65.79s-9.68-48.22-27.25-65.79c-36.28-36.27-95.3-36.27-131.58 0zm16.5 130.1c4.12-19.59 21.57-33.99 41.89-33.99h14.8c20.32 0 37.77 14.4 41.89 33.99-28.97 22.23-69.61 22.23-98.58 0zm49.29-49.03c-13.97 0-25.33-11.36-25.33-25.33s11.36-25.33 25.33-25.33 25.33 11.36 25.33 25.33-11.36 25.33-25.33 25.33zm59.22 40.02c-5.92-17.15-20.07-30.3-37.46-35.05 9.42-6.78 15.56-17.83 15.56-30.3 0-20.58-16.75-37.33-37.33-37.33s-37.33 16.75-37.33 37.33c0 12.46 6.15 23.51 15.56 30.3-17.38 4.75-31.54 17.9-37.46 35.05-14.08-15.06-21.82-34.57-21.82-55.29 0-21.65 8.43-42 23.74-57.3 15.8-15.8 36.55-23.7 57.3-23.7s41.51 7.9 57.3 23.7c15.31 15.31 23.74 35.66 23.74 57.3.02 20.71-7.72 40.23-21.8 55.29zm-90.41-191.85-6.59 32.59c-.47 2.3.45 4.66 2.35 6.04 1.05.76 2.28 1.15 3.53 1.15 1.01 0 2.03-.26 2.95-.77l28.95-16.34 28.95 16.34c2.05 1.15 4.58 1.01 6.48-.37s2.82-3.74 2.35-6.04l-6.59-32.59 24.49-22.49c1.73-1.59 2.37-4.04 1.65-6.27s-2.69-3.84-5.02-4.11l-33.03-3.8-13.82-30.24c-.98-2.14-3.11-3.51-5.46-3.51s-4.48 1.37-5.46 3.51l-13.82 30.24-33.03 3.8c-2.33.27-4.29 1.87-5.02 4.11s-.08 4.68 1.65 6.27zm16.65-25.13c2.09-.24 3.9-1.55 4.77-3.47l9.77-21.38 9.77 21.38c.87 1.91 2.68 3.23 4.77 3.47l23.35 2.69-17.31 15.9c-1.55 1.42-2.24 3.55-1.82 5.61l4.66 23.04-20.47-11.55c-1.83-1.03-4.07-1.03-5.9 0l-20.47 11.55 4.66-23.04c.42-2.06-.27-4.19-1.82-5.61l-17.31-15.9zm-122.49 55.99-6.59 32.59c-.47 2.3.45 4.66 2.35 6.04s4.43 1.53 6.48.37l28.95-16.34 28.96 16.34c.92.52 1.93.77 2.95.77 1.24 0 2.48-.39 3.53-1.15 1.9-1.38 2.82-3.74 2.35-6.04l-6.59-32.59 24.49-22.49c1.73-1.59 2.37-4.04 1.65-6.27s-2.69-3.84-5.02-4.11l-33.03-3.8-13.82-30.24c-.98-2.14-3.11-3.51-5.46-3.51s-4.48 1.37-5.46 3.51l-13.83 30.25-33.03 3.8c-2.33.27-4.29 1.87-5.02 4.11s-.08 4.68 1.65 6.27zm16.65-25.14c2.09-.24 3.9-1.56 4.77-3.47l9.77-21.38 9.77 21.38c.87 1.91 2.68 3.23 4.77 3.47l23.35 2.69-17.31 15.9c-1.55 1.42-2.24 3.55-1.82 5.61l4.66 23.04-20.47-11.55c-.92-.52-1.93-.77-2.95-.77s-2.03.26-2.95.77l-20.47 11.55 4.66-23.04c.42-2.06-.27-4.19-1.82-5.61l-17.31-15.9zm168.89-3.62c-.73 2.23-.08 4.68 1.65 6.27l24.49 22.49-6.59 32.59c-.47 2.3.45 4.66 2.35 6.04s4.43 1.53 6.47.37l28.96-16.34 28.96 16.34c.92.52 1.93.77 2.95.77 1.24 0 2.48-.39 3.53-1.15 1.9-1.38 2.82-3.74 2.35-6.04l-6.59-32.59 24.49-22.49c1.73-1.59 2.37-4.04 1.65-6.27s-2.69-3.84-5.02-4.11l-33.03-3.8-13.82-30.24c-.98-2.14-3.11-3.51-5.46-3.51s-4.48 1.37-5.46 3.51l-13.83 30.25-33.03 3.8c-2.33.27-4.29 1.87-5.02 4.11zm42.79 3.62c2.09-.24 3.9-1.56 4.77-3.47l9.77-21.38 9.77 21.38c.87 1.91 2.68 3.23 4.77 3.47l23.35 2.69-17.31 15.9c-1.55 1.42-2.24 3.55-1.82 5.61l4.66 23.04-20.47-11.55c-.92-.52-1.93-.77-2.95-.77s-2.03.26-2.95.77l-20.47 11.55 4.66-23.04c.42-2.06-.27-4.19-1.82-5.61l-17.31-15.9zm69.04 250.07c-4.15-8.83-11.52-15.53-20.76-18.86-9.23-3.33-19.18-2.88-28.02 1.27l-96.93 45.54c.13-.86.24-1.73.31-2.6.82-9.72-2.21-19.21-8.54-26.71s-15.17-12.09-24.9-12.91l-84.4-7.14c-6.32-.53-11.96.47-17.71 3.18l-56.74 26.66-5.34-11.38c-1.56-3.32-4.33-5.84-7.79-7.08-3.47-1.25-7.2-1.08-10.52.48l-28.57 13.42c-6.87 3.23-9.83 11.44-6.6 18.31l59.07 125.72c1.56 3.32 4.33 5.83 7.79 7.08 1.53.55 3.11.83 4.69.83 1.99 0 3.97-.44 5.83-1.31l28.57-13.42c3.32-1.56 5.83-4.33 7.08-7.79s1.08-7.2-.48-10.52l-5.34-11.37 5.05-2.37c1.94-.91 3.99-.86 8.14.21l62.01 16c5.74 1.48 12 2.87 18.55 2.87 5.49 0 11.18-.97 16.93-3.68l161.01-75.65c18.31-8.61 26.2-30.49 17.61-48.78zm-294.76 129.21c-.09.26-.33.73-.9 1l-28.57 13.42c-.56.26-1.08.15-1.34.05-.26-.09-.73-.33-1-.9l-59.07-125.7c-.41-.86-.02-1.94.84-2.34l28.57-13.42c.26-.12.51-.16.73-.16.26 0 .48.06.62.11.26.09.73.33 1 .9l51.17 108.9v.01s0 .01 0 .01l7.89 16.8c.27.54.15 1.06.06 1.32zm272.06-91.3-161.01 75.65c-8.14 3.83-16.52 2.86-27.39.05l-62.01-16c-5.06-1.3-10.52-2.14-16.24.55l-5.05 2.37-38.17-81.25 56.74-26.66c3.82-1.79 7.4-2.44 11.59-2.08l84.4 7.14c6.53.55 12.48 3.64 16.74 8.69s6.31 11.43 5.76 17.96c-1.15 13.55-13.11 23.65-26.65 22.5l-56.79-4.8c-3.31-.29-6.21 2.17-6.48 5.47-.28 3.3 2.17 6.21 5.47 6.48l56.79 4.8c12.89 1.09 24.82-4.66 32.17-14.23l109.17-51.29c5.93-2.79 12.63-3.09 18.84-.84 6.22 2.24 11.18 6.75 13.97 12.68 5.77 12.31.46 27.03-11.85 32.81z" fill="#fb9c2a" fill-opacity="1" data-original-color="#000000ff" stroke="none" stroke-opacity="1"/></g></svg>