<svg id="Layer_1" viewBox="0 0 512 512" xmlns="http://www.w3.org/2000/svg" data-name="Layer 1" width="300" height="300" version="1.1" xmlns:xlink="http://www.w3.org/1999/xlink" xmlns:svgjs="http://svgjs.dev/svgjs"><g transform="matrix(1,0,0,1,0,0)"><path d="m124.175 359.305c9.148-8.836 14.854-21.214 14.854-34.906 0-26.774-21.783-48.558-48.557-48.558s-48.557 21.783-48.557 48.558c0 13.694 5.707 26.074 14.857 34.91-31.982 8.381-51.837 28.278-52.781 53.934-.003.073-.004.147-.004.221v41.641c0 3.319 2.69 6.01 6.009 6.01h160.951c3.319 0 6.009-2.69 6.009-6.01v-41.641c0-.073 0-.147-.004-.221-.944-25.658-20.798-45.558-52.777-53.938zm-70.242-34.906c0-20.147 16.391-36.538 36.539-36.538s36.539 16.391 36.539 36.538-16.391 36.538-36.539 36.538-36.539-16.391-36.539-36.538zm111.005 124.695h-148.933v-35.517c1.058-26.828 28.558-40.696 54.591-44.893 6.072 2.736 12.795 4.271 19.875 4.271s13.809-1.537 19.882-4.274c26.026 4.194 53.527 18.062 54.585 44.896zm343.073-29.983c-.943-25.645-20.802-45.553-52.786-53.958 9.153-8.836 14.863-21.218 14.863-34.916 0-26.774-21.783-48.558-48.558-48.558s-48.557 21.783-48.557 48.558c0 13.699 5.711 26.083 14.866 34.919-31.988 8.405-51.847 28.311-52.79 53.954-.003.073-.004.147-.004.221v41.641c0 3.319 2.69 6.01 6.009 6.01h160.951c3.319 0 6.009-2.69 6.009-6.01v-41.641c0-.073 0-.147-.004-.221zm-123.02-88.873c0-20.147 16.391-36.538 36.539-36.538s36.539 16.391 36.539 36.538-16.392 36.539-36.539 36.539-36.539-16.392-36.539-36.539zm111.005 124.725h-148.933v-35.517c1.057-26.812 28.557-40.699 54.592-44.92 6.071 2.735 12.795 4.271 19.874 4.271s13.808-1.537 19.881-4.274c26.028 4.219 53.528 18.106 54.585 44.924v35.517zm-223.775-217.18c6.713 2.321 13.021 3.489 19.047 3.489 9.788 0 18.83-3.083 27.643-9.316 4.437-3.154 7.748-6.785 9.835-10.784 2.509-4.789 3.49-10.899 2.625-16.346l-.013.002c-.19-1.526-.634-3.225-1.425-5.116-1.998-4.785-5.527-8.188-10.205-9.842-.038-.014-.076-.026-.114-.039l-18.791-6.214c-5.319-1.758-8.937-2.953-10.902-3.607-3.776-1.219-7.667-.472-10.631 2.02-.355.293-.719.61-1.092.953-.188.173-.387.371-.581.557-.19.183-.376.353-.572.549-.194.194-.398.413-.597.62-.208.216-.41.418-.623.648-.2.215-.413.458-.619.686-.218.242-.43.47-.655.727-.328.359-.654.723-.98 1.085-4.79 5.321-5.526 5.247-6.72 4.588-7.821-4.362-15.066-9.799-21.47-16.096-6.327-6.406-11.759-13.655-16.154-21.562-.665-1.187-.735-1.912 4.565-6.683.378-.34.756-.681 1.075-.973 2.156-1.919 3.674-3.436 4.778-4.773l.012-.015c2.481-3.025 3.208-7.025 1.966-10.63-1.219-3.685-4.479-13.549-9.808-29.677-.013-.039-.026-.078-.04-.117-1.654-4.679-5.057-8.208-9.834-10.202-2.093-.877-3.945-1.322-5.592-1.473l.002-.011c-5.277-.745-11.197.247-15.86 2.674-4.061 2.138-7.699 5.46-10.806 9.864-10.077 14.217-11.917 29.044-5.794 46.655 13.147 38.014 50.293 75.173 88.33 88.358zm24.831-42.754 18.718 6.189c1.402.51 2.407 1.532 3.073 3.128.295.707.446 1.223.522 1.576-2.875.855-11.601-.15-19.752-2.972-3.166-1.091-6.441-2.423-9.735-3.96-1.688-.787-5.408-2.522-6.683-3.768.093-.143.223-.322.398-.535.037-.042.07-.078.106-.119.264-.3.513-.576.749-.831.055-.06.113-.124.167-.181.251-.27.485-.515.702-.737.041-.042.08-.081.119-.121.464-.469.855-.837 1.173-1.117.002-.002.005-.004.007-.006 2.007.668 5.487 1.817 10.437 3.453zm-76.625-89.153c5.093 15.414 8.292 25.094 9.642 29.176-.065.073-.124.143-.195.22-.072.078-.145.157-.223.239-.16.168-.336.348-.523.535-.077.077-.149.15-.23.23-.263.258-.548.529-.859.82-.018.017-.033.032-.052.049-.321.299-.676.62-1.049.953-.196.16-.363.281-.497.369-1.254-1.269-2.998-4.99-3.778-6.655-1.545-3.338-2.881-6.623-3.967-9.752-2.814-8.161-3.816-16.897-2.959-19.777.352.077.866.228 1.568.522 1.591.664 2.613 1.669 3.123 3.071zm-20.927 3.833c1.236-1.753 2.552-3.211 3.927-4.362-.094 8.078 2.663 17.023 3.911 20.642 1.22 3.515 2.707 7.173 4.43 10.896 1.604 3.425 3.612 7.69 6.73 10.572-1.981 3.628-2.658 8.019.234 13.184 4.916 8.843 11.005 16.969 18.161 24.213 7.233 7.113 15.344 13.197 24.123 18.095 2.463 1.362 4.749 1.923 6.859 1.923 2.319 0 4.421-.685 6.319-1.718 2.887 3.121 7.169 5.127 10.604 6.729 3.672 1.713 7.34 3.204 10.894 4.428 3.548 1.229 12.254 3.924 20.223 3.924.135 0 .268-.01.403-.011-1.143 1.363-2.598 2.677-4.357 3.927-11.086 7.842-21.796 9.117-35.806 4.274-34.274-11.881-69.055-46.673-80.906-80.938-4.869-14.005-3.6-24.701 4.252-35.778zm-59.188 164.266c-.556 2.074.037 4.287 1.555 5.805 1.519 1.52 3.731 2.112 5.805 1.556l46.05-12.34c19.067 11.5 40.681 17.251 62.29 17.251s43.216-5.75 62.271-17.251l46.048 12.34c2.074.555 4.286-.038 5.805-1.556 1.518-1.518 2.111-3.73 1.555-5.805l-12.346-46.075c5.947-9.977 10.106-19.696 13.019-30.383 11.131-40.757.336-83.725-28.877-114.938l-.031-.032c-25.705-27.06-61.792-40.526-99.012-36.965-42.608 4.079-80.108 30.608-97.862 69.232-16.99 36.896-14.748 77.961 6.077 113.08l-12.347 46.08zm17.189-154.137c15.974-34.751 49.728-58.619 88.09-62.291 33.5-3.221 65.992 8.909 89.134 33.26 26.33 28.142 36.067 66.849 26.044 103.547-2.855 10.478-6.865 19.561-13 29.451-.875 1.41-1.127 3.12-.698 4.724l10.317 38.503-38.503-10.317c-1.624-.436-3.355-.169-4.775.73-35.286 22.389-80.904 22.39-116.218 0-.971-.616-2.089-.935-3.218-.935-.521 0-1.043.068-1.556.205l-38.503 10.317 10.317-38.503c.43-1.604.177-3.312-.698-4.723-19.917-32.116-22.371-70.01-6.733-103.968zm171.264 195.299c.923 1.052 1.484 2.428 1.49 3.936v.024.022.012c-.008 1.5-.565 2.87-1.481 3.919-.166.189-.344.37-.535.539-.197.176-.406.339-.625.487l-24.762 17.271c-1.047.73-2.246 1.081-3.433 1.081-1.898 0-3.766-.896-4.935-2.572-1.898-2.722-1.231-6.468 1.491-8.366l9.149-6.381h-117.368c-3.319 0-6.009-2.69-6.009-6.01s2.69-6.01 6.009-6.01h117.342l-9.119-6.35c-2.724-1.896-3.394-5.642-1.498-8.365 1.896-2.725 5.642-3.395 8.366-1.498l24.762 17.242c.224.151.438.318.639.498.183.164.355.338.516.521zm1.49 52.378c0 3.319-2.69 6.01-6.009 6.01h-117.342l9.119 6.35c2.724 1.896 3.394 5.642 1.498 8.365-1.168 1.678-3.037 2.576-4.937 2.576-1.185 0-2.382-.35-3.429-1.078l-24.762-17.242c-.225-.152-.439-.319-.641-.5-.18-.161-.35-.332-.508-.512 0 0-.002-.003-.004-.005-.924-1.052-1.486-2.429-1.493-3.938v-.024-.022-.012c.008-1.505.568-2.878 1.489-3.928.161-.185.334-.359.519-.523.2-.179.411-.344.633-.494l24.762-17.271c2.722-1.899 6.467-1.232 8.367 1.491 1.899 2.722 1.231 6.468-1.491 8.366l-9.149 6.382h117.368c3.319 0 6.009 2.69 6.009 6.01z" fill="#fb9c2a" fill-opacity="1" data-original-color="#000000ff" stroke="none" stroke-opacity="1"/></g></svg>