<svg viewBox="0 0 512 512" xmlns="http://www.w3.org/2000/svg" width="300" height="300" version="1.1" xmlns:xlink="http://www.w3.org/1999/xlink" xmlns:svgjs="http://svgjs.dev/svgjs"><g transform="matrix(1,0,0,1,0,0)"><g id="_26_Target_Group" data-name="26 Target Group"><path d="m134.58 501.31h-98a31.59 31.59 0 0 1 -31.58-31.55v-28.44a31.59 31.59 0 0 1 31.55-31.54h98a31.58 31.58 0 0 1 31.55 31.54v28.44a31.58 31.58 0 0 1 -31.52 31.55zm-98-79.53a19.57 19.57 0 0 0 -19.58 19.54v28.44a19.57 19.57 0 0 0 19.55 19.55h98a19.57 19.57 0 0 0 19.55-19.55v-28.44a19.57 19.57 0 0 0 -19.55-19.54z" fill="#fb9c2a" fill-opacity="1" data-original-color="#000000ff" stroke="none" stroke-opacity="1"/><path d="m85.57 409.85a51.74 51.74 0 1 1 51.73-51.74 51.8 51.8 0 0 1 -51.73 51.74zm0-91.47a39.74 39.74 0 1 0 39.73 39.73 39.78 39.78 0 0 0 -39.73-39.73z" fill="#fb9c2a" fill-opacity="1" data-original-color="#000000ff" stroke="none" stroke-opacity="1"/><path d="m305 501.31h-98a31.58 31.58 0 0 1 -31.55-31.55v-28.44a31.58 31.58 0 0 1 31.55-31.54h98a31.58 31.58 0 0 1 31.55 31.54v28.44a31.58 31.58 0 0 1 -31.55 31.55zm-98-79.53a19.57 19.57 0 0 0 -19.55 19.54v28.44a19.57 19.57 0 0 0 19.55 19.55h98a19.57 19.57 0 0 0 19.55-19.55v-28.44a19.57 19.57 0 0 0 -19.55-19.54z" fill="#fb9c2a" fill-opacity="1" data-original-color="#000000ff" stroke="none" stroke-opacity="1"/><path d="m256 409.85a51.74 51.74 0 1 1 51.74-51.74 51.8 51.8 0 0 1 -51.74 51.74zm0-91.47a39.74 39.74 0 1 0 39.74 39.73 39.77 39.77 0 0 0 -39.74-39.73z" fill="#fb9c2a" fill-opacity="1" data-original-color="#000000ff" stroke="none" stroke-opacity="1"/><path d="m475.45 501.31h-98a31.58 31.58 0 0 1 -31.55-31.55v-28.44a31.58 31.58 0 0 1 31.55-31.54h98a31.58 31.58 0 0 1 31.55 31.54v28.44a31.58 31.58 0 0 1 -31.55 31.55zm-98-79.53a19.57 19.57 0 0 0 -19.55 19.54v28.44a19.57 19.57 0 0 0 19.55 19.55h98a19.57 19.57 0 0 0 19.55-19.55v-28.44a19.57 19.57 0 0 0 -19.55-19.54z" fill="#fb9c2a" fill-opacity="1" data-original-color="#000000ff" stroke="none" stroke-opacity="1"/><path d="m426.44 409.85a51.74 51.74 0 1 1 51.73-51.74 51.8 51.8 0 0 1 -51.73 51.74zm0-91.47a39.74 39.74 0 1 0 39.73 39.73 39.78 39.78 0 0 0 -39.73-39.73z" fill="#fb9c2a" fill-opacity="1" data-original-color="#000000ff" stroke="none" stroke-opacity="1"/><path d="m256 186.36a41.11 41.11 0 0 1 -27.94-10.91 6 6 0 0 1 8.13-8.83 29.24 29.24 0 1 0 -3.76-38.83 6 6 0 0 1 -9.67-7.1 41.25 41.25 0 1 1 33.24 65.67z" fill="#fb9c2a" fill-opacity="1" data-original-color="#000000ff" stroke="none" stroke-opacity="1"/><path d="m221.46 158.14a6 6 0 0 1 -5.87-4.78 41.08 41.08 0 0 1 -.83-8.25c0-.79 0-1.57.07-2.34a6 6 0 1 1 12 .74v1.6a28.55 28.55 0 0 0 .58 5.81 6 6 0 0 1 -4.66 7.09 5.69 5.69 0 0 1 -1.29.13z" fill="#fb9c2a" fill-opacity="1" data-original-color="#000000ff" stroke="none" stroke-opacity="1"/><path d="m256 244.56a99.46 99.46 0 1 1 99.46-99.45 99.57 99.57 0 0 1 -99.46 99.45zm0-186.91a87.46 87.46 0 1 0 87.46 87.46 87.56 87.56 0 0 0 -87.46-87.46z" fill="#fb9c2a" fill-opacity="1" data-original-color="#000000ff" stroke="none" stroke-opacity="1"/><path d="m256 268.2a6 6 0 0 1 -6-6v-15.12a6 6 0 0 1 12 0v15.12a6 6 0 0 1 -6 6z" fill="#fb9c2a" fill-opacity="1" data-original-color="#000000ff" stroke="none" stroke-opacity="1"/><path d="m256 49.13a6 6 0 0 1 -6-6v-15.13a6 6 0 1 1 12 0v15.13a6 6 0 0 1 -6 6z" fill="#fb9c2a" fill-opacity="1" data-original-color="#000000ff" stroke="none" stroke-opacity="1"/><path d="m373.09 151.11h-15.09a6 6 0 0 1 0-12h15.11a6 6 0 1 1 0 12z" fill="#fb9c2a" fill-opacity="1" data-original-color="#000000ff" stroke="none" stroke-opacity="1"/><path d="m154 151.11h-15.09a6 6 0 1 1 0-12h15.09a6 6 0 0 1 0 12z" fill="#fb9c2a" fill-opacity="1" data-original-color="#000000ff" stroke="none" stroke-opacity="1"/></g></g></svg>