<svg id="Layer_1" viewBox="0 0 486 485.972" xmlns="http://www.w3.org/2000/svg" data-name="Layer 1" width="300" height="300" version="1.1" xmlns:xlink="http://www.w3.org/1999/xlink" xmlns:svgjs="http://svgjs.dev/svgjs"><g transform="matrix(1,0,0,1,0,0)"><path d="m459.133 312.528c7.211-22.358 10.867-45.755 10.867-69.542s-3.656-47.185-10.867-69.542c-1.355-4.205.954-8.713 5.158-10.069 4.208-1.358 8.713.953 10.07 5.158 7.723 23.947 11.639 48.996 11.639 74.454s-3.916 50.507-11.639 74.454c-1.094 3.389-4.233 5.546-7.612 5.546-.813 0-1.642-.125-2.457-.388-4.205-1.356-6.515-5.864-5.159-10.069zm24.005 94.664c0 23.376-10.619 44.311-27.276 58.253-.377.375-.794.711-1.24 1.006-13 10.427-29.479 16.685-47.399 16.685s-34.467-6.278-47.482-16.736c-.281-.19-.544-.404-.798-.627-16.885-13.941-27.665-35.026-27.665-58.581 0-19.017 7.042-36.41 18.635-49.747l-24.445-23.626c-21.802 19.817-50.741 31.91-82.452 31.91s-60.655-12.089-82.461-31.901l-24.462 23.621c11.591 13.337 18.632 30.728 18.632 49.744 0 23.344-10.595 44.253-27.22 58.196-.406.412-.859.778-1.347 1.095-12.999 10.408-29.468 16.654-47.377 16.654s-34.399-6.258-47.399-16.685c-.446-.295-.863-.631-1.24-1.006-16.658-13.942-27.276-34.878-27.276-58.253 0-41.876 34.056-75.945 75.916-75.945 17.102 0 32.899 5.687 45.607 15.263l25.051-24.19c-18.18-21.411-29.167-49.112-29.167-79.335s10.986-57.924 29.166-79.335l-25.05-24.213c-12.709 9.573-28.506 15.257-45.608 15.257-17.863 0-34.293-6.217-47.274-16.581-.538-.341-1.033-.742-1.473-1.198-16.597-13.937-27.171-34.822-27.171-58.138 0-41.876 34.056-75.945 75.916-75.945s75.944 34.069 75.944 75.945c0 19.007-7.04 36.391-18.63 49.723l24.459 23.642c21.806-19.812 50.749-31.902 82.461-31.902s60.65 12.093 82.452 31.911l24.443-23.648c-11.592-13.332-18.633-30.717-18.633-49.726 0-41.876 34.069-75.945 75.945-75.945s75.916 34.069 75.916 75.945c0 23.316-10.574 44.201-27.168 58.138-.44.456-.936.856-1.473 1.198-12.981 10.364-29.411 16.581-47.274 16.581-17.101 0-32.896-5.684-45.605-15.254l-25.037 24.222c18.17 21.409 29.149 49.106 29.149 79.323s-10.979 57.913-29.149 79.323l25.037 24.199c12.708-9.574 28.504-15.26 45.604-15.26 41.86 0 75.916 34.069 75.916 75.945zm-40.916-290.203c0-6.48-6.188-11.956-13.515-11.956h-43c-7.437 0-13.486 5.363-13.486 11.956v10.386c9.856 7.112 21.943 11.32 35.001 11.32s25.146-4.212 35-11.331zm-35-37.451c9.097 0 12.04-12.562 12.04-18.645 0-6.639-5.401-12.041-12.04-12.041s-12.069 5.401-12.069 12.041c0 6.083 2.95 18.645 12.069 18.645zm-50.364 31.673c2.816-12.651 14.68-22.178 28.85-22.178h4.655c-7.355-6.703-11.21-17.628-11.21-28.141 0-15.461 12.592-28.041 28.069-28.041s28.04 12.579 28.04 28.041c0 10.513-3.851 21.438-11.198 28.141h4.644c14.173 0 26.042 9.514 28.871 22.152 6.039-9.351 9.56-20.472 9.56-32.406 0-33.054-26.878-59.945-59.916-59.945s-59.945 26.891-59.945 59.945c0 11.946 3.53 23.076 9.581 32.432zm-243.049 5.778c0-6.48-6.188-11.956-13.515-11.956h-43.001c-7.325 0-13.514 5.475-13.514 11.956v10.375c9.854 7.119 21.941 11.331 35 11.331s25.168-4.215 35.029-11.34v-10.366zm-35.029-37.451c9.119 0 12.069-12.562 12.069-18.645 0-6.639-5.414-12.041-12.069-12.041s-12.04 5.401-12.04 12.041c0 6.083 2.943 18.645 12.04 18.645zm50.384 31.641c6.039-9.349 9.561-20.468 9.561-32.4 0-33.054-26.891-59.945-59.944-59.945s-59.916 26.891-59.916 59.945c0 11.935 3.521 23.056 9.56 32.406 2.829-12.638 14.697-22.152 28.87-22.152h4.645c-7.347-6.703-11.198-17.628-11.198-28.141 0-15.461 12.579-28.041 28.04-28.041s28.069 12.579 28.069 28.041c0 10.513-3.855 21.438-11.21 28.141h4.655c14.171 0 26.038 9.51 28.869 22.146zm-15.354 334.251c0-6.608-6.062-11.984-13.515-11.984h-43.001c-7.451 0-13.514 5.376-13.514 11.984v10.37c9.854 7.122 21.941 11.336 35 11.336s25.168-4.217 35.029-11.345v-10.361zm-35.029-37.479c9.119 0 12.069-12.562 12.069-18.645 0-6.639-5.414-12.041-12.069-12.041s-12.04 5.401-12.04 12.041c0 6.083 2.943 18.645 12.04 18.645zm0-60.704c-33.038 0-59.916 26.891-59.916 59.945 0 11.941 3.522 23.068 9.561 32.424 2.831-12.649 14.698-22.169 28.869-22.169h4.645c-7.347-6.703-11.198-17.628-11.198-28.141 0-15.461 12.579-28.041 28.04-28.041s28.069 12.579 28.069 28.041c0 10.513-3.855 21.438-11.21 28.141h4.655c14.169 0 26.035 9.518 28.868 22.163 6.04-9.354 9.562-20.479 9.562-32.417 0-33.054-26.891-59.945-59.944-59.945zm270.651-96.262h-60.468c-.331 14.585-1.562 29.055-3.678 42.557 17.102 2.172 32.618 5.669 45.355 10.294 10.595-15.218 17.337-33.308 18.792-52.851zm0-16c-1.455-19.543-8.197-37.634-18.792-52.851-12.737 4.626-28.253 8.123-45.355 10.294 2.116 13.501 3.348 27.972 3.678 42.557h60.468zm-80.508-95.556c5.629 9.738 10.101 22.611 13.387 37.266 13.92-1.71 26.662-4.335 37.486-7.763-13.662-14.168-31.192-24.575-50.873-29.503zm4.029 95.556c-.334-14.42-1.565-28.27-3.616-40.953-8.479.638-17.227.97-26.123.97-9.041 0-17.932-.343-26.542-1.003-2.055 12.691-3.288 26.552-3.622 40.986h59.902zm-59.902 16c.334 14.432 1.568 28.292 3.624 40.983 8.606-.659 17.496-1 26.54-1 8.895 0 17.643.332 26.121.97 2.052-12.684 3.284-26.533 3.618-40.953h-59.902zm6.76-72.819c7.64.548 15.484.836 23.404.836 7.835 0 15.53-.266 22.995-.777-1.162-4.888-2.455-9.534-3.89-13.862-6.882-20.756-14.699-28.122-19.303-28.122s-12.442 7.365-19.328 28.123c-1.43 4.31-2.719 8.936-3.877 13.801zm-53.471-9.362c10.743 3.396 23.514 6.039 37.381 7.783 3.286-14.609 7.751-27.442 13.369-37.155-19.622 4.914-37.105 15.273-50.75 29.372zm-29.768 66.181h60.469c.331-14.606 1.567-29.097 3.689-42.615-17.068-2.197-32.55-5.719-45.269-10.37-10.651 15.245-17.43 33.385-18.889 52.985zm0 16c1.459 19.598 8.237 37.736 18.886 52.98 12.7-4.653 28.184-8.176 45.271-10.371-2.122-13.516-3.358-28.005-3.688-42.609zm80.519 95.553c-5.619-9.715-10.085-22.55-13.37-37.161-13.884 1.743-26.658 4.386-37.387 7.782 13.646 14.103 31.132 24.463 50.757 29.378zm49.116-38.793c-7.463-.511-15.157-.777-22.992-.777-7.922 0-15.765.287-23.402.833 1.158 4.863 2.446 9.485 3.875 13.794 6.888 20.765 14.717 28.133 19.328 28.133s12.419-7.368 19.303-28.132c1.434-4.326 2.727-8.968 3.887-13.852zm53.591 9.293c-10.824-3.428-23.566-6.052-37.486-7.763-3.286 14.655-7.757 27.528-13.387 37.265 19.681-4.928 37.211-15.335 50.873-29.503zm122.426 128.392c0-6.608-6.062-11.984-13.515-11.984h-43c-7.437 0-13.486 5.376-13.486 11.984v10.382c9.856 7.115 21.943 11.325 35.001 11.325s25.146-4.214 35-11.336v-10.37zm-35-37.479c9.097 0 12.04-12.562 12.04-18.645 0-6.639-5.401-12.041-12.04-12.041s-12.069 5.401-12.069 12.041c0 6.083 2.95 18.645 12.069 18.645zm59.916-.759c0-33.054-26.878-59.945-59.916-59.945s-59.945 26.891-59.945 59.945c0 11.952 3.53 23.089 9.583 32.45 2.818-12.661 14.68-22.195 28.848-22.195h4.655c-7.355-6.703-11.21-17.628-11.21-28.141 0-15.461 12.592-28.041 28.069-28.041s28.04 12.579 28.04 28.041c0 10.513-3.851 21.438-11.198 28.141h4.644c14.172 0 26.039 9.521 28.87 22.169 6.039-9.355 9.561-20.483 9.561-32.424zm-293.707-380.349c22.423-7.195 45.834-10.843 69.582-10.843s47.131 3.648 69.554 10.843c.812.261 1.636.385 2.446.384 3.383 0 6.526-2.164 7.615-5.558 1.351-4.207-.966-8.712-5.173-10.062-24.005-7.702-49.051-11.607-74.442-11.607s-50.466 3.905-74.471 11.607c-4.207 1.35-6.523 5.855-5.173 10.062 1.349 4.207 5.855 6.525 10.062 5.173zm139.128 432.261c-22.391 7.211-45.789 10.868-69.546 10.868s-47.184-3.657-69.573-10.868c-4.207-1.355-8.713.957-10.067 5.162-1.355 4.206.956 8.713 5.162 10.067 23.978 7.723 49.035 11.639 74.479 11.639s50.473-3.916 74.45-11.639c4.206-1.354 6.518-5.862 5.163-10.067-1.355-4.206-5.866-6.518-10.067-5.162zm-290.854-295.759c-4.203-1.356-8.713.956-10.067 5.162-7.724 23.976-11.64 49.035-11.64 74.479s3.916 50.504 11.64 74.454c1.094 3.389 4.233 5.546 7.612 5.546.813 0 1.642-.125 2.457-.388 4.205-1.356 6.515-5.864 5.159-10.069-7.212-22.36-10.868-45.757-10.868-69.542s3.656-47.185 10.868-69.574c1.355-4.206-.956-8.713-5.161-10.067z" fill="#fb9c2a" fill-opacity="1" data-original-color="#000000ff" stroke="none" stroke-opacity="1"/></g></svg>