<svg id="Layer_1" viewBox="0 0 512 512" xmlns="http://www.w3.org/2000/svg" data-name="Layer 1" width="300" height="300" version="1.1" xmlns:xlink="http://www.w3.org/1999/xlink" xmlns:svgjs="http://svgjs.dev/svgjs"><g transform="matrix(1,0,0,1,0,0)"><path d="m489.325 203.735-31.778-8.511c-4.039-13.417-9.425-26.43-16.046-38.771l16.424-28.478c5.815-10.028 4.2-22.263-4.009-30.435l-39.458-39.458c-8.2-8.201-20.432-9.811-30.422-4.016l-28.49 16.431c-12.367-6.636-25.38-12.014-38.772-16.023l-8.506-31.762c-2.975-11.193-12.765-18.714-24.36-18.714h-55.814c-11.56 0-21.348 7.514-24.358 18.703l-8.51 31.773c-13.413 4.022-26.425 9.399-38.77 16.021l-28.46-16.428c-9.999-5.777-22.234-4.169-30.453 4.014l-39.459 39.458c-8.169 8.168-9.784 20.401-4.013 30.456l16.452 28.455c-6.599 12.265-11.983 25.279-16.042 38.771l-31.768 8.508c-11.192 2.975-18.713 12.765-18.713 24.36v55.814c0 11.56 7.513 21.348 18.702 24.358l31.772 8.509c4.019 13.418 9.404 26.432 16.048 38.773l-16.461 28.472c-5.764 10.039-4.147 22.271 4.021 30.438l39.487 39.459c8.185 8.186 20.411 9.798 30.423 4.015l28.462-16.429c12.345 6.622 25.356 11.999 38.77 16.021l8.512 31.78c3.009 11.183 12.797 18.695 24.356 18.695h55.814c11.596 0 21.386-7.521 24.356-18.697l8.536-31.778c13.384-4.014 26.388-9.392 38.746-16.022l28.492 16.432c10.019 5.772 22.242 4.16 30.42-4.017l39.486-39.459c8.182-8.18 9.783-20.419 3.986-30.451l-16.429-28.462c6.607-12.318 11.992-25.329 16.043-38.769l31.792-8.514c11.163-3.014 18.663-12.802 18.663-24.355v-55.814c0-11.591-7.507-21.38-18.675-24.357zm-99.286-139.287c5.237-3.035 11.642-2.185 15.94 2.114l39.468 39.468c4.302 4.282 5.147 10.685 2.098 15.943l-14.208 24.637-67.947-67.947zm-39.901 285.688c-25.957 25.943-60.043 38.913-94.139 38.91-34.088-.003-68.186-12.972-94.136-38.908-51.88-51.908-51.88-136.369 0-188.275 35.145-35.146 86.759-47.604 133.769-32.975l-11.421 11.421c-40.249-9.776-83.024 2.125-112.4 31.5-22.492 22.492-34.879 52.392-34.879 84.19s12.387 61.699 34.879 84.19c22.491 22.492 52.395 34.879 84.201 34.879s61.702-12.388 84.18-34.879c29.376-29.376 41.275-72.151 31.5-112.4l11.421-11.421c14.629 47.009 2.17 98.624-32.974 133.768zm-125.369-124.315 61.409 61.409-69.252 7.843zm-8.716-17.355c-.01.01-.019.02-.029.029l-.051.051c-.008.008-.013.017-.021.025-.268.271-.51.566-.724.885-.019.028-.035.057-.053.085-.191.297-.359.611-.497.943-.017.04-.03.08-.046.121-.124.317-.224.646-.293.988-.009.045-.014.091-.022.136-.022.126-.048.251-.062.381l-10.091 89.093c-.206 1.814.427 3.623 1.718 4.914 1.131 1.131 2.658 1.756 4.239 1.756.224 0 .449-.013.675-.038l89.093-10.091c.131-.015.258-.041.386-.063.042-.008.085-.012.128-.021.344-.069.673-.17.991-.294.04-.016.081-.029.12-.046.33-.137.642-.303.937-.493.032-.021.064-.039.096-.06.312-.209.602-.447.868-.708.012-.012.027-.02.039-.032l58.098-58.098c5.779 33.997-5.192 69.135-29.84 93.783-20.214 20.227-47.099 31.366-75.7 31.366s-55.496-11.14-75.723-31.367c-20.228-20.227-31.367-47.115-31.367-75.712s11.14-55.484 31.367-75.712c24.647-24.648 59.782-35.619 93.783-29.839l-58.018 58.018zm165.633-7.628c-.234.203-.455.418-.652.651l-20.142 20.142c-.01.01-.019.02-.029.029l-61.649 61.649-70.523-70.523 81.819-81.819c.234-.197.449-.418.652-.652l44.461-44.461 70.523 70.523-44.461 44.461zm114.324 83.069c0 6.062-3.938 11.197-9.786 12.776l-35.036 9.383c-2.039.546-3.641 2.124-4.217 4.154-4.204 14.812-10.119 29.104-17.582 42.482-1.027 1.843-1.011 4.091.044 5.918l18.114 31.382c3.044 5.269 2.208 11.688-2.078 15.974l-39.489 39.462c-4.288 4.287-10.699 5.132-15.953 2.107l-31.408-18.113c-1.829-1.055-4.075-1.07-5.916-.042-13.43 7.491-27.71 13.396-42.444 17.55-2.033.573-3.615 2.175-4.163 4.215l-9.415 35.052c-1.559 5.863-6.691 9.803-12.772 9.803h-55.814c-6.062 0-11.197-3.946-12.776-9.813l-9.383-35.036c-.547-2.042-2.129-3.646-4.164-4.22-14.772-4.165-29.062-10.069-42.473-17.55-.908-.507-1.915-.76-2.921-.76-1.035 0-2.07.268-2.997.803l-31.382 18.114c-5.329 3.08-11.589 2.25-15.951-2.112l-39.484-39.456c-4.287-4.286-5.132-10.713-2.11-15.975l18.143-31.38c1.059-1.831 1.074-4.084.041-5.93-7.504-13.402-13.417-27.688-17.574-42.462-.573-2.036-2.177-3.62-4.221-4.167l-35.029-9.381c-5.874-1.581-9.82-6.716-9.82-12.778v-55.814c0-6.081 3.939-11.214 9.813-12.775l35.036-9.383c2.04-.546 3.642-2.125 4.218-4.157 4.215-14.88 10.129-29.169 17.577-42.472 1.033-1.846 1.018-4.099-.041-5.93l-18.134-31.363c-3.03-5.278-2.186-11.705 2.102-15.992l39.45-39.449c4.385-4.364 10.657-5.196 15.987-2.117l31.38 18.113c1.827 1.055 4.075 1.07 5.918.044 13.411-7.481 27.7-13.386 42.473-17.551 2.035-.574 3.617-2.177 4.164-4.22l9.381-35.029c1.581-5.874 6.716-9.821 12.778-9.821h55.814c6.081 0 11.214 3.939 12.775 9.814l9.383 35.036c.547 2.044 2.131 3.647 4.167 4.221 12.19 3.43 24.062 8.079 35.407 13.818l-40.547 40.547c-52.775-18.935-111.923-5.829-151.71 33.959-56.552 56.581-56.552 148.647.002 205.231 28.291 28.276 65.453 42.414 102.614 42.414s74.325-14.139 102.616-42.415c39.787-39.787 52.892-98.933 33.958-151.709l40.547-40.547c5.729 11.325 10.388 23.2 13.85 35.417.576 2.032 2.178 3.611 4.218 4.157l35.042 9.385c5.85 1.56 9.78 6.693 9.78 12.773v55.814zm-132.321-153.225-90.17 90.143c-1.17 1.17-2.704 1.755-4.238 1.755s-3.069-.585-4.24-1.757c-2.341-2.341-2.34-6.138.002-8.479l90.17-90.143c2.34-2.341 6.137-2.341 8.479.002 2.341 2.341 2.34 6.138-.002 8.479zm26.108 26.135-90.143 90.142c-1.171 1.171-2.705 1.756-4.239 1.756s-3.068-.585-4.239-1.756c-2.342-2.341-2.342-6.138 0-8.479l90.143-90.142c2.342-2.342 6.137-2.342 8.479 0 2.342 2.341 2.342 6.138 0 8.479z" fill="#fb9c2a" fill-opacity="1" data-original-color="#000000ff" stroke="none" stroke-opacity="1"/></g></svg>