<svg id="backlink" viewBox="0 0 64 64" xmlns="http://www.w3.org/2000/svg" width="300" height="300" version="1.1" xmlns:xlink="http://www.w3.org/1999/xlink" xmlns:svgjs="http://svgjs.dev/svgjs"><g transform="matrix(1,0,0,1,0,0)"><path d="m14 31h-6c-1.654 0-3-1.346-3-3v-15h26v1c0 .552.448 1 1 1s1-.448 1-1v-6c0-2.757-2.243-5-5-5h-20c-2.757 0-5 2.243-5 5v20c0 2.757 2.243 5 5 5h6c.552 0 1-.448 1-1s-.448-1-1-1zm-9-23c0-1.654 1.346-3 3-3h20c1.654 0 3 1.346 3 3v3h-26z" fill="#fb9c2a" fill-opacity="1" data-original-color="#000000ff" stroke="none" stroke-opacity="1"/><path d="m56 31h-6c-.552 0-1 .448-1 1s.448 1 1 1h6c1.654 0 3 1.346 3 3v3h-9c-.552 0-1 .448-1 1s.448 1 1 1h9v15c0 1.654-1.346 3-3 3h-20c-1.654 0-3-1.346-3-3v-6c0-.552-.448-1-1-1s-1 .448-1 1v6c0 2.757 2.243 5 5 5h20c2.757 0 5-2.243 5-5v-20c0-2.757-2.243-5-5-5z" fill="#fb9c2a" fill-opacity="1" data-original-color="#000000ff" stroke="none" stroke-opacity="1"/><path d="m47 42v-20c0-2.757-2.243-5-5-5h-20c-2.757 0-5 2.243-5 5 0 .552.448 1 1 1s1-.448 1-1c0-1.654 1.346-3 3-3h20c1.654 0 3 1.346 3 3v20c0 1.654-1.346 3-3 3h-20c-1.654 0-3-1.346-3-3v-16c0-.552-.448-1-1-1s-1 .448-1 1v16c0 2.757 2.243 5 5 5h20c2.757 0 5-2.243 5-5z" fill="#fb9c2a" fill-opacity="1" data-original-color="#000000ff" stroke="none" stroke-opacity="1"/><path d="m32 26.343-2.829-2.829c-1.17-1.17-3.072-1.17-4.242 0l-1.415 1.415c-1.17 1.169-1.17 3.073 0 4.242l2.829 2.829c.585.584 1.353.876 2.121.876s1.537-.292 2.122-.877l1.414 1.414c-1.169 1.17-1.169 3.073 0 4.243l2.829 2.829c.585.585 1.353.877 2.121.877s1.536-.292 2.121-.877l1.415-1.415c1.17-1.169 1.17-3.073 0-4.242l-2.829-2.829c-1.171-1.17-3.074-1.168-4.243 0l-1.414-1.414c1.169-1.17 1.169-3.073 0-4.243zm-1.414 2.829-.707-.707c-.391-.391-1.023-.391-1.414 0s-.391 1.023 0 1.414l.707.707c-.389.39-1.024.39-1.414 0l-2.829-2.829c-.188-.189-.292-.44-.292-.707s.104-.518.292-.707l1.415-1.415c.189-.188.44-.292.707-.292s.518.104.707.292l2.828 2.829c.39.39.39 1.024 0 1.414zm2.828 5.656.708.708c.195.195.451.293.707.293s.512-.098.707-.293c.391-.391.391-1.023 0-1.414l-.707-.707c.195-.195.451-.292.707-.292s.512.097.707.292l2.829 2.829c.188.189.292.44.292.707s-.104.518-.292.707l-1.415 1.415c-.378.377-1.036.377-1.414 0l-2.828-2.829c-.39-.39-.39-1.024 0-1.415z" fill="#fb9c2a" fill-opacity="1" data-original-color="#000000ff" stroke="none" stroke-opacity="1"/><path d="m28 7h-6c-.552 0-1 .448-1 1s.448 1 1 1h6c.552 0 1-.448 1-1s-.448-1-1-1z" fill="#fb9c2a" fill-opacity="1" data-original-color="#000000ff" stroke="none" stroke-opacity="1"/><path d="m50 37h6c.552 0 1-.448 1-1s-.448-1-1-1h-6c-.552 0-1 .448-1 1s.448 1 1 1z" fill="#fb9c2a" fill-opacity="1" data-original-color="#000000ff" stroke="none" stroke-opacity="1"/></g></svg>