<svg enable-background="new 0 0 64 64" viewBox="0 0 64 64" xmlns="http://www.w3.org/2000/svg" width="300" height="300" version="1.1" xmlns:xlink="http://www.w3.org/1999/xlink" xmlns:svgjs="http://svgjs.dev/svgjs"><g transform="matrix(1,0,0,1,0,0)"><g id="Captions"><g/></g><g id="Icons"><g><path d="m43 15.5c-.827 0-1.5.673-1.5 1.5v.639c-3.715 1.234-7.584 1.861-11.5 1.861h-6c-1.208 0-2.217.86-2.449 2h-.551c-.827 0-1.5.673-1.5 1.5v4c0 .827.673 1.5 1.5 1.5h.551c.225 1.103 1.18 1.936 2.336 1.989l1.719 6.875c.168.669.767 1.137 1.456 1.137h1.938c.976 0 1.692-.916 1.456-1.863l-1.535-6.138h1.079c3.916 0 7.785.627 11.5 1.861v.639c0 .827.673 1.5 1.5 1.5s1.5-.673 1.5-1.5v-16c0-.827-.673-1.5-1.5-1.5zm-22.5 11.5v-4c0-.275.225-.5.5-.5h.5v5h-.5c-.275 0-.5-.225-.5-.5zm2 1v-6c0-.827.673-1.5 1.5-1.5h5.5v9c-2.477 0-1.519 0-5.5 0-.827 0-1.5-.673-1.5-1.5zm6.984 8.879c.08.316-.161.621-.485.621h-1.938c-.23 0-.43-.156-.485-.379l-1.655-6.621h2.969zm1.016-7.376v-9.006c3.741-.05 7.437-.656 11-1.806v12.617c-3.563-1.149-7.259-1.755-11-1.805zm13 3.497c0 .275-.225.5-.5.5s-.5-.225-.5-.5c0-5.895 0-10.099 0-16 0-.275.225-.5.5-.5s.5.225.5.5z" fill="#fb9c2a" fill-opacity="1" data-original-color="#000000ff" stroke="none" stroke-opacity="1"/><path d="m18.291 40.805c-3.896-4.321-5.791-9.576-5.791-16.064l.01-12.511c0-.821.673-1.49 1.5-1.49 2.937 0 5.585-2.142 6.296-5.092.165-.676.763-1.148 1.454-1.148h20.48c.69 0 1.289.472 1.453 1.146.707 2.956 3.349 5.095 6.284 5.094h.022c.827 0 1.5.668 1.5 1.49v12.51c0 6.496-1.895 11.754-5.791 16.075l.742.67c4.014-4.45 6.049-10.084 6.049-16.745v-12.51c0-1.373-1.121-2.49-2.502-2.49-.006 0-.012 0-.019 0-2.48 0-4.713-1.817-5.314-4.329-.273-1.125-1.27-1.911-2.424-1.911h-20.48c-1.153 0-2.15.786-2.426 1.913-.605 2.507-2.844 4.327-5.324 4.327-1.378 0-2.5 1.117-2.5 2.489l-.01 12.511c0 6.654 2.035 12.285 6.049 16.735z" fill="#fb9c2a" fill-opacity="1" data-original-color="#000000ff" stroke="none" stroke-opacity="1"/><path d="m48.5 24.74v-9.92c0-.669-.449-1.251-1.119-1.45-2.54-.743-4.681-2.569-5.871-5.008-.255-.524-.788-.862-1.36-.862h-16.3c-.572 0-1.106.338-1.359.861-1.187 2.432-3.328 4.258-5.862 5.007-.669.182-1.119.762-1.119 1.442l-.01 9.93c0 10.068 4.899 16.646 15.894 21.334.369.147.807.146 1.181-.004 10.864-4.591 15.925-11.369 15.925-21.33zm-16.306 20.406c-.13.053-.298.052-.417.004-10.566-4.504-15.277-10.798-15.277-20.409l.01-9.931c0-.227.149-.415.392-.48 2.813-.831 5.178-2.847 6.488-5.531.089-.185.265-.299.46-.299h16.3c.194 0 .37.114.46.299 1.314 2.693 3.68 4.708 6.488 5.53.24.071.401.268.401.49v9.92c.001 9.51-4.865 15.995-15.305 20.407z" fill="#fb9c2a" fill-opacity="1" data-original-color="#000000ff" stroke="none" stroke-opacity="1"/><path d="m22.832 42.055c-.988-.989-2.711-.993-3.707.004-1.021 1.021-1.021 2.682 0 3.703l2.195 2.194c.466.466.555 1.179.208 1.657-.378.52-1.076.667-1.624.346l-7.157-4.219c-.15-.09-.247-.259-.247-.431v-5.38c0-1.517-1.361-2.722-2.924-2.464-1.184.2-2.076 1.311-2.076 2.587v6.818c0 .84.417 1.616 1.113 2.076l9.772 6.512c.698.465 1.115 1.244 1.115 2.083v2.39h1v-2.39c0-1.173-.583-2.263-1.56-2.915l-9.774-6.513c-.417-.276-.666-.74-.666-1.243v-6.818c0-.793.534-1.481 1.241-1.6.946-.162 1.759.577 1.759 1.478v5.38c0 .524.281 1.018.736 1.291l7.16 4.221c.994.584 2.258.318 2.94-.621.633-.872.5-2.141-.31-2.952l-2.195-2.194c-.631-.631-.631-1.658.004-2.293.611-.611 1.678-.611 2.289 0 .6.597 6.448 6.517 6.195 6.261.772.965 1.181 2.14 1.181 3.397v7.51h1v-7.51c0-1.466-.497-2.894-1.388-4.007-.505-.512-5.777-5.857-6.28-6.358z" fill="#fb9c2a" fill-opacity="1" data-original-color="#000000ff" stroke="none" stroke-opacity="1"/><path d="m54.425 37.466c-1.559-.258-2.925.943-2.925 2.464v5.38c0 .172-.097.341-.244.429l-7.16 4.22c-.545.322-1.245.174-1.623-.346-.348-.479-.258-1.191.208-1.657l2.197-2.197c1.02-1.019 1.021-2.678.004-3.7-1.044-1.045-2.702-1.006-3.705-.006l-6.258 6.314c-.915 1.143-1.419 2.582-1.419 4.053v7.51h1v-7.51c0-1.263.415-2.448 1.204-3.432l6.179-6.226c.601-.6 1.625-.666 2.29.003.629.631.628 1.657-.002 2.287l-2.197 2.197c-.811.811-.943 2.08-.31 2.952.682.938 1.946 1.204 2.939.62l7.163-4.222c.452-.271.733-.765.733-1.289v-5.38c0-.89.8-1.638 1.759-1.478.708.119 1.241.806 1.241 1.6v6.818c0 .503-.249.967-.667 1.244l-9.773 6.512c-.977.652-1.56 1.741-1.56 2.915v2.39h1v-2.39c0-.838.417-1.617 1.114-2.083l9.771-6.511c.698-.46 1.114-1.237 1.114-2.077v-6.818c.002-1.276-.891-2.387-2.073-2.586z" fill="#fb9c2a" fill-opacity="1" data-original-color="#000000ff" stroke="none" stroke-opacity="1"/></g></g><g id="Layer_3" display="none"><g id="Grid_70_" display="inline"><g><path d="m51.9 4.1v55.8h-39.8v-55.8zm.1-.1h-40v56h40z" fill="#ff0000" fill-opacity="1" data-original-color="#ff0000ff" stroke="none" stroke-opacity="1"/></g><g><path d="m59.9 12.1v39.8h-55.8v-39.8zm.1-.1h-56v40h56z" fill="#4600f0" fill-opacity="1" data-original-color="#4600f0ff" stroke="none" stroke-opacity="1"/></g><g><path d="m55.9 8.1v47.8h-47.8v-47.8zm.1-.1h-48v48h48z" fill="#f0c800" fill-opacity="1" data-original-color="#f0c800ff" stroke="none" stroke-opacity="1"/></g><g><path d="m32 6.1c14.281 0 25.9 11.619 25.9 25.9s-11.619 25.9-25.9 25.9-25.9-11.619-25.9-25.9 11.619-25.9 25.9-25.9m0-.1c-14.359 0-26 11.641-26 26s11.641 26 26 26 26-11.641 26-26-11.641-26-26-26z" fill="#00f096" fill-opacity="1" data-original-color="#00f096ff" stroke="none" stroke-opacity="1"/></g></g></g></g></svg>