<svg xmlns="http://www.w3.org/2000/svg" id="Layer_1" data-name="Layer 1" viewBox="0 0 100 100" width="300" height="300" version="1.1" xmlns:xlink="http://www.w3.org/1999/xlink" xmlns:svgjs="http://svgjs.dev/svgjs"><g transform="matrix(1,0,0,1,0,0)"><path d="M93.586,37.1H67.871a31.244,31.244,0,0,0-1.754-3.285l4.89-7.213a1.366,1.366,0,0,0-.164-1.731l-5.965-5.964a1.364,1.364,0,0,0-1.73-.164l-7.214,4.889a30.5,30.5,0,0,0-8.982-3.723l-1.647-8.555a1.364,1.364,0,0,0-1.34-1.107H35.538a1.364,1.364,0,0,0-1.34,1.107l-1.647,8.555a30.512,30.512,0,0,0-8.983,3.723l-7.214-4.889a1.365,1.365,0,0,0-1.73.164L8.66,24.87A1.366,1.366,0,0,0,8.5,26.6l4.89,7.213A30.524,30.524,0,0,0,9.662,42.8L1.107,44.444A1.363,1.363,0,0,0,0,45.784v8.427a1.365,1.365,0,0,0,1.107,1.34L9.657,57.2a30.6,30.6,0,0,0,3.729,8.982L8.5,73.4a1.365,1.365,0,0,0,.165,1.731l5.963,5.958a1.365,1.365,0,0,0,1.73.164l7.214-4.89a30.515,30.515,0,0,0,8.983,3.724l1.647,8.56a1.364,1.364,0,0,0,1.34,1.107h8.427a1.364,1.364,0,0,0,1.34-1.107l1.647-8.556a30.628,30.628,0,0,0,8.982-3.728l7.214,4.89a1.365,1.365,0,0,0,1.73-.164l5.964-5.958a1.365,1.365,0,0,0,.165-1.731l-4.89-7.22A31.318,31.318,0,0,0,67.872,62.9H93.586A6.421,6.421,0,0,0,100,56.481V43.514A6.422,6.422,0,0,0,93.586,37.1ZM63.354,66.969,68.115,74l-4.368,4.364L56.723,73.6a1.367,1.367,0,0,0-1.516-.01,27.949,27.949,0,0,1-9.7,4.029A1.363,1.363,0,0,0,44.441,78.7l-1.6,8.328H36.665l-1.6-8.334A1.364,1.364,0,0,0,34,77.613a27.823,27.823,0,0,1-9.7-4.023,1.367,1.367,0,0,0-1.516.01l-7.024,4.761L11.388,74l4.761-7.028a1.367,1.367,0,0,0,.01-1.516,27.938,27.938,0,0,1-4.029-9.705,1.364,1.364,0,0,0-1.078-1.061l-8.322-1.6V46.911l8.327-1.6a1.365,1.365,0,0,0,1.079-1.063,27.85,27.85,0,0,1,4.023-9.7,1.365,1.365,0,0,0-.011-1.516L11.387,26l4.369-4.368,7.024,4.761a1.363,1.363,0,0,0,1.516.01A27.828,27.828,0,0,1,34,22.382,1.365,1.365,0,0,0,35.062,21.3l1.6-8.328h6.173l1.6,8.328A1.364,1.364,0,0,0,45.5,22.382a27.825,27.825,0,0,1,9.7,4.022,1.363,1.363,0,0,0,1.516-.01l7.024-4.761L68.115,26l-4.761,7.023a1.366,1.366,0,0,0-.009,1.518A27.574,27.574,0,0,1,64.832,37.1H55.156a20.093,20.093,0,1,0,0,25.8h9.687a28.044,28.044,0,0,1-1.494,2.558A1.367,1.367,0,0,0,63.354,66.969ZM49.474,62.9h1.9a17.359,17.359,0,1,1,0-25.8h-1.9a6.422,6.422,0,0,0-6.414,6.415V56.481A6.421,6.421,0,0,0,49.474,62.9Zm47.8-6.414a3.689,3.689,0,0,1-3.684,3.685H49.474a3.689,3.689,0,0,1-3.685-3.685V43.514a3.689,3.689,0,0,1,3.685-3.685H93.586a3.689,3.689,0,0,1,3.684,3.685ZM87.545,42.9H82.872a2.758,2.758,0,0,0-2.755,2.754v8.682a2.758,2.758,0,0,0,2.755,2.755h4.673A2.758,2.758,0,0,0,90.3,54.338V45.656A2.758,2.758,0,0,0,87.545,42.9Zm.025,11.436a.032.032,0,0,1-.025.025H82.872a.032.032,0,0,1-.025-.025V45.656a.032.032,0,0,1,.025-.025h4.673a.032.032,0,0,1,.025.025ZM55.5,45.789v2.7a.148.148,0,0,0,.141.147h4.419a2.892,2.892,0,0,1,2.887,2.892v2.691a2.88,2.88,0,0,1-2.876,2.877H54.13a1.365,1.365,0,0,1,0-2.73h5.936a.145.145,0,0,0,.147-.147V51.525a.165.165,0,0,0-.158-.163H55.636a2.876,2.876,0,0,1-2.87-2.876v-2.7A2.89,2.89,0,0,1,55.653,42.9h5.924a1.365,1.365,0,1,1,0,2.729H55.653A.165.165,0,0,0,55.5,45.789Zm13.676-.158v3h6.082a1.365,1.365,0,1,1,0,2.729H69.171v3h6.082a1.365,1.365,0,0,1,0,2.73H67.806a1.364,1.364,0,0,1-1.364-1.365V44.267A1.364,1.364,0,0,1,67.806,42.9h7.447a1.365,1.365,0,1,1,0,2.729Z" fill="#fb9c2a" fill-opacity="1" data-original-color="#000000ff" stroke="none" stroke-opacity="1"/></g></svg>