<svg id="Layer_1" viewBox="0 0 512 512" xmlns="http://www.w3.org/2000/svg" data-name="Layer 1" width="300" height="300" version="1.1" xmlns:xlink="http://www.w3.org/1999/xlink" xmlns:svgjs="http://svgjs.dev/svgjs"><g transform="matrix(1,0,0,1,0,0)"><path d="m123.855 365.05v-.021a34.329 34.329 0 1 0 34.717 33.992l-.022-.043h.021a34.348 34.348 0 0 0 -34.671-33.949l-.043.021zm0-10.987v.021a45.3 45.3 0 0 1 45.682 44.894h-.021a45.27 45.27 0 1 1 -45.661-44.915zm-63.015-192.638c-5.49 2.72-9.844 3.94-11.6 10.2a15.527 15.527 0 0 0 1.121 10.962l19.449 39.829h-.01c3.372 6.642 10.774 10.5 17.124 7.4v.01l5.895-2.921zm130.6-126.4a5.465 5.465 0 0 1 .025 2.352 14.067 14.067 0 0 0 1.384 4.473l73.738 150.968c6.312 12.922 22.742 4.748 16.411-8.213l-73.733-150.971c-5.27-10.789-16.958-6.7-17.82 1.387zm-27.284 164.488-38.321-78.456c24.189-16.7 47.184-43.773 59.72-69.137l69.445 142.18c-27.651-5.508-62.975-3.667-90.847 5.41zm-38.419 30.63 22.155 45.357c7.836 16.043 28.482 5.781 20.627-10.3l-22.143-45.335q-10.31 5.16-20.639 10.277zm20.407-22.451-38.469 19.056v-.008a2.532 2.532 0 0 1 -2.492-.2 5.419 5.419 0 0 0 -.88-1.153l-35.303-72.279a5.45 5.45 0 0 0 -.392-1.344 2.613 2.613 0 0 1 1.382-2.314l46.3-22.933 37.742 77.271-7.881 3.9zm123.956-74.53-28.19-57.708a30.718 30.718 0 0 1 15.427 3.646c19.417 10.226 26.323 37.578 12.76 54.064zm-33.321-68.212c19.031-3.089 37.674 8.327 46.306 26 8.646 17.7 6.214 39.492-7.839 52.755l17.628 36.095c7.744 15.854-3.122 30.046-16.771 30.5a19.423 19.423 0 0 1 -8.5-1.621 5.443 5.443 0 0 1 -1.839-.329c-12.055-4.394-30.332-6.877-50.185-6.3-17.29.5-35.67 3.338-52.047 9.269l-7.339 3.647 22.197 45.434c8.689 17.79-3.459 33.623-18.7 34.126-8.146.269-16.622-3.873-21.672-14.212l-22.149-45.346q-1.7.822-3.4 1.638v.01a13.4 13.4 0 0 1 -13.057-.741l-7.694 3.809v.01c-11.933 5.829-26.166-.664-31.782-12.472l-.01.006-19.439-39.828c-5.849-11.975-2.192-27.036 9.7-32.928l7.476-3.7a13.525 13.525 0 0 1 7.471-11.146l50.932-25.229c14.685-9.449 28.158-22.4 39.125-35.909 12.059-14.856 21.021-30.286 25.173-42.391a19.579 19.579 0 0 1 4.582-12.683c8.739-10.5 26.457-10.41 34.188 5.417zm153.432 358.743h48.277v-287.093h-48.277zm-102.848 0h48.277v-164.729h-48.277zm-43.585 0h32.6v-170.222a5.493 5.493 0 0 1 5.493-5.494h59.264a5.494 5.494 0 0 1 5.494 5.494v170.222h32.6v-292.585a5.493 5.493 0 0 1 5.493-5.494h59.264a5.494 5.494 0 0 1 5.494 5.494v292.585h29.293a5.493 5.493 0 0 1 5.493 5.493v24.959a5.493 5.493 0 0 1 -5.493 5.493h-278.659l-16.737 17.062a5.481 5.481 0 0 1 -7.025.662l-14.045-9.117a78.339 78.339 0 0 1 -16.264 6.735l-3.118 16.184a5.485 5.485 0 0 1 -5.7 4.445l-25.864.25a5.474 5.474 0 0 1 -5.4-4.337h-.011l-3.518-16.537a77.965 77.965 0 0 1 -16.283-6.736l-13.633 9.228a5.471 5.471 0 0 1 -6.9-.627h-.005l-18.711-18.35a5.482 5.482 0 0 1 -.662-7.026l9.118-14.045a78.243 78.243 0 0 1 -6.736-16.264l-16.184-3.118a5.485 5.485 0 0 1 -4.445-5.695l-.25-25.863a5.474 5.474 0 0 1 4.337-5.4v-.011l16.539-3.518a77.925 77.925 0 0 1 6.721-16.26l-9.238-13.652a5.488 5.488 0 0 1 .868-7.139l18.132-18.487a5.481 5.481 0 0 1 7.026-.662l14.042 9.116a78.293 78.293 0 0 1 16.267-6.737l3.118-16.182a5.485 5.485 0 0 1 5.695-4.445l25.864-.249a5.475 5.475 0 0 1 5.4 4.337h.01l3.519 16.537a77.9 77.9 0 0 1 16.283 6.736l13.211-8.943a5.465 5.465 0 0 1 3.49-1.251h59.263a5.494 5.494 0 0 1 5.494 5.494v97.922zm-44.685 0h33.7v-92.429h-40.349l9.134 8.959a5.48 5.48 0 0 1 .662 7.026l-9.117 14.044a78.328 78.328 0 0 1 6.736 16.265l16.183 3.118a5.485 5.485 0 0 1 4.446 5.695l.249 25.864a5.474 5.474 0 0 1 -4.337 5.4v.01l-16.538 3.518q-.366 1.278-.772 2.533zm-13.112 3.552a67.966 67.966 0 0 1 -4 7.521 5.493 5.493 0 0 0 .261 6.139l8.534 12.608-12.076 12.316-13.254-8.6a5.477 5.477 0 0 0 -5.835-.084 67.412 67.412 0 0 1 -19.563 8.112 5.471 5.471 0 0 0 -4.108 4.294h-.012l-2.928 15.157-17.244.166-3.287-15.45a5.486 5.486 0 0 0 -4.469-4.274c-5.9-1.216-13.917-4.816-19.17-8.045a5.493 5.493 0 0 0 -6.354.428l-12.38 8.38-12.324-12.093 8.6-13.254a5.477 5.477 0 0 0 .084-5.836 67.451 67.451 0 0 1 -8.112-19.563 5.472 5.472 0 0 0 -4.294-4.109v-.011l-15.165-2.923-.167-17.243 15.451-3.287a5.486 5.486 0 0 0 4.274-4.465c1.217-5.9 4.817-13.915 8.045-19.168a5.493 5.493 0 0 0 -.26-6.139l-8.528-12.611 12.08-12.311 13.252 8.6a5.479 5.479 0 0 0 5.836.084 67.386 67.386 0 0 1 19.566-8.112 5.472 5.472 0 0 0 4.108-4.294h.012l2.922-15.163 17.244-.166 3.287 15.45a5.485 5.485 0 0 0 4.465 4.274c5.906 1.217 13.915 4.816 19.169 8.045a5.494 5.494 0 0 0 6.355-.428l12.379-8.379 12.33 12.089-8.6 13.254a5.479 5.479 0 0 0 -.084 5.836 67.4 67.4 0 0 1 8.112 19.563 5.471 5.471 0 0 0 4.294 4.108v.012l15.165 2.922.166 17.244-15.45 3.287a5.486 5.486 0 0 0 -4.273 4.465 67.31 67.31 0 0 1 -3.2 9.711l-.841 1.938zm14.756 21.406h272.537v-13.971h-278.688q-.7 1.389-1.447 2.746z" fill-rule="evenodd" fill="#fb9c2a" fill-opacity="1" data-original-color="#000000ff" stroke="none" stroke-opacity="1"/></g></svg>