<svg id="Layer_1" enable-background="new 0 0 103 103" viewBox="0 0 103 103" xmlns="http://www.w3.org/2000/svg" width="300" height="300" version="1.1" xmlns:xlink="http://www.w3.org/1999/xlink" xmlns:svgjs="http://svgjs.dev/svgjs"><g transform="matrix(1,0,0,1,0,0)"><g><g><g><path d="m59.8024025 100.210083h-42.7197266c-5.0341806 0-9.1298838-4.0913086-9.1298838-9.1201172v-79.1699219c0-5.0344238 4.0957031-9.130127 9.1298838-9.130127h59.4799767c5.0341797 0 9.1298828 4.0957031 9.1298828 9.130127v16.6599121c0 .4143066-.3359375.75-.75.75s-.75-.3356934-.75-.75v-16.6599121c0-4.2072754-3.4228516-7.630127-7.6298828-7.630127h-59.4799767c-4.2070322 0-7.6298838 3.4228516-7.6298838 7.630127v79.1699219c0 4.2016602 3.4228516 7.6201172 7.6298838 7.6201172h42.7197266c1.1035156 0 2.1650391-.2324219 3.1552734-.6906738.8413086-.3791504 1.5908165-.8962402 2.2343712-1.5395508l16.7700195-16.7602539c.5717773-.5908203 1.0317383-1.2302246 1.3574219-1.8913574.1835938-.371582.6328125-.5244141 1.0048828-.3408203.3710938.1833496.5239258.6330566.340332 1.0043945-.3950195.8010254-.9443359 1.5681152-1.6333008 2.2797852l-16.7788085 16.7690429c-.7719727.7719727-1.6708984 1.392334-2.6718712 1.8432617-1.1816406.5471192-2.4555664.8261719-3.7783203.8261719z" fill="#fb9c2a" fill-opacity="1" data-original-color="#000000ff" stroke="none" stroke-opacity="1"/></g><g><path d="m63.2726173 99.4500732c-.1420898 0-.2836914-.0405273-.4072266-.1201172-.2138672-.1381836-.3427734-.3752441-.3427734-.6298828v-17.540039c0-2.2717285 1.8481407-4.1201172 4.1201134-4.1201172h17.25c.4130859 0 .7480469.3339844.75.746582.1171875.204834.1367188.4616699.0288086.6916504-.0966797.2062988-.2075195.4123535-.3408203.6066895-.3525391.5942383-.7993164 1.1765137-1.3027344 1.6901855l-16.7753906 16.765625c-.7719727.7719727-1.6708984 1.392334-2.6718712 1.8432617-.0981445.0441895-.2036133.0661621-.3081055.0661621zm3.3701134-20.9101562c-1.4448242 0-2.6201172 1.175293-2.6201172 2.6201172v16.2741699c.4204102-.2773438.8110352-.5961914 1.1694336-.9543457l16.7700195-16.7602539c.3452148-.3522949.6621094-.7490234.9418945-1.1796875z" fill="#fb9c2a" fill-opacity="1" data-original-color="#000000ff" stroke="none" stroke-opacity="1"/></g></g><g><g><g><path d="m64.2623596 33.8900146c-.4140587 0-.7499962-.3356934-.7499962-.75v-10.25c0-1.2241211 1.0004845-2.2199707 2.2299767-2.2199707h5.4702148c1.2294922 0 2.2299805.9958496 2.2299805 2.2199707v5.4599609c0 .4143066-.3359375.75-.75.75s-.75-.3356934-.75-.75v-5.4599609c0-.4038086-.3208008-.7199707-.7299805-.7199707h-5.4702148c-.4091797 0-.7299805.3161621-.7299805.7199707v10.25c0 .4143067-.3359375.75-.75.75z" fill="#fb9c2a" fill-opacity="1" data-original-color="#000000ff" stroke="none" stroke-opacity="1"/></g><g><path d="m56.7726173 48.8399658h-5.4599609c-1.2353516 0-2.2402344-1.0002441-2.2402344-2.2299805v-11.5c0-1.2297363 1.0048828-2.2299805 2.2402344-2.2299805h5.4599609c1.2294922 0 2.2299805 1.0002441 2.2299805 2.2299805v8.5400391c0 .4143066-.3359375.75-.75.75s-.75-.3356934-.75-.75v-8.5400391c0-.4025879-.3276367-.7299805-.7299805-.7299805h-5.4599609c-.4082031 0-.7402344.3273926-.7402344.7299805v11.5c0 .4025879.3320313.7299805.7402344.7299805h5.4599609c.1723633 0 .340332-.0644531.4726563-.1813965.3105469-.2753906.7841797-.2453613 1.0585938.0644531.2744141.3100586.2456055.7839355-.0644531 1.0585938-.4067384.3601074-.9277345.5583496-1.466797.5583496z" fill="#fb9c2a" fill-opacity="1" data-original-color="#000000ff" stroke="none" stroke-opacity="1"/></g><g><path d="m42.3375587 48.8389893h-5.4643555c-1.2270508 0-2.2255859-.998291-2.2255859-2.2255859v-17.6088868c0-1.232666.9985352-2.2355957 2.2255859-2.2355957h5.4643555c1.2324219 0 2.2353516 1.0029297 2.2353516 2.2355957v17.6088867c0 1.2272949-1.0029297 2.225586-2.2353516 2.225586zm-5.4643554-20.5700684c-.3999023 0-.7255859.3300781-.7255859.7355957v17.6088867c0 .4001465.3256836.7255859.7255859.7255859h5.4643555c.4052734 0 .7353516-.3254395.7353516-.7255859v-17.6088867c0-.4055176-.3300781-.7355957-.7353516-.7355957z" fill="#fb9c2a" fill-opacity="1" data-original-color="#000000ff" stroke="none" stroke-opacity="1"/></g><g><path d="m27.9093361 48.8389893h-5.4741211c-1.2270508 0-2.2255859-.998291-2.2255859-2.2255859v-5.473877c0-1.2275391.9985352-2.2260742 2.2255859-2.2260742h5.4741211c1.2275391 0 2.2260742.9985352 2.2260742 2.2260742v5.473877c0 1.2272948-.9985351 2.2255859-2.2260742 2.2255859zm-5.4741211-8.4255372c-.3999023 0-.7255859.3256836-.7255859.7260742v5.473877c0 .4001465.3256836.7255859.7255859.7255859h5.4741211c.4003906 0 .7260742-.3254395.7260742-.7255859v-5.473877c0-.4003906-.3256836-.7260742-.7260742-.7260742z" fill="#fb9c2a" fill-opacity="1" data-original-color="#000000ff" stroke="none" stroke-opacity="1"/></g></g></g><g><path d="m94.7618713 12.380249c-2.2612305 0-4.1005859-1.8395996-4.1005859-4.1005859 0-2.2578125 1.8393555-4.0944824 4.1005859-4.0944824 2.2578125 0 4.0942383 1.8366699 4.0942383 4.0944824 0 2.2609863-1.8364258 4.1005859-4.0942383 4.1005859zm0-6.6950683c-1.434082 0-2.6005859 1.1638184-2.6005859 2.5944824 0 1.434082 1.1665039 2.6005859 2.6005859 2.6005859 1.4306641 0 2.5942383-1.1665039 2.5942383-2.6005859 0-1.4306641-1.1635742-2.5944824-2.5942383-2.5944824z" fill="#fb9c2a" fill-opacity="1" data-original-color="#000000ff" stroke="none" stroke-opacity="1"/></g><g><path d="m3.8580658 83.9703369c-.4140625 0-.75-.3356934-.75-.75v-12.8952637c0-.4143066.3359375-.75.75-.75s.7499998.3356934.7499998.75v12.8952637c0 .4143067-.3359375.75-.7499998.75z" fill="#fb9c2a" fill-opacity="1" data-original-color="#000000ff" stroke="none" stroke-opacity="1"/></g><g><path d="m3.8580658 67.9222412c-.4140625 0-.75-.3356934-.75-.75v-.7902832c0-.4143066.3359375-.75.75-.75s.7499998.3356934.7499998.75v.7902832c0 .4143067-.3359375.75-.7499998.75z" fill="#fb9c2a" fill-opacity="1" data-original-color="#000000ff" stroke="none" stroke-opacity="1"/></g><g><g><path d="m27.0831642 70.1881104c-.0039063 0-.0083008 0-.012207 0l-8.8496094-.0358887c-1.671875-.0068359-3.0263681-1.3723145-3.0200205-3.0441895l.0361328-8.8701172c.0029297-.8095703.3217773-1.5698242.8964853-2.1401367.5722656-.5673828 1.3295898-.8793945 2.1347656-.8793945h.0126953l8.8500977.0358887c.8100586.003418 1.5703125.3217773 2.140625.8967285.5703125.5751953.8823242 1.3378906.8789063 2.1477051l-.0356445 8.8696289c-.0073242 1.6677246-1.366211 3.0197754-3.0322266 3.0197754zm-8.8139648-13.4697266c-.4067383 0-.7900391.1577148-1.0786133.4443359-.2905273.2880859-.4516602.6721191-.453125 1.0812988l-.0361328 8.8701172c-.003418.8444824.6811523 1.534668 1.5258789 1.5380859l8.8496094.0358887h.0063477c.8417969 0 1.5288086-.6831055 1.5322266-1.5258789l.0356445-8.8696289c0-.0002441 0-.0002441 0-.0002441.0019531-.4091797-.1557617-.7944336-.4443359-1.0849609-.2880859-.2905273-.671875-.451416-1.0810547-.453125l-8.8500977-.0358887c-.0024415 0-.0043946 0-.0063477 0z" fill="#fb9c2a" fill-opacity="1" data-original-color="#000000ff" stroke="none" stroke-opacity="1"/></g><g><g><path d="m60.978672 60.1531982c-.0014648 0-.003418 0-.0048828 0l-24.6025391-.1677246c-.4145508-.0029297-.7480469-.3408203-.7451172-.755127.0029297-.4123535.3378906-.744873.75-.744873h.0048828l24.6025391.1677246c.4145508.0029297.7480469.3408203.7451172.755127-.0029297.4123535-.3378906.744873-.75.744873z" fill="#fb9c2a" fill-opacity="1" data-original-color="#000000ff" stroke="none" stroke-opacity="1"/></g><g><path d="m60.947422 67.131958c-.0009766 0-.0019531 0-.0029297 0l-24.5996093-.0998535c-.4145508-.001709-.7485352-.3388672-.7470703-.7529297.0014648-.4133301.3369141-.7470703.75-.7470703h.0029297l24.5996094.0998535c.4145508.001709.7485352.3388672.7470703.7529297-.0014649.4133301-.3369141.7470703-.7500001.7470703z" fill="#fb9c2a" fill-opacity="1" data-original-color="#000000ff" stroke="none" stroke-opacity="1"/></g></g><g><path d="m26.9991798 90.8743896c-.0039063 0-.0083008 0-.012207 0l-8.8496094-.0358887c-1.671875-.0068359-3.0263681-1.3723145-3.0200205-3.0441895l.0361328-8.869873c.0073242-1.6674805 1.3662119-3.0195313 3.0322275-3.0195313h.012207l8.8496094.0358887c.8100586.0031738 1.5698242.3215332 2.140625.8964844.5703125.5749512.8823242 1.3376465.8793945 2.1474609v.0002441l-.0361328 8.869873c-.0073241 1.6674807-1.3662108 3.0195314-3.0322265 3.0195314zm-8.8134765-13.4694824c-.8417969 0-1.5288086.6831055-1.5322266 1.5258789l-.0361328 8.8696289c-.003418.8444824.6811523 1.534668 1.5258789 1.5380859l8.8496094.0358887h.0063477c.8417969 0 1.5288086-.6831055 1.5322266-1.5258789l.0361328-8.869873c.0014648-.4091797-.15625-.7944336-.4443359-1.0849609-.2885742-.2905273-.6723633-.451416-1.081543-.4528809l-8.8496094-.0358887c-.0019532 0-.0043946 0-.0063477 0zm11.1318359 1.5769043h.0097656z" fill="#fb9c2a" fill-opacity="1" data-original-color="#000000ff" stroke="none" stroke-opacity="1"/></g><g><g><path d="m58.251133 80.7608643c-.0009766 0-.0019531 0-.0029297 0l-21.9584961-.0891113c-.4145508-.001709-.7485352-.3388672-.7470703-.7529297.0014648-.4133301.3369141-.7470703.75-.7470703h.0029297l21.9584961.0891113c.4145508.001709.7485352.3388672.7470703.7529297-.0014649.41333-.3369141.7470703-.75.7470703z" fill="#fb9c2a" fill-opacity="1" data-original-color="#000000ff" stroke="none" stroke-opacity="1"/></g><g><path d="m51.5436134 87.7803955c-.0009766 0-.0019531 0-.0029297 0l-15.2797852-.0620117c-.4145508-.001709-.7485352-.3388672-.7470703-.7529297.0014648-.4133301.3369141-.7470703.75-.7470703h.0029297l15.2797852.0620117c.4145508.001709.7485352.3388672.7470703.7529297-.0014648.4133301-.336914.7470703-.75.7470703z" fill="#fb9c2a" fill-opacity="1" data-original-color="#000000ff" stroke="none" stroke-opacity="1"/></g></g><g><path d="m21.7110939 65.1092529c-.1635742.0334473-.3916016-.079834-.5327148-.2219238l-1.4121094-1.4240723c-.2915039-.2941895-.2895508-.769043.0043945-1.0605469.2944336-.2915039.7685547-.2897949 1.0610352.0043945l.8837891.8913574 2.800293-2.777832c.2944336-.2915039.7685547-.2900391 1.0610352.0043945.2915039.2939453.2895508.7687988-.0043945 1.0605469l-3.3330078 3.3061523c-.1406252.1394044-.3305666.2175294-.5283205.2175294z" fill="#fb9c2a" fill-opacity="1" data-original-color="#000000ff" stroke="none" stroke-opacity="1"/></g><g><path d="m21.6271095 85.7955322c-.1796875.0175781-.3916016-.079834-.5327148-.2219238l-1.4121094-1.4238281c-.2915039-.2939453-.2895508-.7687988.0043945-1.0605469.2944336-.2915039.7685547-.2900391 1.0610352.0043945l.8837891.8911133 2.800293-2.777832c.2944336-.2915039.7685547-.2897949 1.0610352.0043945.2915039.2939453.2895508.7687988-.0043945 1.0605469l-3.3330078 3.3061523c-.1406252.1394043-.3305666.2175293-.5283205.2175293z" fill="#fb9c2a" fill-opacity="1" data-original-color="#000000ff" stroke="none" stroke-opacity="1"/></g></g><g><path d="m92.5440979 95.6624756c-.9589844.0002441-1.9101563-.2351074-2.7885742-.7004395-1.4760742-.7822266-2.5332031-2.1010742-2.9760742-3.7133789l-4.9204102-18.081543c-.1088867-.3996582.1269531-.8120117.5268555-.9206543.3999023-.1098633.8120117.126709.9204102.5266113l4.9199219 18.079834c.3320313 1.2077637 1.1245117 2.1970215 2.2319336 2.7836914 1.1000977.5830078 2.3544922.6843262 3.5327148.2834473 1.184082-.4016113 2.1196289-1.248291 2.6362305-2.3847656.5170898-1.1379395.5390625-2.4020996.0620117-3.5593262l-7.2202148-17.560791c-.1572266-.3830566.0253906-.8212891.4086914-.9787598.3837891-.1577148.8217773.0258789.9790039.4084473l7.2197266 17.5600586c.6362305 1.5439453.6064453 3.2314453-.0834961 4.7509766-.6894531 1.5175781-1.9394531 2.6484375-3.5195313 3.1843262-.6328126.2155761-1.2827149.3222656-1.9291993.3222656z" fill="#fb9c2a" fill-opacity="1" data-original-color="#000000ff" stroke="none" stroke-opacity="1"/></g><g><path d="m84.7086487 74.1033936c-2.9077148.0002441-5.6279297-1.8303223-6.6162109-4.7316895-.0532227-.1713867-.0795898-.2668457-.0922852-.3530273-.0600586-.4099121.2236328-.7907715.6337891-.8508301.409668-.0588379.7905273.2236328.8505859.6335449.0019531.0061035.0371094.1164551.0390625.1225586.9633789 2.8256836 4.0830078 4.3603516 6.9472656 3.3862305 2.8613281-.9743652 4.3964844-4.0959473 3.421875-6.9584961-.1850586-.3703613-.0405273-.833252.3300781-1.0185547.3710938-.1855469.8154297-.0471191 1.0009766.322998.0302734.0600586.0756836.1506348.1054688.2678223 1.2246094 3.5895996-.7304688 7.5651855-4.375 8.8061523-.7431641.2531739-1.5009766.3732911-2.2456055.3732911z" fill="#fb9c2a" fill-opacity="1" data-original-color="#000000ff" stroke="none" stroke-opacity="1"/></g><g><path d="m98.8863831 33.4051514c-.2260742 0-.449707-.1018066-.597168-.2958984-1.6259766-2.1369629-3.5771484-3.9890137-5.7988281-5.5046387-.3417969-.2336426-.4301758-.7001953-.1967773-1.0422363.234375-.3430176.7011719-.4294434 1.0424805-.1970215 2.3549805 1.6066895 4.4228516 3.5700684 6.1464844 5.8356934.2509766.3295898.1870117.8000488-.1425781 1.0510254-.1357423.1032714-.2954103.1530761-.4536134.1530761z" fill="#fb9c2a" fill-opacity="1" data-original-color="#000000ff" stroke="none" stroke-opacity="1"/></g><g><path d="m90.4791565 26.2650146c-.1186523 0-.2392578-.0283203-.3510742-.0878906-.4238281-.2248535-.8540039-.4379883-1.2910156-.6384277-.3769531-.1726074-.5419922-.6179199-.3691406-.9943848.1723633-.3762207.6171875-.5422363.9946289-.3688965.4628906.2126465.9194336.4384766 1.3686523.677002.3657227.1940918.5048828.6481934.3110352 1.013916-.1347657.2539063-.3945313.3986816-.663086.3986816z" fill="#fb9c2a" fill-opacity="1" data-original-color="#000000ff" stroke="none" stroke-opacity="1"/></g><g><path d="m78.4547424 69.6641846c-8.9301758.0007324-17.2841759-5.6235352-20.3178673-14.5358887-1.8457031-5.4223633-1.4692383-11.2387695 1.0595703-16.3781738 2.5292969-5.1391602 6.9081993-8.986084 12.3305626-10.831543 5.4223633-1.8461914 11.2387695-1.4692383 16.378418 1.0595703 5.1391602 2.5290527 8.9858398 6.9082031 10.831543 12.3305664 1.8457031 5.4223633 1.4697266 11.2387695-1.0595703 16.3781738-2.5292969 5.1391602-6.9082031 8.986084-12.3305664 10.8317871-2.28125.7766114-4.6064453 1.1452637-6.8920899 1.1455079zm0-41.3996582c-2.1640625 0-4.3359375.3562012-6.4443359 1.0739746-5.0429688 1.7165527-9.1157188 5.2941895-11.4677696 10.0739746-2.3525391 4.7797852-2.7021484 10.1894531-.9858398 15.2324219 1.7167969 5.0429688 5.2944298 9.1159668 10.0742149 11.4680176 4.7802734 2.3522949 10.1904297 2.7021484 15.2324219.9858398 5.0429688-1.7167969 9.1157227-5.2944336 11.4682617-10.0742188 2.3520508-4.7797852 2.7021484-10.1894531.9853516-15.2324219-1.7167969-5.0432129-5.2944336-9.1159668-10.0742188-11.4680176-2.78125-1.3686523-5.7768555-2.0595702-8.788086-2.0595702z" fill="#fb9c2a" fill-opacity="1" data-original-color="#000000ff" stroke="none" stroke-opacity="1"/></g><g><path d="m78.4230042 64.0123291c-2.3837891 0-4.7543945-.5466309-6.9560547-1.630127-3.7832031-1.8618164-6.6152344-5.0854492-7.973629-9.0769043-2.8046875-8.2399902 1.6171837-17.2258301 9.8569298-20.0305176 8.2407227-2.8049316 17.2260742 1.6169434 20.0307617 9.8571777 1.3588867 3.9916992 1.081543 8.2734375-.7802734 12.0566406s-5.0854492 6.6149902-9.0771484 7.9736328c-1.6684571.5681154-3.3881837.8500978-5.100586.8500978zm.0024414-30.0805664c-1.5234375 0-3.0717773.2456055-4.5917969.7629395-7.4570313 2.5383301-11.4584923 10.670166-8.9204102 18.1271973 1.2294922 3.6123047 3.7924805 6.529541 7.2163086 8.2143555 3.4233398 1.6848145 7.2978516 1.935791 10.9106445.7060547 3.6123047-1.2294922 6.5297852-3.7922363 8.2148438-7.2160645 1.6850586-3.423584 1.9355469-7.298584.7060547-10.9108887-2.0209961-5.9370118-7.5874024-9.6835938-13.5356445-9.6835938z" fill="#fb9c2a" fill-opacity="1" data-original-color="#000000ff" stroke="none" stroke-opacity="1"/></g><g><g><path d="m35.3976173 11.7401123h-12.2988281c-.4140625 0-.75-.3356934-.75-.75s.3359375-.75.75-.75h12.2988281c.4140625 0 .75.3356934.75.75s-.3359375.75-.75.75z" fill="#fb9c2a" fill-opacity="1" data-original-color="#000000ff" stroke="none" stroke-opacity="1"/></g><g><path d="m20.4293556 11.7401123h-3.5288086c-.4140625 0-.75-.3356934-.75-.75s.3359375-.75.75-.75h3.5288086c.4140625 0 .75.3356934.75.75s-.3359375.75-.75.75z" fill="#fb9c2a" fill-opacity="1" data-original-color="#000000ff" stroke="none" stroke-opacity="1"/></g><g><path d="m35.3976173 16.5599365h-3.3432617c-.4140625 0-.75-.3356934-.75-.75s.3359375-.75.75-.75h3.3432617c.4140625 0 .75.3356934.75.75s-.3359375.75-.75.75z" fill="#fb9c2a" fill-opacity="1" data-original-color="#000000ff" stroke="none" stroke-opacity="1"/></g><g><path d="m29.2975197 16.5599365h-12.3969727c-.4140625 0-.75-.3356934-.75-.75s.3359375-.75.75-.75h12.3969727c.4140625 0 .75.3356934.75.75s-.3359375.75-.75.75z" fill="#fb9c2a" fill-opacity="1" data-original-color="#000000ff" stroke="none" stroke-opacity="1"/></g><g><path d="m28.1051369 21.3800049h-11.2045899c-.4140625 0-.75-.3356934-.75-.75s.3359375-.75.75-.75h11.2045898c.4140625 0 .75.3356934.75.75s-.3359374.75-.7499999.75z" fill="#fb9c2a" fill-opacity="1" data-original-color="#000000ff" stroke="none" stroke-opacity="1"/></g></g><g><g><g><g><path d="m78.4410706 58.8687744c-.046875 0-.09375-.0002441-.1411133-.0007324-2.8442383-.0366211-5.5043945-1.1789551-7.4902344-3.2163086-1.9853516-2.0375977-3.059082-4.7260742-3.0224609-7.5708008.0751953-5.8254395 4.8388672-10.5134277 10.6479492-10.5134277.0463867 0 .0922852.0002441.1391602.0007324 5.8720703.0759277 10.5883789 4.9150391 10.5126953 10.7873535-.0366211 2.8442383-1.1787109 5.5043945-3.2163086 7.4899902-2.0039063 1.9528809-4.6376954 3.0231934-7.4296875 3.0231934zm-.0058594-19.8012695c-4.9912109 0-9.0834961 4.0273438-9.1479492 9.0327148-.0649414 5.0454102 3.9868164 9.2028809 9.0322266 9.2678223 2.4697266.027832 4.7539063-.8908691 6.5039063-2.5966797 1.7509766-1.7060547 2.7324219-3.9914551 2.7636719-6.4353027l.75.0097656-.75-.0097656c.0649414-5.045166-3.9868164-9.2028809-9.0322266-9.2678223-.0395509-.0004883-.07959-.0007324-.119629-.0007324z" fill="#fb9c2a" fill-opacity="1" data-original-color="#000000ff" stroke="none" stroke-opacity="1"/></g><g><g><path d="m79.537262 48.9822998c-.0029297 0-.0063477 0-.0097656 0l-2.2001953-.0283203c-.7265625-.0092773-1.4067383-.3012695-1.9140625-.8217773-.5073242-.520752-.7817383-1.2077637-.7724609-1.9348145.0200195-1.5004883 1.222168-2.6906738 2.7568359-2.6865234l2.2001953.0283203c1.5004883.0195313 2.7055664 1.2563477 2.6860352 2.7568359-.0053711.4108887-.340332.7402344-.75.7402344-.0029297 0-.0063477 0-.0097656 0-.4140625-.0053711-.7456055-.345459-.7402344-.7597656.0043945-.326416-.1186523-.6347656-.3466797-.8684082-.2275391-.2336426-.5327148-.3647461-.8588867-.3688965l-2.2001953-.0283203c-.6689453-.029541-1.2285156.5322266-1.2373047 1.2060547-.0043945.3261719.1186523.6345215.3466797.8681641.2275391.2338867.5327148.3647461.859375.3688965l2.2001953.0283203c.4140625.0053711.7456055.345459.7402344.7597656-.0053712.4106445-.3403322.7402343-.7500001.7402343z" fill="#fb9c2a" fill-opacity="1" data-original-color="#000000ff" stroke="none" stroke-opacity="1"/></g><g><path d="m79.5128479 52.9256592c-.0117188 0-.0239258-.0002441-.0361328-.0002441l-2.2001953-.0283203c-.7265625-.0092773-1.4067383-.3012695-1.9140625-.8217773-.5073242-.520752-.7817383-1.2077637-.7724609-1.9348145.0053711-.4108887.340332-.7402344.75-.7402344h.0097656c.4140625.0053711.7456055.345459.7402344.7597656-.0043945.3261719.1186523.6345215.3466797.8681641.2275391.2338867.5327148.3647461.859375.3688965l2.2001953.0283203c.3383789.0117188.6347656-.1188965.8681641-.3464355.2338867-.2277832.3647461-.5327148.3686523-.8591309.0043945-.3266602-.1186523-.6350098-.3466797-.8686523-.2275391-.2336426-.5327148-.3647461-.8588867-.3688965l-2.2001953-.0283203c-.4140625-.0053711-.7456055-.345459-.7402344-.7597656.0053711-.4106445.340332-.7402344.75-.7402344h.0097656l2.2001953.0283203c1.5004883.0195313 2.7055664 1.2563477 2.6860352 2.7568359-.0092773.7265625-.3007813 1.4064941-.8217773 1.9140625-.5117188.4987792-1.1845704.7724609-1.8984376.7724609z" fill="#fb9c2a" fill-opacity="1" data-original-color="#000000ff" stroke="none" stroke-opacity="1"/></g><g><path d="m78.4879456 45.0250244c-.0029297 0-.0063477 0-.0097656 0-.4140625-.0053711-.7456055-.345459-.7402344-.7597656l.0136719-1.0527344c.0053711-.4108887.340332-.7402344.75-.7402344h.0097656c.4140625.0053711.7456055.345459.7402344.7597656l-.0136719 1.0527344c-.0053711.4108887-.3403321.7402344-.75.7402344z" fill="#fb9c2a" fill-opacity="1" data-original-color="#000000ff" stroke="none" stroke-opacity="1"/></g><g><path d="m78.3727112 53.9642334c-.0029297 0-.0063477 0-.0097656 0-.4140625-.0053711-.7456055-.345459-.7402344-.7597656l.0136719-1.0529785c.0053711-.4108887.340332-.7402344.75-.7402344h.0097656c.4140625.0053711.7456055.345459.7402344.7597656l-.0136719 1.0529785c-.0053711.4108887-.340332.7402344-.75.7402344z" fill="#fb9c2a" fill-opacity="1" data-original-color="#000000ff" stroke="none" stroke-opacity="1"/></g></g></g></g></g><g><g><path d="m79.155426 99.8275146c-.0341797 0-.0688477-.0019531-.1040039-.0061035-.4121094-.048584-.7250977-.3737793-.7602539-.7910156-.078125-.940918-.4311523-1.8295898-1.0205078-2.5712891-.5883789-.7514648-1.3681641-1.3012695-2.2597656-1.5947266-.3989258-.1325684-.6420898-.512207-.59375-.923584.0488281-.4118652.3735352-.7246094.7900391-.7607422.9360352-.0776367 1.8251953-.4309082 2.574707-1.0222168.7446289-.5874023 1.293457-1.3701172 1.5874023-2.2636719.1337891-.3991699.5170898-.640625.9238281-.59375.4111328.0483398.7236328.3723145.7607422.7880859.078125.9421387.4296875 1.8312988 1.0166016 2.5759277.5913086.7492676 1.3740234 1.3000488 2.2631836 1.5927734.3999023.1337891.6425781.5136719.59375.9248047s-.3735352.7233887-.7895508.7595215c0 .0002441-.0004883.0002441-.0009766.0002441-1.9194336.1645508-3.5532227 1.4553223-4.1621094 3.2880859-.1201171.3627933-.4482421.5976565-.8193359.5976565zm-.6040039-1.0717773c0 .0007324-.0004883.0014648-.0004883.0019531 0-.0007324.0004883-.0012207.0004883-.0019531zm-1.4399414-4.4973144c.5014648.3522949.9516602.779541 1.3369141 1.2717285.3867188.4868164.6962891 1.0236816.921875 1.59375.7114258-1.0187988 1.7080078-1.8056641 2.862793-2.260498-.5009766-.3518066-.9521484-.7783203-1.340332-1.2700195-.3852539-.4887695-.6933594-1.0253906-.9179688-1.59375-.3505859.5002441-.7749023.9504395-1.2641602 1.3359375-.4916992.3876952-1.0297851.6975097-1.5991211.9228515zm6.9614258.9360351h.0097656z" fill="#fb9c2a" fill-opacity="1" data-original-color="#000000ff" stroke="none" stroke-opacity="1"/></g></g></g></g></svg>