<svg id="Layer_1" enable-background="new 0 0 66 66" height="300" viewBox="0 0 66 66" width="300" xmlns="http://www.w3.org/2000/svg" version="1.1" xmlns:xlink="http://www.w3.org/1999/xlink" xmlns:svgjs="http://svgjs.dev/svgjs"><g transform="matrix(1,0,0,1,0,0)"><g style="fill:none;stroke:#000;stroke-width:1.5;stroke-linecap:round;stroke-linejoin:round;stroke-miterlimit:10"><path d="m10 33.5v-8" fill="none" fill-opacity="1" stroke="#fb9c2a" stroke-opacity="1" data-original-stroke-color="#000000ff" stroke-width="2" data-original-stroke-width="2"/><path d="m22.2 47.4v-9.5" fill="none" fill-opacity="1" stroke="#fb9c2a" stroke-opacity="1" data-original-stroke-color="#000000ff" stroke-width="2" data-original-stroke-width="2"/><path d="m22.2 55.3v5.4c0 1.7-1.4 3-3.1 3s-3-1.4-3-3c0 1.7-1.4 3-3 3-1.7 0-3.1-1.4-3.1-3v-22.8" fill="none" fill-opacity="1" stroke="#fb9c2a" stroke-opacity="1" data-original-stroke-color="#000000ff" stroke-width="2" data-original-stroke-width="2"/><path d="m22.2 25.5v8" fill="none" fill-opacity="1" stroke="#fb9c2a" stroke-opacity="1" data-original-stroke-color="#000000ff" stroke-width="2" data-original-stroke-width="2"/><path d="m16.1 60.8v-17.1" fill="none" fill-opacity="1" stroke="#fb9c2a" stroke-opacity="1" data-original-stroke-color="#000000ff" stroke-width="2" data-original-stroke-width="2"/><path d="m27.2 35.4c0 1.4-1.1 2.5-2.5 2.5h-9c-1.2 0-2.2-1-2.2-2.2 0-1.2 1-2.2 2.2-2.2h6.5" fill="none" fill-opacity="1" stroke="#fb9c2a" stroke-opacity="1" data-original-stroke-color="#000000ff" stroke-width="2" data-original-stroke-width="2"/><path d="m16.5 33.5h-6.5" fill="none" fill-opacity="1" stroke="#fb9c2a" stroke-opacity="1" data-original-stroke-color="#000000ff" stroke-width="2" data-original-stroke-width="2"/><path d="m5.1 35.4c0 1.4 1.1 2.5 2.5 2.5h9" fill="none" fill-opacity="1" stroke="#fb9c2a" stroke-opacity="1" data-original-stroke-color="#000000ff" stroke-width="2" data-original-stroke-width="2"/><path d="m12.6 14.8c-4.1 0-7.5 3.4-7.5 7.5v13.1" fill="none" fill-opacity="1" stroke="#fb9c2a" stroke-opacity="1" data-original-stroke-color="#000000ff" stroke-width="2" data-original-stroke-width="2"/><path d="m27.2 35.4v-13.1c0-4.1-3.4-7.5-7.5-7.5" fill="none" fill-opacity="1" stroke="#fb9c2a" stroke-opacity="1" data-original-stroke-color="#000000ff" stroke-width="2" data-original-stroke-width="2"/><path d="m14.3 17.2.7 1.9-1.2 5.4 2.3 1.8 2.4-1.8-1.2-5.4.7-1.9" fill="none" fill-opacity="1" stroke="#fb9c2a" stroke-opacity="1" data-original-stroke-color="#000000ff" stroke-width="2" data-original-stroke-width="2"/><circle cx="16.1" cy="7.3" r="5.1" fill="none" fill-opacity="1" stroke="#fb9c2a" stroke-opacity="1" data-original-stroke-color="#000000ff" stroke-width="2" data-original-stroke-width="2"/><path d="m43.8 33.5v-8" fill="none" fill-opacity="1" stroke="#fb9c2a" stroke-opacity="1" data-original-stroke-color="#000000ff" stroke-width="2" data-original-stroke-width="2"/><path d="m43.8 43v-5.1" fill="none" fill-opacity="1" stroke="#fb9c2a" stroke-opacity="1" data-original-stroke-color="#000000ff" stroke-width="2" data-original-stroke-width="2"/><path d="m56 37.9v22.8c0 1.7-1.4 3-3 3-1.7 0-3-1.4-3-3 0 1.7-1.4 3-3 3-1.7 0-3.1-1.4-3.1-3v-9.7" fill="none" fill-opacity="1" stroke="#fb9c2a" stroke-opacity="1" data-original-stroke-color="#000000ff" stroke-width="2" data-original-stroke-width="2"/><path d="m56 25.5v8" fill="none" fill-opacity="1" stroke="#fb9c2a" stroke-opacity="1" data-original-stroke-color="#000000ff" stroke-width="2" data-original-stroke-width="2"/><path d="m49.9 60.8v-17.1" fill="none" fill-opacity="1" stroke="#fb9c2a" stroke-opacity="1" data-original-stroke-color="#000000ff" stroke-width="2" data-original-stroke-width="2"/><path d="m60.9 35.4c0 1.4-1.1 2.5-2.5 2.5h-9c-1.2 0-2.2-1-2.2-2.2 0-1.2 1-2.2 2.2-2.2h6.6" fill="none" fill-opacity="1" stroke="#fb9c2a" stroke-opacity="1" data-original-stroke-color="#000000ff" stroke-width="2" data-original-stroke-width="2"/><path d="m50.2 33.5h-6.4" fill="none" fill-opacity="1" stroke="#fb9c2a" stroke-opacity="1" data-original-stroke-color="#000000ff" stroke-width="2" data-original-stroke-width="2"/><path d="m38.8 35.4c0 1.4 1.1 2.5 2.5 2.5h9" fill="none" fill-opacity="1" stroke="#fb9c2a" stroke-opacity="1" data-original-stroke-color="#000000ff" stroke-width="2" data-original-stroke-width="2"/><path d="m46.3 14.8c-4.1 0-7.5 3.4-7.5 7.5v13.1" fill="none" fill-opacity="1" stroke="#fb9c2a" stroke-opacity="1" data-original-stroke-color="#000000ff" stroke-width="2" data-original-stroke-width="2"/><path d="m60.9 35.4v-13.1c0-4.1-3.4-7.5-7.5-7.5" fill="none" fill-opacity="1" stroke="#fb9c2a" stroke-opacity="1" data-original-stroke-color="#000000ff" stroke-width="2" data-original-stroke-width="2"/><path d="m48 17.2.7 1.9-1.2 5.4 2.4 1.8 2.3-1.8-1.2-5.4.7-1.9" fill="none" fill-opacity="1" stroke="#fb9c2a" stroke-opacity="1" data-original-stroke-color="#000000ff" stroke-width="2" data-original-stroke-width="2"/><circle cx="49.9" cy="7.3" r="5.1" fill="none" fill-opacity="1" stroke="#fb9c2a" stroke-opacity="1" data-original-stroke-color="#000000ff" stroke-width="2" data-original-stroke-width="2"/><path d="m33 53.5h-4.5v2.9l-6.5-5.1 6.5-5v2.9h4.5 4.5v2.9l6.5-5.1-6.5-5v2.8h-4.5" fill="none" fill-opacity="1" stroke="#fb9c2a" stroke-opacity="1" data-original-stroke-color="#000000ff" stroke-width="2" data-original-stroke-width="2"/></g></g></svg>