<svg clip-rule="evenodd" fill-rule="evenodd" height="300" image-rendering="optimizeQuality" shape-rendering="geometricPrecision" text-rendering="geometricPrecision" viewBox="0 0 6.82666 6.82666" width="300" xmlns="http://www.w3.org/2000/svg" version="1.1" xmlns:xlink="http://www.w3.org/1999/xlink" xmlns:svgjs="http://svgjs.dev/svgjs"><g transform="matrix(1,0,0,1,0,0)"><g id="Layer_x0020_1"><g id="_415787992"><path id="_415788304" d="m2.07863 2.49368h.0001378zm.847874-.249862c-.294831 0-.574945.108614-.793862.30889-.232138.212362-.367665.5025-.381622.816807-.0139606.314303.0953189.615276.307705.847362.438449.479303 1.18499.512358 1.66417.0738858.479181-.438331.512331-1.18486.0739016-1.66403-.212386-.232224-.502457-.367776-.816776-.381665-.017874-.00083465-.0357244-.00125197-.0535157-.00125197zm.0018189 2.51528c-.36265 0-.72411-.146106-.987638-.434161-.24124-.263614-.365362-.605559-.349504-.9625.0158543-.357087.169795-.686531.433449-.92778.263665-.241252.605693-.365417.962484-.349445.357016.0158307.686488.169724.927724.433472.497984.544303.460331 1.39222-.0839449 1.89014-.256248.234445-.57989.350276-.902571.350276z" fill="#fb9c2a" fill-opacity="1" data-original-color="#000000ff" stroke="none" stroke-opacity="1"/><path id="_415788328" d="m4.81849 5.90646c-.00637402 0-.0127795-.0001378-.0191811-.00041339-.112165-.005-.215417-.0530591-.290764-.135417l-1.07229-1.17194c-.0298346-.0326417-.0275866-.0831929.00501181-.113055.0325984-.0297244.0831929-.0275.113028.005l1.0723 1.17208c.0465.0508346.110358.0804173.179815.0834724.0694606.00319291.135709-.0208346.186528-.0672205.105488-.0965315.11278-.260972.0162638-.36639l-1.07229-1.17194c-.0298228-.0326417-.0275866-.0831929.00502362-.113055.0325866-.0298622.0831969-.0275.113016.005l1.0723 1.17194c.156067.170559.144276.436394-.026311.592504-.0776378.0709685-.177303.109441-.282441.109441z" fill="#fb9c2a" fill-opacity="1" data-original-color="#000000ff" stroke="none" stroke-opacity="1"/><path id="_415787512" d="m.910531.625622c-.22278 0-.404028.181256-.404028.404031v4.76736c0 .222776.181248.404024.404028.404024h5.00559c.222776 0 .404024-.181248.404024-.404024l.00000394-4.76736c0-.22278-.181252-.404028-.404031-.404028l-5.00558-.00000394zm5.00559 5.73542h-5.00559c-.311004 0-.56402-.253055-.56402-.564028v-4.76736c0-.310976.253016-.564028.56402-.564028l5.00559-.00000394c.311 0 .564024.253059.564024.564031l.00000394 4.76736c0 .310972-.253031.564028-.564028.564028z" fill="#fb9c2a" fill-opacity="1" data-original-color="#000000ff" stroke="none" stroke-opacity="1"/><path id="_415787848" d="m6.40015 1.78937h-5.97364c-.044185 0-.0799961-.0358307-.0799961-.08 0-.0443071.035811-.08.0799961-.08h5.97364c.0441772 0 .0799961.0356969.0799961.08.00000394.0441654-.0358189.0800039-.0799961.08z" fill="#fb9c2a" fill-opacity="1" data-original-color="#000000ff" stroke="none" stroke-opacity="1"/><path id="_415787872" d="m1.17234 1.02104c-.0587008 0-.106465.0477795-.106465.10639 0 .058748.0477638.106531.106465.106531.0587047-.00000394.106469-.0477835.106469-.106531 0-.0586102-.0477638-.106386-.106469-.10639zm0 .372917c-.146925 0-.266457-.119583-.266457-.266528 0-.146807.119531-.26639.266457-.26639.146925 0 .266461.119587.266461.26639 0 .146945-.119535.266531-.266461.266528z" fill="#fb9c2a" fill-opacity="1" data-original-color="#000000ff" stroke="none" stroke-opacity="1"/><path id="_415787752" d="m1.899 1.02104c-.0587087 0-.106472.0477795-.106472.10639 0 .058748.0477638.106531.106472.106531.0586969-.00000394.106457-.0477835.106457-.106531.00000394-.0586102-.0477638-.106386-.106457-.10639zm0 .372917c-.146929 0-.266461-.119583-.266461-.266528 0-.146807.119531-.26639.266461-.26639.146917 0 .266445.119587.266445.26639 0 .146945-.119528.266531-.266445.266528z" fill="#fb9c2a" fill-opacity="1" data-original-color="#000000ff" stroke="none" stroke-opacity="1"/><path id="_415787656" d="m2.62565 1.02104c-.0586969 0-.106461.0477795-.106461.10639 0 .058748.0477638.106531.106457.106531.0587087-.00000394.106472-.0477835.106472-.106531 0-.0586102-.0477638-.106386-.106469-.10639zm0 .372917c-.146917 0-.266449-.119583-.266449-.266528.00000394-.146807.119528-.26639.266445-.26639.146933 0 .266461.119587.266461.26639 0 .146945-.119528.266531-.266457.266528z" fill="#fb9c2a" fill-opacity="1" data-original-color="#000000ff" stroke="none" stroke-opacity="1"/><path id="_415787632" d="m4.43303 5.64965c-.0204724 0-.0409449-.00791732-.0565669-.0234724-.0312362-.031248-.0312402-.0819449 0-.113197l.480319-.480276c.0312362-.031248.0819016-.031248.113138 0 .0312402.031252.0312362.0819449 0 .113193l-.480319.48028c-.015626.0155551-.0360984.0234724-.0565709.0234724z" fill="#fb9c2a" fill-opacity="1" data-original-color="#000000ff" stroke="none" stroke-opacity="1"/><path id="_415787488" d="m2.92777 2.63702c-.276846 0-.502055.225138-.502055.501941 0 .180417.282693.6375.451598.910559.0178031.0288898.0346929.0561102.0504567.0818031.015752-.0256929.0326654-.0530551.0504724-.0818031.168906-.273059.451583-.730142.451583-.910559 0-.276803-.22522-.501941-.502055-.501941zm0 1.72958c-.0285827 0-.055-.0152795-.0692913-.04-.0287913-.0498661-.0697913-.116114-.117236-.192917-.250594-.405142-.475528-.78611-.475528-.994724 0-.365.296984-.661941.662055-.661941.365055-.00000394.662043.296941.662043.661941 0 .20861-.224917.589583-.4755.994724-.0474606.0768031-.0884606.143055-.117264.192917-.0142953.0247205-.0406969.04-.0692795.04z" fill="#fb9c2a" fill-opacity="1" data-original-color="#000000ff" stroke="none" stroke-opacity="1"/><path id="_415788016" d="m2.92777 2.98243c-.0851929 0-.1545.0693071-.1545.154449 0 .0852756.0693071.154579.1545.154579.0851811 0 .1545-.0693031.1545-.154579 0-.0851457-.0693189-.154449-.1545-.154449zm0 .469028c-.173417 0-.3145-.14111-.3145-.314579 0-.173335.141083-.314449.3145-.314449.173406 0 .314488.141114.314488.314449 0 .173469-.141087.314579-.314488.314579z" fill="#fb9c2a" fill-opacity="1" data-original-color="#000000ff" stroke="none" stroke-opacity="1"/></g></g></g></svg>