<svg id="Layer_1" enable-background="new 0 0 512 512" height="300" viewBox="0 0 512 512" width="300" xmlns="http://www.w3.org/2000/svg" version="1.1" xmlns:xlink="http://www.w3.org/1999/xlink" xmlns:svgjs="http://svgjs.dev/svgjs"><g transform="matrix(1,0,0,1,0,0)"><path d="m361.6 308.8c0-6.3 9.6-6.3 9.6 0v9.5c0 1.4-.6 2.7-1.6 3.5-.1 9.8.5 22.9-9 30.8l6.3 21.9c.3.9.3 1.8 0 2.6-3.5 12.4-.2 13.6 2.6 14.6 4.5 1.6 8.5 3.1 8.5 10.3v9.3c0 2.6-2.2 4.8-4.8 4.8h-53.4c-2.7 0-4.8-2.2-4.8-4.8v-9.3c0-7.2 4.1-8.7 8.5-10.3 2.8-1 6.1-2.2 2.6-14.6-.3-1-.2-2 .1-2.9l6.3-21.6c-9.5-7.9-8.9-21-9-30.8-1-.9-1.6-2.1-1.6-3.5v-9.5c0-6.3 9.6-6.3 9.6 0v6.2h10.2v-6.2c0-6.3 9.6-6.3 9.6 0v6.2h10.1v-6.2zm6.9 97.7c0-5.4.6-4.7-2.2-5.8-6.5-2.4-14.1-5.2-8.9-24.9l-6.8-23.6c-.8-2.1.1-4.6 2.1-5.8 6.8-4 7.4-13.5 7.4-22h-26.8c0 8.4.6 18 7.4 22 1.8 1.1 2.8 3.3 2.2 5.4l-6.9 23.8c5.2 19.7-2.4 22.5-8.9 24.9-2.8 1-2.2.4-2.2 5.8h43.6zm-21.9-130.9c46.7 0 84.5 37.8 84.5 84.4 0 46.7-37.8 84.5-84.5 84.5s-84.5-37.8-84.5-84.5c0-46.6 37.8-84.4 84.5-84.4zm52.9 31.5c-29.2-29.2-76.6-29.2-105.8 0s-29.2 76.6 0 105.9c29.2 29.2 76.6 29.2 105.8 0 29.3-29.3 29.3-76.7 0-105.9zm-73.7-88h12.6v-114.6h-30v146.2c4.1-1.4 8.3-2.7 12.7-3.6v-23.2c-.1-2.7 2-4.8 4.7-4.8zm22.1 0h19.5c2.7 0 4.8 2.1 4.8 4.8v23.2c12.8 2.9 25.1 8 36.1 15l16.4-16.4c1.9-1.9 4.9-1.9 6.8 0l29.4 29.5c1.9 1.9 1.9 4.9 0 6.8l-16.4 16.4c7 11.1 12.1 23.3 15 36.1h23.2c2.7 0 4.8 2.2 4.8 4.8v41.6c0 2.7-2.2 4.9-5.2 4.8h-22.8c-2.9 12.9-8 25.1-15 36.2l16.4 16.4c1.9 1.9 1.9 4.9 0 6.8l-29.4 29.4c-1.9 1.9-4.9 1.9-6.8 0l-16.3-16.5c-11.1 7-23.3 12.1-36.1 15v23.2c0 2.7-2.2 4.8-4.8 4.8h-41.6c-2.7 0-4.8-2.2-4.8-4.8v-23.2c-12.8-2.9-25.1-8-36.1-15l-16.4 16.4c-1.9 1.9-4.9 1.9-6.8 0l-29.6-29.4c-1.9-1.9-1.9-4.9 0-6.8l5.2-5.2h-16.1c-2.7 0-4.8-2.2-4.8-4.8v-42.5h-6.1c-2.7 0-4.8-2.2-4.8-4.8v-41.6c0-2.7 2.2-4.8 4.8-4.8h6.1v-175.4c0-2.6 2.2-4.8 4.8-4.8h39.6c2.6 0 4.8 2.2 4.8 4.8v85.2c1 .1 1.9.6 2.7 1.4l16.4 16.4c4.4-2.8 9.1-5.3 13.9-7.5v-154.9c0-2.7 2.2-4.8 4.8-4.8h39.6c2.7 0 4.8 2.2 4.8 4.8zm-100.9 204.3 1.6-1.6c-7-11.1-12.1-23.3-15-36.1h-7.5v37.7zm-20.9-89h7.5c2.9-12.8 8-25.1 15-36.1l-16.4-16.4c-1.9-1.9-1.9-4.9 0-6.8l23.9-24v-87.2h-30zm136.5-105.7h-32.1v22c.1 2.4-1.5 4.5-3.9 5-6 1.1-15.7 3.8-20.9 6.3-.2.1-.5.2-.7.3-6.3 2.7-12.2 6-17.9 9.8-1.9 1.5-4.6 1.3-6.3-.4l-15.8-15.9-22.6 22.6 15.8 15.8c1.6 1.6 1.9 4.2.6 6.1-4.1 6-7.5 12.3-10.3 19-2.7 6.5-4.8 13.3-6.1 20.4-.3 2.4-2.3 4.2-4.8 4.2h-22.3v32h22.3c2.3 0 4.3 1.6 4.7 3.9 1.4 7.2 3.5 14.1 6.2 20.7s6.1 12.9 10.1 18.8c1.5 1.9 1.3 4.6-.4 6.3l-15.8 15.8 22.6 22.6 15.8-15.8c1.6-1.6 4.2-1.9 6.1-.6 6 4.1 12.3 7.5 19 10.3 6.5 2.7 13.3 4.8 20.4 6.1 2.4.3 4.2 2.3 4.2 4.8v22.3h32v-22.3c0-2.3 1.6-4.3 3.9-4.7 7.2-1.4 14.1-3.5 20.7-6.2s12.9-6.2 18.8-10.1c1.9-1.4 4.6-1.3 6.3.4l15.8 15.8 22.6-22.6-15.6-15.6c-1.6-1.6-1.9-4.1-.6-6.1 8.2-11.9 13.8-25.5 16.5-39.7.4-2.2 2.4-3.9 4.7-3.9h22.4v-32.1h-22.3c-2.3 0-4.3-1.6-4.7-3.9-1.4-7.2-3.5-14.1-6.2-20.7s-6.1-12.9-10.1-18.8c-1.5-1.9-1.3-4.6.4-6.3l15.8-15.8-22.6-22.6-15.8 15.8c-1.6 1.6-4.2 1.9-6.1.6-6-4.1-12.3-7.5-19-10.3-6.5-2.7-13.3-4.8-20.4-6.1-2.4-.3-4.3-2.3-4.3-4.8v-22.4zm-302.5-24.5-28.4 16.9c-2.3 1.4-5.2.6-6.6-1.7-1.3-2.3-.6-5.2 1.7-6.5l28.7-17.1c-4.3-15.5 9.1-30.4 25-27.5 4.8.9 9 3.2 12.1 6.5l45.5-27.3c-5-15.1 7.3-31.2 24.5-28.6 4.7.7 9.2 3.3 12.3 6.5l45.4-27.4c-5.3-15.7 8.3-31.5 24.7-28.6 4.8.9 9 3.2 12.1 6.5l45.5-27.3c-5.3-15.7 8.3-31.5 24.7-28.6 5 .9 9.4 3.5 12.5 7l25.7-15.3c5.4-3.2 10.3 5 4.9 8.2l-25.9 15.4c4.5 14.9-7.8 30.4-24.7 27.9-4.7-.7-9.2-3.3-12.3-6.5l-45.5 27.4c5 15.1-7.3 31.2-24.5 28.6-4.7-.7-9.2-3.3-12.3-6.5l-45.5 27.3c5.3 15.7-8.4 31.5-24.7 28.6-4.8-.9-9-3.2-12.1-6.5l-45.5 27.3c5.3 15.7-8.3 31.5-24.7 28.6-5-.9-9.5-3.6-12.6-7.3zm253.1-155.5c6.2 8.9 20.3 6.1 22.3-4.9 2-10.9-10.3-18.6-19.3-12.3-5.5 3.9-6.9 11.6-3 17.2zm-164.5 98.8c6.2 9 20.4 6 22.3-4.9 2-11-10.4-18.6-19.3-12.4-5.5 4-6.8 11.8-3 17.3zm-82.2 49.5c6.3 9 20.4 6 22.3-4.9 2-11-10.3-18.6-19.2-12.3-5.6 3.8-7 11.6-3.1 17.2zm164.4-98.9c6.2 8.9 20.3 6.1 22.3-4.9 2-10.9-10.3-18.6-19.2-12.3-5.5 3.9-6.9 11.7-3.1 17.2zm-174 154.4h39.6c2.6 0 4.8 2.2 4.8 4.8v170.8c0 2.7-2.2 4.8-4.8 4.8h-39.6c-2.6 0-4.8-2.2-4.8-4.8v-170.7c0-2.7 2.1-4.9 4.8-4.9zm34.8 9.7h-30v161.2h30zm47.4-62.6h39.6c2.7 0 4.8 2.2 4.8 4.8v223.8c0 2.7-2.2 4.8-4.8 4.8h-39.6c-2.7 0-4.8-2.2-4.8-4.8v-223.8c0-2.7 2.1-4.8 4.8-4.8zm34.8 9.6h-30v214.2h30z" fill="#fb9c2a" fill-opacity="1" data-original-color="#000000ff" stroke="none" stroke-opacity="1"/></g></svg>