<svg id="Layer_1" viewBox="0 0 64 64" xmlns="http://www.w3.org/2000/svg" data-name="Layer 1" width="300" height="300" version="1.1" xmlns:xlink="http://www.w3.org/1999/xlink" xmlns:svgjs="http://svgjs.dev/svgjs"><g transform="matrix(1,0,0,1,0,0)"><path d="m60.342 26.581a28.46 28.46 0 0 0 -13.787-24.3 1 1 0 1 0 -1.028 1.719 26.3 26.3 0 0 1 -13.481 48.877 26.082 26.082 0 0 1 -15.638-5.153 1 1 0 0 0 -1.191 1.608 28.042 28.042 0 0 0 15.829 5.506v5.162h-9.8a1 1 0 1 0 0 2h21.16a1 1 0 1 0 0-2h-9.36v-5.148a28.326 28.326 0 0 0 27.296-28.271z" fill="#fb9c2a" fill-opacity="1" data-original-color="#000000ff" stroke="none" stroke-opacity="1"/><path d="m3.658 35.353a6.91 6.91 0 0 0 9.76 6.305 21.792 21.792 0 0 0 1.6 1.694l.006.011c0 .005.011.006.016.011s.019.02.029.03a23.771 23.771 0 0 0 11.947 6.185 23.406 23.406 0 0 0 4.594.451.051.051 0 0 0 .044 0 23.337 23.337 0 0 0 4.585-.45 23.786 23.786 0 0 0 11.418-5.69h.006c.014-.013.032-.017.045-.031s.012-.022.021-.032a24.023 24.023 0 0 0 7.918-17.784c0-.008 0-.015 0-.023s0-.014 0-.022a24.034 24.034 0 0 0 -19.435-23.563h-.03-.032a23.937 23.937 0 0 0 -4.482-.428c-.014 0-.025-.008-.039-.008s-.025.007-.039.008a23.918 23.918 0 0 0 -4.481.428h-.034-.026a23.843 23.843 0 0 0 -11.387 5.655c-.024.021-.046.043-.069.064s-.022.014-.031.024v.01a23.96 23.96 0 0 0 -7.951 17.802v.022s0 .016 0 .025a23.292 23.292 0 0 0 .206 2.964 6.928 6.928 0 0 0 -4.159 6.342zm2 0a4.921 4.921 0 1 1 4.921 4.92 4.927 4.927 0 0 1 -4.921-4.92zm24.971-31.3v9.123a22.015 22.015 0 0 1 -6.965-1.276 33.941 33.941 0 0 1 4.136-7.545 21.872 21.872 0 0 1 2.829-.302zm4.832.3a33.879 33.879 0 0 1 4.016 7.247 21.843 21.843 0 0 1 -6.848 1.55v-9.096a21.734 21.734 0 0 1 2.832.301zm-2.832 43.638v-10.12a21.865 21.865 0 0 1 7.2 1.7 33.9 33.9 0 0 1 -4.35 8.114 21.172 21.172 0 0 1 -2.85.306zm-4.847-.308a33.979 33.979 0 0 1 -4.476-8.438 22.13 22.13 0 0 1 7.323-1.4v10.146a21.207 21.207 0 0 1 -2.847-.308zm13.848-7.236a20.369 20.369 0 0 1 3.84 2.676 21.834 21.834 0 0 1 -7.09 3.849 36.367 36.367 0 0 0 3.25-6.525zm-1.148-2.774a23.876 23.876 0 0 0 -7.853-1.808v-8.843h9.6a38.811 38.811 0 0 1 -1.747 10.651zm-7.853-12.651v-9.869a23.877 23.877 0 0 0 7.544-1.68 38.647 38.647 0 0 1 2.052 11.549zm5.731-19.962a22 22 0 0 1 6.485 3.363 20.293 20.293 0 0 1 -3.552 2.33 36.412 36.412 0 0 0 -2.933-5.693zm-16.552 6.1a20.407 20.407 0 0 1 -3.9-2.337 21.872 21.872 0 0 1 6.981-3.754 36.442 36.442 0 0 0 -3.081 6.089zm1.173 2.62a24.009 24.009 0 0 0 7.648 1.4v9.846h-9.6a38.675 38.675 0 0 1 1.952-11.248zm7.648 13.244v8.806a24.14 24.14 0 0 0 -7.958 1.49 38.876 38.876 0 0 1 -1.639-10.3zm-5.754 19.945a21.8 21.8 0 0 1 -7.591-4.269 20.6 20.6 0 0 1 4.18-2.679 36.565 36.565 0 0 0 3.411 6.948zm22.1-5.179a22.444 22.444 0 0 0 -4.675-3.246 40.772 40.772 0 0 0 1.921-11.522h9.4a22.026 22.026 0 0 1 -6.645 14.768zm6.645-16.768h-9.395a40.667 40.667 0 0 0 -2.225-12.388 22.245 22.245 0 0 0 4.41-2.917 21.95 21.95 0 0 1 7.21 15.305zm-37.237-14.862a22.365 22.365 0 0 0 4.737 2.879 40.718 40.718 0 0 0 -2.087 11.983h-9.4a21.963 21.963 0 0 1 6.75-14.862zm-6.733 16.862h9.383a40.848 40.848 0 0 0 1.79 11.094 22.624 22.624 0 0 0 -5 3.208c-.242-.248-.477-.5-.7-.756a6.913 6.913 0 0 0 -4.536-12.136 7.04 7.04 0 0 0 -.813.052c-.063-.479-.101-.965-.124-1.462z" fill="#fb9c2a" fill-opacity="1" data-original-color="#000000ff" stroke="none" stroke-opacity="1"/><path d="m13.824 32.909a1 1 0 0 0 -1.414 0l-2.767 2.767-.9-.9a1 1 0 0 0 -1.409 1.424l1.6 1.6a1 1 0 0 0 1.414 0l3.474-3.474a1 1 0 0 0 .002-1.417z" fill="#fb9c2a" fill-opacity="1" data-original-color="#000000ff" stroke="none" stroke-opacity="1"/></g></svg>