<svg id="Layer_1" height="300" viewBox="0 0 48 48" width="300" xmlns="http://www.w3.org/2000/svg" version="1.1" xmlns:xlink="http://www.w3.org/1999/xlink" xmlns:svgjs="http://svgjs.dev/svgjs"><g transform="matrix(1,0,0,1,0,0)"><g><g style="fill:none;stroke:#000;stroke-linecap:round;stroke-linejoin:round;stroke-miterlimit:10;stroke-width:1.5"><path d="m47 5.97v7.727h-46v-7.727c0-1.272.917-2.313 2.035-2.313h41.93c1.12 0 2.035 1.041 2.035 2.313z" fill="none" fill-opacity="1" stroke="#fb9c2a" stroke-opacity="1" data-original-stroke-color="#000000ff" stroke-width="2" data-original-stroke-width="2"/><path d="m46.999 42.343v-28.647h-45.998v28.647c0 1.105.895 2 2 2h41.999c1.104 0 1.999-.895 1.999-2z" fill="none" fill-opacity="1" stroke="#fb9c2a" stroke-opacity="1" data-original-stroke-color="#000000ff" stroke-width="2" data-original-stroke-width="2"/><path d="m4.989 6.536h38.022v4.281h-38.022z" fill="none" fill-opacity="1" stroke="#fb9c2a" stroke-opacity="1" data-original-stroke-color="#000000ff" stroke-width="2" data-original-stroke-width="2"/><path d="m8.87 6.536v4.28" fill="none" fill-opacity="1" stroke="#fb9c2a" stroke-opacity="1" data-original-stroke-color="#000000ff" stroke-width="2" data-original-stroke-width="2"/><path d="m12.751 6.536v4.28" fill="none" fill-opacity="1" stroke="#fb9c2a" stroke-opacity="1" data-original-stroke-color="#000000ff" stroke-width="2" data-original-stroke-width="2"/><path d="m16.632 6.536v4.28" fill="none" fill-opacity="1" stroke="#fb9c2a" stroke-opacity="1" data-original-stroke-color="#000000ff" stroke-width="2" data-original-stroke-width="2"/><circle cx="34" cy="30.02" r="7.5" fill="none" fill-opacity="1" stroke="#fb9c2a" stroke-opacity="1" data-original-stroke-color="#000000ff" stroke-width="2" data-original-stroke-width="2"/><path d="m36.5 33.52h-5c-.552 0-1-.448-1-1v-5c0-.552.448-1 1-1h5c.552 0 1 .448 1 1v5c0 .552-.448 1-1 1z" fill="none" fill-opacity="1" stroke="#fb9c2a" stroke-opacity="1" data-original-stroke-color="#000000ff" stroke-width="2" data-original-stroke-width="2"/><circle cx="34" cy="30.02" r="1.378" fill="none" fill-opacity="1" stroke="#fb9c2a" stroke-opacity="1" data-original-stroke-color="#000000ff" stroke-width="2" data-original-stroke-width="2"/><circle cx="14" cy="30.02" r="7.5" fill="none" fill-opacity="1" stroke="#fb9c2a" stroke-opacity="1" data-original-stroke-color="#000000ff" stroke-width="2" data-original-stroke-width="2"/></g><path d="m13.002 34.966v-5.793h-1.06v-1.156h1.06v-.636c0-.771.214-1.366.642-1.785.428-.42 1.028-.629 1.798-.629.274 0 .565.039.873.116l-.038 1.22c-.171-.034-.37-.051-.597-.051-.745 0-1.118.383-1.118 1.15v.617h1.413v1.156h-1.413v5.793h-1.56z" fill="#fb9c2a" fill-opacity="1" data-original-color="#000000ff" stroke="none" stroke-opacity="1"/></g></g></svg>