<svg id="Layer_1" enable-background="new 0 0 512 512" viewBox="0 0 512 512" xmlns="http://www.w3.org/2000/svg" width="300" height="300" version="1.1" xmlns:xlink="http://www.w3.org/1999/xlink" xmlns:svgjs="http://svgjs.dev/svgjs"><g transform="matrix(1,0,0,1,0,0)"><path d="m321.301 26c-75.52 0-137.254 60.11-139.898 134.997h-55.549l-14.368-19.835c-.94-1.298-2.446-2.067-4.049-2.067h-51.735c-1.879 0-3.599 1.053-4.453 2.727-.854 1.673-.698 3.685.404 5.206l13.741 18.969-13.741 18.968c-1.102 1.521-1.258 3.533-.404 5.206s2.574 2.727 4.453 2.727h51.735c1.603 0 3.109-.769 4.049-2.067l14.368-19.834h55.549c1.788 50.666 30.623 94.562 72.481 117.66l-6.449 12.797c-2.212-.618-4.539-.956-6.946-.956-10.214 0-19.061 5.956-23.256 14.576l-31.763-8.332c.032-.529.054-1.06.054-1.597 0-14.252-11.595-25.847-25.847-25.847s-25.847 11.595-25.847 25.847c0 2.337.317 4.601.902 6.756l-35.365 17.486c-4.729-6.155-12.157-10.133-20.501-10.133-14.252 0-25.847 11.595-25.847 25.847 0 14.251 11.595 25.846 25.847 25.846s25.847-11.595 25.847-25.846c0-2.338-.317-4.601-.902-6.756l35.366-17.486c4.729 6.155 12.158 10.133 20.502 10.133 10.214 0 19.061-5.956 23.256-14.577l31.763 8.332c-.032.529-.054 1.061-.054 1.598 0 14.252 11.595 25.847 25.847 25.847s25.847-11.595 25.847-25.847c0-8.273-3.911-15.645-9.977-20.379l6.448-12.795c17.81 8.224 37.624 12.823 58.494 12.823 77.194 0 139.997-62.802 139.997-139.997-.002-77.195-62.805-139.997-139.999-139.997zm-242.436 334.948c-8.738 0-15.847-7.108-15.847-15.846s7.109-15.847 15.847-15.847 15.847 7.109 15.847 15.847c0 8.737-7.109 15.846-15.847 15.846zm80.812-39.956c-8.738 0-15.847-7.108-15.847-15.846s7.109-15.847 15.847-15.847 15.847 7.109 15.847 15.847c0 8.737-7.109 15.846-15.847 15.846zm80.812 21.2c-8.738 0-15.847-7.109-15.847-15.847s7.109-15.847 15.847-15.847 15.847 7.109 15.847 15.847-7.109 15.847-15.847 15.847zm-135.604-159.294h-39.387l10.119-13.968c1.268-1.75 1.268-4.116 0-5.866l-10.119-13.969h39.387l12.244 16.902zm86.525-11.901h37.384c1.722 32.217 19.978 60.117 46.417 75.343l-16.823 33.381c-38.6-21.439-65.2-61.955-66.978-108.724zm129.891-10h-34.928c2.437-17.099 17.168-30.29 34.928-30.29 19.458 0 35.289 15.831 35.289 35.29 0 19.458-15.831 35.289-35.289 35.289-17.761 0-32.492-13.191-34.928-30.289h34.928c2.761 0 5-2.239 5-5s-2.239-5-5-5zm0 50.289c24.973 0 45.289-20.317 45.289-45.289 0-24.973-20.316-45.29-45.289-45.29-23.282 0-42.51 17.662-45.007 40.29h-37.471c2.595-43.249 38.588-77.643 82.478-77.643 45.57 0 82.643 37.073 82.643 82.643 0 45.569-37.073 82.643-82.643 82.643-11.594 0-22.632-2.41-32.655-6.739l16.863-33.46c4.92 1.836 10.24 2.845 15.792 2.845zm-45.007-40.289c1.52 13.771 9.238 25.694 20.295 32.924l-16.861 33.456c-23.184-13.555-39.206-38.061-40.905-66.38zm45.007 124.997c-19.253 0-37.539-4.212-53.992-11.755l16.828-33.389c11.383 5.005 23.954 7.791 37.165 7.791 51.083 0 92.643-41.56 92.643-92.643s-41.56-92.643-92.643-92.643c-49.406 0-89.9 38.876-92.507 87.643h-37.385c2.638-69.373 59.885-124.998 129.891-124.998 71.681 0 129.997 58.316 129.997 129.997 0 71.68-58.316 129.997-129.997 129.997zm-219.273 123.901h-46.326c-2.761 0-5 2.239-5 5v56.105c0 2.761 2.239 5 5 5h46.326c2.761 0 5-2.239 5-5v-56.105c0-2.761-2.239-5-5-5zm-5 56.105h-36.326v-46.105h36.326zm85.812-97.809h-46.326c-2.761 0-5 2.239-5 5v97.809c0 2.761 2.239 5 5 5h46.326c2.761 0 5-2.239 5-5v-97.809c0-2.761-2.239-5-5-5zm-5 97.809h-36.326v-87.809h36.326zm85.812-73.617h-46.326c-2.761 0-5 2.239-5 5v73.617c0 2.761 2.239 5 5 5h46.326c2.761 0 5-2.239 5-5v-73.617c0-2.761-2.239-5-5-5zm-5 73.617h-36.326v-63.617h36.326zm85.812-143.091h-46.326c-2.761 0-5 2.239-5 5v143.091c0 2.761 2.239 5 5 5h46.326c2.761 0 5-2.239 5-5v-143.091c0-2.762-2.239-5-5-5zm-5 143.091h-36.326v-133.091h36.326z" fill="#fb9c2a" fill-opacity="1" data-original-color="#000000ff" stroke="none" stroke-opacity="1"/></g></svg>