<svg id="Bahan_copy" viewBox="0 0 64 64" xmlns="http://www.w3.org/2000/svg" data-name="Bahan copy" width="300" height="300" version="1.1" xmlns:xlink="http://www.w3.org/1999/xlink" xmlns:svgjs="http://svgjs.dev/svgjs"><g transform="matrix(1,0,0,1,0,0)"><g fill="rgb(0,0,0)"><path d="m28.41406 28.25146a.99964.99964 0 0 0 -1.41406 0l-2.501 2.50147a1.7582 1.7582 0 0 0 -.001 2.48877l2.502 2.50195a.99989.99989 0 0 0 1.41406-1.41406l-2.332-2.332 2.332-2.332a.99964.99964 0 0 0 0-1.41413z" fill="#fb9c2a" fill-opacity="1" data-original-color="#000000ff" stroke="none" stroke-opacity="1"/><path d="m35.58594 28.25146a.99964.99964 0 0 0 0 1.41407l2.332 2.332-2.332 2.332a.99989.99989 0 0 0 1.41406 1.41412l2.501-2.50146a1.7582 1.7582 0 0 0 .001-2.48877l-2.502-2.50196a.99964.99964 0 0 0 -1.41406 0z" fill="#fb9c2a" fill-opacity="1" data-original-color="#000000ff" stroke="none" stroke-opacity="1"/><path d="m33.5625 28.03271a1.002 1.002 0 0 0 -1.29688.56446l-2.39257 6.07812a1.00012 1.00012 0 1 0 1.86132.73242l2.39263-6.07812a1.00074 1.00074 0 0 0 -.5645-1.29688z" fill="#fb9c2a" fill-opacity="1" data-original-color="#000000ff" stroke="none" stroke-opacity="1"/><path d="m49.75488 40.78662 1.03321-2.50537a2.81 2.81 0 0 0 -1.52539-3.66357l-1.38477-.57129a.78292.78292 0 0 1 -.49219-.78662 15.33365 15.33365 0 0 0 .00488-2.57618c-.08155-.85656 1.18907-.99668 1.86328-1.35648a2.78888 2.78888 0 0 0 1.51661-1.521c.72109-1.37125-.60331-3.38706-1.044-4.64993a2.811 2.811 0 0 0 -3.66987-1.51218l-1.38086.5752a.80865.80865 0 0 1 -.92773-.23389 15.46618 15.46618 0 0 0 -1.77246-1.773.80476.80476 0 0 1 -.2334-.92236l.56933-1.38135a2.81 2.81 0 0 0 -1.52539-3.66357l-2.5039-1.03272a2.82113 2.82113 0 0 0 -3.665 1.52445l-.5713 1.38571a.78025.78025 0 0 1 -.78613.49121 15.49176 15.49176 0 0 0 -2.57618-.00439c-.85187.09166-1.00216-1.20243-1.35648-1.86377a2.81064 2.81064 0 0 0 -3.66988-1.51319l-2.5 1.041a2.81838 2.81838 0 0 0 -1.51267 3.669l.57419 1.38231a.80795.80795 0 0 1 -.2334.92627 15.44646 15.44646 0 0 0 -1.77344 1.77441.80646.80646 0 0 1 -.92187.2334l-1.38086-.56934a2.81968 2.81968 0 0 0 -3.664 1.52445l-1.03322 2.50485a2.81 2.81 0 0 0 1.52539 3.66357l1.38477.57129a.78292.78292 0 0 1 .49219.78662 15.33365 15.33365 0 0 0 -.00488 2.57618c.082.856-1.1895.99705-1.86328 1.35648a2.78888 2.78888 0 0 0 -1.51661 1.521c-.721 1.37062.60328 3.38749 1.044 4.64993a2.8112 2.8112 0 0 0 3.66979 1.51225l1.38086-.5752a.80423.80423 0 0 1 .92773.23389 15.46618 15.46618 0 0 0 1.77246 1.77295.80476.80476 0 0 1 .2334.92236l-.56933 1.38135a2.81 2.81 0 0 0 1.52539 3.66357c1.27112.438 3.27692 1.75278 4.65231 1.02926 1.20539-.39761 1.66433-1.84819 2.08787-2.90675a.783.783 0 0 1 .78618-.49116 15.54482 15.54482 0 0 0 2.57618.00439c.85144-.09319 1.00517 1.21014 1.35648 1.86474a2.81018 2.81018 0 0 0 3.66988 1.51222l2.5-1.041a2.81839 2.81839 0 0 0 1.51267-3.669l-.57419-1.38231a.80795.80795 0 0 1 .2334-.92627 15.44646 15.44646 0 0 0 1.77344-1.77441.80511.80511 0 0 1 .92285-.23291l1.37988.56885a2.81964 2.81964 0 0 0 3.66406-1.52395zm-.8164-3.26758-1.03321 2.50537a.80188.80188 0 0 1 -.43457.43653c-.40865.26088-1.602-.45744-1.99709-.56833-2.21162-.92894-3.3205 1.09389-4.75382 2.33212a2.80017 2.80017 0 0 0 -.78522 3.21863c.07685.30381.84806 1.63482.57617 1.99947a.79992.79992 0 0 1 -.43652.437l-2.5 1.041a.80611.80611 0 0 1 -1.05567-.43457l-.57128-1.37451c-.91981-2.24953-3.12887-1.55939-5.03716-1.71863a2.77374 2.77374 0 0 0 -2.80562 1.72156l-.57129 1.38632a.81077.81077 0 0 1 -1.05273.438l-2.50391-1.0327a.80717.80717 0 0 1 -.43847-1.05273l.56933-1.38086c.92793-2.20875-1.09255-3.31888-2.33118-4.75287a2.80436 2.80436 0 0 0 -3.22058-.78571l-1.38086.5752a.80709.80709 0 0 1 -1.05468-.43408l-1.041-2.50245a.8097.8097 0 0 1 .43458-1.05322l1.375-.57226c2.24915-.91952 1.559-3.13547 1.71765-5.03618a2.77437 2.77437 0 0 0 -1.72158-2.80614l-1.38477-.57131a.807.807 0 0 1 -.43848-1.05273l1.03321-2.50489c.48188-1.05986 1.7196-.07757 2.43263.13182 2.20985.92608 3.32038-1.0942 4.75285-2.33263a2.80015 2.80015 0 0 0 .78522-3.21862l-.5752-1.3833a.80893.80893 0 0 1 .43556-1.05322l2.5-1.041a.80871.80871 0 0 1 1.05567.43506l.57128 1.374c.91733 2.24549 3.13339 1.56111 5.03716 1.71863a2.768 2.768 0 0 0 2.80562-1.72156l.57128-1.38625a.80969.80969 0 0 1 1.05273-.438l2.50391 1.0327c1.05783.491.08671 1.69839-.13084 2.43361-.92788 2.20907 1.09247 3.31865 2.33116 4.75285a2.80233 2.80233 0 0 0 3.22058.78571l1.38086-.5752a.80847.80847 0 0 1 1.05468.43408l1.041 2.50245a.80969.80969 0 0 1 -.43458 1.05322l-1.375.57226a2.77753 2.77753 0 0 0 -1.71387 2.7959 13.40783 13.40783 0 0 1 -.00391 2.24024 2.77466 2.77466 0 0 0 1.72171 2.80618l1.38477.57131a.807.807 0 0 1 .43848 1.05269z" fill="#fb9c2a" fill-opacity="1" data-original-color="#000000ff" stroke="none" stroke-opacity="1"/><path d="m32 20.29736a11.71628 11.71628 0 0 0 -11.70312 11.70264c.643 15.52512 22.76559 15.5206 23.40627-.00009a11.7163 11.7163 0 0 0 -11.70315-11.70255zm0 21.40528a9.71367 9.71367 0 0 1 -9.70312-9.70264c.53277-12.87191 18.87543-12.86817 19.40626.00007a9.71368 9.71368 0 0 1 -9.70314 9.70257z" fill="#fb9c2a" fill-opacity="1" data-original-color="#000000ff" stroke="none" stroke-opacity="1"/><path d="m13.1228 14.18469-.66675 4.47107a1.00037 1.00037 0 0 0 1.97853.29486l.96972-6.50482a1.75384 1.75384 0 0 0 -1.99807-1.9653l-5.916.9736a1.00023 1.00023 0 0 0 .32428 1.97362l3.87659-.63793a27.95949 27.95949 0 0 0 -4.0827 32.93042 1.00034 1.00034 0 0 0 1.7402-.98639 25.95434 25.95434 0 0 1 3.7742-30.54913z" fill="#fb9c2a" fill-opacity="1" data-original-color="#000000ff" stroke="none" stroke-opacity="1"/><path d="m19.26465 9.38232a26.0555 26.0555 0 0 1 30.58252 3.77417l-4.479-.66479a1 1 0 1 0 -.293 1.97851l6.51757.96729a1.825 1.825 0 0 0 1.39355-.40237 1.76068 1.76068 0 0 0 .57226-1.59471l-.97655-5.90575a.99991.99991 0 0 0 -1.97264.32623l.64 3.87018a28.06163 28.06163 0 0 0 -32.96713-4.09094 1.00024 1.00024 0 0 0 .98242 1.74218z" fill="#fb9c2a" fill-opacity="1" data-original-color="#000000ff" stroke="none" stroke-opacity="1"/><path d="m44.73535 54.61768a26.05674 26.05674 0 0 1 -30.58258-3.77424l4.47907.66486a1.00023 1.00023 0 0 0 .2929-1.97852l-6.51751-.96728a1.81845 1.81845 0 0 0 -1.49219.5 1.73826 1.73826 0 0 0 -.47363 1.49707l.97656 5.90576a.99989.99989 0 0 0 1.97264-.32623l-.6367-3.85022a28.0668 28.0668 0 0 0 32.96386 4.071 1.00024 1.00024 0 0 0 -.98242-1.7422z" fill="#fb9c2a" fill-opacity="1" data-original-color="#000000ff" stroke="none" stroke-opacity="1"/><path d="m56.18555 50.57227-3.87665.63794a27.95949 27.95949 0 0 0 4.0827-32.93042 1.00015 1.00015 0 1 0 -1.74023.98632 25.95438 25.95438 0 0 1 -3.77417 30.5492l.66675-4.47107a1.00039 1.00039 0 0 0 -1.97853-.29486l-.96972 6.50482a1.753 1.753 0 0 0 1.99807 1.9653l5.916-.9736a1.00022 1.00022 0 0 0 -.32422-1.97363z" fill="#fb9c2a" fill-opacity="1" data-original-color="#000000ff" stroke="none" stroke-opacity="1"/></g></g></svg>