<svg clip-rule="evenodd" fill-rule="evenodd" height="300" image-rendering="optimizeQuality" shape-rendering="geometricPrecision" text-rendering="geometricPrecision" viewBox="0 0 173.397 173.397" width="300" xmlns="http://www.w3.org/2000/svg" version="1.1" xmlns:xlink="http://www.w3.org/1999/xlink" xmlns:svgjs="http://svgjs.dev/svgjs"><g transform="matrix(1,0,0,1,0,0)"><g id="Layer_x0020_1"><g id="_487794408"><path id="_487794672" d="m80.948 44.917h11.5012l-5.7509-14.9123zm14.0981 3.566h-16.6985c-.5851 0-1.136-.291-1.4702-.7769-.3307-.4829-.4025-1.1019-.192-1.6497l8.3477-21.6508c.2667-.6874.9255-1.1389 1.6652-1.1389.7367-.0001 1.3959.4519 1.6621 1.139l8.348 21.6506c.2131.5477.1389 1.1669-.1924 1.6498-.3306.4858-.8819.7769-1.4699.7769z" fill="#fb9c2a" fill-opacity="1" data-original-color="#000000ff" stroke="none" stroke-opacity="1"/><path id="_487795104" d="m103.45 128.52c-.9847 0-1.7833-.7952-1.7833-1.7825.0005-25.5788 9.2422-35.3716 17.3948-44.0132 6.0266-6.3916 11.2324-11.9071 11.2324-23.1611.0006-24.0401-19.5553-43.5984-43.5953-43.5984-24.0395-.0001-43.5985 19.5583-43.5985 43.5984.0003 11.2539 5.2061 16.7696 11.2324 23.1611 8.156 8.6415 17.3948 18.4347 17.3948 44.0132.0005.9872-.7985 1.7828-1.7829 1.7828-.9842-.0003-1.7828-.7955-1.7828-1.7828.0006-24.1609-8.7252-33.4092-16.4197-41.5681-6.2764-6.6517-12.2074-12.9377-12.2074-25.6062.0003-26.0058 21.1585-47.164 47.1641-47.164 26.006-.0001 47.1609 21.1585 47.1609 47.164.0007 12.6683-5.9273 18.9547-12.2042 25.6062-7.6972 8.1589-16.423 17.4072-16.423 41.5681.0005.9872-.7954 1.7828-1.7823 1.7825z" fill="#fb9c2a" fill-opacity="1" data-original-color="#000000ff" stroke="none" stroke-opacity="1"/><path id="_487795416" d="m78.3476 128.52c-.9841 0-1.7829-.7952-1.7829-1.7825l.0001-80.0377c0-.9876.7985-1.7829 1.7827-1.7829.9876-.0003 1.7828.7955 1.7828 1.7829l.0001 80.0374c0 .9875-.7956 1.7831-1.7828 1.7828zm16.6985 0c-.984 0-1.7831-.7952-1.7831-1.7825l.0003-80.0377c0-.9876.7984-1.7829 1.7825-1.7829.9843-.0003 1.7829.7955 1.7829 1.7829l.0002 80.0374c0 .9875-.7988 1.7831-1.7828 1.7828z" fill="#fb9c2a" fill-opacity="1" data-original-color="#000000ff" stroke="none" stroke-opacity="1"/><path id="_487795128" d="m61.9311 140.57h49.5315v-12.0496h-49.5315zm51.3143 3.5656h-53.0971c-.984 0-1.7831-.7985-1.7831-1.7827l.0002-15.6153c0-.9841.7984-1.7826 1.7826-1.7826l53.0974-.0002c.9875 0 1.7828.7987 1.7828 1.7831v15.6149c0 .9841-.7955 1.7829-1.7828 1.7828z" fill="#fb9c2a" fill-opacity="1" data-original-color="#000000ff" stroke="none" stroke-opacity="1"/><path id="_487794720" d="m86.6983 79.7873c-3.1694 0-6.308-.6561-9.0782-1.8942-.8972-.3994-1.2999-1.4547-.8975-2.3524.3993-.9006 1.4547-1.3029 2.3523-.9006 2.3153 1.0335 4.9522 1.5816 7.6234 1.5816 2.6714 0 5.305-.5478 7.6203-1.5816.8981-.4025 1.9529 0 2.3553.8977.4029.9005 0 1.956-.9007 2.3553-2.7669 1.2378-5.9055 1.8943-9.0749 1.8942z" fill="#fb9c2a" fill-opacity="1" data-original-color="#000000ff" stroke="none" stroke-opacity="1"/><path id="_487794984" d="m95.0461 67.425c-.2445 0-.4923-.0523-.7275-.1576-2.3151-1.034-4.9492-1.5816-7.6203-1.5816-2.6708-.0001-5.3082.5479-7.6234 1.5816-.8973.4024-1.953 0-2.3523-.9006-.4023-.8977 0-1.9531.8975-2.3524 2.7708-1.2383 5.9087-1.8942 9.0782-1.8942 3.1665-.0001 6.3048.6562 9.0749 1.8942.8977.3993 1.3031 1.4548.9007 2.3554-.2969.6624-.9471 1.0555-1.6278 1.0552z" fill="#fb9c2a" fill-opacity="1" data-original-color="#000000ff" stroke="none" stroke-opacity="1"/><path id="_487794936" d="m86.6983 111.318c-3.1694 0-6.308-.6561-9.0782-1.8942-.8972-.4026-1.2999-1.4547-.8975-2.3554.3993-.8977 1.4547-1.2999 2.3523-.8976 2.3153 1.0335 4.9522 1.5816 7.6234 1.5816 2.6714 0 5.305-.5479 7.6203-1.5816.8981-.4025 1.9529 0 2.3553.8976.4029.9005 0 1.9531-.9007 2.3554-2.7669 1.2377-5.9055 1.8943-9.0749 1.8942z" fill="#fb9c2a" fill-opacity="1" data-original-color="#000000ff" stroke="none" stroke-opacity="1"/><path id="_487795056" d="m95.0461 98.9525c-.2445 0-.4923-.0494-.7275-.1547-2.3151-1.034-4.9492-1.5816-7.6203-1.5816-2.6708-.0002-5.3082.5478-7.6234 1.5816-.8973.4023-1.953 0-2.3555-.9007-.3991-.8976.0032-1.953.9007-2.3555 2.7708-1.238 5.9087-1.891 9.0782-1.891 3.17-.0002 6.3079.653 9.0749 1.891.9011.4024 1.3031 1.458.9007 2.3555-.2969.6623-.9471 1.0555-1.6278 1.0554z" fill="#fb9c2a" fill-opacity="1" data-original-color="#000000ff" stroke="none" stroke-opacity="1"/><path id="_487795224" d="m86.6983 160.998c-10.2819 0-18.6452-8.3628-18.6452-18.6449.0001-.9844.7985-1.7828 1.7828-1.7828.9842-.0001 1.7828.7986 1.7828 1.7828.0002 8.3133 6.766 15.0796 15.0796 15.0796 8.3136-.0003 15.0764-6.766 15.0764-15.0796.0001-.9844.7987-1.7828 1.7828-1.7828.9849-.0001 1.7828.7986 1.7828 1.7828.0001 10.282-8.3631 18.6452-18.642 18.6449z" fill="#fb9c2a" fill-opacity="1" data-original-color="#000000ff" stroke="none" stroke-opacity="1"/><path id="_487794360" d="m140.576 105.022c-3.6491 0-6.621 2.9714-6.621 6.6206.0002 3.6522 2.9715 6.6236 6.6207 6.6236 3.6523-.0002 6.6237-2.9712 6.6237-6.6236.0002-3.6494-2.9714-6.6205-6.6234-6.6206zm0 16.8096c-5.6144 0-10.1866-4.5713-10.1866-10.189.0002-5.6147 4.5716-10.1861 10.1863-10.1861 5.6183-.0001 10.1893 4.5715 10.1893 10.1861.0002 5.6174-4.5716 10.1893-10.189 10.189z" fill="#fb9c2a" fill-opacity="1" data-original-color="#000000ff" stroke="none" stroke-opacity="1"/><path id="_487794576" d="m134.912 94.8141h.0027zm1.7828 37.2382h7.7656v-3.5782c0-.7678.4886-1.4453 1.2128-1.6899.6842-.2323 1.3587-.5106 2.0025-.8325.6874-.3406 1.5136-.2043 2.0553.3373l2.532 2.5316 5.4912-5.4906-2.5321-2.5317c-.5419-.5419-.6782-1.3682-.3377-2.0553.3223-.6441.6004-1.3186.8326-2.0026.2446-.7244.9224-1.2133 1.69-1.2133h3.5786v-7.7657h-3.5817c-.7639 0-1.4455-.489-1.6869-1.2133-.2317-.684-.5107-1.3557-.8326-2.0026-.3399-.6871-.2044-1.5135.3373-2.0552l2.5325-2.5318-5.4912-5.4908-2.5314 2.5318c-.5419.5414-1.3687.6778-2.0559.3374-.6462-.3222-1.3185-.6005-2.0025-.8326-.7239-.2448-1.2133-.9224-1.2133-1.69l.0005-3.578h-7.7656v3.5778c0 .7678-.4898 1.4488-1.217 1.6902-.6773.2287-1.3495.5076-1.9995.8326-.6869.3402-1.5136.2043-2.0552-.3373l-2.5316-2.5319-5.4905 5.4908 2.5314 2.5318c.5418.5414.6777 1.3712.3372 2.0552-.3219.6468-.6036 1.3217-.8326 2.0026-.2442.7241-.9223 1.2133-1.6899 1.2133h-3.5775v7.7657h3.5775c.7681 0 1.4455.4891 1.6899 1.2133.2322.684.5107 1.3588.8296 2.0026.3442.6871.2074 1.5136-.3343 2.0553l-2.5313 2.5317 5.4905 5.4906 2.5321-2.5319c.5411-.5414 1.3675-.6776 2.0547-.334.6439.3187 1.3185.5974 2.0026.8295.7242.2445 1.2133.9224 1.2133 1.69zm9.5485 3.5656h-11.3313c-.9848 0-1.7835-.7986-1.7835-1.7828l.0007-4.1259c-.0189-.0094-.0379-.0155-.0594-.0248l-2.9185 2.9187c-.6937.6964-1.8234.6965-2.5198.0001l-8.0128-8.0138c-.3342-.3342-.5205-.7858-.5205-1.2594.0004-.4735.1857-.9285.52-1.2628l2.9192-2.9157c-.0097-.0219-.016-.0402-.0254-.0588h-4.1252c-.9847 0-1.7833-.7985-1.7833-1.7828l.0005-11.3313c0-.9844.798-1.7828 1.7823-1.7828h4.126c.0091-.0188.0153-.0372.0246-.0588l-2.9182-2.9159c-.3342-.3343-.5205-.7891-.5205-1.2626.0004-.4708.1857-.9255.52-1.2597l8.0135-8.0137c.6963-.6933 1.8259-.6961 2.5192.0003l2.919 2.9187c.0216-.0063.04-.0154.0586-.0248l.0007-4.1258c0-.9844.7979-1.7828 1.7822-1.7828h11.3319c.9839 0 1.7822.7986 1.7822 1.7828l.0006 4.1258c.018.0092.0366.0186.0582.0249l2.9161-2.9191c.3343-.334.7889-.5197 1.2624-.5197.471-.0002.9254.1857 1.2596.52l8.014 8.0133c.6964.6964.6959 1.8262-.0005 2.5227l-2.9182 2.9156c.0063.0215.015.0402.0242.0588h4.1265c.984 0 1.7822.7985 1.7822 1.7828l.0006 11.3313c0 .984-.7992 1.7828-1.7834 1.7828h-4.1257c-.009.0185-.0187.0403-.0249.0588l2.9192 2.9156c.3343.3343.5194.7894.5194 1.2629.0001.4736-.1857.9254-.5199 1.2598l-8.0131 8.0133c-.6964.6964-1.8264.6965-2.5228.0001l-2.9182-2.9191c-.0189.0063-.0377.0158-.0563.0251l.0006 4.1259c0 .9839-.7991 1.7828-1.7828 1.7828z" fill="#fb9c2a" fill-opacity="1" data-original-color="#000000ff" stroke="none" stroke-opacity="1"/><path id="_487794288" d="m32.8183 105.022c-3.6526 0-6.6211 2.9714-6.6211 6.6206.0003 3.6522 2.9683 6.6236 6.6205 6.6236 3.6526-.0002 6.6206-2.9712 6.6206-6.6236.0001-3.6494-2.9683-6.6205-6.62-6.6206zm0 16.8096c-5.6179 0-10.1867-4.5713-10.1867-10.189.0003-5.6147 4.5684-10.1861 10.1861-10.1861 5.6179-.0001 10.1863 4.5715 10.1863 10.1861 0 5.6174-4.5685 10.1893-10.1857 10.189z" fill="#fb9c2a" fill-opacity="1" data-original-color="#000000ff" stroke="none" stroke-opacity="1"/><path id="_487794552" d="m27.151 94.8141h.0027zm1.7828 37.2382h7.7657v-3.5782c0-.7678.4887-1.4453 1.216-1.6899.6844-.2323 1.3557-.5106 2.0026-.8325.684-.3406 1.5104-.2043 2.0521.3373l2.5318 2.5316 5.4912-5.4906-2.5321-2.5317c-.5418-.5419-.6749-1.3682-.3345-2.0553.3219-.6441.6006-1.3186.8296-2.0026.2451-.7244.9254-1.2133 1.69-1.2133h3.5784v-7.7657h-3.5782c-.7647 0-1.4457-.489-1.6902-1.2133-.2284-.684-.5077-1.3557-.8296-2.0026-.3404-.6871-.2073-1.5135.3343-2.0552l2.5323-2.5318-5.4912-5.4908-2.5314 2.5318c-.5419.5414-1.3685.6778-2.0525.3374-.6468-.3222-1.3217-.6005-2.0026-.8326-.7272-.2416-1.2164-.9224-1.2164-1.69l.0004-3.578h-7.7657v3.5778c0 .7678-.4895 1.4488-1.2138 1.6902-.6777.2287-1.3525.5076-2.0026.8326-.6835.3402-1.5103.2043-2.052-.3373l-2.5314-2.5319-5.4913 5.4908 2.5322 2.5318c.5419.5414.6744 1.3712.3339 2.0552-.3214.6468-.6004 1.3217-.8294 2.0026-.244.7241-.9255 1.2133-1.69 1.2133h-3.578v7.7657h3.5781c.7648 0 1.4453.4891 1.6899 1.2133.2295.684.5075 1.3557.8294 2.0026.341.6871.2074 1.5136-.3343 2.0553l-2.5318 2.5317 5.4913 5.4906 2.5314-2.5319c.539-.5414 1.3681-.6776 2.052-.334.6473.3187 1.3186.5974 2.0026.8295.7276.2445 1.2134.9224 1.2134 1.69zm9.5485 3.5656h-11.3313c-.9848 0-1.7833-.7986-1.7833-1.7828l.0005-4.1259c-.0189-.0094-.0377-.0155-.0562-.0248l-2.9182 2.9187c-.6964.6964-1.8267.6965-2.523.0001l-8.0102-8.0138c-.6965-.6963-.6967-1.8258-.0002-2.5222l2.9188-2.9157c-.009-.0219-.0186-.0402-.0248-.0588h-4.1286c-.984 0-1.7801-.7985-1.7801-1.7828l.0001-11.3313c0-.9844.7954-1.7828 1.7797-1.7828h4.1293c.0063-.0188.0151-.0372.0243-.0588l-2.9185-2.9159c-.6965-.6964-.6967-1.8259-.0002-2.5223l8.011-8.0137c.3335-.334.7886-.5197 1.2622-.5197l.0004-.0002c.4735 0 .925.1859 1.2593.5202l2.9192 2.9187c.018-.0063.0366-.0154.0552-.0248l.0005-4.1258c0-.9844.798-1.7828 1.7823-1.7828h11.3318c.9874 0 1.7824.7986 1.7824 1.7828l.0004 4.1258c.0216.0092.0398.0186.0583.0249l2.9195-2.9191c.3336-.334.7855-.5197 1.259-.5197.4737-.0002.9254.1857 1.2597.52l8.0138 8.0133c.6965.6964.6961 1.8262-.0003 2.5227l-2.9183 2.9156c.009.0215.015.0402.0243.0588h4.1263c.9875 0 1.7824.7985 1.7824 1.7828l.0004 11.3313c0 .984-.7959 1.7828-1.7832 1.7828h-4.1259c-.0062.0185-.0155.0372-.0248.0588l2.9191 2.9156c.3343.3343.5227.7894.5227 1.2629.0003.4736-.1888.9254-.523 1.2598l-8.0133 8.0133c-.6929.6964-1.8231.6965-2.5195.0001l-2.9188-2.9191c-.0181.0093-.0371.0158-.0588.0251l.0004 4.1259c0 .9839-.7959 1.7828-1.7828 1.7828z" fill="#fb9c2a" fill-opacity="1" data-original-color="#000000ff" stroke="none" stroke-opacity="1"/><path id="_487794168" d="m140.712 77.9889c-.399 0-.8016-.1329-1.1327-.4084-.7615-.6286-.8667-1.7518-.2415-2.5101l8.862-10.725c1.2069-1.4607 1.4108-3.3426.5504-5.0295l-8.6134-16.8997c-.4457-.8757-.0995-1.9497.7796-2.3985.8765-.4461 1.9499-.096 2.3956.7799l8.6171 16.8996c1.5042 2.9496 1.1264 6.3668-.9813 8.9203l-8.861 10.7247c-.3497.4269-.861.6469-1.3748.6467z" fill="#fb9c2a" fill-opacity="1" data-original-color="#000000ff" stroke="none" stroke-opacity="1"/><path id="_487794144" d="m32.6818 77.9889c-.5139 0-1.0217-.2196-1.3745-.6467l-8.8578-10.7251c-2.1108-2.5534-2.4859-5.9702-.9817-8.9199l8.6144-16.8999c.4457-.8757 1.5191-1.2254 2.3982-.7796.8763.4485 1.2257 1.5228.7769 2.3987l-8.6134 16.8995c-.8608 1.6868-.6536 3.5688.5536 5.0297l8.8584 10.7246c.6289.7584.5199 1.882-.2385 2.5103-.334.2753-.7366.4086-1.1356.4084z" fill="#fb9c2a" fill-opacity="1" data-original-color="#000000ff" stroke="none" stroke-opacity="1"/></g></g></g></svg>