<svg id="Layer_3" enable-background="new 0 0 64 64" height="300" viewBox="0 0 64 64" width="300" xmlns="http://www.w3.org/2000/svg" version="1.1" xmlns:xlink="http://www.w3.org/1999/xlink" xmlns:svgjs="http://svgjs.dev/svgjs"><g transform="matrix(1,0,0,1,0,0)"><g><path d="m58 1h-52c-2.757 0-5 2.243-5 5v52c0 2.757 2.243 5 5 5h52c2.757 0 5-2.243 5-5v-52c0-2.757-2.243-5-5-5zm-52 2h52c1.654 0 3 1.346 3 3v3h-58v-3c0-1.654 1.346-3 3-3zm52 58h-52c-1.654 0-3-1.346-3-3v-47h58v47c0 1.654-1.346 3-3 3z" fill="#fb9c2a" fill-opacity="1" data-original-color="#000000ff" stroke="none" stroke-opacity="1"/><path d="m5 5h2v2h-2z" fill="#fb9c2a" fill-opacity="1" data-original-color="#000000ff" stroke="none" stroke-opacity="1"/><path d="m9 5h2v2h-2z" fill="#fb9c2a" fill-opacity="1" data-original-color="#000000ff" stroke="none" stroke-opacity="1"/><path d="m13 5h2v2h-2z" fill="#fb9c2a" fill-opacity="1" data-original-color="#000000ff" stroke="none" stroke-opacity="1"/><path d="m53.383 40.076c-.375-.157-.804-.07-1.09.217l-13 13c-.302.302-.379.763-.191 1.146.188.384.603.604 1.022.553l7.458-.932 4.65 5.58c.194.233.477.36.768.36.114 0 .229-.02.34-.06.396-.143.66-.519.66-.94v-18c0-.404-.244-.77-.617-.924zm-1.383 16.162-3.232-3.879c-.191-.229-.473-.359-.768-.359-.041 0-.083.003-.124.008l-5.108.639 9.232-9.233z" fill="#fb9c2a" fill-opacity="1" data-original-color="#000000ff" stroke="none" stroke-opacity="1"/><path d="m58 13h-32c-.552 0-1 .448-1 1v15h-19c-.552 0-1 .448-1 1v20c0 .553.448 1 1 1h32c.552 0 1-.447 1-1v-15h19c.552 0 1-.447 1-1v-20c0-.552-.448-1-1-1zm-10.712 8.874 9.712-6.07v15.782zm-17.801-6.874h25.026l-12.513 7.821zm-2.487.804 9.712 6.07-7.126 7.126h-2.586zm-10.288 22.07-9.712 9.712v-15.782zm1.74 1.088 3.018 1.886c.162.101.346.152.53.152s.368-.051.53-.152l3.018-1.886 10.038 10.038h-27.172zm8.836-1.088 9.712-6.07v15.782zm-5.288.946-12.513-7.82h25.026zm16-9.82h-5.586l6.038-6.038 3.018 1.886c.162.101.346.152.53.152s.368-.051.53-.152l3.018-1.886 10.038 10.038h-16.586v-3c0-.552-.448-1-1-1z" fill="#fb9c2a" fill-opacity="1" data-original-color="#000000ff" stroke="none" stroke-opacity="1"/><path d="m15 25h8v2h-8z" fill="#fb9c2a" fill-opacity="1" data-original-color="#000000ff" stroke="none" stroke-opacity="1"/><path d="m11 21h8v2h-8z" fill="#fb9c2a" fill-opacity="1" data-original-color="#000000ff" stroke="none" stroke-opacity="1"/></g></g></svg>