<svg id="Layer_1" height="300" viewBox="0 0 512 512" width="300" xmlns="http://www.w3.org/2000/svg" data-name="Layer 1" version="1.1" xmlns:xlink="http://www.w3.org/1999/xlink" xmlns:svgjs="http://svgjs.dev/svgjs"><g transform="matrix(1,0,0,1,0,0)"><path d="m505.67 224.57a4.91 4.91 0 0 0 -4.57-3.14h-56.32a116 116 0 0 1 2.64-54.73c12.09-40.31 43.26-61.58 56.09-68.85a4.9 4.9 0 0 0 -2.41-9.17h-9.92a115.49 115.49 0 0 0 -115.37 115.37v16.41h-53.87a4.91 4.91 0 0 0 -3.31 8.52l89.57 82.36a4.92 4.92 0 0 0 6.62 0l89.57-81.34a4.89 4.89 0 0 0 1.28-5.43zm-94.13 76.52-77-70.82h46.19a4.9 4.9 0 0 0 4.9-4.9v-21.32a105.7 105.7 0 0 1 98.82-105.35c-15.85 11.93-36.74 32.91-46.42 65.18a126.09 126.09 0 0 0 -2 63.53 4.91 4.91 0 0 0 4.79 3.83h47.62z" fill="#fb9c2a" fill-opacity="1" data-original-color="#000000ff" stroke="none" stroke-opacity="1"/><path d="m194.62 228a4.9 4.9 0 0 0 -1.24-5.39l-89.58-82.34a4.9 4.9 0 0 0 -6.62 0l-89.57 81.38a4.9 4.9 0 0 0 3.29 8.53h56.32a116 116 0 0 1 -2.64 54.73c-12.09 40.31-43.25 61.58-56.09 68.85a4.9 4.9 0 0 0 2.41 9.17h9.92a115.49 115.49 0 0 0 115.37-115.37v-16.42h53.87a4.88 4.88 0 0 0 4.56-3.14zm-63.33-6.68a4.9 4.9 0 0 0 -4.9 4.9v21.32a105.71 105.71 0 0 1 -98.84 105.38c15.85-11.92 36.74-32.92 46.45-65.19a126.09 126.09 0 0 0 2-63.53 4.91 4.91 0 0 0 -4.79-3.83h-47.62l76.87-69.85 77 70.82z" fill="#fb9c2a" fill-opacity="1" data-original-color="#000000ff" stroke="none" stroke-opacity="1"/><path d="m256 232.56a93.32 93.32 0 1 0 -93.31-93.32 93.42 93.42 0 0 0 93.31 93.32zm0-176.83a83.51 83.51 0 1 1 -83.51 83.51 83.61 83.61 0 0 1 83.51-83.51z" fill="#fb9c2a" fill-opacity="1" data-original-color="#000000ff" stroke="none" stroke-opacity="1"/><path d="m249.49 191.42h1.61v17.71h9.8v-17.71h1.61a17.31 17.31 0 0 0 17.29-17.29v-24.46a17.31 17.31 0 0 0 -17.29-17.29h-13a7.48 7.48 0 0 1 -7.51-7.48v-19.69a7.48 7.48 0 0 1 7.48-7.48h11.12a7.49 7.49 0 0 1 7.48 7.48h9.8a17.29 17.29 0 0 0 -17-17.27v-18.59h-9.8v18.57h-1.61a17.31 17.31 0 0 0 -17.29 17.29v19.69a17.31 17.31 0 0 0 17.29 17.29h13a7.49 7.49 0 0 1 7.48 7.48v24.46a7.49 7.49 0 0 1 -7.48 7.48h-13a7.49 7.49 0 0 1 -7.48-7.48v-6.35h-9.79v6.35a17.31 17.31 0 0 0 17.29 17.29z" fill="#fb9c2a" fill-opacity="1" data-original-color="#000000ff" stroke="none" stroke-opacity="1"/><path d="m256 243.77c-41 0-84.63 12.47-84.63 35.58v151.16c0 23.1 43.6 35.56 84.63 35.56s84.61-12.46 84.61-35.56v-151.16c.01-23.11-43.61-35.58-84.61-35.58zm74.81 186.74c0 5.84-7.56 12.24-20.21 17.1-14.51 5.58-33.9 8.66-54.6 8.66s-40.11-3.08-54.62-8.66c-12.65-4.86-20.21-11.26-20.21-17.1v-33.22c6.47 5.14 16 9.51 28.09 12.76l.64.16a185.25 185.25 0 0 0 46.1 5.46 185.14 185.14 0 0 0 46.07-5.46l.65-.16c12.11-3.25 21.62-7.62 28.09-12.76zm0-50.4c0 7.37-11.76 15.3-30 20.3l-.62.17a175.1 175.1 0 0 1 -44.19 5.29 175.21 175.21 0 0 1 -44.2-5.29l-.39-.11c-18.38-5-30.24-13-30.24-20.36v-33.21c6.47 5.14 16 9.52 28.09 12.76l.64.17a185.72 185.72 0 0 0 46.1 5.46 185.61 185.61 0 0 0 46.07-5.46l.65-.17c12.11-3.24 21.62-7.62 28.09-12.76zm0-50.38c0 7.36-11.76 15.3-30 20.3l-.62.16a175.1 175.1 0 0 1 -44.19 5.29 175.15 175.15 0 0 1 -44.2-5.29l-.39-.1c-18.38-5-30.24-13-30.24-20.36v-33.22c6.47 5.15 16 9.53 28.11 12.77 13.82 3.68 30 5.62 46.72 5.62a184.92 184.92 0 0 0 46.71-5.62c12.11-3.25 21.63-7.62 28.1-12.77zm-30.63-29.92a175.1 175.1 0 0 1 -44.18 5.29 175.07 175.07 0 0 1 -44.19-5.29c-18.61-5-30.64-13-30.64-20.46 0-12.19 30.73-25.77 74.83-25.77s74.81 13.58 74.81 25.77c.01 7.44-12.02 15.48-30.62 20.46z" fill="#fb9c2a" fill-opacity="1" data-original-color="#000000ff" stroke="none" stroke-opacity="1"/></g></svg>