<svg id="_x31_" enable-background="new 0 0 24 24" viewBox="0 0 24 24" xmlns="http://www.w3.org/2000/svg" width="300" height="300" version="1.1" xmlns:xlink="http://www.w3.org/1999/xlink" xmlns:svgjs="http://svgjs.dev/svgjs"><g transform="matrix(1,0,0,1,0,0)"><g><path d="m21.5 23h-19c-1.379 0-2.5-1.121-2.5-2.5v-17c0-1.379 1.121-2.5 2.5-2.5h19c1.379 0 2.5 1.121 2.5 2.5v17c0 1.379-1.121 2.5-2.5 2.5zm-19-21c-.827 0-1.5.673-1.5 1.5v17c0 .827.673 1.5 1.5 1.5h19c.827 0 1.5-.673 1.5-1.5v-17c0-.827-.673-1.5-1.5-1.5z" fill="#fb9c2a" fill-opacity="1" data-original-color="#000000ff" stroke="none" stroke-opacity="1"/></g><g><path d="m23.5 6h-23c-.276 0-.5-.224-.5-.5s.224-.5.5-.5h23c.276 0 .5.224.5.5s-.224.5-.5.5z" fill="#fb9c2a" fill-opacity="1" data-original-color="#000000ff" stroke="none" stroke-opacity="1"/></g><g><path d="m17.5 18.574c-.045 0-.09-.006-.135-.019l-11-3.074c-.216-.06-.365-.256-.365-.481v-2c0-.226.151-.423.368-.482l11-3c.152-.039.312-.01.436.085.124.094.196.241.196.397v8.074c0 .156-.073.304-.197.398-.089.067-.195.102-.303.102zm-10.5-3.954 10 2.795v-6.761l-10 2.728z" fill="#fb9c2a" fill-opacity="1" data-original-color="#000000ff" stroke="none" stroke-opacity="1"/></g><g><path d="m17.5 19c-.276 0-.5-.224-.5-.5v-9c0-.276.224-.5.5-.5s.5.224.5.5v9c0 .276-.224.5-.5.5z" fill="#fb9c2a" fill-opacity="1" data-original-color="#000000ff" stroke="none" stroke-opacity="1"/></g><g><path d="m6.5 16c-.276 0-.5-.224-.5-.5v-3c0-.276.224-.5.5-.5s.5.224.5.5v3c0 .276-.224.5-.5.5z" fill="#fb9c2a" fill-opacity="1" data-original-color="#000000ff" stroke="none" stroke-opacity="1"/></g><g><path d="m10 19.05c-1.103 0-2-.897-2-2 0-.718.382-1.376.997-1.718.239-.13.545-.048.681.194.134.242.047.546-.194.681-.303.168-.484.482-.484.843 0 .552.448 1 1 1s1-.448 1-1c0-.176-.037-.321-.115-.445-.146-.234-.074-.543.16-.689.232-.143.542-.075.689.16.176.282.266.611.266.974 0 1.102-.897 2-2 2z" fill="#fb9c2a" fill-opacity="1" data-original-color="#000000ff" stroke="none" stroke-opacity="1"/></g></g></svg>