<svg clip-rule="evenodd" fill-rule="evenodd" height="300" image-rendering="optimizeQuality" shape-rendering="geometricPrecision" text-rendering="geometricPrecision" viewBox="0 0 173.397 173.397" width="300" xmlns="http://www.w3.org/2000/svg" version="1.1" xmlns:xlink="http://www.w3.org/1999/xlink" xmlns:svgjs="http://svgjs.dev/svgjs"><g transform="matrix(1,0,0,1,0,0)"><g id="Layer_x0020_1"><g id="_496454976"><path id="_496456416" d="m155.739 130.905h-138.077c-4.3903 0-7.9607-3.5697-7.9607-7.9585l.0001-90.4774c0-4.3882 3.5701-7.9583 7.9602-7.9583l75.2529-.0001c.9836 0 1.7814.7977 1.7814 1.782.0006.9835-.7982 1.7821-1.782 1.7821l-75.2519-.0001c-2.426 0-4.3968 1.9716-4.3968 4.3949l.0002 90.4763c0 2.4238 1.9706 4.3956 4.3962 4.3956l138.077-.0005c2.4225 0 4.3928-1.9708 4.3928-4.3945l.0003-90.4774c0-2.4231-1.971-4.3943-4.3935-4.3943l-10.7472-.0001c-.9871 0-1.7825-.7979-1.7825-1.782.0005-.9843.7952-1.7819 1.782-1.7819l10.7481-.0001c4.3868 0 7.9568 3.5704 7.9568 7.9589l.0003 90.4763c0 4.3888-3.5705 7.9596-7.9571 7.9591z" fill="#fb9c2a" fill-opacity="1" data-original-color="#000000ff" stroke="none" stroke-opacity="1"/><path id="_496455744" d="m69.621 149.111c-.9835 0-1.7821-.7976-1.7821-1.7817l.0001-18.2059c0-.985.7982-1.7819 1.7819-1.7819.9844-.0001 1.782.7976 1.782 1.782l.0001 18.2055c0 .9844-.7983 1.7823-1.782 1.782zm34.1553 0c-.9836 0-1.7823-.7976-1.7823-1.7817l.0003-18.2059c0-.985.7978-1.7819 1.7817-1.7819.9873-.0001 1.782.7976 1.782 1.782l.0003 18.2055c0 .9844-.7955 1.7823-1.782 1.782z" fill="#fb9c2a" fill-opacity="1" data-original-color="#000000ff" stroke="none" stroke-opacity="1"/><path id="_496455336" d="m58.5608 160.952h56.2785c-.662-3.7026-3.3785-7.1787-7.8118-9.9371-5.4014-3.3611-12.6226-5.2121-20.3291-5.2121-7.7058-.0006-14.9242 1.8514-20.329 5.2121-4.4332 2.7583-7.1466 6.2351-7.8086 9.9371zm58.2185 3.564h-60.1577c-.9872 0-1.7826-.7979-1.7826-1.782.0006-5.6377 3.4248-10.8736 9.6494-14.7451 5.9589-3.7083 13.8476-5.7497 22.21-5.7497 8.3628-.0003 16.2515 2.0418 22.2101 5.7497 6.2245 3.8714 9.6524 9.108 9.6524 14.7451.0004.9836-.7982 1.782-1.7816 1.782z" fill="#fb9c2a" fill-opacity="1" data-original-color="#000000ff" stroke="none" stroke-opacity="1"/><path id="_496455624" d="m103.813 65.6877c.3377 0 .6744.0959.9714.2908 2.704 1.7655 5.6708 2.9951 8.8141 3.6547.8266.1727 1.4169.9009 1.4169 1.744l.0006 4.2863c0 .2067.1758.3815.3799.3815h7.1101c.2067 0 .3799-.1745.3799-.3812l.0001-4.2862c0-.843.5908-1.5705 1.4169-1.7435 3.1467-.6608 6.1132-1.8899 8.814-3.655.709-.4612 1.6398-.3644 2.2368.2321l3.0322 3.0329c.1455.1455.3926.1459.538-.0001l5.028-5.0264c.1448-.1462.1448-.3926-.0006-.5386l-3.0351-3.0338c-.5965-.5965-.6929-1.5289-.2319-2.2348 1.7668-2.7025 2.9947-5.6678 3.6568-8.8142.1733-.8257.9003-1.416 1.7417-1.416l4.2885-.0006c.2068 0 .3801-.1742.3801-.3805v-7.1088c0-.2068-.1733-.3806-.3807-.3806l-4.2846-.0001c-.8443 0-1.5718-.5909-1.745-1.4161-.6621-3.1475-1.8903-6.1129-3.6568-8.8151-.4607-.7059-.362-1.6384.2319-2.2345l3.0357-3.0335c.1448-.1462.1448-.3925-.0006-.5387l-5.0273-5.026c-.1455-.1461-.393-.1461-.5384.0001l-3.0346 3.0336c-.5973.5958-1.5286.6932-2.2341.232-2.7033-1.7655-5.6677-2.9949-8.814-3.6547-.8259-.1734-1.417-.9007-1.417-1.7439l.0001-4.2871c0-.2068-.1734-.3808-.3807-.3808h-7.1093c-.2039 0-.3806.1747-.3806.3812l.0006 4.2862c0 .8436-.5914 1.5715-1.4175 1.7444-3.1433.6592-6.1103 1.8895-8.8141 3.6547-.7054.4606-1.6366.3643-2.2337-.2319l-3.0318-3.0338c-.0926-.0905-.198-.1089-.2723-.1089-.0709-.0003-.1764.0189-.2692.1089l-5.0238 5.0259c-.149.1462-.149.3935-.0004.5397l3.0319 3.0333c.5973.5959.6929 1.5292.232 2.235-1.7634 2.7017-2.9948 5.6673-3.6537 8.814-.173.825-.9003 1.4161-1.7449 1.4161l-4.2843-.0001c-.2074 0-.3842.1749-.3842.3813v7.108c0 .2067.1764.3813.3836.3813l4.2851-.0006c.8444 0 1.5713.5915 1.7447 1.4166.6596 3.1477 1.8903 6.1139 3.6537 8.815.4613.7054.365 1.6386-.2321 2.2346l-3.0314 3.033c-.1455.1462-.1458.3931-.0004.5394l5.0249 5.0252c.1482.1462.3922.1463.5407.0006l3.0323-3.0335c.3431-.3446.8009-.5222 1.2619-.5228zm18.693 13.9213h-7.11c-2.1745 0-3.9446-1.7697-3.9446-3.9452l.0006-2.8766c-2.5895-.6773-5.062-1.7024-7.3792-3.059l-2.0354 2.0357c-1.5377 1.5377-4.0407 1.5382-5.5783.0006l-5.0267-5.0271c-1.5377-1.5383-1.5382-4.0404-.0007-5.5786l2.036-2.0359c-1.3553-2.3159-2.3825-4.7874-3.06-7.3787l-2.8735-.0006c-2.1753 0-3.9482-1.7691-3.9482-3.9445v-7.1088c0-2.1753 1.7726-3.9443 3.9476-3.9443l2.8741-.0004c.678-2.5902 1.7047-5.062 3.0597-7.3781l-2.035-2.0366c-1.5377-1.5383-1.5382-4.0409-.0007-5.5789l5.0279-5.0267c.742-.7435 1.732-1.1525 2.787-1.1525 1.0581-.0003 2.048.4094 2.7906 1.1528l2.0362 2.0357c2.3166-1.3567 4.7885-2.3811 7.378-3.0589l.0006-2.8767c0-2.1753 1.7691-3.9446 3.9439-3.9446l7.1101-.0001c2.1746 0 3.944 1.7698 3.944 3.9451v2.8759c2.5895.678 5.0613 1.7031 7.3785 3.0599l2.0362-2.0366c1.5404-1.5384 4.043-1.5376 5.5806.0005l5.0243 5.0259c1.5377 1.5384 1.5375 4.0414-.0001 5.5792l-2.0352 2.0354c1.3581 2.3159 2.3817 4.7889 3.0593 7.3795l2.8777-.0002c2.1746 0 3.9441 1.7698 3.9441 3.945v7.1083c0 2.1752-1.7697 3.945-3.9447 3.945l-2.8771-.0003c-.6773 2.5902-1.7016 5.0623-3.0598 7.3789l2.0358 2.0357c1.5412 1.5391 1.5406 4.0419-.0001 5.5798l-5.0242 5.0259c-1.537 1.5384-4.0405 1.5382-5.5811.0006l-2.0356-2.0359c-2.3138 1.3567-4.7861 2.3818-7.3786 3.0599v2.875c0 2.1752-1.7697 3.9455-3.944 3.9455z" fill="#fb9c2a" fill-opacity="1" data-original-color="#000000ff" stroke="none" stroke-opacity="1"/><path id="_496455936" d="m118.951 29.2013c-8.2946 0-15.0422 6.7488-15.0422 15.0437.0004 8.2949 6.7475 15.0433 15.0418 15.0433 8.295-.0005 15.0449-6.7484 15.0449-15.0433.0001-8.295-6.7505-15.0436-15.0445-15.0437zm0 33.6505c-10.259 0-18.6061-8.3467-18.6061-18.6068.0003-10.2601 8.3469-18.6074 18.6057-18.6074 10.2622-.0003 18.6089 8.3473 18.6089 18.6074.0001 10.26-8.3469 18.6073-18.6085 18.6068z" fill="#fb9c2a" fill-opacity="1" data-original-color="#000000ff" stroke="none" stroke-opacity="1"/><path id="_496455864" d="m50.5516 66.0407c-12.8701 0-23.3398 10.469-23.3398 23.3371.0005 12.8681 10.4693 23.337 23.3393 23.337 12.867-.0004 23.3361-10.4688 23.3361-23.337.0002-12.8686-10.4692-23.337-23.3356-23.3371zm0 50.2384c-14.8344 0-26.9038-12.0679-26.9038-26.9013.0005-14.8337 12.0688-26.901 26.9033-26.901 14.8315-.0001 26.9001 12.0677 26.9001 26.901.0002 14.8332-12.0686 26.9014-26.8996 26.9013z" fill="#fb9c2a" fill-opacity="1" data-original-color="#000000ff" stroke="none" stroke-opacity="1"/><path id="_496455840" d="m50.5516 72.7621c-.9843 0-1.7825-.7972-1.7825-1.7813l.0005-6.7221c0-.9843.7976-1.7819 1.7815-1.7819.984-.0001 1.782.7978 1.782 1.782l.0005 6.722c0 .9836-.7987 1.7817-1.782 1.7813z" fill="#fb9c2a" fill-opacity="1" data-original-color="#000000ff" stroke="none" stroke-opacity="1"/><path id="_496455912" d="m59.7463 75.2277c-.3007 0-.607-.0768-.8885-.239-.8539-.4919-1.1447-1.5818-.6529-2.4341l3.3603-5.822c.4922-.8521 1.5836-1.1445 2.4344-.6517.8539.4916 1.1447 1.5819.6528 2.4342l-3.3594 5.8209c-.3313.5715-.9285.892-1.5467.8917z" fill="#fb9c2a" fill-opacity="1" data-original-color="#000000ff" stroke="none" stroke-opacity="1"/><path id="_496454904" d="m66.4845 81.961c-.6161 0-1.2165-.3188-1.5444-.8908-.4917-.8529-.2011-1.9419.6528-2.4342l5.82-3.3616c.8533-.4915 1.9423-.1993 2.4341.653.4922.8519.2011 1.942-.6527 2.4342l-5.8188 3.3607c-.282.1621-.5885.2391-.891.2387z" fill="#fb9c2a" fill-opacity="1" data-original-color="#000000ff" stroke="none" stroke-opacity="1"/><path id="_496454808" d="m75.6694 91.1591h-6.7228c-.9837 0-1.782-.7969-1.782-1.7813 0-.9842.7981-1.7817 1.782-1.7817l6.7228-.0002c.9836 0 1.7818.7978 1.7818 1.7819.0002.9844-.7982 1.782-1.7818 1.7813z" fill="#fb9c2a" fill-opacity="1" data-original-color="#000000ff" stroke="none" stroke-opacity="1"/><path id="_496455216" d="m41.3534 75.2277c-.6153 0-1.2159-.3193-1.547-.8911l-3.3591-5.822c-.4921-.8521-.2017-1.9418.6521-2.4337.8543-.4934 1.9429-.1998 2.4349.6522l3.3603 5.8209c.4914.8527.2005 1.9429-.6533 2.4347-.2781.1617-.5848.2393-.8879.239z" fill="#fb9c2a" fill-opacity="1" data-original-color="#000000ff" stroke="none" stroke-opacity="1"/><path id="_496454568" d="m34.6152 81.961c-.3027 0-.6095-.0762-.8879-.2384l-5.8224-3.361c-.8507-.4922-1.1447-1.5818-.6527-2.4342.4918-.8528 1.5808-1.1447 2.4346-.6524l5.8229 3.3608c.8506.4921 1.1443 1.582.6524 2.4344-.3308.572-.9313.8912-1.5469.8908z" fill="#fb9c2a" fill-opacity="1" data-original-color="#000000ff" stroke="none" stroke-opacity="1"/><path id="_496455144" d="m32.1532 91.1591h-6.7229c-.9843 0-1.7825-.7969-1.7825-1.7813.0005-.9842.7982-1.7817 1.782-1.7817l6.7234-.0002c.9835 0 1.7814.7978 1.7814 1.7819.0006.9844-.7982 1.782-1.7814 1.7813z" fill="#fb9c2a" fill-opacity="1" data-original-color="#000000ff" stroke="none" stroke-opacity="1"/><path id="_496454712" d="m50.5516 89.8401c-.9843 0-1.7825-.7972-1.7825-1.7815l.0005-8.1761c0-.9836.7976-1.7814 1.7815-1.7814.984-.0006 1.782.7979 1.782 1.782l.0005 8.175c0 .9843-.7987 1.7825-1.782 1.782zm0 11.6275c-.9843 0-1.7825-.7973-1.7825-1.7814l.0005-4.7236c0-.9843.7976-1.782 1.7815-1.782.984 0 1.782.7979 1.782 1.782l.0005 4.723c0 .9844-.7987 1.7826-1.782 1.782z" fill="#fb9c2a" fill-opacity="1" data-original-color="#000000ff" stroke="none" stroke-opacity="1"/><path id="_496455096" d="m50.5516 89.8401c-.9224 0-1.6711.7499-1.6711 1.6705.0005.9203.7486 1.67 1.6706 1.67.9193 0 1.6676-.7492 1.6676-1.67s-.7488-1.67-1.6671-1.6705zm0 6.9038c-2.8867 0-5.2351-2.3471-5.2351-5.2333.0005-2.8866 2.3481-5.234 5.2346-5.234 2.8864-.0005 5.2315 2.3478 5.2315 5.234.0001 2.8861-2.3451 5.2337-5.231 5.2333z" fill="#fb9c2a" fill-opacity="1" data-original-color="#000000ff" stroke="none" stroke-opacity="1"/><path id="_496454952" d="m63.9939 47.5998h-26.888c-.9836 0-1.7823-.7975-1.7823-1.7817.0003-.9846.7982-1.782 1.782-1.782l26.8883-.0003c.9835 0 1.7815.7979 1.7815 1.7823.0005.9839-.7982 1.7818-1.7815 1.7817z" fill="#fb9c2a" fill-opacity="1" data-original-color="#000000ff" stroke="none" stroke-opacity="1"/><path id="_496454856" d="m139.846 98.4703h-41.7871c-.9843 0-1.7827-.7975-1.7827-1.7817.0007-.9847.7983-1.782 1.782-1.782l41.7878-.0003c.9836 0 1.7815.7982 1.7815 1.7823.0005.984-.7981 1.7821-1.7815 1.7817z" fill="#fb9c2a" fill-opacity="1" data-original-color="#000000ff" stroke="none" stroke-opacity="1"/><path id="_496454592" d="m139.846 116.278h-41.7871c-.9843 0-1.7827-.7973-1.7827-1.7816.0007-.9847.7983-1.782 1.782-1.782l41.7878-.0004c.9836 0 1.7815.7983 1.7815 1.7824.0005.9839-.7981 1.782-1.7815 1.7816z" fill="#fb9c2a" fill-opacity="1" data-original-color="#000000ff" stroke="none" stroke-opacity="1"/></g></g></g></svg>