<svg xmlns="http://www.w3.org/2000/svg" id="Layer_1" data-name="Layer 1" viewBox="0 0 512 512" width="300" height="300" version="1.1" xmlns:xlink="http://www.w3.org/1999/xlink" xmlns:svgjs="http://svgjs.dev/svgjs"><g transform="matrix(1,0,0,1,0,0)"><title>Ads process settings</title><path d="M198.8,194.375l-42.6,41.589L134.418,214.7a6,6,0,1,0-8.382,8.586l25.971,25.356a6,6,0,0,0,8.383,0l46.79-45.683a6,6,0,1,0-8.383-8.585Z" fill="#fb9c2a" fill-opacity="1" data-original-color="#000000ff" stroke="none" stroke-opacity="1"/><path d="M460.626,246.521V172.37a6,6,0,0,0-8.537-5.437l-112.929,52.7q-6.392,2.982-12.945,5.626v-26.3a6,6,0,0,0-5.424-5.972l-29.139-2.809A127.226,127.226,0,0,0,276.9,155.126l18.547-22.4a6,6,0,0,0-.351-8.042L263.686,92.877a6,6,0,0,0-8.1-.405l-22.438,18.581a130.023,130.023,0,0,0-35.014-14.788l-2.809-29.141a6,6,0,0,0-5.972-5.424h-45.1a6,6,0,0,0-5.972,5.424L135.48,96.263a127.241,127.241,0,0,0-35.054,14.757l-22.4-18.548a6,6,0,0,0-8.069.378L38.15,124.659a6,6,0,0,0-.379,8.069l18.582,22.439A130.017,130.017,0,0,0,41.565,190.18l-29.141,2.809A6,6,0,0,0,7,198.961v45.1a6,6,0,0,0,5.424,5.972l29.139,2.808A127.186,127.186,0,0,0,56.32,287.892l-18.549,22.4a6,6,0,0,0,.379,8.069l31.809,31.808a6,6,0,0,0,8.069.379l22.438-18.581a130.006,130.006,0,0,0,35.014,14.787l2.809,29.141a6,6,0,0,0,5.972,5.424h45.1a6,6,0,0,0,5.972-5.424l2.809-29.138c2.357-.6,4.7-1.288,7.02-2.021a28.851,28.851,0,0,0,15.085,4.3c.654,0,1.309.023,1.964.028V444.3a6,6,0,0,0,6,6,51.57,51.57,0,0,0,51.512-51.511V355.461a281.769,281.769,0,0,1,59.441,19.958l112.929,52.7a6,6,0,0,0,8.537-5.437V348.531a51.5,51.5,0,0,0,0-102.01ZM191.31,336.034a6,6,0,0,0-4.7,5.289l-2.7,27.994h-34.2l-2.7-27.994a6,6,0,0,0-4.7-5.289,118.16,118.16,0,0,1-39.084-16.491,6,6,0,0,0-7.08.421L74.582,337.82,50.5,313.736l17.856-21.562a6,6,0,0,0,.371-7.155A114.648,114.648,0,0,1,52.284,246.01a6,6,0,0,0-5.289-4.7L19,238.607v-34.2L47,201.712a6,6,0,0,0,5.289-4.7,118.17,118.17,0,0,1,16.491-39.085,6,6,0,0,0-.421-7.08L50.5,129.282,74.582,105.2l21.562,17.856a6,6,0,0,0,7.155.371,114.661,114.661,0,0,1,39.009-16.442,6,6,0,0,0,4.7-5.288l2.7-27.995h34.2l2.7,27.995a6,6,0,0,0,4.705,5.288A118.176,118.176,0,0,1,230.4,123.475a6,6,0,0,0,7.079-.421l21.535-17.834,23.73,24.035-17.878,21.589A6,6,0,0,0,264.49,158a114.645,114.645,0,0,1,16.442,39.009,6,6,0,0,0,5.288,4.7l27.995,2.7V229.8a284.437,284.437,0,0,1-56.2,13.63,93.684,93.684,0,1,0-66.524,68.6v8.257a28.642,28.642,0,0,0,4.06,14.739C194.137,335.383,192.724,335.728,191.31,336.034Zm.177-61.264v24.743a81.785,81.785,0,1,1,53.723-54.648c-8.311.75-16.645,1.15-24.967,1.15A28.788,28.788,0,0,0,191.487,274.77Zm18.364,58.656a16.677,16.677,0,0,1-6.364-13.144V274.77a16.774,16.774,0,0,1,16.756-16.755q12.358,0,24.72-1.072v81.166q-12.345-1.059-24.72-1.072A16.568,16.568,0,0,1,209.851,333.426Zm57.868,65.363a39.576,39.576,0,0,1-33.512,39.057V349.407a281.963,281.963,0,0,1,33.512,3.726Zm180.907,14.472L344.234,364.545A295.1,295.1,0,0,0,256.963,339.4V255.648a296.471,296.471,0,0,0,64.914-15.835,5.927,5.927,0,0,0,.864-.325q10.932-4.065,21.493-8.981l104.392-48.716Zm12-76.882V258.673a39.5,39.5,0,0,1,0,77.706Z" fill="#fb9c2a" fill-opacity="1" data-original-color="#000000ff" stroke="none" stroke-opacity="1"/></g></svg>