<svg id="Pay_Per_Click" enable-background="new 0 0 128 128" height="300" viewBox="0 0 128 128" width="300" xmlns="http://www.w3.org/2000/svg" version="1.1" xmlns:xlink="http://www.w3.org/1999/xlink" xmlns:svgjs="http://svgjs.dev/svgjs"><g transform="matrix(1,0,0,1,0,0)"><g id="_x3C_Group_x3E_"><path id="_x31_2" d="m42.273 102.374c1.105 0 2.001.895 2.001 2 0 1.104-.896 2-2.001 2h-36.398c-1.615 0-3.086-.656-4.152-1.723-1.06-1.066-1.723-2.531-1.723-4.152v-94.624c0-1.615.663-3.08 1.723-4.146l.007-.006c1.066-1.06 2.53-1.723 4.145-1.723h116.246c1.615 0 3.079.663 4.146 1.723l.007.006c1.06 1.066 1.723 2.531 1.723 4.146v94.624c0 1.609-.663 3.08-1.723 4.146h-.007l-.007.006v.006c-1.066 1.061-2.537 1.717-4.14 1.717h-3.199c-1.104 0-2.001-.896-2.001-2 0-1.105.896-2 2.001-2h3.199c.518 0 .984-.209 1.325-.543l.006-.008c.335-.334.543-.807.543-1.324v-94.625c0-.517-.208-.984-.549-1.325s-.807-.549-1.325-.549h-116.245c-.518 0-.984.208-1.325.549-.341.342-.549.808-.549 1.325v94.625c0 .518.208.984.549 1.324.341.342.813.551 1.325.551z" fill="#fb9c2a" fill-opacity="1" data-original-color="#000000ff" stroke="none" stroke-opacity="1"/><path id="_x31_1" d="m125.994 21.784h-123.993v-4.001h123.993z" fill="#fb9c2a" fill-opacity="1" data-original-color="#000000ff" stroke="none" stroke-opacity="1"/><circle id="_x31_0" cx="11.901" cy="10.892" r="1.937" fill="#fb9c2a" fill-opacity="1" data-original-color="#000000ff" stroke="none" stroke-opacity="1"/><circle id="_x39_" cx="20.345" cy="10.892" r="1.937" fill="#fb9c2a" fill-opacity="1" data-original-color="#000000ff" stroke="none" stroke-opacity="1"/><circle id="_x38_" cx="28.789" cy="10.892" r="1.937" fill="#fb9c2a" fill-opacity="1" data-original-color="#000000ff" stroke="none" stroke-opacity="1"/><path id="_x37_" d="m113.57 8.892c1.104 0 2 .896 2 2.001s-.896 2-2 2h-68.052c-1.104 0-2-.896-2-2s.896-2.001 2-2.001z" fill="#fb9c2a" fill-opacity="1" data-original-color="#000000ff" stroke="none" stroke-opacity="1"/><path id="_x36_" d="m47.057 51.19c1.105 0 2.001.896 2.001 2.001 0 1.104-.896 2-2.001 2h-8.771c-1.546 0-2.953-.631-3.963-1.646-1.017-1.017-1.647-2.424-1.647-3.963v-11.681c0-1.534.625-2.935 1.647-3.957l.007-.006v-.007c1.021-1.009 2.422-1.641 3.957-1.641h41.188c1.533 0 2.939.631 3.957 1.653l.006-.006c1.016 1.016 1.646 2.417 1.646 3.963v11.681c0 1.533-.631 2.935-1.646 3.95l-.006.013c-1.017 1.016-2.418 1.647-3.957 1.647h-3.521c-1.104 0-2.001-.896-2.001-2.002 0-1.104.896-2 2.001-2h3.521c.441 0 .846-.183 1.136-.473.29-.291.473-.695.473-1.136v-11.68c0-.442-.183-.845-.473-1.136v-.006c-.29-.29-.694-.467-1.136-.467h-41.188c-.449 0-.854.176-1.137.467l-.012.006c-.285.291-.468.688-.468 1.136v11.681c0 .435.183.839.479 1.136.29.29.694.473 1.137.473z" fill="#fb9c2a" fill-opacity="1" data-original-color="#000000ff" stroke="none" stroke-opacity="1"/><path id="_x35_" d="m92.113 69.056c.152-.133.316-.26.48-.373.82-.588 1.779-.984 2.783-1.16.99-.172 2.044-.141 3.078.131 2.398.619 4.633 2.48 5.547 5.895 3.234 12.041 6.251 24.111 9.498 36.191.738 2.725.283 5.508-1.029 7.793-1.318 2.283-3.502 4.07-6.234 4.809l-18.881 5.074c-3.344.902-5.875.75-8.443-.385-2.385-1.055-4.639-2.916-7.629-5.58l-23.5-20.93c-3.256-2.904-4.229-6.186-3.711-8.955.467-2.543 2.195-4.619 4.568-5.615 2.676-1.131 6.179-.912 9.561 1.574l6.633 4.873-10.924-40.621c-.492-1.811-.188-3.66.688-5.174 1.891-3.29 6.034-4.401 9.32-2.512 1.521.877 2.708 2.329 3.2 4.139l4.423 16.445c2.183-1.825 5.272-2.092 7.762-.657 1.521.879 2.714 2.33 3.2 4.14v.012c.769-.637 1.645-1.084 2.564-1.336 2.589-.706 5.328.19 7.046 2.222zm-28.823-19.677c-.243-.813-.597-1.401-1.356-1.836-.605-.347-1.345-.473-2.07-.302-1.574.45-2.525 1.884-2.095 3.508l12.406 46.116c.466 1.805-1.58 3.244-3.11 2.127l-11.223-8.248c-2.113-1.559-4.165-1.754-5.654-1.123-1.142.484-1.961 1.438-2.195 2.664-.278 1.508.372 3.4 2.447 5.25l23.501 20.932c2.708 2.41 4.708 4.082 6.581 4.908 1.686.744 3.428.82 5.807.184l18.881-5.08c1.672-.447 3.004-1.539 3.805-2.934.809-1.395 1.079-3.1.631-4.777-3.246-12.066-6.271-24.18-9.496-36.189-.492-1.813-1.565-2.771-2.695-3.068-.454-.113-.927-.125-1.389-.051-.428.076-.832.24-1.16.475-.574.408-.934 1.104-.826 2 .17 1.01-.448 2-1.458 2.271-1.06.283-2.158-.346-2.442-1.414l-.567-2.1c-.202-.758-.694-1.363-1.325-1.725-1.354-.791-3.102-.313-3.881 1.041-.366.633-.486 1.402-.284 2.166.282 1.061-.351 2.158-1.413 2.441-1.067.283-2.158-.348-2.442-1.414l-1.615-6c-.194-.73-.675-1.348-1.325-1.73-2.209-1.258-4.879.762-4.197 3.34l3.324 12.355c.283 1.066-.348 2.158-1.414 2.441-1.066.285-2.158-.346-2.441-1.414-3.078-11.616-6.189-23.211-9.31-34.814z" fill="#fb9c2a" fill-opacity="1" data-original-color="#000000ff" stroke="none" stroke-opacity="1"/><path id="_x34_" d="m103.441 35.017c0-1.104.89-2 1.994-2s2 .896 2 2v3.237c0 1.104-.896 2-2 2s-1.994-.896-1.994-2zm11.92 7.926c1.105 0 2.001.896 2.001 2s-.896 2-2.001 2h-3.236c-1.105 0-2.001-.896-2.001-2s.896-2 2.001-2zm-16.608 0c1.104 0 2.001.896 2.001 2s-.896 2-2.001 2h-3.237c-1.104 0-2-.896-2-2s.896-2 2-2zm4.688 8.683c0-1.104.89-1.994 1.994-1.994s2 .89 2 1.994v3.237c0 1.104-.896 2-2 2s-1.994-.896-1.994-2z" fill="#fb9c2a" fill-opacity="1" data-original-color="#000000ff" stroke="none" stroke-opacity="1"/><path id="_x33_" d="m27.501 67.767c0 1.105-.896 2.002-2 2.002s-2.001-.897-2.001-2.002v-1.305c0-.639-.297-1.23-.776-1.673-.518-.473-1.249-.776-2.069-.776-.814 0-1.547.303-2.069.776-.474.442-.771 1.034-.771 1.673v1.324c0 .555.095 1.061.297 1.502.202.461.53.896.966 1.307l5.875 5.465c.833.775 1.464 1.641 1.893 2.605.436.979.656 2.02.656 3.125v1.324c0 1.805-.795 3.439-2.069 4.607-1.236 1.135-2.929 1.842-4.777 1.842-1.842 0-3.533-.707-4.771-1.842-1.28-1.168-2.069-2.803-2.069-4.607v-1.299c0-1.105.896-2.002 2-2.002s2.001.896 2.001 2.002v1.299c0 .637.297 1.236.77 1.672.524.48 1.256.777 2.07.777.82 0 1.552-.297 2.069-.777.479-.436.776-1.035.776-1.672v-1.324c0-.557-.102-1.055-.297-1.502-.208-.461-.53-.896-.966-1.307l-5.881-5.465c-.827-.77-1.458-1.641-1.887-2.607-.442-.977-.656-2.02-.656-3.123v-1.324c0-1.806.789-3.433 2.069-4.607 1.237-1.135 2.929-1.836 4.771-1.836 1.849 0 3.541.7 4.777 1.836 1.274 1.174 2.069 2.801 2.069 4.607z" fill="#fb9c2a" fill-opacity="1" data-original-color="#000000ff" stroke="none" stroke-opacity="1"/><path id="_x32_" d="m22.655 62.019c0 1.104-.896 1.994-2.001 1.994s-2-.891-2-1.994v-4.064c0-1.104.896-2 2-2s2.001.896 2.001 2z" fill="#fb9c2a" fill-opacity="1" data-original-color="#000000ff" stroke="none" stroke-opacity="1"/><path id="_x31_" d="m22.655 92.737c0 1.105-.896 2.002-2.001 2.002s-2-.896-2-2.002v-4.063c0-1.105.896-2.002 2-2.002s2.001.896 2.001 2.002z" fill="#fb9c2a" fill-opacity="1" data-original-color="#000000ff" stroke="none" stroke-opacity="1"/></g></g></svg>