<svg width="500" height="500" viewBox="0 0 500 500" fill="none" xmlns="http://www.w3.org/2000/svg">
<path fill-rule="evenodd" clip-rule="evenodd" d="M433.373 114.628L427.821 80.022C426.07 69.104 415.783 61.661 404.864 63.413L373.397 68.461C371.216 69.583 367.242 72.368 372.729 75.827C378.914 79.725 382.518 80.888 384.793 92.615C387.508 106.617 378.509 118.711 364.446 121.093L364.447 121.094L364.321 121.114L364.195 121.135V121.133C350.093 123.27 337.293 114.673 335.492 100.524C333.984 88.675 337.513 86.368 342.168 80.73C346.298 75.728 341.515 74.348 339.027 73.975L307.294 79.066C296.375 80.818 288.933 91.105 290.684 102.024L296.322 137.164C297.663 138.063 299.378 137.965 301.291 134.93C305.19 128.744 306.277 124.671 318.004 122.396C332.006 119.681 344.175 129.149 346.557 143.212H346.558L346.578 143.337L346.599 143.463H346.597C348.734 157.565 340.222 171.856 326.073 173.657C314.224 175.165 311.592 170.865 305.954 166.21C303.187 163.925 301.762 163.607 300.761 164.832L306.338 199.594C308.09 210.512 318.376 217.955 329.296 216.203L364.425 210.567C366.111 211.184 368.434 212.881 364.913 217.316C360.604 222.744 356.671 225.061 358.145 236.533C359.906 250.232 372.548 258.517 385.686 256.531V256.532L385.803 256.513L385.92 256.495V256.494C399.02 254.271 408.436 242.446 405.823 228.885C403.634 217.527 399.174 216.557 393.383 212.749C388.652 209.638 390.328 207.299 391.735 206.187L426.865 200.551C437.784 198.799 445.227 188.512 443.475 177.593L437.923 142.988C438.35 141.376 439.884 137.992 444.849 141.934C450.277 146.243 452.594 150.176 464.066 148.701C477.765 146.941 486.05 134.299 484.064 121.161H484.065L484.046 121.044L484.028 120.926L484.026 120.927C481.803 107.827 469.979 98.411 456.417 101.024C445.059 103.212 444.089 107.673 440.282 113.463C436.798 118.76 434.283 116.025 433.373 114.628Z" fill="#223651"/>
<path fill-rule="evenodd" clip-rule="evenodd" d="M231.594 91.614C229.982 91.187 226.598 89.654 230.54 84.688C234.849 79.26 238.782 76.943 237.308 65.471C235.548 51.772 222.906 43.487 209.767 45.473L209.65 45.491L209.533 45.51V45.511C196.433 47.734 187.018 59.558 189.631 73.12C191.819 84.478 196.279 85.448 202.07 89.256C207.368 92.739 204.633 95.254 203.235 96.164L168.919 101.669C158 103.421 150.557 113.708 152.309 124.627L157.83 159.041C157.483 160.542 156.04 164.417 150.854 160.299C145.426 155.99 143.109 152.057 131.637 153.532C117.938 155.292 109.653 167.934 111.639 181.072L111.638 181.073L111.657 181.19L111.675 181.307C113.899 194.407 125.724 203.822 139.286 201.209C150.644 199.021 151.614 194.561 155.421 188.77C159.06 183.236 161.642 186.466 162.441 187.782L167.963 222.197C169.714 233.116 180.001 240.558 190.92 238.807L224.952 233.347C227.064 232.309 231.529 229.449 225.847 225.868C219.661 221.969 216.057 220.807 213.783 209.08C211.067 195.078 220.067 182.984 234.129 180.602V180.6L234.255 180.58L234.38 180.559V180.561C248.482 178.424 261.283 187.021 263.083 201.17C264.591 213.019 261.063 215.326 256.407 220.964C252.13 226.143 257.413 227.439 259.805 227.755L288.49 223.153C299.409 221.401 306.852 211.114 305.1 200.195L299.402 164.682C300.14 163.078 301.904 161.381 305.978 164.615C311.405 168.924 313.722 172.858 325.195 171.383C338.893 169.623 347.179 156.981 345.192 143.843L345.194 143.842L345.174 143.725L345.156 143.608H345.155C342.931 130.508 331.107 121.093 317.546 123.706C306.188 125.894 305.217 130.354 301.41 136.145C298.553 140.491 296.346 139.431 295.144 138.139L289.446 102.626C287.695 91.707 277.408 84.264 266.489 86.016L231.594 91.614Z" fill="#223651"/>
<path fill-rule="evenodd" clip-rule="evenodd" d="M156.829 158.902L151.311 124.509C149.559 113.59 139.272 106.147 128.353 107.899L96.887 112.947C94.706 114.069 90.731 116.855 96.218 120.313C102.404 124.212 106.008 125.374 108.282 137.101C110.998 151.103 101.998 163.198 87.936 165.579V165.581L87.81 165.6L87.684 165.621V165.62C73.582 167.757 60.782 159.16 58.981 145.011C57.473 133.161 61.002 130.854 65.657 125.216C69.787 120.215 65.003 118.834 62.516 118.461L30.783 123.552C19.864 125.304 12.421 135.591 14.173 146.51L19.183 177.738C20.221 179.85 23.081 184.316 26.662 178.633C30.561 172.448 31.723 168.844 43.45 166.569C57.452 163.854 69.546 172.853 71.928 186.915L71.949 187.041L71.97 187.167C74.106 201.269 65.51 214.069 51.361 215.87C39.511 217.378 37.204 213.849 31.566 209.193C26.387 204.917 25.091 210.2 24.775 212.591L29.827 244.079C31.579 254.998 41.865 262.44 52.785 260.689L87.915 255.053C89.6 255.669 91.923 257.367 88.403 261.801C84.094 267.229 80.161 269.546 81.635 281.018C83.395 294.717 96.037 303.002 109.176 301.016V301.017L109.293 300.998L109.41 300.98V300.979C122.51 298.756 131.926 286.931 129.313 273.37C127.124 262.012 122.664 261.042 116.873 257.234C112.142 254.123 113.817 251.784 115.225 250.672L150.355 245.036C161.274 243.284 168.716 232.997 166.965 222.078L161.503 188.034C160.09 186.629 158.09 186.1 155.794 189.744C151.895 195.929 150.732 199.533 139.005 201.808C125.003 204.524 112.909 195.524 110.527 181.462L110.506 181.336L110.485 181.21C108.348 167.108 116.946 154.308 131.095 152.507C142.945 150.999 145.252 154.528 150.89 159.184C154.212 161.926 155.936 160.738 156.829 158.902Z" fill="#223651"/>
<path fill-rule="evenodd" clip-rule="evenodd" d="M345.221 151.377C343.75 161.488 336.228 169.965 325.195 171.383C318.676 172.221 315.113 171.313 312.256 169.582L345.221 151.377ZM112.881 185.855L129.528 201.036C121.859 199.213 115.658 193.461 112.881 185.855ZM382.923 107.861C383.412 107.922 383.898 108.006 384.383 108.115L416.561 115.878C416.633 115.897 416.706 115.916 416.778 115.936C416.888 115.962 416.998 115.991 417.108 116.022C421.934 117.411 425.744 121.8 426.404 126.843L426.405 126.853L426.407 126.871L426.414 126.925L426.418 126.958L426.421 126.978L426.424 127.008L426.429 127.045L426.433 127.086L426.435 127.103L426.436 127.114C426.535 128.007 426.533 128.5 426.489 129.092C426.473 129.394 426.446 129.696 426.408 129.997C426.395 130.132 426.383 130.278 426.369 130.436L421.184 165.152C421.064 165.706 420.98 166.269 420.823 166.814C419.574 171.173 415.9 174.741 411.473 175.845C406.535 177.077 400.949 175.116 397.877 170.965C396.526 169.139 395.668 166.962 395.41 164.704C395.239 163.197 395.345 162.813 395.469 161.311L396.769 152.612L308.555 201.327L307.026 202.046L306.901 202.086C306.664 201.278 306.475 200.446 306.338 199.594L302.374 174.889L302.505 174.966L310.821 170.374C314.204 173.015 317.998 174.685 326.073 173.657C337.852 172.158 345.724 162.003 346.798 150.506L377.955 133.3C374.645 132.356 371.724 130.151 370.035 127.181C368.825 125.055 368.261 122.582 368.368 120.14C374.981 118.016 380.123 113.583 382.923 107.861ZM163.648 195.3L232.566 142.878L233.994 141.934C235.358 141.27 235.68 141.031 237.158 140.645C239.372 140.069 241.729 140.089 243.932 140.704C245.403 141.115 245.721 141.361 247.074 142.048L300.899 174.013L305.1 200.195C305.228 200.995 305.307 201.791 305.339 202.581C304.911 202.696 304.46 202.781 303.754 202.862C301.512 203.119 299.212 202.782 297.138 201.891C296.621 201.668 296.135 201.38 295.633 201.124L241.332 168.877L168.425 224.333C168.234 223.637 168.08 222.925 167.963 222.196L163.648 195.3ZM71.509 184.879L81.336 174.421C82.427 173.401 82.66 173.084 83.935 172.289C88.213 169.624 94.06 169.736 98.253 172.665C98.713 172.986 99.13 173.366 99.569 173.717L111.151 184.278C113.816 193.947 121.303 200.715 130.64 202.049L141.616 212.058L162.775 195.963L166.965 222.077C167.136 223.143 167.219 224.202 167.22 225.248L148.733 239.31L147.367 240.219C146.064 240.866 145.757 241.095 144.346 241.487C141.18 242.368 137.688 241.99 134.783 240.453C133.489 239.768 133.238 239.479 132.103 238.568L91.513 201.555L38.733 257.725C34.132 254.748 30.762 249.908 29.827 244.077L27.793 231.399L42.381 215.873C44.659 216.314 47.505 216.357 51.36 215.866C65.509 214.065 74.105 201.265 71.969 187.163L71.949 187.037L71.929 186.911C71.812 186.224 71.672 185.545 71.509 184.879Z" fill="#fb9c2a"/>
<path d="M107.195 448C140.993 448 168.391 444.13 168.391 439.356C168.391 434.582 140.993 430.712 107.195 430.712C73.3974 430.712 45.999 434.582 45.999 439.356C45.999 444.13 73.3974 448 107.195 448Z" fill="#D2D2D2"/>
<path d="M126.552 419.495C128.111 419.624 129.389 421.162 129.085 422.755C129.078 422.793 129.069 422.831 129.061 422.869L126.074 435.57C125.633 437.28 123.422 438.224 121.912 437.255C120.962 436.645 120.482 435.431 120.721 434.311L123.708 421.61C123.815 421.193 123.881 421.075 124.01 420.854C124.461 420.082 125.305 419.556 126.203 419.496C126.429 419.481 126.48 419.492 126.552 419.495Z" fill="#6CBD68"/>
<path d="M85.5921 419.491C85.9511 419.509 86.0101 419.531 86.1691 419.57C86.8511 419.738 87.4581 420.176 87.8341 420.768C87.8901 420.856 87.9011 420.879 87.9511 420.97L94.4121 433.379C95.2161 435.007 94.0861 437.205 92.2421 437.386C91.1571 437.493 90.0531 436.867 89.5341 435.919L83.0731 423.51C82.2621 421.868 83.3671 419.605 85.3601 419.494C85.4361 419.49 85.5141 419.491 85.5921 419.491Z" fill="#6CBD68"/>
<path fill-rule="evenodd" clip-rule="evenodd" d="M135.767 437.113C136.252 437.366 136.53 438.677 135.987 438.74C133.511 439.026 123.727 439.157 120.911 438.829C120.266 438.754 120.242 435.629 120.434 433.318C120.506 432.457 122.634 433.266 124.497 433.375C125.56 433.437 126.197 432.435 127.17 432.868C130.614 434.403 134.354 436.376 135.767 437.113Z" fill="#5C3712"/>
<path fill-rule="evenodd" clip-rule="evenodd" d="M79.718 437.113C79.233 437.366 78.954 438.677 79.498 438.74C81.974 439.026 91.758 439.157 94.573 438.829C95.229 438.753 95.242 435.527 95.04 433.206C94.979 432.512 93.548 433.375 92.009 433.375C90.667 433.375 89.297 432.424 87.994 433.012C84.644 434.523 81.088 436.398 79.718 437.113Z" fill="#5C3712"/>
<path d="M88.34 358.675C88.34 358.675 127.588 359.051 128.783 361.629C128.783 361.629 141.333 392.408 141.423 399.694C141.529 408.266 131.371 431.988 129.695 434.648C129.695 434.648 120.021 430.946 120.331 430.016C122.705 418.331 127.27 407.111 127.311 402.276C127.315 401.778 113.616 380.69 112.28 378.622L112.225 378.537H100.845C99.103 381.611 87.92 400.714 85.209 406.794C85.051 407.147 94.072 423.672 95.157 430.303C95.215 430.371 85.963 434.976 85.512 434.649C78.978 429.89 70.312 414.451 70.189 408.671C69.865 393.508 84.773 357.644 88.34 358.675Z" fill="#802679"/>
<path d="M145.031 245.89C145.945 245.548 146.898 245.268 146.895 245.264C146.816 245.16 146.989 245.422 147.035 245.54C147.947 247.851 150.827 256.049 151.255 258.485C151.543 260.125 147.369 260.507 146.285 259.565C145.803 259.145 145.007 249.16 144.86 247.127C144.34 246.866 143.887 246.647 143.648 246.479C143.533 246.397 143.427 246.212 143.451 246.117C143.476 246.022 143.656 245.924 143.796 245.907C144.065 245.875 144.684 245.875 145.031 245.89Z" fill="#E1BA9A"/>
<path d="M63.8931 259.078C63.1701 258.424 61.4221 258.779 60.4801 259.774C59.3121 261.008 58.1261 262.598 57.1301 263.932C56.5991 264.644 58.5051 269.688 59.9041 267.598C61.3631 265.418 63.2071 260.991 63.6221 260.134C64.2021 260.083 64.8731 259.637 65.0731 259.424C65.2731 259.211 65.2851 259.182 65.1611 259.115C64.9231 258.986 64.2211 259.193 63.8931 259.078Z" fill="#E1BA9A"/>
<path d="M58.663 261.639C59.889 260.249 62.813 262.63 62.109 263.839C61.627 264.667 61.172 265.535 60.754 266.435C58.148 272.033 53.616 269.026 56.516 264.974C57.208 264.006 57.925 262.475 58.663 261.639Z" fill="white"/>
<path d="M145.097 252.655C144.906 251.575 146.041 250.776 147.245 250.59C148.24 250.437 149.282 250.702 149.658 251.574C149.876 252.079 150.074 253.012 150.309 254.042C150.472 254.757 145.703 256.191 145.517 255.085C145.358 254.132 145.195 253.21 145.097 252.655Z" fill="white"/>
<path d="M57.4959 262.601C58.7219 261.211 62.5079 264.127 61.8029 265.336C58.3209 271.317 56.8249 279.35 59.2529 286.041C61.3379 291.787 65.7299 296.617 71.2049 299.401C77.1149 302.405 84.1089 303.049 90.7079 301.658C92.7389 301.282 94.7439 300.736 96.6719 300.131L96.6739 300.13C98.1609 299.868 98.5189 299.688 100.03 299.876C102.751 300.214 105.275 301.956 106.535 304.395C106.797 304.903 106.956 305.457 107.167 305.988L107.168 305.993C107.267 306.556 107.423 307.111 107.466 307.681C107.674 310.42 106.434 313.229 104.3 314.941C103.113 315.894 102.714 315.929 101.31 316.486C98.5529 317.268 95.6099 317.697 92.6599 317.913L92.6079 317.917C88.1319 318.158 83.6559 317.853 79.2499 316.772C72.7639 315.181 66.6629 312.052 61.6659 307.269C54.4149 300.329 50.0539 289.998 51.3619 279.835C52.0899 274.182 53.6729 266.937 57.4959 262.601Z" fill="#EB8841"/>
<path d="M144.827 254.861C144.629 253.746 146.219 252.738 147.788 252.421C148.994 252.178 150.188 252.343 150.549 253.18C152.872 258.56 160.073 282.863 150.549 298.126C142.523 310.988 124.038 321.153 121.866 316.655C119.584 312.247 113.985 301.713 121.005 302.612C139.317 304.957 148.603 276.17 144.827 254.861Z" fill="#EB8841"/>
<path fill-rule="evenodd" clip-rule="evenodd" d="M106.473 327.206C111.301 327.348 128.577 309.602 124.103 305.02C119.487 300.293 113.435 295.968 106.312 295.968C98.9429 295.968 97.3609 301.37 92.7169 306.387C88.5219 310.92 101.569 327.062 106.473 327.206Z" fill="#DF55D1"/>
<path fill-rule="evenodd" clip-rule="evenodd" d="M99.1681 323.543C103.299 329.873 107.566 331.972 112.118 325.259L120.257 300.136C127.164 304.682 128.286 307.388 128.286 312.639C135.311 334.57 134.4 347.797 133.855 370.298C132.257 370.589 116.462 374.759 106.474 374.568C96.6221 374.379 83.7471 372.368 79.4531 371.042C77.9891 349.408 78.089 325.722 84.283 311.206C86.212 306.685 84.4211 305.367 92.3701 300.136L99.1681 323.543Z" fill="#EB8841"/>
<path d="M126.188 325.238C128.153 325.36 128.153 325.363 130.115 325.522L128.019 325.724C126.262 325.861 124.643 325.969 123.106 325.907C121.736 325.852 120.628 325.734 119.22 325.611L119.168 325.606L121.608 325.356C123.077 325.247 123.077 325.246 124.549 325.192C125.095 325.208 125.642 325.223 126.188 325.238Z" fill="#CA5D27"/>
<path fill-rule="evenodd" clip-rule="evenodd" d="M128.411 325.386C127.818 325.34 127.341 325.31 126.188 325.238C125.641 325.223 125.095 325.208 124.548 325.192C123.076 325.246 123.076 325.247 121.607 325.356L121.459 325.371L125.072 321.905L128.411 325.386Z" fill="white"/>
<path fill-rule="evenodd" clip-rule="evenodd" d="M88.2419 303.194L95.4359 313.139L95.4089 326.426L104.638 338.665C104.638 338.665 109.544 333.572 109.284 332.893C105.473 322.949 108.077 313.094 100.579 297.568C97.5779 297.286 90.3909 298.62 88.2419 303.194Z" fill="#CA5C0D"/>
<path fill-rule="evenodd" clip-rule="evenodd" d="M126.445 305.597L119.301 313.514L116.88 322.843L88.343 372.422C88.423 371.78 100.15 350.351 100.234 349.73C104.247 319.983 111.311 313.838 115.049 297.532C118.612 299.097 124.296 301.022 126.445 305.597Z" fill="#CA5C0D"/>
<path fill-rule="evenodd" clip-rule="evenodd" d="M88.3399 270.983V265.067C88.3399 254.695 96.7609 246.274 107.134 246.274C117.506 246.274 125.928 254.695 125.928 265.067V270.805C126.657 270.069 127.668 269.614 128.784 269.614C131.004 269.614 132.807 271.416 132.807 273.637V275.604C132.807 277.825 131.004 279.627 128.784 279.627C127.452 279.627 126.271 278.979 125.538 277.981C124.004 285.396 118.095 291.22 110.634 292.627V296.717C112.746 297.533 114.621 298.878 115.8 300.136C116.974 301.389 108.71 301.774 108.634 301.825C108.343 302.545 107.709 304.903 107.155 306.087C106.377 304.824 105.86 301.713 105.86 301.713C105.195 301.888 98.4439 301.868 99.1849 300.58C100.201 298.817 102.297 297.232 103.634 296.667V292.627C96.1109 291.208 90.1649 285.299 88.6919 277.794C87.9739 278.897 86.7299 279.627 85.3169 279.627C83.0969 279.627 81.2939 277.825 81.2939 275.604V273.637C81.2939 271.416 83.0969 269.614 85.3169 269.614C86.5209 269.614 87.6019 270.144 88.3399 270.983Z" fill="#F1C9A7"/>
<path fill-rule="evenodd" clip-rule="evenodd" d="M111.198 295.926C111.013 298.869 110.608 298.753 108.701 301.748C111.249 301.745 116.352 310.174 114.492 310.73C116.411 309.147 117.004 299.804 116.899 297.578C116.861 296.776 115.326 297.565 113.899 296.921C112.12 296.119 111.248 295.126 111.198 295.926Z" fill="#82087B"/>
<path fill-rule="evenodd" clip-rule="evenodd" d="M103.363 295.926C103.548 298.869 103.953 298.753 105.86 301.748C103.312 301.745 98.209 310.174 100.069 310.73C98.15 309.147 97.557 299.804 97.662 297.578C97.7 296.776 99.235 297.565 100.662 296.921C102.44 296.119 103.312 295.126 103.363 295.926Z" fill="#82087B"/>
<path d="M97.946 272.909C99.4819 272.909 100.727 271.664 100.727 270.128C100.727 268.592 99.4819 267.347 97.946 267.347C96.4101 267.347 95.165 268.592 95.165 270.128C95.165 271.664 96.4101 272.909 97.946 272.909Z" fill="#020202"/>
<path fill-rule="evenodd" clip-rule="evenodd" d="M107.133 267.125L110.576 279.498H103.69L107.133 267.125Z" fill="#DB9F72"/>
<path d="M116.87 260.592C119.063 260.629 120.958 262.437 121.244 264.824C121.296 265.257 121.16 265.745 120.718 265.865C120.254 265.991 119.821 265.616 119.759 265.041C119.593 263.604 118.598 262.232 117.073 262.103C115.969 262.009 114.868 262.537 114.067 263.329C114.067 263.329 113.746 263.598 113.4 263.533C112.834 263.426 112.564 262.691 113.115 262.162C114.127 261.204 115.451 260.581 116.87 260.592Z" fill="#5C3712"/>
<path d="M97.4789 260.592C98.8749 260.605 100.223 261.25 101.221 262.231C101.784 262.784 101.073 264.154 100.088 263.222C98.8279 262.049 96.7349 261.618 95.4519 262.899C94.8519 263.499 94.5629 264.358 94.4919 265.203C94.4919 265.203 94.2649 265.937 93.6819 265.888C92.8559 265.819 92.9419 264.416 93.4239 263.286C94.1029 261.692 95.6819 260.591 97.4789 260.592Z" fill="#5C3712"/>
<path fill-rule="evenodd" clip-rule="evenodd" d="M87.758 270.058C84.318 247.577 105.576 244.1 108.293 245.775C112.266 243.533 129.855 248.414 127.917 269.578L125.204 272.285C125.204 272.285 125.783 265.968 122.677 260.553C120.734 257.164 96.766 254.461 92.997 261.033C89.891 266.448 90.47 272.765 90.47 272.765L87.758 270.058Z" fill="#5C3712"/>
<path d="M119.43 251.966C119.435 248.74 116.824 246.121 113.598 246.116C110.373 246.111 107.753 248.721 107.748 251.947C107.743 255.173 110.354 257.793 113.58 257.798C116.806 257.803 119.425 255.192 119.43 251.966Z" fill="#5C3712"/>
<path fill-rule="evenodd" clip-rule="evenodd" d="M118 253.241C120.248 253.241 122.073 255.066 122.073 257.314C122.073 259.562 120.248 261.388 118 261.388C115.752 261.388 113.927 259.562 113.927 257.314C113.927 255.066 115.752 253.241 118 253.241Z" fill="#5C3712"/>
<path fill-rule="evenodd" clip-rule="evenodd" d="M122.009 247.953C125.233 247.953 127.85 250.571 127.85 253.794C127.85 257.018 125.233 259.636 122.009 259.636C118.785 259.636 116.168 257.018 116.168 253.794C116.168 250.571 118.785 247.953 122.009 247.953Z" fill="#5C3712"/>
<path fill-rule="evenodd" clip-rule="evenodd" d="M124.191 257.314C126.329 257.314 128.065 259.05 128.065 261.189C128.065 263.327 126.329 265.063 124.191 265.063C122.053 265.063 120.317 263.327 120.317 261.189C120.316 259.05 122.052 257.314 124.191 257.314Z" fill="#5C3712"/>
<path fill-rule="evenodd" clip-rule="evenodd" d="M130.555 256.467C132.693 256.467 134.429 258.203 134.429 260.341C134.429 262.48 132.693 264.216 130.555 264.216C128.417 264.216 126.681 262.48 126.681 260.341C126.68 258.203 128.416 256.467 130.555 256.467Z" fill="#5C3712"/>
<path fill-rule="evenodd" clip-rule="evenodd" d="M127.985 260.338C130.123 260.338 131.859 262.074 131.859 264.212C131.859 266.351 130.123 268.087 127.985 268.087C125.847 268.087 124.111 266.351 124.111 264.212C124.111 262.074 125.847 260.338 127.985 260.338Z" fill="#5C3712"/>
<path d="M113.929 251.435C113.94 248.949 111.934 246.925 109.448 246.914C106.962 246.902 104.938 248.908 104.927 251.394C104.916 253.88 106.922 255.904 109.408 255.916C111.894 255.927 113.918 253.921 113.929 251.435Z" fill="#5C3712"/>
<path d="M120.316 253.285C122.802 253.285 124.817 251.27 124.817 248.784C124.817 246.298 122.802 244.283 120.316 244.283C117.83 244.283 115.815 246.298 115.815 248.784C115.815 251.27 117.83 253.285 120.316 253.285Z" fill="#5C3712"/>
<path d="M134.435 253.323C134.453 249.426 131.309 246.252 127.412 246.234C123.515 246.216 120.341 249.36 120.323 253.257C120.305 257.154 123.449 260.328 127.346 260.346C131.243 260.364 134.417 257.22 134.435 253.323Z" fill="#5C3712"/>
<path d="M115.371 282.768C115.662 282.806 115.768 283.101 115.526 283.517C114.012 286.12 110.69 287.469 107.689 287.467C105.743 287.466 103.706 286.768 102.51 285.135C101.986 284.419 102.796 284.336 103.075 284.722C103.23 284.931 103.254 284.954 103.344 285.055C104.998 286.919 108.052 287.029 110.276 286.393C112.227 285.835 114.126 284.707 115.036 282.955C115.036 282.955 115.129 282.764 115.371 282.768Z" fill="#DB9F72"/>
<path d="M117.144 270.382C118.439 270.397 119.629 271.182 120.487 272.141C120.517 272.175 120.667 272.358 120.606 272.539C120.527 272.775 120.215 272.87 120.012 272.661C119.792 272.413 119.763 272.388 119.643 272.271C118.777 271.424 117.52 270.863 116.282 271.196C115.358 271.444 114.547 272.034 113.828 272.688C113.828 272.688 113.221 272.875 113.243 272.412C113.264 271.976 113.974 271.613 114.511 271.261C115.292 270.748 116.198 270.378 117.144 270.382Z" fill="#DB9F72"/>
<path d="M256.195 446C289.993 446 317.391 442.13 317.391 437.356C317.391 432.582 289.993 428.712 256.195 428.712C222.397 428.712 194.999 432.582 194.999 437.356C194.999 442.13 222.397 446 256.195 446Z" fill="#D2D2D2"/>
<path fill-rule="evenodd" clip-rule="evenodd" d="M283.67 435.448C284.155 435.701 284.433 437.012 283.89 437.075C281.414 437.361 271.63 437.492 268.815 437.164C267.792 437.045 268.332 429.263 268.815 429.207C269.325 429.148 273.882 425.288 274.889 425.614C275.928 425.95 274.568 430.585 275.858 431.152C279.395 432.705 282.208 434.684 283.67 435.448Z" fill="black"/>
<path fill-rule="evenodd" clip-rule="evenodd" d="M229.541 435.448C229.056 435.701 228.777 437.012 229.321 437.075C231.797 437.361 241.581 437.492 244.396 437.164C245.419 437.045 244.88 429.263 244.396 429.207C243.518 429.106 239.58 425.347 239.35 426.68C239.032 428.519 238.838 430.893 238.432 431.072C234.911 432.623 230.995 434.689 229.541 435.448Z" fill="black"/>
<path d="M243.94 320.636C244.765 320.736 245.604 320.756 246.415 320.936C250.244 321.784 253.6 324.603 255.005 328.267C255.776 330.279 255.641 330.84 255.763 332.974L255.588 336.708C255.463 338.382 255.361 340.058 255.212 341.731C254.229 352.75 253.539 359.23 252.283 370.511C250.101 390.116 247.721 409.728 245.241 429.272C244.869 430.476 238.327 430.339 238.007 429.12C236.599 429.694 234.534 385.619 233.474 370.11C233.115 364.857 232.763 359.603 232.453 354.347C232.185 349.79 231.722 341.68 231.611 336.196C231.586 334.951 231.601 333.706 231.595 332.461V332.458C231.808 330.332 231.697 329.765 232.553 327.787C233.788 324.934 236.231 322.621 239.128 321.487C240.651 320.892 242.301 320.601 243.94 320.636Z" fill="black"/>
<path d="M271.743 320.83C272.516 321.049 273.314 321.194 274.062 321.488C276.959 322.622 279.402 324.935 280.637 327.788C281.493 329.766 281.382 330.333 281.595 332.459L281.579 336.197C281.525 337.875 281.495 339.554 281.418 341.231C280.906 352.283 280.491 358.786 279.717 370.11C278.372 389.79 277.854 409.486 276.209 429.117C276.209 429.117 268.322 430.478 267.951 429.274C267.951 429.274 262.629 385.96 260.909 370.511C260.326 365.278 259.751 360.044 259.218 354.806C258.756 350.265 257.948 342.182 257.604 336.708C257.526 335.465 257.488 334.22 257.429 332.976V332.974C257.552 330.84 257.416 330.279 258.187 328.267C259.591 324.603 262.947 321.784 266.777 320.936C267.588 320.756 268.427 320.736 269.252 320.636C270.085 320.618 270.913 320.765 271.743 320.83Z" fill="black"/>
<path d="M272.127 320.498H240.465V350.186H272.127V320.498Z" fill="black"/>
<path d="M297.004 219.24C297.529 218.649 298.985 217.772 299.13 218.141C300.162 220.77 301.599 223.232 302.892 225.751C303.475 226.885 299.337 228.226 299.081 227.247C298.52 225.104 297.896 223.132 297.22 220.925C296.616 220.768 296.336 220.674 295.569 220.443L295.202 220.107L295.55 219.752L296.643 219.358C296.74 219.326 296.865 219.285 297.004 219.24ZM207.393 235.675L207.427 235.659C207.427 235.659 207.665 235.598 208.01 235.576C208.883 235.519 209.131 235.527 210.063 235.509C210.063 235.509 210.333 235.631 210.514 235.717L210.292 236.162C209.985 236.398 209.682 236.639 209.372 236.871C209.134 237.05 208.517 237.502 208.142 237.694L208.115 237.7C207.208 239.667 205.771 242.831 204.7 245.417C204.367 246.22 199.998 245.039 200.611 244.058C202.395 241.207 204.338 238.46 206.378 235.792C206.471 235.672 206.905 235.653 207.393 235.675Z" fill="#855A37"/>
<path d="M203.321 238.454C203.696 237.416 205.25 237.435 206.551 238.017C207.627 238.499 208.529 239.366 208.448 240.341C208.401 240.904 208.11 241.821 207.804 242.842C207.592 243.551 202.073 241.838 202.468 240.782C202.807 239.872 203.128 238.987 203.321 238.454Z" fill="white"/>
<path d="M302.448 220.772C302.073 219.734 300.519 219.753 299.218 220.335C298.142 220.817 297.24 221.684 297.321 222.658C297.368 223.222 297.659 224.139 297.965 225.16C298.177 225.869 303.696 224.156 303.301 223.1C302.961 222.19 302.64 221.305 302.448 220.772Z" fill="white"/>
<path d="M201.699 240.209C203.684 237.037 209.638 239.221 208.405 242.226C207.3 244.92 204.213 258.478 205.818 262.029C207.044 264.741 221.932 268.025 227.659 266.763C233.694 265.434 238.347 264.725 244.182 262.664L248.758 278.37C244.413 279.302 240.074 280.792 235.634 280.675C218.492 280.223 196.597 276.823 195.789 265.505C195.261 258.1 198.057 246.029 201.699 240.209Z" fill="black"/>
<path d="M297.551 224.497C296.738 221.098 302.568 219.019 303.926 222.083C306.168 227.141 307.619 236.363 309.314 241.631C317.405 266.772 298.592 274.13 293.205 276.166C289.212 277.674 284.878 278.426 280.726 278.712C276.042 279.035 271.32 278.713 266.667 278.092C266.667 278.092 266.305 278.04 265.956 277.985C262.963 277.507 259.998 276.892 257.242 276.024L257.24 276.023C255.864 275.402 255.466 275.348 254.324 274.342C252.267 272.53 251.163 269.669 251.496 266.944C251.565 266.377 251.746 265.829 251.872 265.271L251.873 265.267C252.108 264.746 252.292 264.2 252.578 263.705C253.95 261.324 256.556 259.702 259.284 259.49C260.801 259.372 261.151 259.568 262.625 259.898C263.577 260.216 264.516 260.53 265.47 260.808C265.47 260.808 266.516 261.14 267.448 261.409C273 263.013 278.724 265.24 284.55 264.203C298.28 261.758 301.339 250.662 301.424 245.492C301.524 239.406 298.964 230.403 297.551 224.497Z" fill="black"/>
<path fill-rule="evenodd" clip-rule="evenodd" d="M274.295 323.711C278.786 319.572 278.791 271.045 274.316 266.463C269.7 261.735 263.257 258.798 256.134 258.798C248.765 258.798 242.125 261.941 237.481 266.958C233.285 271.491 232.362 316.81 235.158 320.569C237.363 323.535 240.288 325.929 243.702 327.615C247.38 329.431 263.414 329.748 266.606 328.49C269.498 327.35 272.102 325.733 274.295 323.711Z" fill="white"/>
<path fill-rule="evenodd" clip-rule="evenodd" d="M256.329 271.191C260.83 271.279 269.006 262.019 265.768 260.69C262.797 259.471 259.544 258.798 256.136 258.798C252.955 258.798 249.91 259.384 247.103 260.453C243.406 261.861 251.144 271.09 256.329 271.191Z" fill="#845A38"/>
<path fill-rule="evenodd" clip-rule="evenodd" d="M270.079 346.57V262.967C276.986 267.512 282.062 265.983 282.062 274.863L281.549 312.246V346.57H270.079ZM242.191 346.57H230.72L231.232 274.863C231.232 265.983 235.283 267.512 242.19 262.967L242.191 346.57Z" fill="black"/>
<path fill-rule="evenodd" clip-rule="evenodd" d="M235.652 270.408L240.611 276.783L237.155 288.273L242.275 345.131C244.843 317.481 245.46 289.604 244.373 261.528C240.811 263.092 237.801 265.833 235.652 270.408Z" fill="#333333"/>
<path fill-rule="evenodd" clip-rule="evenodd" d="M277.214 270.408L272.255 276.783L275.711 288.273L270.171 345.131C268.169 317.856 267.504 290.032 268.493 261.528C272.055 263.092 275.065 265.833 277.214 270.408Z" fill="#333333"/>
<path fill-rule="evenodd" clip-rule="evenodd" d="M260.101 264.274C260.766 264.449 263.378 263.997 263.99 265.895C264.925 268.793 258.962 274.202 256.656 270.578C256.18 269.828 260.101 264.274 260.101 264.274Z" fill="#C5CCC9"/>
<path fill-rule="evenodd" clip-rule="evenodd" d="M252.903 264.274C252.238 264.449 249.397 263.937 249.014 265.895C248.536 268.335 255.608 273.845 256.646 270.709C256.924 269.866 252.903 264.274 252.903 264.274Z" fill="#C5CCC9"/>
<path fill-rule="evenodd" clip-rule="evenodd" d="M248.799 261.077C248.994 262.387 251.622 267.234 254.064 270.221C255.175 271.581 256.888 271.605 257.283 272.385C259.518 276.798 244.262 272.585 244.55 261.648C244.575 260.681 245.891 262.704 246.791 262.55C247.932 262.355 248.67 260.211 248.799 261.077Z" fill="#0997B9"/>
<path fill-rule="evenodd" clip-rule="evenodd" d="M264.068 261.99C263.873 263.299 261.245 268.147 258.803 271.134C257.692 272.494 255.979 272.518 255.584 273.298C253.349 277.711 268.605 273.497 268.317 262.561C268.292 261.594 266.976 263.617 266.076 263.463C264.934 263.268 264.197 261.124 264.068 261.99Z" fill="#0997B9"/>
<path fill-rule="evenodd" clip-rule="evenodd" d="M255.315 276.195C256.16 277.748 257.983 277.722 258.835 276.15C259.569 274.794 260.253 273.281 260.253 272.346C260.253 271.327 259.973 269.909 259.03 269.835C258.5 269.793 255.56 269.822 254.99 269.922C254.104 270.077 253.873 271.376 253.873 272.346C253.873 273.292 254.572 274.828 255.315 276.195Z" fill="#00B2DC"/>
<path fill-rule="evenodd" clip-rule="evenodd" d="M253.677 301.495C253.532 305.235 257.824 308.727 257.721 308.837C257.589 308.977 261.999 304.622 261.572 301.285C260.31 291.43 258.732 279.119 258.148 275.024C258.009 274.048 255.581 273.807 255.609 275.024C255.689 278.523 254.089 290.843 253.677 301.495Z" fill="#00B2DC"/>
<path fill-rule="evenodd" clip-rule="evenodd" d="M262.353 258.579C262.168 261.522 262.008 261.406 260.101 264.401C261.684 265.923 265.472 274.116 264.315 273.561C266.234 271.977 269.227 263.355 269.122 261.129C269.084 260.326 267.549 261.115 266.122 260.471C264.343 259.669 262.403 257.779 262.353 258.579Z" fill="#DDDDDD"/>
<path fill-rule="evenodd" clip-rule="evenodd" d="M250.651 258.579C250.836 261.522 250.996 261.406 252.903 264.401C251.32 265.923 247.532 274.116 248.689 273.561C246.77 271.977 243.777 263.355 243.882 261.129C243.92 260.326 245.455 261.115 246.882 260.471C248.661 259.669 250.601 257.779 250.651 258.579Z" fill="#DDDDDD"/>
<path d="M253.456 255.458C245.933 254.039 239.987 248.129 238.514 240.625C237.796 241.728 236.552 242.458 235.139 242.458C232.919 242.458 231.116 240.655 231.116 238.435V236.467C231.116 234.247 232.919 232.444 235.139 232.444C236.115 232.444 237.011 232.793 237.708 233.372C237.871 233.507 238.162 227.898 238.162 227.898C238.162 217.525 246.583 209.104 256.956 209.104C267.328 209.104 275.749 217.525 275.749 227.898V233.635C276.478 232.9 277.489 232.444 278.605 232.444C280.826 232.444 282.628 234.247 282.628 236.467V238.435C282.628 240.655 280.825 242.458 278.605 242.458C277.273 242.458 276.092 241.809 275.359 240.811C273.825 248.227 267.916 254.05 260.455 255.458V261.53L260.179 262.887C259.432 263.992 259.42 264.005 258.314 264.752L256.953 265.028L255.596 264.752C254.49 264.005 254.478 263.992 253.731 262.887L253.455 261.53L253.456 255.458Z" fill="#845A38"/>
<path fill-rule="evenodd" clip-rule="evenodd" d="M266.143 230.178C267.678 230.178 268.924 231.424 268.924 232.959C268.924 234.494 267.678 235.74 266.143 235.74C264.608 235.74 263.362 234.494 263.362 232.959C263.362 231.424 264.608 230.178 266.143 230.178Z" fill="#010101"/>
<path fill-rule="evenodd" clip-rule="evenodd" d="M247.769 230.178C249.304 230.178 250.55 231.424 250.55 232.959C250.55 234.494 249.304 235.74 247.769 235.74C246.234 235.74 244.988 234.494 244.988 232.959C244.988 231.424 246.234 230.178 247.769 230.178Z" fill="#010101"/>
<path fill-rule="evenodd" clip-rule="evenodd" d="M256.956 229.956L260.399 242.329H253.513L256.956 229.956Z" fill="#543217"/>
<path d="M266.692 223.423C268.904 223.46 270.782 225.283 271.066 227.655C271.109 228.016 271.05 228.411 270.747 228.604C270.286 228.898 269.656 228.569 269.581 227.872C269.415 226.435 268.421 225.063 266.895 224.933C265.791 224.839 264.691 225.367 263.89 226.16C263.89 226.16 263.415 226.504 263.01 226.289C262.478 226.006 262.533 225.309 263.263 224.704C264.224 223.906 265.435 223.412 266.692 223.423Z" fill="#5D3400"/>
<path d="M247.302 223.422C248.698 223.435 250.045 224.079 251.044 225.061C251.619 225.626 250.839 226.93 249.911 226.053C248.651 224.879 246.557 224.449 245.275 225.73C244.676 226.328 244.386 227.186 244.315 228.034C244.315 228.034 243.99 228.906 243.328 228.682C242.579 228.429 242.8 227.165 243.247 226.116C243.923 224.529 245.505 223.421 247.302 223.422Z" fill="#5D3400"/>
<path d="M250.584 245.447C250.812 245.485 250.788 245.495 250.898 245.766C251.474 247.142 252.563 248.279 253.916 248.913C257.079 250.395 261.201 249.042 263.08 245.773C263.08 245.773 263.258 245.567 263.452 245.623C263.678 245.688 263.823 245.792 263.567 246.229C261.733 249.296 257.752 250.938 254.385 249.8C252.57 249.188 251.042 247.816 250.298 246.014C250.265 245.935 250.176 245.428 250.584 245.447Z" fill="#543217"/>
<path fill-rule="evenodd" clip-rule="evenodd" d="M237.277 233.059C235.8 211.327 254.984 208.885 257.889 208.714C261.251 208.516 276.981 212.315 277.918 232.503C277.077 232.648 276.325 233.054 275.749 233.635L275.062 234.44C275.113 232.67 274.996 227.736 272.501 223.383C270.558 219.995 245.575 219.061 242.821 223.863C239.715 229.279 240.294 235.596 240.294 235.596C239.666 234.754 237.607 233.267 237.277 233.059Z" fill="#5C3712"/>
<path d="M386.195 448C419.993 448 447.391 444.13 447.391 439.356C447.391 434.582 419.993 430.712 386.195 430.712C352.397 430.712 324.999 434.582 324.999 439.356C324.999 444.13 352.397 448 386.195 448Z" fill="#D2D2D2"/>
<path d="M425.064 379.865C427.172 379.94 428.727 382.591 427.538 384.469C427.372 384.732 427.164 384.968 426.925 385.168C426.83 385.248 426.728 385.32 426.625 385.389L419.272 390.111C417.997 390.902 416.162 390.589 415.26 389.399C414.287 388.116 414.578 386.058 415.952 385.114C415.978 385.096 416.004 385.08 416.03 385.062L423.383 380.34C423.641 380.18 423.721 380.147 423.88 380.083C424.111 379.99 424.353 379.925 424.6 379.892C424.752 379.871 424.908 379.864 425.064 379.865Z" fill="white"/>
<path fill-rule="evenodd" clip-rule="evenodd" d="M430.451 392.918C430.82 393.284 432.096 393.159 431.999 392.65C431.555 390.329 428.889 381.442 427.789 378.991C427.533 378.422 424.603 379.328 422.543 380.176C421.803 380.48 422.933 382.099 423.742 383.93C424.206 384.981 423.964 386.192 424.732 387.035C426.974 389.494 429.465 391.941 430.451 392.918Z" fill="#5C3712"/>
<path fill-rule="evenodd" clip-rule="evenodd" d="M398.466 232.911H362.608C360.295 245.581 356.944 259.788 361.147 269.756C373.157 267.582 388.495 267.636 400.393 269.711C405.278 258.679 401.91 245.101 398.466 232.911Z" fill="#C93F1B"/>
<path fill-rule="evenodd" clip-rule="evenodd" d="M354.969 437.529C354.509 437.771 354.245 439.026 354.76 439.086C357.108 439.36 366.384 439.485 369.053 439.171C370.023 439.057 369.591 433.344 369.133 433.29C368.455 433.211 367.258 433.934 365.725 434.01C364.778 434.057 363.641 433.223 362.599 433.702C359.486 435.131 356.238 436.861 354.969 437.529Z" fill="#5C3712"/>
<path d="M377.583 354.327C377.143 358.462 376.668 370.089 376.059 375.378C373.947 393.722 372.035 414.996 369.637 433.284C369.612 433.475 367.788 434.048 365.725 434.01C363.252 433.964 360.469 433.284 360.469 433.284C360.125 429.306 357.769 341.747 362.951 332.317C364.448 329.592 394.234 327.585 396.305 330.722C400.797 337.524 401.387 359.705 401.847 365.941C402.11 369.508 402.544 373.106 403.586 376.538C404.095 378.216 404.713 379.872 405.635 381.362C405.635 381.362 406.161 382.183 406.63 382.71L406.819 382.919C406.96 383.038 406.761 382.878 406.909 383.001L407.121 383.213C407.267 383.319 407.06 383.177 407.214 383.286L407.431 383.476C407.583 383.569 407.367 383.445 407.528 383.54L407.756 383.71C407.915 383.79 407.69 383.684 407.858 383.766L408.105 383.919C408.273 383.987 408.036 383.898 408.214 383.967L408.488 384.102C408.665 384.156 408.419 384.088 408.605 384.142L408.864 384.242C409.051 384.284 408.793 384.232 408.99 384.274L409.282 384.357C409.479 384.386 409.211 384.353 409.418 384.38L409.667 384.428C412.849 384.917 422.301 380.732 422.301 380.732C422.755 380.539 424.807 388.744 423.851 389.692C419.766 393.741 414.513 395.484 408.488 395.757C402.796 396.015 397.928 392.459 393.293 388.677C384.564 381.556 381.215 358.86 381.232 354.328H377.583V354.327Z" fill="#75EA94"/>
<path d="M330.317 215.966C330.298 215.892 330.44 214.669 330.85 214.667C331.238 214.665 331.279 215.417 331.81 215.768C333.335 215.637 333.856 216.082 333.866 216.174C334.19 219.083 333.053 227.531 331.128 231.274C330.367 232.755 326.729 234.053 326.754 232.617C326.88 225.425 330.068 219.968 331.038 217.333C330.831 217.146 330.431 216.407 330.317 215.966Z" fill="#F1C9A7"/>
<path d="M420.275 202.364C420.308 202.295 420.408 201.068 420.006 200.986C419.626 200.908 419.439 201.637 418.849 201.878C417.379 201.451 416.661 202.182 416.615 202.36C415.784 205.6 415.091 213.993 416.186 217.829C416.643 219.43 419.712 213.677 420.726 212.66C421.177 212.208 419.298 205.601 419.3 203.563C419.54 203.421 420.077 202.775 420.275 202.364Z" fill="#F1C9A7"/>
<path d="M328.197 222.591C328.369 221.631 334.055 223.29 333.496 224.631C332.433 230.835 330.869 237.265 332.504 243.343C334.944 252.414 341.562 259.832 349.861 264.773C355.765 268.288 362.253 270.773 368.825 272.515C370.993 273.09 366.312 288.16 363.961 287.204C356.493 284.167 349.456 280.277 343.227 275.272C333.849 267.737 326.691 257.184 325.431 244.836C324.673 237.424 325.608 229.645 328.197 222.591Z" fill="#46CBEA"/>
<path d="M415.217 209.728C415.248 207.363 420.461 208.47 420.52 209.745C421.824 221.617 421.678 233.453 419.327 245.101C418.077 251.295 416.127 257.362 413.422 263.134C410.8 268.727 407.391 273.99 403.299 278.693C401.36 280.922 399.239 283.002 396.981 284.915C395.053 286.55 386.376 273.371 389.102 271.411C394.304 267.671 399.233 263.222 402.341 257.749C410.764 242.92 414.827 224.965 415.217 209.728Z" fill="#46CBEA"/>
<path fill-rule="evenodd" clip-rule="evenodd" d="M394.441 334.147C396.819 332.399 393.425 323.197 393.078 314.436C392.479 299.333 389.882 282.379 387.201 279.608C382.824 275.083 386.039 278.141 379.285 278.141C372.299 278.141 376.347 274.603 371.944 279.406C369.339 282.247 367.579 299.546 367.754 313.736C367.846 321.217 363.855 330.27 365.37 333.554C367.632 338.46 388.655 338.4 394.441 334.147Z" fill="white"/>
<path d="M389.02 283.599C389.537 285.323 390.033 287.481 390.49 289.939C383.45 291.258 376.161 291.238 369.088 290.062C369.422 287.597 369.811 285.408 370.245 283.642C370.916 283.766 371.595 283.883 372.272 283.973C377.828 284.709 383.484 284.609 389.02 283.599ZM391.576 296.853C391.852 298.94 392.102 301.125 392.317 303.353C384.309 305.127 375.971 305.126 367.929 303.634C368.029 301.411 368.167 299.211 368.34 297.092C375.954 298.596 383.913 298.646 391.576 296.853ZM392.868 310.316C392.953 311.696 393.023 313.074 393.078 314.436C393.111 315.263 393.171 316.094 393.25 316.922C384.861 318.931 376.012 318.968 367.534 317.343C367.683 316.121 367.769 314.909 367.755 313.736C367.743 312.756 367.74 311.76 367.746 310.756C375.969 312.465 384.611 312.483 392.868 310.316ZM366.313 323.937C366.438 323.928 366.565 323.928 366.692 323.935C367.313 324.004 367.14 324.003 367.647 324.133C375.931 326.233 384.63 326.597 393.056 324.726C393.056 324.726 393.666 324.599 394.401 324.704C394.808 327.032 395.171 329.119 395.26 330.758C394.241 331.243 392.937 331.405 391.699 331.62C383.121 333.105 374.214 332.544 365.82 330.375C365.6 330.318 365.361 330.223 365.121 330.094C365.319 328.339 365.809 326.216 366.313 323.937Z" fill="#8F8F8F"/>
<path fill-rule="evenodd" clip-rule="evenodd" d="M379.509 279.858C383.777 279.943 391.427 271.521 388.357 270.249C385.54 269.082 382.456 268.439 379.224 268.439C376.208 268.439 373.321 268.999 370.66 270.022C367.155 271.37 374.593 279.761 379.509 279.858Z" fill="#F1C9A7"/>
<path fill-rule="evenodd" clip-rule="evenodd" d="M392.613 339.435L388.069 272.429C394.618 276.78 398.944 269.903 398.944 278.402C398.944 278.402 399.181 305.383 399.209 315.555C399.231 323.644 405.181 331.894 404.081 335.874C403.007 339.764 397.735 341.401 392.613 339.435ZM366.172 339.435C360.973 340.83 355.441 339.869 354.472 335.874C353.411 331.501 359.829 322.074 359.804 313.197C359.776 303.025 360.682 277.181 360.682 277.181C360.682 268.681 365.009 275.558 371.557 271.207L366.172 339.435Z" fill="#46CBEA"/>
<path fill-rule="evenodd" clip-rule="evenodd" d="M363.564 277.577L367.31 287.978L364.034 298.976L366.252 338.058C368.687 311.591 372.813 298.082 371.782 271.207C368.404 272.705 365.602 273.198 363.564 277.577Z" fill="#B9EFFB"/>
<path fill-rule="evenodd" clip-rule="evenodd" d="M397.128 279.539L392.128 287.978L395.404 298.976L392.7 338.058C390.802 311.95 386.392 298.492 387.33 271.207C390.707 272.705 395.09 275.16 397.128 279.539Z" fill="#B9EFFB"/>
<path fill-rule="evenodd" clip-rule="evenodd" d="M382.984 273.68C383.615 273.847 386.091 273.414 386.672 275.232C387.558 278.006 385.377 278.806 379.532 280.338C379.079 279.621 382.984 273.68 382.984 273.68Z" fill="#C5CCC9"/>
<path fill-rule="evenodd" clip-rule="evenodd" d="M376.159 273.68C375.528 273.847 372.835 273.358 372.471 275.232C372.018 277.567 374.325 278.782 379.494 280.338C379.759 279.531 376.159 273.68 376.159 273.68Z" fill="#C5CCC9"/>
<path fill-rule="evenodd" clip-rule="evenodd" d="M385.119 268.229C384.943 271.046 384.792 270.934 382.984 273.802C384.485 275.258 388.077 283.1 386.979 282.569C388.798 281.054 391.636 272.8 391.536 270.669C391.5 269.901 390.045 270.656 388.691 270.04C387.006 269.272 385.167 267.463 385.119 268.229Z" fill="#DDDDDD"/>
<path fill-rule="evenodd" clip-rule="evenodd" d="M374.025 268.229C374.201 271.046 374.352 270.934 376.16 273.802C374.659 275.258 371.067 283.1 372.165 282.569C370.346 281.054 367.508 272.8 367.608 270.669C367.644 269.901 369.099 270.656 370.453 270.04C372.138 269.272 373.977 267.463 374.025 268.229Z" fill="#DDDDDD"/>
<path d="M362.183 244.51V238.69C362.183 228.855 370.167 220.871 380.001 220.871C389.835 220.871 397.82 228.855 397.82 238.69V244.341C398.511 243.644 399.47 243.212 400.528 243.212C402.633 243.212 404.342 244.921 404.342 247.026V248.983C404.342 251.088 402.633 252.797 400.528 252.797C399.277 252.797 398.166 252.194 397.47 251.262C396.059 258.278 390.521 263.808 383.501 265.209V271.054L383.225 272.41C382.478 273.516 382.466 273.528 381.36 274.275L380 274.551L378.643 274.275C377.537 273.528 377.525 273.516 376.778 272.41L376.502 271.054V265.209C369.424 263.797 363.853 258.186 362.499 251.087C361.816 252.117 360.645 252.797 359.318 252.797C357.213 252.797 355.504 251.088 355.504 248.983V247.026C355.504 244.921 357.213 243.212 359.318 243.212C360.459 243.212 361.484 243.715 362.183 244.51Z" fill="#F1C9A7"/>
<path d="M388.712 248.748C390.168 248.748 391.349 247.556 391.349 246.086C391.349 244.616 390.168 243.424 388.712 243.424C387.256 243.424 386.075 244.616 386.075 246.086C386.075 247.556 387.256 248.748 388.712 248.748Z" fill="#793F14"/>
<path fill-rule="evenodd" clip-rule="evenodd" d="M371.292 243.424C372.747 243.424 373.929 244.617 373.929 246.086C373.929 247.556 372.748 248.748 371.292 248.748C369.837 248.748 368.655 247.556 368.655 246.086C368.655 244.617 369.836 243.424 371.292 243.424Z" fill="#793F14"/>
<path fill-rule="evenodd" clip-rule="evenodd" d="M380.002 247.031L381.902 253.924H378.102L380.002 247.031Z" fill="#DB9F72"/>
<path d="M389.228 237.376C391.173 237.41 392.774 239.128 392.982 241.15C393.024 241.558 392.453 241.899 392.385 241.211C392.215 239.624 391.107 238.114 389.43 237.985C388.274 237.897 387.124 238.445 386.287 239.28C386.287 239.28 386.11 239.412 385.954 239.343C385.547 239.162 386.203 238.454 386.912 238.029C387.609 237.611 388.408 237.369 389.228 237.376Z" fill="#C93F1B"/>
<path d="M370.847 237.376C372.041 237.388 373.192 237.942 374.048 238.765C374.258 238.967 374.139 239.689 373.632 239.197C372.305 237.93 370.063 237.488 368.681 238.828C368.017 239.472 367.685 240.404 367.608 241.337C367.608 241.337 367.295 241.785 367.071 241.495C366.926 241.306 367.03 241.022 367.078 240.748C367.392 238.965 368.841 237.41 370.776 237.376C370.811 237.376 370.811 237.376 370.847 237.376Z" fill="#C93F1B"/>
<path d="M375.774 256.241C376.003 256.272 376.024 256.386 376.095 256.559C376.993 258.668 379.85 259.571 381.971 258.48C382.814 258.046 383.5 257.346 383.973 256.515C383.973 256.515 384.121 256.324 384.308 256.355C384.548 256.394 384.66 256.632 384.459 256.971C382.937 259.494 379.195 260.459 376.857 258.61C376.236 258.119 375.751 257.459 375.46 256.725C375.37 256.496 375.519 256.233 375.774 256.241Z" fill="#DB9F72"/>
<path fill-rule="evenodd" clip-rule="evenodd" d="M361.392 243.638C359.107 232.699 365.128 219.169 379.285 219.976C399.163 216.998 402.041 232.01 399.709 243.178L397.136 245.77C395.363 248.911 378.639 231.474 377.904 228.451C376.895 224.302 368.769 231.181 366.601 234.998C363.656 240.182 364.205 246.949 364.205 246.949L361.392 243.638Z" fill="#C93F1B"/>
</svg>
