<?xml version="1.0" encoding="utf-8"?>
<!-- Generator: Adobe Illustrator 27.5.0, SVG Export Plug-In . SVG Version: 6.00 Build 0)  -->
<svg version="1.1" id="File" xmlns="http://www.w3.org/2000/svg" xmlns:xlink="http://www.w3.org/1999/xlink" x="0px" y="0px"
	 viewBox="0 0 1080 1080" style="enable-background:new 0 0 1080 1080;" xml:space="preserve">
<path style="fill:none;stroke:#445AB2;stroke-width:1.889;stroke-miterlimit:10;" d="M753.002,689.444H361.506
	c-6.234,0-11.334-5.1-11.334-11.334V141.664c0-6.234,5.1-11.334,11.334-11.334h391.496c6.234,0,11.334,5.1,11.334,11.334V678.11
	C764.336,684.344,759.235,689.444,753.002,689.444z"/>
<path style="fill:#FFFFFF;stroke:#445AB2;stroke-width:1.591;stroke-miterlimit:10;" d="M492.851,248.643H232.585
	c-2.665,0-4.846-2.181-4.846-4.846V96.683c0-2.665,2.181-4.846,4.846-4.846h260.266c2.665,0,4.846,2.181,4.846,4.846v147.114
	C497.696,246.463,495.516,248.643,492.851,248.643z"/>
<g id="women">
	<rect x="801.245" y="833.605" style="fill:#FF6B53;" width="116.326" height="13.044"/>
	<path style="fill:#FF6B53;" d="M873.797,997.631l-12.289-165.471l12.289,2.003l9.953,163.467
		C883.75,997.631,879.823,999.723,873.797,997.631z"/>
	<polygon style="fill:#FF6B53;" points="906.391,825.782 972.497,975.041 981.815,975.041 915.545,820.374 	"/>
	<polygon style="fill:#FF6B53;" points="845.037,834.909 836.836,960.506 845.037,960.506 855.463,832.161 	"/>
	<polygon style="fill:#FF6B53;" points="764.535,908.577 736.211,981.004 746.646,981.004 774.668,911.311 	"/>
	<path style="fill:#63CDC4;" d="M941.61,806.165c0,0,9.364-13.557,10.203-25.227c0.839-11.67,8.665-106.986,8.665-107.685
		s-7.407-8.823-17.61-5.39c-10.203,3.433-7.074,131.593-7.074,131.593L941.61,806.165z"/>
	<path style="fill:#FFFFFF;stroke:#FF6B53;stroke-width:0.8463;stroke-linejoin:round;stroke-miterlimit:10;" d="M778.138,915.97
		l12.672,35.033c0,0,18.448,1.584,20.778,0.839c2.329-0.745,3.541-2.982,3.541-2.982l-2.982-32.517L778.138,915.97z"/>
	<g>
		<path style="fill:#FFFFFF;" d="M706.929,908.155c-4.959-0.001-14.379-1.515-18.548-5.578c-4.993-4.87-4.469-13.344-4.361-14.59
			c8.045-7.455,23.969-42.866,25.938-47.289l29.707,14.38c-5.237,6.187-21.883,38.917-22.606,40.343
			c-1.471,3.056-5.563,11.202-6.879,12.287C709.929,907.914,708.927,908.155,706.929,908.155
			C706.929,908.155,706.929,908.155,706.929,908.155z"/>
		<path style="fill:#FF6B53;" d="M710.167,841.269l28.834,13.956c-5.635,7.193-21.611,38.606-22.328,40.019
			c-2.022,4.204-5.646,11.216-6.758,12.131c-0.141,0.099-0.952,0.355-2.987,0.355c-5.254,0-14.39-1.693-18.251-5.458
			c-4.684-4.567-4.37-12.452-4.249-14.089C692.365,880.628,707.574,847.067,710.167,841.269 M709.75,840.127
			c0,0-17.75,40.111-26.135,47.658c0,0-1.118,9.643,4.472,15.094c4.165,4.061,13.605,5.699,18.842,5.699
			c1.792,0,3.092-0.192,3.52-0.544c1.677-1.381,6.988-12.422,6.988-12.422s18.169-35.779,22.921-40.67L709.75,840.127
			L709.75,840.127z"/>
	</g>
	<polygon style="fill:#3A5FAA;" points="846.015,574.584 842.241,594.989 859.572,594.989 867.847,584.786 863.625,567.875 
		855.044,567.875 	"/>
	<path style="fill:#FFFFFF;stroke:#FF6B53;stroke-width:0.8463;stroke-linejoin:round;stroke-miterlimit:10;" d="M862.18,585.951
		l-1.025-12.392c0,0-12.672,3.727-15.001,0c-2.329-3.727-11.181-20.032-11.647-27.393c-0.466-7.361,0.466-9.038,0-10.435
		c-0.466-1.398-1.118-5.124-1.398-14.721c-0.279-9.597,3.634-20.312,11.181-20.964c7.547-0.652,18.541-4.286,27.859,7.174
		c9.317,11.46,12.299,18.262,12.299,18.262s2.516-9.038,6.522-8.386c4.006,0.652,7.361,8.199,6.522,13.324
		c-0.839,5.125-8.013,9.038-8.013,9.038l5.777,43.605c0,0-15.001,9.783-27.952,11.274
		C854.354,595.827,862.18,585.951,862.18,585.951z"/>
	<path style="fill:#3D5EBA;" d="M744.224,861.929c0,0-0.186,5.031-16.957-6.895c-16.771-11.926-27.206-15.839-31.306-19.38
		c-4.1-3.54-3.541-5.218-3.541-5.218s16.585-28.884,32.983-58.14c16.398-29.256,19.194-42.487,33.17-41.369
		c13.976,1.118,73.607,7.827,73.607,7.827s5.963-7.081,5.963-10.249c0-3.168,2.422-7.64,2.422-7.64l3.354-9.504
		c0,0,15.094-5.218,22.362-1.677s14.908,8.758,29.443,16.026c14.535,7.267,22.175,8.572,30.933,13.976
		c8.758,5.404,10.435,13.231,10.994,23.107c0.559,9.876,3.168,22.175,2.236,30.188c-0.932,8.013,2.236,12.485-17.33,16.212
		c-19.566,3.727-87.21,3.168-87.21,3.168s-28.325,2.609-29.256,9.876s-1.118,19.007,0.745,26.275
		c1.863,7.268,1.677,17.33,2.423,26.834c0.745,9.504,4.1,45.282,4.1,45.282s-44.723,0-48.077,0c-3.354,0-3.354,0-3.354,0
		s-0.932-24.039-1.677-37.083c-0.745-13.044-0.932-15.094-2.609-22.175c-1.677-7.081-0.932,1.118-4.845-10.435
		c-3.913-11.553-3.541-7.826-3.541-7.826S746.646,857.084,744.224,861.929z"/>
	<path style="fill:#FFB62A;" d="M840.564,720.143c0,0-6.01-5.241-6.359-11.74c-0.349-6.499,4.053-8.665,4.053-8.665
		s-5.451-2.306-11.67,1.677s-7.617,8.193-7.617,8.193s-3.983-8.333-4.053-12.945c-0.07-4.612,0.559-25.017,0.559-27.323
		c0-2.306-0.28-20.894,1.188-30.188c1.468-9.294,4.263-25.576,13.207-34.8c8.945-9.224,18.798-12.019,23.969-13.976
		c5.171-1.957,9.504,4.682,13.627,4.053c4.123-0.629,25.855-10.692,29.909-13.068c4.053-2.376,13.696-3.704,18.658-0.489
		c4.961,3.214,19.077,11.111,22.082,16.631c3.005,5.521,7.617,36.337,7.896,38.923c0.279,2.586,0.489,12.928-0.699,34.101
		c-1.188,21.173-1.188,33.892,1.118,39.482c2.306,5.59,2.795,4.752,2.725,13.417c-0.07,8.665,1.887,11.111-1.817,13.836
		c-3.704,2.725-4.193-1.118-5.241,5.241c-1.048,6.359,1.118,9.364-3.564,13.766l-1.048,0.489c0,0,3.075-5.311-3.634-11.111
		c-6.708-5.8-23.619-9.853-34.87-16.771c-11.251-6.918-23.13-15.094-24.737-16.352c-1.607-1.258-8.106-3.214-14.395-3.564
		c-6.289-0.349-8.945-0.07-11.6,2.096c-2.655,2.166-6.08,3.354-6.149,8.386l-0.489,1.747L840.564,720.143z"/>
	<g>
		<path style="fill:#FF6B53;" d="M718.155,846.466l-2.276-1.126c0.263-0.531,26.385-53.317,35.235-70.096
			c8.91-16.893,13.435-24.358,28.346-24.156c14.423,0.193,92.005,5.636,109.471,9.723c8.684,2.033,13.154,4.039,16.417,5.504
			c3.22,1.445,4.832,2.171,8.099,1.741c0.727-0.096,1.408-0.176,2.049-0.251c5.57-0.654,7.067-0.83,8.236-7.108
			c1.451-7.799,1.284-20.678,1.283-20.807l2.539-0.036c0.007,0.538,0.17,13.263-1.326,21.308c-1.51,8.117-4.68,8.49-10.436,9.165
			c-0.629,0.074-1.299,0.153-2.014,0.247c-3.975,0.522-6.161-0.458-9.469-1.943c-3.169-1.422-7.51-3.37-15.956-5.347
			c-17.34-4.059-94.559-9.465-108.927-9.657c-0.188-0.002-0.376-0.004-0.561-0.004c-12.419,0-16.477,5.689-25.504,22.807
			C744.525,793.179,718.418,845.936,718.155,846.466z"/>
		<path style="fill:#F1F2F2;" d="M927.553,739.855c0.007,0.538,0.17,13.263-1.326,21.308c-1.51,8.117-4.68,8.49-10.436,9.165
			c-0.629,0.074-1.299,0.153-2.014,0.247c-0.736,0.097-1.411,0.142-2.043,0.142c-2.78,0-4.73-0.875-7.426-2.085
			c-3.169-1.422-7.51-3.37-15.956-5.347c-17.34-4.059-94.559-9.465-108.927-9.657c-0.188-0.002-0.376-0.004-0.561-0.004
			c-12.419,0-16.477,5.689-25.504,22.807c-8.835,16.749-34.942,69.506-35.205,70.036l-2.276-1.126
			c0.263-0.531,26.385-53.317,35.235-70.096c8.793-16.671,13.318-24.16,27.764-24.16c0.193,0,0.386,0.001,0.582,0.004
			c14.423,0.193,92.005,5.636,109.471,9.723c8.684,2.033,13.154,4.039,16.417,5.504c2.599,1.166,4.151,1.864,6.37,1.864
			c0.531,0,1.099-0.04,1.729-0.123c0.727-0.096,1.408-0.176,2.049-0.251c5.57-0.654,7.067-0.83,8.236-7.108
			c1.451-7.799,1.284-20.678,1.283-20.807L927.553,739.855 M928.388,738.996l-0.847,0.012l-2.539,0.036l-0.845,0.012l0.011,0.845
			c0.007,0.528,0.151,13.011-1.268,20.641c-1.055,5.665-2.039,5.781-7.503,6.422c-0.644,0.076-1.33,0.156-2.061,0.253
			c-0.591,0.078-1.12,0.115-1.618,0.115c-2.034,0-3.446-0.633-6.009-1.783c-3.308-1.485-7.818-3.51-16.586-5.563
			c-17.512-4.098-95.214-9.552-109.653-9.745c-0.2-0.003-0.397-0.004-0.594-0.004c-14.903,0-19.511,7.545-28.512,24.612
			c-8.887,16.849-34.984,69.588-35.245,70.115l-0.375,0.759l0.759,0.375l2.276,1.126l0.758,0.375l0.375-0.758l0.036-0.073
			c2.71-5.475,26.724-53.954,35.159-69.944c8.91-16.894,12.796-22.355,24.756-22.355c0.182,0,0.365,0.002,0.55,0.004
			c14.348,0.191,91.446,5.585,108.745,9.634c8.366,1.958,12.664,3.887,15.802,5.295c2.688,1.207,4.81,2.159,7.773,2.159
			c0.685,0,1.389-0.049,2.153-0.149c0.663-0.087,1.286-0.161,1.874-0.23l0.13-0.015c5.747-0.674,9.545-1.12,11.169-9.851
			c1.506-8.101,1.347-20.932,1.34-21.474L928.388,738.996L928.388,738.996z"/>
	</g>
	<g>
		<path style="fill:#FF6B53;" d="M797.358,919.109h2.543c-0.09-1.632-2.198-40.507-1.115-63.549
			c0.497-10.571,0.227-18.962,0.01-25.705c-0.264-8.18-0.438-13.583,0.987-16.576c2.438-5.122,2.584-5.428,12.586-5.706
			c9.263-0.256,15.985-0.035,16.865-0.004c-0.995-0.839-1.963-1.716-2.917-2.614c-3.004-0.054-7.97-0.089-14.02,0.08
			c-10.249,0.284-11.735,0.701-14.807,7.152c-1.69,3.549-1.508,9.198-1.232,17.749c0.216,6.698,0.485,15.034-0.008,25.504
			C795.181,878.161,797.194,916.097,797.358,919.109z"/>
		<path style="fill:#F1F2F2;" d="M796.51,919.109h0.848c-0.164-3.012-2.177-40.948-1.108-63.668
			c0.493-10.47,0.224-18.806,0.008-25.504c-0.275-8.551-0.458-14.2,1.232-17.749c3.072-6.452,4.558-6.868,14.807-7.152
			c3.345-0.094,6.364-0.125,8.902-0.125c2.048,0,3.776,0.02,5.117,0.045c-0.164-0.154-0.331-0.305-0.494-0.461
			c-0.14-0.133-0.279-0.267-0.419-0.4c-1.188-0.017-2.599-0.03-4.204-0.03c-2.955,0-5.958,0.042-8.926,0.125
			c-10.402,0.288-12.308,0.83-15.548,7.634c-1.778,3.733-1.594,9.46-1.314,18.128c0.216,6.69,0.485,15.001-0.007,25.448
			C794.343,877.968,796.33,915.774,796.51,919.109z"/>
		<path style="fill:#F1F2F2;" d="M829.233,807.57c-0.547-0.02-3.521-0.119-8.049-0.119c-2.513,0-5.501,0.031-8.816,0.122
			c-10.001,0.278-10.148,0.584-12.586,5.706c-1.425,2.993-1.25,8.396-0.987,16.576c0.217,6.742,0.488,15.134-0.01,25.705
			c-1.083,23.042,1.026,61.917,1.115,63.549h0.848c-0.028-0.506-2.214-40.178-1.118-63.509c0.499-10.608,0.228-19.016,0.01-25.771
			c-0.26-8.058-0.431-13.378,0.905-16.185c2.317-4.868,2.362-4.961,11.845-5.224c2.924-0.081,5.882-0.122,8.792-0.122
			c4.741,0,7.78,0.109,8.111,0.121l0.092,0.002c0.255,0,0.497-0.051,0.723-0.133C829.816,808.051,829.523,807.814,829.233,807.57z"
			/>
	</g>
	<path style="fill:none;stroke:#FF6B53;stroke-width:0.8463;stroke-linecap:round;stroke-linejoin:round;stroke-miterlimit:10;" d="
		M749.068,842.363c0,0-0.186-18.076,1.118-30.933c1.304-12.858,2.982-15.839,8.013-21.616c5.031-5.777,4.472-9.114,15.28-8.657
		c10.808,0.457,12.112-6.624,32.611,8.098c20.498,14.721,29.256,23.852,33.17,23.852"/>
	<path style="fill:none;stroke:#FF6B53;stroke-width:0.8463;stroke-linecap:round;stroke-linejoin:round;stroke-miterlimit:10;" d="
		M768.029,768.011c0,0-4.263,9.52,6.639,13.146"/>
	<path style="fill:none;stroke:#FF6B53;stroke-width:0.8463;stroke-linecap:round;stroke-linejoin:round;stroke-miterlimit:10;" d="
		M772.641,758.787c0,0,5.451,20.545,14.186,21.173"/>
	<path style="fill:none;stroke:#FF6B53;stroke-width:0.8463;stroke-linecap:round;stroke-linejoin:round;stroke-miterlimit:10;" d="
		M778.022,794.286c0,0,7.951,14.186,17.917,19.007"/>
	<path style="fill:none;stroke:#FF6B53;stroke-width:0.8463;stroke-linecap:round;stroke-linejoin:round;stroke-miterlimit:10;" d="
		M766.212,809.1c0,0-0.559,36.477,22.361,75.33"/>
	<path style="fill:none;stroke:#FF6B53;stroke-width:0.8463;stroke-linecap:round;stroke-linejoin:round;stroke-miterlimit:10;" d="
		M772.641,804.912c0,0,8.386,22.217,16.631,27.249"/>
	<path style="fill:none;stroke:#FF6B53;stroke-width:0.8463;stroke-linecap:round;stroke-linejoin:round;stroke-miterlimit:10;" d="
		M917.572,771.365c0,0,12.858,11.321,15.653,19.147"/>
	<path style="fill:none;stroke:#FF6B53;stroke-width:0.8463;stroke-linecap:round;stroke-linejoin:round;stroke-miterlimit:10;" d="
		M924.7,769.968c0,0,5.031,1.036,12.019,9.882"/>
	<path style="fill:none;stroke:#FF6B53;stroke-width:0.8463;stroke-linecap:round;stroke-linejoin:round;stroke-miterlimit:10;" d="
		M908.487,771.365c0,0,6.289,5.031,12.578,15.933"/>
	<path style="fill:none;stroke:#FF6B53;stroke-width:0.8463;stroke-linecap:round;stroke-linejoin:round;stroke-miterlimit:10;" d="
		M862.926,745.09c0,0,10.901-2.935,21.383,2.376c10.482,5.311,20.265,16.072,20.265,16.072"/>
	<path style="fill:none;stroke:#FF6B53;stroke-width:0.8463;stroke-linecap:round;stroke-linejoin:round;stroke-miterlimit:10;" d="
		M916.034,764.237c0,0-7.547-6.336-19.659-10.016c-7.794-2.368,23.293,3.727,23.293,3.727"/>
	<path style="fill:none;stroke:#FF6B53;stroke-width:0.8463;stroke-linecap:round;stroke-linejoin:round;stroke-miterlimit:10;" d="
		M875.644,717.977c0,0-6.988,3.214-8.106,7.128c-1.118,3.913-0.978,4.752-2.795,8.525c-1.817,3.773-4.053,7.547-2.935,9.504
		s1.118,1.957,1.118,1.957"/>
	<path style="fill:none;stroke:#FF6B53;stroke-width:0.8463;stroke-linecap:round;stroke-linejoin:round;stroke-miterlimit:10;" d="
		M865.581,747.047c0,0-14.628-7.257-26.321-7.192"/>
	<path style="fill:none;stroke:#FF6B53;stroke-width:0.8463;stroke-linecap:round;stroke-linejoin:round;stroke-miterlimit:10;" d="
		M888.642,722.31c0,0-7.687,0.699-3.354,6.289c4.333,5.59,19.706,8.676,28.231,11.256c8.525,2.58,10.063,2.72,10.063,2.72"/>
	<path style="fill:none;stroke:#FF6B53;stroke-width:0.8463;stroke-linecap:round;stroke-linejoin:round;stroke-miterlimit:10;" d="
		M933.225,751.799c0,0,1.817,5.031,1.537,12.439c-0.279,7.407,0.699,9.084,0.699,9.084s0.978,4.21-0.419,7.835
		c-1.398,3.625-0.559,6.84-0.559,6.84l-1.957,9.364v3.494"/>
	<path style="fill:none;stroke:#FF6B53;stroke-width:0.8463;stroke-linecap:round;stroke-linejoin:round;stroke-miterlimit:10;" d="
		M868.576,738.522c0,0,1.198-3.494,22.442,0"/>
	<path style="fill:none;stroke:#FF6B53;stroke-width:0.8463;stroke-linecap:round;stroke-linejoin:round;stroke-miterlimit:10;" d="
		M867.818,742.575c0,0,12.858-3.913,24.178,0"/>
	<path style="fill:none;stroke:#FF6B53;stroke-width:0.8463;stroke-linecap:round;stroke-linejoin:round;stroke-miterlimit:10;" d="
		M867.818,718.536c0,0-0.699,0.699-4.892,7.407c-4.193,6.708-7.128,9.224-6.149,13.976"/>
	<path style="fill:none;stroke:#FF6B53;stroke-width:0.8463;stroke-linecap:round;stroke-linejoin:round;stroke-miterlimit:10;" d="
		M859.711,722.31c0,0-3.354-1.677-11.041-0.699"/>
	<path style="fill:none;stroke:#FF6B53;stroke-width:0.8463;stroke-linecap:round;stroke-linejoin:round;stroke-miterlimit:10;" d="
		M826.317,612.599c0,0-3.921,19.287-2.244,26.834c1.677,7.547,4.172,13.696,5.161,16.492c0.989,2.795,0.709,2.236,1.827,9.504
		c1.118,7.267,1.957,15.653,4.193,19.287c2.236,3.634,5.311,12.019,5.311,12.019"/>
	<path style="fill:none;stroke:#FF6B53;stroke-width:0.8463;stroke-linecap:round;stroke-linejoin:round;stroke-miterlimit:10;" d="
		M856.587,653.967c0,0-5.401,7.407-7.917,18.588c-2.516,11.181-8.246,19.007-7.128,11.46c1.118-7.547,5.311-24.738,1.957-31.586"/>
	<path style="fill:none;stroke:#FF6B53;stroke-width:0.8463;stroke-linecap:round;stroke-linejoin:round;stroke-miterlimit:10;" d="
		M921.765,597.924c0,0-17.47,8.386-21.523,19.287c-4.053,10.901-3.215,22.082-3.354,25.297c-0.14,3.214-7.268,11.88-7.407,19.287"/>
	<path style="fill:none;stroke:#FF6B53;stroke-width:0.8463;stroke-linecap:round;stroke-linejoin:round;stroke-miterlimit:10;" d="
		M896.571,643.849c3.737-14.031,31.836-12.383,31.836-12.383"/>
	<path style="fill:none;stroke:#FF6B53;stroke-width:0.8463;stroke-linecap:round;stroke-linejoin:round;stroke-miterlimit:10;" d="
		M921.765,612.599c0,0-17.051,12.858-21.802,23.2"/>
	<path style="fill:none;stroke:#FF6B53;stroke-width:0.8463;stroke-linecap:round;stroke-linejoin:round;stroke-miterlimit:10;" d="
		M923.581,619.027c0,0-13.696,5.311-16.911,13.557"/>
	<path style="fill:none;stroke:#FF6B53;stroke-width:0.8463;stroke-linecap:round;stroke-linejoin:round;stroke-miterlimit:10;" d="
		M924.7,640.83c0,0-3.64,4.315-18.309,8.525"/>
	<path style="fill:none;stroke:#FF6B53;stroke-width:0.8463;stroke-linecap:round;stroke-linejoin:round;stroke-miterlimit:10;" d="
		M894.232,671.018c0,0,7.128,0.699,8.525,7.407"/>
	<path style="fill:none;stroke:#FF6B53;stroke-width:0.8463;stroke-linecap:round;stroke-linejoin:round;stroke-miterlimit:10;" d="
		M918.271,653.967c0,0-20.618,10.482-21.699,15.094"/>
	<path style="fill:none;stroke:#FF6B53;stroke-width:0.8463;stroke-linecap:round;stroke-linejoin:round;stroke-miterlimit:10;" d="
		M938.955,609.664c0,0-0.839,12.159-3.774,27.393c-2.935,15.234-4.193,28.092-6.149,37.036c-1.957,8.945,1.258,11.321-4.752,19.706
		c-6.01,8.386-8.735,9.364-8.735,9.364"/>
	<path style="fill:none;stroke:#FF6B53;stroke-width:0.8463;stroke-linecap:round;stroke-linejoin:round;stroke-miterlimit:10;" d="
		M927.25,694.497c0,0,19.112,19.706,17.854,25.436c-1.258,5.73-28.511-1.398-28.511-1.398"/>
	<path style="fill:none;stroke:#FF6B53;stroke-width:0.8463;stroke-linecap:round;stroke-linejoin:round;stroke-miterlimit:10;" d="
		M867.818,695.196c0,0,0.559,5.171-3.214,3.773c-3.774-1.398-10.814-8.525-15.609-6.569c-4.796,1.957-5.914,3.235-5.914,3.235"/>
	<path style="fill:none;stroke:#FF6B53;stroke-width:0.8463;stroke-linecap:round;stroke-linejoin:round;stroke-miterlimit:10;" d="
		M843.08,701.765c0,0,6.318-7.627,12.383-2.556c6.065,5.071,8.581,7.168,16.547,8.146"/>
	<path style="fill:none;stroke:#FF6B53;stroke-width:0.8463;stroke-linecap:round;stroke-linejoin:round;stroke-miterlimit:10;" d="
		M835.673,694.497c0,0-6.988-1.537-9.923,2.236"/>
	<path style="fill:none;stroke:#FF6B53;stroke-width:0.8463;stroke-linecap:round;stroke-linejoin:round;stroke-miterlimit:10;" d="
		M833.996,690.584c0,0-14.255-0.797-17.33,5.052"/>
	<path style="fill:#FFFFFF;stroke:#FF6B53;stroke-width:0.8463;stroke-linejoin:round;stroke-miterlimit:10;" d="M837.49,699.808
		c0,0-8.568-1.864-13.834,3.354c-5.266,5.218-4.8,7.454-4.8,7.454s-1.677,1.305-8.945,5.218c-7.267,3.913-19.566,7.268-19.566,7.268
		l6.802,7.92c0,0,12.951-1.77,15.094-3.075c2.143-1.304,2.143-0.745,2.143-0.745s1.304,6.382,5.125,5.241
		c3.82-1.141,11.833-8.129,12.019-9.527c0.186-1.398,7.547-0.679,7.733-2.529c0.186-1.85,0-9.117,0-9.117L837.49,699.808z"/>
	<path style="fill:#3A5FAA;" d="M842.241,604.632c0,0-7.267,21.687-15.653,32.995c-8.385,11.308-2.096,12.706-14.815,14.103
		c0,0,8.665,1.677,12.578-2.376c0,0,1.959,8.386,7.758,9.643c0,0-2.307-0.978-1.748-3.773c0,0,1.118,2.516,3.634,3.075
		c2.516,0.559,9.923-0.978,9.923-0.978s-4.472-8.525-4.752-14.675c-0.28-6.149,0.419-8.246,0.419-8.246s4.472,7.128,12.998,7.826
		c0,0-9.923-10.342-8.805-15.793s10.202-15.374,10.202-15.374L842.241,604.632z"/>
	<g>
		<path style="fill:#FFFFFF;" d="M894.24,719.963c-2.287,0-4.171-0.956-5.929-3.007c-2.829-3.3-11.695-18.283-19.361-32.72
			c-5.285-9.953-8.845-25.407-11.704-37.824c-1.314-5.702-2.448-10.626-3.514-13.957c-3.059-9.561-4.685-10.763-7.144-12.583
			c-0.265-0.195-0.539-0.398-0.826-0.621c-2.669-2.066-8.406-14.121-8.501-20.17c-0.024-1.583,0.302-2.729,0.969-3.407
			c0.478-0.485,1.136-0.732,1.952-0.732c0.659,0,1.178,0.168,1.183,0.169c0.043,0.015,0.088,0.021,0.132,0.021
			c0.097,0,0.191-0.032,0.268-0.095c0.112-0.091,0.17-0.232,0.154-0.376c-0.188-1.663,0.061-2.908,0.74-3.701
			c0.697-0.813,1.609-0.857,1.648-0.859c0.227-0.009,0.408-0.195,0.408-0.423c0-1.764,0.627-5.099,2.996-5.099
			c0.113,0,0.229,0.007,0.351,0.021c2.835,0.343,4.982,3.685,5.004,3.72c0.08,0.126,0.217,0.196,0.357,0.196
			c0.068,0,0.137-0.017,0.2-0.051c0.196-0.104,0.276-0.344,0.186-0.546c-2.777-6.163-9.589-22.771-7.779-25.573
			c0.132-0.204,0.305-0.295,0.56-0.295c0.136,0,0.293,0.026,0.468,0.079c3.475,1.042,7.991,9.315,12.394,22.697
			c0.221,0.671,0.261,0.793,0.571,0.793h0.001c0.132,0,0.256-0.062,0.336-0.166c0.129-0.168,0.088-0.321,0.041-0.499
			c-0.186-0.693-0.102-1.316,0.235-1.754c0.246-0.321,0.611-0.513,0.976-0.513c0.152,0,0.296,0.033,0.427,0.1
			c1.014,0.62,8.899,13.43,10.581,16.457c0.751,1.352,0.105,8.487-0.412,14.222c-0.409,4.527-0.796,8.804-0.618,10.768
			c0.416,4.576,6.354,19.658,16.54,38.596c9.398,17.472,24.485,36.549,25.929,38.36c-0.894,7.43-8.944,14.947-14.223,17.33
			C897.689,719.492,895.859,719.963,894.24,719.963L894.24,719.963z"/>
		<path style="fill:#FF6B53;" d="M846.59,561.629l0,0.846c0.065,0,0.179,0.011,0.347,0.061c3.292,0.988,7.82,9.371,12.113,22.427
			c0.214,0.651,0.355,1.081,0.973,1.081c0.263,0,0.511-0.122,0.671-0.331c0.257-0.334,0.168-0.667,0.115-0.866
			c-0.15-0.563-0.093-1.056,0.162-1.387c0.167-0.217,0.407-0.347,0.641-0.347c0.072,0,0.139,0.013,0.201,0.038
			c1.224,1.038,8.844,13.435,10.436,16.302c0.687,1.237,0.022,8.6-0.464,13.976c-0.411,4.548-0.799,8.844-0.617,10.846
			c0.42,4.618,6.377,19.771,16.589,38.758c9.212,17.127,23.876,35.787,25.858,38.284c-0.979,7.219-8.806,14.496-13.954,16.821
			c-2.089,0.944-3.862,1.402-5.421,1.402c-2.154,0-3.936-0.908-5.608-2.859c-2.816-3.285-11.658-18.233-19.309-32.643
			c-5.259-9.905-8.812-25.329-11.666-37.723c-1.315-5.71-2.451-10.641-3.522-13.989c-3.101-9.69-4.77-10.925-7.296-12.794
			c-0.262-0.194-0.534-0.395-0.818-0.615c-2.55-1.974-8.246-14.023-8.337-19.842c-0.023-1.466,0.262-2.51,0.847-3.104
			c0.396-0.402,0.952-0.606,1.651-0.606c0.584,0,1.047,0.147,1.047,0.147c0.088,0.029,0.178,0.043,0.268,0.043
			c0.191,0,0.38-0.065,0.533-0.189c0.224-0.182,0.341-0.466,0.308-0.753c-0.171-1.511,0.047-2.675,0.631-3.366
			c0.57-0.674,1.325-0.723,1.346-0.724c0.458-0.013,0.823-0.388,0.823-0.846c0-0.848,0.16-2.112,0.609-3.117
			c0.694-1.553,1.644-1.559,1.961-1.559c0.001,0,0.002,0,0.004,0c0.096,0,0.196,0.006,0.299,0.019
			c2.631,0.319,4.677,3.494,4.697,3.525c0.16,0.254,0.434,0.395,0.716,0.395c0.136,0,0.273-0.033,0.4-0.101
			c0.391-0.211,0.553-0.688,0.371-1.093c-4.107-9.114-9.245-22.947-7.81-25.169c0.047-0.072,0.078-0.102,0.205-0.102L846.59,561.629
			 M846.59,561.629c-5.096-0.003,6.833,26.465,6.833,26.465s-2.236-3.541-5.311-3.913c-0.138-0.017-0.272-0.025-0.401-0.025
			c-2.74,0-3.419,3.653-3.419,5.522c0,0-3.354,0.093-2.795,5.031c0,0-0.572-0.191-1.315-0.191c-1.399,0-3.404,0.675-3.344,4.57
			c0.093,5.963,5.777,18.262,8.665,20.498c2.888,2.236,4.472,2.516,7.827,12.998c3.354,10.482,7.48,37.223,15.247,51.851
			c7.767,14.628,16.618,29.536,19.414,32.797c1.711,1.996,3.666,3.154,6.25,3.154c1.638,0,3.528-0.465,5.769-1.477
			c5.777-2.609,13.696-10.342,14.488-17.843c0,0-16.072-19.986-25.995-38.434c-9.923-18.448-16.072-33.822-16.492-38.434
			c-0.419-4.612,2.376-22.641,0.978-25.157s-9.643-16.072-10.762-16.631c-0.193-0.097-0.403-0.143-0.616-0.143
			c-1.016,0-2.083,1.065-1.62,2.799c0.024,0.089,0.034,0.132,0.032,0.132c-0.056,0-6.599-21.599-12.843-23.472
			C846.962,561.661,846.765,561.629,846.59,561.629L846.59,561.629z"/>
	</g>
	<path style="fill:#63CDC4;" d="M835.573,734.208l-39.634-3.792l-37.972-58.14c0,0,2.096-0.978-4.752-1.957
		c-6.848-0.978-67.504-3.214-67.504-3.214s-2.516,0.28,0,3.913c2.516,3.634,37.036,56.183,37.036,56.183s1.957,2.935,4.892,3.215
		c2.935,0.279,105.414,7.687,105.414,7.687L835.573,734.208z"/>
	<path style="fill:none;stroke:#FF6B53;stroke-width:0.8463;stroke-linecap:round;stroke-linejoin:round;stroke-miterlimit:10;" d="
		M807.767,720.073c0,0-11.367,5.311-12.485,8.059"/>
	<path style="fill:none;stroke:#FF6B53;stroke-width:0.8463;stroke-linecap:round;stroke-linejoin:round;stroke-miterlimit:10;" d="
		M822.209,720.819c0,0-6.114,5.078-7.296,6.569"/>
	<path style="fill:none;stroke:#FF6B53;stroke-width:0.8463;stroke-linecap:round;stroke-linejoin:round;stroke-miterlimit:10;" d="
		M887.384,540.343c0,0-0.28,10.901-2.376,14.535c-2.096,3.634-15.234,16.352-23.619,18.308"/>
	<path style="fill:#3A5FAA;" d="M833.017,514.487c0,0,4.193-11.46,10.063-12.299c0,0,9.364-2.376,14.814,0.699
		c5.451,3.075,9.783,9.224,13.277,12.578c3.494,3.354,9.084,3.634,9.084,3.634v18.308l2.006-3.354l3.025-10.203
		c0,0,1.853-7.292,5.342-7.114c5.558,0.284,7.321,8.798,7.185,13.08c-0.122,3.836-6.378,9.5-8.334,9.64
		c0,0-1.677,8.432-2.516,23.107c-0.839,14.675-1.957,35.359-5.031,47.099s-9.24,17.714-9.24,17.714l5.327-3.878l-2.353,4.892
		l5.428,6.708c0,0,9.57-9.224,15.477-20.405c5.906-11.181,12.056-26.554,9.54-55.764c-2.516-29.21-3.634-45.422-11.181-55.764
		s-17.051-18.169-27.672-17.61c-10.622,0.559-17.889,2.516-23.759,7.687C837.629,498.415,832.738,503.027,833.017,514.487z"/>
	<path style="fill:#FF6B53;" d="M789.226,947.462c0,0-14.91,22.362-23.015,27.113c-8.105,4.752-17.608,7.827-12.298,11.181
		c5.311,3.354,5.03,6.149,23.479,4.193c18.449-1.957,19.287-5.311,24.039-5.87c4.752-0.559,3.204-8.945,13.481-10.063
		c10.278-1.118,9.439-0.28,9.439-0.28l-8.112-27.672C816.24,946.065,793.223,948.301,789.226,947.462z"/>
	<path style="fill:none;stroke:#FF6B53;stroke-width:0.8463;stroke-linecap:round;stroke-linejoin:round;stroke-miterlimit:10;" d="
		M753.913,983.939c0,0-4.612,3.494-3.913,7.827c0.699,4.333,14.116,6.708,26.554,5.59s17.889-2.655,20.265-4.193
		c2.376-1.537,4.612-2.655,5.59-1.258c0.978,1.398,9.224,2.655,17.889-0.419c8.665-3.075,9.623-5.451,8.934-9.224
		c-0.688-3.773-7.657-11.6-7.657-11.6"/>
	<path style="fill:#FF6B53;" d="M682.636,885.968c0,0-7.687,7.966-21.243,12.718c-13.557,4.752-32.284,6.289-31.725,8.525
		c0.559,2.236-1.258,11.041,19.007,16.212c20.265,5.171,27.113,6.01,34.66,3.354s19.706-6.848,27.253-6.149s8.805,0,8.386-5.59
		c-0.419-5.59-1.537-19.427-1.537-19.427s-6.708,8.246-16.631,6.289c-9.923-1.957-13.417-14.954-14.954-15.933
		C684.313,884.99,683.754,883.732,682.636,885.968z"/>
	<path style="fill:none;stroke:#FF6B53;stroke-width:0.8463;stroke-linecap:round;stroke-linejoin:round;stroke-miterlimit:10;" d="
		M631.904,908.19c0,0-6.01-1.537-7.267,5.031c-1.258,6.569,17.47,19.566,34.241,21.383c16.771,1.817,25.017-1.118,27.952,0
		c2.935,1.118,25.017,5.59,30.188-0.419c5.171-6.01,3.773-11.844,0-15.076c-3.774-3.232-16.492-10.36-16.492-10.36"/>
	<path style="fill:#63CDC4;" d="M805.345,825.312c0,0,4.379-9.364,16.864-10.063c12.485-0.699,35.126-2.277,47.705-4.143
		c12.578-1.866,16.771-6.051,26.694-6.195c9.923-0.144,19.287,0.843,30.188,0c10.901-0.843,13.836-4.616,15.793-9.648
		c0,0,3.075,9.643-1.258,16.631c-4.333,6.988-35.639,18.868-49.615,22.641c-13.976,3.773-38.574,3.354-51.571,3.214
		c-12.998-0.14-14.675-5.451-22.781-6.848c-8.106-1.398-13.137-1.537-13.137-1.537S803.109,827.129,805.345,825.312z"/>
	<path style="fill:none;stroke:#445AB2;stroke-width:0.8463;stroke-linecap:round;stroke-linejoin:round;stroke-miterlimit:10;" d="
		M943.8,791.397c0,0-1.211,13.324-14.908,13.696c-13.696,0.373-34.008-2.236-38.201-0.093c-4.193,2.143-26.088,13.79-39.319,16.585
		c-13.23,2.795-34.154,4.286-38.786,4.193c-4.632-0.093-6.775,0.004-6.775,0.004"/>
	<polygon style="fill:#FFFFFF;" points="842.131,503.749 855.764,490.853 844.341,503.749 	"/>
</g>
<g id="Man">
	<polygon style="fill:#63CDC4;" points="220.902,455.48 207.119,452.908 207.119,469.276 222.56,465.981 	"/>
	<path style="fill:#63CDC4;" d="M305.841,972.981c-11.929-9.735-17.825-23.035-17.825-23.035l-32.359,9.735
		c-0.411,3.976-1.097,8.775,2.194,11.106c3.291,2.331,12.34,6.719,19.607,10.284c7.267,3.565,11.106,10.695,23.995,15.206
		c12.889,4.511,19.196-1.083,20.841-2.18C323.94,992.999,317.77,982.716,305.841,972.981z"/>
	<path style="fill:none;stroke:#445AB2;stroke-width:1.2455;stroke-linecap:round;stroke-linejoin:round;stroke-miterlimit:10;" d="
		M184.769,982.03c0,0,1.239-1.242,5.244-4.799c5.52-4.902,1.063-14.603,1.063-14.603"/>
	<path style="fill:none;stroke:#445AB2;stroke-width:1.2455;stroke-linecap:round;stroke-linejoin:round;stroke-miterlimit:10;" d="
		M151.314,996.564c0,0,2.331,9.049,11.38,11.106s18.648-0.132,22.555-8.09c2.71-5.519,1.234-15.425,1.234-15.425"/>
	<path style="fill:#63CDC4;" d="M164.339,948.986c0,0,0.548,14.534-2.331,18.648c-2.879,4.113-11.243,15.768-9.187,23.721
		s7.678,9.461,17.413,8.775c9.735-0.686,15.357-7.404,16.591-12.752c1.234-5.347-1.097-8.079,0.823-12.746
		c1.92-4.667,7.267-6.175,7.13-12.894c-0.137-6.719-0.96-10.969-0.96-10.969L164.339,948.986z"/>
	<g>
		<path style="fill:#FFFFFF;" d="M198.452,484.142l13.65-21.578l4.692-5.911c0.083-0.103,0.13-0.231,0.134-0.364l1.073-29.205
			c0.008-0.204-0.085-0.398-0.248-0.521c-0.109-0.083-0.241-0.125-0.374-0.125c-0.065,0-0.131,0.01-0.195,0.031
			c0.001-0.001,0.001-0.001,0.001-0.001c-0.001,0-0.156,0.043-0.412,0.043c-0.947,0-3.372-0.589-5.438-6.047
			c-2.247-5.94-1.775-13.495,0.149-16.28c0.497-0.72,1.059-1.085,1.669-1.085l0.123,0.005c2.907,0.218,3.425,0.897,3.483,0.991
			c0.03,0.267,0.229,0.49,0.5,0.542c0.04,0.008,0.08,0.012,0.12,0.012c0.26,0,0.498-0.164,0.587-0.417l8.962-25.485
			c0.783-0.832,7.302-7.434,16.779-7.434c1.376,0,2.772,0.14,4.15,0.415c16.921,3.384,25.81,8.537,27.173,15.753
			c1.32,6.987-0.955,19.994-2.46,28.6c-0.456,2.604-0.849,4.852-1.042,6.376c-1.537,12.102-3.808,20.021-6.75,23.537
			c-4.128,4.933-8.311,8.42-8.353,8.455c-0.131,0.109-0.212,0.266-0.224,0.436l-1.138,16.134c-0.003,0.04-0.002,0.08,0.003,0.12
			l2.798,22.743l-16.762,16.613L198.452,484.142z"/>
		<path style="fill:#FF6B53;" d="M243.707,371.937c1.335,0,2.691,0.136,4.028,0.403c16.645,3.329,25.373,8.32,26.683,15.258
			c1.299,6.877-0.964,19.817-2.462,28.38c-0.456,2.61-0.851,4.863-1.046,6.401c-1.521,11.981-3.745,19.792-6.61,23.215
			c-4.088,4.885-8.231,8.342-8.273,8.376c-0.261,0.217-0.423,0.532-0.447,0.871l-1.138,16.134c-0.006,0.08-0.004,0.16,0.006,0.24
			l2.76,22.44l-16.197,16.053l-41.697-25.766l13.277-20.99l4.689-5.913c0.165-0.208,0.259-0.463,0.269-0.728l1.073-29.205
			c0.015-0.407-0.151-0.802-0.477-1.047c-0.221-0.166-0.478-0.255-0.742-0.255c-0.125,0-0.252,0.02-0.377,0.061
			c-0.001,0-0.095,0.023-0.256,0.023c-0.638,0-2.873-0.407-4.855-5.645c-2.147-5.673-1.72-13.101,0.079-15.706
			c0.374-0.542,0.764-0.816,1.157-0.816c0.025,0,0.051,0.001,0.077,0.003c2.06,0.155,2.77,0.539,2.96,0.673
			c0.133,0.425,0.491,0.76,0.95,0.85c0.08,0.016,0.16,0.023,0.239,0.023c0.519,0,0.996-0.326,1.174-0.832l8.918-25.359
			C228.523,377.991,234.773,371.937,243.707,371.937 M243.707,370.692c-10.48,0-17.323,7.729-17.323,7.729l-9.005,25.606
			c0,0,0.058-1.234-4.055-1.542c-0.057-0.004-0.114-0.006-0.17-0.006c-3.98,0-5.24,10.704-2.401,18.208
			c2.174,5.746,4.843,6.45,6.02,6.45c0.382,0,0.606-0.074,0.606-0.074l-1.073,29.205l-4.73,5.965l-13.986,22.11l43.602,26.943
			l17.328-17.173l-2.835-23.047l1.138-16.134c0,0,4.216-3.496,8.432-8.535c4.216-5.039,6.067-17.379,6.89-23.858
			c0.823-6.479,5.245-25.914,3.496-35.17c-1.748-9.255-14.808-13.677-27.663-16.248
			C246.497,370.823,245.072,370.692,243.707,370.692L243.707,370.692z"/>
	</g>
	<g>
		<path style="fill:#FFFFFF;" d="M406.448,609.314c-1.571,0-5.865-2.426-7.386-3.36c-0.099-0.06-0.212-0.093-0.327-0.093
			c-0.03,0-0.061,0.003-0.091,0.007c-0.013,0.002-1.286,0.188-3.508,0.188c-2.318,0-6.05-0.205-10.668-1.184
			c-4.575-0.969-6.74-2.4-8.32-3.446c-1.11-0.734-1.987-1.314-3.165-1.314c-0.332,0-0.672,0.046-1.038,0.141
			c-3.462,0.893-24.013,4.72-39.879,5.533c-0.982,0.051-1.985,0.076-2.983,0.076c-14.301,0-25.608-5.21-25.721-5.263
			c-2.22-0.892-3.227-3.029-3.534-3.826l21.898-25.408c1.725,0.88,8.362,4.184,17.483,7.722c7.057,2.736,14.731,3.087,20.629,3.087
			c3.08,0,6.142-0.111,9.103-0.22c1.579-0.057,3.132-0.113,4.65-0.152c7.957-0.201,14.199-1.279,18.757-2.066
			c1.711-0.296,3.189-0.551,4.479-0.715c1.148-0.146,2.677-0.218,4.674-0.218c3.334,0,7.524,0.199,11.959,0.41
			c2.72,0.13,5.538,0.265,8.324,0.36c8.521,0.295,14.457,3.239,17.31,4.655c0.415,0.205,0.761,0.377,1.035,0.5
			c0.633,0.286,0.992,0.708,0.936,1.102c-0.072,0.511-0.836,1.126-2.38,1.349c-0.314,0.045-0.667,0.067-1.077,0.067
			c-1.459,0-3.338-0.283-5.514-0.611c-2.915-0.439-6.218-0.938-9.672-0.938l-0.349,0.001c-7.267,0.073-8.383,0.084-8.877,1.517
			c-0.443,1.285,1.672,2.142,4.351,3.226c0.757,0.307,1.472,0.596,2.037,0.865c1.883,0.897,1.94,3.478,1.038,5.451
			c-0.478,1.046-2.087,1.266-3.353,1.266c-1.115,0-2.056-0.177-2.065-0.178c-0.039-0.008-0.078-0.012-0.117-0.012
			c-0.275,0-0.524,0.183-0.6,0.457c-0.086,0.313,0.081,0.639,0.385,0.751c0.146,0.055,0.491,0.233,0.61,0.427
			c0.124,0.232,0.236,1.613-0.825,3.36c-0.668,1.1-3.092,1.484-4.256,1.669c-0.86,0.136-1.216,0.192-1.343,0.64
			c-0.066,0.233,0.023,0.514,0.207,0.672c0.066,0.058,0.191,0.143,0.352,0.247c0.439,0.286,1.465,0.954,1.282,1.487
			C410.63,608.323,408.482,609.314,406.448,609.314z"/>
		<path style="fill:#FF6B53;" d="M321.88,572.14c2.247,1.131,8.603,4.228,17.104,7.525c7.153,2.774,14.902,3.13,20.854,3.13
			c3.094,0,6.164-0.112,9.132-0.22c1.574-0.057,3.123-0.114,4.637-0.152c8.002-0.203,14.27-1.285,18.847-2.075
			c1.704-0.294,3.175-0.548,4.451-0.711c1.123-0.143,2.627-0.213,4.599-0.213c3.319,0,7.5,0.199,11.926,0.41
			c2.724,0.13,5.541,0.264,8.332,0.361c8.39,0.29,14.244,3.195,17.057,4.592c0.422,0.209,0.774,0.383,1.052,0.509
			c0.445,0.201,0.569,0.412,0.576,0.446c-0.024,0.145-0.527,0.628-1.853,0.82c-0.28,0.04-0.612,0.061-0.986,0.061
			c-1.412,0-3.27-0.28-5.421-0.604c-2.937-0.443-6.265-0.945-9.766-0.945l-0.355,0.002c-7.476,0.075-8.823,0.088-9.46,1.936
			c-0.636,1.843,1.722,2.798,4.706,4.006c0.748,0.303,1.454,0.589,2.003,0.85c1.524,0.726,1.518,2.927,0.74,4.631
			c-0.258,0.565-1.299,0.902-2.786,0.902c-1.051,0-1.941-0.166-1.949-0.167c-0.079-0.015-0.157-0.022-0.234-0.022
			c-0.544,0-1.034,0.361-1.19,0.902c-0.179,0.618,0.149,1.273,0.748,1.508c0.094,0.037,0.214,0.106,0.274,0.148
			c0.051,0.32,0.031,1.378-0.794,2.737c-0.518,0.853-2.918,1.233-3.822,1.376c-0.899,0.142-1.609,0.255-1.845,1.085
			c-0.133,0.467,0.032,0.998,0.4,1.315c0.116,0.1,0.249,0.187,0.418,0.296c0.669,0.436,0.919,0.683,1.002,0.821
			c-0.308,0.467-2.035,1.295-3.829,1.295c-1.198,0-4.85-1.912-7.061-3.27c-0.197-0.121-0.424-0.184-0.653-0.184
			c-0.061,0-0.121,0.004-0.182,0.013c-0.012,0.002-1.252,0.181-3.419,0.181c-2.288,0-5.973-0.203-10.537-1.169
			c-4.459-0.944-6.567-2.339-8.106-3.357c-1.15-0.761-2.143-1.418-3.508-1.418c-0.386,0-0.776,0.052-1.193,0.16
			c-3.448,0.89-23.927,4.703-39.756,5.515c-0.971,0.05-1.964,0.075-2.952,0.075c-14.148,0-25.345-5.152-25.456-5.204
			c-0.021-0.01-0.043-0.019-0.064-0.028c-1.705-0.684-2.62-2.257-3.01-3.12L321.88,572.14 M321.575,570.586l-22.452,26.052
			c0,0,0.952,3.312,3.976,4.525c0,0,11.365,5.321,25.984,5.321c0.992,0,1.997-0.024,3.016-0.077
			c16.042-0.823,36.815-4.73,40.003-5.553c0.319-0.082,0.609-0.12,0.881-0.12c2.453,0,3.489,3.082,11.356,4.748
			c4.559,0.966,8.279,1.196,10.795,1.196c2.307,0,3.602-0.194,3.602-0.194s5.622,3.454,7.713,3.454c2.091,0,4.628-0.994,5.039-2.194
			c0.411-1.2-1.508-2.143-1.817-2.408s4.353-0.266,5.519-2.185c1.165-1.92,1.097-3.565,0.823-4.011s-0.926-0.685-0.926-0.685
			s0.989,0.19,2.183,0.19c1.493,0,3.309-0.296,3.918-1.629c1.097-2.399,0.823-5.245-1.337-6.273c-2.16-1.028-6.41-2.331-6.067-3.325
			c0.343-0.994,1.44-1.028,8.295-1.097c0.114-0.001,0.229-0.002,0.343-0.002c6.002,0,11.704,1.549,15.186,1.549
			c0.422,0,0.811-0.023,1.164-0.074c3.325-0.48,3.736-2.674,1.611-3.634c-2.125-0.96-8.672-4.867-18.579-5.21
			c-7.34-0.254-14.907-0.771-20.301-0.771c-1.885,0-3.505,0.063-4.757,0.223c-4.833,0.617-12.34,2.502-23.172,2.777
			c-4.369,0.111-9.031,0.372-13.737,0.372c-6.961,0-14.023-0.571-20.404-3.046C328.739,574.356,321.575,570.586,321.575,570.586
			L321.575,570.586z"/>
	</g>
	<path style="fill:#63CDC4;" d="M175.252,645.995c0,0,0.056-0.442-2.48-4.555c-2.537-4.113-2.262-8.227-2.125-12.82
		c0.137-4.593,6.17-12.135,6.307-14.123c0.137-1.988-0.548-1.988-0.548-1.988s-8.432,0.754-12.82-2.948
		c-4.388-3.702-6.376-10.832-9.529-19.196c-3.154-8.364-5.279-12.066-7.199-21.458c-1.92-9.392-3.016-31.605-1.097-43.808
		c1.92-12.203,7.541-32.839,13.506-41.203c5.965-8.364,33.936-16.796,33.936-16.796s7.267-7.336,9.667-10.146
		c2.4-2.811,4.251-4.045,4.251-4.045s1.097,5.827,5.279,13.917c4.182,8.09,7.953,14.328,7.953,14.328s3.908-0.411,11.106,5.827
		c7.199,6.239,15.014,14.054,15.014,14.054s0.891-7.678,3.908-13.163c3.017-5.485,4.868-8.638,4.868-8.638l1.097-20.43
		c0,0,8.981,10.147,9.392,12.203c0.411,2.057,0.274,2.674,0.274,2.674s3.702,2.468,7.953,4.251
		c4.25,1.783,20.636,9.529,23.789,12.477c3.154,2.948,4.456,20.978,4.525,21.39c0.069,0.411,0.823,16.659,1.234,17.482
		c0.411,0.823,2.468,19.333,3.496,23.172c1.028,3.839,0.069,6.582,4.593,10.969c4.525,4.388,11.038,7.336,11.038,7.336
		s-16.179,23.515-18.99,28.725c-2.811,5.21-3.359,4.868-3.359,4.868l-5.142-4.113c0,0-2.948,7.884-4.113,22.624
		c-1.165,14.74,1.364,28.108,1.364,28.108s-25.222,34.484-25.359,34.69c-0.137,0.206-84.942-17.276-84.942-17.276L175.252,645.995z"
		/>
	<path style="fill:#445AB2;" d="M176.611,646.615c0,0,8.227,6.581,25.812,11.415c17.585,4.833,26.12,8.227,37.432,8.432
		c11.312,0.206,25.915-1.851,36.095-5.245c10.181-3.394,14.705-6.479,15.939-10.284l1.543,15.117c0,0,5.245,8.124,6.376,14.808
		c1.131,6.684,1.234,4.319,3.394,13.883c2.159,9.564-1.337,16.762-2.262,22.315c-0.925,5.553,1.337,28.691-0.823,38.563
		c-2.16,9.872-4.422,17.996-6.684,33.833c-2.262,15.837-2.16,21.287-2.674,29.72c-0.514,8.432,1.748,40.311,0.823,48.024
		c-0.926,7.713-2.365,10.798-1.645,13.986c0.72,3.188,4.216,19.95,4.936,30.953c0.72,11.003-0.206,17.79-2.674,21.698
		c-2.468,3.908,0.309,5.45-1.954,9.152c-2.262,3.702-0.72,8.227-0.72,8.227s-7.507,1.337-16.762,6.273
		c-9.255,4.936-13.78,7.301-16.351,7.198c-2.571-0.103-4.011-5.245-7.198-10.798s-5.039-7.713-1.44-8.947
		c3.599-1.234,6.273-2.776,6.273-2.776s-3.291-14.294-5.656-27.663c-2.365-13.369-4.73-23.961-2.262-33.01
		c2.468-9.05,0.925-16.557,0.514-24.064c-0.411-7.507-0.926-7.507-0.617-16.145c0.308-8.638,1.131-11.209,0.103-14.5
		c-1.028-3.291-3.291-7.61-2.879-11.929c0.411-4.319-0.411-11.209-1.131-15.528c-0.72-4.319-1.44-8.844-1.44-15.425
		c0-6.581-3.702-10.9-4.216-17.071c-0.514-6.17,0.206-10.798,0.206-10.798s-1.954-5.964-2.16-7.918s-1.131-0.72-1.131-0.72
		s-6.684,16.351-8.947,25.195c-2.262,8.844-3.599,15.117-4.011,22.315c-0.411,7.198-1.954,18.408-5.142,24.68
		c-3.188,6.273-1.234,10.386-3.599,13.574c-2.365,3.188-4.936,6.479-4.936,6.479s1.337,13.677-0.72,17.791
		c-2.057,4.113-1.028,2.571-2.16,9.667c-1.131,7.096-2.879,24.475-3.805,32.085c-0.926,7.61-4.525,22.315-4.525,24.166
		c0,1.851,1.028,10.798,2.262,14.5c1.234,3.702-1.748,17.379-2.468,18.922c-0.72,1.542-18.613-5.347-23.961-5.245
		c-5.347,0.103-7.199,2.571-6.89,2.159c0.309-0.411-5.348-9.358-4.525-12.237c0.823-2.879,2.921-1.234-0.082-10.284
		c-3.003-9.049-3.106-10.181-1.461-27.766c1.645-17.585,7.404-80.006,6.787-93.477c-0.617-13.471-2.057-24.886-2.057-45.556
		c0-20.67,0.206-39.489,1.234-54.914c1.028-15.425,7.404-36.609,8.124-39.9c0.72-3.291,0.309-7.301,0.309-12.752
		C172.806,651.346,174.246,643.53,176.611,646.615z"/>
	<path style="fill:#FFFFFF;" d="M174.966,648.981c0,0,0.548,2.399,13.026,6.993c12.477,4.593,17.551,5.279,17.551,5.279
		s-1.92,7.198-1.783,11.586c0,0-16.865-4.73-22.898-7.541s-6.581-3.085-6.581-3.085S173.595,654.122,174.966,648.981z"/>
	<path style="fill:#FFFFFF;" d="M210.067,662.349c0,0-2.674,9.941-1.303,11.655c1.371,1.714,38.186,6.376,40.86,5.69
		c2.674-0.686,1.508-3.976,1.508-3.976s-2.811-1.371-1.44-2.125c1.371-0.754,2.194-0.754,2.194-0.754s0.96-4.662,0-4.525
		C250.927,668.451,216.1,664.68,210.067,662.349z"/>
	<path style="fill:#FFFFFF;" d="M256.411,667.697v10.009c0,0,15.425-2.537,15.563-3.496c0.137-0.96,0-10.969,0-10.969
		L256.411,667.697z"/>
	<path style="fill:#FFFFFF;" d="M276.224,662.349v10.146c0,0,14.191-3.359,17.208-8.912l-1.035-12.615
		C292.397,650.969,289.044,657.139,276.224,662.349z"/>
	<path style="fill:none;stroke:#445AB2;stroke-width:1.2455;stroke-linecap:round;stroke-miterlimit:10;" d="M181.273,511.867
		c0,0,6.17,6.513,7.473,13.506"/>
	<path style="fill:none;stroke:#445AB2;stroke-width:1.2455;stroke-linecap:round;stroke-miterlimit:10;" d="M166.259,518.037
		c0,0,21.877,0.436,23.553,15.712"/>
	<path style="fill:none;stroke:#445AB2;stroke-width:1.2455;stroke-linecap:round;stroke-linejoin:round;stroke-miterlimit:10;" d="
		M236.05,499.047c0,0,9.152,12.752,11.003,29.308c1.851,16.556,2.262,39.18,1.44,48.847c-0.823,9.667,0.103,35.684-1.131,45.556
		s-6.684,43.191-6.684,43.191"/>
	<path style="fill:none;stroke:#445AB2;stroke-width:1.2455;stroke-linecap:round;stroke-linejoin:round;stroke-miterlimit:10;" d="
		M253.532,664.817c0,0,3.702-21.595,4.833-41.34c1.131-19.745,1.851-58.102,1.543-71.574c-0.309-13.471-1.028-24.578-4.833-35.273
		c-3.805-10.695-7.096-12.957-7.096-12.957"/>
	<path style="fill:none;stroke:#445AB2;stroke-width:1.2455;stroke-linecap:round;stroke-linejoin:round;stroke-miterlimit:10;" d="
		M298.883,525.893c0,0-4.216,10.483-6.273,22.309s-1.659,30.131-0.213,38.152c1.447,8.021,2.639,11.826,2.639,11.826"/>
	<path style="fill:none;stroke:#445AB2;stroke-width:1.2455;stroke-linecap:round;stroke-linejoin:round;stroke-miterlimit:10;" d="
		M298.883,537.198c0,0-4.352,4.344-6.598,13.072"/>
	<path style="fill:none;stroke:#445AB2;stroke-width:1.2455;stroke-linecap:round;stroke-linejoin:round;stroke-miterlimit:10;" d="
		M186.38,567.535c0,0-14.911-5.039-26.737,10.284"/>
	<path style="fill:none;stroke:#445AB2;stroke-width:1.2455;stroke-linecap:round;stroke-linejoin:round;stroke-miterlimit:10;" d="
		M180.001,566.748c-12.036,1.475-22.106,22.485-22.106,22.485"/>
	<path style="fill:none;stroke:#445AB2;stroke-width:1.2455;stroke-linecap:round;stroke-linejoin:round;stroke-miterlimit:10;" d="
		M166.259,586.148c0,0,4.035-15.243,11.153-18.779"/>
	<path style="fill:none;stroke:#445AB2;stroke-width:1.2455;stroke-linecap:round;stroke-linejoin:round;stroke-miterlimit:10;" d="
		M182.267,572.28c0,0-5.485,15.513-0.994,28.882"/>
	<path style="fill:none;stroke:#445AB2;stroke-width:1.2455;stroke-linecap:round;stroke-linejoin:round;stroke-miterlimit:10;" d="
		M150.902,563.73c0,0,7.602-20.156,29.098-9.152"/>
	<path style="fill:none;stroke:#445AB2;stroke-width:1.2455;stroke-linecap:round;stroke-linejoin:round;stroke-miterlimit:10;" d="
		M297.957,550.271c0,0-4.777-5.045-6.656,11.765"/>
	
		<line style="fill:none;stroke:#445AB2;stroke-width:1.2455;stroke-linecap:round;stroke-linejoin:round;stroke-miterlimit:10;" x1="309.372" y1="572.985" x2="295.583" y2="589.233"/>
	
		<line style="fill:none;stroke:#445AB2;stroke-width:1.2455;stroke-linecap:round;stroke-linejoin:round;stroke-miterlimit:10;" x1="311.223" y1="572.985" x2="305.567" y2="581.109"/>
	
		<line style="fill:none;stroke:#445AB2;stroke-width:1.2455;stroke-linecap:round;stroke-linejoin:round;stroke-miterlimit:10;" x1="308.395" y1="569.18" x2="298.883" y2="579.875"/>
	<g>
		<path style="fill:#FFFFFF;" d="M193.272,607.217c-0.017-3.453-0.02-20.384,1.436-29.298c1.206-7.39,4.039-8.188,5.2-8.188
			c0.277,0,0.449,0.046,0.45,0.047c1.82,0.425,3.988,0.637,6.475,0.637c17.299,0,47.048-10.178,55.753-13.297
			c4.743-1.7,9.778-2.526,15.395-2.526c5.829,0,11.142,0.903,15.411,1.628l1.134,0.192c7.757,1.303,28.596,11.072,30.679,12.278
			c0.74,0.428,0.836,1.206,0.679,1.791c-0.143,0.531-0.543,1.067-1.117,1.067c-0.035,0-0.071-0.002-0.107-0.006
			c-1.43-0.159-17.722-4.297-26.137-6.463c-0.052-0.013-0.104-0.02-0.155-0.02c-0.217,0-0.424,0.114-0.537,0.309
			c-0.141,0.24-0.105,0.544,0.087,0.745c0.044,0.046,4.416,4.667,3.942,8.333c-0.059,0.456-0.238,1.842-3.157,1.842
			c-1.606,0-3.266-0.432-3.75-0.568c-0.098-0.066-0.212-0.106-0.332-0.106c-0.167,0-0.328,0.067-0.445,0.187
			c-0.228,0.232-0.228,0.232-0.169,3.57c0.019,1.047-0.177,1.81-0.566,2.205c-0.268,0.272-0.595,0.329-0.823,0.329
			c-0.119,0-0.197-0.016-0.198-0.017c-0.043-0.009-0.085-0.013-0.127-0.013c-0.26,0-0.503,0.16-0.594,0.411
			c-0.01,0.029-1.062,2.892-3.436,3.856c-0.218,0.089-0.792,0.238-2.186,0.238c-4.924,0-15.269-1.854-19.468-4.416
			c-1.995-1.218-3.245-1.691-4.458-1.691c-1.315,0-2.45,0.57-4.169,1.434c-1.085,0.545-2.436,1.224-4.238,1.961
			c-7.329,2.998-17.13,8.095-31.966,15.809C208.389,606.441,196.177,607.15,193.272,607.217z"/>
		<path style="fill:#FF6B53;" d="M277.981,555.215c5.777,0,11.061,0.898,15.307,1.62l1.134,0.192
			c7.52,1.263,28.47,11.045,30.47,12.203c0.533,0.309,0.45,0.865,0.389,1.09c-0.091,0.339-0.316,0.604-0.551,0.604
			c-0.001,0-0.002,0-0.003,0c-1.294-0.144-16.288-3.934-26.05-6.447c-0.103-0.027-0.207-0.039-0.31-0.039
			c-0.434,0-0.847,0.228-1.074,0.616c-0.281,0.48-0.21,1.088,0.174,1.49c1.172,1.229,4.136,5.029,3.775,7.824
			c-0.046,0.355-0.168,1.298-2.54,1.298c-1.447,0-2.963-0.375-3.501-0.522c-0.175-0.097-0.373-0.152-0.581-0.152
			c-0.334,0-0.655,0.135-0.889,0.373c-0.411,0.419-0.411,0.419-0.348,4.018c0.021,1.208-0.264,1.631-0.387,1.757
			c-0.035,0.035-0.141,0.143-0.379,0.143c-0.02,0-0.038-0.001-0.048-0.001c-0.008,0-0.01,0.001-0.001,0.003
			c-0.095-0.022-0.189-0.033-0.283-0.033c-0.515,0-0.991,0.322-1.174,0.824c-0.009,0.026-0.978,2.634-3.085,3.491
			c-0.079,0.032-0.543,0.192-1.951,0.192c-4.741,0-15.098-1.857-19.143-4.325c-2.103-1.283-3.444-1.782-4.782-1.782
			c-1.462,0-2.715,0.629-4.448,1.5c-1.076,0.54-2.415,1.213-4.194,1.941c-7.365,3.013-17.172,8.113-32.018,15.833
			c-12.458,6.478-23.872,7.493-27.597,7.648c-0.011-4.529,0.057-20.145,1.43-28.555c1.161-7.112,3.803-7.665,4.585-7.664
			c0.158,0,0.263,0.02,0.269,0.02c0.001,0,0,0-0.001,0c0.024,0.007,0.048,0.013,0.072,0.019c1.836,0.428,4.051,0.645,6.585,0.645
			c17.4,0,47.234-10.206,55.963-13.334C267.47,556.029,272.437,555.215,277.981,555.215 M277.981,553.969
			c-4.933,0-10.239,0.639-15.605,2.562c-10.804,3.871-38.934,13.261-55.543,13.261c-2.362,0-4.489-0.19-6.302-0.612
			c0,0-0.237-0.071-0.623-0.071c-1.352,0-4.535,0.87-5.815,8.709c-1.645,10.078-1.44,30.028-1.44,30.028s0.033,0,0.098,0
			c1.269,0,14.639-0.186,29.313-7.816c15.425-8.021,24.752-12.854,31.915-15.785c4.579-1.874,6.231-3.348,8.171-3.348
			c1.094,0,2.279,0.469,4.134,1.6c4.227,2.579,14.711,4.507,19.792,4.507c1.099,0,1.945-0.09,2.42-0.284
			c2.674-1.087,3.788-4.224,3.788-4.224s0.132,0.031,0.333,0.031c0.659,0,2.061-0.332,2.011-3.167
			c-0.049-2.776-0.024-3.124-0.008-3.124c0.005,0,0.009,0.039,0.009,0.039s2.06,0.636,4.073,0.636c1.784,0,3.531-0.499,3.775-2.384
			c0.518-4.011-4.109-8.844-4.109-8.844s24.372,6.273,26.223,6.479c0.059,0.007,0.118,0.01,0.176,0.01
			c1.739,0,2.641-2.925,0.75-4.02c-1.954-1.131-23.007-11.029-30.888-12.353C290.175,555.05,284.393,553.969,277.981,553.969
			L277.981,553.969z"/>
	</g>
	<path style="fill:none;stroke:#FF6B53;stroke-width:1.2455;stroke-linecap:round;stroke-linejoin:round;stroke-miterlimit:10;" d="
		M295.035,562.393c0,0,2.031,2.545,0.548,5.759c-0.917,1.988-3.187,2.674-3.187,2.674"/>
	<path style="fill:none;stroke:#FF6B53;stroke-width:1.0522;stroke-linecap:round;stroke-linejoin:round;stroke-miterlimit:10;" d="
		M292.079,572.197c0,0,1.309,3.214-1.384,4.576c0,0,1.477,2.78-0.347,4.315"/>
	<path style="fill:none;stroke:#FF6B53;stroke-width:1.2455;stroke-linecap:round;stroke-linejoin:round;stroke-miterlimit:10;" d="
		M382.796,596.226c0,0,11.517,0.925,12.752-6.479c0,0,5.964-1.285,7.404-0.463c1.44,0.823,6.376,4.268,9.255,4.319
		c2.879,0.051,2.982-2.571,2.52-3.599c-0.463-1.028-7.815-6.839-7.815-6.839s-7.507-1.379-9.512-2.258"/>
	<path style="fill:none;stroke:#FF6B53;stroke-width:1.2455;stroke-linecap:round;stroke-linejoin:round;stroke-miterlimit:10;" d="
		M406.1,603.733c0,0-8.033-1.8-8.135-5.347c-0.103-3.548,3.702-3.394,8.638-1.645c0,0-1.857-5.238,1.565-4.419"/>
	<path style="fill:none;stroke:#FF6B53;stroke-width:1.2455;stroke-linecap:round;stroke-linejoin:round;stroke-miterlimit:10;" d="
		M398.633,606.047c0,0-2.766-5.206,1.393-4.763"/>
	<path style="fill:none;stroke:#FF6B53;stroke-width:1.2455;stroke-linecap:round;stroke-linejoin:round;stroke-miterlimit:10;" d="
		M409.945,596.263c0,0,2.828,0.426,4.319,1.454"/>
	<path style="fill:none;stroke:#445AB2;stroke-width:1.2455;stroke-linecap:round;stroke-linejoin:round;stroke-miterlimit:10;" d="
		M191.934,608.875c0,0-3.291,1.131-8.432,2.468s-6.089,1.44-6.089,1.44"/>
	<path style="fill:none;stroke:#445AB2;stroke-width:1.2455;stroke-linecap:round;stroke-linejoin:round;stroke-miterlimit:10;" d="
		M187.203,568.358c0,0-3.085,0.411-3.908,4.628"/>
	<path style="fill:none;stroke:#445AB2;stroke-width:1.2455;stroke-linecap:round;stroke-linejoin:round;stroke-miterlimit:10;" d="
		M176.2,601.779c0,0,3.229,7.713,11.847,7.713"/>
	<circle style="fill:#FFFFFF;" cx="252.984" cy="528.429" r="2.537"/>
	<circle style="fill:#FFFFFF;" cx="253.979" cy="596.263" r="2.537"/>
	<path style="fill:#FFFFFF;" d="M254.85,628.896c0,1.401-1.136,2.537-2.537,2.537c-1.401,0-2.537-1.136-2.537-2.537
		c0-1.401,1.136-2.537,2.537-2.537C253.714,626.359,254.85,627.495,254.85,628.896z"/>
	<path style="fill:#FFFFFF;" d="M251.434,660.909c0,1.401-1.136,2.537-2.537,2.537c-1.401,0-2.537-1.136-2.537-2.537
		c0-1.401,1.136-2.537,2.537-2.537C250.298,658.373,251.434,659.508,251.434,660.909z"/>
	<path style="fill:none;stroke:#445AB2;stroke-width:1.2455;stroke-linecap:round;stroke-miterlimit:10;" d="M192.756,470.15
		c0,0-1.954,7.816-4.011,8.33s10.901,4.422,17.379,2.571c6.479-1.851,9.049-2.571,9.461,1.44c0.411,4.011-2.674,3.805,9.255,7.918
		c11.929,4.113,12.854,3.394,21.39,12.34"/>
	<path style="fill:none;stroke:#445AB2;stroke-width:1.2455;stroke-linecap:round;stroke-miterlimit:10;" d="M247.979,501.412
		c0,0-0.103-10.386,5.45-14.963c5.553-4.576,9.769-6.221,10.284-8.587c0.514-2.365,0.926-4.525,0.926-4.525s-0.72,4.011,4.422,6.479
		"/>
	<path style="fill:none;stroke:#445AB2;stroke-width:1.2455;stroke-linecap:round;stroke-miterlimit:10;" d="M207.119,453.611
		c0,0,4.217,15.219,6.376,19.127"/>
	<path style="fill:none;stroke:#445AB2;stroke-width:1.2455;stroke-linecap:round;stroke-linejoin:round;stroke-miterlimit:10;" d="
		M169.104,478.994c0,0,17.996,8.432,20.721,29.308c0,0-3.137,6.993-1.08,17.071c2.057,10.078,0.823,22.829,3.291,31.468
		c2.468,8.638,0,10.695,0,10.695s11.175-17.756,20.978-18.785"/>
	<path style="fill:#375AA7;" d="M218.362,419.589c0,0,0.137-15.905,7.13-20.978l4.114-15.082l6.033-4.251l37.981,9.735
		l-2.057,16.454l2.057,3.154l-1.234,14.397l6.444-21.87c0,0,0.411-18.305-1.783-25.023c-2.194-6.719-20.885-16.728-43.35-11.518
		c-22.465,5.21-17.803,40.997-17.803,40.997l1.485,5.759L218.362,419.589z"/>
	
		<path style="fill:#FFFFFF;stroke:#FF6B53;stroke-width:1.2455;stroke-linecap:round;stroke-linejoin:round;stroke-miterlimit:10;" d="
		M217.882,438.237c0,0,0.179,6.057,4.045,11.517c4.319,6.102,10.126,10.421,19.882,11.106c9.756,0.686,14.328-6.17,14.328-6.17"/>
	<path style="fill:none;stroke:#445AB2;stroke-width:1.2455;stroke-linecap:round;stroke-linejoin:round;stroke-miterlimit:10;" d="
		M71.925,941.102"/>
	<path style="fill:none;stroke:#445AB2;stroke-width:1.2455;stroke-linecap:round;stroke-linejoin:round;stroke-miterlimit:10;" d="
		M167.219,955.156c0,0,6.993,14.945-7.953,23.309"/>
	<path style="fill:none;stroke:#445AB2;stroke-width:1.2455;stroke-linecap:round;stroke-linejoin:round;stroke-miterlimit:10;" d="
		M180.587,957.007c0,0-1.577,7.815-1.028,12.272c0.548,4.456,4.593,7.953,4.593,7.953"/>
	<path style="fill:none;stroke:#445AB2;stroke-width:1.2455;stroke-linecap:round;stroke-linejoin:round;stroke-miterlimit:10;" d="
		M255.303,974.9c0,0,4.879,4.799,12.146,7.13c7.267,2.331,11.243,5.485,16.728,11.38c5.485,5.896,16.728,10.832,26.326,10.695
		c9.598-0.137,13.608-2.571,13.848-6.096c0.293-4.303-3.051-6.724-5.656-7.821"/>
	<path style="fill:none;stroke:#445AB2;stroke-width:1.2455;stroke-linecap:round;stroke-linejoin:round;stroke-miterlimit:10;" d="
		M276.773,953.99c0,0,10.489,4.936,11.929,13.78c1.44,8.844-0.823,11.518-0.823,11.518"/>
	<path style="fill:none;stroke:#FF6B53;stroke-width:1.2455;stroke-linecap:round;stroke-linejoin:round;stroke-miterlimit:10;" d="
		M247.979,683.396c0,0,2.194,6.856,1.371,19.47c-0.823,12.615-4.114,27.149-7.404,32.359c-3.291,5.21-5.896,10.421-5.896,10.421"/>
	<path style="fill:none;stroke:#FF6B53;stroke-width:1.2455;stroke-linecap:round;stroke-linejoin:round;stroke-miterlimit:10;" d="
		M237.421,682.436c0,0-3.017,17.825-2.742,26.326c0.274,8.501,0.548,14.945,3.565,15.905c3.017,0.96,7.213,1.57,7.213,1.57"/>
	<path style="fill:none;stroke:#FF6B53;stroke-width:1.2455;stroke-linecap:round;stroke-linejoin:round;stroke-miterlimit:10;" d="
		M182.576,672.496c0,0-6.993,14.328-11.243,28.862c-4.251,14.534-5.21,20.293-5.21,20.293"/>
	
		<polyline style="fill:none;stroke:#FF6B53;stroke-width:1.2455;stroke-linecap:round;stroke-linejoin:round;stroke-miterlimit:10;" points="
		160.98,895.786 173.641,930.955 179.443,941.102 160.98,933.012 	"/>
	<path style="fill:none;stroke:#FF6B53;stroke-width:1.2455;stroke-linecap:round;stroke-linejoin:round;stroke-miterlimit:10;" d="
		M292.397,924.58c0.213,0.617-8.631,11.106-22.411,14.603"/>
	<path style="fill:none;stroke:#FF6B53;stroke-width:1.2455;stroke-linecap:round;stroke-linejoin:round;stroke-miterlimit:10;" d="
		M282.977,848.893c0,0-8.055,3.908-20.19,3.908"/>
	<path style="fill:none;stroke:#FF6B53;stroke-width:1.2455;stroke-linecap:round;stroke-linejoin:round;stroke-miterlimit:10;" d="
		M166.122,858.559c0,0,3.085,9.255,10.695,17.482"/>
	<path style="fill:none;stroke:#FF6B53;stroke-width:1.2455;stroke-linecap:round;stroke-linejoin:round;stroke-miterlimit:10;" d="
		M289.181,886.53c0.343,0.617-1.434,35.172-6.204,42.368"/>
	<path style="fill:none;stroke:#FF6B53;stroke-width:1.2455;stroke-linecap:round;stroke-linejoin:round;stroke-miterlimit:10;" d="
		M251.064,949.946c0,0,3.702,2.605,9.872,2.194c6.17-0.411,23.447-4.73,23.447-4.73"/>
	<path style="fill:none;stroke:#FF6B53;stroke-width:1.2455;stroke-linecap:round;stroke-linejoin:round;stroke-miterlimit:10;" d="
		M166.122,944.324c0,0,2.879-3.496,9.872,0s10.891,3.085,10.891,3.085"/>
	<path style="fill:none;stroke:#FF6B53;stroke-width:1.2455;stroke-linecap:round;stroke-linejoin:round;stroke-miterlimit:10;" d="
		M205.542,739.681c0,0,18.579,0.617,26.189-3.496"/>
	<path style="fill:none;stroke:#FF6B53;stroke-width:1.2455;stroke-linecap:round;stroke-linejoin:round;stroke-miterlimit:10;" d="
		M270.808,702.455c0,0-16.248,32.085-23.035,38.46"/>
</g>
<g id="Layer_3">
	<g>
		<path style="fill:#FFB62A;" d="M610.898,253.161c0,0-13.659,10.347-10.14,38.285c3.518,27.938,6.415,71.81,25.868,106.164
			c19.453,34.353,22.308,51.039,43.873,51.944c21.565,0.904,27.938-5.174,29.593-29.8c1.655-24.627-7.864-65.395-18.625-95.816
			C670.705,293.516,639.663,231.432,610.898,253.161z"/>
		<path style="fill:#3D5EBA;" d="M608.621,341.527l43.045-11.589c0,0,7.844,0.392,12.624,12.365
			c3.622,9.071,3.656,20.402-0.621,22.885c-4.277,2.483-41.32,16.625-41.32,16.625L608.621,341.527z"/>
		<path style="fill:#FF6B53;" d="M513.012,531.574c0,0,4.656,6.45,6.415,6.45c1.759,0,13.038-1.242,15.625-2.69
			c2.587-1.449,10.761-18.418,11.279-20.902c0.517-2.483,0.621-4.139-2.483-6.519c-3.104-2.38-8.381-6.105-8.381-6.105
			l-25.247,23.281L513.012,531.574z"/>
		<path style="fill:#3D5EBA;" d="M479.624,469.352c0,0,16.142,33.25,23.937,46.218c7.795,12.969,9.451,16.004,9.451,16.004
			s-0.207-2.138,2.345-6.07c2.552-3.932,11.037-16.142,15.659-18.97c4.622-2.828,7.726-2.139,7.726-2.139l-22.488-35.043
			l-20.419-21.66l-19.108,11.451l-1.862,9.175L479.624,469.352z"/>
		<path style="fill:#375FB5;" d="M505.665,358.497c0,0,67.568-16.556,88.677-70.776l4.553-8.071c0,0,8.899,84.434,26.696,116.097
			c17.797,31.663,21.523,39.113,21.523,39.113l-6.002-1.863c0,0-45.114-29.386-111.751-2.483l-29.179,10.968l-32.077-43.459
			l8.692-28.352l18.625-10.761L505.665,358.497z"/>
		<path style="fill:#FF6B53;" d="M505.079,358.221c0,0-12.417-0.138-13.245,16.28c-0.828,16.418,0.966,34.767,20.557,54.082
			c0,0,7.726,7.036,17.108,1.38c0,0-2.759,4.656-7.484,5.415c0,0,0.69,0.966-1.414,2.966c-2.104,2.001-8.795,8.209-8.795,8.209
			s3.07,10.382,9.14,18.039c0,0,1.38,1.932-0.069,3.932c-1.449,2-2.414,3.656-1.725,5.588c0,0-6.415,0.621-9.589,2.001
			c-3.173,1.38-4.967-4.001-4.967-4.001s-6.001-12.003-7.519-13.728c-1.518-1.724-2.897-3.035-6.139-0.621
			c-3.242,2.414-8.761,6.484-10.209,8.209c0,0-1.242,1.725-0.552,3.311c0.69,1.587,0.655,1.828,0.655,1.828l-10.244-0.31
			c0,0-3.518,0.448-4.656-2.449c-1.138-2.897-5.139-14.555-5.139-14.555l-9.554,2.897c0,0-5.139,2.173-15.176-1.552
			c-10.037-3.725-16.556-13.969-18.073-17.211c-1.518-3.242-5.415-12.555-6.036-19.832c-0.621-7.278-0.448-15.245-0.448-15.245
			s-1.518-14.521,11.624-19.28s75.053-25.903,75.053-25.903S504.286,356.773,505.079,358.221z"/>
		<path style="fill:#FF6B53;" d="M700.437,375.053c-4.967-31.318-25.523-94.402-56.566-120.443c0,0-11.727-13.521-27.869-10.623
			c0,0-27.041,3.035-20.971,67.327c6.07,64.291,36.009,117.27,62.636,137.689c26.627,20.419,38.078-1.931,41.389-10.209
			C702.368,430.515,705.403,406.371,700.437,375.053z M685.916,442.621c-4.967,6.001-15.935,5.691-29.593-7.967
			c-13.659-13.658-25.868-38.699-38.182-67.672c-12.313-28.973-13.245-58.773-13.348-81.951
			c-0.104-23.178,11.485-29.593,11.485-29.593c18.936-6.829,39.837,21.316,55.979,53.496c16.142,32.18,22.557,72.017,23.281,94.575
			C696.263,426.065,690.883,436.62,685.916,442.621z"/>
		<path style="fill:#FF6B53;" d="M663.542,346.146c2.745,8.911,1.493,17.205-2.795,18.526c-4.288,1.321-9.99-4.832-12.735-13.743
			c-2.745-8.911-1.493-17.205,2.795-18.526C655.096,331.082,660.798,337.235,663.542,346.146z"/>
		<path style="fill:#445AB2;" d="M452.686,450.281c-0.044,0-0.088-0.009-0.131-0.029c-9.791-4.519-14.545-13.259-16.508-18.067
			c-2.133-5.226-5.163-23.079-6.539-33.499c-1.453-11.004,3.409-15.603,3.617-15.793c0.127-0.117,0.325-0.109,0.442,0.019
			c0.117,0.127,0.109,0.325-0.018,0.443c-0.048,0.045-4.827,4.595-3.419,15.25c1.372,10.388,4.385,28.169,6.498,33.345
			c1.928,4.722,6.594,13.305,16.19,17.734c0.157,0.073,0.226,0.259,0.153,0.416C452.918,450.213,452.805,450.281,452.686,450.281z"
			/>
		<path style="fill:#445AB2;" d="M457.757,444.693c-0.129,0-0.25-0.08-0.295-0.209c-0.058-0.163,0.027-0.342,0.19-0.4
			c1.405-0.499,34.466-12.228,39.839-12.228c2.911,0,3.802,0.715,4.93,1.621c0.971,0.78,2.179,1.75,5.286,2.527
			c6.018,1.505,7.708,1.108,9.343,0.723l0.447-0.103c0.169-0.035,0.336,0.069,0.374,0.238c0.037,0.169-0.069,0.336-0.238,0.374
			l-0.439,0.102c-1.707,0.401-3.474,0.817-9.638-0.725c-3.241-0.811-4.509-1.828-5.527-2.646c-1.072-0.861-1.846-1.483-4.537-1.483
			c-5.266,0-39.286,12.07-39.629,12.192C457.827,444.688,457.792,444.693,457.757,444.693z"/>
		<path style="fill:#445AB2;" d="M508.252,473.045c-0.054,0-0.109-0.014-0.159-0.043c-0.149-0.088-0.198-0.28-0.11-0.429
			c1.214-2.056,4.36-5.861,5.066-6.708l-10.246-18.852c-0.083-0.152-0.026-0.342,0.126-0.425c0.152-0.082,0.342-0.026,0.425,0.126
			l10.348,19.039c0.062,0.113,0.047,0.252-0.035,0.351c-0.038,0.045-3.827,4.559-5.144,6.787
			C508.464,472.99,508.359,473.045,508.252,473.045z"/>
		<path style="fill:#445AB2;" d="M479.279,470.251c-0.029,0-0.058-0.004-0.088-0.012c-0.997-0.291-1.704-0.875-2.103-1.734
			c-0.645-1.39-0.415-3.408,0.663-5.834c1.676-3.771,20.73-15.574,21.54-16.075c0.146-0.089,0.34-0.045,0.431,0.102
			c0.091,0.147,0.045,0.34-0.102,0.431c-0.197,0.121-19.699,12.201-21.297,15.796c-0.989,2.224-1.226,4.112-0.667,5.316
			c0.319,0.688,0.895,1.158,1.71,1.396c0.166,0.049,0.261,0.223,0.213,0.389C479.54,470.163,479.415,470.251,479.279,470.251z"/>
		<path style="fill:#445AB2;" d="M520.255,536.785c-0.173,0-0.313-0.14-0.313-0.313c0-0.089,0.037-0.169,0.097-0.226
			c0.075-0.085,0.769-0.939,6.584-9.062c6.45-9.01,12.37-16.292,12.429-16.364c0.086-0.096,1.889-2.082,3.929-1.897
			c1.052,0.095,1.956,0.745,2.686,1.931c0.091,0.147,0.045,0.34-0.102,0.431c-0.148,0.091-0.341,0.044-0.431-0.103
			c-0.62-1.008-1.363-1.558-2.207-1.634c-1.723-0.162-3.382,1.661-3.398,1.68c-0.049,0.061-5.957,7.329-12.395,16.322
			C520.519,536.785,520.463,536.785,520.255,536.785z"/>
		<path style="fill:#445AB2;" d="M522.738,536.785c-0.158,0-0.293-0.119-0.311-0.278c-0.019-0.172,0.105-0.327,0.277-0.346
			l8.381-0.931c0.176-0.018,0.327,0.106,0.346,0.277c0.019,0.172-0.105,0.327-0.277,0.346l-8.381,0.931
			C522.761,536.784,522.749,536.785,522.738,536.785z"/>
		<path style="fill:#445AB2;" d="M438.304,387.783c-0.141,0-0.27-0.096-0.305-0.24c-0.04-0.168,0.063-0.338,0.231-0.378
			l45.114-10.865c0.169-0.04,0.338,0.063,0.378,0.231c0.04,0.168-0.063,0.337-0.231,0.378l-45.114,10.865
			C438.353,387.78,438.328,387.783,438.304,387.783z"/>
		<path style="fill:#445AB2;" d="M441.121,431.242c-0.118,0-0.231-0.067-0.284-0.181c-0.073-0.157-0.006-0.343,0.151-0.417
			l47.13-22.04c0.157-0.073,0.343-0.005,0.417,0.151c0.073,0.157,0.006,0.343-0.151,0.417l-47.13,22.04
			C441.211,431.233,441.165,431.242,441.121,431.242z"/>
	</g>
</g>
<rect x="264.896" y="126.347" style="fill:#FF6B53;" width="13.964" height="87.189"/>
<rect x="322.653" y="126.646" style="fill:#FF6B53;" width="13.964" height="87.189"/>
<rect x="444.807" y="126.646" style="fill:#FF6B53;" width="13.964" height="87.189"/>
<rect x="380.189" y="126.646" style="fill:#FF6B53;" width="13.964" height="87.189"/>
<rect x="284.206" y="140.952" style="fill:#375FB5;" width="13.964" height="72.584"/>
<rect x="401.33" y="141.251" style="fill:#375FB5;" width="13.964" height="72.584"/>
<rect x="341.521" y="140.952" style="fill:#375FB5;" width="13.964" height="72.584"/>
<rect x="303.459" y="157.107" style="fill:#FFB62A;" width="13.964" height="56.43"/>
<rect x="360.552" y="157.107" style="fill:#FFB62A;" width="13.964" height="56.43"/>
<rect x="422.256" y="157.405" style="fill:#FFB62A;" width="13.964" height="56.43"/>
<rect x="571.039" y="592.204" style="fill:#FF6B53;" width="13.964" height="87.189"/>
<rect x="506.421" y="592.204" style="fill:#FF6B53;" width="13.964" height="87.189"/>
<rect x="527.561" y="606.809" style="fill:#375FB5;" width="13.964" height="72.584"/>
<rect x="548.488" y="622.964" style="fill:#FFB62A;" width="13.964" height="56.43"/>
<rect x="593.196" y="622.964" style="fill:#FFB62A;" width="13.964" height="56.43"/>
<rect x="483.732" y="624.215" style="fill:#FFB62A;" width="13.964" height="56.43"/>
<ellipse transform="matrix(0.9607 -0.2775 0.2775 0.9607 -34.0776 218.7588)" style="fill:#FF6B53;" cx="755.936" cy="229.791" rx="55.656" ry="55.656"/>
<ellipse transform="matrix(0.7071 -0.7071 0.7071 0.7071 -205.7544 623.8936)" style="fill:#375FB5;" cx="650.229" cy="560.314" rx="45.376" ry="45.376"/>
<ellipse transform="matrix(0.7071 -0.7071 0.7071 0.7071 -140.7008 346.4104)" style="fill:#63CDC4;" cx="347.804" cy="343.046" rx="45.376" ry="45.376"/>
<path style="fill:#FFFFFF;" d="M767.77,208.175c-4.576,0-8.968,2.13-11.834,5.496c-2.867-3.366-7.258-5.496-11.834-5.496
	c-8.1,0-14.464,6.364-14.464,14.464c0,9.941,8.942,18.041,22.485,30.348l3.813,3.445l3.813-3.471
	c13.544-12.281,22.485-20.381,22.485-30.322C782.235,214.539,775.87,208.175,767.77,208.175z M756.199,249.069l-0.263,0.263
	l-0.263-0.263c-12.518-11.335-20.776-18.83-20.776-26.43c0-5.26,3.945-9.204,9.205-9.204c3.307,0,6.544,1.736,8.379,4.334
	c0.806,1.141,2.066,1.872,3.463,1.872l0,0c1.402,0,2.666-0.739,3.472-1.886c1.823-2.591,5.054-4.32,8.355-4.32
	c5.26,0,9.204,3.945,9.204,9.204C776.975,230.239,768.717,237.734,756.199,249.069z"/>
<path style="fill:#FFFFFF;" d="M627.316,577.775h8.332v-24.996h-8.332V577.775z M673.142,554.862c0-2.291-1.875-4.166-4.166-4.166
	h-13.144l1.979-9.519l0.063-0.667c0-0.854-0.354-1.646-0.917-2.208l-2.208-2.187l-13.706,13.727
	c-0.771,0.75-1.229,1.791-1.229,2.937v20.83c0,2.291,1.875,4.166,4.166,4.166h18.747c1.729,0,3.208-1.042,3.833-2.541l6.29-14.685
	c0.188-0.479,0.292-0.979,0.292-1.521V554.862z"/>
<path style="fill:#FFFFFF;" d="M347.78,319.368c-13.071,0-23.655,10.608-23.655,23.678c0,13.07,10.584,23.678,23.655,23.678
	c13.094,0,23.702-10.608,23.702-23.678C371.482,329.976,360.874,319.368,347.78,319.368z M347.804,361.989
	c-10.466,0-18.943-8.477-18.943-18.943c0-10.466,8.477-18.943,18.943-18.943c10.466,0,18.943,8.477,18.943,18.943
	C366.747,353.512,358.27,361.989,347.804,361.989z M356.091,340.678c1.965,0,3.552-1.587,3.552-3.552s-1.586-3.552-3.552-3.552
	s-3.552,1.586-3.552,3.552S354.126,340.678,356.091,340.678z M339.516,340.678c1.965,0,3.552-1.587,3.552-3.552
	s-1.587-3.552-3.552-3.552s-3.552,1.586-3.552,3.552S337.551,340.678,339.516,340.678z M347.804,356.069
	c5.517,0,10.205-3.457,12.1-8.287h-24.199C337.599,352.612,342.287,356.069,347.804,356.069z"/>
</svg>
