<svg width="450" height="450" viewBox="0 0 450 450" fill="none" xmlns="http://www.w3.org/2000/svg">
<path d="M219.212 216.056C219.212 216.056 219.011 217.749 218.481 219.519C217.951 221.289 218.602 223.758 218.602 223.758C218.602 223.758 218.985 224.846 220.625 225.168C222.152 225.468 223.388 225.101 223.388 225.101C223.388 225.101 224.89 226.916 226.853 228.306C228.816 229.695 233.147 230.774 234.326 230.594C236.227 230.304 237.245 228.822 237.099 227.867C236.953 226.911 234.713 224.264 232.877 223.118C231.682 222.373 228.969 219.855 228.155 218.979C226.807 217.529 225.813 215.928 225.813 215.928L219.212 216.056Z" fill="#23234C"/>
<path d="M197.741 226.404C197.741 226.404 196.679 230.347 196.812 232.629C196.945 234.911 197.489 235.455 198.179 236.225C198.869 236.995 199.678 236.663 199.678 236.663C199.678 236.663 199.996 241.369 202.227 243.27C204.458 245.172 208.503 245.352 210.361 244.662C212.218 243.972 210.997 240.602 209.179 237.298C207.36 233.994 205.042 230.44 204.462 227.454C200.013 226.842 197.741 226.404 197.741 226.404Z" fill="#23234C"/>
<path d="M230.983 195.72C232.205 188.532 233.628 189.017 233.597 182.338C233.582 179.057 232.408 171.55 230.034 155.966C228.801 147.873 226.876 146.515 224.329 141.413C224.066 140.886 215.871 145.085 212.134 147.065C211.796 147.245 208.537 155.872 209.964 162.609C210.512 165.192 216.97 182.871 219.887 186.111C217.125 192.812 214.502 199.273 216.709 217.138C218.571 219.639 223.839 219.858 227.218 217.885C227.218 214.214 230.163 200.546 230.983 195.72Z" fill="#292954"/>
<path d="M216.622 162.314C221.203 156.71 220.259 152.456 218.06 145.788C217.94 145.423 198.893 142.873 198.66 143.282C191.435 155.943 193.355 176.676 198.621 189.072C197.45 194.274 194.897 217.872 195.294 226.405C198.829 228.991 204.715 230.615 206.908 226.405C208.851 214.437 211.383 203.411 210.465 193.029C211.839 189.428 216.257 171.404 216.622 162.314Z" fill="#2F2F60"/>
<path d="M252.512 124.877C249.517 121.34 240.935 116.957 238.546 116.278C238.541 116.277 235.786 111.694 234.598 109.027C233.691 106.989 232.736 101.55 230.851 98.19C228.743 94.433 226.368 93.398 222.971 92.289C222.057 91.991 221.102 92.005 220.393 92.824C219.43 93.936 219.626 95.863 219.614 97.173C219.594 99.395 219.624 101.619 219.639 103.841C219.657 106.528 223.824 112.924 224.58 114.06C225.496 115.437 227.541 120.495 228.225 122.005C228.597 122.826 229.599 124.461 232.838 125.777C234.079 126.281 244.556 131.707 250.073 132.58C250.307 131.506 252.046 127.414 252.512 124.877Z" fill="#2F2F60"/>
<path d="M220.391 95.7169C215.768 93.7829 210.266 96.2829 210.468 96.0569C210.607 95.9019 204.052 99.6949 204.042 99.7179C199.362 101.464 194.563 102.728 191.809 109.017C190.469 112.079 195.295 118.632 197.306 127.509C198.211 131.502 198.306 137.197 196.829 139.848C195.796 141.703 193.519 144.482 200.199 146.581C202.141 147.191 211.167 150.68 216.429 149.703C218.863 149.251 230.569 142.766 226.998 140.286C226.052 139.629 225.277 138.327 225.958 137.125C226.528 136.12 227.555 134.287 227.12 132.293C226.052 127.396 226.92 125.469 227.642 121.638C231.03 118.092 228.037 112.747 225.961 107.034C224.553 103.158 225.134 97.7029 220.391 95.7169Z" fill="#DCE6F9"/>
<path d="M219.286 94.6961C219.286 94.6301 219.291 94.5531 219.293 94.4831C216.551 94.9031 212.933 93.3291 210.559 91.6721C209.283 94.7881 208.973 95.9731 207.041 99.1181C208.075 99.1681 210.115 102.011 211.807 104.997C212.525 106.265 215.628 109.544 217.58 108.787C220.588 107.62 219.083 105.212 219.171 101.824C219.233 99.4511 219.281 97.0701 219.286 94.6961Z" fill="#FFB9A4"/>
<path d="M221.46 119.221C220.95 116.495 220.169 113.951 219.615 112.314L219.616 112.311C219.497 111.961 220.529 108.797 220.529 108.797L217.567 107.627L215.837 109.707C215.837 109.707 216.821 112.019 217.963 112.626C217.901 115.65 217.792 121.189 217.726 126.211C217.622 134.232 217.726 140 217.726 140C217.726 140 219.615 142.674 221.53 143.929C222.859 141.546 223.378 138.513 223.378 138.513C223.378 138.513 222.319 123.813 221.46 119.221Z" fill="#FF9201"/>
<path d="M204.714 99.177C204.714 99.177 209.663 101.311 211.736 103.026C214.512 105.325 215.837 105.944 217.22 107.272C217.35 106.94 217.726 100.698 217.726 100.698C217.726 100.698 220.04 100.988 220.021 101.031C220.002 101.074 221.345 102.309 221.871 104.79C222.397 107.271 221.46 110.276 221.46 110.276L217.612 107.926L214.977 112.626C214.977 112.626 209.836 108.225 207.492 105.543C205.148 102.86 204.714 99.177 204.714 99.177Z" fill="white"/>
<path d="M219.616 95.7002C219.616 95.7002 224.09 95.4152 226.224 100.285C228.358 105.155 229.967 111.503 230.035 119.046C230.085 124.548 228.878 131.736 229.809 135.651C230.61 139.02 235.075 151.422 235.075 151.422C235.075 151.422 234.733 156.512 233.086 158.522C230.959 161.117 228.647 160.894 228.647 160.894C228.647 160.894 225.879 145.519 225.599 143.094C225.319 140.67 224.409 127.864 224.66 124.064C224.911 120.264 222.734 107.603 221.874 104.79C221.014 101.977 215.839 96.2172 215.839 96.2172L219.616 95.7002Z" fill="#3C3C75"/>
<path d="M218.733 99.709C218.733 99.709 220.254 101.656 221.475 104.596C222.696 107.536 223.087 113.995 223.435 117.766C223.783 121.536 224.595 125.324 224.595 125.324C224.595 125.324 226.02 121.223 226.281 118.437C226.542 115.651 226.9 113.507 226.9 113.507L224.953 111.984L226.756 107.628C226.756 107.628 221.999 97.269 219.991 96.667C217.981 96.065 218.733 99.709 218.733 99.709Z" fill="#2F2F60"/>
<path d="M206.814 97.8901C206.814 97.8901 212.481 105.343 214.148 115.651C215.814 125.959 214.763 136.577 214.148 143.942C213.373 153.232 212.684 166.448 212.684 166.448C212.684 166.448 203.452 167.973 198.274 166.876C192.741 165.704 190.795 160.289 190.795 160.289C190.795 160.289 190.795 148.993 195.496 135.285C197.04 130.783 196.06 121.014 194.232 115.392C193.145 112.048 194.724 105.374 197.535 102.331C199.449 100.257 204.129 99.3621 206.814 97.8901Z" fill="#3C3C75"/>
<path d="M208.568 96.397C208.568 96.397 205.332 96.599 204.104 99.062C204.679 100.335 206.035 102.032 206.646 105.205C207.257 108.378 207.042 111.93 207.042 111.93L210.692 113.562L208.558 117.325L214.887 125.515C214.887 125.515 215.835 114.727 213.338 106.931C210.842 99.135 208.568 96.397 208.568 96.397Z" fill="#2F2F60"/>
<path d="M224.839 83.1071C222.318 80.0101 216.805 79.3031 213.321 81.4131C212.484 81.6621 211.716 82.0341 211.089 82.5911C208.818 84.6081 209.068 88.2241 209.747 90.8911C210.77 94.9141 216.494 104.163 221.784 100.704C224.597 98.8651 226.426 94.2971 226.88 91.1001C227.284 88.2591 226.675 85.3641 224.839 83.1071Z" fill="#FFC9B6"/>
<path d="M228.494 77.1771C226.729 74.8031 222.221 71.961 219.259 73.615C218.241 74.183 217.664 75.3511 217.728 76.4021C214.861 75.8781 209.693 77.7411 208.411 80.2041C206.231 84.3931 207.749 91.56 209.661 93.714C211.658 91.974 214.742 88.274 215.556 84.725C218.85 86.308 223.352 86.475 226.586 84.615C229.3 83.055 230.443 79.7981 228.494 77.1771Z" fill="#23234C"/>
<path d="M214.619 88.911C214.619 88.911 213.013 86.246 211.533 88.194C209.289 91.148 212.577 92.594 212.577 92.594L214.619 88.911Z" fill="#FFC9B6"/>
<path d="M206.317 143.442C205.505 141.297 202.089 137.191 199.897 134.637C200.678 130.292 201.965 123.484 202.773 120.684C204.222 115.663 200.899 103.057 197.657 102.204C193.457 103.548 190.953 104.722 188.98 112.114C187.13 119.045 188.301 131.279 189.311 138.156C189.516 139.549 188.06 139.72 193.99 147.097C197.788 151.821 201.443 152.824 201.443 152.824L207.218 147.86C207.218 147.86 208.186 148.382 206.317 143.442Z" fill="#2F2F60"/>
<path d="M207.218 147.859C207.218 147.859 205.537 146.246 203.171 148.295C201.433 149.799 201.121 151.73 201.444 152.823C202.488 153.345 203.896 154.486 204.588 155.819C206.136 158.803 207.319 163.655 208.94 165.763C211.284 168.812 213.099 167.237 214.279 165.526C215.459 163.816 214.62 161.615 213.777 159.845C212.86 157.92 212.423 156.505 213.115 156.444C213.573 156.404 214.935 158.025 216.396 158.083C217.913 158.144 217.837 156.99 215.863 155.817C214.86 155.221 214.741 154.27 212.895 153.029C211.453 152.06 210.61 152.602 210.248 152.108C209.05 150.471 207.783 148.948 207.218 147.859Z" fill="#FFC9B6"/>
<path d="M369.699 154.697L367.667 153.524C332.726 113.235 265.188 125.642 223.779 149.55L154.838 201.111L179.73 215.482L250.879 174.404C276.723 159.483 316.18 157.848 338.561 170.769L339.829 171.501C362.211 184.423 359.378 207.203 333.534 222.124L262.385 263.202L287.277 277.574L359.612 235.811C401.022 211.903 405.561 175.402 369.699 154.697Z" fill="#fb9c2a"/>
<path d="M287.277 247.452V277.574L393.892 189.928L393.862 158.402L287.277 247.452Z" fill="#fb9c2a"/>
<path d="M369.699 124.575L367.667 123.402C331.805 102.697 268.583 105.318 227.174 129.226L154.839 170.989L179.731 185.36L250.88 144.282C276.724 129.361 316.181 127.725 338.562 140.647L339.83 141.379C362.212 154.301 359.379 177.081 333.535 192.002L262.386 233.08L287.278 247.452L359.613 205.689C401.022 181.781 405.561 145.279 369.699 124.575Z" fill="#FD7E62"/>
<path d="M262.385 233.08V263.202L287.277 277.574V247.452L262.385 233.08Z" fill="#C5D2EF"/>
<path d="M154.839 170.988V201.11L179.73 215.482V185.359L154.839 170.988Z" fill="#C5D2EF"/>
<path d="M154.839 170.988L182.16 155.214L207.012 169.586L179.73 185.359L154.839 170.988Z" fill="#DCE6F9"/>
<path d="M207.012 169.586L179.73 185.359V215.482L207.012 199.708V169.586Z" fill="#A8BDE2"/>
<path d="M262.385 233.092L289.706 217.318L314.558 231.689L287.277 247.463L262.385 233.092Z" fill="#DCE6F9"/>
<path d="M314.558 231.689L287.277 247.463V277.585L314.558 261.811V231.689Z" fill="#A8BDE2"/>
<path d="M159.299 187.52L132.789 194.491L139.532 198.384L125.25 206.63L150.845 199.602L144.133 195.728L159.299 187.52Z" fill="#FF9201"/>
<path d="M159.299 183.955V187.52L144.133 195.728V192.162L159.299 183.955Z" fill="#fb9c2a"/>
<path d="M150.845 196.037V199.602L125.25 206.63V203.064L150.845 196.037Z" fill="#fb9c2a"/>
<path d="M132.789 190.926V194.491L139.532 198.384V194.819L132.789 190.926Z" fill="#fb9c2a"/>
<path d="M159.299 183.955L132.789 190.926L139.532 194.819L125.25 203.064L150.845 196.037L144.133 192.162L159.299 183.955Z" fill="#FD7E62"/>
<path d="M176.323 197.075L149.814 204.046L156.556 207.939L142.275 216.184L167.869 209.157L161.158 205.282L176.323 197.075Z" fill="#FF9201"/>
<path d="M176.323 193.51V197.075L161.158 205.282V201.717L176.323 193.51Z" fill="#fb9c2a"/>
<path d="M167.869 205.592V209.157L142.275 216.184V212.619L167.869 205.592Z" fill="#fb9c2a"/>
<path d="M149.814 200.48V204.046L156.556 207.939V204.373L149.814 200.48Z" fill="#fb9c2a"/>
<path d="M176.323 193.51L149.814 200.48L156.556 204.373L142.275 212.619L167.869 205.592L161.158 201.717L176.323 193.51Z" fill="#FD7E62"/>
<path d="M266.763 249.566L240.253 256.537L246.996 260.43L232.714 268.676L258.308 261.648L251.597 257.774L266.763 249.566Z" fill="#FF9201"/>
<path d="M266.763 246.001V249.566L251.597 257.774V254.208L266.763 246.001Z" fill="#fb9c2a"/>
<path d="M258.308 258.083V261.648L232.714 268.676V265.11L258.308 258.083Z" fill="#fb9c2a"/>
<path d="M240.253 252.972V256.537L246.996 260.43V256.865L240.253 252.972Z" fill="#fb9c2a"/>
<path d="M266.763 246.001L240.253 252.972L246.996 256.865L232.714 265.11L258.308 258.083L251.597 254.208L266.763 246.001Z" fill="#FD7E62"/>
<path d="M283.787 259.121L257.277 266.092L264.02 269.985L249.738 278.23L275.333 271.203L268.621 267.328L283.787 259.121Z" fill="#FF9201"/>
<path d="M283.787 255.556V259.121L268.621 267.328V263.763L283.787 255.556Z" fill="#fb9c2a"/>
<path d="M275.333 267.638V271.203L249.738 278.23V274.665L275.333 267.638Z" fill="#fb9c2a"/>
<path d="M257.277 262.526V266.092L264.02 269.985V266.419L257.277 262.526Z" fill="#fb9c2a"/>
<path d="M283.787 255.556L257.277 262.526L264.02 266.419L249.738 274.665L275.333 267.638L268.621 263.763L283.787 255.556Z" fill="#FD7E62"/>
<path d="M397.481 298.998C397.698 295.694 397.996 291.911 398.791 287.802C400.155 280.751 401.707 270.468 397.06 265.815C402.279 252.537 400.44 245.192 399.664 241.129C407.441 232.883 400.034 224.174 396.288 221.497C394.311 223.941 382.53 228.771 382.459 229.07C381.036 235.128 382.337 241.468 384.131 247.333C385.248 250.988 386.214 257.161 388.813 267.172C387.603 272.151 388.975 279.692 389.478 285.328C389.829 289.256 389.71 293.719 390.414 297.928C391.549 299.219 393.702 300.438 397.481 298.998Z" fill="#3C4C99"/>
<path d="M383.874 298.412C381.208 299.469 380.447 300.428 381.164 302.137C382.22 304.653 384.904 306.211 387.28 306.705C390.866 307.45 392.881 311.629 396.71 307.684C397.692 306.673 397.498 304.782 397.16 303.384C397.229 302.409 397.409 300.083 397.48 298.999C393.701 300.439 391.547 299.22 390.413 297.929C390.566 298.843 390.744 299.749 390.99 300.63C389.623 300.211 385.659 297.704 383.874 298.412Z" fill="#FFB9A4"/>
<path d="M397.195 302.912C397.195 302.912 394.954 303.718 393.512 304.176C392.07 304.634 388.61 304.821 385.96 302.254C383.902 300.26 387.066 298.888 387.066 298.888C387.066 298.888 382.048 295.892 378.713 297.286C377.164 297.933 377.093 300.547 377.98 302.153C378.884 303.788 382.21 305.949 383.708 306.326C385.206 306.704 388.587 307.334 389.72 308.018C391.803 309.276 394.439 311.036 396.817 308.741C399.197 306.447 397.195 302.912 397.195 302.912Z" fill="#23234C"/>
<path d="M384.644 307.033C384.861 303.729 385.159 299.946 385.954 295.837C387.317 288.786 388.87 278.503 384.223 273.85C389.442 260.572 389.972 250.306 389.196 246.243C398.227 239.214 394.96 229.677 391.214 227.001C389.237 229.445 376.179 225.514 374.859 229.532C372.312 237.285 372.43 240.03 372.78 250.399C372.909 254.218 373.378 265.195 375.976 275.206C374.766 280.185 376.138 287.726 376.641 293.362C376.992 297.29 376.873 301.753 377.577 305.962C378.712 307.254 380.865 308.473 384.644 307.033Z" fill="#4B57AA"/>
<path d="M371.037 306.446C368.371 307.503 367.61 308.462 368.327 310.171C369.383 312.687 372.067 314.245 374.443 314.739C378.029 315.483 380.029 319.329 383.858 315.383C384.84 314.371 384.661 312.815 384.324 311.418C384.392 310.443 384.572 308.117 384.644 307.033C380.865 308.473 378.712 307.254 377.577 305.963C377.73 306.877 377.908 307.783 378.154 308.664C376.786 308.246 372.822 305.739 371.037 306.446Z" fill="#FFB9A4"/>
<path d="M384.358 310.947C384.358 310.947 382.117 311.753 380.676 312.211C379.234 312.669 375.774 312.856 373.124 310.289C371.065 308.295 374.23 306.923 374.23 306.923C374.23 306.923 369.212 303.927 365.876 305.321C364.327 305.968 364.256 308.582 365.144 310.188C366.048 311.823 369.374 313.984 370.872 314.361C372.37 314.739 375.751 315.369 376.884 316.053C378.967 317.31 381.603 319.071 383.982 316.776C386.359 314.481 384.358 310.947 384.358 310.947Z" fill="#23234C"/>
<path d="M399.847 186.064C396.379 184.822 392.159 186.797 391.986 190.357C390.076 193.594 391.95 198.344 394.933 200.512C398.403 203.033 403.762 200.483 404.916 196.584C406.111 192.551 403.896 187.514 399.847 186.064Z" fill="#BAC9E5"/>
<path d="M399.484 191.933C399.423 191.648 399.163 191.414 398.89 191.339C394.799 190.212 393.847 188.001 393.137 184.298C393.036 183.77 392.342 183.533 391.911 183.799C389.746 185.136 387.511 186.111 385.06 186.781C387.354 193.629 383.199 195.091 381.396 197.811C380.941 198.498 385.677 201.943 388.209 201.587C390.398 201.279 392.565 200.584 394.44 199.392C396.507 198.077 400.084 194.746 399.484 191.933Z" fill="#FFC9B6"/>
<path d="M393.672 176.23C393.29 172.706 390.402 168.011 386.448 168.309C382.42 168.613 379.681 174.592 379.367 177.376C378.833 182.107 379.25 191.027 386.717 188.163C392.534 185.933 394.242 181.488 393.672 176.23Z" fill="#FFC9B6"/>
<path d="M399.878 169.251C398.067 165.359 393.775 161.706 387.712 164.591C383.809 163.152 378.085 165.427 376.863 169.887C378.12 173.465 380.39 177.384 382.975 176.007C382.794 180.34 388.634 186.583 392.441 186.583C393.845 183.627 396.935 183.582 399.011 179.436C400.156 177.15 400.999 171.66 399.878 169.251Z" fill="#23234C"/>
<path d="M382.975 178.91C382.975 178.91 385.965 176.861 386.438 179.774C386.911 182.687 384.07 183.689 384.07 183.689L382.975 178.91Z" fill="#FFC9B6"/>
<path d="M398.432 165.422C395.956 164.338 394.355 164.177 392.237 165.763C390.045 167.405 390.848 174.2 394.388 175.008C396.662 175.527 399.597 174.914 400.809 172.903C402.353 170.341 402.09 167.023 398.432 165.422Z" fill="#FFAF04"/>
<path d="M401.769 205.975C404.357 197.972 402.777 192.651 400.49 190.033C399.549 188.957 397.318 186.738 394.878 188.935C395.67 192.58 389.378 193.747 384.817 193.747C381.364 196.324 378.266 198.125 376.293 201.612C374.204 205.305 373.203 209.055 377.659 211.747C376.293 215.795 376.358 221.497 374.115 231.914C378.275 235.22 386.455 235.548 391.212 233.501C396.359 231.286 400.578 228.262 400.405 225.733C399.257 223.272 396.158 220.922 396.284 217.862C396.444 213.999 400.584 209.643 401.769 205.975Z" fill="#DCE6F9"/>
<path d="M347.299 244.05C347.299 244.05 346.629 244.373 346.258 244.011C345.887 243.65 346.495 242.642 348.893 241.067C351.291 239.493 352.377 238.406 352.241 237.478C352.105 236.55 350.423 236.408 349.636 235.055C349.036 234.024 349.481 233.344 350.479 234.008C351.719 234.832 352.903 234.998 354.623 234.934C356.344 234.87 357.512 235.04 361.268 230.926C363.923 228.018 367.677 224.796 369.943 222.344C370.489 219.735 372.807 214.12 373.062 212.233C373.353 210.085 374.477 207.581 375.479 205.674C376.616 203.508 384.765 203.513 384.818 208.505C384.866 213.051 385.177 212.967 382.841 216.654C379.206 222.392 376.841 224.541 375.075 227C374.303 228.075 372.435 230.16 370.519 231.688C367.085 234.428 361.014 236.825 359.604 238.098C358.193 239.372 356.238 241.695 352.951 244.336C351.443 245.548 349.76 245.699 349.76 245.699C349.76 245.699 349.45 245.717 348.694 245.872C347.87 246.041 348.41 245.021 348.41 245.021C348.41 245.021 347.546 245.361 346.978 245.078C346.473 244.825 347.299 244.05 347.299 244.05Z" fill="#FFC9B6"/>
<path d="M377.694 198.04C372.735 200.609 371.626 208.911 372.881 213.405C372.049 215.331 377.305 219.905 382.155 218.152C387.214 217.692 390.457 210.032 388.193 203.69C386.454 198.818 381.396 196.122 377.694 198.04Z" fill="#BAC9E5"/>
<path d="M372.881 213.405L372.455 215.688C372.455 215.688 372.526 217.444 375.515 218.939C378.503 220.434 381.442 219.749 381.442 219.749L382.155 218.152C382.155 218.152 378.917 218.131 376.524 216.973C374.131 215.813 372.881 213.405 372.881 213.405Z" fill="white"/>
<path d="M394.89 166.258C392.88 168.69 393.776 171.507 394.783 173.864C395.302 175.078 401.7 177.078 400.407 181.701C399.571 184.688 396.941 189.163 397.355 194.793C397.768 200.423 403.084 198.417 403.084 198.417C403.084 198.417 399.787 196.715 401.701 193.604C403.615 190.493 408.983 181.932 407.483 173.971C405.982 166.011 398.61 161.759 394.89 166.258Z" fill="#2C2C5B"/>
<path d="M213.587 273.352L213.591 273.366C214.119 273.143 214.767 273.193 215.478 273.603C216.409 274.14 217.243 275.162 217.821 276.35C218.399 275.83 219.233 275.771 220.164 276.308C221.908 277.315 223.322 280.017 223.322 282.342C223.322 283.549 222.939 284.414 222.328 284.829L222.33 284.832L217.831 287.992L215.425 289.315L211.235 274.655L213.587 273.352Z" fill="#96B0D6"/>
<path d="M209.915 277.313C209.915 274.988 211.329 273.919 213.073 274.926C214.004 275.463 214.838 276.485 215.416 277.673C215.994 277.153 216.828 277.094 217.759 277.631C219.503 278.638 220.917 281.34 220.917 283.665C220.917 284.872 220.534 285.736 219.924 286.152L219.926 286.155L215.427 289.314L211.019 281.146C210.343 279.983 209.915 278.592 209.915 277.313Z" fill="#C5D2EF"/>
<path d="M110.924 200.738L110.928 200.752C111.456 200.529 112.104 200.579 112.815 200.989C113.746 201.526 114.58 202.548 115.158 203.736C115.736 203.216 116.57 203.157 117.501 203.694C119.245 204.701 120.659 207.403 120.659 209.728C120.659 210.935 120.276 211.8 119.666 212.215L119.668 212.217L115.169 215.376L112.763 216.699L108.573 202.038L110.924 200.738Z" fill="#96B0D6"/>
<path d="M107.25 204.7C107.25 202.375 108.664 201.306 110.408 202.312C111.338 202.85 112.173 203.871 112.751 205.059C113.329 204.539 114.163 204.48 115.094 205.017C116.838 206.024 118.252 208.726 118.252 211.051C118.252 212.258 117.869 213.122 117.259 213.538L117.261 213.541L112.762 216.7L108.354 208.532C107.678 207.37 107.25 205.979 107.25 204.7Z" fill="#C5D2EF"/>
<path d="M175.036 275.809L175.04 275.823C175.568 275.6 176.216 275.65 176.927 276.06C177.858 276.597 178.692 277.619 179.27 278.807C179.848 278.287 180.682 278.228 181.613 278.765C183.357 279.772 184.771 282.474 184.771 284.799C184.771 286.006 184.388 286.871 183.777 287.286L183.779 287.288L179.28 290.447L176.874 291.77L172.684 277.109L175.036 275.809Z" fill="#fb9c2a"/>
<path d="M171.363 279.77C171.363 277.444 172.777 276.376 174.521 277.382C175.451 277.92 176.286 278.941 176.864 280.129C177.442 279.609 178.276 279.55 179.207 280.087C180.951 281.094 182.365 283.796 182.365 286.121C182.365 287.328 181.982 288.193 181.372 288.608L181.374 288.611L176.875 291.771L172.467 283.603C171.791 282.441 171.363 281.049 171.363 279.77Z" fill="#FD7E62"/>
<path d="M75.6328 328.136L75.6368 328.15C76.1648 327.927 76.8128 327.977 77.5238 328.387C78.4548 328.924 79.2888 329.946 79.8668 331.134C80.4448 330.614 81.2788 330.555 82.2098 331.092C83.9538 332.099 85.3678 334.801 85.3678 337.126C85.3678 338.333 84.9848 339.198 84.3738 339.613L84.3758 339.615L79.8768 342.774L77.4708 344.097L73.2808 329.436L75.6328 328.136Z" fill="#fb9c2a"/>
<path d="M71.96 332.097C71.96 329.771 73.374 328.703 75.118 329.71C76.049 330.248 76.883 331.269 77.461 332.457C78.039 331.937 78.873 331.878 79.804 332.415C81.548 333.422 82.962 336.124 82.962 338.449C82.962 339.656 82.579 340.521 81.968 340.936L81.97 340.939L77.471 344.099L73.063 335.931C72.388 334.768 71.96 333.376 71.96 332.097Z" fill="#FD7E62"/>
<path d="M194.061 308.331L194.068 308.354C194.963 307.975 196.063 308.06 197.268 308.756C198.846 309.667 200.261 311.4 201.241 313.414C202.221 312.531 203.636 312.432 205.214 313.344C208.172 315.051 210.569 319.632 210.569 323.576C210.569 325.623 209.919 327.089 208.884 327.793L208.887 327.797L201.258 333.154L197.178 335.398L190.073 310.538L194.061 308.331Z" fill="#fb9c2a"/>
<path d="M187.833 315.048C187.833 311.105 190.231 309.292 193.188 311C194.766 311.911 196.181 313.643 197.161 315.658C198.141 314.775 199.555 314.676 201.134 315.587C204.091 317.294 206.489 321.876 206.489 325.819C206.489 327.866 205.839 329.332 204.804 330.036L204.807 330.04L197.178 335.397L189.703 321.546C188.558 319.577 187.833 317.217 187.833 315.048Z" fill="#FD7E62"/>
<path d="M71.8132 275.456L71.8202 275.479C72.7152 275.1 73.8152 275.185 75.0192 275.881C76.5972 276.792 78.0122 278.524 78.9922 280.539C79.9722 279.656 81.3872 279.557 82.9652 280.469C85.9232 282.176 88.3202 286.757 88.3202 290.701C88.3202 292.748 87.6702 294.214 86.6352 294.918L86.6382 294.922L79.0092 300.279L74.9292 302.523L67.8242 277.663L71.8132 275.456Z" fill="#96B0D6"/>
<path d="M65.584 282.173C65.584 278.23 67.982 276.417 70.939 278.125C72.517 279.036 73.932 280.769 74.912 282.783C75.892 281.9 77.307 281.801 78.885 282.713C81.843 284.42 84.24 289.002 84.24 292.945C84.24 294.992 83.59 296.458 82.555 297.162L82.558 297.166L74.929 302.523L67.455 288.672C66.31 286.701 65.584 284.342 65.584 282.173Z" fill="#C5D2EF"/>
<path d="M124.529 289.671L129.681 292.646V281.579L127.42 280.111L126.872 279.292L130.438 277.169C130.458 277.154 130.48 277.146 130.5 277.132L130.595 277.076C131.052 276.816 131.642 276.829 132.287 277.202C133.72 278.03 134.893 280.27 134.893 282.181V291.002L144.512 296.555C145.699 297.241 146.671 299.097 146.671 300.68C146.671 301.436 146.433 301.962 146.066 302.255L146.087 302.278L145.607 302.565C146.231 303.43 146.671 304.557 146.671 305.595C146.671 306.432 146.376 306.973 145.94 307.234L145.968 307.264L145.297 307.665C146.088 308.544 146.67 309.847 146.67 311.048C146.67 311.802 146.434 312.324 146.071 312.613L146.086 312.629L145.224 313.144C146.052 314.018 146.67 315.355 146.67 316.592C146.67 317.349 146.438 317.896 146.076 318.203L146.055 318.233C146.032 318.252 146.004 318.26 145.98 318.277L141.889 320.691L139.891 318.395L141.933 316.735L124.529 306.687V289.671Z" fill="#96B0D6"/>
<path d="M121.438 304.9L126.347 307.734V287.453L121.438 284.619V304.9Z" fill="#3C4C99"/>
<path d="M117.638 286.876L121.438 284.619L126.347 287.453L122.547 289.71L117.638 286.876Z" fill="#5768BC"/>
<path d="M122.547 292.973L126.347 290.716L131.256 293.55L127.455 295.807L122.547 292.973Z" fill="#96B0D6"/>
<path d="M125.881 294.902V281.427C125.881 279.516 127.054 278.629 128.487 279.457C129.92 280.284 131.093 282.525 131.093 284.436V293.257L140.712 298.811C141.9 299.496 142.871 301.352 142.871 302.936C142.871 303.999 142.413 304.63 141.766 304.755C142.414 305.627 142.871 306.787 142.871 307.85C142.871 309.169 142.183 309.843 141.271 309.653C142.183 310.516 142.871 311.984 142.871 313.304C142.871 314.702 142.099 315.375 141.105 315.056C142.099 315.886 142.871 317.45 142.871 318.848C142.871 320.431 141.9 321.166 140.712 320.48L120.729 308.943V291.929L125.881 294.902Z" fill="#C5D2EF"/>
<path d="M117.638 307.157L122.547 309.991V289.71L117.638 286.876V307.157Z" fill="#4B57AA"/>
<path d="M139.22 303.595C139.433 303.595 139.643 303.484 139.757 303.285C139.929 302.988 139.827 302.609 139.531 302.438L132.29 298.258C131.994 298.082 131.615 298.186 131.443 298.484C131.271 298.781 131.373 299.16 131.669 299.331L138.91 303.512C139.008 303.568 139.115 303.595 139.22 303.595Z" fill="#96B0D6"/>
<path d="M139.22 309.157C139.433 309.157 139.643 309.045 139.757 308.847C139.929 308.55 139.827 308.171 139.531 308L132.29 303.818C131.994 303.645 131.615 303.746 131.443 304.045C131.271 304.342 131.373 304.721 131.669 304.892L138.91 309.074C139.008 309.13 139.115 309.157 139.22 309.157Z" fill="#96B0D6"/>
<path d="M139.22 314.717C139.433 314.717 139.643 314.605 139.757 314.407C139.929 314.11 139.827 313.731 139.531 313.56L132.29 309.379C131.994 309.207 131.615 309.308 131.443 309.606C131.271 309.903 131.373 310.282 131.669 310.453L138.91 314.634C139.008 314.691 139.115 314.717 139.22 314.717Z" fill="#96B0D6"/>
<path d="M128.183 345.813L133.335 348.788V337.72L131.074 336.252L130.525 335.433L134.092 333.31C134.111 333.295 134.134 333.287 134.154 333.274L134.249 333.217C134.705 332.957 135.295 332.971 135.941 333.344C137.374 334.172 138.547 336.412 138.547 338.323V347.144L148.166 352.698C149.353 353.383 150.325 355.24 150.325 356.823C150.325 357.579 150.087 358.105 149.72 358.397L149.741 358.42L149.261 358.706C149.885 359.571 150.325 360.697 150.325 361.736C150.325 362.573 150.03 363.114 149.594 363.375L149.622 363.405L148.951 363.806C149.742 364.685 150.325 365.988 150.325 367.19C150.325 367.944 150.089 368.465 149.726 368.755L149.741 368.771L148.879 369.286C149.707 370.159 150.325 371.497 150.325 372.733C150.325 373.491 150.093 374.038 149.73 374.344L149.709 374.374C149.686 374.393 149.659 374.402 149.634 374.418L145.543 376.832L143.545 374.536L145.587 372.876L128.183 362.827V345.813Z" fill="#96B0D6"/>
<path d="M125.092 361.043L130.001 363.877V343.596L125.092 340.761V361.043Z" fill="#3C4C99"/>
<path d="M121.291 343.018L125.092 340.761L130.001 343.596L126.2 345.852L121.291 343.018Z" fill="#5768BC"/>
<path d="M126.2 349.115L130.001 346.859L134.91 349.693L131.109 351.949L126.2 349.115Z" fill="#96B0D6"/>
<path d="M129.534 351.044V337.569C129.534 335.658 130.707 334.772 132.14 335.599C133.573 336.427 134.745 338.667 134.745 340.578V349.399L144.364 354.952C145.552 355.638 146.523 357.494 146.523 359.077C146.523 360.14 146.065 360.771 145.418 360.896C146.065 361.768 146.523 362.928 146.523 363.991C146.523 365.31 145.835 365.984 144.923 365.794C145.835 366.657 146.523 368.125 146.523 369.444C146.523 370.842 145.751 371.515 144.757 371.196C145.752 372.025 146.523 373.59 146.523 374.988C146.523 376.571 145.552 377.305 144.364 376.62L124.381 365.083V348.07L129.534 351.044Z" fill="#C5D2EF"/>
<path d="M121.291 363.3L126.2 366.134V345.852L121.291 343.018V363.3Z" fill="#4B57AA"/>
<path d="M142.874 359.737C143.087 359.737 143.297 359.625 143.411 359.427C143.583 359.13 143.481 358.751 143.185 358.58L135.944 354.399C135.649 354.223 135.269 354.328 135.097 354.626C134.925 354.923 135.027 355.302 135.323 355.473L142.564 359.654C142.662 359.711 142.769 359.737 142.874 359.737Z" fill="#96B0D6"/>
<path d="M142.874 365.299C143.087 365.299 143.297 365.188 143.411 364.989C143.583 364.692 143.481 364.313 143.185 364.142L135.944 359.96C135.649 359.787 135.269 359.889 135.097 360.187C134.925 360.484 135.027 360.863 135.323 361.034L142.564 365.216C142.662 365.273 142.769 365.299 142.874 365.299Z" fill="#96B0D6"/>
<path d="M142.874 370.86C143.087 370.86 143.297 370.749 143.411 370.55C143.583 370.253 143.481 369.874 143.185 369.703L135.944 365.523C135.649 365.351 135.269 365.451 135.097 365.749C134.925 366.046 135.027 366.425 135.323 366.596L142.564 370.777C142.662 370.833 142.769 370.86 142.874 370.86Z" fill="#96B0D6"/>
<path d="M71.9604 215.788L79.3204 220.037V204.227L76.0904 202.13L75.3074 200.96L80.4025 197.927C80.4305 197.906 80.4624 197.894 80.4904 197.874L80.6255 197.793C81.2775 197.421 82.1214 197.441 83.0434 197.973C85.0904 199.155 86.7664 202.356 86.7664 205.086V217.688L100.508 225.622C102.204 226.601 103.592 229.253 103.592 231.514C103.592 232.594 103.251 233.345 102.727 233.763L102.757 233.796L102.072 234.206C102.963 235.441 103.592 237.051 103.592 238.534C103.592 239.73 103.17 240.502 102.548 240.876L102.588 240.919L101.629 241.492C102.759 242.748 103.591 244.609 103.591 246.326C103.591 247.403 103.254 248.148 102.736 248.562L102.757 248.585L101.526 249.321C102.709 250.568 103.591 252.48 103.591 254.246C103.591 255.328 103.259 256.11 102.742 256.547L102.757 256.563L102.712 256.59C102.678 256.617 102.64 256.629 102.605 256.653L96.7605 260.102L93.9064 256.823L96.8234 254.451L71.9604 240.094V215.788Z" fill="#fb9c2a"/>
<path d="M67.5454 237.545L74.5584 241.593V212.62L67.5454 208.572V237.545Z" fill="#3C4C99"/>
<path d="M62.1162 211.796L67.5452 208.572L74.5582 212.62L69.1282 215.844L62.1162 211.796Z" fill="#5768BC"/>
<path d="M69.1284 220.505L74.5584 217.282L81.5704 221.33L76.1414 224.554L69.1284 220.505Z" fill="#fb9c2a"/>
<path d="M73.8913 223.261V204.012C73.8913 201.282 75.5663 200.016 77.6143 201.198C79.6613 202.38 81.3363 205.581 81.3363 208.311V220.912L95.0783 228.846C96.7743 229.825 98.1623 232.477 98.1623 234.738C98.1623 236.256 97.5083 237.158 96.5843 237.336C97.5083 238.582 98.1623 240.239 98.1623 241.757C98.1623 243.642 97.1803 244.604 95.8773 244.333C97.1803 245.566 98.1623 247.664 98.1623 249.548C98.1623 251.544 97.0603 252.506 95.6393 252.051C97.0603 253.236 98.1623 255.471 98.1623 257.468C98.1623 259.729 96.7743 260.779 95.0783 259.799L66.5312 243.317V219.012L73.8913 223.261Z" fill="#FD7E62"/>
<path d="M62.1162 240.768L69.1282 244.817V215.844L62.1162 211.796V240.768Z" fill="#4B57AA"/>
<path d="M92.9483 235.68C93.2523 235.68 93.5523 235.521 93.7153 235.237C93.9613 234.813 93.8153 234.271 93.3913 234.027L83.0473 228.055C82.6253 227.804 82.0833 227.953 81.8373 228.379C81.5913 228.803 81.7373 229.345 82.1613 229.589L92.5053 235.561C92.6453 235.642 92.7973 235.68 92.9483 235.68Z" fill="#fb9c2a"/>
<path d="M92.9483 243.625C93.2523 243.625 93.5523 243.466 93.7153 243.182C93.9613 242.758 93.8153 242.216 93.3913 241.972L83.0473 235.998C82.6253 235.75 82.0833 235.896 81.8373 236.322C81.5913 236.746 81.7373 237.287 82.1613 237.532L92.5053 243.506C92.6453 243.587 92.7973 243.625 92.9483 243.625Z" fill="#fb9c2a"/>
<path d="M92.9483 251.569C93.2523 251.569 93.5523 251.41 93.7153 251.126C93.9613 250.702 93.8153 250.161 93.3913 249.916L83.0473 243.944C82.6253 243.698 82.0833 243.842 81.8373 244.268C81.5913 244.692 81.7373 245.234 82.1613 245.478L92.5053 251.451C92.6453 251.53 92.7973 251.569 92.9483 251.569Z" fill="#fb9c2a"/>
<path d="M133.257 236.227L138.362 239.174V228.208L136.122 226.753L135.579 225.942L139.113 223.838C139.132 223.823 139.155 223.815 139.174 223.801L139.268 223.745C139.721 223.487 140.305 223.501 140.945 223.87C142.365 224.69 143.527 226.91 143.527 228.803V237.543L153.058 243.045C154.235 243.724 155.197 245.563 155.197 247.132C155.197 247.881 154.961 248.402 154.597 248.692L154.618 248.715L154.142 248.999C154.76 249.856 155.196 250.972 155.196 252.001C155.196 252.83 154.903 253.366 154.472 253.625L154.5 253.654L153.835 254.051C154.619 254.922 155.196 256.213 155.196 257.404C155.196 258.151 154.963 258.667 154.603 258.955L154.618 258.971L153.764 259.481C154.584 260.346 155.196 261.672 155.196 262.897C155.196 263.647 154.966 264.19 154.607 264.493L154.586 264.523C154.563 264.541 154.536 264.55 154.512 264.566L150.458 266.958L148.479 264.683L150.502 263.038L133.258 253.082L133.257 236.227Z" fill="#fb9c2a"/>
<path d="M130.195 251.317L135.059 254.125V234.03L130.195 231.222V251.317Z" fill="#3C4C99"/>
<path d="M126.429 233.458L130.195 231.222L135.059 234.03L131.293 236.266L126.429 233.458Z" fill="#5768BC"/>
<path d="M131.293 239.499L135.059 237.263L139.923 240.071L136.157 242.307L131.293 239.499Z" fill="#fb9c2a"/>
<path d="M134.596 241.41V228.06C134.596 226.167 135.758 225.288 137.178 226.108C138.598 226.928 139.76 229.148 139.76 231.041V239.781L149.291 245.283C150.467 245.962 151.43 247.801 151.43 249.37C151.43 250.423 150.976 251.048 150.335 251.172C150.976 252.036 151.43 253.185 151.43 254.238C151.43 255.545 150.748 256.213 149.845 256.024C150.748 256.879 151.43 258.334 151.43 259.641C151.43 261.026 150.665 261.693 149.68 261.377C150.665 262.199 151.43 263.749 151.43 265.134C151.43 266.702 150.467 267.43 149.291 266.751L129.492 255.32V238.463L134.596 241.41Z" fill="#FD7E62"/>
<path d="M126.429 253.553L131.293 256.361V236.266L126.429 233.458V253.553Z" fill="#4B57AA"/>
<path d="M147.813 250.023C148.024 250.023 148.232 249.912 148.345 249.716C148.516 249.422 148.415 249.046 148.12 248.877L140.946 244.735C140.653 244.561 140.278 244.664 140.107 244.96C139.937 245.254 140.038 245.63 140.332 245.799L147.506 249.941C147.603 249.997 147.709 250.023 147.813 250.023Z" fill="#fb9c2a"/>
<path d="M147.813 255.534C148.024 255.534 148.232 255.424 148.345 255.227C148.516 254.933 148.415 254.557 148.12 254.388L140.946 250.245C140.653 250.074 140.278 250.174 140.107 250.47C139.937 250.764 140.038 251.14 140.332 251.309L147.506 255.452C147.603 255.508 147.709 255.534 147.813 255.534Z" fill="#fb9c2a"/>
<path d="M147.813 261.043C148.024 261.043 148.232 260.933 148.345 260.736C148.516 260.442 148.415 260.066 148.12 259.897L140.946 255.755C140.653 255.584 140.278 255.684 140.107 255.98C139.937 256.274 140.038 256.65 140.332 256.819L147.506 260.961C147.603 261.017 147.709 261.043 147.813 261.043Z" fill="#fb9c2a"/>
<path d="M70.3273 252.08C66.5953 254.036 53.4123 261.427 47.9983 265.372C47.0903 266.033 47.8463 266.699 48.5283 266.37C54.1943 263.638 67.2703 255.375 70.8493 252.838C71.3443 252.487 70.8393 251.812 70.3273 252.08Z" fill="#2F2F60"/>
<path d="M66.1451 297.23C58.7801 300.173 51.3341 304.004 44.5121 308.038C44.2651 308.184 44.4281 308.629 44.7151 308.519C52.1131 305.68 59.7311 302.253 66.6031 298.315C67.1671 297.991 66.7851 296.974 66.1451 297.23Z" fill="#2F2F60"/>
<path d="M124.465 316.712C117.1 319.654 109.654 323.486 102.832 327.52C102.585 327.666 102.748 328.11 103.035 328C110.433 325.162 118.051 321.735 124.923 317.797C125.487 317.474 125.105 316.456 124.465 316.712Z" fill="#2F2F60"/>
<path d="M62.9511 292.531C56.8821 294.793 50.8831 297.98 45.2241 301.115C45.0441 301.215 45.1671 301.533 45.3681 301.456C51.4091 299.142 57.7001 296.616 63.3301 293.43C63.8021 293.164 63.4851 292.332 62.9511 292.531Z" fill="#2F2F60"/>
<path d="M115.275 356.525C109.206 358.787 103.207 361.974 97.548 365.109C97.368 365.209 97.49 365.527 97.692 365.45C103.733 363.135 110.024 360.61 115.654 357.424C116.126 357.158 115.809 356.326 115.275 356.525Z" fill="#2F2F60"/>
<path d="M115.275 351.63C109.206 353.892 103.207 357.079 97.548 360.214C97.368 360.314 97.49 360.632 97.692 360.555C103.733 358.241 110.024 355.715 115.654 352.529C116.126 352.263 115.809 351.431 115.275 351.63Z" fill="#2F2F60"/>
<path d="M167.871 283.846C161.802 286.108 155.803 289.295 150.144 292.43C149.964 292.53 150.087 292.848 150.288 292.771C156.329 290.457 162.62 287.931 168.25 284.745C168.722 284.478 168.405 283.647 167.871 283.846Z" fill="#2F2F60"/>
<path d="M169.602 288.33C163.533 290.592 157.534 293.779 151.875 296.914C151.695 297.014 151.818 297.332 152.019 297.255C158.06 294.94 164.351 292.415 169.981 289.229C170.453 288.962 170.136 288.131 169.602 288.33Z" fill="#2F2F60"/>
<path d="M119.845 314.102C113.776 316.365 107.777 319.551 102.119 322.686C101.939 322.786 102.061 323.104 102.263 323.027C108.304 320.712 114.595 318.187 120.225 315.001C120.696 314.734 120.379 313.903 119.845 314.102Z" fill="#2F2F60"/>
<path d="M189.596 331.533C182.298 335.557 174.634 339.809 167.919 344.751C167.649 344.949 167.876 345.358 168.184 345.205C175.65 341.496 182.936 336.622 189.852 331.973C190.123 331.791 189.886 331.374 189.596 331.533Z" fill="#2F2F60"/>
<path d="M128.445 257.897C120.796 261.206 112.762 264.708 105.606 268.987C105.319 269.159 105.505 269.587 105.827 269.464C113.613 266.484 121.331 262.327 128.659 258.359C128.945 258.204 128.749 257.766 128.445 257.897Z" fill="#2F2F60"/>
<path d="M185.783 326.097C178.222 329.732 170.678 333.777 163.568 338.23C163.231 338.441 163.525 338.925 163.876 338.757C171.444 335.141 178.903 330.943 186.022 326.507C186.285 326.344 186.057 325.966 185.783 326.097Z" fill="#2F2F60"/>
<path d="M132.48 263.379C124.919 267.014 117.375 271.059 110.265 275.512C109.928 275.723 110.221 276.207 110.573 276.039C118.141 272.423 125.6 268.225 132.719 263.789C132.982 263.626 132.753 263.248 132.48 263.379Z" fill="#2F2F60"/>
<path d="M64.6201 248.42C57.0591 252.055 49.5151 256.1 42.4051 260.553C42.0681 260.764 42.3611 261.248 42.7131 261.08C50.2811 257.464 57.7401 253.266 64.8591 248.83C65.1231 248.667 64.8941 248.288 64.6201 248.42Z" fill="#2F2F60"/>
</svg>
