<svg width="500" height="500" viewBox="0 0 500 500" fill="none" xmlns="http://www.w3.org/2000/svg">
<path d="M469.607 148.327H203.79V335.801H469.607V148.327Z" fill="#fb9c2a"/>
<path d="M457.641 160.464H215.757V323.663H457.641V160.464Z" fill="#F1F1F1"/>
<path d="M335.516 190.868H276.761V213.009H335.516V190.868Z" fill="#F1F1F1"/>
<path d="M336.517 189.868H277.762V212.009H336.517V189.868Z" fill="white"/>
<path d="M329.348 194.48H284.931V196.98H329.348V194.48Z" fill="#F1F1F1"/>
<path d="M329.348 199.688H284.931V202.188H329.348V199.688Z" fill="#F1F1F1"/>
<path d="M329.348 204.896H284.931V207.396H329.348V204.896Z" fill="#F1F1F1"/>
<path d="M302.289 248.494L246.141 245.423L242.576 310.605L298.725 313.676L302.289 248.494Z" fill="#F1F1F1"/>
<path d="M303.289 247.493L247.141 244.422L243.576 309.604L299.725 312.675L303.289 247.493Z" fill="white"/>
<path d="M252.34 250.153L249.373 304.457L294.556 306.926L297.523 252.622L252.34 250.153ZM292.668 304.82L251.479 302.57L251.833 296.087L251.888 295.088L252.33 287L252.385 286.001L252.827 277.913L252.882 276.914L253.324 268.826L253.379 267.827L253.821 259.738L253.876 258.739L254.23 252.256L260.471 252.597L260.416 253.596L261.415 253.651L261.47 252.652L274.326 253.354L274.271 254.352L275.27 254.407L275.325 253.408L288.181 254.11L288.126 255.109L289.125 255.164L289.18 254.165L295.421 254.506L295.067 260.988L295.012 261.987L294.57 270.076L294.515 271.074L294.073 279.162L294.018 280.161L293.576 288.249L293.521 289.247L293.079 297.335L293.024 298.334L292.668 304.82Z" fill="#F1F1F1"/>
<path d="M271.532 259.717L271.477 260.715L273.438 260.823L273.493 259.824L271.532 259.717Z" fill="#F1F1F1"/>
<path d="M279.377 260.144L279.322 261.143L281.283 261.25L281.338 260.251L279.377 260.144Z" fill="#F1F1F1"/>
<path d="M275.435 259.914L275.381 260.913L277.342 261.02L277.396 260.021L275.435 259.914Z" fill="#F1F1F1"/>
<path d="M259.703 260.062L260.06 260.081L259.978 261.587L260.977 261.641L261.059 260.136L261.665 260.169L261.719 259.17L259.758 259.063L259.703 260.062Z" fill="#F1F1F1"/>
<path d="M255.84 258.859L255.785 259.857L257.746 259.964L257.801 258.966L255.84 258.859Z" fill="#F1F1F1"/>
<path d="M283.3 260.359L283.246 261.358L285.207 261.465L285.261 260.466L283.3 260.359Z" fill="#F1F1F1"/>
<path d="M263.671 259.274L263.616 260.273L265.577 260.38L265.632 259.381L263.671 259.274Z" fill="#F1F1F1"/>
<path d="M267.608 259.501L267.554 260.499L269.515 260.607L269.569 259.608L267.608 259.501Z" fill="#F1F1F1"/>
<path d="M291.13 260.775L291.075 261.774L293.036 261.881L293.091 260.882L291.13 260.775Z" fill="#F1F1F1"/>
<path d="M287.162 261.562L287.769 261.595L287.687 263.101L288.685 263.155L288.767 261.65L289.124 261.669L289.178 260.671L287.217 260.564L287.162 261.562Z" fill="#F1F1F1"/>
<path d="M267.112 268.589L267.057 269.587L269.018 269.694L269.073 268.696L267.112 268.589Z" fill="#F1F1F1"/>
<path d="M278.88 269.232L278.826 270.23L280.787 270.337L280.841 269.339L278.88 269.232Z" fill="#F1F1F1"/>
<path d="M271.021 268.791L270.966 269.79L272.927 269.897L272.982 268.898L271.021 268.791Z" fill="#F1F1F1"/>
<path d="M282.788 269.434L282.734 270.433L284.695 270.54L284.749 269.541L282.788 269.434Z" fill="#F1F1F1"/>
<path d="M274.953 269.013L274.898 270.011L276.859 270.118L276.914 269.12L274.953 269.013Z" fill="#F1F1F1"/>
<path d="M263.188 268.374L263.133 269.373L265.094 269.48L265.149 268.482L263.188 268.374Z" fill="#F1F1F1"/>
<path d="M290.648 269.875L290.594 270.874L292.555 270.981L292.609 269.982L290.648 269.875Z" fill="#F1F1F1"/>
<path d="M255.343 267.945L255.289 268.944L257.25 269.051L257.304 268.053L255.343 267.945Z" fill="#F1F1F1"/>
<path d="M278.368 278.305L278.314 279.304L280.275 279.411L280.33 278.412L278.368 278.305Z" fill="#F1F1F1"/>
<path d="M270.538 277.89L270.483 278.889L272.444 278.996L272.499 277.997L270.538 277.89Z" fill="#F1F1F1"/>
<path d="M290.136 278.949L290.082 279.947L292.043 280.054L292.097 279.056L290.136 278.949Z" fill="#F1F1F1"/>
<path d="M254.846 277.032L254.792 278.03L256.753 278.137L256.807 277.139L254.846 277.032Z" fill="#F1F1F1"/>
<path d="M274.443 278.088L274.389 279.086L276.35 279.193L276.404 278.195L274.443 278.088Z" fill="#F1F1F1"/>
<path d="M262.693 277.461L262.638 278.46L264.599 278.567L264.654 277.569L262.693 277.461Z" fill="#F1F1F1"/>
<path d="M282.306 278.532L282.251 279.531L284.212 279.638L284.267 278.639L282.306 278.532Z" fill="#F1F1F1"/>
<path d="M266.615 277.675L266.56 278.673L268.521 278.781L268.576 277.782L266.615 277.675Z" fill="#F1F1F1"/>
<path d="M273.947 287.174L273.893 288.172L275.854 288.279L275.908 287.281L273.947 287.174Z" fill="#F1F1F1"/>
<path d="M262.195 286.548L262.14 287.546L264.101 287.654L264.156 286.655L262.195 286.548Z" fill="#F1F1F1"/>
<path d="M258.259 286.32L258.205 287.318L260.166 287.425L260.22 286.427L258.259 286.32Z" fill="#F1F1F1"/>
<path d="M270.027 286.963L269.972 287.962L271.933 288.069L271.988 287.07L270.027 286.963Z" fill="#F1F1F1"/>
<path d="M254.35 286.12L254.296 287.118L256.257 287.225L256.312 286.227L254.35 286.12Z" fill="#F1F1F1"/>
<path d="M281.795 287.606L281.74 288.605L283.701 288.712L283.756 287.713L281.795 287.606Z" fill="#F1F1F1"/>
<path d="M266.119 286.763L266.064 287.761L268.025 287.869L268.08 286.87L266.119 286.763Z" fill="#F1F1F1"/>
<path d="M285.733 287.835L285.678 288.833L287.639 288.94L287.694 287.942L285.733 287.835Z" fill="#F1F1F1"/>
<path d="M289.655 288.049L289.601 289.047L291.562 289.154L291.616 288.156L289.655 288.049Z" fill="#F1F1F1"/>
<path d="M277.887 287.406L277.832 288.404L279.793 288.511L279.848 287.513L277.887 287.406Z" fill="#F1F1F1"/>
<path d="M265.607 295.835L265.553 296.833L267.514 296.94L267.568 295.942L265.607 295.835Z" fill="#F1F1F1"/>
<path d="M289.159 297.136L289.104 298.134L291.066 298.242L291.12 297.243L289.159 297.136Z" fill="#F1F1F1"/>
<path d="M269.545 296.064L269.49 297.062L271.451 297.169L271.506 296.171L269.545 296.064Z" fill="#F1F1F1"/>
<path d="M261.699 295.634L261.644 296.633L263.605 296.74L263.66 295.742L261.699 295.634Z" fill="#F1F1F1"/>
<path d="M273.464 296.273L273.409 297.272L275.37 297.379L275.425 296.381L273.464 296.273Z" fill="#F1F1F1"/>
<path d="M257.717 296.408L258.074 296.428L258.014 297.533L259.012 297.588L259.073 296.483L259.679 296.516L259.733 295.517L257.772 295.41L257.717 296.408Z" fill="#F1F1F1"/>
<path d="M281.313 296.706L281.259 297.705L283.22 297.812L283.274 296.813L281.313 296.706Z" fill="#F1F1F1"/>
<path d="M285.177 297.909L285.783 297.942L285.723 299.047L286.721 299.102L286.781 297.996L287.138 298.016L287.193 297.017L285.231 296.91L285.177 297.909Z" fill="#F1F1F1"/>
<path d="M277.376 296.479L277.321 297.477L279.282 297.584L279.337 296.586L277.376 296.479Z" fill="#F1F1F1"/>
<path d="M253.853 295.205L253.798 296.204L255.759 296.311L255.814 295.313L253.853 295.205Z" fill="#F1F1F1"/>
<path d="M257.901 299.533L257.792 301.53L258.79 301.584L258.899 299.587L257.901 299.533Z" fill="#F1F1F1"/>
<path d="M260.302 255.599L260.193 257.596L261.191 257.651L261.3 255.654L260.302 255.599Z" fill="#F1F1F1"/>
<path d="M259.867 263.585L259.758 265.582L260.756 265.637L260.866 263.64L259.867 263.585Z" fill="#F1F1F1"/>
<path d="M259.43 271.574L259.321 273.571L260.32 273.625L260.429 271.628L259.43 271.574Z" fill="#F1F1F1"/>
<path d="M258.338 291.547L258.229 293.544L259.228 293.598L259.337 291.601L258.338 291.547Z" fill="#F1F1F1"/>
<path d="M260.649 267.632L259.651 267.578L259.618 268.17L259.261 268.15L259.207 269.149L259.564 269.168L259.542 269.575L260.54 269.629L260.562 269.223L261.168 269.256L261.223 268.257L260.617 268.224L260.649 267.632Z" fill="#F1F1F1"/>
<path d="M260.213 275.621L259.214 275.566L259.122 277.256L258.765 277.237L258.71 278.235L260.672 278.342L260.726 277.344L260.12 277.311L260.213 275.621Z" fill="#F1F1F1"/>
<path d="M258.557 287.55L258.448 289.547L259.446 289.602L259.555 287.605L258.557 287.55Z" fill="#F1F1F1"/>
<path d="M258.995 279.563L258.886 281.56L259.884 281.615L259.993 279.618L258.995 279.563Z" fill="#F1F1F1"/>
<path d="M258.774 283.558L258.665 285.555L259.663 285.609L259.772 283.612L258.774 283.558Z" fill="#F1F1F1"/>
<path d="M273.284 272.331L273.175 274.328L274.174 274.383L274.283 272.386L273.284 272.331Z" fill="#F1F1F1"/>
<path d="M273.065 276.326L272.956 278.323L273.954 278.378L274.063 276.381L273.065 276.326Z" fill="#F1F1F1"/>
<path d="M273.503 268.34L273.394 270.337L274.393 270.391L274.502 268.394L273.503 268.34Z" fill="#F1F1F1"/>
<path d="M273.722 264.343L273.612 266.34L274.611 266.394L274.72 264.397L273.722 264.343Z" fill="#F1F1F1"/>
<path d="M274.156 256.357L274.047 258.354L275.046 258.408L275.155 256.411L274.156 256.357Z" fill="#F1F1F1"/>
<path d="M273.94 260.349L273.831 262.346L274.829 262.401L274.938 260.404L273.94 260.349Z" fill="#F1F1F1"/>
<path d="M271.973 296.297L271.864 298.294L272.863 298.348L272.972 296.351L271.973 296.297Z" fill="#F1F1F1"/>
<path d="M272.193 292.301L272.084 294.298L273.082 294.353L273.192 292.356L272.193 292.301Z" fill="#F1F1F1"/>
<path d="M272.411 288.307L272.302 290.304L273.301 290.359L273.41 288.362L272.411 288.307Z" fill="#F1F1F1"/>
<path d="M271.757 300.29L271.647 302.286L272.646 302.34L272.755 300.344L271.757 300.29Z" fill="#F1F1F1"/>
<path d="M272.63 284.316L272.521 286.313L273.519 286.367L273.628 284.37L272.63 284.316Z" fill="#F1F1F1"/>
<path d="M272.848 280.319L272.739 282.316L273.737 282.371L273.846 280.374L272.848 280.319Z" fill="#F1F1F1"/>
<path d="M286.484 285.07L286.375 287.067L287.373 287.122L287.483 285.125L286.484 285.07Z" fill="#F1F1F1"/>
<path d="M286.264 289.066L286.155 291.062L287.154 291.117L287.263 289.12L286.264 289.066Z" fill="#F1F1F1"/>
<path d="M286.701 281.078L286.592 283.075L287.59 283.129L287.699 281.132L286.701 281.078Z" fill="#F1F1F1"/>
<path d="M286.048 293.058L285.938 295.055L286.937 295.109L287.046 293.112L286.048 293.058Z" fill="#F1F1F1"/>
<path d="M287.921 277.134L286.923 277.08L286.831 278.77L286.224 278.737L286.169 279.736L288.131 279.843L288.185 278.844L287.829 278.825L287.921 277.134Z" fill="#F1F1F1"/>
<path d="M287.576 265.1L287.466 267.097L288.465 267.152L288.574 265.155L287.576 265.1Z" fill="#F1F1F1"/>
<path d="M287.137 273.089L287.028 275.086L288.027 275.141L288.136 273.144L287.137 273.089Z" fill="#F1F1F1"/>
<path d="M288.012 257.111L287.902 259.108L288.901 259.163L289.01 257.166L288.012 257.111Z" fill="#F1F1F1"/>
<path d="M285.611 301.046L285.502 303.043L286.5 303.098L286.61 301.101L285.611 301.046Z" fill="#F1F1F1"/>
<path d="M288.358 269.146L287.359 269.092L287.327 269.684L286.72 269.651L286.666 270.649L287.272 270.682L287.25 271.089L288.249 271.143L288.271 270.737L288.627 270.756L288.682 269.758L288.326 269.738L288.358 269.146Z" fill="#F1F1F1"/>
<path d="M422.319 174.659L376.069 177.587L379.275 228.216L425.525 225.287L422.319 174.659Z" fill="#F1F1F1"/>
<path d="M423.293 173.099L377.043 176.027L380.25 226.656L426.499 223.727L423.293 173.099Z" fill="white"/>
<path d="M417.21 213.79L416.514 202.8L409.34 203.254L410.036 214.245L407.098 214.43L406.006 197.182L398.832 197.636L399.924 214.885L396.986 215.071L395.168 186.375L387.994 186.829L389.811 215.525L387.522 215.67L385.618 185.6L383.786 185.716L385.807 217.618L420.303 215.433L420.187 213.602L417.21 213.79Z" fill="#F1F1F1"/>
<path d="M407.299 244.123L358.328 250.76L365.622 304.576L414.593 297.939L407.299 244.123Z" fill="#F1F1F1"/>
<path d="M408.299 243.124L359.328 249.761L366.621 303.577L415.593 296.94L408.299 243.124Z" fill="white"/>
<path d="M407.382 270.71C408.872 281.704 401.174 291.816 390.18 293.306C379.197 294.795 369.074 287.098 367.584 276.104C366.095 265.121 373.802 254.997 384.786 253.508L385.844 275.32L406.853 268.104C407.081 268.945 407.26 269.813 407.382 270.71Z" fill="#F1F1F1"/>
<path d="M405.686 263.866L388.69 269.704L387.834 252.058C396.003 250.95 403.58 256.127 405.686 263.866Z" fill="#F1F1F1"/>
<path d="M474.334 404.667H25.667V408.667H474.334V404.667Z" fill="#D3D3D3"/>
<path d="M468.425 424.538C468.425 424.538 453.604 427.482 435.321 427.482C417.038 427.482 402.217 424.538 402.217 424.538C402.217 424.538 417.038 421.594 435.321 421.594C453.604 421.595 468.425 424.538 468.425 424.538Z" fill="#D3D3D3"/>
<path d="M435.128 327.366C431.95 326.816 428.645 329.208 426.9 332.074C425.217 334.838 424.403 338.25 425.26 341.37C425.769 343.222 426.836 344.907 427.158 346.8C427.48 348.693 426.685 351.036 424.812 351.464C423.234 351.825 421.741 350.697 420.176 350.282C416.308 349.256 412.402 353.218 412.475 357.22C412.548 361.222 415.578 364.675 419.133 366.513C421.368 367.669 424.358 369.201 423.831 371.662C423.503 373.194 421.827 374.06 420.272 374.25C418.717 374.44 417.121 374.176 415.584 374.478C411.666 375.248 409.249 379.825 410.097 383.727C410.946 387.629 414.394 390.605 418.217 391.757C422.575 393.07 433.719 392.118 435.127 391.94L435.128 327.366Z" fill="#00DE91"/>
<path d="M435.128 327.366C438.306 326.816 441.611 329.208 443.356 332.074C445.039 334.838 445.853 338.25 444.996 341.37C444.487 343.222 443.42 344.907 443.098 346.8C442.776 348.694 443.571 351.036 445.444 351.464C447.022 351.825 448.515 350.697 450.08 350.282C453.948 349.256 457.854 353.218 457.781 357.22C457.708 361.222 454.678 364.675 451.123 366.513C448.888 367.669 445.898 369.201 446.425 371.662C446.753 373.194 448.429 374.06 449.984 374.25C451.539 374.44 453.135 374.176 454.672 374.478C458.59 375.248 461.007 379.825 460.159 383.727C459.31 387.629 455.862 390.605 452.039 391.757C447.681 393.07 436.537 392.118 435.129 391.94V327.366H435.128Z" fill="#00C685"/>
<path d="M447.437 425.169H422.82L417.22 394.358H453.037L447.437 425.169Z" fill="#FFA127"/>
<path d="M457.176 390.285H413.08V398.429H457.176V390.285Z" fill="#FFCB45"/>
<path d="M199.343 419.778C199.343 419.778 161.604 421.75 115.051 421.75C68.4978 421.75 30.7588 419.778 30.7588 419.778C30.7588 419.778 68.4978 417.806 115.051 417.806C161.605 417.807 199.343 419.778 199.343 419.778Z" fill="#D3D3D3"/>
<path d="M166.055 310.69H159.175V416.674H166.055V310.69Z" fill="#FFCB45"/>
<path d="M176.991 419.275H148.24L152.831 414.076H172.4L176.991 419.275Z" fill="#FFCB45"/>
<path d="M166.055 317.144H159.175V324.878H166.055V317.144Z" fill="#FFA127"/>
<path d="M69.7071 310.69H62.8271V416.674H69.7071V310.69Z" fill="#FFCB45"/>
<path d="M80.645 419.275H51.894L56.484 414.076H76.054L80.645 419.275Z" fill="#FFCB45"/>
<path d="M69.7071 317.144H62.8271V324.878H69.7071V317.144Z" fill="#FFA127"/>
<path d="M185.323 312.446H44.3037V317.143H185.323V312.446Z" fill="#D0D0DD"/>
<path d="M189.778 308.418H39.1069V313.955H189.778V308.418Z" fill="white"/>
<path d="M259.99 441.378C259.99 441.378 229.067 445.544 190.921 445.544C152.775 445.544 121.852 441.378 121.852 441.378C121.852 441.378 152.775 437.212 190.921 437.212C229.067 437.212 259.99 441.378 259.99 441.378Z" fill="#D3D3D3"/>
<path d="M376.474 456.204C376.474 456.204 345.551 460.37 307.405 460.37C269.259 460.37 238.336 456.204 238.336 456.204C238.336 456.204 269.259 452.038 307.405 452.038C345.551 452.038 376.474 456.204 376.474 456.204Z" fill="#D3D3D3"/>
<path d="M349.777 427.482C349.777 427.482 314.216 432 270.349 432C226.482 432 190.921 427.482 190.921 427.482C190.921 427.482 226.482 422.964 270.349 422.964C314.216 422.964 349.777 427.482 349.777 427.482Z" fill="#D3D3D3"/>
<path d="M255.224 88.955L251.907 70.776L243.103 62.65L242.118 64.323L246.506 70.891L238.913 69.77L233.94 60.551L232.077 61.361L236.555 72.598L247.274 76.286L247.953 87.685L255.224 88.955Z" fill="#FFC1A0"/>
<path d="M258.972 98.8179C256.708 96.3299 257.224 91.7549 257.012 84.2439L244.744 84.9329C245.16 91.8609 245.099 99.7849 248.619 105.927C252.447 112.607 268.045 119.866 281.49 122.146L281.792 114.168C281.958 109.785 278.608 106.019 274.228 105.775C267.329 105.39 262.134 102.292 258.972 98.8179Z" fill="#3B4182"/>
<path d="M249.756 38.043C246.226 30.399 242.539 22.46 240.72 14.283H204.85C203.057 22.42 199.429 30.327 195.882 37.917C193.965 42.023 192.953 46.654 193.128 51.529C193.673 66.63 205.787 79.103 220.858 80.057C221.5 80.096 222.142 80.115 222.785 80.115C239.17 80.125 252.461 66.844 252.461 50.449C252.461 46.022 251.498 41.818 249.756 38.043Z" fill="#FFCB45"/>
<path d="M252.459 50.4491C252.459 66.8441 239.168 80.1251 222.783 80.1151C222.141 80.1151 221.499 80.0961 220.857 80.0571C205.785 79.1031 193.672 66.6301 193.127 51.5291C193.049 49.3201 193.215 47.1701 193.594 45.0881C196.017 58.2141 207.226 68.4881 220.857 69.3541C221.499 69.3931 222.141 69.4121 222.783 69.4121C237.349 69.4221 249.472 58.9231 251.972 45.0681C252.294 46.8201 252.459 48.6201 252.459 50.4491Z" fill="#FFEF92"/>
<path d="M240.719 0H204.85V14.283H240.719V0Z" fill="#242143"/>
<path d="M241.835 9.0921H203.735C202.202 9.0921 200.959 7.8491 200.959 6.3161V5.1991C200.959 3.6661 202.202 2.4231 203.735 2.4231H241.835C243.368 2.4231 244.611 3.6661 244.611 5.1991V6.3161C244.612 7.8491 243.369 9.0921 241.835 9.0921Z" fill="#3A3750"/>
<path d="M228.763 20.9319H216.807C213.75 20.9319 211.272 18.4539 211.272 15.3969V14.2839H234.299V15.3969C234.299 18.4529 231.82 20.9319 228.763 20.9319Z" fill="#FFA127"/>
<path d="M231.907 51.094C228.897 51.094 226.449 48.646 226.449 45.636V41.524H219.121V45.636C219.121 48.646 216.673 51.094 213.664 51.094C211.916 51.094 210.318 50.288 209.278 48.884C208.238 47.479 207.934 45.715 208.444 44.043L208.627 43.443C209.333 41.132 211.43 39.579 213.847 39.579H217.175V17.607C217.175 17.07 217.611 16.634 218.148 16.634C218.685 16.634 219.121 17.07 219.121 17.607V39.579H226.449V17.607C226.449 17.07 226.885 16.634 227.422 16.634C227.959 16.634 228.395 17.07 228.395 17.607V39.579H231.723C234.14 39.579 236.238 41.132 236.943 43.443L237.126 44.044C237.636 45.715 237.333 47.479 236.293 48.884C235.254 50.289 233.655 51.094 231.907 51.094ZM228.395 41.525V45.637C228.395 47.573 229.97 49.149 231.907 49.149C233.032 49.149 234.06 48.631 234.729 47.727C235.398 46.823 235.593 45.688 235.265 44.612L235.082 44.011C234.628 42.524 233.278 41.525 231.723 41.525H228.395ZM213.847 41.525C212.292 41.525 210.942 42.524 210.489 44.012L210.306 44.613C209.978 45.688 210.173 46.824 210.842 47.728C211.511 48.632 212.54 49.15 213.664 49.15C215.6 49.15 217.175 47.575 217.175 45.638V41.526L213.847 41.525Z" fill="#FFA127"/>
<path d="M180.984 438.388L172.928 438.996L172.617 436.559C169.718 439.044 159.162 440.156 150.443 440.646L150.222 437.629C160.446 434.578 169.938 427.785 170.601 427.018C170.608 427.011 170.615 426.997 170.622 426.984C171.14 426.259 171.52 421.62 171.409 417.927L179.341 417.326L178.651 428.289C178.72 428.365 178.789 428.455 178.851 428.558C180.294 430.774 180.984 438.388 180.984 438.388Z" fill="#332E55"/>
<path d="M178.651 428.288C178.72 428.364 178.789 428.454 178.851 428.557C176.062 428.854 172.307 427.611 170.622 426.983C171.14 426.258 171.52 421.619 171.409 417.926L179.341 417.325L178.651 428.288Z" fill="#FFDFC4"/>
<path d="M164.535 429.959L163.454 430.819L166.129 434.184L167.21 433.325L164.535 429.959Z" fill="white"/>
<path d="M166.331 428.697L165.25 429.556L167.924 432.921L169.005 432.062L166.331 428.697Z" fill="white"/>
<path d="M168.351 427.438L167.27 428.298L169.945 431.663L171.026 430.804L168.351 427.438Z" fill="white"/>
<path d="M235.089 434.179L227.709 437.466L226.595 435.276C224.703 438.593 215.14 443.197 207.096 446.597L205.871 443.831C214.468 437.512 221.116 427.918 221.481 426.973C221.485 426.964 221.487 426.949 221.489 426.934C221.732 426.077 220.526 421.581 219.177 418.141L226.443 414.902L229.488 425.456C229.579 425.504 229.674 425.565 229.767 425.642C231.872 427.243 235.089 434.179 235.089 434.179Z" fill="#332E55"/>
<path d="M229.488 425.457C229.579 425.505 229.674 425.566 229.767 425.643C227.241 426.862 223.287 426.958 221.489 426.935C221.732 426.078 220.526 421.582 219.177 418.142L226.443 414.903L229.488 425.457Z" fill="#FFDFC4"/>
<path d="M216.793 431.773L216.065 432.947L219.718 435.214L220.446 434.04L216.793 431.773Z" fill="white"/>
<path d="M218.058 429.979L217.33 431.153L220.982 433.42L221.711 432.246L218.058 429.979Z" fill="white"/>
<path d="M219.532 428.134L218.804 429.308L222.457 431.575L223.185 430.401L219.532 428.134Z" fill="white"/>
<path d="M184.352 320.197C184.352 320.197 171.544 368.262 169.923 373.753C168.303 379.244 165.603 420.288 165.603 420.288H183.148L184.352 376.004C184.352 376.004 193.252 344.064 197.702 343.833C202.152 343.601 204.964 379.785 204.964 379.785L215.751 420.289H232.985L217.913 373.754C217.913 373.754 218.694 340.27 212.4 326.814L184.352 320.197Z" fill="#332E55"/>
<path d="M240.278 228.542L232.986 237.995C239.56 243.022 251.356 253.211 249.612 260.438C247.213 270.38 217.646 262.43 217.646 262.43L214.35 275.451C214.35 275.451 246.803 288.907 259.8 269.618C271.959 251.571 249.515 234.518 240.278 228.542Z" fill="#00DE91"/>
<path d="M210.319 261.113C210.319 261.113 217.255 261.027 219.45 263.755C221.646 266.483 214.349 329.576 214.349 329.576C214.349 329.576 199.784 331.472 181.268 327.389C181.268 327.389 186.971 267.612 188.138 266.17C189.305 264.728 194.295 263.35 194.295 263.35L202.791 265.402L210.319 261.113Z" fill="#00DE91"/>
<path d="M196.45 255.675L197.708 265.48C197.708 265.48 200.43 268.453 203.139 268.105C205.848 267.757 207.272 263.145 207.272 263.145L206.022 258.123L205.129 254.561L196.45 255.675Z" fill="#FFDFC4"/>
<path d="M196.45 255.675L197.004 259.989C202.123 260.698 204.755 259.29 206.022 258.123L205.129 254.561L196.45 255.675Z" fill="#FFC1A0"/>
<path d="M185.719 232.22C185.719 232.22 185.778 257.221 197.242 257.355C206.67 257.466 209.123 250.009 208.293 246.166C207.185 241.033 200.229 226.771 200.229 226.771L185.719 232.22Z" fill="#FFDFC4"/>
<path d="M187.947 241.062C187.947 241.062 182.75 238.809 182.908 244.176C183.066 249.543 189.697 249.498 189.697 249.498L187.947 241.062Z" fill="#FFDFC4"/>
<path d="M202.442 235.62C202.442 235.62 204.872 230.504 208.285 234.648C211.699 238.793 206.676 243.123 206.676 243.123L202.442 235.62Z" fill="#FFDFC4"/>
<path d="M184.88 242.405C184.88 242.405 184.726 242.713 184.616 243.215C184.503 243.714 184.468 244.414 184.661 245.119C184.855 245.823 185.241 246.408 185.594 246.78C185.945 247.156 186.235 247.342 186.235 247.342C186.235 247.342 186.152 247.328 186.004 247.287C185.856 247.245 185.644 247.166 185.401 247.025C184.919 246.752 184.302 246.16 184.06 245.285C183.822 244.409 184.05 243.585 184.325 243.104C184.462 242.858 184.604 242.682 184.71 242.571C184.816 242.459 184.88 242.405 184.88 242.405Z" fill="#FAC1A1"/>
<path d="M205.514 235.098C205.514 235.098 205.833 235.228 206.246 235.534C206.66 235.835 207.147 236.34 207.465 236.997C207.783 237.655 207.876 238.349 207.856 238.861C207.839 239.375 207.744 239.706 207.744 239.706C207.744 239.706 207.798 239.641 207.882 239.512C207.966 239.383 208.073 239.185 208.163 238.918C208.347 238.395 208.421 237.543 208.027 236.725C207.63 235.909 206.916 235.438 206.392 235.258C206.127 235.163 205.904 235.124 205.751 235.11C205.598 235.096 205.514 235.098 205.514 235.098Z" fill="#FAC1A1"/>
<path d="M191.954 245.195C192.271 246.038 191.844 246.979 191 247.295C190.157 247.612 189.216 247.185 188.9 246.341C188.583 245.498 189.01 244.557 189.854 244.241C190.697 243.924 191.637 244.351 191.954 245.195Z" fill="#FFC1A0"/>
<path d="M204.722 240.401C205.039 241.244 204.612 242.185 203.768 242.501C202.925 242.818 201.984 242.391 201.668 241.547C201.351 240.704 201.778 239.763 202.622 239.447C203.465 239.131 204.405 239.558 204.722 240.401Z" fill="#FFC1A0"/>
<path d="M198.517 246.286C198.517 246.286 198.5 246.455 198.387 246.748C198.33 246.894 198.246 247.069 198.119 247.259C197.987 247.456 197.769 247.666 197.463 247.78C197.161 247.9 196.777 247.923 196.398 247.79C196.026 247.672 195.641 247.323 195.471 246.941C195.124 246.297 194.802 245.554 194.555 244.745C194.064 243.12 193.993 241.567 194.075 240.473C194.113 239.924 194.18 239.484 194.237 239.184C194.297 238.887 194.331 238.719 194.331 238.719C194.331 238.719 194.353 238.889 194.393 239.189C194.43 239.491 194.488 239.924 194.573 240.451C194.741 241.508 195.049 242.93 195.51 244.456C195.743 245.219 195.989 245.939 196.236 246.59C196.384 247.118 196.891 247.361 197.328 247.3C197.766 247.257 198.061 246.89 198.251 246.672C198.438 246.439 198.517 246.286 198.517 246.286Z" fill="#FFC1A0"/>
<path d="M202.356 220.629C200.927 219.601 194.956 218.975 186.388 224.278C182.304 226.806 179.816 222.052 179.816 222.052C179.816 222.052 177.959 229.771 181.849 232.676C181.628 233.342 181.543 234.136 181.828 234.985C182.607 237.3 184.573 240.779 184.573 240.779C184.573 240.779 186.019 239.832 186.842 243.238L186.162 233.75C194.765 233.419 200.867 228.095 200.867 228.095L204.406 236.155C204.406 236.155 203.933 233.313 205.883 233.048C205.881 233.047 203.784 221.656 202.356 220.629Z" fill="#242143"/>
<path d="M197.703 226.411C197.703 226.411 197.546 226.627 197.266 227.012C196.968 227.387 196.516 227.921 195.862 228.488C194.587 229.638 192.416 230.915 189.746 231.275C187.088 231.65 184.606 231.03 183.141 230.066C182.401 229.591 181.92 229.057 181.643 228.664C181.508 228.464 181.411 228.305 181.356 228.191C181.298 228.079 181.268 228.02 181.268 228.02C181.268 228.02 181.413 228.245 181.734 228.59C182.058 228.931 182.583 229.372 183.326 229.741C184.803 230.492 187.147 230.885 189.642 230.534C192.147 230.197 194.272 229.167 195.63 228.194C196.321 227.717 196.832 227.258 197.178 226.934C197.515 226.598 197.703 226.411 197.703 226.411Z" fill="#3A3750"/>
<path d="M197.125 224.782C197.125 224.782 196.577 225.313 195.614 226.088C194.65 226.841 193.229 227.898 191.328 228.404C189.407 228.923 187.617 228.512 186.452 228.171C185.266 227.811 184.566 227.508 184.566 227.508C184.566 227.508 185.336 227.625 186.53 227.805C187.734 227.964 189.41 228.153 191.139 227.68C192.875 227.223 194.341 226.375 195.403 225.779C196.45 225.172 197.125 224.782 197.125 224.782Z" fill="#3A3750"/>
<path d="M202.332 224.319C202.332 224.319 202.258 224.246 202.132 224.122C202.01 223.993 201.818 223.821 201.578 223.627C201.099 223.234 200.39 222.796 199.552 222.457C198.712 222.123 197.896 221.951 197.279 221.904C196.972 221.879 196.714 221.87 196.537 221.879C196.36 221.882 196.256 221.884 196.256 221.884C196.256 221.884 196.351 221.84 196.512 221.765C196.678 221.686 196.93 221.601 197.254 221.53C197.897 221.386 198.866 221.377 199.831 221.762C200.794 222.15 201.489 222.825 201.854 223.374C202.04 223.649 202.163 223.885 202.229 224.056C202.294 224.222 202.332 224.319 202.332 224.319Z" fill="#3A3750"/>
<path d="M202.048 227.027C202.048 227.027 201.98 226.825 201.851 226.566C201.722 226.302 201.52 225.999 201.29 225.686C201.057 225.375 200.825 225.094 200.61 224.895C200.399 224.696 200.226 224.573 200.226 224.573C200.226 224.573 200.427 224.506 200.767 224.555C201.102 224.6 201.571 224.81 201.892 225.24C202.211 225.671 202.277 226.182 202.223 226.515C202.17 226.855 202.048 227.027 202.048 227.027Z" fill="#3A3750"/>
<path d="M206.924 260.441L210.319 261.113L207.572 270.202L202.792 265.401L206.924 260.441Z" fill="white"/>
<path d="M202.792 265.401L199.432 271.246L194.295 263.349L197.221 261.686L202.792 265.401Z" fill="white"/>
<path d="M247.685 266.411L212.511 266.662L212.47 263.195C218.457 261.826 224.305 259.388 228.736 257.176C229.238 256.925 229.7 256.698 230.17 256.447C230.454 256.293 230.737 256.164 230.996 256.018C231.498 255.751 231.96 255.5 232.397 255.248C232.745 255.07 233.061 254.883 233.361 254.705C233.871 254.405 234.325 254.138 234.738 253.887C234.835 253.83 234.924 253.774 235.013 253.717C235.912 253.158 236.479 252.745 236.649 252.591C236.649 252.575 236.665 252.559 236.681 252.542C236.762 252.445 236.811 252.291 236.843 252.072C237.078 250.857 235.871 247.811 234.931 244.773C234.656 243.866 234.396 242.967 234.21 242.108H242.319L245.932 258.496L247.685 266.411Z" fill="#444A97"/>
<path d="M245.935 258.496C240.686 259.711 236.805 255.977 235.015 253.717C235.914 253.158 236.481 252.745 236.651 252.591C236.651 252.575 236.667 252.559 236.683 252.542C236.764 252.445 236.813 252.291 236.845 252.072C237.08 250.857 235.873 247.811 234.933 244.773L236.14 242.108H242.321L245.935 258.496Z" fill="white"/>
<path d="M234.216 242.107H242.324L244.042 249.9L236.386 249.294C236.386 249.294 234.692 244.294 234.216 242.107Z" fill="#FFDFC4"/>
<path d="M226.501 256.119L225.196 257.021L228.005 261.082L229.309 260.18L226.501 256.119Z" fill="white"/>
<path d="M228.679 254.791L227.375 255.693L230.184 259.754L231.488 258.852L228.679 254.791Z" fill="white"/>
<path d="M231.081 253.515L229.777 254.418L232.586 258.479L233.89 257.576L231.081 253.515Z" fill="white"/>
<path d="M232.898 246.003L247.681 245.041L240.289 204.537C240.289 204.537 273.943 196.497 284.742 164.168L250.854 160.747L223.446 200.487L232.898 246.003Z" fill="#DDDDE9"/>
<path d="M224.981 253.497L226.605 249.984L226.394 245.221C226.394 245.221 228.967 240.699 237.864 235.722L239.225 237.477L238.245 239.598L239.925 244.316L238.75 248.599L233.525 252.941L230.08 256.738L224.981 253.497Z" fill="#FFDFC4"/>
<path d="M188.139 266.17C188.139 266.17 169.045 282.311 184.478 292.785C199.911 303.259 230.078 265.321 232.606 255.736L223.68 249.447C223.68 249.447 205.385 288.672 188.106 281.293L188.139 266.17Z" fill="#00F8A9"/>
<path d="M288.328 453.947L280.272 454.554L279.961 452.117C277.062 454.602 266.506 455.714 257.787 456.204L257.566 453.187C267.79 450.136 277.282 443.343 277.945 442.576C277.952 442.569 277.959 442.555 277.966 442.542C278.484 441.817 278.863 437.178 278.753 433.485L286.685 432.884L285.995 443.847C286.064 443.923 286.133 444.013 286.195 444.116C287.638 446.332 288.328 453.947 288.328 453.947Z" fill="#5E4941"/>
<path d="M285.995 443.847C286.064 443.923 286.133 444.013 286.195 444.116C283.406 444.413 279.651 443.17 277.966 442.542C278.484 441.817 278.863 437.178 278.753 433.485L286.685 432.884L285.995 443.847Z" fill="#FFDFC4"/>
<path d="M271.876 445.523L270.795 446.382L273.47 449.748L274.551 448.888L271.876 445.523Z" fill="white"/>
<path d="M273.672 444.26L272.591 445.119L275.266 448.484L276.347 447.625L273.672 444.26Z" fill="white"/>
<path d="M275.684 443.015L274.603 443.875L277.278 447.24L278.359 446.381L275.684 443.015Z" fill="white"/>
<path d="M342.433 449.738L335.053 453.025L333.939 450.835C332.047 454.152 322.484 458.756 314.44 462.156L313.215 459.39C321.812 453.071 328.46 443.477 328.825 442.532C328.829 442.523 328.831 442.508 328.833 442.493C329.076 441.636 327.87 437.14 326.521 433.7L333.786 430.461L336.831 441.015C336.922 441.063 337.017 441.124 337.11 441.201C339.216 442.802 342.433 449.738 342.433 449.738Z" fill="#5E4941"/>
<path d="M336.832 441.016C336.923 441.064 337.018 441.125 337.111 441.202C334.585 442.422 330.631 442.517 328.833 442.494C329.076 441.637 327.87 437.141 326.521 433.701L333.786 430.462L336.832 441.016Z" fill="#FFDFC4"/>
<path d="M324.138 447.341L323.41 448.514L327.063 450.781L327.791 449.608L324.138 447.341Z" fill="white"/>
<path d="M325.402 445.535L324.674 446.708L328.327 448.975L329.055 447.802L325.402 445.535Z" fill="white"/>
<path d="M326.878 443.691L326.149 444.864L329.802 447.131L330.53 445.958L326.878 443.691Z" fill="white"/>
<path d="M291.697 335.755C291.697 335.755 278.889 383.82 277.268 389.311C275.648 394.802 272.948 435.846 272.948 435.846H290.493L291.697 391.562C291.697 391.562 300.597 359.623 305.047 359.391C309.497 359.159 312.309 395.343 312.309 395.343L323.096 435.847H340.33L325.258 389.312C325.258 389.312 326.038 355.828 319.745 342.372L291.697 335.755Z" fill="#444A97"/>
<path d="M287.735 269.932L302.441 266.199C302.441 266.199 290.726 295.939 294.602 297.234C298.478 298.529 327.977 269.451 332.141 271.748C336.305 274.045 340.513 280.011 334.455 287.569C328.398 295.127 293.89 324.913 282.189 314.007C268.628 301.37 287.735 269.932 287.735 269.932Z" fill="#513E35"/>
<path d="M285.621 277.849V274.56L291.798 275.419L297.562 273.759L300 276.669L298.278 279.04L289.773 279.751L285.621 277.849Z" fill="#FFC1A0"/>
<path d="M323.588 274.56L334.835 273.972L336.22 268.838L337.455 264.257L337.502 264.088L335.628 262.248L329.647 263.978L327.112 268.401L326.237 269.932L323.588 274.56Z" fill="#FFDFC4"/>
<path d="M326.237 269.932L336.219 268.838L337.454 264.257C337.454 264.257 336.211 264.591 335.111 263.922C335.111 263.922 330.774 267.043 327.111 268.401L326.237 269.932Z" fill="#FFC1A0"/>
<path d="M321.99 277.245C321.99 277.245 312.913 280.444 308.45 293.002C303.987 305.56 289.212 339.658 289.212 339.658L323.589 350.805L338.821 295.747C340.154 289.324 339.411 282.643 336.7 276.669L321.99 277.245Z" fill="#57443B"/>
<path d="M336.394 273.759L320.477 274.516L318.511 279.751L336.699 276.67L336.394 273.759Z" fill="white"/>
<path d="M332.163 246.296C332.163 246.296 323.446 252.082 320.49 253.149C318.437 253.89 321.924 256.34 321.924 256.34C321.924 256.34 311.57 269.87 322.479 268.82C332.1 267.894 334.238 266.173 334.238 266.173C334.238 266.173 336.87 268.07 338.505 266.49C340.14 264.91 341.239 261.988 337.75 261.538C337.75 261.538 337.21 258.718 338.202 256.729C339.193 254.741 342.258 251.406 339.188 249.773C336.117 248.14 332.163 246.296 332.163 246.296Z" fill="#FFDFC4"/>
<path d="M328.941 258.269C328.347 259.28 328.686 260.581 329.697 261.174C330.708 261.767 332.009 261.429 332.602 260.418C333.196 259.407 332.857 258.106 331.846 257.513C330.835 256.919 329.534 257.258 328.941 258.269Z" fill="#FFC1A0"/>
<path d="M337.797 262.806C337.797 262.806 337.965 262.955 338.193 263.185C338.303 263.301 338.418 263.443 338.479 263.599C338.542 263.751 338.553 263.927 338.531 264.14C338.481 264.575 338.354 264.981 338.193 265.242C338.034 265.508 337.844 265.634 337.844 265.634C337.844 265.634 337.899 265.637 337.998 265.617C338.097 265.598 338.241 265.551 338.398 265.444C338.712 265.234 339.037 264.782 339.103 264.199C339.137 263.906 339.07 263.576 338.895 263.351C338.726 263.126 338.517 263.016 338.352 262.947C338.013 262.817 337.797 262.806 337.797 262.806Z" fill="#FFC1A0"/>
<path d="M339.272 262.091C338.619 261.549 337.781 261.485 337.042 261.902C336.692 259.779 337.035 257.547 338.006 255.627C337.031 255.836 336.164 256.502 335.711 257.391C335.413 255.5 335.869 253.939 336.326 252.147C335.802 251.953 335.169 252.313 334.631 252.34C334.001 252.371 333.367 252.321 332.75 252.195C334.053 251.652 335.169 250.78 335.964 249.683C333.744 250.017 331.328 249.638 329.189 248.621C330.557 248.632 331.86 248.122 332.743 247.229C330.014 247.147 327.217 246.162 324.954 244.487C327.04 242.615 329.846 241.713 332.894 242.27C331.359 241.076 329.496 240.28 327.605 240.009C331.61 238.001 337.456 239.33 340.653 242.976C340.701 241.793 340.352 240.558 339.665 239.485C342.536 240.508 345.054 242.641 346.456 245.237C347.858 247.833 348.123 250.855 347.17 253.386C348.165 253.437 349.128 253.08 349.761 252.426C349.91 254.428 349.031 256.367 347.447 257.533C348.66 259.201 349.329 261.18 349.325 263.093C348.504 262.323 347.579 261.652 346.587 261.106C347.015 261.341 345.884 263.788 345.693 264.107C345.119 265.066 344.3 265.867 343.354 266.459C342.228 267.164 340.044 267.388 338.701 267.46C338.058 267.494 337.424 267.373 336.817 267.157C336.731 267.127 336.657 267.106 336.607 267.104C337.435 267.214 338.538 266.225 339.256 265.502C340.138 264.614 339.925 262.633 339.272 262.091Z" fill="#242143"/>
<path d="M343.971 253.284C343.971 253.284 344.084 252.797 344.194 252.069C344.308 251.337 344.375 250.37 344.38 249.322C344.379 248.274 344.314 247.307 344.203 246.574C344.095 245.845 343.984 245.358 343.984 245.358C343.984 245.358 344.077 245.445 344.235 245.594C344.397 245.748 344.608 245.994 344.832 246.328C345.281 246.988 345.731 248.07 345.731 249.324C345.727 250.578 345.274 251.659 344.823 252.318C344.598 252.651 344.387 252.896 344.224 253.05C344.064 253.197 343.971 253.284 343.971 253.284Z" fill="#3A3750"/>
<path d="M342.444 249.85C342.444 249.85 342.141 249.441 341.703 248.848C341.236 248.239 340.634 247.452 339.984 246.604C339.328 245.761 338.719 244.979 338.248 244.373C337.786 243.799 337.466 243.403 337.466 243.403C337.466 243.403 337.952 243.498 338.666 243.844C339.377 244.185 340.308 244.817 341.053 245.78C341.796 246.744 342.172 247.805 342.322 248.578C342.475 249.356 342.444 249.85 342.444 249.85Z" fill="#3A3750"/>
<path d="M339.022 248.15C339.022 248.15 338.624 247.95 338.043 247.606C337.46 247.262 336.694 246.787 335.914 246.197C335.127 245.59 334.525 245.032 333.982 244.726C333.452 244.409 332.998 244.341 332.998 244.341C332.998 244.341 333.09 244.278 333.281 244.207C333.471 244.134 333.771 244.062 334.15 244.072C334.914 244.076 335.915 244.486 336.73 245.122C337.571 245.759 338.162 246.532 338.52 247.129C338.879 247.728 339.022 248.15 339.022 248.15Z" fill="#3A3750"/>
<path d="M342.149 264.301C342.149 264.301 342.146 263.894 342.059 263.334C341.976 262.769 341.782 262.074 341.497 261.39C341.212 260.705 340.855 260.078 340.512 259.622C340.175 259.165 339.888 258.877 339.888 258.877C339.888 258.877 340.295 258.84 340.911 259.078C341.517 259.304 342.332 259.889 342.743 260.871C343.151 261.854 342.993 262.845 342.727 263.434C342.461 264.039 342.149 264.301 342.149 264.301Z" fill="#3A3750"/>
<path d="M344.087 261.566C344.087 261.566 343.991 261.305 343.875 260.989C343.754 260.662 343.586 260.292 343.492 259.894C343.395 259.497 343.376 259.092 343.335 258.745C343.295 258.41 343.261 258.134 343.261 258.134C343.261 258.134 343.53 258.15 343.885 258.354C344.237 258.55 344.659 258.978 344.804 259.579C344.948 260.18 344.766 260.753 344.542 261.087C344.32 261.43 344.087 261.566 344.087 261.566Z" fill="#3A3750"/>
<path d="M312.038 267.172L278.93 279.04L277.747 275.767C282.94 272.51 287.654 268.266 291.113 264.718C291.502 264.313 291.858 263.94 292.215 263.551C292.434 263.316 292.66 263.097 292.855 262.871C293.244 262.458 293.6 262.069 293.924 261.688C294.191 261.404 294.426 261.121 294.653 260.854C295.042 260.4 295.374 260.003 295.682 259.631C295.706 259.599 295.739 259.566 295.763 259.534C296.508 258.619 296.946 257.987 297.059 257.776C297.051 257.76 297.059 257.735 297.075 257.719C297.115 257.597 297.115 257.435 297.075 257.225C296.84 255.637 293.3 251.943 291.291 248.687L298.946 246.006L307.581 259.972L312.038 267.172Z" fill="#444A97"/>
<path d="M307.582 259.971C304.593 261.421 300.713 262.644 297.877 261.081C297.172 260.7 296.467 260.166 295.763 259.534C296.508 258.619 296.946 257.987 297.059 257.776C297.051 257.76 297.059 257.735 297.075 257.719C297.115 257.597 297.115 257.435 297.075 257.225C296.84 255.637 293.3 251.943 291.291 248.687L298.946 246.006L307.582 259.971Z" fill="white"/>
<path d="M291.295 248.684L298.947 246.003L303.145 252.789L295.719 254.748C295.719 254.748 292.468 250.591 291.295 248.684Z" fill="#FFDFC4"/>
<path d="M288.67 264.442L287.737 265.725L291.731 268.629L292.663 267.346L288.67 264.442Z" fill="white"/>
<path d="M290.27 262.492L289.337 263.775L293.331 266.679L294.263 265.396L290.27 262.492Z" fill="white"/>
<path d="M292.116 260.501L291.183 261.784L295.177 264.688L296.11 263.405L292.116 260.501Z" fill="white"/>
<path d="M255.084 159.661L263.032 217.094L290.996 253.559L305.532 247.285L281.799 212.561C281.799 212.561 285.891 173.822 284.744 164.168L255.084 159.661Z" fill="#D0D0DD"/>
<path d="M291.179 277.849L297.063 276.131L292.592 269.619L293.555 267.933L302.462 275.948L306.009 294.082L298.722 292.905L297.899 281.516L292.662 281.008L283.123 279.751V277.174L291.179 277.849Z" fill="#FFDFC4"/>
<path d="M294.892 287.165L307.582 284.735C307.582 284.735 310.126 316.598 314.176 316.058C318.226 315.518 331.949 276.436 336.699 276.67C341.449 276.904 347.85 280.414 345.73 289.865C343.609 299.316 325.699 341.235 310.396 336.58C292.662 331.185 294.892 287.165 294.892 287.165Z" fill="#5E4941"/>
<path d="M248.435 162.734C248.435 162.734 252.283 108.08 254.73 105.658C257.176 103.237 260.387 103.263 260.387 103.263L268.466 103.755L276.545 102.986C276.545 102.986 280.95 105.327 281.561 107.773C282.173 110.219 286.096 165.038 286.096 165.038C286.096 165.038 265.896 169.664 248.435 162.734Z" fill="#444A97"/>
<path d="M273.958 101.853C267.762 103.63 263.032 101.924 263.032 101.924C263.722 100.782 264.072 99.123 264.218 97.469C264.288 96.757 264.321 96.041 264.331 95.368C264.372 93.25 264.183 91.54 264.183 91.54L272.075 91.114L272.275 92.225L273.167 97.326L273.958 101.853Z" fill="#FFDFC4"/>
<path d="M273.168 97.3271C270.746 97.6121 267.342 97.8441 264.218 97.4691C264.288 96.7571 264.321 96.0411 264.331 95.3681C264.331 95.3681 270.13 94.2581 272.275 92.2251L273.168 97.3271Z" fill="#FFC1A0"/>
<path d="M259.077 69.2061C259.077 69.2061 252.948 90.6091 261.246 94.534C269.957 98.653 276.018 86.8931 276.018 86.8931L278.008 71.8931L259.077 69.2061Z" fill="#FFDFC4"/>
<path d="M269.302 85.3359C269.302 85.3359 269.433 85.5969 269.522 86.0099C269.614 86.4199 269.633 86.9839 269.452 87.5289C269.27 88.0739 268.921 88.5049 268.605 88.7679C268.29 89.0349 268.032 89.1569 268.032 89.1569C268.032 89.1569 268.105 89.1539 268.236 89.1349C268.367 89.1159 268.554 89.0729 268.771 88.9829C269.2 88.8109 269.751 88.3959 269.978 87.7189C270.202 87.0409 270.014 86.3599 269.779 85.9489C269.662 85.7389 269.54 85.5849 269.449 85.4859C269.358 85.3849 269.302 85.3359 269.302 85.3359Z" fill="#FAC1A1"/>
<path d="M261.474 85.5659C261.768 86.5589 262.81 87.1249 263.803 86.8309C264.796 86.5369 265.362 85.4949 265.069 84.5019C264.775 83.5089 263.733 82.9429 262.74 83.2359C261.747 83.5309 261.18 84.5729 261.474 85.5659Z" fill="#FFC1A0"/>
<path d="M282.907 70.275C283.475 68.508 283.093 66.467 281.926 65.024C281.977 66.147 281.357 67.311 280.627 68.166C280.027 66.202 278.335 64.705 276.433 63.931C274.53 63.157 272.429 63.022 270.376 63.076C268.775 63.118 267.177 63.271 265.596 63.531C264.698 63.679 263.782 63.862 262.885 63.707C261.988 63.552 261.097 62.968 260.88 62.083C260.57 62.916 260.638 63.942 260.896 64.792C259.612 65.081 258.341 65.529 257.278 66.306C256.215 67.083 255.372 68.218 255.145 69.515C254.785 71.571 256.04 73.64 257.738 74.854C259.436 76.068 261.513 76.601 263.537 77.111C262.927 76.487 262.555 75.636 262.513 74.764C264.092 76.36 266.162 77.465 268.367 77.888C267.493 77.418 266.841 76.551 266.634 75.58C268.262 76.155 269.203 77.966 269.236 79.692C269.269 81.418 268.568 83.071 267.772 84.603C268.607 83.651 270.341 83.946 271.027 85.01C271.714 86.074 271.444 87.566 270.627 88.534C269.81 89.502 268.561 90.012 267.313 90.227C268.585 91.807 270.509 92.991 272.453 93.57C273.682 92.76 274.72 91.538 275.446 90.258C275.558 90.719 275.67 91.18 275.781 91.641C277.187 90.776 279.883 86.899 280.222 86.373C282.589 82.7 283.45 78.254 282.593 73.969C283.782 73.751 285.02 73.803 286.187 74.12C285.516 72.534 284.344 71.226 282.907 70.275Z" fill="#242143"/>
<path d="M265.57 72.775C265.57 72.775 264.888 73.015 263.726 73.149C263.146 73.214 262.449 73.249 261.67 73.196C260.894 73.138 259.987 72.991 259.111 72.506C258.227 72.024 257.563 71.216 257.305 70.346C257.024 69.474 257.254 68.566 257.655 68.06C258.048 67.529 258.542 67.293 258.874 67.229C259.212 67.162 259.39 67.205 259.39 67.205C259.39 67.205 259.208 67.253 258.956 67.424C258.705 67.59 258.408 67.921 258.247 68.387C258.079 68.859 258.096 69.409 258.372 69.946C258.641 70.48 259.134 70.982 259.769 71.327C261.066 72.021 262.669 72.241 263.749 72.474C264.854 72.677 265.57 72.775 265.57 72.775Z" fill="#3A3750"/>
<path d="M271.593 77.7192C271.593 77.7192 271.563 77.5092 271.511 77.1382C271.434 76.7712 271.321 76.2492 271.071 75.6572C270.585 74.4812 269.534 73.0122 267.938 72.1142C267.156 71.6452 266.313 71.4462 265.444 71.2492C264.588 71.0592 263.751 70.8402 263.115 70.5012C262.473 70.1762 262.041 69.7632 261.808 69.4492C261.574 69.1312 261.505 68.9292 261.505 68.9292C261.505 68.9292 261.651 69.0892 261.954 69.2962C262.259 69.5022 262.731 69.7312 263.352 69.8682C263.97 70.0182 264.722 70.0532 265.618 70.1222C266.491 70.1872 267.615 70.3462 268.604 70.9382C269.601 71.4942 270.347 72.3072 270.851 73.1222C271.361 73.9402 271.618 74.7762 271.723 75.4772C271.828 76.1832 271.772 76.7542 271.723 77.1342C271.648 77.5182 271.593 77.7192 271.593 77.7192Z" fill="#3A3750"/>
<path d="M273.754 85.907C273.754 85.907 274.028 85.069 274.455 83.766C274.87 82.451 275.38 80.646 275.788 78.643C276.194 76.64 276.394 74.795 276.421 73.427C276.438 72.745 276.436 72.182 276.412 71.795C276.399 71.405 276.391 71.186 276.391 71.186C276.391 71.186 276.473 71.391 276.619 71.753C276.768 72.12 276.939 72.668 277.093 73.362C277.409 74.746 277.547 76.765 277.111 78.91C276.673 81.054 275.803 82.845 275.069 84.045C274.701 84.648 274.374 85.115 274.131 85.426C273.89 85.734 273.754 85.907 273.754 85.907Z" fill="#3A3750"/>
<path d="M275.138 86.908C275.138 86.908 275.461 86.445 275.916 85.722C276.374 84.997 276.923 84.001 277.466 82.888C278.004 81.773 278.446 80.724 278.73 79.916C279.016 79.111 279.179 78.571 279.179 78.571C279.179 78.571 279.212 78.71 279.269 78.951C279.326 79.198 279.378 79.56 279.398 80.014C279.443 80.916 279.293 82.21 278.681 83.477C278.065 84.743 277.143 85.662 276.407 86.186C276.038 86.451 275.722 86.635 275.493 86.743C275.267 86.848 275.138 86.908 275.138 86.908Z" fill="#3A3750"/>
<path d="M280.827 78.5671C280.827 78.5671 280.804 78.3371 280.763 77.9281C280.717 77.5181 280.659 76.9291 280.552 76.2131C280.344 74.7831 279.973 72.8391 279.15 70.9061C278.332 68.9721 277.112 67.4731 276.027 66.5451C275.492 66.0771 275.011 65.7371 274.669 65.5131C274.322 65.2961 274.127 65.1731 274.127 65.1731C274.127 65.1731 274.354 65.2081 274.756 65.3211C275.158 65.4331 275.736 65.6321 276.409 65.9881C277.078 66.3461 277.841 66.8681 278.556 67.6041C279.268 68.3411 279.92 69.2881 280.391 70.3721C281.319 72.5631 281.355 74.7201 281.228 76.1941C281.167 76.9391 281.056 77.5321 280.975 77.9391C280.88 78.3411 280.827 78.5671 280.827 78.5671Z" fill="#3A3750"/>
<path d="M263.031 101.924L260.386 103.263C260.386 103.263 263.022 105.944 269.056 105.633C274.251 105.365 276.544 102.986 276.544 102.986L273.958 101.853C273.958 101.853 269.193 103.184 263.031 101.924Z" fill="white"/>
<path d="M228.326 94.748L224.779 76.613L215.872 68.599L214.909 70.285L219.38 76.796L211.773 75.772L206.684 66.616L204.831 67.45L209.451 78.63L220.216 82.181L221.039 93.571L228.326 94.748Z" fill="#FFDFC4"/>
<path d="M233.429 102.726C230.688 100.775 230.222 96.1949 228.42 88.8999L216.578 92.1769C218.455 98.8589 220.077 106.615 224.821 111.87C229.98 117.585 246.763 121.368 260.386 120.742L257.393 103.917C247.265 108.63 238.604 106.409 233.429 102.726Z" fill="#444A97"/>
<path d="M118.399 229.618H95.686V252.331H118.399V229.618Z" fill="#D3D3D3"/>
<path d="M109.502 234.583H104.585V247.365H109.502V234.583Z" fill="#F1F1F1"/>
<path d="M164.337 254.343V242.251H152.245V254.343H164.337Z" fill="#FFCB45"/>
<path d="M147.417 262.411V250.319H135.325V262.411H147.417Z" fill="#fb9c2a"/>
<path d="M446.232 116.947V104.855H434.14V116.947H446.232Z" fill="#444A97"/>
<path d="M429.311 125.016V112.924H417.219V125.016H429.311Z" fill="#fb9c2a"/>
<path d="M66.9731 229.618V252.331H75.8301V260.107C75.8301 269.493 68.1941 277.129 58.8091 277.129C49.4241 277.129 41.7871 269.493 41.7871 260.107V0H36.7871V260.107C36.7871 272.25 46.6661 282.129 58.8091 282.129C70.9521 282.129 80.8301 272.25 80.8301 260.107V252.331H89.6871V229.618H66.9731Z" fill="#fb9c2a"/>
</svg>
