<svg width="450" height="450" viewBox="0 0 450 450" fill="none" xmlns="http://www.w3.org/2000/svg">
<path d="M159.642 232.599L159.644 229.776L120.694 209.308C119.075 208.373 116.603 208.271 115.201 209.08L97.4302 217.163V220.135L97.4482 220.142C97.4332 220.775 97.8712 221.446 98.7702 221.965L136.403 243.677C138.022 244.612 140.494 244.714 141.896 243.905L158.721 234.191C159.445 233.774 159.74 233.193 159.642 232.599Z" fill="#3C4C99"/>
<path d="M158.722 230.979L141.897 240.693C140.495 241.502 138.023 241.4 136.404 240.465L98.7712 218.752C97.1522 217.817 96.9742 216.39 98.3762 215.581L115.201 205.867C116.603 205.057 119.075 205.16 120.694 206.095L158.327 227.808C159.946 228.742 160.124 230.169 158.722 230.979Z" fill="#5768BC"/>
<path d="M126.801 126.418C126.801 126.418 129.458 153.417 126.458 174.121C124.161 189.973 117.923 206.124 117.923 206.124L139.384 240.149L157.953 229.235V140.982L126.801 126.418Z" fill="#A8BDE2"/>
<path d="M108.232 137.331C108.232 137.331 110.889 164.33 107.888 185.034C105.591 200.886 99.353 217.037 99.353 217.037L139.383 240.148V151.895L108.232 137.331Z" fill="#C5D2EF"/>
<path d="M167.34 114.194C169.959 92.9278 154.842 73.5659 133.576 70.9476C112.31 68.3293 92.9485 83.446 90.3302 104.712C87.7119 125.978 102.829 145.339 124.094 147.958C145.36 150.576 164.722 135.459 167.34 114.194Z" fill="#4B57AA"/>
<path d="M167.973 93.9021C167.286 91.1501 166.428 88.5921 165.708 86.6491C164.909 84.4921 164.285 83.0931 164.285 83.0931L148.521 74.3481C146.825 73.6101 144.83 73.2861 142.68 73.3531C139.154 73.4631 135.206 74.6321 131.446 76.8031C129.196 78.1021 127.024 79.7681 124.937 81.6721C113.361 92.2351 104.777 111.12 104.777 127.758C104.777 138.117 108.189 144.503 113.49 147.941L129.864 157.324C129.864 157.324 137.584 156.114 142.511 153.27C157.24 144.766 169.18 121.953 169.18 102.315C169.179 99.6301 168.665 96.6751 167.973 93.9021Z" fill="#ED4222"/>
<path opacity="0.4" d="M167.973 93.902C167.286 91.15 166.428 88.592 165.708 86.649L142.679 73.353C139.153 73.463 135.205 74.632 131.445 76.803C129.195 78.102 127.023 79.768 124.936 81.672L157.046 100.211L167.973 93.902Z" fill="white"/>
<path d="M168.34 129.221C177.192 108.414 174.826 87.4871 163.054 82.479C151.283 77.4709 134.564 90.2783 125.712 111.085C116.86 131.892 119.226 152.819 130.998 157.827C142.769 162.835 159.487 150.028 168.34 129.221Z" fill="#F07862"/>
<path d="M160.316 86.899C164.819 90.006 167.63 96.438 167.63 105.375C167.63 122.672 157.113 142.767 144.14 150.257C139.821 152.751 135.777 153.524 132.3 152.819C136.513 155.726 142.205 155.722 148.476 152.101C161.449 144.611 171.966 124.517 171.966 107.219C171.965 95.681 167.282 88.31 160.316 86.899Z" fill="#DCE6F9"/>
<path d="M144.14 150.256C157.113 142.766 167.63 122.672 167.63 105.374C167.63 96.437 164.818 90.0051 160.316 86.8981C156.839 86.1931 152.795 86.967 148.476 89.46C135.503 96.95 124.986 117.044 124.986 134.342C124.986 143.279 127.798 149.711 132.3 152.818C135.777 153.523 139.821 152.75 144.14 150.256Z" fill="#C5D2EF"/>
<path d="M325.2 125.969C308.008 124.732 297.902 125.721 288.283 126.057C282.289 126.266 276.484 126.224 269.276 125.227C260.548 124.02 241.497 119.297 229.061 114.416C189.075 98.7251 163.652 86.1631 163.652 86.1631C159.392 84.0711 153.995 84.4501 148.111 87.8471C146.032 89.0471 144.024 90.5841 142.094 92.3381C131.531 101.94 123.647 118.966 123.261 134.23C123.251 134.619 123.224 135.011 123.224 135.397C123.224 144.72 126.117 151.461 130.76 154.808C130.76 154.808 143.654 164.507 179.976 188.605C191.139 196.011 203.691 206.635 212.105 216.558C224.411 231.069 231.877 245.182 234.991 251.687C236.121 254.048 236.694 255.435 236.694 255.435L289.024 200.396C289.024 200.396 327.222 126.115 325.2 125.969Z" fill="#C5D2EF"/>
<path opacity="0.1" d="M175.831 164.253C159.453 154.951 136.454 141.789 123.262 134.231C123.252 134.62 123.225 135.012 123.225 135.398C123.225 144.721 126.118 151.462 130.761 154.809C130.761 154.809 143.655 164.508 179.977 188.606C191.14 196.012 203.692 206.636 212.106 216.559C224.412 231.07 231.878 245.183 234.992 251.688L245.874 218.288C245.872 218.288 212.137 184.874 175.831 164.253Z" fill="#4B57AA"/>
<path opacity="0.3" d="M288.283 153.067V126.058C282.289 126.267 276.484 126.225 269.276 125.228C260.548 124.021 241.497 119.298 229.061 114.417C189.075 98.726 163.652 86.164 163.652 86.164C159.392 84.072 153.995 84.451 148.111 87.848C146.032 89.048 144.024 90.585 142.094 92.339C152.103 97.912 169.656 107.11 194.305 117.884C228.831 132.974 288.283 153.067 288.283 153.067Z" fill="white"/>
<path d="M323.236 117.017L310.773 109.691C306.366 107.773 301.499 107.137 296.273 107.709C290.091 108.385 283.405 110.764 276.366 114.778C276.243 114.848 276.123 114.91 276 114.98C244.048 133.428 218.146 182.918 218.146 225.521C218.146 247.994 225.358 264.052 236.86 271.51L236.893 271.533C237.885 272.175 248.564 278.052 248.564 278.052C248.564 278.052 265.312 275.427 276 269.257C307.952 250.81 333.854 201.319 333.854 158.716C333.854 140.693 323.236 117.017 323.236 117.017Z" fill="#ED4222"/>
<path opacity="0.4" d="M326.136 124.95L296.273 107.709C290.091 108.385 283.405 110.764 276.366 114.778L310.06 134.231L326.136 124.95Z" fill="white"/>
<path d="M332.06 217.113C351.268 171.975 346.139 126.574 320.603 115.707C295.067 104.84 258.794 132.621 239.585 177.759C220.376 222.897 225.505 268.298 251.041 279.165C276.578 290.033 312.851 262.251 332.06 217.113Z" fill="#F07862"/>
<path d="M314.626 125.272C324.394 132.012 330.493 145.966 330.493 165.353C330.493 202.878 307.678 246.47 279.535 262.719C270.165 268.129 261.392 269.806 253.849 268.278C262.988 274.584 275.336 274.575 288.94 266.721C317.084 250.472 339.898 206.88 339.898 169.356C339.898 144.324 329.739 128.335 314.626 125.272Z" fill="#DCE6F9"/>
<path d="M314.626 125.272C309.81 124.296 304.489 124.643 298.835 126.418C305.215 133.168 309.045 144.272 309.045 158.784C309.045 192.252 288.697 231.131 263.596 245.623C255.536 250.276 247.972 251.834 241.409 250.718C244.155 258.583 248.436 264.543 253.849 268.278C261.393 269.807 270.165 268.129 279.535 262.719C307.678 246.47 330.493 202.878 330.493 165.353C330.493 145.966 324.394 132.011 314.626 125.272Z" fill="#C5D2EF"/>
<path d="M263.595 245.622C288.696 231.13 309.044 192.251 309.044 158.783C309.044 144.271 305.214 133.167 298.834 126.417C295.632 127.422 292.327 128.874 288.939 130.83C260.795 147.079 237.98 190.671 237.98 228.196C237.98 236.838 239.199 244.391 241.407 250.717C247.972 251.833 255.536 250.275 263.595 245.622Z" fill="#C5D2EF"/>
<path opacity="0.3" d="M263.595 245.622C288.696 231.13 309.044 192.251 309.044 158.783C309.044 144.271 305.214 133.167 298.834 126.417C295.632 127.422 292.327 128.874 288.939 130.83C260.795 147.079 237.98 190.671 237.98 228.196C237.98 236.838 239.199 244.391 241.407 250.717C247.972 251.833 255.536 250.275 263.595 245.622Z" fill="#4B57AA"/>
<path d="M279.778 221.133L240.501 205.605C240.501 205.605 242.343 192.774 250.621 176.122C258.601 160.069 264.64 153.066 264.64 153.066L299.813 177.073L279.778 221.133Z" fill="white"/>
<path d="M299.813 177.074C299.807 177.071 299.799 177.076 299.793 177.073C297.053 175.597 293.527 175.787 289.675 178.011C280.961 183.042 273.898 196.538 273.898 208.156C273.898 214.774 276.195 219.345 279.779 221.132C279.917 221.225 280.042 221.332 280.203 221.399C283.088 222.611 286.257 223.281 289.582 223.281C302.966 223.281 313.816 212.431 313.816 199.047C313.814 189.321 308.083 180.932 299.813 177.074Z" fill="#4B57AA"/>
<path d="M314.086 199.178C314.086 206.739 309.489 215.523 303.818 218.797C298.147 222.071 293.55 218.596 293.55 211.034C293.55 203.472 298.147 194.689 303.818 191.415C309.489 188.141 314.086 191.617 314.086 199.178Z" fill="#ED4222"/>
<path d="M313.814 200.511C313.814 207.009 309.863 214.557 304.99 217.371C300.117 220.185 296.166 217.198 296.166 210.7C296.166 204.202 300.117 196.654 304.99 193.84C309.864 191.026 313.814 194.013 313.814 200.511Z" fill="#F07862"/>
<path d="M313.308 201.161C313.308 206.829 309.862 213.413 305.611 215.868C301.36 218.322 297.914 215.717 297.914 210.049C297.914 204.381 301.36 197.797 305.611 195.342C309.862 192.888 313.308 195.493 313.308 201.161Z" fill="white"/>
<path d="M152.132 206.994L145.848 210.669C145.011 211.152 144.327 210.635 144.327 209.519V187.68C144.327 186.565 145.012 185.257 145.848 184.773L152.132 181.098C152.969 180.615 153.653 181.132 153.653 182.248V204.087C153.654 205.203 152.969 206.511 152.132 206.994Z" fill="white"/>
<path d="M154.722 194.512C154.722 189.199 154.722 184.55 154.722 184.55L152.132 183.055L148.617 188.004C148.617 188.004 147.094 194.922 147.495 200.752C147.897 206.581 151.207 211.822 151.207 211.822L157.311 208.368C157.311 208.368 154.722 201.159 154.722 194.512Z" fill="#4B57AA"/>
<path d="M146.028 186.509V208.832L151.208 211.822C151.208 211.822 148.618 204.612 148.618 197.965C148.618 192.652 148.618 188.004 148.618 188.004L146.028 186.509Z" fill="#3C4C99"/>
<path d="M152.132 183.056L146.028 186.509L148.618 188.005L154.722 184.551L152.132 183.056Z" fill="#5768BC"/>
<path d="M90.969 139.56C90.969 139.56 95.146 136.116 97.153 132.153C99.106 128.298 99.603 126.399 100.47 124.382C100.882 123.424 101.592 123.045 101.589 123.608C101.976 123.085 102.245 123.092 102.541 123.539C103.257 123.057 103.298 124.22 103.45 124.966C104.079 124.253 104.184 125.374 104.137 125.829C103.867 128.448 102.377 131.548 102.324 132.063C102.287 132.421 103.107 132.694 103.903 131.902C104.759 131.051 104.743 130.947 105.415 130.897C106.392 130.825 105.524 131.974 104.796 132.94C104.068 133.906 102.252 135.79 100.441 136.594C98.629 137.397 94.195 143.069 94.195 143.069L90.969 139.56Z" fill="#FFC9B6"/>
<path d="M49.014 255.279C49.645 253.302 51.979 247.487 52.841 245.393C53.347 244.165 57.95 243.564 57.957 243.731C58.037 244.359 57.922 246.268 57.95 246.931C57.984 247.755 57.951 249.583 56.738 250.519C56.662 252.047 56.096 254.218 55.022 256.839C53.884 259.618 51.768 260.905 50.106 260.506C48.156 260.039 48.068 258.244 49.014 255.279Z" fill="#23234C"/>
<path d="M82.6451 232.141C83.7161 233.323 84.9191 234.646 86.0201 235.809C87.5071 237.381 89.2611 239.047 90.8721 240.486C92.8461 242.249 92.9971 244.381 89.7601 244.2C84.5271 243.907 83.3031 241.712 80.8851 239.857C80.5481 239.599 79.9881 240.22 78.6631 239.686C76.9821 239.008 76.7781 238.74 76.7781 237.071C76.7781 236.007 76.9541 233.817 77.4371 232.712C77.4201 232.694 77.4031 232.678 77.3871 232.659C77.1291 232.369 81.2161 230.565 82.6451 232.141Z" fill="#23234C"/>
<path d="M83.6501 207.762C83.1641 206.367 82.8521 200.362 83.8161 195.127C85.1161 188.067 83.6911 177.066 80.8991 171.932C80.0171 170.309 77.9641 167.33 76.3401 166.118C71.8471 169.796 56.3361 169.173 56.2321 169.294C53.2241 172.763 52.6351 174.557 51.7111 176.743C48.3381 184.719 49.8221 192.603 51.5161 197.511C52.6441 200.78 55.6411 206.717 54.8941 210.922C54.2181 214.726 52.5391 219.654 51.8781 223.511C50.6551 230.643 52.9291 237.807 52.8431 245.394C54.7731 247.11 56.4071 246.613 57.9741 245.364C57.9741 245.364 63.3691 231.447 63.7411 224.873C63.9111 221.861 62.1811 213.263 62.4801 211.439C63.3051 206.415 64.4241 205.297 65.9101 199.401C67.5171 193.024 68.3681 188.043 68.3721 187.98C69.8891 197.511 73.4501 201.318 73.5281 206.082C73.5571 207.851 72.3631 213.112 73.8681 217.616C75.6981 223.093 75.6951 227.662 77.3581 232.735C78.8551 234.449 82.3081 233.806 82.5381 232.186C82.5371 226.63 86.1511 214.934 83.6501 207.762Z" fill="#ED4222"/>
<path d="M58.6571 138.477C59.7991 139.552 60.8551 140.295 62.4141 140.717C64.1011 141.173 67.7111 146.726 68.8481 145.099C69.3341 144.404 69.7021 140.302 69.8851 139.473C69.3911 139.248 68.2881 136.438 68.2121 136.019C68.0791 135.285 67.3271 134.606 67.4561 133.87C67.6351 132.846 67.8581 131.792 67.9611 130.74C66.4591 129.922 65.1141 128.805 63.3861 128.399C62.4381 128.176 61.1221 125.513 60.2351 125.027C60.8341 127.307 60.0861 130.556 59.8201 131.879C59.5141 133.404 59.2781 134.059 58.2031 135.61C58.5821 135.726 58.2531 138.098 58.6571 138.477Z" fill="#FFB9A4"/>
<path d="M78.673 168.585C77.155 165.605 74.398 164.061 73.481 160.791C72.526 157.384 73.588 153.701 74.58 150.424C74.69 150.06 74.392 149.724 74.036 149.71C67.921 149.47 62.477 151.931 56.656 153.415C56.613 153.426 56.595 153.453 56.569 153.476C56.462 153.397 56.364 153.306 56.253 153.234C56.086 153.124 55.837 153.352 55.966 153.521C57.602 155.676 58.991 157.789 59.376 160.451C59.267 164.117 53.583 171.764 53.207 173.468C55.803 176.35 63.132 178.51 69.443 176.35C73.922 175.176 78.679 171.791 78.673 168.585Z" fill="white"/>
<path d="M98.699 136.247C96.608 134.294 95.514 134.03 95.514 134.03C95.514 134.03 95.514 134.03 91.7 137.571C89.619 139.504 86.765 141.306 84.695 143.502C81.802 139.936 77.54 135.095 76.093 133.05C73.801 129.81 67.96 130.74 67.96 130.74L71.22 145.016C71.22 145.016 77.248 150.459 81.175 153.216C83.776 155.042 85.792 154.575 89.229 151.982C93.338 148.882 99.683 138.875 99.683 138.875C99.683 138.875 99.891 137.361 98.699 136.247Z" fill="#ED4222"/>
<path d="M69.102 138.876C69.102 138.876 66.514 140.824 62.466 140.108C58.417 139.392 64.876 151.39 68.212 149.693C71.548 147.997 69.102 138.876 69.102 138.876Z" fill="white"/>
<path d="M75.213 139.473C73.973 137.142 72.102 134.734 70.377 132.771C70.262 132.64 67.054 133.901 66.369 133.039C66.369 133.988 67.207 135.583 67.961 137.785C68.472 139.277 70.032 144.184 69.145 147.656C65.699 143.684 59.077 136.217 58.204 135.611C56.966 136.804 54.185 138.096 52.687 138.998C52.037 139.39 51.574 140.705 51.601 141.073C51.697 142.383 52.133 149.38 53.647 151.833C54.908 153.396 57.477 155.725 58.204 158.652C59.148 162.452 54.699 168.929 52.096 173.79C54.634 175.816 59.819 179.951 65.155 179.951C66.955 179.951 68.734 179.651 70.432 179.167C70.525 177.213 70.721 173.336 71.221 172.205C72.151 174.066 73.563 175.822 74.579 177.586C78.976 175.504 82.264 172.692 82.991 171.949C81.214 168.573 77.609 164.526 76.094 158.566C75.046 154.446 77.572 148.414 77.776 146.888C78.196 143.734 76.109 141.157 75.213 139.473Z" fill="#F07862"/>
<path d="M67.7981 132.07C69.7011 134.123 71.7751 137.249 71.7751 137.249C71.7751 137.249 70.8371 139 69.7011 140.089C71.4991 140.799 72.9931 142.314 72.9931 142.314L69.1441 147.656C69.1441 147.656 68.0881 139.776 67.2691 136.469C66.4501 133.162 65.9741 132.071 65.9741 132.071C65.9741 132.071 67.3781 131.893 67.7981 132.07Z" fill="#ED4222"/>
<path d="M58.4361 134.294C58.4361 134.294 61.5051 136.699 63.4201 138.743C67.2951 142.881 69.1451 147.655 69.1451 147.655L61.6671 144.823C61.6671 144.823 61.9271 143.052 63.0391 141.688C60.7201 141.637 55.4721 139.056 55.7341 137.179C55.9961 135.303 58.4361 134.294 58.4361 134.294Z" fill="#ED4222"/>
<path d="M73.836 122.668C73.74 120.379 73.245 117.503 71.484 115.869C69.745 114.255 66.756 114.095 64.498 114.253C60.997 114.498 58.532 118.37 59.152 122.848C59.724 126.984 62.486 133.358 67.099 134.222C72.229 135.184 73.981 126.15 73.836 122.668Z" fill="#FFC9B6"/>
<path d="M62.72 100.635C61.685 99.769 60.489 99.658 59.566 100.732C59.284 101.06 59.08 101.424 58.938 101.809C57.915 100.034 56.363 98.569 54.428 99.262C52.181 100.067 52.241 102.256 53.145 104.034C52.322 104.037 51.492 104.268 50.984 104.688C50.23 105.311 50.181 106.237 50.784 106.997C50.952 107.209 51.217 107.428 51.51 107.638C50.475 108.724 50.566 111.128 51.945 112.148C54.34 113.919 59.277 112.576 61.164 110.403C61.251 110.423 61.342 110.417 61.406 110.342C62.808 108.704 63.302 106.657 63.648 104.568C63.923 102.903 64.104 101.794 62.72 100.635Z" fill="#2C2C5B"/>
<path d="M63.8911 110.604C63.8911 110.604 61.4841 107.792 58.3741 108.942C55.2641 110.092 57.6271 115.02 57.6271 115.02L63.8911 110.604Z" fill="#F07862"/>
<path d="M70.4169 109.999C68.8009 110.074 67.3699 110.929 65.7129 110.708C64.3109 110.522 62.5959 110.571 61.1789 110.831C55.1329 111.94 54.5689 120.287 55.9839 124.2C56.8339 126.55 59.0559 128.941 60.3769 130.173C60.3769 127.278 62.8349 121.899 64.4629 120.92C66.5419 119.671 71.3819 119.153 73.5669 119.956C76.9239 116.005 76.0319 109.739 70.4169 109.999Z" fill="#23234C"/>
<path d="M63.402 124.25C63.402 124.25 61.915 121.846 60.833 123.333C59.752 124.82 60.766 127.862 62.118 127.794C63.47 127.727 63.402 124.25 63.402 124.25Z" fill="#FFC9B6"/>
<path d="M64.4491 165.431L65.4871 168.24C65.4871 168.24 63.5291 169.153 61.9531 169.824C59.5791 170.834 57.3871 171.049 57.3871 171.049L56.8591 168.745C56.8591 168.745 61.0921 167.187 64.4491 165.431Z" fill="#F07862"/>
<path d="M69.1359 149.72C69.1529 150.203 69.5029 150.582 69.9159 150.567C70.3299 150.552 70.6519 150.149 70.6339 149.666C70.6169 149.184 70.2669 148.804 69.8529 148.819C69.4399 148.834 69.1189 149.237 69.1359 149.72Z" fill="white"/>
<path d="M69.105 158.783C69.122 159.265 69.472 159.645 69.886 159.63C70.3 159.615 70.621 159.212 70.604 158.729C70.587 158.247 70.237 157.867 69.824 157.882C69.409 157.897 69.087 158.3 69.105 158.783Z" fill="white"/>
<path d="M70.2399 168.266C70.2569 168.749 70.6069 169.128 71.0209 169.113C71.4349 169.098 71.7559 168.695 71.7389 168.212C71.7219 167.729 71.3719 167.35 70.9579 167.365C70.5439 167.38 70.2229 167.784 70.2399 168.266Z" fill="white"/>
<path d="M77.6801 162.922C77.6801 162.922 76.4851 162.88 75.0181 162.61C75.3261 163.896 75.8461 165.182 75.8461 165.182H78.8151L77.6801 162.922Z" fill="#FF9D27"/>
<path d="M80.1559 146.692L81.1759 147.265L73.3269 165.687L72.3079 165.113L80.1559 146.692Z" fill="#A8BDE2"/>
<path d="M94.714 139.449L93.694 138.876L80.156 146.692L81.176 147.265L94.714 139.449Z" fill="#C5D2EF"/>
<path d="M86.991 161.533L70.843 170.856L80.205 148.883L96.353 139.56L86.991 161.533Z" fill="#23234C"/>
<path d="M78.989 148.199L80.205 148.883L70.843 170.856L69.627 170.172L78.989 148.199Z" fill="#2C2C5B"/>
<path d="M96.353 139.56L95.137 138.876L78.989 148.199L80.205 148.883L96.353 139.56Z" fill="#333368"/>
<path d="M68.6709 163.585C68.9239 163.761 70.0189 162.072 71.6089 160.734C73.1989 159.396 73.1489 158.838 73.8429 157.882C74.5369 156.926 74.9969 157.499 74.7149 158.756C74.4339 160.013 73.8429 161.792 73.8429 161.792C73.8429 161.792 75.2439 161.914 76.8979 160.5C78.5509 159.087 80.5159 158.635 80.3009 160.5C80.0859 162.365 78.1279 165.257 75.0169 166.118C71.9059 166.979 69.1029 167.365 69.1029 167.365L68.6709 163.585Z" fill="#FFC9B6"/>
<path d="M69.996 161.901C69.996 161.901 66.45 162.261 61.89 162.609C60.626 162.706 57.882 162.384 56.859 162.609C57.666 158.155 59.043 152.21 58.646 150.567C57.519 145.904 56.071 142.514 52.686 138.997C50.27 139.156 44.015 142.382 47.674 148.882C46.909 153.245 47.751 157.045 48.635 162.002C49.208 165.214 49.35 165.968 50.899 169.113C52.03 171.408 55.777 170.254 58.798 169.825C64.044 169.08 70.295 167.365 70.295 167.365C70.295 167.365 70.988 166.805 70.843 164.267C70.772 163.02 69.996 161.901 69.996 161.901Z" fill="#ED4222"/>
<path d="M394.129 174.677L394.125 174.69C393.603 174.469 392.961 174.519 392.257 174.925C391.335 175.457 390.51 176.469 389.937 177.645C389.365 177.13 388.539 177.072 387.617 177.604C385.89 178.601 384.49 181.276 384.49 183.579C384.49 184.774 384.869 185.63 385.474 186.041L385.472 186.043L389.927 189.171L392.309 190.481L396.458 175.966L394.129 174.677Z" fill="#96B0D6"/>
<path d="M397.766 178.599C397.766 176.297 396.366 175.238 394.639 176.235C393.717 176.767 392.892 177.778 392.319 178.955C391.747 178.44 390.921 178.381 390 178.914C388.273 179.911 386.873 182.586 386.873 184.888C386.873 186.083 387.252 186.939 387.857 187.35L387.855 187.353L392.31 190.481L396.674 182.394C397.342 181.243 397.766 179.865 397.766 178.599Z" fill="#C5D2EF"/>
<path d="M376.766 93.2401L376.762 93.2531C376.24 93.0321 375.598 93.0821 374.894 93.4881C373.972 94.0201 373.147 95.0321 372.574 96.2081C372.002 95.6931 371.176 95.6351 370.254 96.1671C368.527 97.1641 367.127 99.8391 367.127 102.141C367.127 103.336 367.506 104.192 368.111 104.603L368.109 104.605L372.564 107.733L374.946 109.043L379.095 94.5271L376.766 93.2401Z" fill="#96B0D6"/>
<path d="M380.403 97.1621C380.403 94.8591 379.003 93.8011 377.276 94.7981C376.355 95.3301 375.529 96.3421 374.956 97.5181C374.384 97.0031 373.558 96.9441 372.637 97.4771C370.91 98.4741 369.51 101.149 369.51 103.451C369.51 104.646 369.889 105.502 370.493 105.913L370.491 105.916L374.946 109.044L379.31 100.956C379.979 99.8061 380.403 98.4281 380.403 97.1621Z" fill="#C5D2EF"/>
<path d="M379.115 243.827L379.111 243.841C378.589 243.62 377.946 243.669 377.243 244.076C376.321 244.608 375.496 245.62 374.923 246.796C374.351 246.281 373.525 246.223 372.603 246.754C370.876 247.751 369.476 250.426 369.476 252.729C369.476 253.924 369.855 254.78 370.46 255.191L370.458 255.193L374.913 258.321L377.295 259.631L381.444 245.116L379.115 243.827Z" fill="#ED4222"/>
<path d="M382.751 247.749C382.751 245.446 381.351 244.388 379.624 245.385C378.703 245.917 377.877 246.929 377.304 248.105C376.732 247.59 375.906 247.532 374.985 248.064C373.258 249.061 371.858 251.736 371.858 254.039C371.858 255.234 372.237 256.09 372.842 256.501L372.84 256.504L377.295 259.632L381.659 251.545C382.327 250.393 382.751 249.015 382.751 247.749Z" fill="#F07862"/>
<path d="M339.079 205.71L339.072 205.733C338.186 205.358 337.097 205.442 335.904 206.131C334.341 207.033 332.941 208.748 331.971 210.743C331.001 209.869 329.6 209.771 328.037 210.673C325.109 212.364 322.735 216.899 322.735 220.804C322.735 222.831 323.378 224.282 324.403 224.979L324.4 224.983L331.954 230.287L335.993 232.509L343.028 207.895L339.079 205.71Z" fill="#ED4222"/>
<path d="M345.246 212.361C345.246 208.457 342.872 206.662 339.944 208.353C338.381 209.255 336.981 210.97 336.011 212.965C335.04 212.091 333.64 211.993 332.077 212.895C329.149 214.585 326.775 219.121 326.775 223.025C326.775 225.052 327.418 226.503 328.443 227.201L328.44 227.205L335.994 232.509L343.394 218.795C344.527 216.844 345.246 214.508 345.246 212.361Z" fill="#F07862"/>
<path d="M354.483 264.219L349.382 267.164V256.206L351.621 254.752L352.164 253.941L348.633 251.839C348.614 251.824 348.592 251.816 348.572 251.803L348.478 251.747C348.026 251.49 347.442 251.503 346.802 251.872C345.383 252.692 344.222 254.91 344.222 256.802V265.536L334.698 271.035C333.523 271.714 332.561 273.551 332.561 275.119C332.561 275.868 332.797 276.388 333.16 276.678L333.139 276.701L333.614 276.985C332.996 277.841 332.561 278.957 332.561 279.985C332.561 280.814 332.853 281.349 333.285 281.608L333.257 281.637L333.921 282.034C333.138 282.904 332.561 284.195 332.561 285.384C332.561 286.131 332.794 286.647 333.154 286.934L333.139 286.95L333.992 287.46C333.172 288.325 332.561 289.649 332.561 290.873C332.561 291.623 332.791 292.165 333.15 292.468L333.171 292.497C333.194 292.515 333.221 292.524 333.245 292.541L337.296 294.931L339.274 292.658L337.252 291.014L354.484 281.065V264.219H354.483Z" fill="#96B0D6"/>
<path d="M357.543 279.298L352.683 282.104V262.023L357.543 259.217V279.298Z" fill="#3C4C99"/>
<path d="M361.306 261.452L357.543 259.217L352.683 262.023L356.446 264.258L361.306 261.452Z" fill="#5768BC"/>
<path d="M356.446 267.488L352.683 265.254L347.822 268.06L351.586 270.294L356.446 267.488Z" fill="#96B0D6"/>
<path d="M353.145 269.398V256.057C353.145 254.165 351.984 253.287 350.565 254.106C349.146 254.925 347.985 257.144 347.985 259.036V267.77L338.461 273.269C337.285 273.947 336.324 275.785 336.324 277.353C336.324 278.405 336.777 279.03 337.418 279.154C336.777 280.017 336.324 281.166 336.324 282.218C336.324 283.524 337.005 284.191 337.908 284.003C337.005 284.857 336.324 286.311 336.324 287.617C336.324 289.001 337.088 289.667 338.073 289.352C337.089 290.173 336.324 291.722 336.324 293.106C336.324 294.673 337.286 295.401 338.461 294.722L358.246 283.299V266.453L353.145 269.398Z" fill="#C5D2EF"/>
<path d="M361.306 281.532L356.446 284.338V264.258L361.306 261.452V281.532Z" fill="#4B57AA"/>
<path d="M339.937 278.005C339.726 278.005 339.518 277.895 339.406 277.698C339.235 277.404 339.336 277.029 339.63 276.86L346.799 272.721C347.092 272.547 347.467 272.65 347.637 272.945C347.807 273.239 347.706 273.614 347.413 273.784L340.244 277.923C340.147 277.979 340.041 278.005 339.937 278.005Z" fill="#96B0D6"/>
<path d="M339.937 283.512C339.726 283.512 339.518 283.401 339.406 283.205C339.235 282.911 339.336 282.536 339.63 282.366L346.799 278.226C347.092 278.054 347.467 278.155 347.637 278.45C347.807 278.744 347.706 279.119 347.413 279.289L340.244 283.429C340.147 283.486 340.041 283.512 339.937 283.512Z" fill="#96B0D6"/>
<path d="M339.937 289.017C339.726 289.017 339.518 288.907 339.406 288.71C339.235 288.416 339.336 288.041 339.63 287.872L346.799 283.733C347.092 283.563 347.467 283.662 347.637 283.957C347.807 284.251 347.706 284.626 347.413 284.795L340.244 288.934C340.147 288.991 340.041 289.017 339.937 289.017Z" fill="#96B0D6"/>
<path d="M376.114 210.25L371.013 213.195V202.237L373.252 200.783L373.795 199.972L370.264 197.87C370.245 197.855 370.223 197.847 370.203 197.834L370.109 197.778C369.657 197.52 369.073 197.534 368.433 197.903C367.014 198.722 365.853 200.941 365.853 202.833V211.567L356.329 217.066C355.154 217.745 354.192 219.582 354.192 221.15C354.192 221.899 354.428 222.419 354.791 222.709L354.77 222.731L355.245 223.015C354.628 223.871 354.192 224.987 354.192 226.015C354.192 226.844 354.484 227.379 354.916 227.638L354.888 227.668L355.552 228.065C354.769 228.935 354.192 230.225 354.192 231.415C354.192 232.162 354.425 232.677 354.785 232.965L354.77 232.981L355.623 233.491C354.803 234.356 354.192 235.68 354.192 236.904C354.192 237.654 354.422 238.196 354.781 238.499L354.802 238.529C354.825 238.547 354.852 238.556 354.876 238.573L358.927 240.963L360.905 238.69L358.883 237.046L376.115 227.097L376.114 210.25Z" fill="#96B0D6"/>
<path d="M379.174 225.329L374.314 228.135V208.055L379.174 205.249V225.329Z" fill="#3C4C99"/>
<path d="M382.937 207.483L379.174 205.249L374.314 208.055L378.077 210.289L382.937 207.483Z" fill="#5768BC"/>
<path d="M378.077 213.52L374.314 211.286L369.454 214.092L373.217 216.326L378.077 213.52Z" fill="#96B0D6"/>
<path d="M374.776 215.43V202.089C374.776 200.197 373.615 199.319 372.195 200.138C370.776 200.958 369.615 203.176 369.615 205.068V213.802L360.091 219.301C358.915 219.98 357.954 221.817 357.954 223.385C357.954 224.437 358.407 225.062 359.048 225.186C358.407 226.049 357.954 227.198 357.954 228.25C357.954 229.556 358.635 230.223 359.538 230.035C358.635 230.889 357.954 232.343 357.954 233.649C357.954 235.033 358.718 235.699 359.703 235.384C358.719 236.205 357.954 237.754 357.954 239.138C357.954 240.705 358.916 241.432 360.091 240.754L379.876 229.331V212.485L374.776 215.43Z" fill="#C5D2EF"/>
<path d="M382.937 227.564L378.077 230.37V210.289L382.937 207.483V227.564Z" fill="#4B57AA"/>
<path d="M361.568 224.037C361.357 224.037 361.149 223.927 361.037 223.73C360.867 223.436 360.968 223.061 361.261 222.891L368.43 218.752C368.723 218.578 369.098 218.681 369.268 218.976C369.438 219.27 369.337 219.645 369.044 219.815L361.875 223.954C361.778 224.01 361.673 224.037 361.568 224.037Z" fill="#96B0D6"/>
<path d="M361.568 229.544C361.357 229.544 361.149 229.433 361.037 229.237C360.867 228.943 360.968 228.568 361.261 228.398L368.43 224.257C368.723 224.086 369.098 224.187 369.268 224.482C369.438 224.776 369.337 225.151 369.044 225.32L361.875 229.46C361.778 229.517 361.673 229.544 361.568 229.544Z" fill="#96B0D6"/>
<path d="M361.568 235.049C361.357 235.049 361.149 234.939 361.037 234.742C360.867 234.448 360.968 234.073 361.261 233.904L368.43 229.765C368.723 229.594 369.098 229.694 369.268 229.989C369.438 230.283 369.337 230.658 369.044 230.828L361.875 234.967C361.778 235.023 361.673 235.049 361.568 235.049Z" fill="#96B0D6"/>
<path d="M393.701 130.253L386.414 134.46V118.807L389.612 116.73L390.387 115.572L385.343 112.569C385.316 112.548 385.284 112.536 385.255 112.517L385.121 112.437C384.475 112.069 383.641 112.088 382.727 112.616C380.7 113.787 379.041 116.955 379.041 119.658V132.135L365.436 139.99C363.757 140.96 362.383 143.585 362.383 145.824C362.383 146.893 362.72 147.637 363.239 148.051L363.209 148.083L363.888 148.489C363.006 149.712 362.383 151.305 362.383 152.774C362.383 153.958 362.801 154.723 363.417 155.093L363.377 155.135L364.326 155.702C363.207 156.945 362.383 158.788 362.383 160.488C362.383 161.554 362.716 162.292 363.23 162.702L363.209 162.724L364.427 163.452C363.256 164.687 362.383 166.579 362.383 168.328C362.383 169.399 362.712 170.173 363.224 170.606L363.209 170.622L363.254 170.648C363.287 170.675 363.325 170.687 363.36 170.711L369.147 174.126L371.972 170.879L369.084 168.531L393.701 154.318V130.253Z" fill="#ED4222"/>
<path d="M398.072 151.794L391.129 155.802V127.117L398.072 123.108V151.794Z" fill="#3C4C99"/>
<path d="M403.448 126.3L398.072 123.108L391.129 127.117L396.505 130.308L403.448 126.3Z" fill="#5768BC"/>
<path d="M396.505 134.923L391.129 131.732L384.186 135.74L389.561 138.932L396.505 134.923Z" fill="#D7726A"/>
<path d="M391.789 137.652V118.593C391.789 115.89 390.13 114.636 388.103 115.806C386.076 116.977 384.417 120.146 384.417 122.848V135.325L370.812 143.18C369.132 144.149 367.759 146.775 367.759 149.014C367.759 150.517 368.407 151.41 369.322 151.587C368.407 152.821 367.759 154.461 367.759 155.964C367.759 157.83 368.732 158.783 370.022 158.514C368.732 159.735 367.759 161.812 367.759 163.677C367.759 165.654 368.851 166.606 370.257 166.155C368.85 167.328 367.759 169.541 367.759 171.518C367.759 173.757 369.133 174.796 370.812 173.826L399.076 157.508V133.443L391.789 137.652Z" fill="#F07862"/>
<path d="M403.448 154.986L396.505 158.994V130.308L403.448 126.3V154.986Z" fill="#4B57AA"/>
<path d="M372.921 149.947C372.62 149.947 372.323 149.789 372.162 149.508C371.919 149.088 372.063 148.552 372.483 148.31L382.724 142.397C383.142 142.148 383.678 142.296 383.922 142.717C384.165 143.137 384.021 143.673 383.602 143.915L373.361 149.828C373.221 149.91 373.07 149.947 372.921 149.947Z" fill="#ED4222"/>
<path d="M372.921 157.814C372.62 157.814 372.323 157.656 372.162 157.375C371.919 156.955 372.063 156.419 372.483 156.177L382.724 150.262C383.142 150.017 383.678 150.161 383.922 150.582C384.165 151.002 384.021 151.538 383.602 151.78L373.361 157.695C373.221 157.776 373.07 157.814 372.921 157.814Z" fill="#ED4222"/>
<path d="M372.921 165.679C372.62 165.679 372.323 165.521 372.162 165.24C371.919 164.82 372.063 164.284 372.483 164.042L382.724 158.129C383.142 157.886 383.678 158.028 383.922 158.449C384.165 158.869 384.021 159.405 383.602 159.647L373.361 165.56C373.221 165.641 373.07 165.679 372.921 165.679Z" fill="#ED4222"/>
<path d="M343.766 169.544L338.712 172.462V161.605L340.93 160.165L341.468 159.362L337.97 157.279C337.951 157.264 337.929 157.256 337.909 157.243L337.816 157.188C337.368 156.933 336.789 156.946 336.156 157.312C334.75 158.124 333.6 160.322 333.6 162.196V170.85L324.164 176.298C322.999 176.971 322.046 178.791 322.046 180.344C322.046 181.086 322.28 181.602 322.64 181.888L322.619 181.911L323.09 182.192C322.478 183.04 322.046 184.145 322.046 185.164C322.046 185.985 322.336 186.516 322.763 186.772L322.735 186.801L323.393 187.194C322.617 188.056 322.045 189.335 322.045 190.513C322.045 191.253 322.276 191.764 322.633 192.049L322.618 192.064L323.463 192.569C322.651 193.426 322.045 194.738 322.045 195.951C322.045 196.694 322.273 197.231 322.628 197.531L322.649 197.56C322.672 197.578 322.698 197.587 322.723 197.603L326.737 199.971L328.697 197.719L326.694 196.09L343.767 186.233V169.544H343.766Z" fill="#ED4222"/>
<path d="M346.797 184.484L341.982 187.264V167.369L346.797 164.589V184.484Z" fill="#3C4C99"/>
<path d="M350.526 166.803L346.797 164.589L341.982 167.369L345.71 169.583L350.526 166.803Z" fill="#5768BC"/>
<path d="M345.71 172.783L341.982 170.57L337.166 173.35L340.895 175.564L345.71 172.783Z" fill="#D7726A"/>
<path d="M342.44 174.676V161.457C342.44 159.582 341.29 158.713 339.884 159.524C338.478 160.336 337.328 162.534 337.328 164.408V173.061L327.892 178.509C326.727 179.182 325.774 181.002 325.774 182.555C325.774 183.598 326.223 184.217 326.858 184.339C326.223 185.194 325.774 186.332 325.774 187.375C325.774 188.669 326.449 189.33 327.343 189.144C326.449 189.991 325.774 191.431 325.774 192.725C325.774 194.096 326.531 194.756 327.507 194.444C326.531 195.258 325.774 196.792 325.774 198.164C325.774 199.717 326.727 200.437 327.892 199.765L347.495 188.447V171.757L342.44 174.676Z" fill="#F07862"/>
<path d="M350.526 186.698L345.71 189.478V169.583L350.526 166.803V186.698Z" fill="#4B57AA"/>
<path d="M329.354 183.204C329.145 183.204 328.939 183.095 328.828 182.9C328.659 182.609 328.759 182.237 329.05 182.069L336.153 177.968C336.443 177.795 336.815 177.898 336.984 178.19C337.153 178.481 337.053 178.853 336.762 179.021L329.659 183.122C329.562 183.177 329.457 183.204 329.354 183.204Z" fill="#ED4222"/>
<path d="M329.354 188.66C329.145 188.66 328.939 188.551 328.828 188.355C328.659 188.064 328.759 187.692 329.05 187.525L336.153 183.422C336.443 183.252 336.815 183.352 336.984 183.644C337.153 183.935 337.053 184.307 336.762 184.475L329.659 188.577C329.562 188.633 329.457 188.66 329.354 188.66Z" fill="#ED4222"/>
<path d="M329.354 194.114C329.145 194.114 328.939 194.005 328.828 193.809C328.659 193.518 328.759 193.146 329.05 192.978L336.153 188.877C336.443 188.708 336.815 188.807 336.984 189.099C337.153 189.39 337.053 189.762 336.762 189.93L329.659 194.031C329.562 194.088 329.457 194.114 329.354 194.114Z" fill="#ED4222"/>
<path d="M325.13 263.646L287.561 285.337V259.276L325.13 237.585V263.646Z" fill="#C5D2EF"/>
<path d="M287.561 259.27L309.686 268.32L325.13 237.579L287.561 259.27Z" fill="#A8BDE2"/>
<path d="M287.561 285.337V284.654L303.039 261.461H304.184L288.73 284.61L287.561 285.337Z" fill="#A8BDE2"/>
<path d="M324.595 263.956L311.503 256.043L312.015 255.034L325.13 262.963V263.646L324.595 263.956Z" fill="#A8BDE2"/>
<path d="M287.561 259.27L286.361 258.604V284.665L287.561 285.337V259.27Z" fill="#96B0D6"/>
<path d="M325.13 237.579L323.93 236.913L286.361 258.604L287.561 259.27L325.13 237.579Z" fill="#C5D2EF"/>
<path d="M357.267 129.23L319.698 150.92V124.859L357.267 103.168V129.23Z" fill="#F07862"/>
<path d="M319.698 124.853L341.823 133.903L357.267 103.162L319.698 124.853Z" fill="#ED4222"/>
<path d="M319.698 150.92V150.237L335.176 127.044H336.321L320.867 150.193L319.698 150.92Z" fill="#ED4222"/>
<path d="M356.732 129.538L343.639 121.626L344.151 120.617L357.267 128.546V129.23L356.732 129.538Z" fill="#ED4222"/>
<path d="M319.698 124.853L318.498 124.187V150.248L319.698 150.92V124.853Z" fill="#ED4222"/>
<path d="M357.267 103.162L356.067 102.496L318.498 124.187L319.698 124.853L357.267 103.162Z" fill="#F07862"/>
<path d="M120.479 359.214L113.239 363.394L126.707 371.17L130.083 369.45L131.465 369.358L131.543 375.19C131.548 375.224 131.542 375.257 131.545 375.291L131.547 375.446C131.543 376.184 131.112 376.893 130.204 377.417C128.19 378.58 124.639 378.433 122.314 377.09L111.579 370.892L98.0619 378.696C96.3939 379.66 93.4519 379.537 91.5259 378.425C90.6059 377.894 90.1329 377.234 90.0349 376.582L89.9929 376.592L89.9809 375.807C88.4899 375.958 86.8099 375.702 85.5459 374.973C84.5269 374.385 84.0769 373.645 84.0639 372.932L84.0079 372.945L83.9909 371.847C82.3659 372.192 80.3709 371.986 78.9079 371.141C77.9899 370.611 77.5219 369.958 77.4239 369.312L77.3939 369.319L77.3729 367.909C75.7289 368.303 73.6659 368.115 72.1619 367.246C71.2399 366.714 70.7379 366.047 70.6189 365.391L70.5979 365.396V365.344C70.5919 365.302 70.5999 365.263 70.5969 365.222L70.5339 358.547L74.7309 357.729L75.3169 361.381L99.7739 347.261L120.479 359.214Z" fill="#96B0D6"/>
<path d="M104.117 344.752L97.218 348.735L121.9 362.984L128.798 359.002L104.117 344.752Z" fill="#3C4C99"/>
<path d="M128.722 352.791L128.798 359.002L121.9 362.984L121.824 356.773L128.722 352.791Z" fill="#4B57AA"/>
<path d="M117.853 354.481L117.929 360.692L111.031 364.675L110.955 358.464L117.853 354.481Z" fill="#96B0D6"/>
<path d="M113.163 357.183L129.561 366.651C131.887 367.994 132.141 370.044 130.127 371.207C128.113 372.37 124.562 372.223 122.237 370.88L111.502 364.682L97.985 372.486C96.317 373.449 93.375 373.327 91.449 372.215C90.155 371.468 89.709 370.468 90.012 369.592C88.496 369.767 86.763 369.509 85.469 368.763C83.864 367.836 83.527 366.525 84.398 365.549C82.707 366.052 80.437 365.858 78.832 364.931C77.131 363.949 76.854 362.537 77.941 361.55C76.233 362.178 73.786 362.018 72.086 361.036C70.159 359.924 69.948 358.225 71.617 357.262L99.698 341.05L120.404 353.004L113.163 357.183Z" fill="#C5D2EF"/>
<path d="M104.041 338.541L97.1431 342.524L121.824 356.773L128.722 352.791L104.041 338.541Z" fill="#5768BC"/>
<path d="M93.211 367.309C93.061 367.568 93.05 367.902 93.212 368.18C93.452 368.598 93.985 368.74 94.402 368.499L104.577 362.624C104.998 362.388 105.138 361.853 104.896 361.434C104.656 361.016 104.123 360.873 103.706 361.115L93.531 366.989C93.393 367.07 93.285 367.181 93.211 367.309Z" fill="#96B0D6"/>
<path d="M86.4429 363.401C86.2929 363.66 86.2819 363.994 86.4439 364.272C86.6839 364.69 87.2169 364.832 87.6339 364.591L97.8109 358.717C98.2289 358.479 98.3719 357.946 98.1299 357.527C97.8899 357.109 97.3569 356.967 96.9399 357.208L86.7629 363.082C86.6239 363.162 86.5169 363.273 86.4429 363.401Z" fill="#96B0D6"/>
<path d="M79.6761 359.495C79.5261 359.754 79.5141 360.088 79.6761 360.366C79.9161 360.784 80.4491 360.926 80.8661 360.685L91.0411 354.81C91.4581 354.571 91.6021 354.039 91.3601 353.62C91.1201 353.202 90.5871 353.059 90.1701 353.301L79.9951 359.175C79.8571 359.255 79.7501 359.366 79.6761 359.495Z" fill="#96B0D6"/>
<path d="M69.0589 343.462L76.2989 347.642L62.8309 355.418L59.4549 353.698L58.0729 353.606L57.9949 359.438C57.9899 359.472 57.9959 359.505 57.9939 359.539L57.9919 359.694C57.9959 360.432 58.4269 361.141 59.3349 361.665C61.3489 362.828 64.8999 362.68 67.2249 361.338L77.9599 355.14L91.4769 362.944C93.1449 363.907 96.0869 363.785 98.0129 362.673C98.9329 362.142 99.4059 361.482 99.5039 360.83L99.5469 360.84L99.5589 360.055C101.05 360.206 102.73 359.95 103.994 359.221C105.012 358.633 105.463 357.894 105.475 357.18L105.531 357.193L105.547 356.095C107.172 356.44 109.167 356.234 110.63 355.389C111.548 354.859 112.016 354.206 112.114 353.56L112.144 353.567L112.165 352.157C113.81 352.551 115.871 352.363 117.376 351.494C118.298 350.962 118.8 350.295 118.919 349.639L118.94 349.644L118.941 349.592C118.947 349.55 118.939 349.511 118.942 349.47L119.005 342.794L114.808 341.976L114.222 345.628L89.7649 331.508L69.0589 343.462Z" fill="#A8BDE2"/>
<path d="M85.421 329L92.319 332.983L67.638 347.233L60.74 343.25L85.421 329Z" fill="#3C4C99"/>
<path d="M60.816 337.039L60.74 343.25L67.638 347.233L67.714 341.022L60.816 337.039Z" fill="#4B57AA"/>
<path d="M71.6849 338.729L71.6089 344.94L78.5069 348.922L78.5829 342.711L71.6849 338.729Z" fill="#96B0D6"/>
<path d="M76.3748 341.431L59.9768 350.899C57.6508 352.242 57.3958 354.291 59.4098 355.455C61.4238 356.617 64.9748 356.47 67.2998 355.128L78.0348 348.93L91.5518 356.734C93.2198 357.697 96.1618 357.575 98.0878 356.463C99.3818 355.716 99.8278 354.716 99.5248 353.84C101.041 354.015 102.774 353.757 104.068 353.01C105.673 352.083 106.01 350.773 105.138 349.796C106.829 350.299 109.099 350.105 110.704 349.178C112.405 348.196 112.682 346.784 111.595 345.797C113.304 346.424 115.75 346.265 117.45 345.283C119.377 344.17 119.588 342.472 117.919 341.509L89.8398 325.297L69.1338 337.251L76.3748 341.431Z" fill="#C5D2EF"/>
<path d="M85.4969 322.789L92.3949 326.772L67.7139 341.022L60.8159 337.039L85.4969 322.789Z" fill="#5768BC"/>
<path d="M96.3258 351.557C96.4758 351.816 96.4868 352.15 96.3258 352.428C96.0858 352.846 95.5528 352.988 95.1358 352.747L84.9608 346.873C84.5388 346.637 84.3998 346.102 84.6418 345.683C84.8818 345.265 85.4148 345.123 85.8318 345.364L96.0068 351.238C96.1448 351.318 96.2518 351.429 96.3258 351.557Z" fill="#96B0D6"/>
<path d="M103.095 347.649C103.245 347.908 103.256 348.242 103.095 348.52C102.855 348.938 102.322 349.081 101.905 348.839L91.7278 342.965C91.3098 342.727 91.1668 342.194 91.4088 341.775C91.6488 341.357 92.1818 341.214 92.5988 341.456L102.776 347.329C102.914 347.41 103.021 347.521 103.095 347.649Z" fill="#96B0D6"/>
<path d="M109.862 343.742C110.012 344.001 110.023 344.335 109.862 344.613C109.622 345.031 109.089 345.173 108.672 344.932L98.4968 339.058C98.0798 338.819 97.9358 338.287 98.1778 337.868C98.4178 337.45 98.9508 337.308 99.3678 337.549L109.543 343.424C109.681 343.503 109.788 343.614 109.862 343.742Z" fill="#96B0D6"/>
<path d="M131.658 280.626L82.571 308.967L112.06 325.992L161.147 297.652L131.658 280.626Z" fill="#F07862"/>
<path d="M82.571 308.967L126.973 304.048L131.658 280.626L82.571 308.967Z" fill="#ED4222"/>
<path d="M124.365 297.004L160.023 298.3L161.147 297.652L159.975 296.975L125.178 295.71L124.365 297.004Z" fill="#ED4222"/>
<path d="M116.365 303.267L111.288 325.547L112.06 325.992L112.776 325.586L117.838 303.309L116.365 303.267Z" fill="#ED4222"/>
<path d="M112.067 325.996L112.036 327.789L82.5471 310.763L82.5711 308.967L112.067 325.996Z" fill="#ED4222"/>
<path d="M161.154 297.656L161.123 299.449L112.036 327.789L112.067 325.996L161.154 297.656Z" fill="#ED4222"/>
<path d="M128.812 268.102L79.7249 296.443L109.214 313.468L158.301 285.128L128.812 268.102Z" fill="#C5D2EF"/>
<path d="M79.7249 296.443L124.127 291.524L128.812 268.102L79.7249 296.443Z" fill="#A8BDE2"/>
<path d="M121.52 284.48L157.177 285.776L158.301 285.128L157.129 284.451L122.332 283.186L121.52 284.48Z" fill="#A8BDE2"/>
<path d="M113.519 290.742L108.442 313.022L109.214 313.468L109.93 313.062L114.992 290.785L113.519 290.742Z" fill="#A8BDE2"/>
<path d="M109.221 313.472L109.19 315.265L79.7009 298.239L79.7249 296.443L109.221 313.472Z" fill="#96B0D6"/>
<path d="M158.308 285.132L158.277 286.924L109.19 315.265L109.221 313.472L158.308 285.132Z" fill="#A8BDE2"/>
<path d="M196.28 294.797L245.367 323.137L215.878 340.162L166.791 311.822L196.28 294.797Z" fill="#C5D2EF"/>
<path d="M245.367 323.137L200.965 318.218L196.28 294.797L245.367 323.137Z" fill="#A8BDE2"/>
<path d="M203.573 311.174L167.915 312.47L166.791 311.822L167.964 311.145L202.76 309.88L203.573 311.174Z" fill="#A8BDE2"/>
<path d="M211.573 317.437L216.65 339.717L215.878 340.162L215.162 339.757L210.1 317.479L211.573 317.437Z" fill="#A8BDE2"/>
<path d="M215.871 340.166L215.902 341.959L245.391 324.934L245.367 323.137L215.871 340.166Z" fill="#96B0D6"/>
<path d="M166.784 311.826L166.815 313.619L215.902 341.959L215.871 340.166L166.784 311.826Z" fill="#A8BDE2"/>
<path d="M184.739 342.344C184.739 342.344 184.523 344.159 183.955 346.057C183.387 347.955 184.085 350.602 184.085 350.602C184.085 350.602 184.496 351.768 186.254 352.114C187.892 352.436 189.217 352.043 189.217 352.043C189.217 352.043 190.828 353.99 192.933 355.479C195.038 356.969 199.682 358.125 200.946 357.933C202.984 357.623 204.076 356.033 203.919 355.008C203.762 353.983 201.361 351.145 199.392 349.916C198.111 349.117 195.202 346.417 194.329 345.478C192.884 343.923 191.817 342.206 191.817 342.206L184.739 342.344Z" fill="#23234C"/>
<path d="M154.439 357.795C154.439 357.795 153.35 361.839 153.486 364.179C153.622 366.519 154.18 367.077 154.888 367.866C155.596 368.655 156.425 368.315 156.425 368.315C156.425 368.315 156.751 373.14 159.039 375.091C161.326 377.041 165.475 377.226 167.38 376.518C169.285 375.81 168.032 372.354 166.168 368.967C164.303 365.579 161.925 361.934 161.331 358.872C156.769 358.243 154.439 357.795 154.439 357.795Z" fill="#23234C"/>
<path d="M175.814 220.856C175.814 220.856 179.485 222.76 181.432 225.286C183.231 227.62 185.058 230.143 185.744 232.113C187.622 237.504 189.942 241.239 189.942 241.239C189.942 241.239 204.775 243.515 206.959 244.452C209.143 245.389 206.547 251.574 206.547 251.574C206.547 251.574 187.883 253.474 184.633 251.062C182.098 249.181 169.03 225.285 169.03 225.285L175.814 220.856Z" fill="#BAC9E5"/>
<path d="M181.952 261.405C181.952 261.405 187.855 276.462 188.769 282.556C189.684 288.65 191.52 297.875 192.621 305.552C193.722 313.229 193.708 320.709 193.195 328.206C192.991 331.182 191.905 338.959 192.478 343.184C191.833 345.931 185.393 346.274 184.63 343.082C184.156 341.101 179.213 323.566 178.713 318.049C178.213 312.533 179.517 308.58 179.517 308.58C179.517 308.58 171.477 291.366 168.658 284.593C165.839 277.82 167.757 269.427 167.757 269.427L181.952 261.405Z" fill="#3C4C99"/>
<path d="M160.804 267.643C160.804 267.643 157.914 271.73 155.61 278.921C153.991 283.976 154.253 296.101 154.253 296.101C154.253 296.101 153.837 308.039 154.607 312.167C155.377 316.295 155.311 317.133 155.311 317.133C155.311 317.133 151.998 327.029 152.509 338.733C153.021 350.438 153.974 358.832 153.974 358.832C153.974 358.832 154.627 361.046 157.632 361.352C160.37 361.63 162.369 359.732 162.369 359.732C162.369 359.732 167.39 334.953 169.25 329.305C171.11 323.657 171.795 317.147 171.795 317.147L175.595 289.323C175.595 289.323 183.116 284.414 179.261 272.033C176.849 264.278 160.804 267.643 160.804 267.643Z" fill="#4B57AA"/>
<path d="M152.221 236.013C155.948 228.601 165.982 223.259 174.038 224.422C177.896 227.495 179.681 229.55 181.074 233.233C182.334 236.566 182.87 240.506 182.465 243.986C181.249 254.446 183.733 264.626 184.635 268.613C180.364 273.081 174.692 275.976 168.433 277.062C165.036 277.651 162.557 276.374 159.247 275.148C158.76 274.967 158.547 274.639 158.481 274.142C157.356 265.689 154.454 258.603 151.524 250.7C149.957 246.475 150.093 240.244 152.221 236.013Z" fill="#DCE6F9"/>
<path d="M171.707 219.822C171.707 219.822 170.937 224.922 172.805 226.688C174.673 228.453 174.687 232.084 170.946 233.303C166.409 234.782 163.208 231.512 160.381 229.26C161.602 226.672 162.2 226.688 162.2 219.425C162.2 213.515 171.707 219.822 171.707 219.822Z" fill="#FFB9A4"/>
<path d="M154.909 232.113C154.909 232.113 150.807 233.685 147.884 239.253C145.048 244.654 141.453 255.263 140.442 259.61C139.077 265.477 139.593 266.43 140.573 268.017C142.316 270.841 145.412 273.641 148.601 275.582C153.841 278.771 157.659 279.03 157.659 279.03C157.659 279.03 158.585 278.337 158.585 272.391C158.303 272.118 156.29 270.466 155.188 269.406C151.869 266.212 150.112 264.359 150.112 264.359C150.112 264.359 154.154 258.657 158.118 252.363C163.482 239.801 154.909 232.113 154.909 232.113Z" fill="#BAC9E5"/>
<path d="M174.893 233.761C175.759 232.719 175.68 231.17 175.68 231.17L174.162 231.582C174.162 231.582 173.751 232.6 173.635 233.452C173.635 233.452 172.481 233.026 171.968 232.859C170.574 232.406 170.677 234.155 170.677 234.155C170.677 234.155 171.805 234.469 172.795 234.698C172.91 235.318 173.123 236 173.406 236.707C173.654 237.327 174.282 237.629 174.821 237.397C175.656 237.037 175.833 236.329 175.682 235.506C175.605 235.09 175.194 234.388 174.893 233.761Z" fill="#ED4222"/>
<path d="M162.036 224.263C162.036 224.263 162.912 227.346 165.256 229.111C168.085 231.241 173.406 231.59 173.406 233.043C171.861 233.043 171.56 233.133 171.56 234.247C171.56 236.335 170.945 236.815 170.945 236.815C170.945 236.815 167.105 235.721 164.338 234.568C160.871 233.123 159.295 228.328 159.295 228.328C159.295 228.328 159.975 224.069 162.036 224.263Z" fill="#BAC9E5"/>
<path d="M173.407 224.422C173.407 224.422 175.654 226.864 176.617 227.987C177.58 229.111 177.018 231.182 177.5 232.112C177.981 233.042 178.196 233.673 178.196 233.673C178.196 233.673 176.19 233.268 175.802 232.112C175.414 230.956 173.408 233.042 173.408 233.042L171.99 231.877C171.99 231.877 174.13 230.508 173.408 229.046C172.686 227.584 171.482 225.658 171.482 225.658L173.407 224.422Z" fill="#BAC9E5"/>
<path d="M163.493 207.248C166.304 204.138 173.713 202.86 176.369 207.417C178.368 210.846 178.451 216.95 177.908 219.755C176.769 225.644 171.935 229.151 166.366 224.625C161.055 220.309 158.646 212.612 163.493 207.248Z" fill="#FFC9B6"/>
<path d="M157.263 212.873C156.781 209.889 158.386 207.695 161.086 207.631C160.807 205.367 162.163 203.134 164.279 202.041C167.782 200.232 171.928 201.538 175.511 202.544C176.547 202.062 179.089 200.526 179.488 201.84C179.774 202.783 179.214 203.715 178.69 204.487C179.726 204.29 181.764 203.415 182.663 204.101C184.794 205.726 181.119 208.618 179.233 209.478C177.883 210.093 176.258 210.497 174.66 210.52C174.808 210.724 174.941 210.937 175.054 211.158C175.236 211.516 175.136 211.915 174.797 212.137C173.383 213.062 170.806 213.437 169.147 212.512C169.117 214.001 168.636 215.505 167.461 216.396C166.927 216.8 165.826 217.184 164.865 217.189C164.61 218.535 163.384 220.933 162.2 221.407C160.764 219.981 157.612 215.037 157.263 212.873Z" fill="#23234C"/>
<path d="M166.405 217.753C166.405 217.753 164.78 215.292 163.336 217.164C161.891 219.036 164.853 220.855 164.853 220.855L166.405 217.753Z" fill="#FFC9B6"/>
<path d="M177.557 242.543C176.631 238.46 176.008 237.434 175.224 236.333C174.98 235.991 174.017 236.326 174.037 236.745C174.236 240.891 174.263 243.709 173.92 250.365C173.568 257.187 173.748 262.064 173.748 262.064C173.748 262.064 176.285 264.826 177.628 265.366C179.581 262.339 179.725 259.045 179.725 259.045C179.725 259.045 178.536 246.859 177.557 242.543Z" fill="#ED4222"/>
<path d="M211.957 268.777L161.154 298.108V262.866L211.957 233.536V268.777Z" fill="#F07862"/>
<path d="M161.154 262.858L191.073 275.096L211.957 233.527L161.154 262.858Z" fill="#ED4222"/>
<path d="M161.154 298.108V297.184L182.083 265.822H183.632L162.734 297.125L161.154 298.108Z" fill="#ED4222"/>
<path d="M211.233 269.195L193.529 258.495L194.221 257.13L211.957 267.853V268.777L211.233 269.195Z" fill="#ED4222"/>
<path d="M161.154 262.858L159.531 261.958V297.199L161.154 298.108V262.858Z" fill="#ED4222"/>
<path d="M211.957 233.527L210.334 232.627L159.531 261.958L161.154 262.858L211.957 233.527Z" fill="#F07862"/>
<path d="M157.178 271.97C157.755 272.086 159.532 271.97 159.532 271.97V273.678C159.532 273.678 160.838 275.465 163.171 274.636C164.773 274.067 166.461 273.757 165.892 275.096C166.818 275.199 166.659 275.789 166.201 276.303C167.171 276.303 166.707 277.197 166.41 277.796C166.756 278.021 166.756 278.517 166.41 278.928C165.102 280.481 164.481 280.561 162.856 280.828C161.775 281.006 160.67 281.052 159.82 280.828C157.417 280.194 157.052 279.005 155.291 277.21C153.529 275.416 154.675 271.466 157.178 271.97Z" fill="#FFC9B6"/>
<path d="M211.957 245.94C211.957 246.249 211.957 247.743 211.957 247.743C211.957 247.743 211.101 248.591 209.842 249.955C209.08 250.781 209.218 251.047 209.533 251.362C209.705 251.534 210.322 251.064 210.322 251.064C210.322 251.064 209.602 252.185 209.772 252.515C210.009 252.972 210.905 252.323 210.905 252.323C210.905 252.323 210.347 253.009 210.836 253.421C211.151 253.687 211.762 252.941 212.697 252.316C213.833 251.557 214.404 249.304 213.681 247.744C213.126 246.547 211.957 245.94 211.957 245.94Z" fill="#FFC9B6"/>
</svg>
