<svg width="200" height="200" viewBox="0 0 200 200" fill="none" xmlns="http://www.w3.org/2000/svg">
<path d="M29.336 122.846C27.985 122.632 24.045 120.757 23.84 121.73C23.687 122.428 24.326 125.465 25.654 127.755C26.173 128.646 26.791 129.418 27.518 129.899C31.159 132.315 33.562 132.32 35.376 131.286C37.015 130.363 37.325 129.325 38.586 128.587C38.725 128.505 38.863 128.433 39.022 128.364C39.091 128.328 39.159 128.303 39.236 128.29C40.837 127.709 42.795 128.51 45.243 125.954C46.871 124.25 46.733 121.582 46.276 119.93C46.012 118.991 45.656 118.389 45.46 118.497C45.263 118.616 45.136 119.176 44.963 119.86C44.667 120.975 44.247 122.423 43.149 122.756C41.39 123.298 41.316 124.156 41.186 122.983C41.066 121.811 42.338 122.255 43.164 120.462C43.251 120.266 43.321 120.025 43.36 119.769C43.515 118.855 43.343 117.667 43.031 116.571C42.655 115.274 42.066 114.137 41.56 113.811C40.497 113.141 41.611 115.798 40.054 117.152C39.672 117.478 39.328 117.743 39.024 117.948C38.277 118.439 37.759 118.523 37.56 118.165C37.494 118.071 37.466 117.938 37.45 117.785C37.398 116.783 41.353 113.225 39.383 111.752C37.402 110.278 35.237 109.692 35.568 110.909C35.898 112.136 36.606 114.152 35.645 114.328C34.674 114.491 34.221 113.792 34.544 112.334C34.869 110.865 35.748 109.858 34.951 109.239C34.771 109.1 34.323 108.845 33.729 108.541C32.438 107.879 30.446 106.999 28.92 106.7C27.904 106.49 27.097 106.542 26.832 107.076C26.209 108.306 25.108 111.216 24.694 113.108C24.521 113.89 24.466 114.49 24.6 114.743C25.066 115.617 27.487 114.282 28.19 115.367C28.882 116.45 28.867 117.769 26.399 116.782C23.93 115.806 22.215 115.649 23.366 118.363C24.528 121.079 26.958 121.228 28.408 121.334C29.871 121.433 30.687 123.06 29.336 122.846Z" fill="#131F77"/>
<path d="M28.4409 110.655L28.4689 110.691C29.9819 112.677 31.5699 114.866 33.0599 117.25C35.2169 120.66 37.2019 124.452 38.5849 128.589C39.5949 131.602 40.2709 134.794 40.4739 138.151C40.4699 138.183 40.4789 138.206 40.4869 138.228C40.5259 138.362 40.6249 138.449 40.7509 138.485C40.7829 138.489 40.8149 138.492 40.8479 138.485C41.0439 138.474 41.1919 138.307 41.1819 138.11C41.1749 138.077 41.1779 138.045 41.1709 138.011C40.9639 134.589 40.2609 131.35 39.2339 128.292C37.9869 124.582 36.2649 121.155 34.3699 118.022L34.2059 117.744C33.7579 117.002 33.2849 116.278 32.8119 115.566C31.5619 113.653 30.2549 111.863 29.0069 110.22C28.8829 110.066 28.6599 110.03 28.5059 110.154C28.4699 110.183 28.4449 110.212 28.4309 110.243C28.3429 110.362 28.3459 110.536 28.4409 110.655Z" fill="white"/>
<path d="M32.0368 117.991C32.6428 119.66 32.4588 121.621 31.4828 123.105C30.1148 125.195 27.5108 126.131 25.6538 127.755C26.1728 128.646 26.7908 129.418 27.5178 129.899C31.1588 132.315 33.5618 132.32 35.3758 131.286C37.0148 130.363 37.3248 129.325 38.5858 128.587C39.5958 131.6 40.2718 134.792 40.4748 138.149C40.4708 138.181 40.4798 138.204 40.4878 138.226C40.7218 138.165 40.9478 138.082 41.1718 138.009C40.9648 134.587 40.2618 131.348 39.2348 128.29C40.8358 127.709 42.7938 128.51 45.2418 125.954C46.8698 124.25 46.7318 121.582 46.2748 119.93C45.8338 119.903 45.4028 119.888 44.9618 119.861C44.6658 120.976 44.2458 122.424 43.1478 122.757C41.3888 123.299 41.3148 124.157 41.1848 122.984C41.0648 121.812 42.3368 122.256 43.1628 120.463C43.2498 120.267 43.3198 120.026 43.3588 119.77C42.3158 119.709 41.2818 119.66 40.2378 119.599C38.1828 119.48 35.9118 119.262 34.3708 118.02C34.1328 117.821 33.9068 117.612 33.7078 117.362C33.2688 116.826 32.9788 116.221 32.8128 115.563C32.4168 114.145 32.5738 112.527 32.8878 111.057C33.0688 110.2 33.3168 109.329 33.7288 108.541C32.4378 107.879 30.4458 106.999 28.9198 106.7C27.9038 106.49 27.0968 106.542 26.8318 107.076C26.2088 108.306 25.1078 111.216 24.6938 113.108C24.9948 113.228 25.2978 113.326 25.6128 113.415C26.5568 113.692 27.5328 113.876 28.4318 114.257C30.0668 114.948 31.4308 116.322 32.0368 117.991Z" fill="url(#paint0_linear_35_5094)"/>
<path d="M40.9401 138.837C41.0181 138.236 41.6211 137.348 42.5131 136.341C43.9371 134.749 46.0871 132.858 47.9711 131.401C49.2571 130.403 50.4171 129.613 51.1481 129.253C52.9091 128.371 55.0811 124.308 56.1771 122.087C56.6001 121.198 56.8621 120.605 56.8621 120.605C56.8621 120.605 50.2431 120.673 45.4381 124.295C41.4531 127.308 40.9861 135.337 40.9451 137.974C40.9281 138.524 40.9401 138.837 40.9401 138.837Z" fill="#131F77"/>
<path d="M40.783 139.179C40.964 139.265 41.188 139.19 41.276 138.999C41.276 138.999 41.276 138.999 41.278 138.988L41.285 138.984C41.662 138.097 42.082 137.218 42.513 136.342C42.709 135.945 42.906 135.548 43.113 135.154C43.771 133.898 44.47 132.662 45.224 131.464C45.982 130.273 46.778 129.095 47.691 128.007C47.946 127.712 48.195 127.422 48.455 127.133C49.15 126.382 49.897 125.68 50.746 125.1C50.798 125.065 50.813 124.989 50.778 124.937C50.75 124.881 50.673 124.866 50.61 124.899C49.937 125.333 49.318 125.844 48.741 126.393C48.275 126.839 47.84 127.302 47.414 127.778C46.459 128.846 45.616 130.009 44.819 131.198C44.011 132.385 43.274 133.609 42.577 134.863C42.009 135.888 41.463 136.917 40.946 137.974C40.832 138.212 40.717 138.449 40.603 138.687C40.521 138.873 40.595 139.097 40.783 139.179Z" fill="white"/>
<path d="M40.783 139.179C40.964 139.265 41.188 139.19 41.276 138.999C41.276 138.999 41.276 138.999 41.278 138.988L41.285 138.984C41.662 138.097 42.082 137.218 42.513 136.342C43.937 134.75 46.087 132.859 47.971 131.402C48 131.193 48.03 130.984 48.049 130.773C48.168 129.559 48.121 128.295 48.455 127.134C48.519 126.921 48.597 126.698 48.694 126.491C48.711 126.461 48.724 126.424 48.741 126.393C49.381 125.083 50.624 124.162 51.887 123.425C53.2 122.664 54.707 122.009 56.178 122.088C56.601 121.199 56.863 120.606 56.863 120.606C56.863 120.606 50.244 120.674 45.439 124.296C41.454 127.309 40.987 135.338 40.946 137.975C40.832 138.213 40.717 138.45 40.603 138.688C40.521 138.873 40.595 139.097 40.783 139.179Z" fill="url(#paint1_linear_35_5094)"/>
<path d="M41.0451 138.578C40.7771 138.289 40.1211 138.045 39.2671 137.848C37.9091 137.541 36.0541 137.35 34.5031 137.288C33.4441 137.244 32.5291 137.263 32.0051 137.349C30.7371 137.546 28.0491 136.211 26.6281 135.446C26.0681 135.134 25.7041 134.918 25.7041 134.918C25.7041 134.918 29.2431 132.453 33.1621 132.559C36.4161 132.652 39.6981 136.737 40.7161 138.122C40.9331 138.407 41.0451 138.578 41.0451 138.578Z" fill="#131F77"/>
<path d="M41.257 138.7C41.194 138.814 41.047 138.859 40.927 138.79C40.927 138.79 40.927 138.79 40.922 138.785H40.917C40.382 138.457 39.827 138.149 39.267 137.847C39.013 137.71 38.759 137.574 38.5 137.443C37.676 137.025 36.838 136.633 35.985 136.282C35.132 135.936 34.265 135.612 33.369 135.38C33.122 135.32 32.88 135.26 32.633 135.205C31.98 135.069 31.318 134.979 30.649 134.991C30.608 134.992 30.572 134.957 30.57 134.916C30.564 134.875 30.599 134.839 30.644 134.832C31.165 134.808 31.687 134.845 32.2 134.919C32.616 134.98 33.022 135.061 33.428 135.153C34.338 135.359 35.225 135.658 36.098 135.988C36.976 136.313 37.829 136.684 38.673 137.086C39.362 137.415 40.04 137.756 40.714 138.121C40.864 138.204 41.015 138.287 41.165 138.37C41.281 138.438 41.326 138.586 41.257 138.7Z" fill="white"/>
<path d="M41.2571 138.7C41.1941 138.814 41.0471 138.859 40.9271 138.79C40.9271 138.79 40.9271 138.79 40.9221 138.785H40.9171C40.3821 138.457 39.8271 138.149 39.2671 137.847C37.9091 137.54 36.0541 137.349 34.5031 137.287C34.4081 137.187 34.3141 137.087 34.2241 136.982C33.7021 136.382 33.2491 135.694 32.6331 135.204C32.5181 135.115 32.3931 135.026 32.2641 134.953C32.2431 134.943 32.2221 134.928 32.2021 134.919C31.3671 134.466 30.3591 134.446 29.4111 134.532C28.4271 134.624 27.3801 134.846 26.6281 135.444C26.0681 135.132 25.7041 134.916 25.7041 134.916C25.7041 134.916 29.2431 132.451 33.1621 132.557C36.4161 132.65 39.6981 136.735 40.7161 138.12C40.8661 138.203 41.0171 138.286 41.1671 138.369C41.2811 138.438 41.3261 138.586 41.2571 138.7Z" fill="url(#paint2_linear_35_5094)"/>
<path d="M40.3209 127.662C40.9349 128.258 41.1159 129.103 41.1649 129.678C41.4109 128.9 41.7989 128.164 42.2869 127.424C40.8629 126.11 39.1059 126.83 38.4869 125.718C38.1409 125.098 40.1289 123.407 41.5869 124.823C42.2989 125.515 42.4609 126.525 42.4899 127.123C42.8659 126.578 43.2869 126.026 43.7339 125.448C42.7599 124.059 41.1249 124.348 40.8019 123.282C40.6219 122.688 42.6349 121.612 43.6189 123.094C44.0689 123.772 44.0539 124.602 43.9799 125.128C44.3009 124.714 44.6329 124.279 44.9689 123.825C44.9799 122.207 43.6739 121.288 44.1669 120.257C44.4619 119.64 46.8989 120.26 46.5979 122.196C46.4539 123.125 45.7719 123.807 45.3179 124.169C44.9889 124.611 44.6639 125.037 44.3509 125.441C44.6879 125.211 45.1029 125.017 45.5749 124.98C47.3479 124.839 47.7449 127.087 47.1659 127.313C46.1289 127.716 45.3479 126.255 43.6589 126.342C43.1779 126.975 42.7459 127.573 42.3899 128.165C42.8559 127.805 43.7629 127.243 44.7819 127.351C46.8039 127.564 46.7779 130.173 46.0799 130.305C44.8039 130.546 44.2339 128.657 42.2159 128.467C41.7319 129.337 41.4229 130.21 41.3709 131.186C41.6659 130.771 42.3989 129.901 43.4539 129.737C45.3589 129.44 45.9699 131.838 45.3629 132.128C44.2509 132.66 43.2679 131.062 41.3659 131.385C41.3599 131.754 41.3859 132.136 41.4569 132.541C41.5809 133.244 41.6439 133.921 41.6669 134.558C41.9509 134.17 42.4639 133.623 43.1839 133.468C44.7539 133.13 45.3769 135.095 44.8859 135.365C44.0149 135.845 43.1509 134.657 41.6759 134.906C41.6919 135.986 41.5969 136.927 41.4849 137.64C41.7099 137.413 42.0089 137.192 42.3859 137.111C43.5979 136.85 44.0789 138.366 43.6999 138.575C43.0609 138.927 42.4259 138.118 41.3879 138.201C41.2899 138.702 41.2019 139.004 41.1909 139.042C41.1559 139.162 41.0349 139.234 40.9149 139.211C40.9069 139.21 40.8989 139.207 40.8909 139.205C40.7629 139.167 40.6899 139.032 40.7279 138.904C40.7319 138.891 40.9079 138.277 41.0429 137.298C40.0269 136.622 39.0339 137.277 38.5309 136.671C38.2549 136.338 39.2569 135.103 40.2889 135.789C40.7769 136.113 40.9879 136.672 41.0779 137.03C41.1809 136.174 41.2419 135.083 41.1419 133.882C39.8159 132.976 38.5159 133.841 37.8609 133.051C37.5029 132.619 38.8019 131.019 40.1389 131.908C40.6419 132.242 40.9179 132.771 41.0689 133.207C41.0429 133.015 41.0149 132.821 40.9799 132.625C40.8229 131.735 40.8599 130.939 41.0299 130.188C39.6709 128.881 37.9759 129.578 37.3819 128.512C37.0539 127.922 38.9379 126.318 40.3209 127.662Z" fill="#F851A7"/>
<path d="M114.1 141.262H69.7881V131.296H114.1C119.007 131.296 122.998 127.306 122.998 122.401C122.998 117.496 119.006 113.503 114.1 113.503H99.7751C91.1901 113.503 84.2041 106.519 84.2041 97.9321C84.2041 89.3451 91.1901 82.3611 99.7751 82.3611H127.982V92.3271H99.7751C96.6841 92.3271 94.1691 94.8411 94.1691 97.9331C94.1691 101.025 96.6831 103.539 99.7751 103.539H114.101C124.503 103.539 132.965 112.003 132.965 122.403C132.965 132.803 124.502 141.262 114.1 141.262Z" fill="#131F77"/>
<path d="M71.4491 135.864H69.7881V136.695H71.4491V135.864Z" fill="white"/>
<path d="M114.1 136.694H113.974V135.864H114.1C115.125 135.864 116.144 135.75 117.125 135.523L117.31 136.334C116.269 136.574 115.189 136.694 114.1 136.694ZM110.702 136.694H107.432V135.864H110.702V136.694ZM104.161 136.694H100.889V135.864H104.161V136.694ZM97.6192 136.694H94.3472V135.864H97.6192V136.694ZM91.0762 136.694H87.8062V135.864H91.0762V136.694ZM84.5342 136.694H81.2622V135.864H84.5342V136.694ZM77.9932 136.694H74.7212V135.864H77.9932V136.694ZM120.473 135.202L120.103 134.456C121.044 133.989 121.934 133.405 122.752 132.72L123.284 133.356C122.418 134.083 121.472 134.702 120.473 135.202ZM125.589 130.91L124.921 130.417C125.554 129.567 126.082 128.642 126.496 127.672L127.26 127.996C126.822 129.029 126.259 130.008 125.589 130.91ZM128.202 124.772L127.381 124.636C127.504 123.903 127.566 123.15 127.566 122.401C127.566 122.09 127.555 121.778 127.535 121.467L128.362 121.415C128.385 121.739 128.396 122.07 128.396 122.401C128.397 123.196 128.33 123.994 128.202 124.772ZM126.95 118.359C126.634 117.357 126.196 116.387 125.649 115.475L126.363 115.047C126.942 116.014 127.406 117.045 127.742 118.113L126.95 118.359ZM123.714 112.971C122.971 112.215 122.142 111.547 121.249 110.986L121.69 110.285C122.639 110.879 123.518 111.586 124.308 112.387L123.714 112.971ZM118.387 109.629C117.386 109.295 116.343 109.078 115.289 108.987L115.36 108.157C116.481 108.258 117.587 108.488 118.65 108.845L118.387 109.629ZM112.056 108.935H108.786V108.105H112.056V108.935ZM105.515 108.935H102.243V108.105H105.515V108.935ZM98.9422 108.906C97.8052 108.818 96.6972 108.559 95.6442 108.134L95.9552 107.362C96.9282 107.758 97.9532 107.998 99.0032 108.076L98.9422 108.906ZM92.7422 106.395C91.8692 105.668 91.1152 104.815 90.5022 103.858L91.2032 103.41C91.7692 104.296 92.4662 105.084 93.2742 105.759L92.7422 106.395ZM89.1392 100.76C88.8942 99.839 88.7712 98.888 88.7712 97.931C88.7712 97.749 88.7762 97.571 88.7842 97.392L89.6142 97.432C89.6062 97.598 89.6012 97.763 89.6012 97.932C89.6012 98.818 89.7152 99.697 89.9402 100.547L89.1392 100.76ZM90.2442 94.366L89.4652 94.074C89.8662 93.007 90.4242 92.014 91.1262 91.128L91.7782 91.641C91.1292 92.462 90.6122 93.38 90.2442 94.366ZM94.0702 89.507L93.6032 88.819C94.5472 88.18 95.5752 87.693 96.6642 87.372L96.8982 88.17C95.8932 88.465 94.9412 88.916 94.0702 89.507ZM122.908 87.758H119.636V86.928H122.908V87.758ZM116.365 87.758H113.095V86.928H116.365V87.758ZM109.823 87.758H106.551V86.928H109.823V87.758ZM103.281 87.758H100.009V86.928H103.281V87.758Z" fill="white"/>
<path d="M127.981 86.928H126.32V87.759H127.981V86.928Z" fill="white"/>
<path d="M137.517 121.031L135.066 135.276L134.559 138.227C134.454 138.842 134.069 139.388 133.562 139.734C133.203 139.981 132.786 140.125 132.358 140.125H119.117C118.081 140.125 117.39 139.276 117.571 138.227L120.529 121.031C120.592 120.679 120.74 120.353 120.953 120.07C120.953 120.067 120.956 120.067 120.956 120.067C121.377 119.504 122.042 119.129 122.729 119.129H135.97C137.007 119.13 137.698 119.982 137.517 121.031Z" fill="#131F77"/>
<path d="M136.948 121.574L134.859 133.73L133.991 138.77C133.928 139.122 133.777 139.451 133.563 139.734C133.142 140.293 132.477 140.668 131.79 140.668H118.549C117.513 140.668 116.822 139.819 117.003 138.77L117.24 137.385L118.141 132.151L118.717 128.799L119.96 121.575C119.97 121.509 119.986 121.447 120.003 121.384V121.381C120.033 121.272 120.069 121.167 120.118 121.065C120.296 120.66 120.592 120.315 120.954 120.071C120.954 120.068 120.957 120.068 120.957 120.068C121.316 119.821 121.733 119.673 122.161 119.673H135.402C136.438 119.673 137.129 120.525 136.948 121.574Z" fill="#F7F7EF"/>
<path d="M131.242 118.567H130.338C130.338 118.567 130 118.31 130.328 117.801H130.321C130.446 117.61 130.538 117.403 130.578 117.183C130.624 116.92 130.594 116.676 130.502 116.466C130.43 116.288 130.311 116.137 130.16 116.025C129.969 115.877 129.726 115.795 129.449 115.795C128.692 115.795 127.972 116.413 127.84 117.183C127.804 117.403 127.824 117.611 127.883 117.801H127.88C128.034 118.31 127.604 118.567 127.604 118.567H126.701C126.099 118.567 125.526 119.062 125.421 119.673C125.316 120.283 125.719 120.779 126.321 120.779H130.861C131.463 120.779 132.036 120.284 132.141 119.673C132.247 119.062 131.844 118.567 131.242 118.567ZM129.345 116.403C129.5 116.403 129.634 116.449 129.74 116.531C129.928 116.666 130.023 116.909 129.977 117.183C129.901 117.611 129.503 117.956 129.079 117.956C128.941 117.956 128.819 117.92 128.717 117.857C128.507 117.722 128.395 117.472 128.444 117.183C128.52 116.751 128.921 116.403 129.345 116.403Z" fill="#fb9c2a"/>
<path d="M126.741 124.751H122.378C121.885 124.751 121.556 124.346 121.642 123.846C121.728 123.346 122.197 122.941 122.69 122.941H127.053C127.546 122.941 127.875 123.346 127.789 123.846C127.703 124.346 127.233 124.751 126.741 124.751Z" fill="#FCDEEB"/>
<path d="M132.199 132.987H120.959C120.466 132.987 120.137 132.582 120.223 132.082L120.914 128.07C121 127.57 121.469 127.165 121.962 127.165H133.202C133.695 127.165 134.024 127.57 133.938 128.07L133.247 132.082C133.161 132.582 132.692 132.987 132.199 132.987Z" fill="#fb9c2a"/>
<path d="M127.474 136.242H119.986C119.722 136.242 119.545 136.025 119.591 135.757C119.637 135.489 119.889 135.272 120.153 135.272H127.641C127.905 135.272 128.082 135.489 128.036 135.757C127.989 136.025 127.738 136.242 127.474 136.242Z" fill="#FCDEEB"/>
<path d="M127.236 137.625H119.748C119.484 137.625 119.307 137.408 119.353 137.14C119.399 136.872 119.651 136.655 119.915 136.655H127.403C127.667 136.655 127.844 136.872 127.798 137.14C127.751 137.408 127.5 137.625 127.236 137.625Z" fill="#FCDEEB"/>
<path opacity="0.75" d="M135.066 135.276L134.559 138.227C134.454 138.842 134.069 139.388 133.562 139.734C133.141 140.293 132.476 140.668 131.789 140.668H119.114C119.134 140.628 119.154 140.592 119.173 140.556C119.255 140.411 119.337 140.266 119.423 140.125C119.89 139.342 120.43 138.599 121.114 138.003C121.265 137.871 121.423 137.746 121.584 137.625C121.811 137.451 122.041 137.283 122.262 137.105C122.436 136.964 122.607 136.812 122.769 136.654C122.914 136.522 123.052 136.384 123.187 136.243C123.483 135.937 123.769 135.618 124.055 135.299C124.062 135.289 124.072 135.283 124.078 135.273C124.736 134.536 125.401 133.793 125.966 132.987C126.255 132.582 126.519 132.161 126.742 131.717C127.423 130.385 127.749 128.806 127.305 127.375C127.282 127.303 127.259 127.233 127.233 127.164C127.045 126.641 126.772 126.151 126.549 125.641C126.424 125.351 126.316 125.055 126.223 124.753C126.039 124.164 125.92 123.559 125.868 122.944C125.845 122.697 125.835 122.451 125.835 122.204C125.835 121.711 125.881 121.207 126.013 120.73C126.115 120.352 126.266 119.993 126.493 119.674C126.51 119.648 126.529 119.621 126.549 119.595C126.677 119.424 126.822 119.273 126.977 119.131C127.201 118.924 127.447 118.743 127.701 118.568C128.043 118.335 128.395 118.114 128.718 117.858C128.82 117.921 128.942 117.957 129.08 117.957C129.504 117.957 129.903 117.612 129.978 117.184C130.024 116.911 129.929 116.668 129.741 116.533C129.876 116.339 130.017 116.158 130.162 116.026C130.313 116.138 130.432 116.289 130.504 116.467C130.257 116.947 129.968 117.411 129.853 117.977C129.814 118.174 129.781 118.372 129.764 118.569C129.741 118.757 129.728 118.944 129.724 119.132C129.718 119.313 129.721 119.494 129.727 119.675C129.744 120.043 129.783 120.415 129.839 120.78C129.895 121.148 129.967 121.514 130.05 121.875C130.474 123.704 131.152 125.458 131.942 127.165C132.376 128.112 132.85 129.043 133.334 129.961C133.403 130.096 133.475 130.227 133.545 130.362C133.913 131.066 134.272 131.773 134.532 132.523C134.67 132.921 134.775 133.322 134.861 133.73C134.961 134.24 135.027 134.756 135.066 135.276Z" fill="url(#paint3_linear_35_5094)"/>
<path d="M177.32 58.988V96.905C177.32 99.65 175.088 101.893 172.31 101.893H120.278C118.024 101.893 116.127 100.398 115.502 98.356C115.368 97.898 115.29 97.407 115.29 96.905V58.988C115.29 56.243 117.522 54 120.278 54H172.31C173.962 54 175.423 54.792 176.327 56.031C176.951 56.845 177.32 57.883 177.32 58.988Z" fill="#FD7E62"/>
<path opacity="0.7" d="M177.32 90.745V96.905C177.32 99.65 175.088 101.893 172.31 101.893H120.278C118.024 101.893 116.127 100.398 115.502 98.356C115.368 97.898 115.29 97.407 115.29 96.905V91.393C115.747 91.315 116.205 91.237 116.662 91.17C117.666 91.014 118.67 90.88 119.686 90.746C121.985 90.434 124.283 90.088 126.482 89.34C127.073 89.139 127.665 88.894 128.245 88.604C129.997 87.745 131.615 86.517 132.787 85.033C132.876 84.944 132.943 84.843 133.021 84.743C134.237 83.092 134.929 81.161 134.673 79.108V79.095C134.472 77.511 133.747 76.104 132.72 74.911C131.582 73.583 130.087 72.501 128.502 71.708C128.301 71.596 128.089 71.496 127.877 71.407C127.107 71.061 126.315 70.749 125.511 70.47C123.402 69.734 121.215 69.164 119.128 68.339C118.682 68.161 118.235 67.971 117.789 67.77C116.907 67.368 116.082 66.888 115.29 66.353V58.988C115.29 56.243 117.522 54 120.278 54H172.31C173.962 54 175.423 54.792 176.327 56.031C175.736 55.942 175.267 55.83 174.977 55.808C170.614 55.384 165.883 55.038 162.223 57.46C161.576 57.884 160.984 58.386 160.471 58.955C158.92 60.629 157.938 62.838 157.637 65.137C157.537 65.885 157.503 66.643 157.548 67.391C157.648 68.875 158.017 70.337 158.608 71.709C159.032 72.724 159.568 73.684 160.215 74.588C160.918 75.603 161.755 76.53 162.67 77.355C165.404 79.821 168.807 81.372 171.697 83.637C172.467 84.251 173.203 84.909 173.873 85.634C174.13 85.891 174.375 86.158 174.598 86.437C175.713 87.743 176.639 89.194 177.32 90.745Z" fill="url(#paint4_linear_35_5094)"/>
<path d="M174.592 61.382V62.702C174.592 64.041 173.498 65.135 172.14 65.135H135.854C134.515 65.135 133.421 64.041 133.421 62.702V61.382C133.421 60.043 134.515 58.949 135.854 58.949H172.14C173.498 58.949 174.592 60.043 174.592 61.382Z" fill="white"/>
<path d="M171.45 62.5579L171.405 62.4909L171.093 62.0219C171.517 61.6199 171.606 60.9729 171.271 60.4709C170.914 59.9129 170.155 59.7459 169.597 60.1139C169.028 60.4819 168.883 61.2409 169.251 61.7989C169.575 62.3009 170.2 62.4689 170.735 62.2569L171.047 62.7259L171.08 62.7819L171.459 63.3729L171.827 63.1269L171.45 62.5579ZM170.714 61.8219C170.335 62.0789 169.821 61.9669 169.576 61.5879C169.319 61.2089 169.42 60.6949 169.81 60.4499C170.189 60.1929 170.703 60.3049 170.948 60.6839C171.205 61.0629 171.093 61.5759 170.714 61.8219Z" fill="#131F77"/>
<path d="M171.484 62.4448L170.971 62.7808C170.966 62.7838 170.964 62.7908 170.968 62.7958L171.936 64.2738C171.939 64.2788 171.946 64.2808 171.951 64.2768L172.464 63.9408C172.469 63.9378 172.471 63.9308 172.467 63.9258L171.499 62.4478C171.497 62.4428 171.49 62.4418 171.484 62.4448Z" fill="#131F77"/>
<path d="M155.664 92.8079H130.181V91.9149H155.664C156.539 91.9149 157.249 91.2079 157.249 90.3329V78.8779C157.249 78.0029 156.538 77.2929 155.664 77.2929H130.181V76.3999H155.664C157.031 76.3999 158.142 77.5119 158.142 78.8779V90.3329C158.142 91.6999 157.03 92.8079 155.664 92.8079Z" fill="white"/>
<path d="M137.088 82.4679H123.271C123.01 82.4679 122.799 82.2569 122.799 81.9959V71.6939C122.799 71.4329 123.01 71.2219 123.271 71.2219H137.088C137.349 71.2219 137.56 71.4329 137.56 71.6939V81.9959C137.56 82.2569 137.348 82.4679 137.088 82.4679Z" fill="white"/>
<path d="M137.088 97.9879H123.271C123.01 97.9879 122.799 97.7769 122.799 97.5159V87.2139C122.799 86.9529 123.01 86.7419 123.271 86.7419H137.088C137.349 86.7419 137.56 86.9529 137.56 87.2139V97.5159C137.56 97.7759 137.348 97.9879 137.088 97.9879Z" fill="white"/>
<path d="M164.604 89.965H150.787C150.526 89.965 150.315 89.754 150.315 89.493V79.191C150.315 78.93 150.526 78.719 150.787 78.719H164.604C164.865 78.719 165.076 78.93 165.076 79.191V89.493C165.076 89.754 164.864 89.965 164.604 89.965Z" fill="white"/>
<path d="M129.364 74.0459H124.665V76.8449H129.364V74.0459Z" fill="#F851A7"/>
<path d="M129.364 88.2161H124.665V93.4891H129.364V88.2161Z" fill="#fb9c2a"/>
<path d="M157.196 80.74H152.497V86.013H157.196V80.74Z" fill="#fb9c2a"/>
<path d="M162.894 80.74H158.195V86.013H162.894V80.74Z" fill="#FCDEEB"/>
<path d="M134.879 88.2161H130.18V89.2911H134.879V88.2161Z" fill="#FCDEEB"/>
<path d="M134.879 89.9651H130.18V91.0401H134.879V89.9651Z" fill="#FCDEEB"/>
<path d="M129.364 77.532H124.665V78.194H129.364V77.532Z" fill="#FCDEEB"/>
<path d="M84.475 75.9119L84.447 76.2529L84.341 77.4319L84.24 78.5559L84.234 78.6289L84.212 78.8469L84.206 78.8749L84.139 79.6459C84.133 79.7079 84.128 79.7629 84.111 79.8189C84.111 79.8469 84.105 79.8749 84.094 79.9029C84.088 79.9529 84.077 80.0039 84.055 80.0479C84.055 80.0649 84.049 80.0819 84.044 80.0929C84.033 80.1319 84.022 80.1709 84.005 80.2099C83.944 80.3669 83.865 80.5169 83.765 80.6569C83.726 80.7189 83.676 80.7859 83.62 80.8419C83.626 80.8479 83.62 80.8479 83.62 80.8479C83.609 80.8649 83.598 80.8819 83.575 80.8929C83.396 81.0939 83.178 81.2679 82.927 81.4019C82.865 81.4409 82.798 81.4749 82.731 81.5029L82.725 81.5309C82.725 81.6149 82.697 81.6989 82.658 81.7709C82.658 81.7769 82.652 81.7819 82.652 81.7879C82.596 81.8829 82.518 81.9609 82.417 82.0229C82.283 82.1119 82.115 82.1629 81.936 82.1629H81.03C80.605 82.1629 80.253 81.8839 80.236 81.5309L80.225 81.4019C79.571 81.0329 79.09 80.4009 79.023 79.6469L78.989 79.2219L78.827 77.4219L78.687 75.9129L84.475 75.9119Z" fill="#FCDEEB"/>
<path opacity="0.5" d="M84.4473 76.2529L84.3413 77.4319L84.2403 78.5559L84.2343 78.6289L84.2123 78.8469L84.2063 78.8749L84.1393 79.6459C84.1333 79.7079 84.1283 79.7629 84.1113 79.8189C84.1113 79.8469 84.1053 79.8749 84.0943 79.9029C84.0883 79.9529 84.0773 80.0039 84.0553 80.0479C84.0553 80.0649 84.0493 80.0819 84.0443 80.0929C84.0333 80.1319 84.0223 80.1709 84.0053 80.2099C83.9443 80.3669 83.8653 80.5169 83.7653 80.6569C83.7263 80.7189 83.6763 80.7859 83.6203 80.8419C83.6263 80.8479 83.6203 80.8479 83.6203 80.8479C83.6093 80.8649 83.5983 80.8819 83.5753 80.8929C83.3963 81.0939 83.1783 81.2679 82.9273 81.4019C82.8653 81.4409 82.7983 81.4749 82.7313 81.5029L82.7253 81.5309C82.7253 81.6149 82.6973 81.6989 82.6583 81.7709C82.6583 81.7769 82.6523 81.7819 82.6523 81.7879C82.5963 81.8829 82.5183 81.9609 82.4173 82.0229C82.2833 82.1119 82.1153 82.1629 81.9363 82.1629H81.0303C80.6053 82.1629 80.2533 81.8839 80.2363 81.5309L80.2253 81.4019C79.5713 81.0329 79.0903 80.4009 79.0233 79.6469L78.9893 79.2219C79.1013 79.2389 79.2133 79.2839 79.3243 79.3279C79.9443 79.5679 80.5313 79.9369 81.1973 80.0489C81.8573 80.1609 82.6563 79.9039 82.8743 79.2659C82.9643 78.9919 82.9363 78.6959 82.9473 78.4109C82.9533 78.2879 82.9643 78.1709 82.9863 78.0479C83.0593 77.5899 83.2543 77.1539 83.5623 76.8129C83.7993 76.5499 84.1063 76.3489 84.4473 76.2529Z" fill="url(#paint5_linear_35_5094)"/>
<path d="M86.6331 73.2069C86.6331 74.3189 86.2751 75.3479 85.6661 76.1809C85.5371 76.3539 85.3981 76.5159 85.2521 76.6729C85.1461 76.7899 85.0281 76.8969 84.9111 76.9969C84.7321 77.1589 84.5421 77.3039 84.3411 77.4329C83.9271 77.7009 83.4801 77.9139 82.9881 78.0479C82.5521 78.1819 82.0821 78.2489 81.5911 78.2489C80.5621 78.2489 79.6231 77.9469 78.8301 77.4219C77.8461 76.7849 77.0971 75.8009 76.7511 74.6379C76.6501 74.3139 76.5831 73.9669 76.5611 73.6209C76.5501 73.4869 76.5391 73.3409 76.5391 73.2069C76.5391 72.4469 76.7071 71.7139 77.0201 71.0769C77.8141 69.3439 79.5691 68.1589 81.5921 68.1589C82.2851 68.1589 82.9561 68.2929 83.5601 68.5499C83.5941 68.5669 83.6331 68.5839 83.6661 68.5999C84.3981 68.9299 85.0411 69.4379 85.5391 70.0589C85.7631 70.3439 85.9581 70.6569 86.1261 70.9869V70.9929C86.1321 70.9989 86.1371 71.0039 86.1371 71.0149C86.1541 71.0539 86.1761 71.0989 86.1871 71.1379C86.1871 71.1439 86.1931 71.1439 86.1931 71.1489C86.3051 71.3889 86.3941 71.6409 86.4611 71.9039C86.5711 72.3179 86.6331 72.7539 86.6331 73.2069Z" fill="#fb9c2a"/>
<path d="M77.8408 72.0629C77.8198 72.0629 77.7998 72.0599 77.7788 72.0519C77.6818 72.0179 77.6308 71.9109 77.6648 71.8149C77.8928 71.1699 78.2818 70.5849 78.7898 70.1239C78.8658 70.0549 78.9838 70.0599 79.0528 70.1369C79.1218 70.2129 79.1168 70.3309 79.0398 70.3999C78.5768 70.8209 78.2228 71.3529 78.0158 71.9389C77.9898 72.0149 77.9178 72.0629 77.8408 72.0629Z" fill="white"/>
<path d="M79.5378 69.984C79.4748 69.984 79.4138 69.952 79.3788 69.894C79.3258 69.806 79.3538 69.692 79.4418 69.638C79.6968 69.484 79.9688 69.358 80.2518 69.262C80.3488 69.23 80.4548 69.281 80.4878 69.379C80.5208 69.476 80.4688 69.582 80.3708 69.615C80.1138 69.702 79.8658 69.818 79.6338 69.957C79.6038 69.975 79.5708 69.984 79.5378 69.984Z" fill="white"/>
<path opacity="0.5" d="M86.633 73.207C86.633 74.319 86.275 75.348 85.666 76.181C85.537 76.354 85.398 76.516 85.252 76.673C85.146 76.79 85.028 76.897 84.911 76.997C84.732 77.159 84.542 77.304 84.341 77.433C83.927 77.701 83.48 77.914 82.988 78.048C82.552 78.182 82.082 78.249 81.591 78.249C80.562 78.249 79.623 77.9471 78.83 77.4221C77.846 76.7851 77.097 75.801 76.751 74.638C76.65 74.314 76.583 73.967 76.561 73.621C76.773 73.733 76.963 73.867 77.165 74.001C78.037 74.538 79.054 74.907 80.083 74.951C80.43 74.973 80.776 74.9621 81.123 74.8951C82.241 74.6831 83.292 73.967 83.812 72.966C83.913 72.765 83.996 72.558 84.052 72.334C84.058 72.323 84.058 72.312 84.063 72.3C84.186 71.808 84.186 71.299 84.141 70.791C84.124 70.607 84.102 70.428 84.074 70.249C84.007 69.78 83.906 69.31 83.739 68.874C83.711 68.807 83.661 68.723 83.61 68.634C83.593 68.606 83.576 68.578 83.56 68.55C83.594 68.567 83.633 68.584 83.666 68.6C84.398 68.93 85.041 69.4381 85.539 70.0591C85.763 70.3441 85.958 70.657 86.126 70.987V70.993C86.132 70.999 86.137 71.004 86.137 71.015C86.154 71.054 86.176 71.099 86.187 71.138C86.187 71.144 86.193 71.144 86.193 71.149C86.305 71.389 86.394 71.641 86.461 71.904C86.571 72.318 86.633 72.754 86.633 73.207Z" fill="url(#paint6_linear_35_5094)"/>
<path d="M82.0199 66.461H81.1439C81.0889 66.461 81.0439 66.416 81.0439 66.361V63.0771C81.0439 63.0221 81.0889 62.9771 81.1439 62.9771H82.0199C82.0749 62.9771 82.1199 63.0221 82.1199 63.0771V66.361C82.1199 66.416 82.0749 66.461 82.0199 66.461Z" fill="#FCDEEB"/>
<path d="M84.9119 67.6501L84.2929 67.0311C84.2539 66.9921 84.2539 66.9291 84.2929 66.8901L86.6149 64.5681C86.6539 64.5291 86.7169 64.5291 86.7559 64.5681L87.3749 65.1871C87.4139 65.2261 87.4139 65.2891 87.3749 65.3281L85.0529 67.6501C85.0149 67.6891 84.9509 67.6891 84.9119 67.6501Z" fill="#FCDEEB"/>
<path d="M78.252 67.6501L78.871 67.0311C78.91 66.9921 78.91 66.9291 78.871 66.8901L76.549 64.5681C76.51 64.5291 76.447 64.5291 76.408 64.5681L75.789 65.1871C75.75 65.2261 75.75 65.2891 75.789 65.3281L78.111 67.6501C78.15 67.6891 78.213 67.6891 78.252 67.6501Z" fill="#FCDEEB"/>
<g opacity="0.1">
<path d="M71.8858 132.783C71.4498 130.369 72.9808 128.075 75.3168 127.495C77.0088 127.931 78.3868 129.307 78.7188 131.145C79.1518 133.547 77.6168 135.83 75.2788 136.406C73.5898 135.974 72.2158 134.609 71.8858 132.783ZM56.1928 116.944C56.2788 116.848 56.3678 116.748 56.4528 116.653C56.4858 116.811 56.5158 116.984 56.5508 117.131L56.1928 116.944ZM87.9268 132.816C88.8568 132.65 89.4878 131.72 89.3218 130.79L88.8898 128.531C88.7238 127.601 87.8268 126.97 86.8968 127.136L85.7678 127.335C85.4688 127.169 85.1038 127.103 84.7378 127.136C84.5388 126.771 84.3058 126.372 84.0398 126.04L85.1698 124.412C85.7008 123.648 85.5018 122.552 84.7048 122.02L82.8448 120.724C82.2798 120.359 80.6518 120.226 79.5228 120.425C79.1908 120.458 78.8918 120.525 78.6258 120.724C78.5258 120.79 78.4268 120.857 78.3598 120.956C78.2938 121.023 78.2268 121.089 78.1608 121.155L77.5628 122.052L77.2638 120.458C77.0978 119.528 74.1408 118.897 73.2108 119.063H73.0778C73.0448 118.864 73.0118 118.664 72.9118 118.565C72.5128 118.067 71.6158 119.03 71.4498 118.731C71.3168 118.465 71.8148 118.233 71.5828 118C71.3838 117.801 70.3208 118.631 70.3208 118.631V118.598L65.8698 117.568L60.0568 116.239V111.223C60.1558 110.957 60.2558 110.691 60.3228 110.426C60.3558 109.396 59.7918 108.4 58.9608 107.569C58.8948 107.37 58.8948 107.104 58.9278 106.805C59.2268 106.938 59.4928 107.038 59.7588 107.004C60.7888 106.008 61.7848 104.978 62.4828 103.881L63.1138 104.346L68.1958 101.622L62.7478 99.197L59.2918 98.335C59.2918 98.335 58.9598 98.501 58.5278 98.7L58.3948 98.634L58.3278 98.8C57.3978 99.265 56.1018 99.896 56.0688 99.929C56.0028 99.962 55.8698 103.483 55.8698 103.483L56.1688 104.015L56.1028 104.148C56.1688 104.215 56.2688 104.314 56.3348 104.381L56.6008 104.846L56.7338 104.813C56.5678 105.245 56.3678 105.61 56.1688 105.942C55.5378 105.776 54.9068 105.71 54.3088 105.776C50.0898 106.573 46.2038 112.154 42.4828 117.303C42.3498 117.502 42.3498 117.735 42.4828 117.967C42.3168 118.432 42.1838 118.897 42.0838 119.329C41.0208 123.78 42.1508 127.235 40.7548 129.261C40.0238 130.357 37.9308 133.048 35.9048 135.705C36.3038 136.037 36.7018 136.369 37.1008 136.668C37.7648 137.166 38.4628 137.598 39.0938 137.997C42.6478 135.074 45.8038 132.549 46.6348 131.287C47.3988 130.125 47.7978 128.131 47.9968 125.806V125.474C49.4588 127.965 50.7208 128.929 51.2518 130.623C51.8168 132.35 53.6438 137.599 54.9058 141.187H58.1278C57.4638 134.909 56.7988 128.497 56.1348 126.571C55.5698 125.01 54.5738 122.751 53.2448 120.359C53.4778 120.027 53.7428 119.728 54.0088 119.429C56.6328 120.658 61.9148 122.685 64.5058 123.249C64.5058 123.249 64.5388 123.315 64.5728 123.349C64.4398 123.449 64.3398 123.548 64.2408 123.681L62.9458 125.541C62.3808 126.338 62.5798 127.401 63.3778 127.966L64.9718 129.062C64.8058 129.594 64.6728 130.192 64.6068 130.756L62.6798 131.121C61.7498 131.287 61.1188 132.184 61.2848 133.114L61.7168 135.373C61.8168 136.004 62.2478 136.469 62.8128 136.668C63.4438 137.133 65.0388 136.934 65.8688 136.768C66.0678 137.167 66.3008 137.532 66.5658 137.864L65.4698 139.458C65.1048 139.989 65.0708 140.654 65.3038 141.185H81.0168L80.8838 140.521C80.9838 140.455 81.0828 140.388 81.1828 140.322L81.7138 140.687C82.3448 141.119 83.1758 141.052 83.7738 140.554L83.9398 140.687C84.7368 141.219 85.7998 141.019 86.3648 140.255L87.6608 138.361C88.2258 137.564 88.0258 136.501 87.2288 135.936L85.6008 134.84C85.8008 134.275 85.9328 133.744 85.9998 133.146L87.9268 132.816ZM69.4238 123.582L68.8928 123.217C68.6598 123.051 68.1948 122.951 67.6968 122.852C67.7298 122.586 67.7298 122.354 67.6638 122.188C67.3648 121.623 66.2688 122.321 66.2018 122.022C66.1348 121.69 66.6338 121.623 66.5008 121.324C66.3678 121.058 65.1388 121.623 65.1388 121.623V121.59L61.4518 119.696C64.1428 120.061 67.4648 120.36 69.5568 120.36C69.3908 120.692 69.2908 121.091 69.3578 121.49L69.7228 123.417C69.5898 123.449 69.5228 123.548 69.4238 123.582Z" fill="black"/>
<path d="M165.957 128.93C165.359 126.206 167.02 123.05 166.455 116.506C166.555 116.439 166.721 116.373 166.82 116.273C166.787 116.007 166.787 115.708 166.787 115.443C162.734 110.659 163.532 105.046 166.455 99.5311C166.289 99.0001 166.023 98.6011 165.691 98.3351C164.927 97.9361 163.698 97.7041 162.303 97.6711C162.137 97.2721 162.004 96.8411 161.938 96.3761L163.067 95.4461L163.433 89.9651L160.011 88.3371C160.011 88.3371 158.118 88.5361 156.855 88.0051C156.523 88.7361 155.028 91.1281 155.028 91.1281C155.028 91.1281 156.224 91.3941 157.453 91.5271C157.154 93.5201 157.42 96.3441 158.915 96.7421C159.148 96.8421 159.38 96.8421 159.613 96.8421C159.58 97.1741 159.48 97.5061 159.414 97.8051C157.986 98.0041 156.591 98.3701 155.528 98.8681V98.8351L154.498 99.7321L150.179 95.5801L149.614 95.0471C149.614 95.0471 149.714 93.8181 149.448 93.7511C149.149 93.7181 149.249 94.1831 148.95 94.2161C148.684 94.2161 148.95 93.0861 148.352 93.0201C148.053 92.9871 147.521 93.2861 147.123 93.7181L146.525 92.7881C146.126 92.1571 145.528 91.7911 144.864 91.6921L141.941 87.2411C145.296 84.0851 145.994 78.8701 143.403 74.8841C141.742 72.3261 139.051 70.8311 136.261 70.5661C134.202 70.3331 132.076 70.7651 130.182 71.9611C130.115 71.9941 130.016 72.0271 129.949 72.0941C126.594 74.2871 125.033 78.2401 125.73 81.9271C125.929 83.1891 126.394 84.4181 127.125 85.5481C128.919 88.3051 131.876 89.8001 134.898 89.9001C136.293 89.9661 137.722 89.7341 139.05 89.1691L141.94 93.5871C141.874 93.8861 141.874 94.1851 141.907 94.5171C141.309 94.8831 140.711 95.6131 140.944 96.1781C141.243 96.9421 142.605 97.2741 142.605 97.2741C144.831 100.994 147.256 104.482 149.448 105.944C149.68 106.143 149.88 106.276 150.112 106.376C151.075 106.775 153.434 105.712 155.062 104.715C154.697 109.631 154.431 114.116 154.996 117.072C155.029 117.072 155.062 117.105 155.062 117.105C153.833 121.39 153.434 125.543 153.368 128.067C153.335 129.994 154.464 135.441 155.693 141.188H159.048C158.815 137.036 158.516 131.521 158.483 129.728C158.483 128.034 159.28 126.373 160.078 123.915C160.211 125.642 160.41 127.137 160.609 128.3C160.941 130.26 163.234 135.608 165.692 141.189H166.389C166.389 141.189 167.386 140.823 168.781 140.159C167.718 136.138 166.323 130.724 165.957 128.93ZM151.939 101.923C151.939 101.757 151.972 101.558 151.939 101.391C152.039 101.491 152.105 101.624 152.205 101.723L151.939 101.923Z" fill="black"/>
</g>
<path d="M49.8571 70.76V83.051C49.8571 83.649 49.3921 84.114 48.7941 84.114H39.2271C38.6291 84.114 38.1641 83.649 38.1641 83.051V70.76C38.1641 70.162 38.6291 69.697 39.2271 69.697H48.7941C49.3921 69.697 49.8571 70.162 49.8571 70.76Z" fill="#fb9c2a"/>
<path opacity="0.5" d="M49.8571 71.192V83.051C49.8571 83.649 49.3921 84.114 48.7941 84.114H39.2271C38.6291 84.114 38.1641 83.649 38.1641 83.051V74.082C38.2641 73.982 38.3631 73.916 38.4631 73.849C39.0281 73.517 39.6591 73.417 40.2571 73.583C40.9551 73.749 41.5191 74.247 42.1841 74.513C43.6791 75.078 45.4391 74.347 46.2701 72.786C46.5361 72.321 46.7021 71.789 47.0341 71.358C47.5321 70.76 48.3291 70.594 49.0271 70.793C49.2931 70.86 49.5921 70.993 49.8571 71.192Z" fill="url(#paint7_linear_35_5094)"/>
<path d="M45.0282 69.686C45.0282 70.249 44.5722 70.705 44.0092 70.705C43.4462 70.705 42.9902 70.249 42.9902 69.686C42.9902 69.123 43.4462 68.667 44.0092 68.667C44.5712 68.667 45.0282 69.123 45.0282 69.686Z" fill="#131F77"/>
<path d="M42.9893 72.582H39.3633V76.208H42.9893V72.582Z" fill="white"/>
<path d="M42.9893 77.698H39.3633V78.855H42.9893V77.698Z" fill="white"/>
<path d="M47.9943 79.6111H39.3633V80.7681H47.9943V79.6111Z" fill="white"/>
<path d="M34.0979 56.827V66.624C34.0979 67.101 33.7269 67.471 33.2509 67.471H25.6239C25.1469 67.471 24.7769 67.1 24.7769 66.624V56.827C24.7769 56.35 25.1479 55.98 25.6239 55.98H33.2499C33.3829 55.98 33.5149 56.007 33.6209 56.059C33.9119 56.192 34.0979 56.483 34.0979 56.827Z" fill="#fb9c2a"/>
<path opacity="0.5" d="M31.5029 58.204C30.9469 60.375 31.7409 62.626 32.4299 64.744C32.6679 65.485 32.9069 66.253 32.9329 67.021C32.9329 67.18 32.9329 67.339 32.9069 67.471H25.6239C25.1469 67.471 24.7769 67.1 24.7769 66.624V62.837C24.8559 62.731 24.9619 62.625 25.0419 62.519C26.4719 60.718 27.0019 58.229 26.4459 55.979H33.2509C33.3839 55.979 33.5159 56.006 33.6219 56.058C33.4369 56.111 33.2509 56.164 33.1189 56.217C32.6689 56.402 32.2449 56.72 31.9799 57.117C31.7409 57.436 31.6089 57.833 31.5029 58.204Z" fill="url(#paint8_linear_35_5094)"/>
<path d="M30.2447 55.9739C30.2447 56.4229 29.8807 56.7869 29.4317 56.7869C28.9827 56.7869 28.6187 56.4229 28.6187 55.9739C28.6187 55.5249 28.9827 55.1609 29.4317 55.1609C29.8807 55.1619 30.2447 55.5249 30.2447 55.9739Z" fill="#131F77"/>
<path d="M32.61 58.282H25.73V59.175H32.61V58.282Z" fill="white"/>
<path d="M32.61 60.1438H25.73V61.0368H32.61V60.1438Z" fill="white"/>
<path d="M28.62 62.3608H25.73V63.2828H28.62V62.3608Z" fill="white"/>
<path d="M32.61 63.886H25.73V66.277H32.61V63.886Z" fill="white"/>
<path d="M65.6872 65.2819V75.4969C65.6872 75.9939 65.3002 76.4079 64.8042 76.4079H56.8532C56.3562 76.4079 55.9702 75.9939 55.9702 75.4969V65.2819C55.9702 64.7849 56.3572 64.3989 56.8532 64.3989H64.8042C65.3012 64.3989 65.6872 64.7849 65.6872 65.2819Z" fill="#fb9c2a"/>
<path opacity="0.5" d="M65.6872 66.662V75.496C65.6872 75.993 65.3002 76.407 64.8042 76.407H56.8532C56.3562 76.407 55.9702 75.993 55.9702 75.496V69.505C56.4402 69.809 56.8812 70.278 57.4062 70.526C58.0412 70.857 58.8142 70.83 59.4492 70.498C60.0562 70.194 60.5262 69.532 60.6092 68.842C60.6642 68.593 60.6372 68.345 60.6922 68.097C60.8582 67.02 61.9342 66.247 63.0382 66.137C63.9482 66.027 64.8592 66.276 65.6872 66.662Z" fill="url(#paint9_linear_35_5094)"/>
<path d="M60.8343 65.245C61.3021 65.245 61.6813 64.8658 61.6813 64.398C61.6813 63.9302 61.3021 63.551 60.8343 63.551C60.3665 63.551 59.9873 63.9302 59.9873 64.398C59.9873 64.8658 60.3665 65.245 60.8343 65.245Z" fill="#131F77"/>
<path d="M64.1471 66.8049H56.9741V69.8189H64.1471V66.8049Z" fill="white"/>
<path d="M59.9881 71.0571H56.9741V72.0181H59.9881V71.0571Z" fill="white"/>
<path d="M64.1471 72.646H56.9741V73.607H64.1471V72.646Z" fill="white"/>
<path d="M51.8038 115.206C50.6948 114.452 50.0378 107.105 50.5108 105.019C50.7498 103.552 54.2309 103.85 54.5549 106.305L54.5508 112.553L64.8119 114.93L64.6158 116.694C61.1678 116.798 52.6558 115.694 51.8038 115.206Z" fill="#F4BC84"/>
<path d="M64.6187 116.69C64.6187 116.69 65.7537 117.736 66.6427 117.557C67.5897 117.366 67.8377 115.377 67.4137 114.88C66.9897 114.383 66.0887 115.332 65.9517 115.054C65.8147 114.775 66.2927 114.563 66.0797 114.333C65.8667 114.104 64.8157 114.936 64.8157 114.936L64.6187 116.69Z" fill="#F4BC84"/>
<path d="M81.3799 123.462L79.4559 123.809C79.1889 123.292 78.8679 122.799 78.5119 122.355L79.6419 120.744C80.1799 119.951 79.9879 118.883 79.2059 118.328L77.3189 117.03C76.5259 116.492 73.3779 116.48 72.8369 117.26L73.7849 119.06C73.2479 118.896 72.6879 118.765 72.0949 118.698L71.7479 116.774C71.5809 115.847 68.6409 115.211 67.6999 115.381L67.4949 115.787C66.5399 115.959 65.9209 116.869 66.0879 117.796L66.4349 119.72C65.9179 119.987 65.4389 120.306 64.9789 120.65L63.3729 119.548C62.5939 119.007 59.6939 118.78 59.1529 119.559L59.6709 121.855C59.1189 122.651 59.3109 123.718 60.1069 124.271L61.7009 125.39C61.5369 125.927 61.4089 126.501 61.3389 127.08L59.4149 127.427C58.4739 127.597 57.8529 128.492 58.0229 129.433L57.0679 132.636C57.2349 133.563 59.4959 133.257 60.4369 133.087L62.3609 132.74C62.6279 133.257 62.9469 133.736 63.2909 134.196L62.1859 135.788C61.6339 136.584 61.8289 137.665 62.6219 138.204L62.9259 139.698C63.7049 140.239 66.3589 139.864 66.8989 139.085L68.0149 137.477C68.5689 137.652 69.1289 137.783 69.7069 137.853L68.4479 140.665C68.6179 141.606 71.1189 141.34 72.0739 141.167L74.3209 140.761C75.2619 140.591 75.8809 139.682 75.7109 138.741L75.3659 136.831C75.8969 136.561 76.3759 136.242 76.8199 135.887L78.4279 137.003C79.2069 137.544 80.2889 137.349 80.8439 136.567L82.1559 134.677C82.6969 133.898 82.5019 132.816 81.7199 132.261L80.0999 131.161C80.2759 130.607 80.4069 130.047 80.4759 129.469L82.3999 129.122C83.3409 128.952 83.9599 128.043 83.7929 127.116L83.3849 124.855C83.2169 123.913 82.3209 123.292 81.3799 123.462ZM72.1949 135.402C68.2489 136.114 64.4849 133.502 63.7749 129.569C63.0629 125.623 65.6749 121.859 69.6219 121.147C73.5539 120.437 77.3319 123.047 78.0439 126.994C78.7539 130.926 76.1279 134.692 72.1949 135.402Z" fill="#fb9c2a"/>
<path d="M69.6216 121.147C65.6756 121.859 63.0626 125.623 63.7746 129.569C64.4846 133.501 68.2476 136.114 72.1946 135.402C76.1266 134.692 78.7536 130.926 78.0436 126.994C77.3316 123.047 73.5546 120.437 69.6216 121.147ZM71.7256 132.803C69.2256 133.254 66.8246 131.599 66.3736 129.1C65.9196 126.586 67.5886 124.182 70.0886 123.731C72.5886 123.28 74.9926 124.948 75.4466 127.462C75.8976 129.962 74.2256 132.352 71.7256 132.803Z" fill="#EFB9D3"/>
<path d="M79.1411 123.462L77.2171 123.809C76.9501 123.292 76.6291 122.799 76.2731 122.355L77.4031 120.744C77.9411 119.951 77.7491 118.883 76.9671 118.328L75.0801 117.03C74.2871 116.492 73.2051 116.687 72.6641 117.466L71.5451 119.06C71.0081 118.896 70.4481 118.765 69.8561 118.698L69.5091 116.774C69.3421 115.847 68.4441 115.211 67.5031 115.381L65.2561 115.787C64.3011 115.959 63.6821 116.869 63.8491 117.796L64.1961 119.72C63.6791 119.987 63.2001 120.306 62.7401 120.65L61.1341 119.548C60.3551 119.007 59.2731 119.202 58.7321 119.982L57.4321 121.855C56.8791 122.651 57.0721 123.718 57.8681 124.271L59.4621 125.39C59.2981 125.927 59.1701 126.501 59.1001 127.08L57.1761 127.427C56.2351 127.597 55.6141 128.492 55.7831 129.433L56.1911 131.694C56.3581 132.621 57.2561 133.257 58.1971 133.087L60.1211 132.74C60.3881 133.257 60.7071 133.736 61.0511 134.196L59.9461 135.788C59.3931 136.584 59.5891 137.665 60.3821 138.204L62.2581 139.519C63.0371 140.06 64.1191 139.865 64.6601 139.086L65.7761 137.478C66.3301 137.653 66.8901 137.784 67.4681 137.854L67.8131 139.764C67.9831 140.705 68.8811 141.341 69.8361 141.168L72.0831 140.762C73.0241 140.592 73.6431 139.683 73.4731 138.742L73.1281 136.832C73.6591 136.562 74.1381 136.243 74.5821 135.888L76.1901 137.004C76.9691 137.545 78.0511 137.35 78.6061 136.568L79.9181 134.678C80.4591 133.899 80.2641 132.817 79.4821 132.262L77.8621 131.162C78.0371 130.608 78.1681 130.048 78.2381 129.47L80.1621 129.123C81.1031 128.953 81.7221 128.044 81.5551 127.117L81.1471 124.856C80.9771 123.913 80.0821 123.292 79.1411 123.462ZM69.9551 135.402C66.0091 136.114 62.2451 133.502 61.5351 129.569C60.8231 125.623 63.4351 121.859 67.3821 121.147C71.3141 120.437 75.0921 123.047 75.8041 126.994C76.5141 130.926 73.8881 134.692 69.9551 135.402Z" fill="#FD7E62"/>
<path d="M67.3819 121.147C63.4359 121.859 60.8229 125.623 61.5349 129.569C62.2449 133.501 66.0079 136.114 69.9549 135.402C73.8869 134.692 76.5139 130.926 75.8039 126.994C75.0919 123.047 71.3149 120.437 67.3819 121.147ZM69.4859 132.803C66.9859 133.254 64.5849 131.599 64.1339 129.1C63.6799 126.586 65.3489 124.182 67.8489 123.731C70.3489 123.28 72.7529 124.948 73.2069 127.462C73.6579 129.962 71.9859 132.352 69.4859 132.803Z" fill="#FCDEEB"/>
<path d="M52.904 140.729C52.904 140.729 52.912 141.166 53.288 141.653C53.663 142.141 50.863 143.259 50.863 143.259C50.863 143.259 50.452 142.549 50.695 141.717C50.938 140.885 50.779 140.395 50.779 140.395L52.904 140.729Z" fill="#F4BC84"/>
<path d="M39.564 114.392C42.024 123.362 44.868 124.189 45.757 126.933C46.646 129.677 50.618 141.059 50.618 141.059C51.118 141.394 52.385 141.2 52.955 140.71C52.167 133.552 51.427 125.152 50.627 122.883C49.715 120.33 47.747 116.007 44.809 112.116L39.564 114.392Z" fill="#fb9c2a"/>
<path d="M50.4939 142.791C50.3239 143.596 50.4639 144.247 50.9289 144.74C53.1619 144.049 55.3529 143.429 57.3939 142.659C57.1359 141.861 54.6759 141.488 53.3899 141.546C52.6249 142.393 51.6609 142.81 50.4939 142.791Z" fill="#131F77"/>
<path d="M27.3857 139.662C27.3857 139.662 27.0547 139.936 26.8977 140.522C26.8327 140.741 26.4857 140.678 26.0607 140.53C25.2307 140.247 24.1357 139.584 24.1357 139.584C24.1357 139.584 24.2187 139.379 24.4097 139.141C24.5877 138.922 24.8707 138.655 25.2677 138.501C25.5107 138.401 25.7067 138.308 25.8507 138.191C26.2067 137.978 26.3527 137.764 26.3527 137.764L26.6607 138.331L27.3647 139.631L27.3857 139.662Z" fill="#F4BC84"/>
<path d="M42.6042 114.916C42.6522 117.358 42.6662 119.902 42.4722 122.121C42.2782 124.453 41.8722 126.429 41.1232 127.601C39.8212 129.626 32.5772 134.755 27.3862 139.745C27.2212 139.721 25.6622 138.253 25.6602 138.125C25.6602 138.125 33.6012 127.95 35.2382 125.57C36.8752 123.19 34.9582 118.747 37.3782 113.095L42.6042 114.916Z" fill="#fb9c2a"/>
<path d="M28.696 144.145C28.678 144.244 28.658 144.328 28.604 144.4C26.746 143.251 24.921 141.888 23.001 140.539C23.112 139.862 23.54 139.365 24.292 138.999C24.333 139.058 24.371 139.1 24.41 139.143C24.844 139.692 25.368 140.084 25.964 140.304C26.255 140.423 26.571 140.49 26.898 140.523C26.947 140.532 26.995 140.525 27.044 140.534C27.786 141.424 28.829 143.287 28.696 144.145Z" fill="#131F77"/>
<path d="M36.9629 113.612C35.7719 115.444 45.1549 117.864 47.5739 116.84C50.8809 112.767 53.9259 110.354 54.8099 106.752C54.9179 104.2 51.4009 101.744 48.8069 102.098C44.5869 102.897 40.6879 108.465 36.9629 113.612Z" fill="#131F77"/>
<path d="M46.9478 114.928C46.0628 113.92 47.2648 106.643 48.2458 104.742C48.8438 103.381 52.1408 104.541 51.8398 106.999L50.2728 113.047L59.6128 117.916L58.9808 119.575C55.6148 118.813 47.6508 115.613 46.9478 114.928Z" fill="#F4BC84"/>
<path d="M58.9839 119.572C58.9839 119.572 59.8209 120.869 60.7259 120.918C61.6899 120.97 62.4279 119.106 62.1419 118.52C61.8559 117.933 60.7459 118.626 60.6829 118.322C60.6199 118.018 61.1359 117.932 60.9869 117.656C60.8379 117.381 59.6119 117.923 59.6119 117.923L58.9839 119.572Z" fill="#F4BC84"/>
<path d="M53.465 104.054C53.205 103.535 53.599 102.141 53.905 100.866L51.645 99.8721C51.29 101.044 50.892 102.103 50.355 102.804C50.984 104.384 52.794 104.993 53.465 104.054Z" fill="#F4BC84"/>
<path d="M54.2298 103.337C53.0978 103.404 51.8238 101.673 50.5908 100.452L52.8788 94.9551L57.9438 97.5631C57.8218 99.7021 56.0908 101.532 54.2298 103.337Z" fill="#F4BC84"/>
<path d="M51.0722 101.174L52.4342 100.597L52.8052 98.892L53.5782 98.681L53.4462 100.044L53.8352 100.197L54.5942 98.472L57.6102 100.674L62.6952 97.954L57.2282 95.521L53.7682 94.658C53.7682 94.658 50.5962 96.179 50.5492 96.231C50.5022 96.283 50.3662 99.796 50.3662 99.796L51.0722 101.174Z" fill="#091038"/>
<path d="M155.755 93.9349L151.021 98.0349L144.095 91.3489L142.848 92.3699C145.324 96.4469 147.997 100.267 150.351 101.464C151.487 101.937 154.648 100.327 156.145 99.2789L155.755 93.9349Z" fill="#131F77"/>
<path d="M142.848 92.37C142.848 92.37 141.482 92.019 141.178 91.249C140.854 90.428 142.257 89.25 142.848 89.329C143.439 89.407 143.159 90.57 143.441 90.536C143.723 90.503 143.648 90.03 143.93 90.08C144.212 90.13 144.095 91.349 144.095 91.349L142.848 92.37Z" fill="#FBD783"/>
<path opacity="0.36" d="M124.226 80.151C126.224 83.202 130.314 84.049 133.365 82.051C136.416 80.053 137.276 75.965 135.278 72.914C133.28 69.863 129.185 69.009 126.134 71.006C123.082 73.004 122.228 77.1 124.226 80.151Z" fill="white"/>
<path d="M133.523 85.475L139.381 94.421L142.3 92.51L136.442 83.564C139.784 80.391 140.495 75.192 137.885 71.207C134.945 66.716 128.917 65.459 124.426 68.399C119.935 71.339 118.678 77.367 121.618 81.858C124.228 85.843 129.278 87.271 133.523 85.475ZM124.226 80.151C122.228 77.1 123.083 73.004 126.134 71.007C129.185 69.009 133.281 69.864 135.278 72.915C137.276 75.966 136.416 80.054 133.365 82.052C130.314 84.048 126.223 83.201 124.226 80.151Z" fill="#131F77"/>
<path d="M135.762 89.4879L139.225 87.2199C139.443 87.0769 139.736 87.1379 139.878 87.3559L147.201 98.5399C147.344 98.7579 147.283 99.0509 147.065 99.1929L143.602 101.461C143.384 101.604 143.091 101.543 142.949 101.325L135.626 90.1409C135.483 89.9239 135.544 89.6309 135.762 89.4879Z" fill="#2948CC"/>
<path d="M162.313 142.109C162.313 142.109 162.612 142.606 162.625 143.248C162.637 143.895 165.499 143.356 165.499 143.356C165.499 143.356 165.264 142.68 164.849 141.859C164.437 141.046 164.083 140.694 164.083 140.694L162.313 142.109Z" fill="#FBD783"/>
<path d="M160.766 111.084C161.856 118.871 159.814 122.273 160.433 125.244C161.052 128.215 164.531 141.2 164.531 141.2C164.249 141.767 162.927 142.249 162.151 142.098C159.137 135.146 155.539 127.104 155.086 124.613C154.588 121.805 154.131 116.828 154.786 111.74L160.766 111.084Z" fill="#fb9c2a"/>
<path d="M165.418 142.68C165.908 143.231 166.088 143.801 165.946 144.391C163.9 144.845 161.919 145.336 159.987 145.644C159.834 144.908 161.583 143.524 162.61 142.998C163.582 143.317 164.518 143.213 165.418 142.68Z" fill="#131F77"/>
<path d="M151.514 142.94C151.514 142.94 151.71 143.486 151.597 144.117C151.482 144.754 154.394 144.787 154.394 144.787C154.394 144.787 154.296 144.079 154.049 143.192C153.805 142.314 153.526 141.9 153.526 141.9L151.514 142.94Z" fill="#FBD783"/>
<path d="M156.078 112.214C155.621 120.063 152.951 122.999 152.975 126.034C153 129.069 153.866 142.483 153.866 142.483C153.478 142.984 152.088 143.197 151.356 142.897C149.763 135.489 147.811 126.898 147.856 124.366C147.918 121.514 148.445 116.545 150.085 111.684L156.078 112.214Z" fill="#fb9c2a"/>
<path d="M154.447 144.109C154.82 144.745 154.885 145.339 154.629 145.89C152.534 145.935 150.495 146.027 148.54 145.951C148.534 145.199 150.52 144.185 151.631 143.871C152.522 144.374 153.46 144.455 154.447 144.109Z" fill="#131F77"/>
<path d="M161.292 112.604C159.794 114.137 151.753 114.686 149.495 113.393C148.672 109.263 149.519 102.291 149.997 95.1991C152.85 93.7991 158.165 93.5751 160.173 94.6451C162.538 96.4701 160.699 104.67 161.292 112.604Z" fill="#131F77"/>
<path d="M156.942 94.3979C156.46 93.5819 156.364 92.6609 156.322 91.6179H154.105C154.138 92.6349 154.115 93.6659 153.803 94.7099C154.034 95.1449 156.724 94.9729 156.942 94.3979Z" fill="#FBD783"/>
<path d="M157.102 91.836C155.693 92.469 154.691 93.612 153.41 93.059C151.602 92.579 151.562 88.504 152.18 86.687L157.095 86.113L157.102 91.836Z" fill="#FBD783"/>
<path d="M157.567 91.775L155.775 93.24L153.905 91.143L155.172 89.843L154.592 89.058L153.905 89.917L153.454 89.397L153.804 87.942C152.543 88.091 149.502 87.429 149.502 87.429C149.502 87.429 151.014 85.051 151.344 84.333C152.606 84.851 154.513 84.644 154.513 84.644L157.916 86.283L157.567 91.775Z" fill="#2A195B"/>
<path d="M149.998 95.1649L145.264 99.2649L138.338 92.5789L137.091 93.5999C139.567 97.6769 142.24 101.497 144.594 102.694C145.73 103.167 148.891 101.557 150.388 100.509L149.998 95.1649Z" fill="#131F77"/>
<path d="M137.091 93.5999C137.091 93.5999 135.725 93.2489 135.421 92.4789C135.097 91.6579 136.5 90.48 137.091 90.559C137.682 90.638 137.402 91.8 137.684 91.767C137.966 91.734 137.891 91.261 138.173 91.311C138.455 91.361 138.338 92.5799 138.338 92.5799L137.091 93.5999Z" fill="#FBD783"/>
<defs>
<linearGradient id="paint0_linear_35_5094" x1="46.4498" y1="123.746" x2="23.7966" y2="121.246" gradientUnits="userSpaceOnUse">
<stop stop-color="white"/>
<stop offset="0.2563" stop-color="#C2C2C2"/>
<stop offset="0.8455" stop-color="#292929"/>
<stop offset="1"/>
</linearGradient>
<linearGradient id="paint1_linear_35_5094" x1="57.7769" y1="121.963" x2="38.0604" y2="135.231" gradientUnits="userSpaceOnUse">
<stop stop-color="white"/>
<stop offset="0.2563" stop-color="#C2C2C2"/>
<stop offset="0.8455" stop-color="#292929"/>
<stop offset="1"/>
</linearGradient>
<linearGradient id="paint2_linear_35_5094" x1="25.7317" y1="135.983" x2="41.2108" y2="135.576" gradientUnits="userSpaceOnUse">
<stop stop-color="white"/>
<stop offset="0.2563" stop-color="#C2C2C2"/>
<stop offset="0.8455" stop-color="#292929"/>
<stop offset="1"/>
</linearGradient>
<linearGradient id="paint3_linear_35_5094" x1="137.237" y1="135.007" x2="121.235" y2="126.547" gradientUnits="userSpaceOnUse">
<stop/>
<stop offset="0.1569" stop-color="#030303"/>
<stop offset="0.2858" stop-color="#0D0D0D"/>
<stop offset="0.4048" stop-color="#1F1F1F"/>
<stop offset="0.518" stop-color="#373737"/>
<stop offset="0.6269" stop-color="#565656"/>
<stop offset="0.7327" stop-color="#7C7C7C"/>
<stop offset="0.8359" stop-color="#AAAAAA"/>
<stop offset="0.9345" stop-color="#DDDDDD"/>
<stop offset="0.9923" stop-color="white"/>
</linearGradient>
<linearGradient id="paint4_linear_35_5094" x1="115.289" y1="77.9458" x2="177.32" y2="77.9458" gradientUnits="userSpaceOnUse">
<stop stop-color="white"/>
<stop offset="0.2563" stop-color="#fb9c2a"/>
<stop offset="0.8455" stop-color="#fb9c2a"/>
<stop offset="1" stop-color="#fb9c2a"/>
</linearGradient>
<linearGradient id="paint5_linear_35_5094" x1="78.9915" y1="79.2075" x2="84.4472" y2="79.2075" gradientUnits="userSpaceOnUse">
<stop stop-color="white"/>
<stop offset="0.1894" stop-color="#FCFCFC"/>
<stop offset="0.3228" stop-color="#F3F3F3"/>
<stop offset="0.4391" stop-color="#E3E3E3"/>
<stop offset="0.5455" stop-color="#CDCDCD"/>
<stop offset="0.6452" stop-color="#B1B1B1"/>
<stop offset="0.74" stop-color="#8E8E8E"/>
<stop offset="0.8309" stop-color="#646464"/>
<stop offset="0.9164" stop-color="#363636"/>
<stop offset="1"/>
</linearGradient>
<linearGradient id="paint6_linear_35_5094" x1="81.7979" y1="73.6554" x2="83.5946" y2="77.5483" gradientUnits="userSpaceOnUse">
<stop stop-color="white"/>
<stop offset="0.1729" stop-color="#C5C5C5"/>
<stop offset="0.3985" stop-color="#808080"/>
<stop offset="0.6024" stop-color="#494949"/>
<stop offset="0.7768" stop-color="#212121"/>
<stop offset="0.9151" stop-color="#090909"/>
<stop offset="1"/>
</linearGradient>
<linearGradient id="paint7_linear_35_5094" x1="38.1643" y1="77.4138" x2="49.8574" y2="77.4138" gradientUnits="userSpaceOnUse">
<stop stop-color="white"/>
<stop offset="0.1729" stop-color="#C5C5C5"/>
<stop offset="0.3985" stop-color="#808080"/>
<stop offset="0.6024" stop-color="#494949"/>
<stop offset="0.7768" stop-color="#212121"/>
<stop offset="0.9151" stop-color="#090909"/>
<stop offset="1"/>
</linearGradient>
<linearGradient id="paint8_linear_35_5094" x1="24.777" y1="61.7257" x2="33.6209" y2="61.7257" gradientUnits="userSpaceOnUse">
<stop stop-color="white"/>
<stop offset="0.1729" stop-color="#C5C5C5"/>
<stop offset="0.3985" stop-color="#808080"/>
<stop offset="0.6024" stop-color="#494949"/>
<stop offset="0.7768" stop-color="#212121"/>
<stop offset="0.9151" stop-color="#090909"/>
<stop offset="1"/>
</linearGradient>
<linearGradient id="paint9_linear_35_5094" x1="55.9696" y1="71.2595" x2="65.6873" y2="71.2595" gradientUnits="userSpaceOnUse">
<stop stop-color="white"/>
<stop offset="0.1729" stop-color="#C5C5C5"/>
<stop offset="0.3985" stop-color="#808080"/>
<stop offset="0.6024" stop-color="#494949"/>
<stop offset="0.7768" stop-color="#212121"/>
<stop offset="0.9151" stop-color="#090909"/>
<stop offset="1"/>
</linearGradient>
</defs>
</svg>
