<svg width="1100" height="800" viewBox="0 0 1100 800" fill="none" xmlns="http://www.w3.org/2000/svg">
<g opacity="0.5">
<path d="M546.897 618.798C462.709 620.287 376.85 605.812 293.371 623.735C237.075 635.822 175.666 621.653 122.521 652.269C65.7229 684.99 136.371 698.521 163.667 706.458C237.595 727.954 308.441 719.48 383.492 718.578C433.978 717.971 484.467 717.123 534.807 712.69C582.102 708.525 629.584 709.037 677.034 708.353C725.691 707.652 774.025 707.376 822.434 713.788C843.526 716.582 864.985 717.357 886.169 719.222C905.142 720.892 923.318 718.648 942.162 716.581C957.985 714.845 973.661 710.145 987.946 702.377C999.254 696.228 1019.3 677.342 1022.59 663.005C1031.81 622.813 883.97 625.907 861.27 626.324C835.877 626.791 810.293 628.078 784.903 627.379C774.223 627.085 763.673 624.944 753.219 622.581C742.807 620.228 732.361 621.015 721.823 620.115C677.878 616.361 633.909 617.636 589.887 618.27C575.563 618.476 561.229 618.544 546.897 618.798Z" fill="white"/>
</g>
<path d="M501.854 160.569C504.454 158.729 507.549 158.226 510.552 157.783C525.765 155.54 541.037 153.866 556.339 152.764C579.766 151.078 603.976 150.878 625.825 161.074C629.424 162.754 633.593 166.162 632.722 170.642C631.995 174.38 628.242 175.828 625.072 176.538C594.112 183.472 562.329 182.389 530.839 181.281C525.128 181.081 483.125 173.825 501.854 160.569Z" fill="#D67086"/>
<path d="M593.157 641.442L484.911 640.242L495.609 557.507L584.296 558.49L593.157 641.442Z" fill="#D1D3D4"/>
<g opacity="0.14">
<path d="M492.527 580.405L586.21 576.415L588.813 600.776L492.527 580.405Z" fill="black"/>
</g>
<path d="M254.396 172.679V572.766C254.396 576.985 257.816 580.405 262.035 580.405H816.951C821.17 580.405 824.59 576.985 824.59 572.766V172.679C824.59 168.632 821.309 165.351 817.262 165.351H261.724C257.677 165.35 254.396 168.631 254.396 172.679Z" fill="#D1D3D4"/>
<path d="M254.396 171.523V529.066H824.59V171.523C824.59 167.766 821.544 164.72 817.787 164.72H261.198C257.441 164.721 254.396 167.766 254.396 171.523Z" fill="#1D2B56"/>
<path d="M809.559 181.373H269.427V509.682H809.559V181.373Z" fill="white"/>
<path d="M625.039 630.048H453.948V659.89H625.039V630.048Z" fill="#D1D3D4"/>
<path d="M809.08 181.373H268.989V209.257H809.08V181.373Z" fill="#D1D3D4"/>
<path d="M796.419 188.49H626.688V202.141H796.419V188.49Z" fill="white"/>
<path d="M782.511 193.973H791.069L786.79 197.592L782.511 193.973Z" fill="#CCCCCC"/>
<path d="M776.804 189.486H775.989V200.897H776.804V189.486Z" fill="#CCCCCC"/>
<path d="M301.982 195.782C301.982 200.818 297.9 204.9 292.864 204.9C287.828 204.9 283.746 200.818 283.746 195.782C283.746 190.746 287.828 186.664 292.864 186.664C297.9 186.664 301.982 190.746 301.982 195.782Z" fill="#8CABEF"/>
<path d="M263.216 627.193L269.427 632.632L263.975 653.499H257.409L253.547 638.218L258.662 626.194L263.216 627.193Z" fill="#2B2B2B"/>
<path d="M185.656 439.338L230.903 447.806L204.946 538.778L259.798 627.057L253.547 638.218L174.788 554.529L167.673 533.775L172.615 449.844L185.656 439.338Z" fill="#3B3387"/>
<path d="M265.187 439.332L253.243 523.481L238.525 650.693L223.304 649.464L215.772 520.999L220.446 439.807L265.187 439.332Z" fill="#3B3387"/>
<path d="M154.825 462.468C153.871 466.205 152.843 469.922 151.742 473.618C151.507 474.406 151.272 475.273 151.597 476.029C151.872 476.668 152.49 477.082 153.087 477.438C160.541 481.882 169.959 482.878 178.178 480.092C182.228 478.719 185.963 476.491 190.073 475.308C196.967 473.324 204.186 474.39 211.212 474.783C218.18 475.173 224.256 473.399 230.947 472.849C247.351 471.5 251.737 470.682 267.345 475.59C267.345 446.045 273.385 423.324 268.891 395.527C264.455 368.089 260.02 340.651 255.584 313.212C254.836 308.583 254.059 303.858 252.147 299.782C243.504 281.355 223.163 277.839 205.104 283.107C195.916 285.787 188.598 296.153 184.082 304.209C178.31 314.507 175.133 326.1 172.849 337.612C165.703 373.63 165.47 410.744 158.371 446.771C157.334 452.035 156.151 457.27 154.825 462.468Z" fill="#8CABEF"/>
<path d="M216.008 286.973C216.163 287.338 216.38 287.692 216.681 288.034C217.867 289.386 219.585 290.228 221.322 290.606C223.613 291.104 225.993 290.89 228.321 290.618C231.466 290.25 231.488 288.425 232.141 285.641C232.853 282.605 233.212 279.5 233.583 276.408C238.087 276.039 243.435 275.054 245.385 270.452C245.999 269.003 246.165 267.38 246.322 265.792C246.972 259.228 247.622 252.664 248.272 246.1C248.497 243.83 248.717 241.489 248.148 239.311C247.151 235.489 243.956 232.972 240.752 231.279C232.576 226.958 222.654 226.189 214.345 230.504C212.134 231.653 210.005 233.195 208.587 235.425C206.401 238.863 206.226 243.339 206.132 247.529C206.045 251.396 205.958 255.264 205.872 259.131C205.772 263.579 205.955 268.727 209.103 271.37C210.774 272.773 213.06 273.213 214.451 274.958C216.193 277.144 215.849 280.211 215.741 282.816C215.68 284.305 215.467 285.703 216.008 286.973Z" fill="#EFBFA5"/>
<path d="M241.249 238.343C241.432 238.72 241.58 239.107 241.687 239.507C242.247 241.601 241.603 243.873 242.146 245.972C243.007 249.299 246.657 251.525 246.984 254.946C247.252 257.744 245.173 260.236 244.812 263.023C244.417 266.068 246.166 269.104 245.645 272.1C245.192 274.703 243.263 278.268 241.546 280.256C242.078 279.64 246.45 280.188 247.639 279.575C249.46 278.635 249.708 277.978 250.358 276.198C251.004 274.43 250.733 272.623 251.669 270.832C252.818 268.635 254.963 267.116 255.846 264.748C257.052 261.517 255.547 257.908 255.932 254.48C256.515 249.293 261.365 244.716 260.09 239.654C259.342 236.684 256.659 234.627 255.264 231.901C254.205 229.831 253.929 227.462 253.251 225.237C252.573 223.013 251.295 220.744 249.118 219.927C247.908 219.473 246.568 219.527 245.319 219.2C243.159 218.635 241.448 216.992 239.39 216.126C236.445 214.887 230.901 217.555 228.954 219.986C227.022 222.399 227.749 224.621 229.374 226.995C232.08 230.948 239.098 233.915 241.249 238.343Z" fill="#2B2B2B"/>
<path d="M199.281 220.244C197.376 221.441 195.074 222.238 193.31 223.669C189.872 226.46 188.91 231.251 188.476 235.658C188.089 239.582 186.117 242.952 186.247 247.08C186.334 249.853 187.303 252.72 189.426 254.506C192.069 256.731 196.423 257.378 197.436 260.681C198.536 264.269 194.603 268.403 196.579 271.594C197.669 273.354 200.024 273.771 201.676 275.02C203.518 276.413 204.35 278.725 205.387 280.788C206.424 282.851 208.054 284.961 210.354 285.177C210.7 281.681 211.004 278.912 209.739 275.6C209.002 273.671 206.684 270.043 208.801 268.164C210.166 266.574 213.14 266.239 213.366 264.156C213.472 263.178 212.848 262.293 212.367 261.435C210.506 258.112 210.598 253.871 212.269 250.449C213.941 247.027 217.063 244.423 220.602 243.013C224.748 241.362 224.174 240.337 225.615 236.585C226.941 233.132 229.004 232.449 232.275 231.391C235.212 230.442 236.181 229.788 237.426 227.194C238.337 225.296 239.455 223.023 238.495 220.762C237.732 218.965 236.222 217.61 234.759 216.317C231.702 213.617 228.254 210.761 224.175 210.761C221.91 210.761 219.713 211.667 217.448 211.632C215.937 211.609 214.465 211.168 212.962 211.009C210.4 210.738 207.636 211.323 205.446 212.702C203.237 214.093 203.18 215.711 201.857 217.816C201.209 218.846 200.303 219.602 199.281 220.244Z" fill="#2B2B2B"/>
<path d="M209.406 206.496C209.977 204.084 209.953 200.885 207.681 199.892C206.436 199.348 204.969 199.74 203.661 199.374C200.874 198.594 200.157 195.099 198.853 192.516C198.658 192.129 198.42 191.735 198.038 191.53C197.492 191.238 196.828 191.414 196.209 191.445C193.369 191.585 191.43 188.653 188.852 187.454C185.66 185.97 181.383 187.724 180.152 191.021C179.646 192.376 179.61 193.868 179.128 195.232C177.176 200.757 168.75 202.559 168.12 208.384C167.694 212.32 171.284 216.38 169.519 219.924C168.39 222.19 165.27 223.566 165.434 226.093C165.539 227.718 167.174 228.938 168.8 229.032C170.426 229.127 171.983 228.343 173.284 227.363C175.349 225.807 176.969 223.736 178.949 222.073C180.929 220.41 183.502 219.132 186.038 219.636C188.494 220.124 190.597 222.216 193.091 221.98C195.085 221.792 196.674 220.14 198.645 219.784C200.489 219.451 202.321 220.298 204.178 220.545C206.036 220.792 208.397 219.987 208.582 218.122C208.627 217.67 208.534 217.193 208.707 216.774C209.192 215.598 211.245 215.816 211.723 214.637C210.858 213.065 209.445 213.504 208.888 211.493C208.456 209.936 209.048 208.01 209.406 206.496Z" fill="#2B2B2B"/>
<path d="M959.01 622.027C957.061 624.318 955.112 626.609 953.164 628.9C945.688 623.133 938.578 616.511 932.043 609.231C935.956 607.332 938.683 601.854 943.768 606.083C945.414 607.451 958.625 622.48 959.01 622.027Z" fill="#EFBFA5"/>
<path d="M948.584 626.09C947.64 627.285 947.188 628.964 947.347 630.686C947.439 631.686 947.729 632.708 947.643 633.679C947.559 634.632 947.122 635.439 946.694 636.218C944.44 640.318 936.569 651.051 947.527 651.257C957.478 651.444 963.852 634.95 967.234 626.772C967.456 626.234 967.678 625.658 967.593 625.025C967.501 624.349 967.076 623.738 966.66 623.179C964.343 620.067 960.873 615.268 957.578 618.537C956.173 619.932 955.727 622.309 954.136 623.703C952.832 624.844 949.433 625.015 948.584 626.09Z" fill="#4D4D4D"/>
<path d="M927.184 441.079C929.086 454.028 926.7 466.706 925.423 479.395C923.988 493.648 925.392 505.771 928.228 519.936C931.33 535.433 934.722 550.896 939.059 566.105C943.578 581.951 950.259 594.541 957.863 608.932C958.508 610.153 959.175 611.463 959.126 612.839C958.95 617.76 937.55 631.318 936.162 628.491C924.388 604.468 905.493 580.34 895.337 555.513C877.657 512.292 862.47 467.958 849.913 422.876C848.12 416.44 846.475 409.063 849.667 403.6C852.114 399.411 856.765 397.57 861.167 396.186C872.944 392.483 894.198 384.4 905.987 392.251C918.872 400.831 925.053 426.57 927.184 441.079Z" fill="#424DC1"/>
<path d="M863.016 648.933C860.129 648.875 857.243 648.818 854.357 648.76C853.316 638.912 853.11 628.795 853.743 618.706C857.677 620.608 863.282 619.187 863.78 626.087C863.94 628.321 862.445 648.922 863.016 648.933Z" fill="#EFBFA5"/>
<path d="M853.22 643.205C851.762 643.234 850.303 643.978 849.222 645.245C848.595 645.981 848.084 646.89 847.358 647.463C846.645 648.025 845.795 648.208 844.971 648.377C840.633 649.269 827.954 650.015 835.164 658.995C841.711 667.15 857.357 661.386 865.263 658.706C865.783 658.53 866.329 658.329 866.707 657.841C867.111 657.32 867.247 656.573 867.353 655.867C867.944 651.939 868.923 645.964 864.46 645.468C862.556 645.256 860.618 646.469 858.59 646.107C856.929 645.811 854.531 643.18 853.22 643.205Z" fill="#4D4D4D"/>
<path d="M906.857 457.916C903.359 476.815 891.976 491.408 886.685 509.791C876.456 545.326 874.294 586.046 869.311 622.919C868.929 625.747 868.973 635.895 868.973 635.895C868.973 635.895 855.41 638.62 847.216 636.957C838.237 563.495 835.921 488.912 840.317 414.745C840.716 408.02 841.557 400.448 846.312 396.316C849.959 393.147 854.912 392.951 859.484 393.106C871.717 393.521 894.246 392.937 902.76 404.352C912.065 416.829 909.545 443.395 906.857 457.916Z" fill="#424DC1"/>
<path d="M857.058 297.334C861.607 296.746 866.156 296.159 870.705 295.571C870.641 291.913 870.284 288.261 869.639 284.661C873.402 283.211 877.737 281.075 878.282 277.08C878.454 275.821 878.199 274.548 877.946 273.303C876.899 268.157 875.852 263.012 874.804 257.866C874.442 256.086 874.058 254.255 873.04 252.751C871.253 250.112 867.905 249.034 864.751 248.582C856.7 247.429 848.024 249.423 841.97 254.853C840.359 256.298 838.914 258.021 838.246 260.08C837.216 263.254 838.159 266.694 839.102 269.895C839.972 272.85 840.842 275.805 841.713 278.76C842.714 282.159 844.128 286.014 847.466 287.2C849.238 287.83 851.301 287.569 852.918 288.531C855.767 290.227 855.514 294.398 857.058 297.334Z" fill="#B97262"/>
<path d="M809.302 247.125C808.477 245.857 807.593 244.635 806.61 243.495C804.481 241.024 801.886 238.929 800.15 236.167C798.414 233.406 797.719 229.613 799.626 226.966C800.856 225.258 802.908 224.361 804.909 223.708C811.502 221.553 818.676 221.208 825.445 222.719C831.893 224.158 837.7 226.686 844.07 224.089C850.056 221.649 854.455 222.44 860.848 224.51C867.766 226.75 876.973 227.053 883.272 230.318C885.902 231.681 888.034 233.87 889.717 236.308C895.548 244.755 895.931 256.628 890.657 265.433C889.474 267.408 888.041 269.224 886.531 270.963C883.405 274.561 879.67 279.002 875.266 280.432C875.042 276.461 878.291 263.821 875.142 260.655C870.145 255.63 859.246 257.758 853.275 259.209C846.762 260.792 841.057 265.607 834.589 266.791C829.934 267.643 823.899 265.527 819.85 263.228C814.856 260.387 812.313 251.754 809.302 247.125Z" fill="#1D2B56"/>
<path d="M885.938 291.838C895.11 296.697 902.212 305.515 906.914 314.799C925.737 351.959 934.902 393.132 943.747 433.838C946.617 447.047 950.016 461.213 960.206 470.093C951.183 471.771 941.71 473.021 932.963 470.245C927.247 468.431 922.202 465.002 916.794 462.41C903.249 455.917 887.622 454.815 872.718 456.684C857.814 458.554 843.428 463.237 829.148 467.897C827.731 456.847 827.351 447.078 827.968 435.989C829.713 404.624 842.265 374.788 842.35 343.232C842.38 332.107 840.84 320.811 843.305 309.963C846.383 296.417 857.833 287.489 871.732 287.976C876.898 288.156 881.645 289.563 885.938 291.838Z" fill="#2F3789"/>
<path d="M769.651 242.204H584.694V483.367H769.651V242.204Z" fill="#8CABEF"/>
<path d="M212.793 410.344C213.55 410.647 214.373 410.803 215.173 410.945C217.934 411.435 220.756 411.619 223.553 411.747C225.576 411.839 227.601 411.88 229.626 411.88C238.995 411.88 246.637 410.972 247.207 409.825L247.239 409.502C247.239 409.532 247.239 409.563 247.239 409.593C247.254 409.513 247.263 409.432 247.263 409.35V369.537C247.263 369.162 247.319 368.775 247.167 368.469C247.102 368.337 246.998 368.22 246.835 368.125C246.652 368.018 246.451 367.94 246.251 367.869C244.258 367.158 242.009 367.004 239.92 366.816C236.5 366.509 233.06 366.403 229.627 366.403C226.192 366.403 222.751 366.509 219.33 366.816C217.241 367.004 214.991 367.158 212.999 367.87C212.418 368.077 211.762 368.363 211.804 369.048C211.814 369.207 211.804 369.369 211.804 369.527V408.671C211.804 409.224 211.727 409.62 212.178 410.009C212.354 410.161 212.579 410.258 212.793 410.344Z" fill="#D67086"/>
<path d="M223.918 656.198L221.664 666.526L232.411 667.644L237.944 657.877L238.524 650.693L223.538 647.659L223.918 656.198Z" fill="#2B2B2B"/>
<path d="M229.538 370.948C239.16 370.948 246.96 369.997 246.96 368.824C246.96 367.651 239.16 366.7 229.538 366.7C219.916 366.7 212.116 367.651 212.116 368.824C212.116 369.997 219.916 370.948 229.538 370.948Z" fill="#D67086"/>
<path d="M228.952 367.494C220.807 367.494 214.135 368.371 213.619 369.689C215.574 370.344 221.804 370.949 229.417 370.949C235.985 370.949 241.693 370.683 244.285 369.956C244.316 369.891 244.988 369.874 244.988 369.807C244.988 368.412 237.434 367.494 228.952 367.494Z" fill="white"/>
<path d="M217.303 379.068C213.552 375.56 208.677 373.246 203.839 375.162C199.973 376.693 197.239 380.622 196.708 384.829C195.586 393.71 206.134 401.02 213.284 397.655C215.356 396.681 213.887 393.383 211.799 394.388C206.51 396.933 199.422 390.36 201.16 384.665C203.203 377.967 209.799 377.742 214.561 382.072C216.464 383.802 219.223 380.864 217.303 379.068Z" fill="#D67086"/>
<path d="M227.688 339.619C229.26 339.71 229.254 337.265 227.688 337.174C223.906 336.954 220.46 339.189 220.021 343.175C219.81 345.085 220.425 346.762 221.505 348.316C223.487 351.166 228.573 354.433 223.664 357.9C222.389 358.801 223.609 360.922 224.898 360.011C227.211 358.378 228.58 355.84 227.938 352.95C227.616 351.501 226.769 350.448 225.799 349.369C224.884 348.351 223.407 347.411 222.963 346.073C221.789 342.534 223.897 339.399 227.688 339.619Z" fill="white"/>
<path d="M239.302 342.085C240.874 342.176 240.868 339.731 239.302 339.64C235.52 339.42 232.074 341.655 231.635 345.641C231.424 347.551 232.039 349.228 233.119 350.782C235.101 353.632 240.188 356.899 235.278 360.366C234.003 361.267 235.223 363.387 236.512 362.477C238.825 360.844 240.194 358.306 239.552 355.416C239.23 353.967 238.383 352.914 237.413 351.835C236.498 350.817 235.021 349.877 234.577 348.539C233.403 345 235.512 341.865 239.302 342.085Z" fill="white"/>
<path d="M209.257 385.119C209.209 384.872 209.142 384.63 209.052 384.396C208.205 382.218 205.859 382.13 204.597 380.52C204.034 379.802 204.184 376.948 202.689 377.492C202.139 377.697 200.239 378.23 198.357 378.883C196.746 378.831 195.125 378.852 193.537 378.644C189.52 378.118 182.003 372.124 178.52 376.883C177.846 377.804 177.159 378.75 176.825 379.828C176.552 380.71 176.531 381.632 176.554 382.535C176.572 383.238 176.435 384.371 176.923 384.808C177.436 385.267 179.218 385.282 179.92 385.427C181.926 385.842 183.932 386.257 185.938 386.672C187.906 387.079 190.172 387.749 190.742 389.698C190.867 390.124 190.897 390.587 191.079 390.988C191.284 391.44 191.664 391.773 192.044 392.081C193.435 393.21 194.958 394.246 196.598 394.997C199.532 396.337 204.1 393.479 206.757 392.059C207.418 391.706 208.094 391.318 208.56 390.718C209.319 389.742 209.367 388.433 209.378 387.234C209.385 386.526 209.389 385.801 209.257 385.119Z" fill="#EFBFA5"/>
<path d="M137.872 347.79C136.601 351.148 135.877 354.698 136.098 358.576C136.328 362.608 138.564 366.322 141.497 369.099C144.43 371.876 148.029 373.832 151.633 375.654C162.383 381.087 173.596 385.605 185.11 389.142C187.028 385.229 188.946 381.316 190.865 377.403C191.329 376.456 191.804 375.381 191.463 374.383C191.14 373.438 190.191 372.878 189.313 372.401C185.137 370.13 180.96 367.858 176.784 365.587C172.864 363.455 168.704 361.079 166.756 357.065C163.026 349.38 171.569 346.06 175.837 341.698C181.64 335.767 187.648 329.979 193.272 323.879C198.601 318.433 204.077 312.751 206.406 305.661C211.041 291.551 206.261 281.698 192.964 287.537C184.536 291.238 178.229 297.765 169.354 305.876C157.304 316.887 143.702 332.379 137.872 347.79Z" fill="#8CABEF"/>
<path d="M434.122 259.197C405.544 259.197 379.967 271.853 362.627 291.851L434.122 353.801L505.617 291.851C488.277 271.853 462.7 259.197 434.122 259.197Z" fill="#2F3789"/>
<path d="M362.728 292.164C329.025 332.145 334.106 391.769 374.087 425.471C377.584 428.419 381.238 431.051 385.005 433.408L435.061 353.138L362.728 292.164Z" fill="#EED5D5"/>
<path d="M434.932 447.869C417.205 447.873 399.417 442.924 383.789 432.845L434.941 353.268L434.932 447.869Z" fill="#8CABEF"/>
<path d="M552.435 332.164C549.816 313.753 541.906 297.07 530.293 283.677L458.798 345.627L552.435 332.164Z" fill="#D67086"/>
<path d="M538.42 346.535L444.784 359.998V454.602C497.075 454.602 539.388 412.289 539.388 359.998C539.388 355.425 539.045 350.934 538.42 346.535Z" fill="#424DC1"/>
<path d="M493.627 619.372C483.377 613.702 473.308 620.67 465.998 627.248C451.513 640.269 435.769 651.831 420.314 663.718C415.206 660.832 409.613 657.699 407.063 656.363C391.424 648.17 375.448 640.484 360.713 630.887C353.519 626.194 343.672 621.826 334.036 630.16C326.133 636.995 323.265 649.27 325.787 656.729C328.31 664.188 334.727 667.929 341.108 671.035C357.192 678.864 376.035 688.727 394.054 690.697C401.904 691.555 410.745 691.017 418.668 690.816C431.133 690.499 444.942 689.911 455.728 683.365C466.701 676.705 477.241 669.357 487.581 661.758C494.098 656.97 500.631 651.543 503.012 643.477C505.393 635.411 502.034 624.022 493.627 619.372Z" fill="#1D2B56"/>
<path d="M480.015 660.794C478.822 650.475 473.65 642.283 464.094 637.798C456.344 634.16 447.633 633.305 439.141 632.215C420.229 629.788 402.176 627.363 383.08 628.113C367.81 628.713 358.399 641.741 351.252 654.59C346.748 662.688 347.999 666.486 353.669 673.268C358.897 679.521 365.242 684.841 372.33 688.869C386.363 696.844 407.922 694.873 423.378 693.15C437.965 691.524 452.244 687.167 465.255 680.372C473.629 675.999 481.177 670.842 480.015 660.794Z" fill="#1D2B56"/>
<path d="M422.198 500.811C427.805 501.356 433.412 501.901 439.02 502.446C439.881 497.502 440.39 492.478 440.54 487.44C445.426 486.593 451.173 484.991 452.851 479.769C453.38 478.124 453.401 476.335 453.417 474.584C453.481 467.347 453.545 460.11 453.609 452.873C453.631 450.37 453.641 447.791 452.805 445.466C451.339 441.388 447.6 438.952 443.932 437.417C434.572 433.5 423.653 433.636 414.999 439.17C412.696 440.643 410.521 442.538 409.191 445.114C407.141 449.086 407.39 453.995 407.7 458.583C407.986 462.818 408.272 467.053 408.558 471.287C408.887 476.158 409.594 481.765 413.294 484.343C415.258 485.712 417.799 485.967 419.492 487.738C422.473 490.861 421.099 496.404 422.198 500.811Z" fill="#EFBFA5"/>
<path d="M433.582 483.1C435.147 483.102 436.69 482.876 438.176 482.331C441.324 481.176 443.694 478.753 445.945 476.41C450.165 472.015 454.237 466.846 457.066 461.56C460.309 455.5 458.65 448.473 460.959 442.152C462.999 436.567 467.963 431.941 468.655 426.079C466.26 427.048 463.685 427.63 461.078 427.792C462.945 425.957 463.996 423.431 463.943 420.909C460.95 423.219 457.57 425.097 453.962 426.456C455.084 425.295 455.519 423.597 455.08 422.092C452.779 425.454 448.149 426.816 443.855 426.896C439.56 426.976 435.311 426.038 431.016 425.966C422.053 425.816 413.252 429.875 407.565 436.232C402.907 441.439 401.63 445.735 401.502 452.616C401.422 456.932 401.364 461.373 403.031 465.404C406.213 473.096 414.821 477.516 423.041 480.649C426.386 481.924 430.04 483.095 433.582 483.1Z" fill="#2B2B2B"/>
<path d="M431.229 495.953C438.421 494.995 445.724 493.69 451.75 496.317C456.853 498.541 456.765 504.985 457.907 509.857C461.682 525.973 464.519 542.285 466.74 558.685C467.802 566.525 469.637 574.921 469.592 582.84C469.556 589.194 467.964 595.371 468.453 601.847C468.829 606.822 470.944 612.194 475.5 614.228C477.793 615.252 480.426 615.3 482.724 616.312C485.022 617.325 486.989 620.031 485.832 622.259C485.282 623.319 484.182 623.957 483.14 624.538C477.458 627.707 471.775 630.875 466.093 634.044C461.753 636.464 457.388 638.895 452.712 640.575C446.086 642.955 439.001 643.766 431.969 644.123C413.807 645.046 395.499 643.037 377.969 638.2C368.531 635.595 359.413 630.975 361.703 620.297C364.059 609.307 368.617 598.342 373.531 588.278C379.48 576.095 381.244 561.414 385.458 548.56C389.729 535.531 394.245 522.585 398.796 509.652C398.813 509.603 398.83 509.554 398.848 509.505C400.512 504.778 401.193 500.102 404.857 496.264C409.872 491.018 412.286 495.19 417.979 496.258C422.111 497.034 426.648 496.564 431.229 495.953Z" fill="#424DC1"/>
<path d="M500.015 433.785C500.587 433.63 501.098 433.425 501.604 432.569C502.6 430.883 502.762 428.298 503.652 426.447C505.097 425.733 506.933 426.658 507.728 428.061C508.522 429.463 508.52 431.17 508.372 432.775C508.096 435.766 507.389 438.717 506.278 441.508C506.13 441.879 505.969 442.256 505.691 442.542C504.905 443.346 503.485 443.157 502.653 443.913C501.976 444.529 501.878 445.605 501.198 446.217C500.399 446.936 499.161 446.736 498.12 446.471C495.63 445.837 491.507 445.274 492.58 441.727C493.137 439.886 496.587 436.059 498.016 434.755C498.782 434.052 499.43 433.944 500.015 433.785Z" fill="#EFBFA5"/>
<path d="M490.047 441.814C495.281 441.389 500.623 442.386 505.352 444.669C500.271 471.737 490.095 497.544 479.975 523.158C479.617 524.065 479.227 525.015 478.463 525.621C477.77 526.171 476.864 526.359 475.994 526.52C466.807 528.215 457.393 528.671 448.085 527.871C443.55 527.481 444.67 503.258 445.733 500.421C449.373 490.714 457.328 500.727 463.827 499.295C469.274 498.095 475.478 477.481 477.872 471.911C482.146 461.967 486.205 451.932 490.047 441.814Z" fill="#424DC1"/>
<path d="M371.855 423.898C371.326 423.632 370.865 423.33 370.54 422.389C369.9 420.538 370.256 417.973 369.753 415.982C368.479 414.995 366.495 415.535 365.438 416.751C364.38 417.967 364.043 419.64 363.868 421.242C363.542 424.228 363.648 427.261 364.18 430.217C364.251 430.61 364.333 431.012 364.55 431.347C365.16 432.292 366.589 432.389 367.254 433.296C367.795 434.034 367.676 435.108 368.221 435.844C368.861 436.708 370.113 436.759 371.187 436.706C373.754 436.58 377.906 436.851 377.561 433.161C377.382 431.246 374.763 426.808 373.623 425.246C373.01 424.405 372.397 424.17 371.855 423.898Z" fill="#EFBFA5"/>
<path d="M380.024 433.751C374.98 432.292 369.546 432.204 364.457 433.499C364.043 461.037 368.873 488.353 373.686 515.471C373.857 516.431 374.049 517.44 374.677 518.186C375.247 518.863 376.096 519.228 376.917 519.559C385.582 523.05 394.717 525.373 403.997 526.444C408.518 526.966 412.248 503.005 411.77 500.013C410.137 489.776 400.347 498.003 394.263 495.304C389.165 493.043 387.191 471.606 385.956 465.671C383.75 455.074 381.772 444.431 380.024 433.751Z" fill="#424DC1"/>
<path d="M567.321 165.687C568.004 165.377 568.609 164.945 569.074 164.34C569.186 164.195 569.289 164.036 569.324 163.856C569.365 163.645 569.307 163.429 569.249 163.221C569.029 162.43 566.768 156.301 567.272 155.991C571.144 153.84 574.449 150.221 576.36 146.482C579.93 139.496 580.118 131.52 579.421 124.014C578.42 113.226 574.677 101.399 564.677 97.4459C557.008 94.4129 547.385 97.7149 541.203 103.455C533.254 110.837 534.473 123.002 536.152 132.379C537.353 139.084 540.232 145.735 544.949 150.721C547.319 153.226 550.174 155.275 553.392 156.543C554.955 157.159 556.412 157.032 556.877 158.585C557.453 160.509 557.172 163.366 557.355 165.415C557.385 165.755 557.437 166.136 557.71 166.341C557.905 166.488 558.167 166.505 558.411 166.515C560.087 166.58 561.766 166.564 563.44 166.469C564.749 166.393 566.149 166.219 567.321 165.687Z" fill="#EFBFA5"/>
<path d="M569.389 112.232C573.291 114.523 577.114 118.418 576.399 122.886C578.446 121.87 580.991 123.861 581.287 126.128C581.583 128.395 580.322 130.573 578.857 132.327C581.143 132.713 583.385 131.064 584.427 128.994C585.469 126.923 585.573 124.522 585.613 122.205C585.732 115.332 585.433 108.274 582.787 101.93C580.141 95.5858 574.716 90.0228 567.93 88.9298C565.839 88.5928 563.7 88.6848 561.594 88.9128C559.883 89.0988 558.138 89.3898 556.649 90.2508C544.516 97.2728 564.339 109.267 569.389 112.232Z" fill="#1D2B56"/>
<path d="M541.341 125.771C539.331 131.12 544.15 137.003 542.902 142.579C542.127 146.046 539.082 148.878 539.091 152.43C539.102 157.017 544.189 160.387 544.246 164.974C541.333 161.317 535.759 160.429 533.228 156.498C532.185 154.878 531.801 152.933 531.074 151.149C528.083 143.808 520.01 140.246 513.198 136.193C512.406 135.721 511.591 135.204 511.125 134.408C510.096 132.648 511.161 130.465 512.04 128.625C514.706 123.048 515.651 116.663 514.716 110.554C513.825 104.735 511.277 98.9458 512.435 93.1738C513.465 88.0368 517.641 83.6668 522.727 82.4048C527.307 81.2678 532.219 82.5028 536.806 81.3998C539.851 80.6678 542.55 78.9548 545.388 77.6308C551.949 74.5698 560.602 73.9458 565.702 79.0848C570.211 83.6278 570.243 91.2838 567.285 96.9598C565.458 100.466 562.853 103.488 561.003 106.989C559.581 109.679 558.57 112.627 556.241 114.714C551.756 118.733 543.688 119.523 541.341 125.771Z" fill="#1D2B56"/>
<path d="M581.134 191.438C581.548 191.52 581.974 191.615 582.312 191.867C583.296 192.603 582.998 194.114 583.256 195.315C583.421 196.082 583.842 196.765 584.257 197.43C584.971 198.576 585.685 199.722 586.399 200.868C586.519 201.06 586.646 201.26 586.842 201.375C587.02 201.479 587.234 201.5 587.44 201.513C589.594 201.653 591.893 201.201 593.486 199.745C595.036 198.328 595.7 196.168 595.869 194.075C595.977 192.734 595.909 191.379 595.667 190.055C595.592 189.644 595.494 189.221 595.242 188.887C595.036 188.613 594.743 188.42 594.45 188.242C592.604 187.122 590.515 186.405 588.371 186.157C587.155 186.016 585.894 186.017 584.767 185.54C583.977 185.205 583.302 184.655 582.617 184.139C581.243 183.104 579.783 182.182 578.258 181.386C577.954 181.227 576.639 188.085 576.605 188.712C576.45 191.588 578.789 190.969 581.134 191.438Z" fill="#EFBFA5"/>
<path d="M509.731 150.895C508.013 150.708 506.309 150.573 504.626 150.495C502.778 150.41 500.888 150.353 499.123 150.906C497.452 151.43 495.993 152.473 494.661 153.609C488.859 158.557 482.606 168.249 489.338 174.667C491.356 176.59 494.106 177.51 496.786 178.279C504.18 180.4 511.759 181.799 519.323 183.195C539.548 186.926 559.774 190.658 580 194.389C581.299 190.169 582.598 185.949 583.897 181.729C584.957 178.286 556.381 164.882 553.095 163.463C539.959 157.793 524.319 152.481 509.731 150.895Z" fill="#D67086"/>
<path d="M726.871 347.27H746.057V296.479H726.871V347.27Z" fill="white"/>
<path d="M667.269 347.27H686.455V310.255H667.269V347.27Z" fill="white"/>
<path d="M607.668 347.27H626.854V295.705H607.668V347.27Z" fill="white"/>
<path d="M637.468 347.27H656.654V275.652H637.468V347.27Z" fill="white"/>
<path d="M697.07 347.269H716.256V256.362H697.07V347.269Z" fill="white"/>
<g opacity="0.22">
<path d="M750.28 366.41H604.064V372.61H750.28V366.41Z" fill="white"/>
</g>
<g opacity="0.22">
<path d="M750.28 387.832H604.064V394.032H750.28V387.832Z" fill="white"/>
</g>
<g opacity="0.22">
<path d="M750.28 409.255H604.064V415.455H750.28V409.255Z" fill="white"/>
</g>
<g opacity="0.22">
<path d="M750.28 430.677H604.064V436.877H750.28V430.677Z" fill="white"/>
</g>
<g opacity="0.22">
<path d="M750.28 452.099H604.064V458.299H750.28V452.099Z" fill="white"/>
</g>
<path d="M741.505 393.929C743.695 391.495 745.884 389.06 748.074 386.626C748.752 385.872 750.242 383.4 751.425 384.341C751.999 384.798 754.063 386.169 756.048 387.673C758.038 388.248 760.007 388.914 762.043 389.298C767.196 390.271 779.224 386.256 781.206 393.177C781.589 394.516 781.977 395.89 781.87 397.278C781.783 398.413 781.368 399.496 780.911 400.539C780.554 401.351 780.182 402.725 779.377 403.042C778.532 403.375 776.35 402.688 775.425 402.58C772.779 402.271 770.134 401.963 767.488 401.654C764.893 401.351 761.808 401.237 760.184 403.283C759.829 403.731 759.572 404.258 759.159 404.653C758.693 405.099 758.071 405.337 757.461 405.546C755.227 406.312 752.874 406.918 750.518 407.145C748.367 407.352 747.415 405.939 745.889 404.636C744.105 403.112 741.827 403.015 740.033 401.551C739.021 400.725 738.294 399.425 738.508 398.137C738.682 397.095 739.419 396.249 740.125 395.463C740.584 394.952 741.045 394.441 741.505 393.929Z" fill="#B97262"/>
<path d="M837.174 402.94C832.22 406.082 826.779 407.937 820.144 408.87C803.753 411.176 787.002 410.911 770.691 408.086C769.633 400.371 770.121 392.448 772.116 384.921C785.692 384.125 799.204 382.245 812.482 379.306C818.988 377.866 824.513 375.498 827.46 369.12C834.022 354.92 839.517 340.227 843.883 325.206C844.848 321.885 845.793 318.474 847.787 315.648C851.443 310.466 858.317 308.097 864.599 308.971C870.881 309.844 876.517 313.598 880.615 318.438C883.552 321.907 885.849 326.133 886.047 330.674C886.252 335.371 884.223 339.852 882.105 344.049C872.656 362.773 860.493 380.125 846.114 395.394C843.211 398.48 840.289 400.964 837.174 402.94Z" fill="#2F3789"/>
</svg>
