<svg width="231" height="144" viewBox="0 0 231 144" fill="none" xmlns="http://www.w3.org/2000/svg">
<path d="M62.7085 85.7249H209.387L225.998 19.5522L227.271 14.4776L228.358 10.1493L230.905 0H86.3413L83.5435 10.1493L82.3503 14.4776L80.9516 19.5522L62.7085 85.7249Z" fill="#EAEAEA"/>
<path d="M182.928 22.1914C183.78 22.913 185.503 24.2669 186.191 24.8421L184.448 46.6442L202.391 38.6235L205.654 41.2742C206.088 42.9924 206.319 44.7913 206.319 46.6442C206.319 58.7233 196.527 68.5154 184.448 68.5154C172.369 68.5154 162.577 58.7233 162.577 46.6442C162.577 34.5651 170.849 22.1914 182.928 22.1914Z" fill="#016EB9"/>
<path d="M189.939 20.356C199.387 21.1011 207.146 28.0149 209.402 36.9533L188.196 42.3233L184.934 39.5071L189.939 20.356Z" fill="#EF6343"/>
<path d="M181.185 22.1221C181.772 22.1221 182.353 22.1459 182.928 22.1912L181.185 43.9931L202.391 38.6231C202.825 40.3413 203.056 42.1402 203.056 43.9931C203.056 56.0722 193.264 65.8643 181.185 65.8643C169.106 65.8643 159.314 56.0722 159.314 43.9931C159.314 31.914 169.106 22.1221 181.185 22.1221Z" fill="#223651"/>
<path d="M186.677 17.7051C196.125 18.4502 203.883 25.1988 206.139 34.1371L184.934 39.5071L186.677 17.7051Z" fill="#FF7955"/>
<path d="M189.283 26.0546C189.357 26.0546 189.432 26.0264 189.488 25.9697C189.601 25.8567 189.601 25.6734 189.488 25.5603L176.43 12.502H92.4453C92.2853 12.502 92.1558 12.6315 92.1558 12.7915C92.1558 12.9515 92.2855 13.0811 92.4453 13.0811H176.19L189.079 25.9697C189.135 26.0264 189.209 26.0546 189.283 26.0546Z" fill="#131F2D"/>
<path d="M163.8 50.3837C163.874 50.3837 163.948 50.3555 164.004 50.2989C164.117 50.1858 164.117 50.0026 164.004 49.8893L149.947 35.8315H88.0435C87.8835 35.8315 87.7539 35.9611 87.7539 36.1211C87.7539 36.2811 87.8835 36.4107 88.0435 36.4107H149.707L163.595 50.2987C163.652 50.3555 163.726 50.3837 163.8 50.3837Z" fill="#131F2D"/>
<path d="M90.7075 10.3591H176.425L178.163 7.69482H92.445L90.7075 10.3591Z" fill="#B8C1C9"/>
<path d="M88.0435 34.0476H150.015L151.753 31.3833H89.7811L88.0435 34.0476Z" fill="#B8C1C9"/>
<path d="M106.912 82.5642H129.747L140.748 43.4409H117.913L106.912 82.5642Z" fill="#B8C1C9"/>
<path d="M78.2622 82.5642H101.097L112.098 43.4409H89.2632L78.2622 82.5642Z" fill="#B8C1C9"/>
<path d="M95.3673 46.876C95.3673 46.876 87.6022 55.5904 87.2292 58.9238C86.8563 62.2572 90.9263 67.4719 90.9263 67.4719L95.3673 46.876Z" fill="#016EB9"/>
<path d="M98.6948 138.568C98.6948 138.568 98.86 141.504 99.3382 142.768H109.047C108.883 142.348 108.502 141.808 107.617 141.638C106.096 141.345 103.551 140.168 102.63 137.953C101.661 135.624 98.6948 138.568 98.6948 138.568Z" fill="#131F2D"/>
<path d="M87.1094 138.568C87.1094 138.568 87.2744 141.504 87.7516 142.768H97.461C97.2981 142.348 96.9166 141.808 96.0303 141.638C94.5104 141.345 91.9645 140.168 91.0438 137.953C90.0747 135.624 87.1094 138.568 87.1094 138.568Z" fill="#131F2D"/>
<path d="M104.456 88.0601C104.456 88.0601 103.096 97.6488 98.0206 114.671C92.9455 131.692 92.2537 139.063 92.2537 139.063L86.8091 138.895C86.8091 138.895 86.7628 120.292 89.1016 111.733C91.4406 103.173 89.6064 80.8745 89.6064 80.8745L104.456 88.0601Z" fill="#364154"/>
<path d="M107.106 81.3999C107.106 81.3999 107.298 95.8496 105.029 113.591C102.761 131.333 103.53 138.864 103.53 138.864L98.0963 139.063C98.0963 139.063 94.8491 121.315 95.7801 112.435C96.711 103.555 91.3335 81.9631 91.3335 81.9631L107.106 81.3999Z" fill="#657285"/>
<path d="M96.5869 47.5852L99.4819 49.677L103.666 48.8177C103.608 48.4455 103.332 46.9029 103.08 45.5055C103.065 45.423 103.05 45.3407 103.036 45.2601C102.82 44.0713 102.634 43.0498 102.634 43.0498L98.7262 41.1498L97.2693 40.4414C97.2731 40.4664 97.3822 41.761 97.3974 41.9498C97.671 45.3057 96.5869 47.5852 96.5869 47.5852Z" fill="#FF7955"/>
<path d="M89.246 83.1839C90.0863 87.408 104.07 87.9089 107.675 84.0746C108.085 83.6376 108.105 81.6042 107.951 78.8626C107.648 73.5058 106.677 65.4483 106.639 61.3315C106.621 59.3434 106.373 57.3101 106.042 55.4637C105.34 51.5284 104.269 48.4404 104.269 48.4404C104.269 48.4404 97.4383 46.007 96.1604 46.4209C90.0031 48.4145 88.4057 78.9596 89.246 83.1839Z" fill="#223651"/>
<path d="M107.95 78.8623C107.648 73.5056 106.837 65.4459 106.799 61.3291C106.781 59.341 106.372 57.31 106.042 55.4637L101.933 54.6646C101.933 54.6646 97.9163 72.7465 107.95 78.8623Z" fill="#016EB9"/>
<path d="M105.725 71.3957C105.725 71.3957 105.445 72.1335 106.033 72.6288C106.622 73.1241 107.003 73.9266 106.868 74.5131C106.734 75.0996 105.443 76.0562 104.996 75.9019C104.549 75.7477 103.639 74.9753 103.737 74.6659C103.835 74.3565 103.125 71.9512 104.215 71.0253C105.305 70.0994 105.725 71.3957 105.725 71.3957Z" fill="#FF7955"/>
<path d="M101.131 47.3564C101.131 47.3564 105.139 48.1828 108.331 53.3681C111.524 58.5534 113.625 62.4085 113.037 64.2773C112.449 66.1462 107.087 72.6278 106.163 72.6278C105.239 72.6278 103.747 71.887 103.663 70.2204C103.663 70.2204 107.438 63.986 106.694 63.0523C106.377 62.6532 101.794 58.5534 101.139 60.4053C100.057 63.4694 101.131 47.3564 101.131 47.3564Z" fill="#223651"/>
<path d="M97.6913 42.0092C98.5494 43.6111 101.747 44.9964 103.081 45.5057C103.066 45.4232 103.05 45.3408 103.036 45.2603C102.821 44.0714 102.635 43.05 102.635 43.05L98.7267 41.15C97.8631 41.137 97.3373 41.35 97.6913 42.0092Z" fill="#EF6343"/>
<path d="M104.108 42.7884C104.108 42.7884 97.8129 44.9523 96.6504 40.6117C95.4879 36.2711 93.8926 33.6271 97.8623 32.0621C101.832 30.497 103.06 31.8982 103.768 33.243C104.476 34.5877 105.715 42.1137 104.108 42.7884Z" fill="#FF7955"/>
<path d="M103.521 32.8247C103.521 32.8247 103.119 37.8757 102.171 37.6565C101.223 37.4372 100.364 37.2746 100.503 38.7972C100.641 40.3197 101.956 42.0779 99.0345 42.3472C96.1134 42.6165 91.9138 34.3144 92.7163 32.7425C95.032 28.2069 106.868 27.2918 103.521 32.8247Z" fill="#131F2D"/>
<path d="M102.594 46.5303C102.513 46.4926 97.5562 44.8806 97.0175 45.0766C96.479 45.2725 96.1602 46.4207 96.1602 46.4207L104.268 48.4408C104.268 48.4408 103.63 47.0108 102.594 46.5303Z" fill="#00A3FE"/>
<path d="M137.149 94.8306H141.265V71.8826H137.149V94.8306Z" fill="#FF7955"/>
<path d="M128.92 94.8306H133.036V71.8826H128.92V94.8306Z" fill="#A0462D"/>
<path d="M133.036 94.8257H137.151V70.4692H133.036V94.8257Z" fill="#016EB9"/>
<path d="M141.265 94.8208H145.38V73.3574H141.265V94.8208Z" fill="#016EB9"/>
<path d="M143.332 78.1184C144.171 78.1184 144.852 77.4378 144.852 76.5981V74.2642H141.812V76.5981C141.812 77.4377 142.492 78.1184 143.332 78.1184Z" fill="#A0462D"/>
<path d="M135.112 92.0318C135.94 92.0318 136.611 91.3608 136.611 90.533C136.611 89.7052 135.94 89.0342 135.112 89.0342C134.284 89.0342 133.613 89.7052 133.613 90.533C133.613 91.3608 134.284 92.0318 135.112 92.0318Z" fill="#A0462D"/>
<path d="M7.35412 115.121C7.35162 115.121 7.34912 115.121 7.34647 115.121C7.05956 115.117 6.83043 114.908 6.8344 114.654C7.12632 96.5465 0.124263 82.6243 0.0533807 82.4857C-0.0648546 82.254 -0.0425011 81.7368 0.712058 81.6709C1.37176 81.6134 1.78103 81.7569 1.89926 81.989C1.91735 82.024 3.4791 85.3372 5.21396 91.0959C6.81352 96.4056 8.02734 105.099 7.87322 114.667C7.8691 114.919 7.6375 115.121 7.35412 115.121Z" fill="#B05638"/>
<path d="M22.9694 115.121C22.9667 115.121 22.9642 115.121 22.9617 115.121C22.6747 115.117 22.4457 114.908 22.4498 114.654C22.7416 96.5465 15.7394 82.6243 15.6687 82.4857C15.5503 82.254 15.5729 81.7368 16.3272 81.6709C16.9872 81.6134 17.3962 81.7569 17.5147 81.989C17.5326 82.024 19.0944 85.3372 20.8293 91.0959C22.4288 96.4056 23.6426 105.099 23.4884 114.667C23.4845 114.919 23.2529 115.121 22.9694 115.121Z" fill="#B05638"/>
<path d="M2.73053 88.0461C2.482 88.0461 2.2623 87.8874 2.21891 87.6633C2.17068 87.4126 2.36053 87.1745 2.64347 87.1317C3.09332 87.0635 13.713 85.4782 18.4667 86.801C18.7404 86.877 18.8926 87.1355 18.8067 87.378C18.7208 87.6208 18.4292 87.7562 18.1555 87.6795C13.6408 86.4233 2.92627 88.0232 2.81848 88.0395C2.78892 88.0439 2.75965 88.0461 2.73053 88.0461Z" fill="#B05638"/>
<path d="M3.94411 91.0958C3.69572 91.0958 3.47601 90.9372 3.43278 90.7127C3.38454 90.4619 3.57454 90.224 3.85719 90.1811C4.30719 90.113 14.9268 88.5272 19.6803 89.8505C19.9541 89.9265 20.1063 90.185 20.0204 90.4278C19.9345 90.6703 19.6428 90.8059 19.3691 90.729C14.8525 89.4721 4.13984 91.0727 4.0322 91.089C4.00264 91.0934 3.97308 91.0958 3.94411 91.0958Z" fill="#B05638"/>
<path d="M6.73026 115.121H38.7317C38.7317 115.121 37.9864 112.03 19.4531 112.49C6.33776 112.816 6.73026 115.121 6.73026 115.121Z" fill="#B05638"/>
<path d="M4.12598 142.885C7.83642 126.37 6.88215 116.236 6.87744 116.108C6.86818 115.854 7.40126 115.623 7.68788 115.615C7.97817 115.61 9.25877 115.539 9.40701 115.757C9.60113 116.042 10.3483 128.529 4.81833 142.885H4.12598Z" fill="#B05638"/>
<path d="M31.2923 142.885C27.5818 126.37 28.5356 116.236 28.5406 116.108C28.5501 115.854 28.017 115.623 27.7302 115.615C27.4399 115.61 26.159 115.539 26.0109 115.757C25.8168 116.042 25.0698 128.529 30.5996 142.885H31.2923Z" fill="#B05638"/>
<path d="M39.9264 142.885C36.2161 126.37 37.1701 116.236 37.175 116.108C37.1844 115.854 36.6513 115.623 36.3644 115.615C36.0741 115.61 34.7935 115.539 34.6453 115.757C34.4511 116.042 33.7038 128.529 39.2338 142.885H39.9264Z" fill="#A0462D"/>
<path d="M13.5205 142.885C17.2309 126.37 16.2768 116.236 16.272 116.108C16.2627 115.854 16.7958 115.623 17.0824 115.615C17.3727 115.61 18.6535 115.539 18.8015 115.757C18.9958 116.042 19.743 128.529 14.213 142.885H13.5205Z" fill="#A0462D"/>
<path d="M38.913 116.108H6.58727C6.31595 116.108 6.09375 115.886 6.09375 115.614C6.09375 115.343 6.3158 115.121 6.58727 115.121H38.913C39.1843 115.121 39.4064 115.343 39.4064 115.614C39.4065 115.886 39.1843 116.108 38.913 116.108Z" fill="#B05638"/>
<path d="M48.1322 84.5347C48.1322 84.5347 50.0022 82.269 50.4046 82.0009C50.8069 81.7331 52.5731 81.2635 52.6741 81.3581C52.7752 81.4525 52.7796 81.5895 52.5609 81.7828C52.3419 81.976 51.5068 82.4634 51.6259 82.5182C51.745 82.5732 54.2649 81.3187 54.6281 81.7406C54.9915 82.1625 54.4224 83.9044 53.4513 84.7391C52.4805 85.574 49.5821 85.9301 49.3999 86.0468C47.8543 87.0353 48.1322 84.5347 48.1322 84.5347Z" fill="#EF6343"/>
<path d="M32.5361 141.193C32.537 141.572 32.7298 141.833 33.0578 142.008C33.0588 142.009 33.0609 142.01 33.0629 142.01C33.6692 142.333 34.7339 142.366 35.8923 142.317C36.0406 142.311 36.1738 142.307 36.2929 142.307C36.3242 142.307 36.3555 142.307 36.3858 142.308C36.4101 142.308 36.4342 142.309 36.4575 142.309C37.6038 142.336 37.4828 142.669 39.6613 142.849C42.1445 143.055 43.0598 142.319 43.2061 141.983C43.3292 141.699 42.2636 141.376 41.0731 141.008C41.0154 140.99 40.9581 140.972 40.8994 140.954C40.741 140.905 40.5816 140.854 40.4231 140.805C39.0054 140.348 37.61 139.807 37.2617 138.417C36.8925 136.943 38.0023 132.828 38.0023 132.828L34.067 132.417C34.067 132.417 33.6878 136.718 33.4406 138.058C33.3073 138.773 32.9723 139.342 32.7764 139.955C32.7625 139.998 32.7494 140.041 32.7372 140.084C32.636 140.444 32.5351 140.813 32.5361 141.193Z" fill="#FF7955"/>
<path d="M32.5361 141.193C32.537 141.572 32.7298 141.833 33.0578 142.008C33.0588 142.009 33.0609 142.01 33.0629 142.01C33.7086 142.299 34.756 142.341 35.8901 142.31C36.0385 142.306 36.1717 142.305 36.2928 142.307C36.3241 142.307 36.3554 142.307 36.3857 142.308C36.41 142.308 36.4341 142.309 36.4573 142.309C37.6037 142.336 37.4826 142.668 39.6612 142.849C42.1444 143.055 43.0597 142.319 43.206 141.983C43.3291 141.699 42.2635 141.376 41.0729 141.008C40.7388 141.133 39.1466 141.669 37.2626 141.323C35.6058 141.021 33.96 140.222 32.7763 139.955C32.7623 139.998 32.7492 140.041 32.737 140.084C32.636 140.444 32.5351 140.812 32.5361 141.193Z" fill="#A0462D"/>
<path d="M56.1423 134.136C56.3612 135.229 57.9188 135.047 59.6594 134.621C61.4 134.196 60.9862 134.701 63.4634 134.427C65.9404 134.153 66.691 133.229 66.7666 132.861C66.8341 132.534 65.6101 132.419 64.2973 132.268C64.1322 132.249 63.9665 132.229 63.8007 132.208C62.3182 132.023 61.2329 131.066 59.8865 130.28C58.6112 129.536 56.7081 126.505 56.7081 126.505L53.311 126.774C53.311 126.774 55.0935 129.481 55.7832 130.659C56.1887 131.351 56.1671 132.267 56.1166 132.974C56.09 133.358 56.0648 133.751 56.1423 134.136Z" fill="#FF7955"/>
<path d="M59.6589 134.622C61.3994 134.196 60.9856 134.702 63.4628 134.427C65.9399 134.153 66.6905 133.23 66.7661 132.861C66.8336 132.535 65.6096 132.419 64.2968 132.268L64.2844 132.293C64.2844 132.293 62.7988 133.347 60.7369 133.396C59.0565 133.437 57.2764 132.955 56.1158 132.974C56.0894 133.358 56.0643 133.751 56.1418 134.136C56.3606 135.229 57.9184 135.047 59.6589 134.622Z" fill="#A0462D"/>
<path d="M45.053 114.731L37.7315 134.434C37.7315 134.434 36.6067 134.543 35.5284 134.233C34.5362 133.947 33.399 133.196 33.399 133.196C33.399 133.196 34.5459 121.249 36.6877 114.368C37.2412 112.59 19.9633 112.582 20.8499 112.003C36.8521 101.563 45.053 114.731 45.053 114.731Z" fill="#364154"/>
<path d="M14.1655 104.443C14.1655 104.443 35.2032 97.3291 39.8948 98.8427C44.5867 100.356 58.6739 128.384 58.6739 128.384C58.6739 128.384 58.3563 128.806 57.4883 129.132C56.6811 129.435 54.7273 129.415 54.7273 129.415C54.7273 129.415 42.0139 118.518 40.5004 115.34C38.9869 112.161 38.3816 109.134 36.868 109.437C35.3545 109.74 17.3439 116.853 13.2575 112.615C9.17113 108.378 10.2398 102.871 10.2398 102.871L14.1655 104.443Z" fill="#657285"/>
<path d="M26.1589 54.2826C25.2494 53.7655 24.1597 53.7092 23.3975 53.7543C23.5937 53.5517 23.9797 53.4779 23.9797 53.4779C23.5071 53.4076 22.4521 53.8764 22.4521 53.8764C15.8773 51.3429 14.8439 61.0239 14.9821 63.273C15.1192 65.522 15.1358 68.1108 11.8536 70.1279C5.39577 74.0968 10.8446 81.0256 10.8446 81.0256C10.8953 81.0556 13.8493 86.0656 13.8493 86.0656C13.6833 84.248 22.0693 74.6567 26.4445 71.7842C27.5097 70.2164 27.8883 67.4462 27.9165 67.2283C27.7327 69.4245 27.357 70.6564 27.0211 71.3501C30.7261 67.9404 28.5692 55.6521 26.1589 54.2826Z" fill="#131F2D"/>
<path d="M26.186 71.9274C26.2079 71.9372 24.0735 73.0454 22.4681 72.6063C20.9578 72.1946 19.9711 70.2365 19.992 70.2321C20.6316 70.105 20.8158 69.2262 20.8025 65.4497L21.0914 65.5065L25.9528 66.4691C25.9528 66.4691 25.8422 67.9991 25.8388 69.4401C25.8356 70.6503 25.9089 71.7979 26.186 71.9274Z" fill="#FF7955"/>
<path d="M25.9526 66.4691C25.9526 66.4691 25.842 67.9991 25.8387 69.4402C23.1185 69.3636 21.6804 66.8821 21.0913 65.5063L25.9526 66.4691Z" fill="#EF6343"/>
<path d="M20.5892 64.9771C20.5892 64.9771 19.1637 62.7246 18.8215 60.7987C18.5773 59.4236 19.2776 54.3267 24.3995 55.0606C24.3995 55.0606 25.887 55.2071 27.2854 56.1517C28.3975 56.9027 30.0023 58.5242 28.2079 62.972L27.7418 64.4745L20.5892 64.9771Z" fill="#131F2D"/>
<path d="M26.8609 67.8338C26.8609 67.8338 20.4249 67.9399 20.4205 63.9308C20.416 59.9217 19.5822 57.2355 23.6915 56.9982C27.8006 56.7608 28.6008 58.2898 28.9277 59.6276C29.2546 60.9654 28.535 67.7029 26.8609 67.8338Z" fill="#FF7955"/>
<path d="M26.6229 56.9C26.6229 56.9 24.8606 61.6035 22.1563 62.2988C19.4519 62.9943 18.2788 62.2697 18.2788 62.2697C18.2788 62.2697 18.3494 59.3916 18.7798 56.515C18.7798 56.515 25.2937 54.6615 26.6229 56.9Z" fill="#131F2D"/>
<path d="M26.186 57.2815C26.186 57.2815 27.5019 58.3317 27.8228 59.3526C28.1437 60.3736 28.2879 62.4752 28.9004 62.4037C28.9004 62.4037 30.2282 59.2068 28.7362 57.3983C27.1541 55.4807 26.186 57.2815 26.186 57.2815Z" fill="#131F2D"/>
<path d="M11.8538 89.2424C11.2191 86.5805 13.3787 81.4152 15.6328 77.1389C17.6781 73.2631 19.8012 70.1189 19.9917 70.232C25.3862 73.4337 25.8735 70.7718 25.8735 70.7718C25.8735 70.7718 30.7735 71.4225 32.161 73.8111C34.0801 77.1137 36.1698 87.0246 38.2234 86.8781C39.1657 86.8105 48.6509 83.2456 48.6509 83.2456C48.6509 83.2456 50.231 84.7259 49.9284 86.5421C49.9284 86.5421 45.2453 89.6783 41.2848 91.6793C39.19 92.7377 37.297 93.4784 36.407 93.2684C34.6029 92.8437 31.7847 88.6612 30.2619 86.199C30.2585 86.1934 30.2553 86.1881 30.2518 86.1827C28.3082 97.184 30.9509 99.6895 29.6131 100.85C28.2004 102.074 26.1823 100.266 21.7425 102.19C18.8303 103.454 14.7891 105.28 12.0687 105.598C10.6419 105.766 9.57734 105.517 9.23013 104.554C8.22116 101.754 13.0647 94.317 11.8538 89.2424Z" fill="#223651"/>
<path d="M25.4302 65.4038C25.4302 65.4038 25.5502 65.913 26.8172 65.8343C26.8172 65.8343 27.8811 65.7686 27.8486 65.2091C27.8486 65.2091 26.8169 64.8107 25.4302 65.4038Z" fill="white"/>
<path d="M9.23013 104.554C9.57734 105.517 10.6419 105.766 12.0687 105.598C13.9516 104.778 22.0856 101.626 21.9947 99.4913C21.8594 96.3299 20.4307 96.2291 21.4397 92.3272C22.25 89.194 14.7342 83.3684 13.5356 82.1021C11.2813 86.3785 11.2189 86.5806 11.8538 89.2424C13.0647 94.3169 8.22116 101.754 9.23013 104.554Z" fill="#016EB9"/>
<path d="M30.2622 86.1991C31.7849 88.6613 34.6032 92.8438 36.4074 93.2685C37.2972 93.4784 39.1903 92.7378 41.2852 91.6794C39.7565 92.0738 38.2712 92.0628 36.8281 91.9234C35.2641 91.7722 34.8101 89.8548 32.3379 86.9791C30.7344 85.1144 30.3409 85.5835 30.2622 86.1991Z" fill="#016EB9"/>
<path d="M22.7263 92.2513C22.7263 92.2513 24.0887 91.1918 25.3752 91.4441C26.6617 91.6963 27.2925 92.5793 27.2419 92.9828C27.1915 93.3865 26.5105 94.5218 25.5266 94.6227C24.5428 94.7235 21.7427 94.0172 21.7427 94.0172L22.7263 92.2513Z" fill="#FF7955"/>
<path d="M19.9919 70.2319C19.9919 70.2319 14.7461 70.5552 12.9302 73.0878C10.3739 76.6531 5.9342 91.2087 7.14494 94.5386C7.14494 94.5386 12.1236 95.063 15.6811 95.063C17.5373 95.0628 23.1048 94.4713 23.1048 94.4713C23.1048 94.4713 23.4916 92.6635 22.9535 91.7888C22.4152 90.9144 13.6702 89.5018 13.2666 89.0981C12.863 88.6944 18.3119 81.2275 18.3119 80.0166C18.3119 78.8058 19.9919 70.2319 19.9919 70.2319Z" fill="#504B80"/>
<path d="M40.1333 94.6606H98.9966C99.7166 94.6606 100.306 95.2498 100.306 95.9696V98.2862C100.306 99.0062 99.7167 99.5952 98.9966 99.5952H70.8597V137.322C77.3948 137.581 82.8788 139.8 85.152 142.855L53.978 142.885C56.2345 139.819 61.7236 137.587 68.2704 137.323V99.5952H40.1333C39.4133 99.5952 38.8242 99.0062 38.8242 98.2862V95.9696C38.8242 95.2498 39.4133 94.6606 40.1333 94.6606Z" fill="#131F2D"/>
<path d="M217.753 115.121C217.755 115.121 217.758 115.121 217.76 115.121C218.047 115.117 218.276 114.908 218.272 114.654C217.98 96.5465 224.982 82.6243 225.053 82.4857C225.172 82.254 225.149 81.7368 224.395 81.6709C223.735 81.6134 223.326 81.7569 223.207 81.989C223.189 82.024 221.628 85.3372 219.893 91.0959C218.293 96.4056 217.079 105.099 217.233 114.667C217.237 114.919 217.469 115.121 217.753 115.121Z" fill="#B05638"/>
<path d="M202.138 115.121C202.14 115.121 202.143 115.121 202.145 115.121C202.432 115.117 202.661 114.908 202.657 114.654C202.365 96.5465 209.368 82.6243 209.438 82.4857C209.557 82.254 209.534 81.7368 208.78 81.6709C208.12 81.6134 207.711 81.7569 207.592 81.989C207.574 82.024 206.013 85.3372 204.278 91.0959C202.678 96.4056 201.464 105.099 201.619 114.667C201.623 114.919 201.854 115.121 202.138 115.121Z" fill="#B05638"/>
<path d="M222.376 88.0461C222.625 88.0461 222.845 87.8874 222.888 87.6633C222.936 87.4126 222.746 87.1745 222.464 87.1317C222.014 87.0635 211.394 85.4782 206.64 86.801C206.367 86.877 206.214 87.1355 206.3 87.378C206.386 87.6208 206.678 87.7562 206.952 87.6795C211.466 86.4233 222.181 88.0232 222.289 88.0395C222.318 88.0439 222.347 88.0461 222.376 88.0461Z" fill="#B05638"/>
<path d="M221.163 91.0958C221.411 91.0958 221.631 90.9372 221.674 90.7127C221.722 90.4619 221.532 90.224 221.25 90.1811C220.8 90.113 210.18 88.5272 205.427 89.8505C205.153 89.9265 205.001 90.185 205.086 90.4278C205.172 90.6703 205.464 90.8059 205.738 90.729C210.254 89.4721 220.967 91.0727 221.075 91.089C221.104 91.0934 221.134 91.0958 221.163 91.0958Z" fill="#B05638"/>
<path d="M218.376 115.121H186.375C186.375 115.121 187.12 112.03 205.654 112.49C218.769 112.816 218.376 115.121 218.376 115.121Z" fill="#B05638"/>
<path d="M220.981 142.885C217.271 126.37 218.225 116.236 218.23 116.108C218.239 115.854 217.706 115.623 217.42 115.615C217.129 115.61 215.849 115.539 215.7 115.757C215.506 116.042 214.759 128.529 220.289 142.885H220.981Z" fill="#B05638"/>
<path d="M193.814 142.885C197.525 126.37 196.571 116.236 196.566 116.108C196.557 115.854 197.09 115.623 197.376 115.615C197.667 115.61 198.948 115.539 199.096 115.757C199.29 116.042 200.037 128.529 194.507 142.885H193.814Z" fill="#B05638"/>
<path d="M185.181 142.885C188.891 126.37 187.937 116.236 187.932 116.108C187.923 115.854 188.456 115.623 188.743 115.615C189.033 115.61 190.313 115.539 190.462 115.757C190.656 116.042 191.403 128.529 185.873 142.885H185.181Z" fill="#A0462D"/>
<path d="M211.587 142.885C207.876 126.37 208.83 116.236 208.835 116.108C208.844 115.854 208.311 115.623 208.025 115.615C207.734 115.61 206.454 115.539 206.305 115.757C206.111 116.042 205.364 128.529 210.894 142.885H211.587Z" fill="#A0462D"/>
<path d="M186.194 116.108H218.52C218.791 116.108 219.013 115.886 219.013 115.614C219.013 115.343 218.791 115.121 218.52 115.121H186.194C185.923 115.121 185.701 115.343 185.701 115.614C185.701 115.886 185.923 116.108 186.194 116.108Z" fill="#B05638"/>
<path d="M82.6895 94.6606H191.62C192.34 94.6606 192.929 95.2498 192.929 95.9696V98.2862C192.929 99.0062 192.34 99.5952 191.62 99.5952H163.483V137.322C170.018 137.581 175.502 139.8 177.775 142.855L146.601 142.885C148.858 139.819 154.347 137.587 160.894 137.323V99.5952H82.6895C81.9695 99.5952 81.3804 99.0062 81.3804 98.2862V95.9696C81.3804 95.2498 81.9695 94.6606 82.6895 94.6606Z" fill="#131F2D"/>
<path d="M173.146 135.496C173.146 135.496 169.643 138.995 168.775 139.853C167.907 140.711 164.648 140.333 163.752 142.862H172.632C172.632 142.862 174.831 141.257 178.252 141.335C178.252 141.335 178.904 138.917 178.252 137.981C177.601 137.045 177.361 135.496 177.361 135.496H173.146Z" fill="#016EB9"/>
<path d="M178.252 141.335L177.804 142.862H174.668V141.569C174.668 141.569 176.42 141.023 178.252 141.335Z" fill="#016EB9"/>
<path d="M178.542 109.64C178.542 109.64 178.705 126.235 177.361 135.496H173.146L170.172 118.01L178.542 109.64Z" fill="#364154"/>
<path d="M160.666 135.496H164.882C164.882 135.496 164.883 135.495 164.884 135.494C165.086 135.285 178.008 121.89 180.026 113.475C180.026 113.475 181.233 113.367 182.686 113.43C183.108 113.45 183.553 113.483 183.996 113.537C185.951 113.782 211.57 114.719 212.915 113.375C214.259 112.031 213.72 104.291 213.72 104.291L211.201 102.957L208.54 101.546C208.54 101.546 178.993 102.011 175.914 104.333C172.834 106.654 165.615 122.113 160.666 135.496Z" fill="#657285"/>
<path d="M160.666 135.496C160.666 135.496 157.164 139.006 156.295 139.867C155.427 140.727 152.168 140.348 151.272 142.885H160.152C160.152 142.885 162.351 141.275 165.773 141.353C165.773 141.353 166.425 138.927 165.773 137.988C165.121 137.049 164.882 135.496 164.882 135.496L160.666 135.496Z" fill="#223651"/>
<path d="M165.773 141.335L165.325 142.862H162.188V141.569C162.188 141.569 163.94 141.023 165.773 141.335Z" fill="#00A3FE"/>
<path d="M182.686 113.43C183.109 113.45 183.554 113.483 183.996 113.537C185.951 113.782 211.57 114.719 212.915 113.375C214.259 112.031 213.72 104.291 213.72 104.291L211.202 102.957L206.969 104.752C206.969 104.752 207.596 112.741 182.686 113.43Z" fill="#364154"/>
<path d="M182.362 91.6391C182.913 89.9918 184.433 89.9235 184.433 89.9235C184.433 89.9235 185.892 89.8169 186.942 90.1252C187.993 90.4334 189.739 89.8237 189.739 89.8237C189.739 89.8237 196.143 87.5977 197.64 86.6659C200.852 84.6669 206.66 71.7088 208.638 73.2884C208.638 73.2884 211.193 75.7003 209.79 79.8483C208.387 83.9965 202.839 89.7059 199.472 90.628C196.984 91.3091 190.484 91.6716 189.621 91.7175C188.548 91.8559 187.091 92.4766 186.702 92.5071C186.271 92.5407 185.31 91.9016 184.645 91.9958C182.221 92.3381 182.362 91.6391 182.362 91.6391Z" fill="#EF6343"/>
<path d="M207.491 73.4391C210.144 73.477 213.085 73.201 215.599 72.8685C215.136 72.0938 214.583 69.8626 214.427 66.7822V66.771L213.492 66.8213L209.069 67.0572C209.069 67.0572 209.074 67.1217 209.082 67.2342C209.124 67.8306 209.256 69.7834 209.234 70.8831C209.225 71.3059 209.005 72.2186 208.938 72.2628C208.455 72.6778 207.97 73.0628 207.491 73.4391Z" fill="#FF7955"/>
<path d="M215.351 54.7553C215.417 54.5009 216.227 51.7824 220.467 52.5706C220.467 52.5706 218.343 52.3587 217.784 53.1893C217.784 53.1893 219.442 52.3777 220.51 52.9934C221.577 53.6093 221.805 55.769 221.665 56.4315C221.526 57.0943 220.416 59.0844 219.647 59.1041C219.356 59.1118 219.043 59.0231 218.765 58.9099C218.892 59.2552 219.008 59.6312 219.107 60.0441C220.022 63.8631 217.543 66.848 216.204 66.1606C215.346 65.7199 214.743 67.2184 214.743 67.2184L207.475 58.0847C207.475 58.0847 212.22 52.0738 215.351 54.7553Z" fill="#131F2D"/>
<path d="M209.234 70.8827C211.916 70.5649 213.627 68.2103 214.428 66.7818C214.437 66.7647 214.447 66.7475 214.457 66.7305L213.493 66.8209L209.083 67.234C209.124 67.8302 209.256 69.7828 209.234 70.8827Z" fill="#EF6343"/>
<path d="M208.855 68.8249C208.855 68.8249 215.128 68.7667 215.032 64.8603C214.935 60.9545 215.68 58.3161 211.67 58.1883C207.661 58.0603 206.92 59.5699 206.635 60.8816C206.35 62.1933 207.221 68.7394 208.855 68.8249Z" fill="#FF7955"/>
<path d="M206.766 58.705C207.705 57.505 208.444 57.7439 208.863 58.0864C212.242 56.1138 216.539 57.2335 216.539 57.2335C217.031 60.0253 217.077 63.1879 217.077 63.1879C217.077 63.1879 215.952 63.9234 213.3 63.3138C212.489 63.1278 211.756 62.5742 211.128 61.8961C212.24 63.6561 213.724 64.9064 213.724 64.9064C210.54 63.5328 209.163 59.1879 209.025 58.7283C208.651 59.0819 207.916 59.8482 207.704 60.586C207.417 61.5888 207.33 63.64 206.731 63.5857C206.731 63.5857 205.358 60.5042 206.766 58.705Z" fill="#131F2D"/>
<path d="M202.676 80.6807C202.676 80.6807 198.643 85.8929 197.727 85.9743C196.81 86.0561 197.238 89.5251 197.727 90.4179C198.215 91.3104 201.354 93.2215 203.359 91.1663C205.364 89.111 202.676 80.6807 202.676 80.6807Z" fill="#016EB9"/>
<path d="M197.727 102.308C200.72 102.736 205.946 103.102 206.968 104.752C207.991 106.401 214.498 105.241 215.032 104.202C215.567 103.163 213.918 94.7207 214.773 93.29C215.416 92.2159 217.638 86.2991 218.79 82.8947C219.171 81.7694 219.434 80.9176 219.485 80.6072C219.688 79.3595 220.457 74.8775 217.37 73.5626C217.37 73.5626 215.873 72.92 215.75 72.3909C215.721 72.2662 215.718 72.0707 215.715 71.8507V71.8494C215.709 71.1347 215.728 70.1559 215.032 70.4357C214.122 70.8022 213.159 71.6978 211.603 71.6162C210.048 71.5354 208.703 70.8425 208.5 71.291C208.297 71.7382 208.862 72.3371 208.5 72.6315C208.139 72.9259 203.592 75.6828 202.187 79.7091C202.187 79.7091 201.046 82.6148 201.046 85.0478C201.046 85.2359 201.048 85.4266 201.053 85.6197C201.085 87.0726 201.217 88.6171 201.071 89.9529C201.064 90.0248 201.055 90.0957 201.045 90.1666C200.818 91.8615 200.57 93.4647 200.316 94.7038C200.065 95.9271 199.809 96.7945 199.56 97.045C198.338 98.2754 194.733 101.88 197.727 102.308Z" fill="#223651"/>
<path d="M181.688 91.7382C181.768 91.4932 181.984 91.1272 182.188 90.7607C182.391 90.3941 183.939 88.8054 184.55 88.6426C185.161 88.4797 188.153 89.315 188.153 89.315C188.153 89.315 199.921 89.47 201.798 88.3167C204.242 86.8145 210.178 80.5953 214.309 77.4222C216.278 75.9092 217.837 75.0884 218.413 75.799C218.413 75.799 219.986 77.3082 218.006 81.0376C217.897 81.2463 217.775 81.462 217.641 81.6848C215.114 85.8879 205.406 93.986 201.505 94.2522C197.605 94.5185 187.712 91.2053 187.712 91.2053C187.712 91.2053 186.682 90.9239 186.153 91.3313C185.623 91.7387 183.578 91.6629 183.287 91.9419C182.743 92.4638 181.556 92.1456 181.688 91.7382Z" fill="#FF7955"/>
<path d="M206.969 104.752C207.992 106.402 214.498 105.241 215.032 104.202C215.568 103.163 213.918 94.7208 214.773 93.2901C215.416 92.216 217.639 86.2992 218.79 82.8948C218.6 82.5111 218.327 82.3352 217.95 82.439C215.318 83.1624 202.846 92.7451 200.316 94.7039C200.066 95.9271 199.809 96.7946 199.56 97.0451C199.56 97.0451 207.351 100.17 206.969 104.752Z" fill="#016EB9"/>
<path d="M201.071 89.9532C204.897 88.3267 214.392 79.1211 214.529 78.9892C214.42 79.0274 211.357 77.6605 203.939 84.4133C203.08 85.1951 201.869 86.777 201.59 87.4627C201.255 88.2882 201.141 89.3145 201.071 89.9532Z" fill="#016EB9"/>
<path d="M217.584 75.5401C217.584 75.5401 215.71 75.8122 213.877 77.2378C212.044 78.6634 202.888 87.6069 201.357 87.9822C199.825 88.3573 196.527 88.1806 196.567 89.1448C196.607 90.109 197.34 94.8338 198.318 95.6893C199.295 96.5447 204.468 96.9519 206.708 95.5263C208.948 94.1007 220.068 80.6998 219.376 77.8079C218.683 74.916 217.584 75.5401 217.584 75.5401Z" fill="#223651"/>
<path d="M213.276 73.563C214.254 73.3198 217.37 73.563 217.37 73.563C217.37 73.563 215.873 72.9203 215.751 72.3912C215.721 72.2665 215.718 72.0711 215.715 71.8511C215.558 72.4937 215.078 72.7981 213.795 72.8592C212.513 72.9202 212.299 73.8061 213.276 73.563Z" fill="#016EB9"/>
<path d="M172.068 83.0783C172.266 83.0059 172.488 83.1094 172.56 83.3083L176.41 93.8915H187.658C187.87 93.8915 188.043 94.0644 188.043 94.2761C188.043 94.4875 187.87 94.6606 187.658 94.6606H176.127C176.125 94.6606 176.124 94.6599 176.122 94.6599C176.122 94.6599 176.121 94.6599 176.121 94.6599C175.926 94.6565 175.768 94.5075 175.747 94.3184L171.837 83.5711C171.765 83.3724 171.869 83.1506 172.068 83.0783Z" fill="#A0462D"/>
<path d="M60.1018 83.0783C59.9029 83.0059 59.681 83.1094 59.6088 83.3083L55.7594 93.8915H44.5112C44.2995 93.8915 44.1265 94.0644 44.1265 94.2761C44.1265 94.4875 44.2995 94.6606 44.5112 94.6606H56.0422C56.0441 94.6606 56.0457 94.6599 56.0475 94.6599C56.0475 94.6599 56.0484 94.6599 56.0487 94.6599C56.2428 94.6565 56.401 94.5075 56.4225 94.3184L60.3317 83.5711C60.404 83.3724 60.3006 83.1506 60.1018 83.0783Z" fill="#A53934"/>
<path d="M96.0435 86.4426V82.3271H77.1686V86.4426H96.0435Z" fill="#A0462D"/>
<path d="M102.659 94.6731V90.5576H81.1958V94.6731H102.659Z" fill="#FF7955"/>
<path d="M99.3516 90.5583V86.4429H74.9951V90.5583H99.3516Z" fill="#016EB9"/>
<path d="M65.5005 92.3092L68.8908 94.6607L80.822 76.8813L77.4317 74.5298L65.5005 92.3092Z" fill="#FF7955"/>
<path d="M79.4551 85.9661V82.7305H78.7127V85.9661H79.4551Z" fill="white"/>
<path d="M83.2051 86.0027V82.7671H82.4627V86.0027H83.2051Z" fill="white"/>
<path d="M6.74336 143.682H225.739C225.919 143.682 226.066 143.453 226.066 143.173C226.066 142.893 225.919 142.664 225.739 142.664H6.74336C6.56336 142.664 6.41602 142.893 6.41602 143.173C6.41616 143.453 6.56351 143.682 6.74336 143.682Z" fill="#283250"/>
</svg>
