<svg width="400" height="400" viewBox="0 0 400 400" fill="none" xmlns="http://www.w3.org/2000/svg">
<path d="M319.061 293.684C324.011 291.428 327.589 288.646 327.053 287.471C326.517 286.295 322.07 287.172 317.121 289.428C312.171 291.685 308.593 294.467 309.128 295.642C309.664 296.817 314.111 295.941 319.061 293.684Z" fill="#27254C"/>
<path d="M287.034 196.597C289.929 196.981 292.936 197.817 294.952 199.931C297.755 202.869 297.894 207.359 298.06 211.416C298.294 217.13 298.948 222.969 301.473 228.1C306.472 238.256 318.068 244.284 330.706 242.626C329.429 245.024 327.187 246.742 324.942 248.272C320.439 251.341 315.638 253.974 310.629 256.122C309.397 254.528 308.324 252.811 307.432 251.004C307.783 253.41 308.36 255.784 309.153 258.083C304.238 258.949 299.214 259.191 294.239 258.803C285.442 258.117 281.753 255.492 278.022 248.74C272.186 238.179 270.188 225.55 272.479 213.704" fill="#27254C"/>
<path d="M286.105 333.373V351.886C286.105 353.476 270.302 354.765 250.806 354.765C231.305 354.765 215.502 353.476 215.502 351.886V333.373H286.105Z" fill="#F9837F"/>
<path d="M250.804 336.253C270.302 336.253 286.107 334.964 286.107 333.373C286.107 331.783 270.302 330.493 250.804 330.493C231.307 330.493 215.501 331.783 215.501 333.373C215.501 334.964 231.307 336.253 250.804 336.253Z" fill="#F2B9AD"/>
<path d="M250.804 334.848C260.787 334.848 268.88 334.188 268.88 333.373C268.88 332.559 260.787 331.899 250.804 331.899C240.821 331.899 232.728 332.559 232.728 333.373C232.728 334.188 240.821 334.848 250.804 334.848Z" fill="#F9837F"/>
<path d="M114.861 48.3783C114.099 47.9702 113.312 47.5479 112.486 47.2848C110.947 46.796 109.208 46.8695 107.716 47.4875C107.56 47.5523 107.381 47.4783 107.316 47.3221C107.252 47.1659 107.326 46.9871 107.482 46.9226C109.105 46.2498 110.997 46.1701 112.671 46.702C113.552 46.9824 114.364 47.418 115.15 47.8396C115.299 47.9194 115.355 48.1048 115.275 48.2535C115.195 48.4026 115.009 48.4582 114.861 48.3783Z" fill="#27254C"/>
<path d="M124.247 163.921C122.148 135.771 120.855 139.568 118.562 117.054C118.255 114.079 118.341 110.915 119.954 108.302C123.442 102.686 131.792 102.419 137.303 105.911C140.034 107.641 142.795 110.834 143.594 114.032C144.114 116.111 143.893 118.662 144.07 120.807C145.096 133.255 146.952 145.659 147.862 158.124C147.94 159.199 148.39 160.918 148.111 161.952C147.224 165.233 140.789 164.307 138.447 164.347C137.229 164.369 124.283 164.409 124.247 163.921Z" fill="#8686E1"/>
<path d="M124.161 162.694C123.676 155.972 123.059 149.678 122.167 143.044L122.241 143.234C123.774 138.678 125.602 134.219 127.705 129.896C127.271 130.788 127.513 132.374 127.358 133.364C127.108 134.962 126.19 138.684 126.373 144.756C126.423 146.415 126.565 148.111 127.249 149.623C128.369 152.101 131.7 155.461 136.104 156.991C138.172 157.71 140.348 158.016 142.488 158.434C143.2 158.573 145.723 158.76 145.941 159.557C146.353 161.068 142.745 161.754 141.892 162.014C136.066 163.79 129.834 165.03 124.161 162.694Z" fill="#5E41D3"/>
<path d="M99.5464 99.8844C105.384 108.58 117.875 111.244 127.182 103.413C127.188 103.411 127.191 103.407 127.198 103.405C127.585 103.079 128.573 102.486 128.606 101.931C128.652 101.164 127.398 100.617 126.884 100.185C126.762 100.083 126.64 99.9799 126.516 99.8706C124.834 98.357 124.39 96.1978 124.29 94.0384C124.172 91.4899 124.469 88.9462 124.994 86.434C125.254 85.1909 125.317 84.8101 123.558 83.2555C122.488 82.3004 121.269 81.7512 120.032 81.0512C117.493 80.0349 114.694 80.5985 112.26 79.4453C111.978 86.5924 110.404 94.1884 104.279 97.762C102.83 98.6225 101.142 99.3171 99.5464 99.8844Z" fill="#FFC2A5"/>
<path d="M112.26 79.4453C112.133 82.6381 111.713 86.4596 110.63 89.4539C111.721 89.8806 112.901 90.132 114.059 90.2706C117.905 90.7275 121.7 90.6888 125.24 89.263C125.787 87.7043 126.277 86.6559 126.246 86.4137C125.321 84.9656 124.008 83.5997 123.285 83.0225C118.836 79.2639 115.663 81.058 112.26 79.4453Z" fill="#E0916E"/>
<path d="M134.359 81.8644C133.085 84.08 131.321 86.0932 129.072 87.366C126.416 88.8699 123.171 89.2346 120.365 88.3436C116.481 87.1171 113.729 83.6462 112.614 79.7992C111.499 75.9407 111.834 71.7523 112.708 67.7434C113.213 65.36 113.917 62.988 115.094 60.8128C119.285 53.0869 127.4 52.1858 132.343 55.9766C135.907 58.6894 137.562 63.6012 137.746 68.0963C137.752 68.102 137.746 68.1079 137.751 68.1194C137.934 73.0345 136.581 78.0134 134.359 81.8644Z" fill="#FFC2A5"/>
<path d="M136.67 71.9801C134.76 71.2077 132.803 70.524 130.822 69.9165C130.391 69.787 130.197 69.2916 130.421 68.8966C130.946 67.9711 131.594 67.0985 132.762 67.0868C133.564 67.0667 134.285 67.4029 136.706 68.5135C136.771 69.3978 136.771 70.8229 136.67 71.9801Z" fill="#12181C"/>
<path d="M123.799 68.1657C119.06 66.1689 114.129 64.6338 109.118 63.5917C109.357 63.0622 109.606 62.5398 109.881 62.027C113.698 61.3628 118.664 62.8325 122.065 63.8237C122.764 64.0294 123.488 64.2447 124.043 64.7101C124.978 65.4924 124.94 66.5905 124.777 67.6413C124.708 68.0956 124.234 68.3529 123.799 68.1657Z" fill="#12181C"/>
<path d="M123.078 79.8843C122.694 79.7703 122.868 79.1893 123.25 79.3056C124.985 79.8219 127.181 80.0955 127.787 78.4639C128.365 76.9053 126.417 76.0244 124.958 76.1479C124.766 76.1667 124.603 75.9945 124.635 75.7982C125.046 73.2773 125.618 70.7422 126.333 68.2631C126.379 68.1037 126.544 68.0105 126.707 68.0568C126.868 68.1031 126.96 68.2707 126.914 68.431C126.239 70.7685 125.693 73.1562 125.291 75.5343C127.22 75.5709 129.039 76.8282 128.353 78.6741C127.6 80.702 125.16 80.5044 123.078 79.8843Z" fill="#E0916E"/>
<path d="M105.3 61.2947C105.14 57.2704 105.795 53.0207 108.83 50.3991C109.558 49.7696 110.427 49.1488 111.321 48.7881C111.598 48.6763 114.323 47.9448 114.408 48.3635C114.074 46.7101 113.443 45.1173 112.552 43.6846C114.692 43.7661 116.923 45.5187 118.352 47.0023C119.048 45.8663 119.568 44.9084 120.888 44.3754C122.127 43.8746 123.597 43.9839 124.749 44.6625C125.774 45.2663 126.564 46.5529 126.072 47.6364C129.218 46.6603 132.666 46.258 135.782 47.3255C139.526 48.6083 141.159 51.3727 141.036 53.3965C140.955 54.7126 139.882 56.008 138.563 55.9887C139.93 57.2532 140.739 59.0516 140.994 60.8959C141.745 66.3143 138.753 68.7418 137.608 72.434C137.48 70.5745 137.044 68.7368 136.326 67.0167C135.27 64.4873 134.672 63.2004 132.083 62.4204C129.359 61.6001 127.311 62.1177 124.422 59.3119C124.089 58.9893 122.716 57.7622 122.777 57.2703C122.571 58.9363 122.803 60.6544 123.443 62.2062C121.069 61.6109 119.175 59.4414 118.905 57.0086C118.519 58.0062 118.233 59.0969 117.736 60.0363C117.337 60.791 116.712 61.2765 116.262 61.9624C115.596 62.9789 113.801 66.8943 112.788 70.9114C112.881 70.5434 111.902 70.3179 111.695 70.3167C111.316 70.3144 110.718 70.5081 110.411 70.7495C109.695 71.3121 109.316 72.7412 109.714 73.564C110.102 74.3659 111.064 74.6761 111.926 74.8994C111.999 74.9183 112.016 76.3621 112.039 76.5042C112.193 77.4306 112.269 78.348 112.537 79.256C112.774 80.0578 112.601 81.0283 112.508 81.8511C112.463 82.2498 112.432 82.7139 112.34 83.1367C112.325 83.2085 112.221 83.4386 112.244 83.5C111.659 81.929 110.911 80.4433 110.265 78.9016C109.733 77.6341 108.899 76.4794 108.28 75.2338C106.927 72.5104 105.992 69.5765 105.559 66.5653C105.305 64.7997 105.371 63.0616 105.3 61.2947Z" fill="#27254C"/>
<path d="M122.208 71.9496C122.426 71.0912 122.198 70.2933 121.701 70.1673C121.203 70.0414 120.624 70.6351 120.407 71.4936C120.189 72.352 120.417 73.15 120.914 73.2759C121.412 73.4018 121.991 72.8081 122.208 71.9496Z" fill="#261518"/>
<path d="M131.968 74.5297C132.185 73.6713 131.958 72.8733 131.46 72.7474C130.963 72.6214 130.383 73.2152 130.166 74.0736C129.949 74.932 130.176 75.73 130.673 75.856C131.171 75.9819 131.75 75.3881 131.968 74.5297Z" fill="#261518"/>
<path d="M120.391 83.8527C120.773 85.0152 121.698 85.6693 122.557 85.7017C123.157 85.721 123.817 85.4248 124.202 85.0891C124.705 84.7398 125.756 83.6455 126.119 82.7865C126.338 82.2741 125.888 82.5206 125.333 82.6099C123.374 82.9327 121.587 82.2144 120.387 80.8325C120.21 81.1897 120.114 83.0939 120.391 83.8527Z" fill="#18142E"/>
<path d="M120.717 82.4263C121.559 83.0239 122.939 83.7091 123.89 83.7826C124.042 83.7943 124.239 83.9023 124.357 83.8039C124.533 83.6567 124.645 83.4506 124.806 83.298C124.915 83.1951 124.996 83.0714 125.085 82.9497C125.125 82.8948 125.273 82.6198 125.333 82.6099C123.731 82.8738 122.22 82.4433 121.062 81.4868C120.922 81.7125 120.789 81.9411 120.659 82.1723C120.59 82.2888 120.606 82.3473 120.717 82.4263Z" fill="white"/>
<path d="M120.391 83.8528C120.951 85.5556 122.637 86.3275 124.202 85.0892C124.215 85.0804 124.226 85.069 124.238 85.0602C123.781 84.209 121.887 83.263 120.773 83.6612C120.636 83.7098 120.51 83.7738 120.391 83.8528Z" fill="#FF774C"/>
<path d="M135.794 105.009L135.788 105.015C135.036 112.513 132.731 120.644 128.496 126.952C121.854 136.706 119.065 155.277 117.353 166.913C116.783 170.728 116.212 174.536 115.648 178.351C115.544 178.829 109.939 179.05 109.289 179.117C106.946 179.369 104.585 179.995 102.267 180.436C64.1065 187.757 65.3279 188.339 65.3843 188.58C60.7106 166.83 60.0327 157.743 70.8486 128.718C71.4864 127.02 72.112 125.296 72.4677 123.518C72.7805 121.881 74.1419 120.372 74.8472 118.863C76.3549 115.645 74.9422 117.933 81.6055 107.555C82.1881 106.641 82.74 105.69 83.3472 104.795C84.3056 103.358 84.7753 103.114 86.1315 101.839C100.15 88.5996 99.2129 89.3936 99.5315 89.3525C99.6909 89.3279 98.4215 87.9727 98.5686 88.028C99.7952 88.5554 100.973 89.1072 102.169 89.7205C103.334 90.3092 104.548 90.6099 105.732 91.1127C106.836 91.5726 107.872 92.235 109.013 92.6704C108.706 93.3756 108.767 94.2036 109.025 94.9274C109.276 95.6508 109.718 96.301 110.172 96.9205C111.57 98.8277 113.336 99.7599 115.648 100.177C118.837 100.741 123.235 100.079 125.105 97.1289C128.545 99.9131 132.109 102.55 135.794 105.009Z" fill="#8686E1"/>
<path d="M99.0094 96.1045C99.3152 103.34 95.6063 110.102 91.5907 116.129C89.1963 119.722 86.4159 123.064 83.9255 126.628C76.1744 137.721 75.6029 140.359 73.4285 140.923C72.1704 141.249 70.8497 140.548 69.9553 139.605C66.8519 136.332 66.4948 132.479 68.7807 128.634C72.0376 123.186 76.4753 118.45 81.7011 114.852" fill="#5E41D3"/>
<path d="M118.979 156.598C118.436 159.697 118.005 162.531 117.544 165.65C109.258 169.802 100.01 171.942 90.7866 173.076C83.9731 173.917 77.0247 174.229 70.2664 173.027C67.5864 172.549 64.9309 171.825 62.4042 170.807C61.7682 163.371 62.2004 155.914 65.8202 143.56L70.5792 144.449C77.3068 149.919 86.003 152.293 94.5398 153.801C102.617 155.224 110.792 156.003 118.979 156.598Z" fill="#5E41D3"/>
<path d="M74.5821 153.67C79.0919 151.45 82.0475 148.228 81.1835 146.473C80.3196 144.718 75.9633 145.095 71.4534 147.315C66.9436 149.536 63.988 152.758 64.8519 154.513C65.7159 156.268 70.0722 155.891 74.5821 153.67Z" fill="#27254C"/>
<path d="M66.5819 154.185L61.3784 146.104C61.3784 146.104 73.0899 142.169 73.4845 142.467C73.8791 142.765 80.7617 149.144 80.7617 149.144" fill="#F6B395"/>
<path d="M58.3093 145.746C58.8593 146.496 64.2433 154.631 64.7876 154.358L64.7946 154.356C64.1541 152.573 67.0684 149.467 71.4502 147.305C75.6617 145.239 79.7337 144.772 80.9582 146.144L80.9653 146.143C78.0055 141.979 74.5094 137.854 72.7205 133.086C80.1155 125.659 93.8773 110.746 98.916 101.556C100.962 97.8323 103.36 92.725 99.8008 89.0281C97.575 86.7202 93.4037 86.12 90.4733 87.0148C86.0005 88.3771 82.3741 92.4498 79.3412 95.8254C72.4261 103.512 67.2715 112.592 60.8316 120.618C58.735 123.232 56.5524 125.478 55.1682 128.57C54.6122 129.826 54.0422 131.086 53.7309 132.422C52.4878 137.774 55.3604 141.684 58.3093 145.746Z" fill="#8686E1"/>
<path d="M64.733 154.69C63.8515 154.69 59.0064 147.211 58.063 145.927C57.9632 145.791 57.9928 145.599 58.129 145.499C58.2643 145.399 58.4563 145.428 58.5563 145.565C58.946 146.096 62.9423 152.088 64.406 153.699C64.6587 149.605 75.2509 143.958 79.9303 145.23C77.163 141.437 74.0815 137.583 72.4344 133.193C72.3923 133.081 72.4198 132.955 72.504 132.87C79.8719 125.471 93.6352 110.551 98.648 101.409C101.035 97.065 102.801 92.5844 99.5806 89.2403C99.4635 89.1188 99.4671 88.9252 99.5889 88.8079C99.7102 88.6914 99.9043 88.6944 100.021 88.8162C103.997 92.9453 100.746 98.8604 99.184 101.703C94.1576 110.872 80.43 125.767 73.0767 133.162C74.8672 137.802 78.3129 141.883 81.215 145.966C81.3395 146.141 81.2487 146.387 81.0397 146.439C80.9304 146.467 80.8056 146.433 80.7303 146.348C79.7378 145.235 76.0452 145.392 71.5852 147.58C67.417 149.637 64.4995 152.63 65.0827 154.253C65.143 154.421 65.0475 154.606 64.8719 154.652C64.8297 154.674 64.7855 154.69 64.733 154.69Z" fill="#5E41D3"/>
<path d="M72.6465 133.406C72.2439 133.015 69.4722 131.089 67.6084 130.194C64.8679 128.878 62.894 129.018 62.9552 129.026C62.7873 129.026 62.6506 128.891 62.6494 128.723C62.6482 128.554 62.7841 128.416 62.9528 128.415C64.5022 128.38 66.1509 128.816 67.8729 129.643C69.8325 130.583 72.6252 132.533 73.0723 132.967C73.1935 133.084 73.1965 133.278 73.0789 133.399C72.9613 133.52 72.7678 133.523 72.6465 133.406Z" fill="#5E41D3"/>
<path d="M115.823 100.307C114.74 99.9928 113.492 99.6533 112.558 99.0409C110.285 97.5498 108.408 95.217 108.396 92.5037C108.395 92.335 108.532 92.1973 108.701 92.1968C108.701 92.1968 108.701 92.1968 108.702 92.1968C108.87 92.1968 109.007 92.3329 109.008 92.5013C109.018 94.9898 110.783 97.1452 112.894 98.5297C113.756 99.095 114.982 99.4261 115.995 99.7202C116.627 99.9057 117.357 100.1 118.076 100.09C119.613 100.064 122.574 99.1234 124.893 97.0623C125.019 96.9501 125.212 96.9611 125.325 97.088C125.437 97.2143 125.426 97.4075 125.3 97.5197C123.602 99.0277 121.53 100.073 119.309 100.543C118.197 100.778 117.475 100.792 115.823 100.307Z" fill="#5E41D3"/>
<path d="M122.525 56.764C121.925 55.4358 121.578 54.0246 121.493 52.5698C121.47 52.1646 122.081 52.1317 122.104 52.5339C122.184 53.9138 122.513 55.2525 123.082 56.5126C123.152 56.6663 123.083 56.8476 122.929 56.9169C122.779 56.9854 122.596 56.9206 122.525 56.764Z" fill="#18142E"/>
<path d="M132.344 54.0506C132.191 53.9783 132.126 53.7962 132.198 53.6436C132.271 53.4913 132.452 53.4253 132.605 53.4976C134.343 54.3188 136.509 55.3418 138.636 55.1044C139.046 55.0663 139.1 55.6687 138.704 55.7123C136.474 55.9572 134.34 54.9934 132.344 54.0506Z" fill="#18142E"/>
<path d="M118.243 47.3419C118.237 47.3419 118.232 47.3415 118.226 47.3412C118.057 47.3317 117.928 47.1871 117.938 47.0184C118.025 45.5003 118.964 44.1849 119.719 43.1279C119.817 42.9908 120.008 42.9588 120.145 43.0568C120.282 43.1547 120.314 43.3459 120.216 43.4832C119.507 44.4761 118.626 45.7117 118.548 47.0537C118.539 47.2161 118.404 47.3419 118.243 47.3419Z" fill="#27254C"/>
<path d="M125.402 47.3647C125.277 47.2512 125.268 47.058 125.381 46.9329C125.658 46.628 126.042 46.4954 126.433 46.3416C127.641 45.8436 128.593 44.7993 129.432 43.8778C129.546 43.7539 129.739 43.744 129.865 43.8578C129.989 43.9716 129.998 44.1651 129.885 44.2899C129.002 45.2586 128.001 46.3565 126.667 46.9072C125.983 47.1756 125.933 47.235 125.834 47.3437C125.721 47.4688 125.527 47.4784 125.402 47.3647Z" fill="#27254C"/>
<path d="M126.282 294.15C126.333 293.08 121.177 291.967 114.767 291.666C108.356 291.364 103.119 291.987 103.069 293.058C103.018 294.128 108.174 295.241 114.584 295.542C120.995 295.844 126.232 295.221 126.282 294.15Z" fill="#18142E"/>
<path d="M88.0934 300.826C88.1438 299.755 82.988 298.643 76.5778 298.342C70.1675 298.04 64.9301 298.663 64.8798 299.734C64.8294 300.804 69.9851 301.916 76.3954 302.218C82.8057 302.52 88.043 301.896 88.0934 300.826Z" fill="#18142E"/>
<path d="M66.9276 327.7C66.9395 328.099 67.1912 328.452 67.5631 328.601C68.1415 328.834 68.9315 329.201 69.0264 329.275C69.6442 329.748 70.1384 330.334 70.276 331.089C71.0179 335.33 74.5423 337.777 78.7219 338.74C80.9543 339.257 83.2443 339.559 85.5359 339.644C88.9961 339.772 91.0961 340.168 96.4631 339.363C97.6742 339.174 98.9451 339.239 100.073 338.675C100.939 338.246 101.617 337.444 101.59 336.448L101.714 333.375C101.714 333.375 100.228 332.923 98.6661 332.601C93.4757 327.594 89.3076 320.675 87.4232 313.067C87.2183 312.248 86.7151 311.535 85.9912 311.093C81.7924 308.495 76.9834 309.563 74.1101 312.651C73.6934 313.096 73.3168 313.585 72.8132 313.928C72.3095 314.272 71.6445 314.455 71.0879 314.202C70.8475 314.087 70.645 313.904 70.457 313.708C69.5579 312.748 69.3087 311.289 69.2215 309.978C67.7587 315.733 66.7255 321.765 66.9276 327.7Z" fill="#27254C"/>
<path d="M67.2358 290.588C67.7877 296.231 69.4084 316.773 70.1573 318.935C70.322 319.364 70.5555 319.756 70.9261 320.068C73.7475 322.517 81.0787 322.286 85.1663 317.307L85.4378 314.128C85.1975 311.053 84.8034 307.991 84.2553 304.952C84.116 304.165 83.7826 300.519 83.4961 298.639C83.3882 297.931 83.4375 297.151 82.863 296.661C81.861 295.805 80.3704 295.647 79.135 296.105C78.3128 296.41 77.3713 297.121 75.8468 296.719C75.183 296.545 74.6278 296.099 73.9097 296.374C72.7662 296.83 72.5078 298.477 70.1429 295.715C69.1542 294.574 68.3439 293.286 67.7476 291.912C67.5446 291.482 67.3806 291.035 67.2358 290.588Z" fill="#FFC2A5"/>
<path d="M67.3486 291.829C69.0641 310.951 69.1598 312.676 69.7219 316.418C69.729 316.485 69.7455 316.553 69.7522 316.62C74.1393 319.541 78.5132 319.177 81.156 317.222C83.2685 315.669 84.4109 312.746 83.5334 310.268L75.692 307.788C75.4165 308.916 74.0422 309.512 72.9242 309.199C71.8162 308.887 71.0138 307.877 70.6362 306.789C70.151 305.378 70.244 304.977 70.1074 293.012C69.1956 292.324 68.0138 291.903 67.3486 291.829Z" fill="#E0916E"/>
<path d="M67.0653 324.296C67.077 324.701 67.3261 325.049 67.6968 325.196C68.2799 325.426 69.0644 325.797 69.1645 325.876C69.7854 326.343 70.2785 326.936 70.4083 327.684C71.151 331.9 74.6375 334.359 78.8557 335.34C81.092 335.853 83.3841 336.153 85.675 336.245C89.1611 336.37 91.2804 336.768 96.5953 335.96C97.8064 335.773 99.0832 335.834 100.206 335.268C100.964 334.894 101.612 334.205 101.712 333.372C101.867 332.09 100.771 331.031 99.8098 330.155C95.256 326.036 91.9021 321.083 89.4994 315.512L89.4998 315.502C88.7104 313.609 88.0552 311.664 87.562 309.669C87.3504 308.842 86.8522 308.136 86.127 307.693C81.9476 305.085 77.1099 306.175 74.2437 309.246C73.8309 309.691 73.4539 310.184 72.9509 310.53C72.4484 310.867 71.7822 311.057 71.2282 310.799C70.436 310.425 68.7756 308.258 68.6624 306.558C67.1988 312.321 66.8617 318.363 67.0653 324.296Z" fill="#FF774C"/>
<path d="M79.6918 317.278C79.6554 317.113 79.7599 316.95 79.9247 316.914C81.9603 316.466 84.0479 316.167 86.1297 316.025C87.3143 315.944 88.6413 315.978 89.5001 316.848C89.6187 316.968 89.6175 317.161 89.4974 317.28C89.3771 317.399 89.1839 317.397 89.0647 317.278C88.3794 316.583 87.2172 316.562 86.1715 316.635C84.1197 316.775 82.062 317.07 80.056 317.511C79.8883 317.547 79.7276 317.441 79.6918 317.278Z" fill="white"/>
<path d="M78.5005 316.957C78.4736 317.625 78.9942 318.189 79.6623 318.216C80.3304 318.243 80.8946 317.722 80.9215 317.054C80.9483 316.386 80.4278 315.822 79.7597 315.795C79.0915 315.768 78.5274 316.289 78.5005 316.957Z" fill="white"/>
<path d="M82.3441 322.685C82.3079 322.52 82.4122 322.357 82.577 322.321C84.6143 321.873 86.7019 321.574 88.7823 321.431C89.9663 321.351 91.2933 321.385 92.1524 322.254C92.271 322.375 92.2698 322.568 92.1497 322.687C92.0294 322.806 91.8362 322.804 91.717 322.684C91.032 321.991 89.871 321.969 88.8242 322.042C86.7739 322.182 84.7162 322.477 82.7084 322.918C82.5406 322.954 82.3798 322.848 82.3441 322.685Z" fill="white"/>
<path d="M81.1533 322.363C81.1265 323.031 81.647 323.595 82.3152 323.622C82.9833 323.649 83.5474 323.129 83.5743 322.46C83.6012 321.792 83.0806 321.228 82.4125 321.201C81.7444 321.174 81.1802 321.695 81.1533 322.363Z" fill="white"/>
<path d="M91.1369 322.038C91.0854 323.317 92.7844 323.768 93.3859 322.703C93.0075 322.158 92.5117 321.371 92.2269 320.888C91.6324 320.939 91.1614 321.428 91.1369 322.038Z" fill="white"/>
<path d="M88.5611 316.631C88.5208 317.634 89.6621 318.235 90.476 317.658C90.1285 316.948 89.8093 316.23 89.4997 315.512L89.5001 315.503C88.9781 315.614 88.5837 316.068 88.5611 316.631Z" fill="white"/>
<path d="M145.371 330.859C145.774 329.103 146.092 327.096 144.842 325.661C143.858 324.531 142.228 324.292 140.749 324.047C138.65 323.697 137.415 322.555 135.683 321.504C130.453 318.331 126.576 313.046 125.291 307.184C124.832 305.089 124.416 302.557 122.145 301.977C121.399 301.786 120.605 301.896 119.892 302.189C117.613 303.127 116.412 305.388 114.415 306.641C112.484 307.851 109.9 307.936 107.894 306.854C105.889 305.771 105.023 303.159 104.975 300.881C102.62 306.389 100.672 312.953 100.501 318.968C100.48 319.71 101.034 320.349 101.769 320.448C111.229 321.726 112.788 324.606 116.331 327.153C123.265 332.14 132.194 332.046 140.47 331.872C141.965 331.84 143.877 330.89 145.371 330.859Z" fill="#27254C"/>
<path d="M120.726 309.493C120.17 310.048 119.558 310.48 118.891 310.778C114.145 312.934 108.306 312.102 104.469 307.516C104.493 307.227 105.744 291.853 105.752 291.703C105.984 291.681 106.151 291.119 106.341 290.927C107.113 290.144 108.271 290.173 109.326 290.227C111.421 290.335 113.521 290.457 115.585 290.83C117.339 291.147 119.136 291.661 120.944 291.446C121.188 291.417 122.316 291.006 122.469 291.166C122.669 291.378 122.215 292.708 122.184 293.019C122.155 293.32 120.719 309.576 120.726 309.493Z" fill="#FFC2A5"/>
<path d="M118.44 304.917C117.19 308.658 112.908 310.323 109.017 310.966C107.193 310.218 105.699 308.986 104.469 307.516L105.755 291.703C106.582 291.784 107.41 291.855 108.24 291.916L108.451 292.172C108.021 294.361 107.588 296.589 107.834 298.804C108.089 301.02 109.139 303.254 111.053 304.394C113.217 305.676 115.955 305.314 118.44 304.917Z" fill="#E0916E"/>
<path d="M145.669 327.806C146.071 326.049 146.389 324.043 145.139 322.608C144.155 321.478 142.525 321.239 141.046 320.993C138.947 320.644 137.712 319.501 135.98 318.451C130.75 315.278 126.874 309.993 125.588 304.131C125.129 302.036 124.714 299.504 122.442 298.923C121.696 298.733 120.902 298.843 120.19 299.136C117.911 300.074 116.709 302.335 114.712 303.587C112.781 304.798 110.197 304.883 108.192 303.8C106.186 302.718 105.32 300.106 105.272 297.828C102.917 303.335 100.969 309.9 100.798 315.915C100.777 316.657 101.331 317.295 102.066 317.395C111.526 318.673 113.085 321.553 116.628 324.1C123.562 329.086 132.491 328.992 140.768 328.818C142.262 328.787 144.174 327.837 145.669 327.806Z" fill="#FF774C"/>
<path d="M124.953 311.518C124.887 312.198 124.281 312.696 123.601 312.63C122.921 312.563 122.423 311.958 122.489 311.278C122.555 310.597 123.161 310.099 123.841 310.166C124.521 310.232 125.019 310.838 124.953 311.518Z" fill="white"/>
<path d="M129.931 317.726C129.865 318.406 129.259 318.904 128.579 318.838C127.899 318.772 127.401 318.166 127.467 317.486C127.533 316.806 128.139 316.308 128.819 316.374C129.499 316.44 129.997 317.046 129.931 317.726Z" fill="white"/>
<path d="M128.346 318.64C128.195 318.566 128.132 318.383 128.207 318.231C128.913 316.791 130.465 315.809 132.069 315.789C132.226 315.77 132.376 315.922 132.379 316.091C132.381 316.259 132.246 316.398 132.077 316.4C130.698 316.418 129.363 317.262 128.755 318.5C128.68 318.655 128.494 318.713 128.346 318.64Z" fill="white"/>
<path d="M124.258 312.35C124.096 312.304 124.001 312.135 124.047 311.972C124.487 310.405 126.069 309.411 127.694 309.732C127.86 309.765 127.967 309.926 127.935 310.092C127.902 310.258 127.74 310.364 127.575 310.333C126.278 310.076 124.993 310.862 124.635 312.138C124.589 312.301 124.42 312.395 124.258 312.35Z" fill="white"/>
<path d="M131.766 235.311C123.157 327.849 128.255 273.061 126.277 294.339C126.222 293.278 121.082 292.193 114.704 291.886C108.713 291.598 103.745 292.125 103.058 293.063C103.059 292.975 103.058 292.725 103.267 230.05C93.2622 203.756 107.653 241.521 93.0128 203.102C91.11 203.102 89.1948 263.041 89.0817 266.368C88.6179 279.926 88.236 292.927 88.0392 300.607C87.4504 299.607 82.5565 298.626 76.5771 298.338C70.4505 298.056 65.391 298.608 64.9126 299.595C64.889 299.267 59.6895 227.137 57.3939 195.486C56.1507 176.84 61.694 164.529 62.8766 159.21L116.918 168.262C117.402 169.23 130.072 216.922 130.306 217.833C131.821 223.537 132.317 229.448 131.766 235.311Z" fill="#27254C"/>
<path d="M89.0812 266.368C88.8175 274.076 88.5906 281.264 88.4189 287.06H64.0106L62.5142 266.368H89.0812Z" fill="#18142E"/>
<path d="M128.877 266.368L126.951 287.06H103.076L103.144 266.368H128.877Z" fill="#18142E"/>
<path d="M57.2305 191.342C57.2665 194.851 57.5399 197.125 57.8537 201.802C59.5846 225.807 59.7149 227.613 59.7869 228.613C65.1304 226.707 74.2001 222.209 91.2794 217.155C91.8318 208.678 92.4266 203.105 93.0145 203.105L97.6813 215.342C107.652 212.658 117.779 210.583 127.998 209.131C127.187 206.129 124.018 194.222 122.68 189.253C103.176 183.482 87.7128 184.74 67.7185 188.793C64.1989 189.508 60.658 190.287 57.2305 191.342Z" fill="#FAB01B"/>
<path d="M126.032 294.521C124.107 291.817 104.664 291.402 103.295 293.244C103.195 293.379 103.004 293.408 102.868 293.307C102.732 293.206 102.704 293.015 102.804 292.879C103.724 291.642 109.626 291.341 114.725 291.581C124.599 291.893 127.241 294.036 126.458 294.592C126.405 294.631 126.13 294.658 126.032 294.521Z" fill="#18142E"/>
<path d="M87.8255 300.83C86.371 299.449 79.202 298.786 76.5623 298.647C69.7373 298.322 65.5066 299.079 65.194 299.725C65.1205 299.877 64.9389 299.941 64.7855 299.867C64.6335 299.794 64.5699 299.611 64.6433 299.459C65.2895 298.122 71.29 297.784 76.593 298.036C84.1528 298.433 89.0899 299.944 88.2575 300.819C88.1413 300.942 87.9475 300.947 87.8255 300.83Z" fill="#18142E"/>
<path d="M64.944 299.959L64.9187 299.592C64.867 299.683 64.859 299.813 64.944 299.959Z" fill="#18142E"/>
<path d="M126.281 294.343L126.269 294.451C126.289 294.37 126.277 294.398 126.281 294.343Z" fill="#27254C"/>
<path d="M103.276 230.041C103.189 229.897 103.235 229.709 103.379 229.621C106.136 227.948 109.144 226.815 112.321 226.253C112.485 226.223 112.645 226.334 112.675 226.501C112.704 226.667 112.593 226.826 112.427 226.855C109.326 227.404 106.388 228.51 103.696 230.144C103.552 230.232 103.364 230.185 103.276 230.041Z" fill="#FAB01B"/>
<path d="M56.7538 282.529H82.1335V156.403H56.7538C53.0238 156.403 50 159.427 50 163.157V275.776C50 279.506 53.0238 282.529 56.7538 282.529Z" fill="#1A49CF"/>
<path d="M64.7238 282.833H233.261C237.005 282.833 240.041 279.797 240.041 276.053V163.486C240.041 159.742 237.005 156.706 233.261 156.706H64.7238C60.9794 156.706 57.9438 159.742 57.9438 163.486V276.053C57.9438 279.797 60.9794 282.833 64.7238 282.833Z" fill="#6DB0F4"/>
<path d="M230.283 166.468H67.7046V273.072H230.283V166.468Z" fill="white"/>
<path d="M103.538 231.146C109.315 231.146 113.998 226.463 113.998 220.686C113.998 214.909 109.315 210.226 103.538 210.226C97.7608 210.226 93.0776 214.909 93.0776 220.686C93.0776 226.463 97.7608 231.146 103.538 231.146Z" fill="white"/>
<path d="M103.538 231.146C109.315 231.146 113.998 226.463 113.998 220.686C113.998 214.909 109.315 210.226 103.538 210.226C97.7608 210.226 93.0776 214.909 93.0776 220.686C93.0776 226.463 97.7608 231.146 103.538 231.146Z" fill="white"/>
<g opacity="0.29">
<path d="M120.355 206.707H87.7705V261.377H120.355V206.707Z" fill="#F2B9AD"/>
</g>
<g opacity="0.29">
<path d="M167.169 206.707H134.584V261.377H167.169V206.707Z" fill="#F2B9AD"/>
</g>
<g opacity="0.29">
<path d="M213.983 206.707H181.398V261.377H213.983V206.707Z" fill="#F2B9AD"/>
</g>
<path d="M204.765 236.984C207.888 232.529 209.562 228.317 208.504 227.576C207.447 226.835 204.058 229.844 200.936 234.299C197.813 238.753 196.139 242.965 197.197 243.706C198.254 244.448 201.643 241.438 204.765 236.984Z" fill="#27254C"/>
<g opacity="0.29">
<path d="M213.625 188.359V190.579C213.625 192.518 212.055 194.094 210.111 194.094H91.1359C89.1918 194.094 87.6157 192.518 87.6157 190.579V188.359C87.6157 186.415 89.1919 184.839 91.1359 184.839H210.111C212.055 184.839 213.625 186.415 213.625 188.359Z" fill="#F2B9AD"/>
</g>
<g opacity="0.29">
<path d="M230.283 166.468H67.7046V177.684H230.283V166.468Z" fill="#F2B9AD"/>
</g>
<path d="M210.862 234.074C209.765 238.351 209.407 239.023 204.484 243.537C204.29 243.712 203.33 244.595 202.938 244.567C202.628 244.509 201.75 243.309 201.534 243.028C200.588 241.818 198.964 239.973 197.566 239.176C196.012 238.257 193.186 237.741 191.605 235.76C191.096 235.122 190.752 234.368 190.341 233.663C189.434 232.087 188.183 231.081 186.95 229.805C185.773 228.585 184.607 227.536 183.172 226.573C182.761 226.291 181.811 225.788 181.94 225.193C182.05 224.715 183.068 224.182 183.43 223.912C184.203 223.323 184.945 222.697 185.65 222.035C186.343 221.397 187.22 220.484 186.975 219.429C186.852 218.889 186.398 218.496 185.95 218.171C185.331 217.73 184.669 217.344 183.976 217.025C184.233 216.479 184.896 216.258 185.484 216.117C186.11 215.957 186.748 215.816 187.385 215.749C190.372 215.43 193.083 217.239 195.064 219.306C196.585 220.895 197.86 222.703 199.399 224.274C200.332 225.219 201.497 226.232 204.735 228.935C208.638 232.175 210.775 233.508 210.874 233.828C210.898 233.908 210.88 233.988 210.862 234.074Z" fill="#FFC2A5"/>
<path d="M210.862 234.074C209.765 238.351 209.407 239.023 204.484 243.537C204.085 243.898 203.674 244.273 203.184 244.506C202.959 244.617 202.87 244.576 202.693 244.414C201.914 243.668 199.812 240.457 197.566 239.176C200.783 236.431 203.607 233.079 204.735 228.935C208.638 232.175 210.775 233.508 210.874 233.828C210.899 233.908 210.88 233.988 210.862 234.074Z" fill="#E0916E"/>
<path d="M182.174 196.796L178.002 197.854L182.379 215.108L186.551 214.05L182.174 196.796Z" fill="#8592A2"/>
<path d="M183.148 196.549L178.976 197.607L183.353 214.861L187.525 213.803L183.148 196.549Z" fill="#BFC9D1"/>
<path d="M192.242 183.021C190.127 174.697 181.668 169.292 172.852 171.483C164.31 173.644 159.146 182.33 161.314 190.867C163.475 199.409 172.161 204.579 180.698 202.411C189.416 200.153 194.372 191.426 192.242 183.021ZM169.558 188.774C168.258 183.673 170.809 178.49 175.378 176.305C181.16 174.916 187 178.427 188.463 184.207C189.756 189.302 187.219 194.467 182.661 196.665C176.878 198.078 171.02 194.56 169.558 188.774Z" fill="#5E41D3"/>
<path d="M195.559 182.182C193.392 173.64 184.712 168.47 176.17 170.638C167.452 172.896 162.496 181.623 164.625 190.027C166.827 198.684 175.652 203.733 184.015 201.566C192.558 199.399 197.721 190.719 195.559 182.182ZM169.558 188.774C168.258 183.673 170.809 178.489 175.378 176.305C181.16 174.916 187 178.427 188.463 184.207C189.756 189.302 187.219 194.467 182.661 196.665C176.878 198.078 171.02 194.56 169.558 188.774Z" fill="#8686E1"/>
<path d="M182.661 196.665C187.219 194.467 189.756 189.301 188.463 184.207C187 178.427 181.16 174.916 175.378 176.305C181.579 173.325 188.951 176.773 190.634 183.431C192.014 188.863 189.09 194.929 182.661 196.665Z" fill="#BFC9D1"/>
<g opacity="0.39">
<path d="M182.661 196.665C176.878 198.078 171.02 194.56 169.558 188.774C168.258 183.673 170.809 178.49 175.378 176.305C181.16 174.916 187 178.427 188.462 184.207C189.756 189.302 187.219 194.467 182.661 196.665Z" fill="white"/>
</g>
<path d="M191.163 236.534L190.994 236.577C188.811 237.131 186.593 235.811 186.039 233.628L181.417 215.409C180.863 213.227 182.184 211.008 184.366 210.455L184.536 210.412C186.718 209.858 188.936 211.178 189.49 213.361L194.112 231.58C194.666 233.763 193.345 235.981 191.163 236.534Z" fill="#FE484C"/>
<path d="M179.718 219.033C179.811 219.127 179.879 219.168 179.903 219.145C178.936 220.11 178.672 221.706 179.287 222.927C179.896 224.144 181.333 224.901 182.686 224.702C181.072 225.164 179.978 226.957 180.301 228.6C180.624 230.242 182.316 231.489 183.983 231.312C182.774 231.72 182.78 233.609 183.719 234.466C184.657 235.323 186.039 235.43 187.31 235.489C188.553 235.55 189.872 235.451 190.847 234.612C191.812 233.786 192.221 232.4 191.462 231.278C190.966 230.539 190.037 230.146 189.155 230.247C190.003 230.032 190.85 229.759 191.531 229.219C192.373 228.552 192.892 227.353 192.454 226.379C192.059 225.505 191.022 225.074 190.058 225.108C189.102 225.146 188.202 225.553 187.334 225.953C189.08 225.151 193.297 222.716 191.004 220.256C190.08 219.27 188.504 219.432 187.7 219.313L188.241 219.313C187.444 219.242 186.64 219.167 185.831 219.098C185.445 219.042 185.059 218.986 184.676 218.941C185.75 218.815 186.873 218.673 187.748 218.044C188.648 217.388 189.126 216.085 188.541 215.219C188.155 214.622 187.427 214.359 186.739 214.186C184.571 213.636 180.574 213.363 179.09 215.04C178.064 216.197 178.237 218.138 179.718 219.033Z" fill="#FFC2A4"/>
<path d="M187.296 235.789C185.867 235.723 184.502 235.589 183.516 234.687C183.393 234.575 183.385 234.385 183.497 234.263C183.609 234.14 183.799 234.132 183.921 234.244C184.76 235.01 186.009 235.128 187.324 235.189C188.377 235.24 189.708 235.195 190.65 234.384C191.454 233.697 191.905 232.468 191.213 231.446C190.79 230.817 189.978 230.454 189.188 230.545C188.816 230.582 188.722 230.046 189.081 229.955C189.873 229.754 190.696 229.498 191.344 228.983C192.042 228.431 192.572 227.373 192.18 226.503C191.821 225.709 190.867 225.379 190.069 225.408C189.163 225.444 188.278 225.85 187.46 226.226C187.46 226.226 187.46 226.226 187.46 226.226C187.096 226.395 186.839 225.835 187.225 225.673C187.89 225.365 190.987 223.846 191.339 222.063C191.449 221.504 191.268 220.979 190.784 220.46C189.817 219.429 187.82 219.788 187.514 219.549C186.826 219.487 186.286 219.438 185.806 219.397C185.377 219.335 184.995 219.28 184.641 219.239C184.288 219.197 184.289 218.684 184.641 218.642C185.625 218.527 186.741 218.397 187.572 217.8C188.328 217.249 188.789 216.127 188.292 215.387C187.951 214.86 187.278 214.631 186.665 214.477C184.614 213.958 180.702 213.671 179.315 215.239C179.205 215.364 179.015 215.375 178.89 215.265C178.766 215.155 178.755 214.965 178.864 214.841C180.445 213.054 184.513 213.312 186.812 213.894C187.729 214.125 188.655 214.519 188.975 215.425C189.331 216.357 188.88 217.59 187.925 218.287C187.551 218.555 187.141 218.741 186.717 218.874C188.391 219.024 188.326 219.004 188.416 219.069C189.402 219.133 190.469 219.245 191.223 220.05C192.774 221.713 191.724 223.456 189.878 224.818C191.003 224.722 192.254 225.206 192.728 226.255C193.265 227.45 192.691 229.266 190.496 230.143C192.437 230.933 192.745 233.385 191.042 234.84C190.014 235.725 188.654 235.856 187.296 235.789Z" fill="#E0916E"/>
<path d="M185.88 230.599L189.644 229.799C189.806 229.764 189.966 229.868 190 230.03C190.035 230.192 189.931 230.352 189.769 230.386L186.005 231.186C185.612 231.271 185.495 230.68 185.88 230.599Z" fill="#E0916E"/>
<path d="M183.62 226.27C183.221 226.24 183.272 225.64 183.666 225.671C185.025 225.777 186.395 225.716 187.737 225.488C187.9 225.459 188.055 225.57 188.083 225.734C188.111 225.898 188.001 226.053 187.837 226.08C186.436 226.318 185.014 226.38 183.62 226.27Z" fill="#E0916E"/>
<path d="M182.166 219.349C181.773 219.349 181.767 218.758 182.158 218.748L186.154 218.646C186.57 218.655 186.553 219.237 186.17 219.247C185.646 219.26 181.936 219.355 182.166 219.349Z" fill="#E0916E"/>
<path d="M80.715 174.21C81.7891 173.136 81.7891 171.394 80.715 170.32C79.6408 169.246 77.8994 169.246 76.8252 170.32C75.7511 171.394 75.7511 173.136 76.8252 174.21C77.8994 175.284 79.6409 175.284 80.715 174.21Z" fill="white"/>
<path d="M96.0587 174.21C97.1328 173.136 97.1328 171.394 96.0587 170.32C94.9846 169.246 93.2431 169.246 92.169 170.32C91.0949 171.394 91.0949 173.136 92.169 174.21C93.2431 175.284 94.9846 175.284 96.0587 174.21Z" fill="white"/>
<path d="M110.094 174.929C111.572 174.58 112.488 173.099 112.138 171.621C111.789 170.142 110.308 169.227 108.83 169.576C107.351 169.925 106.436 171.406 106.785 172.885C107.134 174.363 108.615 175.279 110.094 174.929Z" fill="white"/>
<path d="M126.116 275.622L126.143 275.707C126.089 275.716 126.089 275.671 126.116 275.622Z" fill="#FFC2A5"/>
<path d="M269.607 242.304C266.996 245.522 263.255 247.578 259.574 249.436C245.9 256.32 237.275 256.918 225.917 260.169C221.73 261.354 219.925 260.691 216.964 258.077C212.566 254.232 200.681 248.4 197.21 243.702C198.265 244.444 201.656 241.433 204.778 236.974C207.783 232.688 209.445 228.621 208.623 227.665C212.579 231.332 221.673 239.857 226.046 242.813C236.49 238.538 246.713 233.736 256.673 228.425L269.607 242.304Z" fill="#FF774C"/>
<path d="M264.505 240.666C263.358 243.174 262.628 245.873 261.567 248.406C255.236 251.746 248.838 254.281 242.341 256.053C247.662 252.86 252.19 248.094 254.392 242.217L264.505 240.666Z" fill="#FE484C"/>
<path d="M279.886 233.583C277.424 237.627 273.437 239.217 270.079 238.416C267.15 237.721 264.19 235.026 264.566 231.835C264.658 231.216 264.891 230.621 265.136 230.038C267.564 224.27 267.236 225.878 266.933 216.148C270.727 212.234 274.914 214.192 279.788 215.817C279.041 218.136 279.305 221.654 279.131 224.114C278.978 226.242 279.266 228.37 280.112 230.333C280.471 231.186 281.129 231.566 279.886 233.583Z" fill="#FFC2A5"/>
<path d="M279.389 220.576C279.036 221.324 278.39 221.864 277.763 222.391C275.248 224.492 272.746 226.457 268.834 226.714C267.705 226.79 267.109 226.664 266.541 226.641C266.974 225.361 267.087 224.636 267.123 223.918C267.41 222.877 267.074 221.53 267.074 220.71C266.881 214.457 266.948 216.614 266.933 216.148C267.319 215.749 267.724 215.418 268.117 215.136C270.649 213.339 273.213 213.7 276.206 214.62C276.531 215.229 275.027 212.415 279.389 220.576Z" fill="#E0916E"/>
<path d="M264.585 221.048C266.355 223.015 268.98 224.18 271.622 224.165C275.28 224.146 278.679 221.94 280.826 218.978C282.973 216.017 283.994 212.384 284.522 208.767C285.157 204.379 285.041 199.748 282.143 196.391C279.563 193.397 275.337 192.358 271.647 193.665C261.925 197.098 258.44 214.199 264.585 221.048Z" fill="#FFC2A5"/>
<path d="M266.215 207.407C266.327 206.392 265.941 205.516 265.353 205.451C264.765 205.386 264.196 206.156 264.084 207.171C263.971 208.186 264.357 209.062 264.945 209.127C265.534 209.193 266.102 208.423 266.215 207.407Z" fill="#261518"/>
<path d="M275.341 208.777C275.483 207.766 275.122 206.879 274.535 206.797C273.949 206.716 273.359 207.469 273.218 208.481C273.077 209.493 273.438 210.379 274.024 210.461C274.61 210.543 275.2 209.789 275.341 208.777Z" fill="#261518"/>
<path d="M269.762 215.762C269.762 215.762 269.762 215.762 269.762 215.762C267.187 215.757 265.668 214.874 265.594 213.341C265.509 211.588 267.345 210.972 269.008 211.437C269.338 208.974 269.508 206.467 269.513 203.978C269.514 203.812 269.651 203.684 269.814 203.678C269.98 203.679 270.115 203.813 270.114 203.979C270.109 206.617 269.92 209.275 269.554 211.88C269.526 212.075 269.324 212.189 269.143 212.116C267.946 211.627 266.124 211.868 266.194 213.311C266.275 214.974 268.717 215.159 269.763 215.161C269.929 215.162 270.063 215.296 270.062 215.462C270.062 215.628 269.928 215.762 269.762 215.762Z" fill="#E0916E"/>
<path d="M267.14 219.246C266.984 219.188 266.904 219.015 266.962 218.86C267.02 218.704 267.193 218.625 267.349 218.682C268.667 219.172 270.287 219.124 271.365 218.262C271.495 218.158 271.683 218.18 271.787 218.309C271.891 218.439 271.87 218.628 271.74 218.731C270.48 219.739 268.637 219.801 267.14 219.246Z" fill="#E0916E"/>
<path d="M275.341 201.146C278.209 201.667 281.11 202.202 283.562 203.815C284.425 204.382 285.08 205.071 285.767 205.822C281.584 204.534 277.248 203.745 272.879 203.476C272.541 203.455 272.313 203.129 272.407 202.804C272.908 201.067 273.701 200.849 275.341 201.146Z" fill="#12181C"/>
<path d="M269.623 202.691C267.518 202.506 265.403 202.449 263.291 202.509C263.622 201.719 264.011 200.932 264.453 200.177C265.476 200.089 266.509 200.059 267.533 200.027C269.2 199.973 269.953 200.307 270.189 202.097C270.236 202.433 269.962 202.722 269.623 202.691Z" fill="#12181C"/>
<path d="M288.717 210.22C289.327 209.642 290.173 209.046 290.572 208.307C292.622 204.505 291.264 199.25 287.182 196.86C289.576 193.132 282.678 185.922 274.827 187.086C271.491 187.581 269.777 189.361 269.36 191.185C266.925 190.008 263.718 190.744 262.041 192.866C260.363 194.988 260.387 198.278 262.094 200.375C260.012 202.594 259.789 206.324 261.593 208.775C261.717 208.037 261.84 207.3 261.964 206.562C262.071 205.921 262.061 205.02 262.386 204.449C262.974 203.419 264.247 202.451 265.261 201.884C268.157 200.264 271.823 200.448 274.626 198.642C276.021 197.744 277.147 196.268 277.201 194.609C278.293 194.859 279.069 195.886 279.356 196.968C279.931 199.135 278.911 201.485 279.56 203.64C279.716 204.159 280.026 204.58 280.23 205.065C280.461 205.612 280.506 206.253 280.548 206.85C280.641 208.194 280.41 209.433 280.216 210.746C280.646 210.585 281.26 210.098 281.74 210.314C282.297 210.565 282.472 211.69 282.511 212.212C282.551 212.766 282.39 213.266 282.385 213.799C282.372 215.084 282.438 216.665 281.59 218.071C282.225 217.018 283.106 216.044 283.902 215.111C284.492 214.42 284.548 214.052 286.277 212.417C287.072 211.665 287.923 210.974 288.717 210.22Z" fill="#27254C"/>
<path d="M279.604 211.095C279.724 208.924 282.265 207.579 284.344 208.846C286.128 209.934 286.659 212.43 285.358 214.405C283.984 216.489 281.413 216.637 280.256 215.12L279.604 211.095Z" fill="#FFC2A5"/>
<path d="M282.199 213.806C282.101 213.672 282.131 213.484 282.265 213.387C283.013 212.843 283.106 212.149 282.843 211.74C282.633 211.414 282.128 211.28 281.741 211.447C281.355 211.615 281.078 212.041 281.052 212.507C281.043 212.672 280.899 212.796 280.736 212.79C280.57 212.781 280.443 212.64 280.452 212.474C280.49 211.786 280.912 211.152 281.502 210.896C282.701 210.377 283.978 211.468 283.462 212.827C283.314 213.218 283.022 213.58 282.618 213.873C282.484 213.97 282.296 213.94 282.199 213.806Z" fill="#E0916E"/>
<path d="M284.987 197.919C284.893 197.779 284.93 197.589 285.07 197.495C285.78 197.018 286.118 196.453 287.046 196.048C287.163 195.997 287.273 195.948 287.362 195.886C287.5 195.788 287.691 195.822 287.788 195.96C287.885 196.098 287.852 196.289 287.714 196.386C287.575 196.484 287.431 196.547 287.291 196.608C286.497 196.953 286.127 197.522 285.411 198.003C285.273 198.096 285.082 198.061 284.987 197.919Z" fill="#18142E"/>
<path d="M271.545 193.292C271.042 192.414 270.209 191.711 269.261 191.361C269.102 191.302 269.021 191.126 269.079 190.968C269.138 190.81 269.314 190.729 269.472 190.787C270.554 191.186 271.502 191.988 272.075 192.988C272.16 193.134 272.109 193.321 271.962 193.405C271.816 193.489 271.629 193.438 271.545 193.292Z" fill="#18142E"/>
<path d="M295.557 238.88C298.271 259.618 291.427 280.523 284.111 300.005C283.006 298.876 282.45 297.711 278.509 295.421C273.907 292.737 268.608 291.182 263.734 288.917C259.129 286.777 254.581 283.9 249.498 283.889C251.354 281.421 253.247 278.1 253.665 274.982C255.035 264.78 251.09 257.424 252.27 249.581C253.017 244.566 256.04 239.066 256.766 235.793C257.033 234.603 257.155 233.38 257.139 232.162C257.136 231.827 256.912 228.393 256.611 228.428C256.706 228.417 263.282 227.638 266.16 227.739C266.141 228.757 266.382 229.725 266.907 230.609C268.123 232.632 268.905 232.883 270.828 232.681C271.907 232.565 272.907 232.468 273.942 232.108C275.31 231.638 276.573 230.84 277.584 229.797C278.758 228.578 278.211 228.25 279.068 226.844C279.698 227.101 290.975 225.994 290.975 225.994C290.975 225.994 292.535 226.764 292.701 227.318C293.842 231.164 295.041 234.9 295.557 238.88Z" fill="#FF774C"/>
<path d="M295.982 243.256C297.291 262.596 290.949 281.797 284.111 300.005C283.007 298.876 282.45 297.711 278.509 295.421C284.652 290.441 287.454 283.33 288.641 275.471C290.351 264.041 288.186 257.197 284.158 237.992L295.982 243.256Z" fill="#FE484C"/>
<path d="M349.707 318.503C349.345 318.742 348.855 318.779 348.419 318.675C347.99 318.577 347.61 318.35 347.248 318.11C347.524 318.969 348.382 320.539 347.401 321.294C346.941 321.661 346.211 321.6 345.715 321.294C344.114 320.348 341.458 314.007 337.037 310.39C335.291 308.926 332.975 307.588 330.72 307.74C331.733 308.996 333.196 309.953 334.412 311.113C336.808 313.448 336.509 315.708 335.773 316.21C335.277 316.541 334.596 316.271 334.069 315.995C330.254 313.996 326.01 312.456 322.79 309.506C319.089 306.123 316.554 301.065 313.696 296.941C309.548 290.92 304.589 285.378 300.479 279.235H317.449C320.444 284.184 325.584 293.645 330.058 297.18C331.996 298.725 334.4 299.596 336.638 300.73C339.189 302.031 341.704 303.515 343.703 305.471C344.23 305.992 348.18 310.525 346.855 311.021C346.558 311.126 346.293 310.978 344.954 310.39C346.702 312.192 348.493 314.259 349.695 316.424C350.038 317.037 350.517 317.982 349.707 318.503Z" fill="#FFC2A5"/>
<path d="M324.189 290.231C319.823 290.845 316.556 294.265 313.696 296.94C311.807 294.199 309.771 291.58 307.729 288.974C309.836 284.842 313.348 281.35 317.921 280.02C319.982 283.448 321.938 286.932 324.189 290.231Z" fill="#E0916E"/>
<path d="M283.571 234.73C283.277 231.197 284.859 228.444 288.085 226.899C292.72 224.678 295.676 226.43 298.719 230.59C309.464 245.28 308.366 266.32 320.688 280.032C322.056 281.555 322.724 282.395 324.88 284.919C325.186 285.276 326.588 287.379 326.985 287.392C326.225 286.373 321.907 287.269 317.118 289.452C312.168 291.709 308.593 294.493 309.127 295.665C309.145 295.707 309.169 295.744 309.194 295.775C307.124 293.193 304.739 290.823 302.678 288.248C300.058 284.976 298.13 280.697 296.274 276.958C294.468 273.321 293.894 271.678 292.859 266.374C292.494 264.503 291.82 262.912 291.234 261.103C289.823 256.745 288.649 252.287 287.276 247.941C285.869 243.486 283.967 239.477 283.571 234.73Z" fill="#FF774C"/>
<path d="M346.289 316.9C344.181 313.624 341.84 310.43 339.332 307.405C339.224 307.274 339.242 307.082 339.372 306.974C339.502 306.866 339.696 306.884 339.803 307.014C342.327 310.058 344.682 313.273 346.803 316.569C346.894 316.712 346.853 316.901 346.711 316.992C346.569 317.084 346.38 317.042 346.289 316.9Z" fill="#E0916E"/>
<path d="M344.139 309.185C342.47 307.146 340.514 305.317 338.325 303.748C338.187 303.649 338.156 303.458 338.254 303.321C338.352 303.184 338.543 303.152 338.681 303.251C340.914 304.851 342.91 306.717 344.612 308.798C344.719 308.929 344.7 309.121 344.569 309.228C344.438 309.335 344.246 309.316 344.139 309.185Z" fill="#E0916E"/>
<path d="M252.908 262.212C250.938 255.623 251.334 248.345 253.994 242.246C254.506 241.071 255.028 239.961 255.514 238.796C255.579 238.641 255.759 238.567 255.914 238.632C256.07 238.697 256.144 238.876 256.078 239.032C255.589 240.205 255.052 241.349 254.555 242.49C251.951 248.46 251.564 255.584 253.493 262.037C253.542 262.199 253.45 262.369 253.288 262.417C253.123 262.466 252.955 262.371 252.908 262.212Z" fill="#FE484C"/>
<path d="M207.668 325.093C208.062 323.77 203.942 321.373 198.464 319.741C192.987 318.109 188.227 317.858 187.832 319.181C187.438 320.504 191.559 322.901 197.036 324.533C202.514 326.165 207.274 326.416 207.668 325.093Z" fill="#18142E"/>
<path d="M206.669 319.332C206.647 319.639 204.314 336.251 203.879 339.356L190.071 338.822L186.827 333.585C187.262 331.686 185.253 340.466 191.077 315.009L206.669 319.332Z" fill="#FFC2A5"/>
<path d="M206.669 319.332C206.658 319.488 205.937 324.682 205.224 329.74C204.324 328.793 203.429 327.85 202.476 326.959C198.923 323.638 194.629 321.129 190.009 319.668L191.077 315.009L206.669 319.332Z" fill="#E0916E"/>
<path d="M165.298 290.266C166.593 289.826 166.14 285.041 164.286 279.578C162.432 274.116 159.878 270.043 158.583 270.483C157.287 270.923 157.74 275.708 159.595 281.171C161.449 286.634 164.002 290.706 165.298 290.266Z" fill="#18142E"/>
<path d="M168.606 286.116C163.264 287.028 163.397 286.828 160.027 287.26C156.045 287.759 154.685 288.472 151.632 288.933C148.453 289.419 148.371 289.013 143.666 290.402C143.613 290.413 143.571 290.468 143.552 290.515L137.442 275.917C137.305 275.963 137.146 275.942 137.019 275.867C142.537 274.643 148.174 273.977 153.662 272.617C156.925 271.816 160.214 270.737 163.544 270.296C164.193 270.207 164.481 270.268 164.926 270.773C165.823 271.78 166.098 272.757 166.384 274.04C166.678 275.386 166.976 276.733 167.254 278.081C167.802 280.74 168.293 283.415 168.606 286.116Z" fill="#FFC2A5"/>
<path d="M168.606 286.116C163.264 287.028 163.397 286.828 160.027 287.26C160.392 283.849 160.1 280.461 159.769 277.033C159.583 275.087 159.361 273.076 158.454 271.355C160.133 270.918 161.822 270.524 163.544 270.296C164.193 270.207 164.481 270.268 164.926 270.773C165.824 271.78 166.099 272.757 166.385 274.04C167.221 277.882 168.118 281.898 168.606 286.116Z" fill="#E0916E"/>
<path d="M255.944 333.906C251.781 334.499 249.226 334.64 246.053 334.767C243.217 334.898 240.199 335.012 237.731 333.856C232.681 331.478 228.912 326.998 225.973 322.334C219.348 311.831 216.156 300.735 214.385 288.402C213.564 301.062 210.9 314.123 207.688 325.089C208.071 323.766 203.946 321.366 198.467 319.733C192.988 318.106 188.234 317.857 187.846 319.18C187.844 319.206 187.837 319.232 187.835 319.257C187.368 319.206 191.023 301.98 191.357 300.359C193.714 289.008 194.99 277.477 199.205 266.653C199.507 265.888 199.837 265.104 200.429 264.542C201.223 263.779 202.368 263.543 203.456 263.47C212.32 262.911 218.956 270.747 224.248 277.896C232.741 289.137 240.413 304.928 247.717 317.39C247.774 317.49 247.83 317.585 247.886 317.685C251.2 323.349 248.675 318.291 255.896 333.795L255.944 333.906Z" fill="#27254C"/>
<path d="M255.944 333.906C251.036 334.605 248.508 334.65 245.629 334.781C245.618 334.772 245.602 334.769 245.591 334.76C240.332 332.042 236.613 327.05 233.492 321.976C224.486 307.351 218.96 290.836 214.143 274.307C207.619 277.334 201.1 280.365 194.571 283.392C195.443 278.606 197.166 271.89 199.205 266.653C199.507 265.887 199.837 265.103 200.429 264.542C201.222 263.779 202.367 263.542 203.456 263.469C212.319 262.91 218.956 270.747 224.248 277.896C232.741 289.137 240.413 304.927 247.717 317.39C247.773 317.49 247.829 317.585 247.886 317.684C251.2 323.349 248.675 318.29 255.896 333.795L255.944 333.906Z" fill="#18142E"/>
<path d="M207.393 325.005C207.649 324.123 204.344 321.803 198.379 320.028C194.851 319.045 188.935 317.987 188.11 319.342C188.022 319.486 187.833 319.531 187.69 319.443C187.545 319.356 187.5 319.167 187.588 319.023C188.923 316.831 197.567 319.167 198.549 319.441C203.503 320.915 208.489 323.425 207.98 325.175C207.866 325.566 207.28 325.393 207.393 325.005Z" fill="#18142E"/>
<path d="M284.955 296.038C283.877 303.416 284.644 301.649 281.653 312.745C280.239 317.995 278.591 323.561 274.497 327.089C273.567 327.89 272.53 328.562 271.467 329.173C266.115 332.259 259.876 333.871 253.572 334.034C249.688 334.135 247.361 333.166 244.269 330.816C236.152 324.645 233.152 314.158 229.517 305.099C225.023 293.887 220.524 282.676 216.025 271.464C202.628 277.058 189.109 282.337 175.471 287.307C172.221 288.496 168.936 289.668 165.518 290.2C165.516 290.185 165.51 290.176 165.509 290.162C166.548 289.299 166.044 284.732 164.294 279.567C162.437 274.106 159.883 270.041 158.588 270.488C158.471 270.527 158.369 270.607 158.28 270.721C158.252 270.69 158.231 270.673 158.212 270.675C166.861 265.349 175.981 260.864 185.082 256.386C190.863 253.541 196.659 250.689 202.676 248.38C207.942 246.355 214.54 243.316 220.164 245.4C225.166 247.255 228.417 251.313 233.28 256.71C251.231 276.587 247.308 274.082 252.32 280.445C252.408 280.173 252.766 280.038 252.836 279.756C252.865 280.007 257.763 280.695 258.264 280.805C266.121 282.626 273.367 286.207 279.36 290.936C280.164 291.566 285.102 295.041 284.955 296.038Z" fill="#27254C"/>
<path d="M284.955 296.038C283.877 303.416 284.645 301.649 281.653 312.745C280.24 317.995 278.591 323.561 274.497 327.089C271.925 329.304 266.47 332.133 260.058 333.34C265.239 330.519 270.428 326.841 273.842 322.094C276.635 318.21 278.334 313.373 277.835 308.599C277.032 300.899 271.024 295.017 265.149 290.217C264.626 289.79 264.155 289.334 263.571 289.002C259.973 286.959 258.064 286.687 257.13 286.041C256.522 285.622 256.317 285.295 253.747 282.018C254.248 281.881 254.748 281.743 255.249 281.606C255.72 281.476 256.06 281.335 256.098 280.844C256.102 280.79 256.107 280.453 256.051 280.444C257.133 280.62 258.105 280.77 258.264 280.805C266.121 282.626 273.367 286.207 279.36 290.936C280.165 291.566 285.102 295.04 284.955 296.038Z" fill="#18142E"/>
<path d="M284.955 296.038C284.758 297.39 284.597 298.767 284.421 300.131C270.524 288.116 253.982 282.542 253.982 282.542L252.573 280.116C252.686 280.009 252.8 279.903 252.836 279.756C252.865 280.008 257.885 280.718 258.264 280.805C266.121 282.626 273.367 286.208 279.36 290.936C280.165 291.567 285.102 295.041 284.955 296.038Z" fill="#27254C"/>
<path d="M270.023 306.639C268.623 301.526 266.11 296.668 262.753 292.59C259.639 288.804 254.255 283.683 252.07 280.622C251.972 280.485 252.004 280.294 252.141 280.196C252.279 280.097 252.47 280.13 252.568 280.267C257.27 286.852 266.833 292.669 270.613 306.478C270.657 306.64 270.561 306.809 270.398 306.853C270.231 306.898 270.067 306.799 270.023 306.639Z" fill="#18142E"/>
<path d="M153.506 290.979C151.779 294.046 150.08 297.058 147.95 299.901C146.822 301.398 145.52 302.868 143.783 303.546C143.774 303.546 143.767 303.552 143.758 303.553C140.364 304.855 137.794 301.539 135.353 299.676C128.579 294.514 121.102 290.295 115.202 284.022C112.795 281.462 108.205 277 111.654 273.549C112.977 272.223 114.911 271.499 116.755 271.803C118.144 272.037 119.396 272.759 120.687 273.338C128.951 277.023 138.24 274.253 141.224 273.888C141.726 273.829 142.257 273.792 142.717 273.997C143.813 274.478 143.986 275.934 144.188 277.127C144.87 281.181 147.844 284.76 151.679 286.134C152.555 286.45 153.823 286.685 154.178 287.678C154.551 288.716 154.004 290.097 153.506 290.979Z" fill="#309D6D"/>
<path d="M153.506 290.979C151.926 293.785 150.342 296.596 148.456 299.205C146.692 301.207 145.454 301.477 145.31 301.573C141.916 302.87 139.345 299.555 136.904 297.692C130.178 292.566 122.665 288.324 116.753 282.038C114.683 279.832 110.991 276.221 112.209 273.059C113.484 272.051 115.15 271.538 116.755 271.803C118.144 272.037 119.396 272.759 120.687 273.338C128.951 277.024 138.24 274.253 141.224 273.888C141.726 273.829 142.257 273.792 142.717 273.997C143.813 274.478 143.986 275.934 144.188 277.127C144.87 281.181 147.844 284.76 151.679 286.134C152.555 286.45 153.823 286.686 154.178 287.678C154.551 288.717 154.004 290.098 153.506 290.979Z" fill="#72D497"/>
<path d="M136.023 279.296C135.703 277.964 135.341 276.455 135.631 274.976C135.709 274.577 136.309 274.699 136.231 275.094C135.967 276.441 136.313 277.882 136.618 279.154C136.657 279.318 136.556 279.483 136.391 279.522C136.228 279.561 136.062 279.462 136.023 279.296Z" fill="white"/>
<path d="M131.985 279.771C131.809 278.181 131.698 276.751 132.114 275.354C132.23 274.967 132.816 275.141 132.7 275.529C132.317 276.815 132.425 278.181 132.593 279.704C132.611 279.872 132.49 280.023 132.322 280.041C132.152 280.059 132.003 279.936 131.985 279.771Z" fill="white"/>
<path d="M127.944 279.078C127.743 277.851 127.844 276.579 128.238 275.401C128.292 275.241 128.466 275.156 128.625 275.208C128.785 275.262 128.872 275.435 128.818 275.595C128.456 276.68 128.362 277.849 128.547 278.979C128.575 279.145 128.462 279.303 128.295 279.33C128.137 279.358 127.972 279.25 127.944 279.078Z" fill="white"/>
<path d="M205.104 338.035C205.495 341.596 205.878 345.102 205.806 348.728C205.763 350.641 205.561 352.636 204.534 354.243C204.527 354.249 204.524 354.258 204.517 354.264C202.496 357.385 198.425 356.213 195.317 356.157C186.781 356.008 178.053 357.056 169.504 355.466C166.013 354.816 159.603 353.922 160.4 349C160.699 347.145 161.839 345.36 163.562 344.481C164.842 343.835 166.298 343.672 167.701 343.367C176.676 341.402 182.686 333.498 184.91 331.408C185.288 331.055 185.702 330.704 186.202 330.595C187.387 330.328 188.389 331.421 189.26 332.279C192.216 335.199 196.775 336.345 200.739 335.156C201.646 334.887 202.828 334.314 203.706 334.916C204.626 335.544 204.992 337.01 205.104 338.035Z" fill="#309D6D"/>
<path d="M205.104 338.044C205.462 341.306 205.821 344.575 205.811 347.859C205.544 350.571 204.686 351.541 204.623 351.707C202.6 354.825 198.528 353.653 195.42 353.597C186.865 353.448 178.181 354.501 169.607 352.907C166.602 352.344 161.434 351.606 160.567 348.271C161.02 346.672 162.086 345.243 163.563 344.49C164.842 343.844 166.298 343.681 167.702 343.377C176.676 341.411 182.687 333.508 184.91 331.417C185.288 331.065 185.703 330.714 186.202 330.604C187.387 330.337 188.389 331.43 189.26 332.288C192.216 335.209 196.775 336.354 200.74 335.165C201.646 334.896 202.828 334.323 203.706 334.925C204.626 335.554 204.992 337.019 205.104 338.044Z" fill="#72D497"/>
<path d="M183.832 339C182.783 338.098 181.593 337.076 180.958 335.686C180.791 335.318 181.347 335.062 181.514 335.432C182.094 336.7 183.229 337.675 184.231 338.536C184.359 338.646 184.373 338.839 184.264 338.967C184.152 339.096 183.959 339.109 183.832 339Z" fill="white"/>
<path d="M180.793 341.83C179.709 340.629 178.773 339.521 178.291 338.123C178.236 337.963 178.32 337.789 178.48 337.734C178.64 337.679 178.814 337.764 178.869 337.923C179.314 339.213 180.209 340.27 181.247 341.421C181.36 341.546 181.35 341.74 181.225 341.852C181.099 341.966 180.906 341.956 180.793 341.83Z" fill="white"/>
<path d="M177.061 343.703C176.171 342.816 175.504 341.71 175.132 340.503C175.082 340.342 175.173 340.171 175.334 340.121C175.496 340.071 175.667 340.162 175.716 340.323C176.059 341.434 176.673 342.453 177.493 343.27C177.613 343.389 177.613 343.582 177.494 343.702C177.375 343.822 177.18 343.822 177.061 343.703Z" fill="white"/>
<path d="M215.949 271.515C215.808 271.42 215.771 271.23 215.865 271.09C217.958 267.977 219.309 264.356 219.773 260.621C219.794 260.453 219.947 260.332 220.114 260.355C220.282 260.376 220.401 260.528 220.38 260.696C219.904 264.526 218.519 268.239 216.373 271.431C216.278 271.573 216.087 271.608 215.949 271.515Z" fill="#18142E"/>
<path d="M214.371 289.41C214.209 289.41 214.074 289.283 214.066 289.12C213.873 285.22 214.153 281.301 214.901 277.471C214.979 277.071 215.578 277.192 215.501 277.588C214.763 281.369 214.486 285.239 214.677 289.089C214.685 289.258 214.555 289.402 214.387 289.41C214.382 289.41 214.376 289.41 214.371 289.41Z" fill="#18142E"/>
<path d="M66.0158 153.977C65.0469 152.028 67.1246 150.775 68.7112 150.339C69.3769 150.155 70.1255 150.054 70.7287 150.39C70.535 149.796 70.8277 149.112 71.3324 148.743C71.837 148.374 72.5077 148.287 73.1241 148.392C73.7405 148.496 74.3135 148.774 74.8586 149.08C74.6567 147.997 75.529 146.837 76.6257 146.731C77.5319 146.643 78.8525 147.297 79.6288 147.774C79.4045 146.815 80.2142 145.835 81.1722 145.607C82.4609 145.3 83.839 146.043 84.7792 146.874C85.5606 147.565 86.113 148.477 86.5771 149.411C87.518 151.305 87.8524 153.123 88.2141 155.18C88.3305 155.842 88.3948 156.638 87.8805 157.071C87.2717 157.583 86.0344 157.373 85.5315 156.465C85.8158 157.128 85.8266 157.904 85.5609 158.575C85.223 159.427 84.6021 159.769 83.6448 159.419C82.9485 159.165 82.3396 158.678 81.9385 158.055C82.0771 158.669 82.3364 159.265 82.3516 159.895C82.3667 160.525 82.0385 161.233 81.4237 161.373C80.8841 161.495 80.3578 161.146 79.9349 160.789C78.6861 159.736 77.6408 158.442 76.8729 157C77.1741 158.115 75.3089 159.573 73.4791 157.361C72.8185 156.563 72.3728 155.508 71.4706 154.937C69.8821 153.93 67.0544 156.066 66.0158 153.977Z" fill="#FFC2A5"/>
<path d="M79.7377 161.023C78.6896 160.139 77.7683 159.071 77.0395 157.9C76.4115 159.048 74.7141 159.333 73.2433 157.556C73.0146 157.279 72.8112 156.975 72.6144 156.68C71.4252 154.898 71.0459 154.784 68.9651 155.108C68.1961 155.227 67.1484 155.396 66.4906 154.979C65.7712 154.524 65.6661 153.553 65.9325 152.871C65.994 152.714 66.1714 152.636 66.3284 152.697C66.4858 152.759 66.5637 152.936 66.5022 153.093C66.3221 153.554 66.3911 154.192 66.8178 154.463C67.2944 154.764 68.3155 154.589 68.8713 154.503C71.1596 154.149 71.7782 154.325 73.1232 156.341C73.6736 157.166 74.416 158.206 75.48 158.214C76.0582 158.235 76.7304 157.645 76.5774 157.079C76.4835 156.73 76.9726 156.536 77.1427 156.856C77.8871 158.255 78.9206 159.534 80.1317 160.556C80.4509 160.825 80.9275 161.173 81.3557 161.075C81.8027 160.973 82.0575 160.399 82.0455 159.902C82.0312 159.317 81.7823 158.753 81.64 158.122C81.5652 157.79 82.0114 157.603 82.1954 157.889C82.5618 158.459 83.1139 158.9 83.7493 159.132C84.4841 159.401 84.9738 159.224 85.2764 158.462C85.5141 157.862 85.5046 157.178 85.2502 156.585C85.0979 156.23 85.6122 155.982 85.7988 156.317C86.2116 157.063 87.2238 157.224 87.6835 156.837C88.0783 156.505 88.0135 155.805 87.9126 155.233C87.5703 153.286 87.2473 151.447 86.3031 149.547C85.925 148.786 85.3869 147.82 84.5765 147.103C84.4499 146.992 84.438 146.798 84.55 146.672C84.662 146.545 84.8551 146.534 84.9815 146.645C85.8713 147.432 86.448 148.464 86.8508 149.275C87.834 151.255 88.1804 153.223 88.5151 155.127C88.6442 155.861 88.7111 156.771 88.0774 157.305C87.6209 157.689 86.8013 157.803 86.0549 157.391C86.0782 157.83 86.0084 158.275 85.845 158.687C85.2452 160.2 83.8187 160.131 82.5576 159.168C82.8874 160.591 82.2612 161.496 81.4913 161.671C80.845 161.816 80.2425 161.449 79.7377 161.023Z" fill="#E0916E"/>
<path d="M85.9249 157.309C84.9795 157.047 84.1057 154.623 82.8624 153.272C82.748 153.147 82.7564 152.954 82.8806 152.839C83.0045 152.725 83.1984 152.733 83.3127 152.858C84.4263 154.068 85.546 156.569 86.0885 156.72C86.2513 156.765 86.3465 156.934 86.3014 157.096C86.2569 157.256 86.0912 157.354 85.9249 157.309Z" fill="#E0916E"/>
<path d="M81.8074 158.631L79.498 154.929C79.4087 154.786 79.4523 154.598 79.5956 154.508C79.7386 154.419 79.9277 154.462 80.017 154.606L82.353 158.349C82.5082 158.598 82.4273 158.805 82.3112 158.907C82.097 159.094 81.7646 158.913 81.8074 158.631Z" fill="#E0916E"/>
<path d="M76.7322 157.22C76.7355 157.09 76.6378 156.938 76.5285 156.78C75.9269 155.916 75.2729 155.073 74.5846 154.274C74.2332 153.867 73.8805 153.485 73.4311 153.292C73.2758 153.226 73.2038 153.046 73.2705 152.891C73.7199 151.836 76.3779 155.493 77.0305 156.431C77.8879 157.663 76.7189 157.761 76.7322 157.22Z" fill="#E0916E"/>
<path d="M111.084 184.839H91.1359C89.1918 184.839 87.6157 186.415 87.6157 188.359V190.579C87.6157 192.518 89.1919 194.094 91.1359 194.094H111.084V184.839Z" fill="#6DB0F4"/>
<path d="M310.911 233.02C307.114 230.061 306.085 228.151 304.712 223.877C301.76 214.681 302.35 212.915 300.797 207.449C299.816 203.996 298.327 201.324 296.374 199.507C293.997 197.298 290.726 196.365 288.042 197.129C287.88 197.177 287.71 197.082 287.664 196.919C287.618 196.756 287.712 196.587 287.874 196.541C290.761 195.718 294.26 196.707 296.79 199.059C298.827 200.954 300.373 203.72 301.385 207.282C302.941 212.757 302.37 214.581 305.294 223.69C306.623 227.827 307.574 229.643 311.287 232.537C316.943 236.946 323.269 239.256 329.098 239.046C329.249 239.033 329.409 239.171 329.415 239.34C329.421 239.509 329.289 239.651 329.12 239.657C322.617 239.895 316.142 237.097 310.911 233.02Z" fill="#18142E"/>
<path d="M121.968 143.471C121.81 143.411 121.731 143.234 121.79 143.076C124.471 136.004 127.615 129.026 131.135 122.335C131.213 122.186 131.399 122.129 131.548 122.207C131.697 122.285 131.755 122.47 131.676 122.62C128.167 129.289 125.034 136.244 122.362 143.293C122.302 143.451 122.126 143.53 121.968 143.471Z" fill="#5E41D3"/>
<path d="M268.002 232.402C266.475 231.358 266.073 229.477 265.775 227.783C265.745 227.617 265.857 227.458 266.023 227.429C266.192 227.4 266.347 227.511 266.377 227.677C266.65 229.227 267.003 230.978 268.347 231.898C269.488 232.677 270.952 232.577 272.288 232.201C273.967 231.728 274.383 231.499 275.216 231.005C276.688 230.132 277.756 230.075 279.11 226.344C279.168 226.185 279.344 226.103 279.502 226.16C279.661 226.218 279.743 226.393 279.685 226.552C278.259 230.481 277.02 230.646 275.528 231.531C274.637 232.059 274.179 232.303 272.453 232.79C270.932 233.218 269.303 233.292 268.002 232.402Z" fill="#FE484C"/>
<path d="M97.9856 185.921C96.5689 185.921 95.416 187.068 95.416 188.485C95.416 189.902 96.569 191.055 97.9856 191.055C99.4023 191.055 100.549 189.902 100.549 188.485C100.549 187.068 99.4023 185.921 97.9856 185.921ZM97.9856 189.675C97.3294 189.675 96.8019 189.141 96.8019 188.485C96.8019 187.835 97.3294 187.301 97.9856 187.301C98.6418 187.301 99.1692 187.835 99.1692 188.485C99.1693 189.141 98.6419 189.675 97.9856 189.675Z" fill="white"/>
<path d="M101.476 193.336L98.7285 190.415C98.4965 190.168 98.5085 189.78 98.7552 189.548C99.0017 189.316 99.39 189.328 99.6221 189.575L102.37 192.496C102.602 192.743 102.59 193.131 102.343 193.363C102.097 193.594 101.709 193.584 101.476 193.336Z" fill="white"/>
<path d="M103.536 210.902C97.7594 210.902 93.0801 215.588 93.0801 221.365C93.0801 227.142 97.7594 231.827 103.536 231.827C108.55 231.827 112.744 228.295 113.76 223.585C115.188 217.16 110.265 210.902 103.536 210.902ZM103.536 226.811C100.531 226.811 98.0906 224.37 98.0906 221.364C98.0906 218.359 100.531 215.919 103.536 215.919C106.548 215.919 108.982 218.359 108.982 221.364V221.457C108.931 224.43 106.51 226.811 103.536 226.811Z" fill="#72D497"/>
<path d="M113.76 223.584C112.895 227.595 109.724 230.754 105.707 231.6L103.959 226.792C106.744 226.583 108.933 224.277 108.982 221.457L113.76 223.584Z" fill="white"/>
<path d="M99.9046 256.53C105.321 258.539 111.338 255.773 113.346 250.356C115.653 244.136 111.667 237.351 105.065 236.369C100.24 235.652 95.4664 238.407 93.7324 243.083C91.7238 248.5 94.488 254.522 99.9046 256.53ZM105.436 241.614C108.253 242.659 109.693 245.796 108.648 248.614C107.603 251.432 104.466 252.871 101.649 251.827C98.8255 250.78 97.3912 247.645 98.436 244.827L98.4681 244.741C99.5501 241.971 102.648 240.58 105.436 241.614Z" fill="#FE484C"/>
<path d="M94.7285 241.085C96.9338 237.625 101.005 235.766 105.065 236.369L105.032 241.485C102.349 240.712 99.4948 242.113 98.468 244.741L94.7285 241.085Z" fill="white"/>
<path d="M143.08 209.817H140.158V236.256H143.08V209.817Z" fill="#72D497"/>
<path d="M151.89 222.615H148.968V236.256H151.89V222.615Z" fill="#FE484C"/>
<path d="M160.699 216.287H157.777V236.256H160.699V216.287Z" fill="#FCCF36"/>
<path d="M161.689 237.215H138.748V238.359H161.689V237.215Z" fill="#27254C"/>
<path d="M155.736 245.717H138.876V247.812H155.736V245.717Z" fill="white"/>
<path d="M162.37 251.85H138.876V253.945H162.37V251.85Z" fill="white"/>
<path d="M114.094 69.7103C114.023 68.4181 113.16 67.2164 111.983 66.6796C110.805 66.1427 109.367 66.2646 108.261 66.9374C106.064 68.2746 105.407 71.3474 107.007 73.7793C108.697 76.3471 111.861 76.5316 113.287 74.6655L114.094 69.7103Z" fill="#FFC2A5"/>
<path d="M110.419 73.0725C109.934 72.719 109.583 72.2842 109.405 71.815C108.782 70.1694 110.337 68.9232 111.73 69.5259C112.432 69.8311 112.935 70.5886 112.98 71.4107C112.989 71.577 112.861 71.7194 112.695 71.7287C112.541 71.7422 112.386 71.6102 112.377 71.4435C112.344 70.8442 111.987 70.2962 111.489 70.0801C110.975 69.8562 110.329 70.0305 110.048 70.465C109.704 70.9982 109.825 71.893 110.775 72.5839C110.91 72.6822 110.939 72.8712 110.841 73.0058C110.744 73.14 110.555 73.1709 110.419 73.0725Z" fill="#E0916E"/>
<path d="M226.145 248.287C225.977 248.266 225.858 248.114 225.878 247.946C226.083 246.273 226.04 244.582 225.751 242.922C225.722 242.756 225.834 242.597 226 242.568C226.168 242.54 226.325 242.651 226.354 242.817C226.653 244.536 226.697 246.287 226.485 248.02C226.464 248.194 226.302 248.309 226.145 248.287Z" fill="#FE484C"/>
</svg>
